<svg class="z-4 absolute bottom-[-1px] left-0 w-full h-32 lg:h-60" preserveAspectRatio="none" viewBox="0 0 1600 85" fill="none" xmlns="http://www.w3.org/2000/svg"><path style="fill:white;" d="M1600 85 C1066.66 85 533.33 85 0 85 0 76.81 0 68.63 0 60.45 0.42 60.44 0.85 60.43 1.28 60.42 7.57 60.26 13.83 60.4 20.08 60.53 27.01 60.68 33.92 60.83 40.86 60.59 45.91 60.41 50.44 59.93 54.35 58.05 57.48 56.54 61.32 56.09 65.43 55.86 69.37 55.58 73.25 55.09 77.02 54.4 81.63 53.64 86.2 52.8 90.77 51.97 90.78 51.96 90.79 51.96 90.8 51.96 90.8 51.96 90.8 51.96 90.8 51.96 91.23 52.11 91.66 52.26 92.09 52.41 93.59 51.96 95.08 51.52 96.57 51.1 98.25 51.95 100.11 52.02 101.94 52.04 106.18 49.08 111.02 48.44 115.86 47.8 117.52 47.92 119.07 48.3 120.4 49.22 124.67 48.94 128.66 47.8 131.99 44.82 133.76 44.16 135.66 43.79 137.46 44.22 140.73 43.53 144.01 42.46 146.47 39.69 147.47 39 149.27 38.78 150.71 38.75 152.13 38.67 153.54 38.58 154.96 38.49 156.59 38.6 158.22 38.7 159.85 38.69 167.32 38.37 174.78 37.98 182.24 37.93 190.53 37.9 198.82 38.08 207.11 38.27 210.89 38.36 214.68 38.46 218.46 38.53 220.37 38.56 222.28 38.56 224.19 38.55 226.76 38.53 229.11 38.91 231.55 39.47 235.24 40.06 238.38 39.17 241.78 37.89 244.66 36.39 247.88 35.48 251.1 34.6 253.76 34.8 256.46 34.37 259.15 33.9 264.54 31.94 270.09 32.02 275.64 32.12 277.82 32.16 279.99 32.25 282.16 32.25 284.05 32.26 285.93 32.12 287.82 31.96 290.5 31.88 293.18 31.79 295.87 31.71 301.73 31.48 307.59 31.2 313.45 31.13 319.98 30.98 326.52 31.03 333.03 31.16 339.93 31.62 346.82 32.17 353.7 32.71 354.19 32.67 354.68 32.63 355.16 32.59 357.35 32.67 359.54 32.73 361.73 32.8 363.77 32.96 365.8 33.13 367.83 33.3 368.81 33.22 369.78 33.14 370.76 33.07 376.53 33.16 382.3 33.27 388.07 33.34 396.9 33.86 405.73 34.42 414.53 35.01 417.74 36.13 421.09 36.27 424.39 36.13 432.67 33.24 441.39 32.38 450.23 31.39 456.61 30.44 463.04 30.11 469.48 30.19 471.44 30.32 473.38 29.77 475.35 29.16 476.46 28.77 477.59 28.38 478.73 28.14 479.1 28.04 479.47 27.94 479.85 27.83 480.46 28 481.09 28.18 481.68 28.11 485.03 27.42 488.45 26.94 491.72 27.47 499.59 28.58 507.49 28.13 515.3 26.71 526.36 24.6 537.4 25.17 548.46 26.57 550.39 26.77 552.34 26.81 554.28 26.86 555.73 26.88 557.17 26.91 558.6 26.96 562.53 27.11 565.85 27.72 568.4 29.7 569.59 30.59 571.13 31.31 572.92 31.81 574.71 32.3 576.68 32.55 578.67 32.53 579.72 32.49 580.77 32.51 581.8 32.6 595.08 34.51 608.65 34.83 622.22 35.14 626.16 35.23 630.1 35.33 634.04 35.46 636.65 35.52 639.26 35.41 641.82 35.13 653.11 33.96 664.54 33.3 676.02 33.16 680.9 33.12 685.66 32.74 689.73 30.84 690.87 30.32 692.43 30.07 693.97 29.82 694.47 29.74 694.98 29.66 695.46 29.57 695.94 29.48 696.46 29.44 696.98 29.4 697.7 29.35 698.42 29.3 698.99 29.11 704.24 27.32 709.88 27.49 715.55 27.65 716.47 27.68 717.38 27.71 718.3 27.73 726.12 27.89 733.97 28 741.76 28.1 743.61 28.13 745.45 28.15 747.3 28.18 747.3 28.18 747.3 28.18 747.3 28.18 747.3 28.18 747.3 28.18 747.3 28.18 749.11 28.13 750.9 28.08 752.7 28.08 759.13 28.27 765.54 28.52 771.95 28.69 774.42 28.59 776.87 28.33 779.29 27.89 780.46 27.86 781.63 27.78 782.8 27.64 787.08 27.53 791.37 27.4 795.67 27.45 805.74 26.91 815.81 26.38 825.89 25.91 827.7 25.83 829.53 25.93 831.35 26.04 831.57 26.03 831.78 26.01 832 26 833.55 26.01 835.09 26.02 836.64 26.01 839.37 26.13 842.1 26.23 844.82 26.34 847.17 26.25 849.51 26.16 851.85 26.02 860.83 26.23 869.8 26.36 878.77 26.62 883.63 26.9 888.47 27.41 893.31 27.93 893.69 27.89 894.07 27.85 894.46 27.81 899.05 27.32 903.64 26.82 908.23 26.3 909.87 26.38 911.51 26.35 913.15 26.33 927.77 27.88 942.38 29.48 956.99 31.12 958.54 31.23 960.05 31.65 961.57 32.09 961.7 32.04 961.84 31.98 961.97 31.92 962.71 32.02 963.45 32.11 964.21 32.25 965.9 32.23 967.59 32.27 969.27 32.32 970.63 32.55 971.99 32.79 973.38 32.8 977.69 33.29 982.01 33.72 986.33 34.16 989.18 34.34 992.02 34.52 994.85 34.59 997.83 34.17 1000.85 34.13 1003.86 34.18 1006.47 34.39 1009.06 34.59 1011.61 35.16 1018.23 36.85 1024.96 37.25 1031.7 37.36 1032.77 37.38 1033.85 37.4 1034.93 37.42 1034.93 37.42 1034.93 37.42 1034.93 37.42 1034.93 37.42 1034.93 37.42 1034.94 37.42 1037.38 37.37 1039.83 37.33 1042.26 37.52 1043.91 37.65 1045.56 37.92 1047.2 38.2 1054.99 38.34 1062.79 38.48 1070.53 37.87 1075.79 37.46 1081.02 36.59 1086.26 35.71 1087.32 35.89 1088.37 36.07 1089.44 36.2 1093.81 35.73 1098.18 35.16 1102.55 34.63 1107.34 34.27 1112.14 34.14 1116.91 34.29 1125.61 34.27 1134.3 34.41 1143 35.01 1155.05 35.95 1167.08 36.68 1179.17 35.91 1182.25 35.69 1185.26 36.18 1188.28 36.67 1190.96 36.64 1193.61 36.43 1196.26 36.18 1202.14 36.81 1207.87 37.96 1213.61 39.13 1216.46 39.69 1219.31 40.26 1222.18 40.78 1223.53 41.12 1224.9 41.38 1226.27 41.65 1227.26 41.45 1228.25 41.26 1229.19 40.8 1232.93 41.18 1236.7 41.67 1240.33 43.1 1243.39 43.72 1246.55 44.02 1249.74 43.98 1255.11 44.23 1260.5 44.44 1265.88 44.62 1271.49 45.03 1277.1 45.38 1282.7 45.82 1285.22 45.91 1287.72 46.16 1290.22 46.47 1293.92 46.72 1297.51 46.8 1301.01 46 1306.55 46.36 1311.78 47.34 1316.7 50.41 1317.91 50.77 1319.26 50.91 1320.49 50.76 1321.99 51.2 1323.52 51.66 1324.61 53.07 1324.8 53.2 1325.02 53.31 1325.28 53.4 1326.42 53.66 1327.45 53.35 1328.49 52.99 1331.93 52.23 1335 53.16 1338.08 54.15 1339.72 54.55 1341.37 54.99 1343.06 55.3 1344.84 55.59 1346.65 55.78 1348.46 55.85 1351.06 55.92 1353.65 55.95 1356.24 55.89 1359.89 55.98 1363.53 55.97 1367.14 56.24 1369.12 56.3 1371.06 56.71 1373.01 57.19 1374.92 57.59 1376.84 58.07 1378.79 58.31 1380.95 58.64 1383.14 58.7 1385.34 58.73 1387.61 58.67 1389.87 58.56 1392.12 58.52 1395.63 58.87 1399.12 59.35 1402.61 59.86 1403.18 59.87 1403.78 59.86 1404.26 59.71 1405.97 59.15 1407.66 59.37 1409.03 60.36 1412.11 62.84 1415.01 62.43 1418.18 60.89 1422.94 59.02 1427.87 59.09 1432.89 59.6 1441.18 61.4 1449.61 61.51 1458.03 61.61 1458.64 61.61 1459.26 61.64 1459.86 61.71 1462.43 62.65 1465.1 62.83 1467.77 62.73 1474.5 59.85 1481.58 59.03 1488.75 58.79 1491.07 59.39 1493.43 59.2 1495.77 58.85 1500.2 56.9 1504.79 56.95 1509.44 57 1509.65 57 1509.85 57 1510.06 57 1512.29 57 1514.27 56.4 1516.19 55.47 1521.49 55.23 1526.08 57.03 1530.46 59.96 1533.98 60.59 1537.69 60.9 1541.43 60.93 1550.47 61.38 1559.51 61.87 1568.54 62.19 1572.83 62.2 1577.09 62.09 1581.28 61.83 1583.09 62.38 1584.94 62.02 1586.68 61.26 1589.28 59.04 1592.24 58.67 1595.46 58.74 1596.32 58.75 1597.18 58.74 1598.05 58.71 1598.7 61.62 1599.36 64.52 1600 67.46 1600 73.31 1600 79.15 1600 85 " data-original="M1600 85.0002H0L6.72201e-06 8.10936C0.428474 8.12732 0.856818 8.14642 1.28504 8.16667C7.57117 8.46166 13.8312 8.20168 20.0856 7.94195C27.0105 7.65437 33.9291 7.36705 40.8671 7.83362C45.9127 8.17773 50.4464 9.09902 54.3534 12.6954C57.4873 15.5925 61.3213 16.4584 65.4373 16.8913C69.3744 17.4271 73.2538 18.3638 77.0223 19.6885C81.6345 21.15 86.2041 22.7536 90.773 24.3569L90.8001 24.3664L90.803 24.3675C92.609 25.0012 94.4148 25.6349 96.2232 26.2596C96.7339 26.3737 97.2288 26.5565 97.6959 26.8035C103.093 30.7053 109.291 31.5742 115.493 32.4437C116.013 32.5167 116.534 32.5896 117.053 32.6644C122.339 33.4192 127.166 35.2174 131.073 39.3244C132.123 40.5696 133.443 41.5255 134.917 42.1104C138.991 43.3203 142.743 44.8189 145.563 48.4819C146.295 49.4254 148.071 49.7472 149.387 49.8249C151.245 49.9319 153.104 50.048 154.963 50.1641L154.967 50.1644C161.788 50.5905 168.609 51.0166 175.43 50.9904C184.936 50.9904 194.447 50.7103 203.956 50.4301C208.356 50.3006 212.755 50.171 217.153 50.0691C218.982 50.0286 220.811 50.0251 222.64 50.0216C224.812 50.0174 226.984 50.0133 229.156 49.947C232.969 49.836 235.905 51.4345 239.185 53.5435C242.503 55.6841 246.277 57.0374 250.046 58.3888C251.534 58.9224 253.021 59.4556 254.479 60.0369C260.862 62.5959 267.449 62.4857 274.04 62.3754C276.283 62.3378 278.526 62.3003 280.762 62.3679C282.719 62.4276 284.67 62.6675 286.621 62.9074C288.294 63.1132 289.969 63.319 291.647 63.4113C297.539 63.7221 303.442 63.9885 309.344 63.9663C315.079 63.9663 320.835 63.6777 326.549 63.2892C335.604 62.6732 344.658 61.961 353.707 61.2493L353.708 61.2492C355.746 61.0889 357.784 60.9287 359.821 60.7695C362.494 60.5635 365.164 60.335 367.833 60.1066L367.834 60.1064C371.924 59.7564 376.013 59.4065 380.109 59.1378C391.217 58.3978 402.328 57.7356 413.443 57.151C414.999 57.0023 416.566 57.2418 418.019 57.8503C426.491 62.0461 435.506 63.4002 444.679 64.7544C452.381 66.0087 460.152 66.728 467.943 66.9078C470.105 66.9078 472.239 67.804 474.399 68.7115C475.715 69.2641 477.041 69.8211 478.389 70.1824C478.873 70.3118 479.362 70.4499 479.854 70.5891L479.856 70.5896C482.404 71.3093 485.041 72.0544 487.509 71.7474C493.399 71.1546 499.339 71.5025 505.132 72.7797C519.329 75.5103 533.484 74.7333 547.681 72.8796C549.864 72.598 552.078 72.527 554.286 72.4562C555.733 72.4098 557.177 72.3635 558.608 72.2581C562.536 71.9695 565.858 70.804 568.407 67.0078C569.59 65.3022 571.139 63.921 572.925 62.9789C574.71 62.0368 576.682 61.561 578.676 61.591C579.722 61.6689 580.774 61.6205 581.81 61.4467C595.089 57.79 608.652 57.1878 622.229 56.5849C626.167 56.41 630.107 56.235 634.042 55.9854C636.65 55.8715 639.262 56.0801 641.825 56.607C653.111 58.8451 664.549 60.1073 676.027 60.3811C680.906 60.4588 685.669 61.1803 689.733 64.8211C690.872 65.823 692.431 66.3037 693.97 66.778C694.477 66.9343 694.981 67.0898 695.468 67.2631C695.945 67.4336 696.465 67.5065 696.981 67.5788C697.708 67.6806 698.425 67.7811 698.999 68.1511C704.242 71.5626 709.888 71.2473 715.557 70.9307C716.472 70.8795 717.389 70.8284 718.304 70.7929C726.128 70.4821 733.974 70.2711 741.767 70.0714C743.615 70.0255 745.46 69.9771 747.304 69.9288L747.306 69.9287L747.314 69.9285C754.848 69.731 762.353 69.5342 769.878 69.5163C772.804 69.692 775.713 70.1039 778.58 70.7485C779.581 70.9162 780.578 71.1367 781.575 71.3571C783.282 71.7349 784.99 72.1126 786.718 72.2247C799.205 72.9647 811.692 73.6234 824.179 74.2006C826.565 74.3052 828.961 74.1647 831.353 74.0246L831.355 74.0245C832.262 73.9714 833.168 73.9183 834.072 73.8786C837.657 73.73 841.242 73.5901 844.826 73.4502L844.835 73.4498C854.629 73.0676 864.421 72.6854 874.208 72.1249C880.59 71.761 886.952 71.0847 893.315 70.4084L893.32 70.4079C894.912 70.2386 896.505 70.0693 898.099 69.9049C917.313 67.8625 936.518 65.7609 955.711 63.6001C957.528 63.3847 959.302 62.745 961.076 62.1054L961.077 62.1049C961.77 61.8548 962.464 61.6047 963.16 61.3801C963.721 61.1953 964.272 60.9454 964.822 60.6958C965.725 60.2858 966.626 59.8768 967.568 59.7595C972.863 59.0699 978.166 58.461 983.47 57.8521C986.276 57.5299 989.082 57.2077 991.888 56.8735C993.075 56.7316 994.262 56.6193 995.446 56.5072C998.43 56.2249 1001.39 55.9444 1004.29 55.1974C1012.99 52.9774 1021.83 52.4446 1030.69 52.3003C1032.1 52.2774 1033.52 52.2518 1034.93 52.2263L1034.93 52.2262L1034.94 52.2262L1034.94 52.2262L1034.94 52.2261C1045.17 52.0414 1055.42 51.8561 1065.6 52.6555C1072.51 53.1952 1079.38 54.3459 1086.26 55.497L1086.26 55.4974C1090.7 56.24 1095.13 56.9829 1099.58 57.5617C1103.73 57.9337 1107.9 57.9337 1112.04 57.5617C1118.85 57.2106 1125.65 56.665 1132.45 56.1193C1147.15 54.9403 1161.85 53.7609 1176.63 54.5425C1180.24 54.7322 1183.75 54.0047 1187.26 53.2775C1188.68 52.9833 1190.1 52.6891 1191.53 52.4557C1198.26 51.3661 1204.79 49.5792 1211.33 47.7931C1214.51 46.9226 1217.69 46.0522 1220.9 45.2629C1222.68 44.8241 1224.47 44.4752 1226.27 44.1266L1226.27 44.1263C1230.42 43.3199 1234.56 42.5149 1238.51 40.6009C1240.96 39.6234 1243.54 39.0761 1246.16 38.9804C1251.15 38.4592 1256.15 37.9894 1261.15 37.5197C1267.75 36.8991 1274.36 36.2786 1280.95 35.5393C1283.42 35.2582 1285.86 34.7614 1288.31 34.2649C1290.98 33.7226 1293.65 33.1805 1296.34 32.9198C1303.31 32.2427 1309.82 30.8218 1315.9 26.6705C1316.89 25.9934 1318.06 25.6022 1319.25 25.2049C1321.16 24.5665 1323.11 23.9122 1324.46 22.0307C1324.64 21.8245 1324.85 21.6641 1325.1 21.562C1325.34 21.46 1325.6 21.419 1325.86 21.4423C1329.87 22.2386 1333.38 20.8018 1336.9 19.3656C1338.53 18.6997 1340.16 18.0337 1341.84 17.5907C1343.52 17.1541 1345.24 16.8718 1346.96 16.7471C1349.07 16.5908 1351.17 16.4831 1353.27 16.3756C1357.43 16.1625 1361.58 15.9499 1365.7 15.3596C1367.75 15.0652 1369.74 14.3211 1371.74 13.5762C1373.51 12.9168 1375.28 12.2567 1377.09 11.9075C1379.43 11.4579 1381.82 11.3612 1384.22 11.2644C1385.79 11.201 1387.36 11.1375 1388.92 10.9751C1393.41 10.5088 1397.88 9.86509 1402.35 9.18799C1402.7 9.137 1403.08 9.10182 1403.45 9.06618C1404.72 8.94663 1406.04 8.82186 1406.85 8.07799C1409.99 5.35849 1412.84 5.85798 1416 7.65619C1418.89 9.36559 1421.95 9.23241 1425.13 8.52201C1435.84 6.15225 1446.73 6.01102 1457.61 5.87003L1459.37 5.84687C1460.08 5.81258 1460.79 5.93348 1461.46 6.20209C1469.92 9.99828 1478.84 11.1416 1487.9 11.5967C1489.12 11.6094 1490.33 11.8421 1491.48 12.2849C1497.31 14.8384 1503.33 14.7762 1509.44 14.7131L1509.44 14.7131C1510.32 14.704 1511.19 14.695 1512.07 14.6936C1518.59 14.6936 1524.11 12.1517 1529.32 8.26666C1530.74 7.26283 1532.39 6.68043 1534.09 6.57951C1544.33 6.00232 1554.58 5.46951 1564.83 5.24751C1570.03 5.29249 1575.22 5.63709 1580.39 6.27982C1581.78 6.47637 1583.08 7.10172 1584.13 8.078C1587.27 10.9862 1590.89 11.4857 1594.84 11.408C1595.7 11.3958 1596.57 11.4248 1597.44 11.4538C1598.3 11.4823 1599.16 11.5108 1600 11.5002V85.0002Z"></path></svg>