<?xml version="1.0" encoding="UTF-8"?>
<svg id="Layer_1" data-name="Layer 1" xmlns="http://www.w3.org/2000/svg" version="1.1" viewBox="0 0 268.5 171">
  <defs>
    <style>
      .cls-1 {
        fill: #eaffb9;
      }

      .cls-1, .cls-2 {
        stroke-width: 0px;
      }

      .cls-2 {
        fill: #a515ff;
      }
    </style>
  </defs>
  <path class="cls-2" d="M-292.92-66.81"/>
  <g id="WIND_02" data-name="WIND 02">
    <path class="cls-1" d="M36.39,123.77c-.31.16-.64.29-.93.48-2.18,1.43-4.37,2.85-6.52,4.32-2.22,1.52-4.57,2.79-6.98,3.97-3.19,1.55-6.28,3.28-9.25,5.24-2.11,1.39-4.23,2.77-6.38,4.09-.58.36-1.32.46-2.07.71-.05-.54-.11-.91-.13-1.28-.08-2.26-.26-4.53.02-6.77.41-3.22.83-6.44,1.41-9.63,1.1-6,2.96-11.8,5.24-17.45,1.79-4.46,3.75-8.84,6.12-13.03,2.39-4.21,4.96-8.31,8.11-12.01.12-.14.25-.29.33-.46,1.01-2.13,2.72-3.7,4.29-5.39,1.85-1.99,3.73-3.96,5.6-5.93,2.19-2.3,4.4-4.58,6.58-6.89,1.81-1.92,3.6-3.86,5.4-5.8.2-.22.38-.46.65-.63-.04.88-1.06,1.35-.85,2.3.38.48.85.4,1.29.11.57-.38,1.09-.81,1.64-1.21,2.08-1.51,4.2-2.96,6.22-4.54,1.59-1.25,3.04-2.7,4.59-4.01.98-.83,2.02-1.58,3.04-2.34,2.63-1.96,5.23-3.96,7.92-5.84,3.93-2.73,7.77-5.62,12-7.9,1.86-1,3.66-2.13,5.46-3.24.93-.57,1.8-1.24,2.72-1.83.41-.26.87-.45,1.33-.62,1.27-.48,2.56-.9,3.81-1.42,1.25-.52,2.46-1.14,3.83-1.79-.3.3-.5.54-.73.74-2.28,1.98-4.57,3.94-6.83,5.94-2.24,1.97-4.35,4.07-6.36,6.29-1.18,1.31-2.6,2.42-3.98,3.52-2.3,1.83-4.52,3.76-6.66,5.79-2.22,2.1-4.29,4.34-6.67,6.29-1.77,1.45-3.19,3.32-4.82,4.95-2.82,2.84-5.68,5.66-8.54,8.47-.51.5-1.12.9-1.69,1.33-1.81,1.37-3.57,2.78-5.16,4.42-1.36,1.41-2.88,2.67-4.27,4.05-1.55,1.54-3.05,3.15-4.57,4.72-.79.82-1.58,1.63-2.36,2.45-.36.38-.75.74-.66,1.37.03.21-.13.53-.31.67-1.43,1.11-2.48,2.58-3.66,3.92-.42.48-.85.96-1.21,1.49-.29.43-.47.93-.68,1.4-.44.99.57,1.55,1.44,1.3.35-.1.69-.33.97-.56,2.03-1.68,4.08-3.34,6.06-5.08,1.58-1.39,3.09-2.87,4.62-4.32.65-.62,1.27-1.26,2.01-1.83-.27,1.22-.43,2.41-1.41,3.38-2.33,2.31-4.58,4.71-6.85,7.08-1.25,1.3-2.49,2.62-3.71,3.94-.61.66-1.2,1.34-1.75,2.06-1.38,1.79-2.8,3.55-4.08,5.41-.96,1.39-1.48,3.03-2.17,4.57-.85,1.89-1.83,3.73-2.75,5.59-.62,1.25-1.26,2.49-1.84,3.77-.19.42-.2.91-.35,1.61.41-.24.66-.3.75-.45.51-.82.98-1.6,1.86-2.19.82-.55,1.37-1.5,2.09-2.21,1.83-1.79,3.71-3.54,5.56-5.32.51-.5.97-1.06,1.48-1.55.54-.52,1.08-1.07,1.7-1.48,1.67-1.11,3.34-2.22,5.08-3.2,1.54-.87,3.2-1.53,4.77-2.34,2.41-1.25,4.81-2.51,7.17-3.85,5.14-2.91,9.89-6.4,14.66-9.85,2.87-2.08,5.81-4.05,8.66-6.15,1.73-1.27,3.34-2.69,5.01-4.05,1.96-1.59,3.92-3.18,5.86-4.8,1.16-.96,2.3-1.95,3.42-2.97,2.47-2.26,4.93-4.54,7.36-6.84,1.64-1.56,3.29-3.12,4.81-4.79,1.04-1.13,2.31-1.93,3.53-2.79.89-.63,1.82-1.21,2.74-1.79,1.94-1.24,3.87-2.47,5.82-3.69,1.72-1.08,3.48-2.11,5.18-3.22,2.02-1.32,3.93-2.83,6.03-4.01,3.22-1.82,6.51-3.53,9.85-5.12,3.61-1.72,7.29-3.3,10.96-4.88,3.71-1.59,7.44-3.13,11.17-4.65,3.21-1.3,6.43-2.61,9.68-3.79,1.93-.7,3.94-1.21,5.94-1.75,3.02-.82,6.04-1.66,9.09-2.36,2.97-.68,5.98-1.22,8.98-1.75,2.56-.44,5.14-.82,7.72-1.14,2.78-.34,5.58-.35,8.37-.26,6.46.22,12.85.97,19.12,2.62,3.32.88,6.6,1.86,9.8,3.11.62.25,1.27.43,2.05.69-14.33-1.6-28.5-2-42.71-.14,0,.46.24.6.57.61,1.13.06,2.26.07,3.38.16,1.31.11,2.62.29,3.93.42,1.27.13,2.53.26,3.8.36,1.56.12,3.13.21,4.7.31,1.69.1,3.38.14,5.06.3,1.78.17,3.56.45,5.34.67.67.08,1.35.1,2.02.19,3.47.44,6.91.98,10.33,1.72,4.97,1.07,9.71,2.74,14.33,4.8.63.28,1.15.83,1.67,1.31.44.41.82.89,1.22,1.34.09.1.15.24.32.52-.94-.34-1.72-.56-2.46-.89-2.28-1.02-4.71-1.55-7.12-2.14-3.07-.74-6.17-1.41-9.28-1.97-3.19-.57-6.41-.97-9.61-1.45-.6-.09-1.18-.24-1.78-.34-.24-.04-.49,0-.79,0,.18.66.68.61,1.03.7,1.46.35,2.95.62,4.42.97,2.67.65,5.34,1.32,8,2.03.87.23,1.7.59,2.54.91,3.48,1.33,6.98,2.64,10.45,4.01,2.45.97,4.87,2.02,7.31,3.01.56.23.94.6,1.25,1.09,1.19,1.84,1.62,3.88,1.7,6.13-.75-.27-1.28-.77-1.83-1.22-1.58-1.29-3.31-2.34-5.15-3.24-.77-.38-1.48-.9-2.25-1.29-3.22-1.59-6.58-2.8-10-3.87-3.17-.99-6.41-1.67-9.68-2.22-1.56-.26-3.14-.38-4.72-.51-2.78-.24-5.56-.5-8.35-.63-2.19-.1-4.38-.04-6.57,0-1.47.02-2.94.04-4.41.18-1.99.18-3.97.45-5.95.72-1.9.26-3.8.58-5.7.86-3.72.55-7.45,1.04-11.17,1.64-2.86.47-5.7,1.05-8.54,1.64-.45.09-1.08.12-1.26.91.38,0,.71.03,1.03,0,2.32-.28,4.64-.58,6.96-.87,2.24-.28,4.48-.58,6.73-.84,1.76-.2,3.53-.34,5.3-.52,2.06-.21,4.12-.49,6.19-.62,2.49-.15,4.98-.2,7.47-.25,3.62-.08,7.23.2,10.84.48,1.11.09,2.19.36,3.3.48,1.06.11,2.13.09,3.19.21.95.12,1.88.38,2.82.54.63.1,1.27.08,1.9.19.58.1,1.14.39,1.73.45.54.06,1,.02,1.49.44.33.29,1,.34,1.49.27.88-.13,1.53.41,2.3.57.62.13,1.22.35,1.83.55.63.21,1.26.44,1.89.66,1.06.37,2.13.73,3.19,1.09.18.06.37.1.53.2,3.1,1.9,6.62,2.9,9.8,4.58,3.77,1.98,7.68,3.74,10.98,6.53.74.63,1.6,1.13,2.4,1.7.61.43.76.95.48,1.67-.92,2.36-1.79,4.73-2.7,7.09-.94,2.43-1.83,4.88-2.87,7.26-1.37,3.11-2.78,6.2-4.34,9.21-1.21,2.35-2.6,4.61-4.03,6.83-1.72,2.66-3.55,5.25-5.39,7.83-1.76,2.46-3.56,4.88-5.39,7.29-1.47,1.92-3.01,3.79-4.51,5.69-1.82,2.31-3.61,4.65-5.45,6.94-1.18,1.47-2.41,2.91-3.65,4.34-1.88,2.17-3.78,4.33-5.69,6.47-2.09,2.34-4.21,4.65-6.32,6.98-.61.67-1.19,1.38-1.84,2.01-2,1.94-4.01,3.87-6.05,5.79-1.53,1.44-3.08,2.88-4.66,4.27-2.59,2.26-5.25,4.43-7.8,6.72-1.67,1.51-3.71,2.43-5.52,3.71-.21.15-.48.23-.72.32-2.51.92-5.03,1.83-7.54,2.74-.06.02-.14,0-.35,0,.21-.21.33-.37.48-.49,3.78-2.95,7.59-5.87,11.34-8.86,2.13-1.7,4.21-3.45,5.97-5.55.97-1.16,2.12-2.16,3.15-3.27.3-.32.77-.64.47-1.34-.29.17-.56.28-.77.46-4.75,4.06-9.85,7.65-14.97,11.21-4.54,3.16-9.45,5.68-14.68,7.55-1.7.61-3.28,1.53-4.94,2.27-.65.29-1.33.54-2.02.69-3.5.75-7,1.47-10.51,2.18-3.88.78-7.75,1.58-11.64,2.27-2.37.42-4.78.67-7.17.98-1.38.18-2.76.34-4.15.43,2.13-.93,4.27-1.83,6.38-2.79,1.48-.67,2.93-1.4,4.39-2.12.79-.39,1.61-.55,2.5-.61,2.83-.22,5.6-.78,8.24-1.86.61-.25,1.17-.71,1.63-1.18.64-.66.44-1.28-.47-1.42-1-.15-2.03-.26-3.02-.14-2.17.26-4.29.82-6.37,1.51-2.87.95-5.79,1.69-8.83,1.83-.79.04-1.58.13-2.37.19-1.95.14-3.72-.42-5.43-1.3-1.44-.74-2.41-1.93-3.28-3.22-1.75-2.61-2.72-5.46-2.67-8.63.03-1.78.56-3.43,1.31-5.01,1.97-4.17,4.69-7.82,7.67-11.32,3.71-4.35,8.1-7.91,12.73-11.22,1.37-.98,2.53-2.26,3.8-3.4,2.53-2.26,5-4.61,7.63-6.75,3.32-2.71,6.76-5.28,10.19-7.85,2.23-1.67,4.55-3.21,6.82-4.83,1.47-1.05,2.85-2.23,4.36-3.22,2.11-1.39,4.3-2.66,6.45-3.97.09-.05.21-.06.54-.14-6.01,6.1-12.66,11.13-19.13,16.36.06.09.11.18.17.27,1.2-.59,2.41-1.14,3.58-1.77,2.29-1.23,4.57-2.51,6.84-3.77,1.75-.97,3.42-2.12,5.26-2.88,2.09-.87,3.94-2.21,6.09-2.93.21-.07.43-.13.72-.1-1.34,1.16-2.65,2.36-4.03,3.48-4.67,3.79-9.36,7.55-14.04,11.32-.88.71-1.75,1.44-2.61,2.19-.37.32-.77.67-.99,1.09-1.11,2.18-3.2,3.35-4.88,4.94-.54.51-1.02,1.11-1.42,1.74-.33.52-.07.92.53.86.39-.04.81-.2,1.13-.43,2.15-1.6,4.32-3.19,6.4-4.88,2.11-1.72,4.5-2.91,6.95-4,.12-.06.27-.06.52.08-.22.23-.42.48-.66.68-5.1,4.21-10.26,8.36-15.3,12.64-3.4,2.88-6.73,5.87-9.95,8.94-3.27,3.11-5.77,6.79-7.27,11.09-.05.14-.13.27-.22.44-.79,0-1.58-.03-2.36,0-.82.04-1.67.04-2.45.24-1.05.27-1.21,1.18-.37,1.85,1.16.93,2.51,1.32,4,1.34,1.46.02,2.83-.42,4.2-.83,2.46-.73,4.9-1.49,7.32-2.34,1.99-.7,3.93-1.52,5.89-2.31,2.02-.82,4.04-1.64,6.03-2.52,1.14-.5,2.22-1.12,3.32-1.71,2.62-1.4,5.29-2.71,7.83-4.24,2.8-1.69,5.51-3.54,8.2-5.4,2.2-1.53,4.37-3.11,6.46-4.78,2.53-2.04,5-4.15,7.42-6.32,5.12-4.6,10-9.45,14.47-14.68,2.21-2.59,4.45-5.16,6.49-7.87,2.39-3.16,4.61-6.44,6.84-9.72,1.51-2.22,3-4.46,4.3-6.8,1.65-2.97,3.38-5.91,4.25-9.25.68-2.6,1.3-5.2,1.44-7.9.08-1.62.3-3.24-.2-4.84-.03-.09.04-.21.08-.38,1.84-.47,3.98.1,5.73-1.52-1.6-.54-3.03-.98-4.44-1.5-1.65-.61-3.38-.74-5.08-1.06-1.71-.31-3.4-.69-5.12-.94-2.09-.3-4.2-.47-6.3-.71-1.57-.18-3.15-.38-4.72-.55-1.39-.14-2.78-.29-4.17-.36-2.49-.13-4.99-.23-7.48-.3-1.85-.06-3.71-.12-5.56-.07-2.27.06-4.53.23-6.79.36-2.75.16-5.52.24-8.26.5-1.5.14-2.96.59-4.45.86-2.19.39-4.39.78-6.6,1.08-3.35.45-6.61,1.26-9.81,2.32-2.18.72-4.33,1.55-6.49,2.36-2.93,1.1-5.88,2.18-8.78,3.35-1.75.71-3.42,1.6-5.15,2.36-2.52,1.11-5.09,2.12-7.59,3.28-2.54,1.17-5.02,2.47-7.52,3.71-2.61,1.29-5.21,2.6-7.83,3.85-5.07,2.41-9.86,5.3-14.5,8.43-3.79,2.56-7.49,5.25-11.2,7.94-3.55,2.58-7.09,5.18-10.58,7.84-3.94,3-7.82,6.08-11.74,9.12-1.32,1.02-2.56,2.17-4,2.97-2.31,1.28-4.04,3.29-6.25,4.67-.38.23-.75.47-1.22.58,1.37-1.32,2.73-2.65,4.11-3.95,1.41-1.32,2.85-2.61,4.27-3.9,1.41-1.28,2.93-2.44,4.17-3.98-.65-.49-1-.04-1.31.19-1.22.9-2.38,1.87-3.6,2.76-2.32,1.7-4.67,3.34-6.98,5.04-1.7,1.26-3.37,2.56-5.02,3.88-5.37,4.3-10.74,8.6-16.65,12.16-4.27,2.58-8.61,5.04-13.12,7.18-2.38,1.13-4.85,2.08-7.33,3,2.2-1.46,4.44-2.87,6.58-4.4,2.18-1.56,4.3-3.2,6.4-4.87,2.08-1.65,4.33-3.1,6.19-5.01l-.25-.37ZM121.7,61.29c-.45.55-.99,1.04-.96,1.83,0,.12-.22.29-.38.38-.92.52-1.84,1.03-2.77,1.53-3.29,1.8-6.67,3.47-9.86,5.44-3.26,2.01-6.36,4.28-9.51,6.48-2.63,1.85-5.23,3.75-7.83,5.65-1.73,1.27-3.46,2.54-5.13,3.89-1.79,1.44-3.54,2.95-5.27,4.46-1.05.92-2.06,1.89-3.07,2.86-.24.23-.45.53-.55.84-.08.24-.04.6.1.8.08.12.5.11.7.02.41-.18.79-.44,1.16-.69,2.18-1.5,4.34-3.02,6.52-4.51,1.11-.76,2.28-1.45,3.41-2.18,2.94-1.9,5.8-3.93,8.83-5.67,3.78-2.17,7.7-4.1,11.55-6.16,1.7-.91,3.4-1.83,5.06-2.82,2.09-1.26,4.11-2.63,6.2-3.89,3.29-1.97,6.58-3.94,9.93-5.8,2.46-1.37,5.02-2.56,7.54-3.81.74-.37,1.52-.66,2.27-1,3.17-1.48,6.42-2.78,9.72-3.94,3.09-1.09,6.21-2.13,9.35-3.04,3-.87,6.05-1.64,9.1-2.31,3.05-.67,6.14-1.18,9.22-1.75,2.37-.44,4.76-.82,7.13-1.27.73-.14,1.53-.13,2.37-.72-.58-.04-.95-.11-1.31-.1-2.64.07-5.28.07-7.9.46-3.02.45-6.06.75-9.08,1.22-3.34.53-6.68,1.12-9.99,1.79-2.79.56-5.57,1.2-8.32,1.95-2.32.64-4.56,1.54-6.86,2.26-2.92.92-5.74,2.08-8.51,3.36-.65.3-1.36.5-2.22.81.19-.61.28-.99.43-1.35.12-.29.25-.66.49-.82,2.03-1.38,3.93-2.96,6.22-3.92,1.88-.79,3.75-1.6,5.6-2.44,3.02-1.38,6.1-2.61,9.26-3.64,1.63-.53,3.23-1.14,4.84-1.72-.35-.14-.67-.17-.99-.14-.97.11-1.95.22-2.91.39-1.58.29-3.17.52-4.71.96-1.81.52-3.56,1.23-5.33,1.87-5.14,1.85-10.3,3.67-15.42,5.57-3.95,1.47-7.46,3.75-10.93,6.11-2.21,1.51-4.23,3.32-6.71,4.42-.44.19-.87.5-1.19.85-.54.58-1.33.95-1.7,1.89,1.47-.31,2.77-.69,3.92-1.4,2.6-1.62,5.55-2.23,8.49-3.02ZM230.64,102.87c-.15-.23-.36-.42-.35-.57.08-.74.16-1.5.35-2.22.15-.57.41-1.12.69-1.63.25-.45.63-.83.91-1.27,1.72-2.73,3.44-5.46,5.12-8.22.8-1.31,1.58-2.64,2.21-4.03.92-2.02,1.7-4.1,2.53-6.17,1.35-3.36,2.72-6.72,4.04-10.1.76-1.97,1.44-3.98,2.12-5.98.13-.37.3-.9-.21-1.1-.58-.24-.63.36-.81.7-.04.07-.07.14-.1.2-1.59,3.43-3.08,6.9-4.78,10.27-2.06,4.06-4.26,8.06-6.48,12.04-3.03,5.4-6.6,10.46-10.18,15.49-1.64,2.3-3.38,4.54-5.18,6.71-2.47,2.99-4.98,5.95-7.6,8.81-4.75,5.19-9.85,10.02-15.01,14.79-.97.9-1.87,1.87-2.79,2.82-.23.24-.51.53-.23.89.28.36.66.31,1.02.12.33-.18.66-.36.98-.57,4.81-3.1,9.12-6.83,13.35-10.66,1.06-.96,2.03-2.03,3.11-2.97.78-.68,1.48-1.42,2.14-2.22.65-.79,1.32-1.64,2.57-1.32.17,1.14,0,2.15-.88,2.99-.4.39-.72.88-1.05,1.33-.25.33-.48.68-.69,1.04-.21.35-.1.71.22.89.22.13.57.17.8.08.37-.16.72-.42,1.03-.69,1.05-.92,2.08-1.87,3.12-2.81,3.27-2.96,5.98-6.38,8.45-10.02,1.21-1.78,2.37-3.59,3.61-5.34,3.4-4.82,6.83-9.61,10.23-14.43.39-.56.91-1.09,1.01-1.99-.34.21-.59.31-.76.49-.62.65-1.26,1.3-1.82,2-1.93,2.42-3.84,4.86-5.75,7.3-1.47,1.87-2.87,3.8-4.93,5.35Z"/>
    <path class="cls-1" d="M95,96.44c1.2-.88,2.38-1.8,3.61-2.64,3.52-2.41,7.04-4.8,10.59-7.16,2.85-1.9,5.71-3.81,8.62-5.61,2.43-1.51,4.98-2.84,7.43-4.31,3.1-1.87,6.36-3.42,9.66-4.9,2.09-.94,4.21-1.83,6.29-2.77,2.37-1.07,4.68-2.28,7.09-3.25,2.96-1.2,5.98-2.25,9.01-3.28.87-.3,1.85-.32,2.78-.39.36-.02.73.19,1.1.3,0,.09.02.18.03.27-.42.29-.83.62-1.28.85-2.28,1.16-4.58,2.3-6.88,3.43-4.12,2.03-8.31,3.91-12.55,5.69-2.43,1.02-4.81,2.16-7.24,3.19-4.4,1.87-8.65,4.05-12.88,6.28-2.43,1.28-4.76,2.75-7.14,4.11-4.26,2.44-8.53,4.86-12.79,7.3-1.44.82-2.86,1.68-4.3,2.52-.32.19-.66.35-.99.53-.05-.05-.1-.1-.15-.14Z"/>
    <path class="cls-1" d="M111.29,25.23c-.78.74-1.56,1.48-2.33,2.23-3.51,3.44-7.13,6.76-10.91,9.9-1.31,1.09-2.68,2.09-3.99,3.18-1.88,1.57-3.74,3.17-5.58,4.79-2.23,1.98-4.43,3.98-6.62,6-1.97,1.81-3.91,3.66-5.87,5.48-1.19,1.11-2.38,2.21-3.59,3.29-2.4,2.14-4.81,4.26-7.22,6.38-.42.37-.87.69-1.31,1.03-.07-.05-.14-.09-.21-.14.07-.26.07-.56.22-.78.73-1.1,1.4-2.26,2.26-3.25,2.81-3.22,5.75-6.31,8.89-9.21,2.13-1.97,4.21-4,6.32-5.99.91-.85,1.84-1.68,2.78-2.5.19-.17.45-.25.68-.38.13-.07.31-.1.39-.2,2.11-2.57,4.72-4.58,7.36-6.56,3.93-2.94,7.87-5.86,11.85-8.72,2.23-1.61,4.55-3.1,6.82-4.64.02.02.03.04.05.07Z"/>
    <path class="cls-1" d="M154.4,102.53c-.71.88-1.23,1.6-1.81,2.25-2.37,2.68-4.78,5.34-7.13,8.04-.79.9-1.4,1.96-2.19,2.86-1,1.15-2.26,2.1-3.11,3.34-.64.93-1.76,1.29-2.26,2.38-.34.74-1.15,1.26-1.76,1.86-1.32,1.29-2.64,2.57-3.98,3.84-2.4,2.27-4.8,4.54-7.21,6.79-.23.22-.53.38-.85.6-.28-.56,0-.91.18-1.24.41-.72.84-1.43,1.33-2.09,1.8-2.42,3.57-4.86,5.46-7.19,1.35-1.66,2.86-3.19,4.33-4.74,1.52-1.61,3.04-3.21,4.62-4.75,1.13-1.1,2.37-2.08,3.57-3.11,1.55-1.32,3.12-2.61,4.65-3.94,1.4-1.21,2.76-2.47,4.15-3.69.52-.46,1.03-.96,2-1.2Z"/>
    <path class="cls-1" d="M169.5,124.16c.5-.6.96-1.24,1.5-1.8,2.38-2.43,4.73-4.9,7.19-7.24,1.72-1.64,3.6-3.11,5.4-4.65,3.52-3.03,7.02-6.09,10.58-9.07,1.84-1.54,3.83-2.91,5.7-4.41,2.12-1.7,4.18-3.48,6.28-5.21.36-.29.69-.73,1.41-.5-.3.34-.52.63-.78.88-1.41,1.36-2.85,2.69-4.24,4.07-1.63,1.61-3.15,3.35-4.86,4.87-1.19,1.05-2.23,2.3-3.7,3.05-.46.24-.77.76-1.17,1.14-1.07,1.02-2.14,2.04-3.23,3.03-1.03.94-2.08,1.84-3.12,2.76-.82-.03-.91.84-1.45,1.18-.52.32-.98.75-1.46,1.15-.75.62-1.49,1.25-2.25,1.87-1.9,1.56-3.79,3.12-5.7,4.66-1.79,1.44-3.62,2.84-5.43,4.26-.13.1-.31.15-.47.22-.07-.08-.13-.15-.2-.23Z"/>
    <path class="cls-1" d="M73.79,32.86c-.11.17-.18.34-.3.46-3.27,3.29-6.52,6.6-9.82,9.87-2.81,2.79-5.68,5.52-8.53,8.27-.27.26-.58.48-.86.7-.8-.42-.89-.49-.55-1.05.4-.68.86-1.35,1.4-1.91,2.43-2.48,4.88-4.95,7.37-7.37,1.05-1.02,2.23-1.9,3.32-2.87,1.54-1.38,3.03-2.81,4.58-4.18.7-.63,1.46-1.19,2.22-1.75.44-.32.47-.29,1.18-.16Z"/>
    <path class="cls-1" d="M189.73,57.5c-.36.13-.72.29-1.09.39-3.42.9-6.83,1.83-10.26,2.68-2.33.58-4.69,1.06-7.03,1.57-.36.08-.76.09-1.13.03-.22-.03-.51-.22-.58-.41-.07-.2.03-.53.17-.7.19-.21.49-.35.76-.46,1.73-.64,3.45-1.3,5.2-1.87,2.21-.73,4.42-1.53,6.77-1.67,1.91-.11,3.83-.06,5.75-.05.46,0,.93.13,1.39.21.01.09.03.18.04.28Z"/>
    <path class="cls-1" d="M105.88,20.53c6.88-6.52,14.24-12.4,22.56-16.98-6.88,6.52-14.65,11.84-22.56,16.98Z"/>
    <path class="cls-1" d="M84.2,28.27c.51-.87,1.08-1.64,1.89-2.21,1.35-.95,2.71-1.86,4.09-2.77.88-.58,1.79-1.09,2.68-1.67,2.05-1.33,4.09-2.7,6.15-4.02.58-.37,1.15-.82,1.96-.89,0,.62-.48.8-.8,1.04-1.38,1.05-2.79,2.06-4.19,3.08-3.17,2.31-6.35,4.61-9.52,6.92-.3.22-.62.43-.94.62-.37.23-.76.33-1.3-.12Z"/>
    <path class="cls-1" d="M195.49,95.3c-.37.45-.7.94-1.12,1.33-2.28,2.09-4.58,4.15-6.89,6.21-.11.1-.35.04-.54.06-.3-.7.14-1.03.54-1.37,1.64-1.39,3.29-2.79,4.93-4.18.6-.51,1.19-1.05,1.81-1.55.34-.27.73-.47,1.09-.7.06.07.12.13.19.2Z"/>
    <path class="cls-1" d="M165.13,92.07c-.09.36-.08.59-.19.7-1.74,1.71-3.5,3.42-5.26,5.1-.14.13-.4.13-.63.2-.32-.45-.26-.85.07-1.15,1.75-1.59,3.53-3.16,5.31-4.72.11-.1.34-.07.71-.13Z"/>
    <path class="cls-1" d="M202.25,75.76c-2.08,1.79-4.16,3.58-6.24,5.36-.33.29-.68.57-1.11.93-.21-.27-.36-.47-.6-.78.45-.46.83-.99,1.32-1.35,1.87-1.39,3.79-2.72,5.66-4.1.37-.27.64-.33.98-.03l-.02-.03Z"/>
    <path class="cls-1" d="M202.27,75.79c.1-.3.12-.67.31-.88.28-.31.69-.51,1.18-.61-.51.48-1.01.97-1.51,1.46,0,0,.02.03.02.03Z"/>
  </g>
</svg>