<?xml version="1.0" encoding="UTF-8"?>
<svg id="Layer_1" data-name="Layer 1" xmlns="http://www.w3.org/2000/svg" version="1.1" viewBox="0 0 200.5 154">
  <defs>
    <style>
      .cls-1 {
        fill: #eaffb9;
      }

      .cls-1, .cls-2 {
        stroke-width: 0px;
      }

      .cls-2 {
        fill: #a515ff;
      }
    </style>
  </defs>
  <path class="cls-2" d="M-292.92-83.81"/>
  <g id="WIND_03" data-name="WIND 03">
    <path class="cls-1" d="M22.49,102.29c-.29-.11-.38.11-.5.3-1.33,2.19-2.68,4.37-3.99,6.58-1.75,2.97-3.53,5.92-5.19,8.94-1.75,3.18-3.26,6.49-4.53,9.9-.22.58-.66,1.08-.95,1.64-1.08,2.08-2.15,4.17-3.21,6.26-.19.38-.3.79-.59,1.15.1-.67.16-1.34.29-2,.45-2.23.91-4.46,1.4-6.68.38-1.71.83-3.42,1.25-5.12.47-1.92.91-3.86,1.43-5.77.33-1.19.73-2.37,1.21-3.51,1.1-2.63,2.22-5.25,3.41-7.83,1.11-2.39,2.31-4.75,3.51-7.1.67-1.32,1.42-2.6,2.13-3.89.7-1.27,1.35-2.57,2.09-3.81.84-1.42,1.76-2.79,2.64-4.19.47-.75.9-1.51,1.36-2.26.2-.33.43-.64.65-.96,1.12-1.65,2.22-3.31,3.36-4.95.7-1.01,1.46-1.99,2.2-2.98.65-.88,1.31-1.75,1.98-2.62.64-.82,1.3-1.62,1.93-2.45.46-.6.86-1.26,1.35-1.84,1.14-1.38,2.32-2.72,3.47-4.09,1.18-1.4,2.34-2.83,3.53-4.23,1.49-1.74,2.99-3.48,4.54-5.17,2.11-2.31,4.28-4.58,6.42-6.87.75-.8,1.44-1.66,2.23-2.42,1.77-1.72,3.42-3.56,5.28-5.19,1.12-.98,2.14-2.06,3.24-3.06,1.44-1.32,2.9-2.6,4.36-3.9.8-.71,1.57-1.46,2.41-2.12,2.77-2.18,5.39-4.53,8.37-6.44.6-.38,1.18-.8,1.83-1.13-.33.31-.64.63-.98.93-1.78,1.6-3.59,3.18-5.35,4.81-2.82,2.6-5.66,5.18-8.4,7.86-2.75,2.68-5.39,5.47-8.08,8.21-2.07,2.11-4.13,4.23-6.2,6.35-.27.28-.55.56-.82.85.06.06.11.11.17.17,1.22-1.07,2.44-2.14,3.66-3.21-1.11,1.59-2.51,2.92-3.77,4.37-1.28,1.48-2.53,2.98-3.81,4.47-1.25,1.45-2.51,2.89-3.77,4.34.06.05.11.1.17.16,1.56-1.6,3.11-3.21,4.69-4.78,1.6-1.59,3.22-3.17,4.87-4.72,1.65-1.55,3.31-3.08,5.01-4.58,1.69-1.49,3.41-2.93,5.15-4.36,1.71-1.41,3.43-2.81,5.19-4.16,1.79-1.38,3.61-2.71,5.44-4.02,1.84-1.32,3.69-2.62,5.57-3.88,1.88-1.25,3.8-2.43,5.7-3.64,1.89-1.21,3.86-2.28,5.79-3.4.04.05.08.09.12.14-.18.35-.31.73-.54,1.05-.92,1.27-1.83,2.54-2.81,3.77-.58.73-1.22,1.42-1.91,2.05-.81.74-1.71,1.4-2.55,2.1-1.37,1.15-2.74,2.29-4.08,3.47-1.83,1.62-3.65,3.25-5.42,4.93-1.56,1.47-3.06,3.01-4.57,4.53-1.34,1.35-2.67,2.7-3.97,4.08-.96,1.02-1.88,2.09-2.81,3.15-1.72,1.97-3.48,3.92-5.15,5.93-2.45,2.95-4.84,5.94-7.26,8.92-1.13,1.39-2.28,2.77-3.36,4.19-1.37,1.8-2.72,3.62-4.02,5.47-1.1,1.55-2.15,3.14-3.18,4.74-1.67,2.57-3.41,5.1-4.95,7.74-1.65,2.83-3.11,5.78-4.65,8.67-.03.07-.04.15.05.3.17-.21.36-.41.5-.64.77-1.25,1.48-2.53,2.29-3.74,1.47-2.2,2.99-4.36,4.49-6.54.67-.98,1.36-1.94,2.04-2.92,1.28-1.83,2.53-3.68,3.84-5.48,1.42-1.95,2.88-3.88,4.37-5.79,1.01-1.3,2.1-2.54,3.14-3.82.77-.94,1.5-1.91,2.27-2.84,1.86-2.25,3.7-4.51,5.61-6.72,2.14-2.48,4.32-4.94,6.54-7.35,1.83-1.99,3.74-3.9,5.62-5.84,1.04-1.07,2.08-2.14,3.11-3.22.23-.24.42-.5.62-.76.07.06.14.12.21.18-.24.32-.46.65-.71.96-.41.51-.86.99-1.27,1.5-1.27,1.62-2.53,3.24-3.78,4.88-.8,1.05-1.56,2.13-2.35,3.18-.94,1.25-1.91,2.47-2.85,3.72-.42.56-.79,1.17-1.2,1.75-.96,1.35-1.93,2.68-2.89,4.04-.81,1.15-1.6,2.31-2.39,3.47-1.16,1.69-2.34,3.37-3.47,5.08-1.29,1.95-2.52,3.94-3.83,5.88-.87,1.3-1.82,2.54-2.73,3.82-.82,1.14-1.64,2.27-2.45,3.41-.45.63-.88,1.26-1.32,1.89-1.2,1.74-2.38,3.49-3.59,5.23-.64.93-1.37,1.8-1.97,2.76-.93,1.48-1.77,3.01-2.67,4.51-.42.71-.89,1.39-1.32,2.1-1.39,2.23-2.79,4.46-4.16,6.7-1.01,1.64-2.03,3.27-2.97,4.94-1.07,1.91-2.46,3.62-3.51,5.54-.91,1.66-1.86,3.31-2.78,4.97-.84,1.5-1.66,3.01-2.49,4.52-.17.3-.33.61-.55.9.41-2.29,1.21-4.5,1.29-6.83l-.21-.07c-.11.1-.26.17-.33.3-.5.86-1.04,1.7-1.46,2.59-1.09,2.33-2.46,4.49-3.72,6.73-.78,1.39-1.38,2.88-2.09,4.31-.66,1.33-1.37,2.63-2.06,3.95-.3.58-.6,1.16-.9,1.73-.53.99-1.08,1.97-1.62,2.95-.05.09-.14.16-.31.34,0-.29-.02-.46,0-.63.47-3.34,1.21-6.62,2.08-9.87.82-3.06,1.78-6.08,2.65-9.13.45-1.57,1.19-3.01,1.8-4.51.58-1.43,1.15-2.86,1.72-4.29,1.09-2.78,2.45-5.43,3.78-8.1.95-1.93,1.91-3.86,2.8-5.81.45-.99.75-2.05,1.12-3.07.74-.9,1.09-1.97,1.59-3.05-.15,0-.19,0-.2,0-.5.92-1.01,1.85-1.5,2.78-.03.06.08.18.13.28ZM30.44,101.78s-.1-.08-.14-.12c-.3.36-.61.72-.5,1.3.21-.39.43-.79.64-1.18Z"/>
    <path class="cls-1" d="M60.05,148.74c-.47-.76-.55-1.59-.61-2.4-.1-1.32-.15-2.65-.1-3.97.04-1.07.21-2.14.4-3.19.46-2.47.99-4.93,1.46-7.39.81-4.23,1.83-8.41,3.15-12.51.5-1.55.97-3.11,1.45-4.66.08-.26.14-.52.24-.85-.42.15-.46.47-.54.71-.64,2.1-1.78,3.97-2.64,5.97-1.05,2.43-2.08,4.87-3.02,7.34-1.02,2.68-1.84,5.42-2.97,8.06-1.72,4.01-3.03,8.17-4.13,12.4-.4,1.54-.94,3.05-1.41,4.58-.1.31-.16.64-.24.96-.63.11-.72.06-.69-.48.03-.47.11-.93.19-1.39.37-2.18.72-4.36,1.12-6.53.87-4.69,2.1-9.29,3.42-13.87.87-3.01,1.64-6.05,2.53-9.05.48-1.63,1.14-3.21,1.7-4.82.44-1.27.85-2.55,1.3-3.82.99-2.78,1.99-5.55,2.98-8.33.03-.09.03-.2.04-.35-.61.47-2.61,4.09-4.24,7.54-1.22,2.59-2.53,5.14-3.72,7.75-1.2,2.63-2.34,5.29-3.43,7.98-1.07,2.64-2.04,5.32-3.16,7.95.14-.52.26-1.04.41-1.55.72-2.55,1.42-5.1,2.17-7.65.89-3.02,1.92-5.98,3.17-8.87.76-1.74,1.43-3.52,2.23-5.25,1.09-2.35,2.2-4.69,3.42-6.97,1.46-2.73,3.01-5.42,4.61-8.07,1.15-1.91,2.44-3.73,3.68-5.58,1.04-1.55,2.05-3.12,3.14-4.63,1.41-1.97,2.89-3.88,4.31-5.84,1.71-2.37,3.58-4.61,5.52-6.79,1.83-2.06,3.75-4.05,5.66-6.03,1.88-1.94,3.78-3.86,5.73-5.74,1.01-.97,2.11-1.85,3.19-2.74,1.21-1,2.44-1.99,3.68-2.96.24-.19.54-.31.8-.45.36.38.2.65.02.9-.29.4-.61.79-.9,1.19-2.64,3.69-5.08,7.5-7.06,11.59-1.67,3.45-3.34,6.91-4.96,10.38-1.7,3.65-3.27,7.36-4.61,11.16-1.11,3.12-2.21,6.25-3.32,9.37-.41,1.14-.86,2.27-1.27,3.41-.13.37-.3.65-.78.55-.28-.4-.16-.85-.07-1.27.35-1.62.71-3.23,1.1-4.85.66-2.79,1.33-5.58,2.01-8.37.11-.44.26-.88.33-1.34-8.94,18.91-16.39,38.36-21.25,58.78Z"/>
    <path class="cls-1" d="M125.3,15.96c3.24-.86,6.39-2.12,9.82-2.32-.17-.05-.34-.14-.51-.15-2.09-.2-4.18-.28-6.28-.07-2.42.25-4.77.83-7.09,1.52-1.85.55-3.71,1.06-5.54,1.66-1.88.62-3.73,1.33-5.59,2.03-1.44.54-2.88,1.09-4.3,1.67-.64.26-1.23.61-1.85.9-1.01.47-2.04.93-3.11,1.43-.11-.47.17-.65.4-.8.88-.62,1.76-1.24,2.69-1.8,1.42-.86,2.86-1.71,4.33-2.49,1.02-.54,2.1-.96,3.15-1.43.02-.01.06,0,.08-.02,1.09-.86,2.46-1.06,3.71-1.53,1.04-.38,2.12-.63,3.18-.95.5-.15,1.05-.25,1.49-.52.4-.24.79-.15,1.17-.23.39-.08.76-.28,1.16-.38,1.6-.37,3.23-.65,4.81-1.11,1.7-.49,3.46-.57,5.18-.88,1.25-.22,2.51-.38,3.77-.53.79-.09,1.59-.11,2.38-.15,2.14-.11,4.29-.07,6.43,0,1.44.04,2.86.23,4.25.62.63.17,1.28.27,2.01.26-.23-.22-.45-.45-.69-.66-1.18-1.04-2.34-2.1-3.57-3.09-.9-.72-1.9-1.32-2.85-1.98-.77-.54-1.52-1.09-2.28-1.64-.05-.04-.07-.13-.16-.34.74.09,1.39.15,2.02.26.68.12,1.36.25,2.01.47,1.12.38,2.25.75,3.31,1.27,1.77.88,3.52,1.83,5.22,2.83,1.67.98,3.14,2.22,4.51,3.6,1.8,1.8,3.45,3.73,4.86,5.84,1.28,1.93,2.08,4.08,2.66,6.31.55,2.12.85,4.27.74,6.46-.04.77-.12,1.54-.18,2.3-.02.21,0,.41,0,.81,1.74-2.14,3.28-4.19,4.5-6.69.03.29.07.41.06.53-.31,3.27-1.46,6.26-3.15,9.05-.57.94-1.04,1.95-1.62,2.88-.81,1.31-1.66,2.59-2.52,3.87-.6.89-1.21,1.78-1.88,2.62-.71.9-1.5,1.75-2.25,2.62-1.19,1.38-2.35,2.77-3.76,3.94-2.27,1.88-4.48,3.85-6.78,5.69-1.94,1.55-4.02,2.9-6.24,4.05-1.86.96-3.64,2.07-5.5,3.04-1.36.71-2.78,1.32-4.19,1.93-1.72.74-3.46,1.43-5.19,2.14-.05.02-.1.04-.16.05-.2,0-.49.08-.59-.02-.21-.22-.04-.48.16-.63.83-.65,1.64-1.31,2.5-1.9,1.65-1.14,3.32-2.26,4.85-3.58,2.08-1.8,4.2-3.57,6.25-5.41.99-.88,1.85-1.9,2.64-2.98.38-.52.89-.95,1.29-1.46.36-.45.61-.98.97-1.42,1.05-1.3,2.14-2.56,3.19-3.86,2.25-2.78,4.11-5.79,5.39-9.16.78-2.06,1.54-4.11,1.84-6.3.25-1.84.36-3.69.11-5.53-.04-.28,0-.63-.43-.74-.33.2-.18.54-.2.82-.08,1.15-.09,2.31-.23,3.46-.19,1.54-.81,2.98-1.37,4.41-.39,1-.81,1.99-1.22,2.98-.06.15-.16.28-.33.57.37-1.78.74-3.38,1.03-4.99.33-1.88.62-3.76.14-5.66-.65-2.56-1.83-4.81-3.66-6.75-1.41-1.5-2.94-2.85-4.77-3.81-.72-.38-1.53-.59-2.32-.84-2.45-.75-4.97-.97-7.52-1.02-3.11-.06-6.17.35-9.21.92-.36.07-.73.09-1.1.13,0-.06-.01-.12-.02-.17Z"/>
    <path class="cls-1" d="M197.32,114.62c-3.84.48-7.73.78-11.62.56-1.09-.06-2.18-.33-3.26-.51-.19-.03-.38-.1-.57-.12-2.96-.36-5.88-.89-8.77-1.61-.13-.03-.26-.02-.44.09.55.3,1.09.61,1.64.88,2.56,1.24,5.11,2.48,7.68,3.69,2.76,1.31,5.54,2.58,8.45,3.55,1.45.49,2.77,1.25,4.13,1.92,1.13.56,2.29,1.06,3.44,1.59.14.06.27.15.36.37-1.03-.11-2.06-.22-3.08-.34-.87-.1-1.74-.21-2.61-.34-1.94-.29-3.87-.62-5.81-.9-1.26-.18-2.53-.24-3.78-.43-2.35-.34-4.69-.72-7.02-1.11-1.99-.33-3.97-.67-5.94-1.09-2.48-.53-4.94-1.12-7.4-1.74-2.33-.59-4.63-1.24-6.89-2.09-2.04-.77-4.14-1.34-6.17-2.14-2.44-.95-4.84-2.01-7.23-3.08-2.29-1.03-4.54-2.13-6.81-3.2-2.58-1.21-5.01-2.68-7.43-4.17-1.18-.72-2.36-1.44-3.53-2.16-.23-.14-.46-.29-.82-.53.98.06,1.67.46,2.36.8,2.33,1.15,4.61,2.4,6.95,3.5,2.77,1.31,5.58,2.51,8.38,3.76.88.39,1.76.76,2.64,1.14.03-.05.06-.1.09-.15-.33-.19-.65-.38-.98-.57-2.16-1.23-4.33-2.42-6.47-3.68-3.07-1.81-5.87-4.01-8.75-6.1-.94-.68-1.9-1.32-2.82-2.02-3.16-2.43-6.07-5.13-8.5-8.3-.1-.13-.19-.27-.27-.41-.05-.09-.08-.2-.19-.5.76.59,1.36,1.07,1.98,1.53,1.86,1.37,3.78,2.67,5.59,4.12,2.25,1.8,4.83,2.95,7.39,4.18,2.47,1.2,5.07,1.99,7.75,2.53,1.19.24,2.4.34,3.56-.26.96-.49,1.36-1.25,1.1-2.31-.18-.77-.52-1.44-1.17-1.94-.61-.48-1.18-1.01-1.75-1.52-.2-.17-.37-.37-.49-.65.24.12.48.23.71.35,1.99,1.02,3.97,2.04,5.96,3.07,1.25.64,2.51,1.27,3.74,1.94,1.2.65,2.52.95,3.79,1.39,1.48.51,2.97,1.02,4.46,1.5,1.18.38,2.37.75,3.57,1.07,3.25.88,6.49,1.79,9.76,2.59,3.59.87,7.2,1.66,10.82,2.4,2.46.5,4.95.83,7.42,1.25.92.15,1.83.33,2.73.6-7-.43-13.95-1.24-20.86-2.51,1.98.76,4.02,1.34,6.06,1.89,2.1.57,4.21,1.09,6.33,1.59,2.09.49,4.19.96,6.3,1.39,2.1.43,4.21.8,6.32,1.2Z"/>
    <path class="cls-1" d="M154.37,86.72c.08-.1.13-.23.23-.29,3.32-1.74,6.68-3.42,9.97-5.21,4.95-2.7,9.69-5.74,14.21-9.12.93-.69,1.81-1.45,2.72-2.17.07-.06.13-.14.14-.29-.84.5-1.69.99-2.53,1.49-4.41,2.63-8.96,4.98-13.73,6.89-2.2.88-4.4,1.77-6.62,2.57-3.33,1.19-6.77,1.99-10.25,2.58-.68.12-1.36.22-2.04.31-.34.04-.66-.02-.88-.42.74-.36,1.49-.65,2.29-.83,2.97-.66,5.88-1.51,8.64-2.77,2.38-1.09,4.73-2.23,7.06-3.42,2.58-1.32,5.14-2.68,7.64-4.12,1.81-1.04,3.58-2.18,5.27-3.42,1.42-1.04,2.71-2.26,4-3.45.67-.61,1.23-1.34,1.48-2.25.21-.77.08-1.1-.69-1.29-.59-.14-1.2-.25-1.8-.25-1.3,0-2.6.04-3.89.17-1.86.19-3.73.4-5.58.72-2.06.37-4.1.85-6.14,1.33-1.88.44-3.75.93-5.6,1.45-1.48.42-2.93.98-4.41,1.39-1.64.45-3.31.81-5.02,1.1.94-.69,1.84-1.44,2.81-2.07,1.82-1.18,3.64-2.37,5.54-3.41,1.66-.91,3.4-1.7,5.16-2.4,1.99-.8,4.03-1.5,6.08-2.13,1.95-.6,3.93-1.08,5.91-1.55,1.42-.33,2.87-.59,4.31-.8,1.06-.15,2.15-.16,3.22-.27,2.5-.26,4.95.18,7.4.47,1.64.2,3.27.48,4.9.74.31.05.61.18.88.39-1.03-.13-2.05-.27-3.08-.38-.66-.07-1.32-.12-1.98-.16-2.54-.17-5.07-.28-7.61.05-2.41.31-4.81.66-7.17,1.25-1.41.35-2.8.81-4.2,1.22-.71.21-1.43.39-2.12.64-2.26.8-4.51,1.6-6.76,2.43-.74.28-1.44.67-2.16,1,.01.06.03.12.04.18.18-.04.37-.05.54-.11,2.92-1.01,5.83-2.03,8.75-3.02,2.72-.92,5.49-1.64,8.32-2.09,2.43-.39,4.87-.7,7.33-.55,1.42.09,2.84.28,4.17.86.81.35,1.53.79,1.89,1.71.37.94.26,1.76-.28,2.57-2.03,3.06-4.47,5.75-7.19,8.2-2.05,1.85-4.32,3.42-6.64,4.92-1.51.97-3,1.95-4.53,2.9-2.04,1.26-4.16,2.37-6.34,3.37-2.53,1.16-5.04,2.39-7.56,3.58-1.1.52-2.2,1.01-3.31,1.5-.27.12-.57.18-.86.27l.02.02Z"/>
    <path class="cls-1" d="M154.35,86.71c-.21.1-.42.19-.63.29-.02-.05-.03-.11-.05-.16.23-.04.46-.07.7-.11,0,0-.02-.01-.02-.01Z"/>
  </g>
</svg>