<?xml version="1.0" encoding="UTF-8"?>
<svg id="Layer_1" data-name="Layer 1" xmlns="http://www.w3.org/2000/svg" version="1.1" viewBox="0 0 60.5 120">
  <defs>
    <style>
      .cls-1 {
        fill: #eaffb9;
      }

      .cls-1, .cls-2 {
        stroke-width: 0px;
      }

      .cls-2 {
        fill: #a515ff;
      }
    </style>
  </defs>
  <path class="cls-2" d="M-292.92-83.81"/>
  <g id="WIND_05" data-name="WIND 05">
    <path class="cls-1" d="M41.13,76.45c.09-.36.19-.72.29-1.08.46-1.7,1.21-3.31,1.75-4.99.22-.68.35-1.39.52-2.09.08-.31-.05-.54-.3-.71-.28-.19-.45-.17-.61.12-.33.62-.67,1.24-.99,1.87-.87,1.75-1.72,3.51-2.6,5.25-.21.42-.48.81-.74,1.2-.61.9-1.21,1.81-1.84,2.69-.2.28-.37.66-.82.66-.04,0-.13.14-.13.2.01.21-.13.32-.24.45-.68.81-1.35,1.63-2.04,2.43-1.36,1.6-2.65,3.26-4.16,4.73-.47.46-1.01.85-1.49,1.3-.45.42-.88.86-1.28,1.33-1.06,1.24-2.18,2.42-3.47,3.43-.28.22-.52.5-.84.7.12-.19.24-.39.37-.58,1.16-1.69,2.35-3.37,3.49-5.09.54-.82.99-1.7,1.47-2.55.15-.27.22-.57,0-.89-.1.09-.19.16-.27.24-1.21,1.3-2.44,2.59-3.61,3.92-.73.83-1.38,1.72-2.04,2.6-1.27,1.7-2.64,3.31-4.24,4.7-1.18,1.02-2.29,2.1-3.33,3.26-.83.93-1.64,1.88-2.5,2.79-.53.57-1.12,1.08-1.69,1.61-1.14,1.04-2.26,2.1-3.27,3.27-.1.12-.22.23-.34.35-.02.02-.05.01-.14.03.26-.47.49-.9.77-1.3.7-1,1.51-1.91,2.32-2.82.87-.98,1.74-1.95,2.57-2.96.58-.72,1.08-1.5,1.63-2.25,1.98-2.71,4.12-5.28,6.25-7.86.86-1.04,1.67-2.12,2.51-3.18.53-.66,1.12-1.29,1.61-1.98.79-1.11,1.51-2.27,2.29-3.39.74-1.06,1.52-2.09,2.28-3.14,1.29-1.8,2.56-3.63,3.67-5.54.61-1.05,1.18-2.13,1.8-3.18,1.02-1.72,1.93-3.49,2.87-5.26,1.51-2.86,3.07-5.69,4.6-8.53.9-1.67,1.79-3.34,2.65-5.03.55-1.07.96-2.21,1.29-3.37.17-.62.28-1.26.15-1.91-.12-.6-.58-.74-1.02-.32-.53.52-.94,1.12-1.26,1.79-.44.9-.89,1.79-1.34,2.68-.02.03-.05.06-.08.09-.01-.04-.03-.07-.03-.09.34-1.15.71-2.3,1.03-3.46.27-1.01.79-1.89,1.35-2.76.82-1.29,1.57-2.63,1.99-4.11.31-1.1.57-2.22.79-3.34.54-2.71.61-5.47.66-8.23,0-.55-.12-1.11-.26-1.64-.19-.72-.23-1.44-.25-2.17-.03-1.24-.07-2.49-.22-3.72-.1-.82-.22-1.65-.58-2.43-.17-.37-.26-.78-.41-1.16-.12-.3-.25-.6-.42-.86-.74-1.1-1.51-2.19-2.65-2.9-.53-.33-1.13-.57-1.71-.79-.48-.18-.82-.11-1.22.12-.03.18.08.22.23.24.23.04.46.09.69.15.2.05.32.15.3.41-.04.56.09,1.1.21,1.65.16.76.25,1.53.37,2.3.09.55.16,1.1.28,1.65.11.53.27,1.04.42,1.62-.1-.09-.17-.15-.23-.22-.9-1.07-1.67-2.23-2.33-3.46-.17-.32-.27-.68-.39-1.02-.34-.94-.67-1.88-1.01-2.81-.22-.6-.26-1.18,0-1.79.16-.36.22-.76.31-1.14.16-.63.63-1.05,1.04-1.5.07-.07.21-.1.32-.11,1.31-.07,2.59-.33,3.88-.53.21-.03.44-.03.65.01.87.16,1.68.5,2.49.86,1.38.61,2.66,1.37,3.9,2.22.78.53,1.51,1.12,2.11,1.86.27.34.48.73.7,1.11.54.95,1.05,1.93,1.62,2.87.75,1.24,1.39,2.54,1.98,3.87.4.9.69,1.86.82,2.83.14,1.03.16,2.07.17,3.11.02,2.15.04,4.31-.02,6.46-.06,1.97-.33,3.91-.79,5.83-.72,2.99-1.6,5.92-2.91,8.72-.37.79-.57,1.66-.86,2.5-.94,2.68-1.82,5.37-2.83,8.02-.98,2.56-2.09,5.08-3.17,7.61-.96,2.25-2.2,4.35-3.5,6.42-.83,1.32-1.67,2.63-2.63,3.86-.08.1-.17.2-.25.3-.02,0-.04-.02-.06-.03Z"/>
    <path class="cls-1" d="M32.77,64.38c-.02.17-.01.35-.08.5-.24.57-.46,1.15-.76,1.68-.7,1.25-1.54,2.39-2.47,3.48-.47.56-.86,1.19-1.3,1.77-1.18,1.56-2.28,3.18-3.6,4.63-.73.8-1.51,1.56-2.25,2.35-1.3,1.38-2.63,2.73-3.8,4.23-.78.99-1.6,1.95-2.4,2.93-.03.03-.07.06-.16.14.07-.33.22-.56.36-.78.26-.42.55-.83.81-1.25.19-.3.35-.61.52-.92.82-1.56,1.92-2.91,3.05-4.25,1.61-1.89,3.25-3.75,4.65-5.82.69-1.02,1.51-1.95,2.29-2.91,1.15-1.4,2.31-2.78,3.48-4.16.49-.58,1.02-1.13,1.53-1.69.04.02.08.04.13.06Z"/>
    <path class="cls-1" d="M20.63,99.24c-.4.63-.79,1.27-1.21,1.88-1.1,1.6-2.27,3.14-3.59,4.57-1.43,1.56-2.8,3.17-4.25,4.71-1.48,1.57-3,3.1-4.54,4.61-.68.67-1.45,1.24-2.18,1.86-.1.08-.22.13-.39.14.37-.64.72-1.3,1.13-1.92.74-1.15,1.59-2.22,2.53-3.22.58-.62,1.08-1.32,1.66-1.94.97-1.04,1.99-2.04,2.98-3.06,1.39-1.44,2.76-2.89,4.15-4.32,1.12-1.15,2.22-2.3,3.49-3.28.04-.03.09-.06.13-.1l.09.07Z"/>
    <path class="cls-1" d="M10.72,97.68c-.4.66-.77,1.35-1.21,1.98-.8,1.14-1.63,2.26-2.49,3.36-1.17,1.49-2.61,2.69-4.16,3.77-.08.06-.17.09-.35.18.06-.19.09-.29.13-.39.73-1.84,1.91-3.36,3.32-4.71,1.24-1.19,2.51-2.34,3.77-3.51.29-.27.59-.52.88-.77.03.03.07.06.1.09Z"/>
    <path class="cls-1" d="M43.92,4.49c.35-.17.65-.15.93-.15,1.01-.02,2.02.02,3.03.15.78.1,1.49.33,2.15.71.42.24.79.6,1.15.95.77.76,1.51,1.56,2.27,2.34.28.29.58.57.83.91-.1-.05-.2-.09-.29-.14-1.1-.68-2.18-1.39-3.31-2.02-.92-.52-1.89-.94-2.84-1.4-.25-.12-.51-.22-.76-.34-.88-.42-1.82-.65-2.77-.86-.11-.02-.21-.07-.39-.13Z"/>
    <path class="cls-1" d="M37.19,19.68s-.05-.09-.07-.14c-.41-1.47-.83-2.94-1.23-4.41-.05-.18-.07-.38-.04-.56.18-.93.35-1.87.6-2.79.17-.63.46-1.23.7-1.84.04,0,.08.02.12.03-.09,1.07-.22,2.15-.27,3.22-.05,1.08-.04,2.17-.01,3.25.03,1.08.25,2.15.29,3.23-.03,0-.06.01-.09.02Z"/>
  </g>
</svg>