<?xml version="1.0" encoding="UTF-8"?>
<svg id="Layer_1" data-name="Layer 1" xmlns="http://www.w3.org/2000/svg" version="1.1" viewBox="0 0 167.5 107">
  <defs>
    <style>
      .cls-1 {
        fill: #eaffb9;
      }

      .cls-1, .cls-2 {
        stroke-width: 0px;
      }

      .cls-2 {
        fill: #a515ff;
      }
    </style>
  </defs>
  <path class="cls-2" d="M-292.92-137.81"/>
  <g id="WIND_04" data-name="WIND 04">
    <path class="cls-1" d="M90.44,87.12c-.52-.22-1.05-.45-1.57-.67-1.22-.53-2.45-1.05-3.66-1.6-1.53-.71-3.06-1.42-4.57-2.18-1.49-.75-2.96-1.53-4.4-2.37-1.96-1.14-3.9-2.33-5.82-3.54-1.92-1.21-3.84-2.44-5.72-3.72-2.29-1.57-4.54-3.19-6.79-4.81-1.08-.78-2.15-1.58-3.21-2.39-1.15-.87-2.29-1.73-3.41-2.63-1.54-1.23-3.08-2.48-4.6-3.75-1.95-1.63-3.9-3.28-5.82-4.95-1.67-1.45-3.31-2.94-4.96-4.42-1.35-1.21-2.68-2.44-4.03-3.65-1.15-1.03-2.34-2-3.46-3.06-1.38-1.3-2.7-2.65-4.04-3.98-.43-.43-.88-.84-1.3-1.28-1.13-1.19-2.26-2.38-3.36-3.6-.9-.99-1.76-2.01-2.62-3.04-1.16-1.39-2.33-2.77-3.43-4.21-.81-1.06-1.53-2.2-2.25-3.33-.51-.81-1-1.64-1.4-2.51-.31-.68-.49-1.43-.68-2.16-.06-.25.02-.54.05-.99.27.24.47.34.57.51.64,1.05,1.48,1.92,2.44,2.68.24.19.46.4.67.61.48.48,1,.93,1.42,1.46.53.68,1.19,1.21,1.81,1.8,1.28,1.22,2.55,2.45,3.81,3.69.83.82,1.6,1.69,2.43,2.5,1.24,1.19,2.51,2.35,3.77,3.52,1.09,1.01,2.18,2.03,3.29,3.03,1.12,1.02,2.27,2.01,3.4,3.02.88.79,1.73,1.63,2.61,2.41.95.84,1.92,1.64,2.89,2.45,1.18.99,2.34,2,3.55,2.95,1.4,1.08,2.69,2.28,4.19,3.24,1.04.66,1.95,1.53,2.94,2.27,1.14.84,2.29,1.66,3.46,2.46,1.43.98,2.88,1.95,4.33,2.89.7.45,1.44.84,2.23,1.3-.07-.47-.39-.69-.64-.93-.82-.78-1.66-1.53-2.46-2.32-1.04-1.03-2.04-2.09-3.08-3.12-1.2-1.19-2.45-2.34-3.63-3.55-.99-1.01-1.91-2.09-2.87-3.12-.67-.72-1.36-1.42-2.04-2.14-.34-.37-.68-.74-1.01-1.12-.49-.56-1-1.11-1.47-1.69-1.62-1.97-3.23-3.96-4.86-5.93-1.65-1.99-3.32-3.96-4.97-5.95-.89-1.07-1.74-2.17-2.62-3.24-1.35-1.64-2.73-3.26-4.07-4.92-.34-.42-.55-.94-.82-1.42.04-.03.08-.07.12-.1.11.07.23.13.32.22,1.73,1.85,3.45,3.71,5.18,5.56,1.3,1.39,2.61,2.77,3.89,4.17,1.44,1.56,2.84,3.16,4.29,4.71,1.53,1.64,3.08,3.27,4.67,4.87,1.18,1.18,2.43,2.29,3.64,3.45.57.54,1.11,1.11,1.68,1.64,1.77,1.66,3.55,3.32,5.34,4.97.87.81,1.77,1.59,2.67,2.37,1.01.88,2.05,1.73,3.04,2.63,1.06.97,2.06,2.03,3.13,2.98,1.15,1.02,2.37,1.98,3.56,2.96,1.64,1.35,3.26,2.72,4.93,4.03,1.61,1.26,3.27,2.46,4.92,3.68.62.46,1.26.9,1.9,1.34.62.43,1.28.79,1.97,1.11.4.19.77.51,1.18.74,1.01.57,2,1.18,3,1.76,1.09.63,2.17,1.28,3.27,1.88,2.02,1.1,4.02,2.23,6.1,3.22,2.28,1.08,4.61,2.06,6.96,3,1.8.73,3.65,1.35,5.48,1.98.74.25,1.5.44,2.26.63,1.72.41,3.46.73,5.16,1.21,1.23.35,2.48.55,3.72.81,1.13.24,2.3.27,3.45.44,1.22.18,2.44.45,3.66.62.83.12,1.68.16,2.52.21.97.07,1.93.11,2.9.17.15,0,.29.06.44.08.22.03.47.12.67.07,1.11-.26,2.24-.05,3.35-.14,1.28-.1,2.56-.25,3.84-.36,1.54-.12,3.08-.22,4.62-.33.32-.02.64-.07.96-.1.31-.02.63-.03.95-.04.01.06.02.11.03.17-.3.09-.6.2-.91.28-1.7.41-3.39.86-5.09,1.22-1.89.4-3.8.71-5.7,1.08-1.49.29-2.99.35-4.49.32-2.36-.04-4.73-.16-7.07-.48-1.09-.15-2.2-.21-3.3-.33-.31-.03-.61-.13-.97-.09.16.08.31.19.48.24,1.15.29,2.29.63,3.46.84,4.89.9,9.83,1.3,14.8,1.03,1.11-.06,2.21-.25,3.32-.37.28-.03.57-.05,1.01-.08-.47.52-.93.66-1.38.79-1.7.45-3.44.61-5.19.69-2.5.11-5.01.18-7.51.2-2.62.02-5.24-.07-7.85-.08-.8,0-1.6.12-2.41.15-.64.03-1.29.02-1.94-.01-1.37-.07-2.75-.13-4.11-.26-1.4-.14-2.78-.38-4.18-.55-.8-.09-1.57-.29-2.35-.46-.96-.21-1.97-.16-2.94-.32-1.47-.24-2.92-.55-4.39-.83-.59-.11-1.18-.21-1.76-.33-1.03-.21-2.1-.32-3.09-.66-1.65-.56-3.35-.85-5.04-1.23-.73-.16-1.47-.41-2.14-.73-1.37-.66-2.75-1.26-4.17-1.78-.7-.25-1.36-.63-2.04-.95.01-.06.02-.12.03-.18.41,0,.83-.08,1.23-.02,1.12.17,2.24.38,3.36.61,1.72.36,3.43.77,5.15,1.1.6.11,1.24.02,1.86.07.41.03.82.14,1.24.21.02-.07.04-.15.05-.22Z"/>
    <path class="cls-1" d="M156.56,60.54c-.24.03-.42.09-.42.41,0,.68-.09,1.36-.08,2.03,0,.84-.06,1.64-.51,2.38-.04.06-.05.14-.05.22.04,1.13-.53,2.1-.79,3.16-.09.38-.21.77-.38,1.13-.47.98-.9,2-1.49,2.9-1.2,1.82-2.57,3.5-4.2,4.96-2.92,2.63-6.09,4.88-9.84,6.17-.9.31-1.87.41-2.81.6-.09.02-.19-.03-.42-.06.2-.14.3-.25.41-.29,2.32-.78,4.47-1.91,6.49-3.27,2.54-1.7,4.84-3.67,6.66-6.16,1.58-2.17,2.7-4.55,3.37-7.15.28-1.09.64-2.19.75-3.3.15-1.45.19-2.91.01-4.37-.16-1.33-.27-2.66-.45-3.98-.07-.54-.28-1.07-.44-1.6-.09-.29-.2-.57-.29-.86-.65-1.91-1.48-3.74-2.28-5.59-1.03-2.38-2.38-4.57-3.7-6.77-1.01-1.68-2.2-3.27-3.67-4.62-1.19-1.1-2.29-2.29-3.46-3.42-1.24-1.19-2.56-2.3-3.75-3.54-.59-.62-1.23-1.14-1.9-1.71.15.04.3.05.43.12.92.46,1.86.9,2.75,1.4.97.55,1.91,1.14,2.83,1.76,1.23.83,2.47,1.67,3.64,2.59,1.13.9,2.15,1.91,3.23,2.87.64.57,1.29,1.13,1.96,1.67,1.38,1.12,2.61,2.36,3.66,3.79.34.47.8.85,1.13,1.32,1.34,1.89,2.74,3.75,3.96,5.72.73,1.19,1.51,2.38,2.01,3.71.21.55.61,1.04.8,1.59.18.53.35,1.02.76,1.42.22.22.06.56.28.87.42.6.66,1.34.92,2.05.15.4.3.81.29,1.26,0,.06.02.13.05.17q.36.53.31,1.27c0,.09.04.18.06.27.11.47.41.9.29,1.43-.02.09.1.21.16.32.31.61.33,1.27.39,1.93.05.6.14,1.19.21,1.78.02.17.12.33-.08.47-.04.03-.07.15-.05.21.38.79.4,1.61.21,2.46,0,.04.02.1.05.14.38.53.06,1.11.1,1.66.04.58.06,1.16.02,1.73-.06.81-.24,1.62-.25,2.43-.02,1.15-.32,2.25-.48,3.38-.14,1.05-.62,2.01-.78,3.05-.09.57-.42,1.03-.54,1.56-.31,1.31-1.1,2.4-1.62,3.61,0,.02-.03.05-.05.06-.51.32-.51.96-.86,1.4-.17.22-.19.55-.57.59-.09,0-.23.2-.22.28.07.47-.43.56-.54.89-.12.35-.36.6-.6.86-.25.27-.48.58-.75.83-.65.61-1.3,1.23-1.98,1.81-.66.56-1.32,1.11-2.03,1.6-1.05.72-2.1,1.45-3.27,2.01-1.18.57-2.39,1.05-3.65,1.35-1.67.39-3.36.71-5.04,1.02-.84.15-1.7.25-2.56-.12.05-.08.07-.17.11-.19,1.38-.62,2.78-1.21,4.15-1.86,1.55-.74,3.1-1.48,4.61-2.3.97-.53,1.87-1.19,2.77-1.84.61-.44,1.21-.91,1.75-1.42,1.21-1.15,2.27-2.42,3.23-3.78.53-.75,1.06-1.51,1.55-2.29.65-1.06,1.3-2.14,1.74-3.31.31-.82.57-1.66.85-2.49.17-.52.35-1.04.5-1.57.61-2.24.74-4.53.78-6.83,0-.1,0-.2-.01-.3-.02-.1-.06-.19-.14-.29-.49,2.15-.73,4.36-1.64,6.41-.9,2.03-1.87,4.03-3.21,5.8-1.35,1.78-2.69,3.58-4.48,4.98.29-.44.57-.89.87-1.31.49-.69.83-1.44,1.13-2.23.55-1.47,1.17-2.91,1.75-4.36.81-2.01,1.67-4.02,2.04-6.17.16-.93.23-1.88.32-2.83.11-1.14.19-2.29.27-3.44.03-.37-.02-.75.05-1.12.2-1.11-.11-2.21-.06-3.32.03-.62-.29-1.23-.03-1.87.05-.13-.12-.33-.14-.5-.05-.48-.08-.96-.12-1.45-.08-.24-.16-.48-.24-.72-.22.37-.1.6.26.72Z"/>
    <path class="cls-1" d="M111.95,12.06c-.52-.06-.86-.09-1.2-.14-1.66-.22-3.31-.47-4.97-.65-1.56-.17-3.12-.27-4.68-.38-.4-.03-.81-.03-1.2.02-.98.14-1.98.13-2.97.24-.99.11-1.96.33-2.96.43-.83.08-1.63.46-2.44.7-.51.15-1.02.29-1.53.43-.12.03-.24.08-.35.13-.59.27-1.2.52-1.77.83-.89.49-1.81.95-2.64,1.54-1.26.91-2.52,1.85-3.63,2.92-1.12,1.07-2.12,2.27-3.06,3.5-.96,1.25-1.75,2.61-2,4.26.43-.06.56-.44.7-.71.34-.65.82-1.18,1.22-1.78.31-.48.66-.94,1.05-1.36.4-.44.84-.86,1.31-1.23.84-.66,1.7-1.3,2.56-1.93.51-.37,1.04-.71,1.57-1.04,2.42-1.5,5-2.6,7.79-3.26,1.59-.38,3.18-.44,4.79-.41,1.1.02,2.2.27,3.3.56-.23.06-.47.12-.71.16-3.6.61-6.98,1.88-10.3,3.34-.52.23-1,.58-1.45.94-1.72,1.34-3.3,2.85-4.48,4.69-.76,1.18-1.3,2.5-1.93,3.76-.35.7-.52,1.46-.78,2.19-1.02,2.87-.94,5.84-.74,8.81.08,1.17.5,2.32.79,3.47.11.46.32.9.42,1.37.19.88.72,1.6,1.06,2.41.46,1.14,1.03,2.24,1.64,3.3.33.56.74,1.08,1.14,1.58.75.94,1.54,1.85,2.3,2.79,1.02,1.26,2.24,2.32,3.44,3.41.57.52,1.09,1.08,1.71,1.7-2.21-1.16-4.44-2.09-6.22-3.77-.36-.34-.8-.61-1.18-.93-.71-.6-1.42-1.21-2.11-1.84-.37-.34-.68-.73-1.04-1.09-.57-.58-1.19-1.11-1.71-1.72-.85-1-1.64-2.06-2.46-3.09-.82-1.03-1.63-2.07-2.21-3.25-.47-.95-.91-1.92-1.23-2.93-.59-1.84-.81-3.76-.95-5.67-.18-2.47-.3-4.95.19-7.41.16-.82.37-1.63.65-2.41.48-1.38,1.01-2.76,1.8-4,.69-1.09,1.38-2.18,2.17-3.19,1.05-1.34,2.29-2.49,3.62-3.56.63-.51,1.24-1.05,1.93-1.48.96-.6,1.97-1.14,2.98-1.64,1.2-.59,2.44-1.09,3.76-1.36,1.2-.24,2.39-.53,3.63-.65,1.58-.15,3.15-.13,4.72-.15,1.96-.03,3.89.25,5.77.76,1.83.49,3.62,1.13,5.42,1.71.53.17,1.03.42,1.48,1.08Z"/>
    <path class="cls-1" d="M55.34,82.42c2.14.97,3.9,2.47,5.8,3.77.89.61,1.85,1.14,2.83,1.6,1.55.73,3.15,1.38,4.73,2.04,1.02.43,2.05.81,3.06,1.25,1.57.68,3.11,1.42,4.68,2.08,1.34.56,2.69,1.11,4.06,1.56,1.43.47,2.92.78,4.35,1.25,1.31.43,2.66.68,4,.98,1.39.31,2.81.46,4.22.67.1.02.2.03.3.06,1.22.31,2.45.61,3.66.95,1.26.35,2.51.75,3.78,1.09.48.13.99.16,1.48.22.22.03.46,0,.68.06,1.84.55,3.67,1.12,5.65,1.72-.26.09-.41.19-.55.19-1.24-.02-2.47-.1-3.71-.09-1.76.02-3.51.13-5.27.17-1.77.04-3.53,0-5.29-.33-1.91-.36-3.86-.5-5.79-.82-1.12-.18-2.23-.47-3.32-.8-1.35-.4-2.69-.88-4.02-1.34-.16-.05-.27-.23-.46-.39-.61.02-1.25-.06-1.91-.43-.91-.51-1.94-.8-2.92-1.19-.34-.14-.68-.3-1.01-.47-1.08-.56-2.19-1.05-3.24-1.67-1.38-.8-2.74-1.62-4.05-2.54-1.7-1.2-3.49-2.29-5.1-3.61-1.83-1.51-3.71-2.98-5.32-4.74-.42-.46-.89-.86-1.34-1.29Z"/>
    <path class="cls-1" d="M30.91,55.99c.7.48,1.42.95,2.11,1.46,1.6,1.18,3.18,2.39,4.78,3.58.95.7,1.93,1.36,2.88,2.06,1.03.76,2.03,1.57,3.06,2.33.54.4,1.11.76,1.68,1.12,1.11.71,2.26,1.38,3.34,2.14.84.59,1.79.99,2.62,1.6.3.22.6.43.9.65,1.14.82,2.43,1.42,3.54,2.29.89.7,1.87,1.26,2.81,1.87.96.62,1.86,1.35,2.77,2.05.9.7,1.77,1.43,2.66,2.14,1.93,1.55,3.85,3.12,5.93,4.47.04.02.05.08.1.17-.45.13-.83-.06-1.23-.15-1.84-.4-3.53-1.24-5.28-1.91-1.03-.39-1.98-.99-2.96-1.51-1.85-.99-3.74-1.92-5.53-3-1.62-.97-3.19-2.02-4.58-3.34-1.41-1.33-3.01-2.47-4.52-3.69-1.49-1.21-3-2.4-4.46-3.64-.95-.8-1.86-1.65-2.75-2.51-1.63-1.58-3.24-3.18-4.87-4.77-.86-.84-1.74-1.67-2.59-2.52-.22-.22-.37-.52-.56-.78.05-.04.1-.08.15-.12Z"/>
    <path class="cls-1" d="M166.12,64.82c-.33-.99-.61-2-1-2.97-.54-1.34-1.16-2.64-1.75-3.96-.47-1.05-.94-2.11-1.43-3.16-.44-.93-.92-1.84-1.35-2.77-.48-1.04-1.26-1.92-1.65-3.02-.02-.07-.09-.11-.13-.17-.49-.72-.98-1.43-1.48-2.15-.6-.86-1.21-1.72-1.83-2.57-.44-.6-1.02-1.13-1.35-1.79-.41-.82-1.11-1.37-1.65-2.07-.3-.39-.59-.8-.91-1.18-1.05-1.23-2.09-2.47-3.18-3.67-1.11-1.22-2.28-2.39-3.43-3.57-1.12-1.15-2.29-2.25-3.5-3.3-1.14-1-2.27-2.01-3.45-2.98-1.09-.9-2.18-1.81-3.35-2.59-2.13-1.43-4.32-2.77-6.49-4.15-.06-.04-.1-.1-.21-.21.5-.04.87.17,1.22.37,2.48,1.42,4.95,2.86,7.43,4.28.76.44,1.55.81,2.29,1.27.82.52,1.62,1.09,2.4,1.68,1.24.94,2.51,1.86,3.68,2.88,1.36,1.19,2.65,2.48,3.94,3.74.92.9,1.82,1.81,2.7,2.75.63.68,1.21,1.41,1.81,2.13.67.8,1.35,1.59,2,2.4,1.26,1.58,2.54,3.13,3.55,4.89.34.59.81,1.1,1.15,1.68.78,1.31,1.56,2.63,2.11,4.07.63,1.64,1.37,3.24,2,4.88.35.92.59,1.88.87,2.83.52,1.77.99,3.56,1.14,5.41.03.34-.01.68-.02,1.03-.05,0-.11,0-.16-.01Z"/>
    <path class="cls-1" d="M25.4,8.57c.56.74,1.13,1.47,1.69,2.21,1.69,2.24,3.32,4.54,5.1,6.71,1.8,2.19,3.75,4.26,5.63,6.39.42.47.8.98,1.23,1.44,1.49,1.59,3,3.16,4.48,4.75,1.15,1.24,2.28,2.5,3.39,3.77.93,1.06,1.78,2.19,2.72,3.24,1,1.11,2.05,2.17,3.08,3.26.12.13.26.24.38.37,1.7,1.77,3.39,3.56,5.11,5.31,1.6,1.62,3.25,3.19,4.87,4.79.68.68,1.34,1.38,2.02,2.06.78.79,1.57,1.57,2.39,2.38-.26.13-.43-.1-.57-.2-2.66-1.9-5.32-3.79-7.81-5.9-.97-.82-1.99-1.56-2.95-2.39-.63-.54-1.21-1.15-1.79-1.74-.94-.95-1.88-1.92-2.81-2.89-1.28-1.33-2.55-2.66-3.82-3.99-.56-.59-1.09-1.2-1.63-1.8-1.52-1.69-3.09-3.35-4.56-5.09-1.93-2.28-3.81-4.61-5.65-6.95-1.02-1.29-1.95-2.65-2.88-4.01-1.28-1.88-2.5-3.79-3.76-5.68-.85-1.26-1.74-2.48-2.59-3.73-.49-.73-.94-1.49-1.41-2.23l.12-.09Z"/>
    <path class="cls-1" d="M100.13,3.97c-1.65.24-3.3.45-4.95.72-1.37.23-2.74.5-4.1.8-1.77.38-3.4,1.16-4.99,1.99-2.72,1.42-5.36,2.98-7.8,4.85-1.74,1.33-3.35,2.79-4.67,4.54-.53.71-1.1,1.39-1.55,2.15-.73,1.24-1.24,2.58-1.54,3.99-.26,1.26-.55,2.51-.78,3.78-.32,1.82-.48,3.65-.29,5.5.01.13-.04.27-.2.41-.07-.43-.12-.87-.2-1.3-.24-1.34-.57-2.67-.54-4.05.04-1.59.3-3.14.63-4.7.36-1.68,1.04-3.22,1.68-4.78.62-1.53,1.56-2.89,2.52-4.22,1.23-1.72,2.68-3.24,4.34-4.53,1.66-1.29,3.43-2.45,5.36-3.34,1.07-.49,2.13-.96,3.23-1.37,1.46-.54,2.96-.97,4.51-.98,2.4-.02,4.81.04,7.21.12.72.02,1.43.19,2.14.3-.01.04-.02.09-.03.13Z"/>
    <path class="cls-1" d="M78.88,67.08c.41.24.82.48,1.24.71,1.64.95,3.26,1.94,4.93,2.83,1.19.64,2.47,1.12,3.69,1.72,1.52.74,3,1.56,4.54,2.26,1.91.87,3.87,1.63,5.78,2.49,1.87.84,3.82,1.47,5.78,2.07,1.98.61,3.92,1.34,5.9,1.95,1.37.42,2.78.74,4.18,1.1.78.2,1.56.43,2.34.6,1.42.32,2.85.62,4.28.93.19.04.37.1.73.21-.95.29-1.75.35-2.55.27-2.17-.2-4.34-.35-6.49-.67-1.6-.24-3.17-.65-4.73-1.09-2.06-.58-4.1-1.21-6.13-1.9-1.3-.44-2.56-1.01-3.81-1.58-2.12-.97-4.24-1.96-6.33-3-1.04-.51-2.02-1.15-3.02-1.73-1.02-.6-2.02-1.26-3.06-1.82-1.63-.88-3.06-2.05-4.51-3.18-.79-.62-1.63-1.19-2.44-1.79-.12-.09-.23-.19-.34-.29,0-.03.02-.07.03-.1Z"/>
    <path class="cls-1" d="M8.86,8.13c.24.22.51.41.72.65.53.58,1.03,1.19,1.56,1.77.53.57,1.11,1.11,1.64,1.68.66.7,1.29,1.42,1.93,2.14.22.24.45.48.64.74.18.25.33.53.47.77.19.13.41.24.56.41,1.6,1.92,3.18,3.86,4.78,5.79,1.16,1.4,2.33,2.8,3.49,4.2.12.15.23.31.36.49-.3.25-.54.07-.71-.06-1.07-.8-2.2-1.55-3.16-2.47-1.92-1.86-3.79-3.78-5.6-5.74-1.3-1.4-2.6-2.82-3.59-4.47-.16-.26-.33-.52-.4-.81-.26-1.12-.96-1.98-1.55-2.92-.43-.68-1-1.27-1.14-2.16Z"/>
    <path class="cls-1" d="M122.92,99.79c.35-.11.7-.24,1.05-.33,1.84-.43,3.69-.87,5.59-.98.63-.04,1.27-.03,1.89-.09.83-.09,1.65-.23,2.48-.34.34-.05.73-.16.96.21.14.22-.13.59-.65.82-.53.23-1.08.47-1.64.58-.96.18-1.94.27-2.92.4-.52.07-1.04.14-1.55.26-.76.18-1.51.11-2.27.02-.55-.06-1.11-.02-1.66-.05-.44-.02-.91.03-1.28-.27,0-.07,0-.14,0-.22Z"/>
    <path class="cls-1" d="M119.96,21.27c-.24-.12-.49-.24-.72-.36-.89-.48-1.76-1.01-2.67-1.44-.75-.35-1.56-.55-2.33-.85-.49-.2-.92-.56-1.42-.69-.41-.1-.45-.62-.96-.59-.36.03-.75-.24-1.11-.42-.36-.18-.7-.4-1.05-.6-1.09-.63-2.19-1.26-3.28-1.89-.06-.04-.1-.1-.17-.17.18-.4.5-.27.77-.18,1.09.34,2.18.68,3.26,1.05,2.22.75,4.27,1.83,6.11,3.3,1.18.93,2.41,1.8,3.62,2.7-.02.05-.03.1-.05.15Z"/>
    <path class="cls-1" d="M.85,7.35c.87.84,1.76,1.67,2.62,2.52.63.62,1.28,1.23,1.82,1.93.69.89,1.28,1.86,1.9,2.81.09.14.06.37.11.75-.39-.22-.66-.3-.83-.48-1.06-1.13-2.1-2.27-3.13-3.42-.86-.97-1.47-2.11-2.13-3.22-.16-.27-.32-.54-.49-.81.04-.02.08-.05.12-.07Z"/>
    <path class="cls-1" d="M121.63,104.48c-.31.57-.71.67-1.11.68-1.94.06-3.89.09-5.84.12-.09,0-.18-.04-.27-.16.71-.1,1.43-.19,2.14-.31,1.2-.19,2.4-.4,3.6-.59.27-.04.56-.08.83-.05.22.03.42.18.65.29Z"/>
    <path class="cls-1" d="M30.26,55.5c.06.13.12.25.18.38-.03.02-.06.04-.09.05-.08-.11-.17-.23-.25-.34l.16-.09Z"/>
  </g>
</svg>