<?xml version="1.0" encoding="UTF-8"?>
<svg id="Layer_1" data-name="Layer 1" xmlns="http://www.w3.org/2000/svg" version="1.1" viewBox="0 0 287 172">
  <defs>
    <style>
      .cls-1 {
        fill: #eaffb9;
      }

      .cls-1, .cls-2 {
        stroke-width: 0px;
      }

      .cls-2 {
        fill: #a515ff;
      }
    </style>
  </defs>
  <path class="cls-2" d="M-291.42-64.81"/>
  <g id="WIND_01" data-name="WIND 01">
    <path class="cls-1" d="M116.78,33.93c.12-.14.21-.33.36-.4,3.76-1.72,7.5-3.48,11.3-5.11,1.98-.85,4.07-1.44,6.1-2.17,3.59-1.29,7.15-2.64,10.76-3.88,4.56-1.56,9.16-3.03,13.75-4.53,3.62-1.19,7.25-2.35,10.85-3.59,3.57-1.22,7.24-2.05,10.95-2.73,5.1-.94,10.18-1.99,15.32-2.68,6.24-.84,12.52-1.36,18.84-1.25,2.76.05,5.52.08,8.26.45.14.02.3-.09.49-.37-.71-.24-1.4-.52-2.12-.71-5.16-1.37-10.38-2.4-15.68-2.98-1.73-.19-3.5-.13-5.25-.15-1.83-.02-3.66,0-5.52-.2.58-.08,1.15-.16,1.73-.23,2.05-.25,4.09-.57,6.15-.71,3.67-.24,7.34-.46,11.02-.52,2.62-.05,5.27-.03,7.86.3,3.73.48,7.43,1.17,11.11,1.97,4.44.96,8.87,2.07,13.09,3.8,6.98,2.84,13.6,6.34,19.41,11.22,3.88,3.25,6.79,7.21,8.77,11.89,1.12,2.65,1.78,5.38,2.32,8.19.46,2.36.78,4.71.76,7.12-.02,2.1-.74,4.07-1.26,6.06-1.34,5.11-3.6,9.84-6.17,14.43-1.01,1.8-1.78,3.74-2.85,5.5-1.61,2.67-3.24,5.35-5.13,7.82-3.09,4.02-6.37,7.9-9.62,11.79-1.88,2.26-3.85,4.44-5.79,6.65-2.09,2.38-4.14,4.8-6.31,7.11-3.53,3.74-7.03,7.51-11.21,10.56-3.07,2.24-6.11,4.5-9.2,6.71-3.19,2.28-6.48,4.43-9.9,6.35-3.23,1.82-6.45,3.64-9.76,5.31-3.79,1.91-7.65,3.68-11.51,5.46-3,1.38-6.03,2.67-9.06,3.98-3.93,1.69-7.84,3.4-11.81,4.99-1.87.74-3.84,1.24-5.78,1.78-2.83.78-5.66,1.59-8.52,2.23-6.49,1.47-12.98,2.9-19.5,4.24-2.74.57-5.53.88-8.32,1.17,4.83-1.37,9.7-2.63,14.48-4.14,4.79-1.51,9.73-2.46,14.49-4.05-.02-.1-.04-.19-.06-.29-.66.08-1.32.15-1.98.25-3.94.63-7.89,1.24-11.82,1.9-2.98.5-5.95,1.05-8.93,1.58-2.65.47-5.31.92-7.95,1.41-3.07.57-6.11,1.24-9.19,1.76-3.53.6-7.07,1.1-10.62,1.6-2.82.39-5.65.75-8.48,1.05-2.37.26-4.76.43-7.14.62-2.47.2-4.94.5-7.41.55-2.85.05-5.7-.13-8.55-.21-1.01-.03-2.02-.05-3.03-.1-1.74-.08-3.5-.12-5.23-.29-2.37-.23-4.75-.52-7.1-.88-2.94-.46-5.85-1.14-8.8-1.53-6.16-.82-12-2.61-17.66-5.15-4.28-1.92-8.62-3.7-12.69-6.07-2.27-1.33-4.49-2.7-6.43-4.5-.77-.72-1.69-1.28-2.51-1.94-3.22-2.58-5.5-5.77-6.39-9.87-.32-1.49-.11-2.93.25-4.37.72-2.93,2.08-5.6,3.32-8.32,1.08-2.39,2.12-4.83,3.55-7.02,1.62-2.5,3.52-4.84,5.52-7.05,2.63-2.89,5.39-5.67,8.25-8.34,2.52-2.35,5.21-4.53,7.9-6.69,3.63-2.92,7.53-5.46,11.56-7.79,1.68-.98,3.49-1.73,5.32-2.5-4.76,3.64-8.78,8.06-13.35,11.89.08.1.15.21.23.31.32-.12.65-.22.96-.38,5.71-2.97,11.38-6.03,17.14-8.91,6.7-3.35,13.42-6.67,20.5-9.2,1.6-.57,3.1-1.41,4.69-2,1.65-.62,3.36-1.09,5.04-1.63.04.09.07.18.11.27-1.64.73-3.31,1.42-4.92,2.21-1.47.72-2.95,1.46-4.32,2.35-3.48,2.25-6.92,4.56-10.33,6.92-2.15,1.5-4.27,3.06-6.29,4.73-2.88,2.37-5.66,4.85-8.47,7.29-.29.25-.52.56-.7.92.98-.61,2.19-.75,2.97-1.75.38-.49,1.13-.68,1.7-1.03,1.52-.94,3.01-1.94,4.56-2.82,2-1.13,4.05-2.16,6.09-3.22.15-.08.39.02.91.07-.53.44-.82.7-1.13.93-5.03,3.57-10.04,7.17-15.09,10.7-2.77,1.94-5.22,4.22-7.63,6.57-1.85,1.8-3.61,3.69-5.48,5.45-3.36,3.17-4.85,7.18-5.42,11.63-.07.53.04,1.1.17,1.63,1.18,4.78,3.87,8.5,8.02,11.16.4.26.83.46,1.4.58-4-4.99-4.29-10.57-2.75-16.36.93-3.52,2.86-6.48,5.94-8.6-1.15,1.47-1.86,3.15-2.4,4.9-.3.96-.54,1.95-.67,2.94-.29,2.32.68,4.15,2.28,5.8,1.7,1.75,3.65,3.14,5.82,4.13,3.54,1.62,7.11,3.21,10.79,4.47,3.03,1.04,6.23,1.57,9.34,2.35,3.9.97,7.86,1.22,11.86,1.1,2.12-.06,4.24.04,6.36-.02,3.62-.12,7.24-.3,10.86-.47,1.97-.09,3.95-.19,5.92-.35,1.78-.15,3.56-.36,5.33-.58,2.09-.26,4.19-.48,6.27-.83,4.47-.75,8.93-1.58,13.39-2.35,2.98-.52,5.98-.94,8.96-1.5,1.53-.29,3.04-.71,4.52-1.19,4.5-1.45,8.9-3.18,13.24-5.05,7.53-3.25,14.93-6.74,21.9-11.07,4.45-2.76,8.85-5.62,13.27-8.43.1-.06.21-.1.38-.17-3.95,3.18-7.84,6.31-11.72,9.45-.09.07-.09.24-.15.43.62.54,1.23.24,1.76-.05,1.45-.79,2.92-1.57,4.31-2.47,2.31-1.49,4.56-3.09,6.85-4.61,2.03-1.34,4.09-2.66,6.16-3.95,4.14-2.6,8.05-5.5,11.84-8.58,4.94-4.02,9.54-8.36,13.68-13.21,3.33-3.9,6.13-8.13,8.73-12.54,2.94-4.97,4.88-10.27,5.99-15.91.24-1.21.38-2.45.62-3.66.43-2.16-.11-4.21-.69-6.24-.88-3.04-2.44-5.63-5.25-7.29-1.35-.8-2.68-1.61-4.05-2.37-3.85-2.14-7.97-3.52-12.32-4.22-2.84-.46-5.66-1.01-8.5-1.58.89-.23,1.77-.51,2.73-.28.44.11.92.09,1.38.08,4.07-.1,8.06.51,12.04,1.24,2.16.4,4.39.6,6.48,1.23,6.61,1.99,12.75,4.95,18.27,9.14.77.58,1.56,1.11,2.2,1.84.15.18.41.27.62.4.07-.07.15-.14.22-.2-.37-.48-.77-.95-1.11-1.46-2.82-4.25-6.69-7.27-11.14-9.65-4.12-2.2-8.42-3.9-12.95-4.96-2.76-.64-5.61-.93-8.42-1.34-4.42-.65-8.88-.64-13.33-.51-2.88.09-5.75.59-8.63.91-.36.04-.73.11-1.09.13-3.94.27-7.89.52-11.83.8-2.48.18-4.96.34-7.42.61-3.15.35-6.29.78-9.43,1.22-2.82.4-5.63.83-8.43,1.29-2.26.37-4.52.77-6.78,1.2-4.65.88-9.29,1.75-13.93,2.68-3.64.73-7.27,1.49-10.89,2.32-2.86.66-5.68,1.44-8.52,2.16-.26.06-.54.03-.81.04l.03.03ZM161.15,134.49c.04.08.07.17.11.25.98-.32,1.97-.6,2.93-.98,2.61-1.02,5.18-2.12,7.8-3.12,5.49-2.1,10.99-4.21,16.34-6.66,2.8-1.28,5.59-2.58,8.35-3.93,3.42-1.68,6.87-3.33,10.21-5.16,3.26-1.79,6.42-3.77,9.61-5.69.28-.17.49-.43.74-.65-.04-.07-.08-.13-.12-.2l-4.3.93c-.05-.11-.11-.23-.16-.34,5.86-3.93,11.21-8.47,16.25-13.37,5.03-4.89,9.82-9.99,14.11-15.56-.29.05-.5.19-.68.35-1.18,1.08-2.33,2.2-3.54,3.24-4.33,3.71-8.61,7.48-13.05,11.06-3.83,3.08-7.89,5.88-11.76,8.92-1.31,1.03-2.91,1.4-4.22,2.36-1,.73-1.97,1.5-3.01,2.17-1.68,1.11-3.41,2.15-5.11,3.23-2.02,1.27-4.04,2.55-6.05,3.83-1.74,1.1-3.46,2.23-5.2,3.32-2.02,1.27-4,2.6-6.08,3.75-3.97,2.21-7.99,4.32-12,6.45-2.88,1.52-5.79,2.99-8.68,4.49-.83.43-1.65.88-2.47,1.32ZM15.51,129.4c-.17.16-.3.23-.35.35-.07.16-.11.36-.1.53.02,1.57.16,3.13.84,4.58.82,1.74,1.96,3.22,3.48,4.4,3.36,2.62,6.82,5.08,10.94,6.44.87.29,1.68.76,2.54,1.07,3.46,1.25,7.04,2.11,10.65,2.79,3.02.57,6.07,1,9.12,1.4,2.68.35,5.38.6,8.08.81,2.09.16,4.19.2,6.29.29,2.06.09,4.12.17,6.18.25,2.2.09,4.41.24,6.61.25,1.52,0,3.05-.2,4.57-.31-3.5-.71-6.98-1.22-10.47-1.71-3-.42-6.03-.7-9.01-1.21-4.38-.76-8.76-1.6-13.11-2.53-4.71-1.01-9.39-2.15-14.09-3.24-3.69-.85-7.32-1.88-10.59-3.84-4.23-2.53-7.77-5.87-10.94-9.61-.2-.23-.4-.46-.62-.71ZM45.06,129.1c0,.26-.04.38,0,.43,2.51,3.04,5.52,5.46,9.31,6.63,3.33,1.03,6.74,1.79,10.13,2.59,2.99.7,6,1.34,9.02,1.9,2.61.48,5.22,1.09,7.92.87,2.52-.2,5.04-.35,7.56-.58,1.78-.16,3.56-.38,5.33-.6,2.64-.33,5.27-.68,7.91-1.02.86-.11,1.73-.19,2.59-.34.14-.02.22-.35.41-.66-.86,0-1.53,0-2.19,0-2.03-.03-4.06-.04-6.08-.09-2.62-.06-5.25-.25-7.87-.2-2.71.04-5.41.32-8.12.44-.81.03-1.62-.13-2.43-.2-.36-.03-.76-.17-1.08-.07-1.04.32-2-.04-2.99-.22-.27-.05-.52-.16-.79-.19-1.94-.24-3.9-.38-5.81-.73-2.79-.52-5.54-1.22-8.31-1.81-4.03-.86-7.78-2.42-11.36-4.44-1.01-.57-2.04-1.12-3.13-1.71Z"/>
    <path class="cls-1" d="M270.48,84.77c.5,1.11-.03,1.73-.47,2.37-1.65,2.38-3.33,4.75-4.96,7.15-1.9,2.78-3.69,5.64-5.68,8.35-1.04,1.42-1.92,3.01-3.45,4.03-.26,1.03-1.05,1.71-1.75,2.4-.83.82-1.32,1.86-2.04,2.74-.73.88-1.49,1.74-2.27,2.58-.81.87-1.62,1.75-2.49,2.56-1.95,1.79-3.95,3.53-5.92,5.3-.91.81-1.76,1.68-2.7,2.45-.89.72-1.87,1.34-2.79,2.01-2.45,1.79-4.82,3.69-7.35,5.34-3.3,2.14-6.17,4.88-9.53,6.9-2.99,1.79-6.06,3.45-9.12,5.12-.77.42-1.66.65-2.76,1.07.32-.38.44-.59.62-.73,3.29-2.58,6.63-5.11,9.88-7.74,2.07-1.68,4.03-3.49,6.01-5.27,2.93-2.63,5.9-5.23,8.74-7.95,1.86-1.77,3.53-3.74,5.29-5.61,2.51-2.66,5.01-5.34,7.71-7.82.13-.12.29-.24.39-.38,1.09-1.6,2.4-2.98,4-4.11.57-.4.91-1.12,1.42-1.63,2.82-2.83,5.63-5.68,8.5-8.46,3.18-3.06,6.38-6.09,9.27-9.43.38-.44.89-.75,1.46-1.22Z"/>
    <path class="cls-1" d="M113.08,59.36c-1.71,1.38-3.46,2.71-5.12,4.14-1.91,1.65-3.73,3.41-5.64,5.07-.98.85-2.2,1.47-3.05,2.42-.88.99-2.15,1.4-3,2.43-.7.84-1.8,1.33-2.69,2.01-1.81,1.4-3.56,2.88-5.4,4.24-2.55,1.89-5.17,3.68-7.74,5.54-1.65,1.2-3.26,2.47-4.9,3.68-1.91,1.41-3.85,2.79-5.77,4.2-4.11,3.02-8.18,6.09-12.03,9.69.03-.23,0-.35.05-.41,2.08-2.51,4-5.19,6.3-7.49,3.18-3.19,6.63-6.1,9.97-9.13,2.2-2.01,4.37-4.06,6.61-6.03,1.65-1.45,3.39-2.81,5.11-4.17,2.08-1.65,4.17-3.29,6.31-4.86,1.31-.96,2.72-1.79,4.08-2.68,1.45-.94,2.84-1.99,4.36-2.8,2.1-1.13,4.3-2.06,6.44-3.1,1.57-.76,3.12-1.56,4.69-2.34.43-.21.88-.39,1.32-.58.03.06.07.12.1.18Z"/>
    <path class="cls-1" d="M35.49,162.55c1.16.11,2.33.21,3.49.35,1.82.23,3.63.51,5.45.73,3.84.46,7.67.94,11.51,1.34,2.69.28,5.39.49,8.09.65,3.67.22,7.34.32,11,.57,4.32.29,8.64.06,12.95-.09,2.75-.1,5.48-.51,8.22-.73,1.83-.15,3.67-.18,5.5-.31,2.2-.15,4.39-.35,6.59-.52,1.33-.1,2.66-.2,3.99-.29,1.6-.11,3.21-.19,4.81-.31,1.09-.08,2.18-.2,3.38-.31-.18.75-.7.84-1.16.92-2.16.4-4.32.78-6.49,1.14-3.53.59-7.07,1.18-10.61,1.72-2.5.39-5,.74-7.5,1.04-5.31.63-10.64.86-15.98.81-3.5-.04-6.99-.14-10.48-.28-2.98-.12-5.97-.25-8.93-.56-4.75-.5-9.48-1.11-14.12-2.29-3.07-.78-6.16-1.51-9.04-2.88-.26-.12-.49-.31-.74-.47l.08-.24Z"/>
    <path class="cls-1" d="M137.91,120.73c-1.77.61-3.46,1.29-5.2,1.78-4.37,1.23-8.74,2.51-13.16,3.53-3.44.79-6.95,1.23-10.44,1.81-2.44.4-4.89.85-7.34,1.14-3.24.38-6.48.71-9.73.9-2.75.16-5.52.15-8.27.08-2.01-.05-4.02-.31-6.03-.49-.2-.02-.39-.16-.65-.26.37-.88,1.18-.86,1.76-.89,1.45-.08,2.82-.35,4.2-.79.89-.29,1.9-.29,2.85-.33,3.1-.12,6.16-.68,9.25-.92,3.75-.29,7.48-.8,11.22-1.24,3.37-.39,6.74-.81,10.1-1.22,1.96-.24,3.93-.6,5.9-.67,4.98-.16,9.79-1.23,14.6-2.36.26-.06.52-.15.78-.22.02,0,.05.05.17.16Z"/>
    <path class="cls-1" d="M50.88,72.22c2.19-1.81,4.48-3.45,7.08-4.65,2.66-1.23,5.31-2.5,7.96-3.75,3.99-1.87,8.08-3.44,12.28-4.78,2.92-.94,5.77-2.12,8.65-3.19.64-.23,1.29-.42,2.11-.42-.18.19-.32.43-.54.55-2.47,1.33-4.93,2.66-7.42,3.96-3.34,1.75-6.64,3.6-10.06,5.17-3.42,1.57-6.95,2.89-10.45,4.27-2.22.88-4.47,1.69-6.72,2.47-.9.31-1.85.45-2.78.67-.04-.1-.08-.2-.13-.3Z"/>
    <path class="cls-1" d="M76.92,45.86c.87-.49,1.73-1.02,2.62-1.47,2.55-1.27,5.12-2.46,7.86-3.31,1.88-.58,3.68-1.44,5.55-2.04,4.41-1.41,8.85-2.77,13.29-4.1.97-.29,1.98-.63,3.3-.29-.42.29-.61.47-.83.57-2.53,1.08-5.05,2.21-7.62,3.2-3.34,1.28-6.71,2.47-10.09,3.63-1.21.42-2.49.62-3.72.99-2.11.62-4.2,1.31-6.3,1.94-1.31.39-2.63.74-3.95,1.1-.03-.07-.07-.15-.1-.22Z"/>
    <path class="cls-1" d="M268.71,100.53c.82-1.35,1.66-2.68,2.45-4.04,1.37-2.33,2.69-4.69,4.08-7.01,2.34-3.9,4.28-8,6.18-12.12.08-.17.11-.42.24-.48.42-.22.87-.5,1.32-.51.57,0,.7.62.67,1.03-.04.63-.24,1.25-.43,1.86-.8,2.53-2.39,4.64-3.75,6.87-.96,1.57-1.97,3.1-2.91,4.67-.49.82-1.27,1.39-1.64,2.34-.35.91-.91,1.9-1.67,2.46-.98.72-1.27,1.78-1.94,2.63-.59.76-1.24,1.47-1.89,2.18-.13.14-.37.18-.55.27-.05-.05-.11-.11-.16-.16Z"/>
    <path class="cls-1" d="M181.77,6.14c-3.7,1.29-7.5,2.26-11.25,3.38-3.78,1.13-7.57,2.21-11.38,3.23-3.81,1.02-7.64,1.96-11.54,2.95.19-.11.32-.22.47-.27,5.52-2.15,11.08-4.18,16.69-6.08,4.45-1.5,9.04-2.39,13.63-3.29,1.07-.21,2.18-.22,3.26-.32.04.13.07.26.11.4Z"/>
    <path class="cls-1" d="M121.76,48.19c.59-.33,1.18-.66,1.76-1,2.93-1.7,6.17-2.53,9.38-3.49,4.05-1.22,8.17-2.05,12.32-2.8.22-.04.45,0,.69,0-.03.13-.02.26-.06.28-2.4.9-4.76,1.86-7.27,2.48-3.68.91-7.29,2.13-10.93,3.23-1.58.48-3.15.98-4.73,1.45-.34.1-.7.13-1.05.19l-.1-.34Z"/>
    <path class="cls-1" d="M116.74,33.9c-.3.14-.6.28-.9.42-.02-.09-.05-.18-.07-.26.33-.05.67-.09,1-.13,0,0-.03-.02-.03-.02Z"/>
  </g>
</svg>