<?xml version="1.0" encoding="UTF-8"?><svg id="Layer_1" xmlns="http://www.w3.org/2000/svg" viewBox="0 0 1957.75 357.66"><defs><style>.cls-1{fill:#000000;}.cls-1,.cls-2,.cls-3,.cls-4{stroke-width:0px;}.cls-1,.cls-4{fill-rule:evenodd;}.cls-2{fill:#faf5e5;}.cls-3,.cls-4{fill:none;}</style></defs><path class="cls-1" d="M1952.59,148.4c-2.48,3.63-75.05,31.28-81.29,30.97-2.28-.11-7.15-1.16-10.82-2.33-5.85-1.86-13.69-.13-62.49,13.77l-55.81,15.89-10.16,13.49c-15.81,20.98-28.56,25.57-46.84,16.86-5.75-2.74-13.06-4.85-16.24-4.69-3.18.16-8.92-.81-12.76-2.16-7.76-2.72-22.86-1.24-49.84,4.89l-17.98,4.09-6.26,12.74c-6.51,13.24-15.13,22.08-24.25,24.87-5.97,1.82-12.55-.03-42.8-12.08-14.45-5.75-22.88-7.8-26.99-6.55-3.28,1-9.02,2.13-12.75,2.5-6.13.61-7.09,1.79-9.95,12.2-1.74,6.33-5.32,13.87-7.95,16.75-6,6.56-19.7,10.89-26.98,8.52-5.13-1.67-5.51-1.39-5.25,3.77.15,3.06-1.32,9.31-3.27,13.89-3,7.03-5.05,8.77-13.3,11.3-5.85,1.79-15.37,2.27-23.78,1.22l-14.02-1.76-12.76,11.26c-17.34,15.29-24.28,17.33-46.62,13.67-35.76-5.85-39.84-10.77-34.54-41.58,4.39-25.5-.98-36.4-12.79-25.96-2.78,2.45-4.76,3.18-5.15,1.88-.35-1.16.55-2.54,2-3.06,1.45-.53-.08-1.24-3.42-1.58-3.34-.34-12.95,1.62-21.35,4.36-17.03,5.55-23.4,5.66-41.25.67-8.29-2.32-15.83-2.64-23.27-.98-9.88,2.2-11.09,3.05-11.78,8.3-.69,5.24,1.55,7.64,21.15,22.64,23.97,18.35,27.72,20.53,38.83,22.6,4.58.85,6.07,1.82,3.84,2.51-2,.62-4.53.34-5.62-.62-2.55-2.23-6.23-1.14-5.4,1.59.99,3.23,14.6,5,21.75,2.81,4.73-1.45,6.46-3.36,6.59-7.3.09-2.93-.23-5.99-.73-6.79-1.98-3.21,2.54-27.55,6.14-33.03l3.84-5.86-3.26,7.18c-1.8,3.95-3.3,13.69-3.34,21.64-.12,21.99-.85,23.94-10.07,26.76-10.36,3.16-16.89.91-31.75-11-6.65-5.33-19.59-14.79-28.75-21.04-16.58-11.31-20.97-17.17-17.61-23.49.97-1.83,1.24-3.57.59-3.86-.65-.3-22.53.59-48.62,1.97-26.09,1.38-61.68,2.64-79.08,2.8l-31.64.29-4.02,7.17c-2.21,3.94-12.4,13.94-22.64,22.21-15.85,12.8-22.3,16.52-43.43,25.03-28.52,11.5-32.49,12.08-44.92,6.47-5.98-2.71-14.57-3.79-25.11-3.17-8.81.52-18.58.26-21.71-.56-5.56-1.47-14.08-12.7-22.53-29.67-2.06-4.13-9.61-11.88-16.79-17.2-16.85-12.51-35.36-16.35-97.25-20.2-52.62-3.27-113.66-9.17-138.46-13.4-19.26-3.28-25.22-2.05-33.17,6.89-6.34,7.14-12.33,9.67-18.27,7.75-3.03-.99-2.7-1.3,1.51-1.39,6.21-.13,15.35-5.02,14.52-7.76-.31-1.01-7.69.44-16.41,3.22-12.48,4-18.46,4.69-28.29,3.3-11.84-1.69-12.68-2.25-16.72-11.28-6.96-15.57-11.39-18.8-23.21-16.97-13.83,2.16-20.52.54-25.4-6.14-4.99-6.8-27.36-12.47-42.51-10.77-5.7.65-13.54-.4-17.42-2.31-8.22-4.07-35-7.17-42.08-4.89-2.69.87-6.88,3.7-9.32,6.29-2.44,2.6-5.41,5.01-6.6,5.37-4.34,1.3,8.82-10.47,15.7-14.05l7.1-3.69-10.49.31c-5.77.17-16.2-.19-23.17-.81l-12.69-1.11-4.26,7.61c-3.52,6.27-6.24,8.22-15.48,11.04-10.54,3.21-11.98,2.99-24.25-3.76-8.54-4.7-11.53-5.61-8.67-2.64,15.34,15.91,23.35,17.9,53.06,13.21l21.63-3.41-24.02,6.05c-16.64,4.19-26.35,5.54-31.58,4.39-11.39-2.49-26.26-17.22-36.77-36.43-18.61-34.01-24.63-40.5-50.65-54.58-19.96-10.8-26.19-15.6-40.42-31.13-9.25-10.1-23.39-25.34-31.42-33.88C66.49,83.95,9.96,15.17,3.09,4.69L0,0l8.79,2.87c4.85,1.58,21.32,9.23,36.63,17,37.59,19.07,55.64,26.01,76.79,29.55,13.55,2.27,25.16,6.79,48.54,18.89,33.52,17.34,36.88,17.99,63.7,12.34,22.74-4.79,28.67-3.69,50.01,9.32,19.83,12.09,32.99,15.85,43.82,12.54,5.34-1.63,8.32-5.21,14.49-17.38,4.28-8.43,10.42-17.26,13.64-19.62,8.86-6.49,20.55-3.84,34.99,7.92,6.54,5.33,17.41,12.98,24.16,17,11.98,7.14,12.37,7.67,16.58,21.96,3,10.19,3.35,13.51,1.15,10.92-3.05-3.61-3.12-3.57-1.88.98.93,3.49,3.34,4.77,9.17,4.89,9.72.22,20.86,6.24,28.44,15.36,5.03,6.06,8.61,7.32,29.61,10.41,23.49,3.45,23.99,3.41,30-2.07,3.36-3.06,12.24-8.86,19.74-12.87,7.49-4,18.45-11.64,24.34-16.95,11.87-10.7,23.5-16.83,32.83-17.31,7.48-.38,31.28,10.94,41.59,19.78,7.94,6.82,24.89,10.92,51.05,12.37,7.57.42,16.24,1.96,19.28,3.41,3.03,1.46,14.02,11.46,24.42,22.21,10.4,10.75,20.09,19.96,21.53,20.46,3.83,1.31,101.17,6.84,131.62,7.47,14.32.3,47.27.83,73.22,1.19l47.19.64,6.01-7.39c3.3-4.07,9.63-9.23,14.07-11.49,6.46-3.28,9.96-7.87,17.63-23.15,5.27-10.49,12.87-21.79,16.9-25.13,20.49-16.98,45.1-2.42,57.1,33.79,3.2,9.66,5.88,20.34,5.96,23.73.15,6.81-4.1,6.55,47.31,2.89,25.8-1.83,75.16-7.69,99.34-11.79l24.09-4.08,7.76-14.13c12.4-22.57,19.3-29.81,30.11-31.6,11.44-1.88,22.64,3.12,23.43,10.48.74,6.91,9.14,12.6,13.53,9.18,4.52-3.53,1.47-12.09-5.52-15.49-12.44-6.06-7.42-22.62,10.26-33.84,6.42-4.08,13.07-4.73,33.83-3.33,2.64.18,6.64.35,8.89.37,2.25.03,9.86-4.39,16.9-9.82,17.97-13.84,24-14.11,41.21-1.87,12.66,9,22.08,21.44,24.82,32.77.48,1.96,4.74,8.33,9.48,14.17,5.99,7.37,10.11,10.48,13.5,10.18,9.18-.81,83.52-20,149.59-38.62,25.6-7.22,50.23-13.58,54.73-14.14l8.18-1.02,3.4-21.11,3.41-21.1,8.28-1.38c36.8-6.12,39.52-6.14,49.47-.43,5.33,3.05,12.72,6.47,16.43,7.58,3.71,1.12,5.42,2.45,3.79,2.95-1.62.51-8.97-2.41-16.34-6.47-12.23-6.75-14.52-7.18-26.49-4.94-30.69,5.75-36.11,9.55-34.48,24.2,1.2,10.78-3.27,21.3-17.16,40.36-11.19,15.36-15.68,24.96-14.24,30.42.29,1.11,2.31-1.09,4.48-4.88,2.17-3.79,9.88-13.52,17.14-21.62,11.99-13.39,13.49-16.3,16.48-32.07l3.29-17.34,14.37-4.21c16.48-4.84,25.98-3.27,32.65,5.37,3.44,4.45,5.53,5.11,10.98,3.45,3.7-1.13,9.24-4.44,12.31-7.35,5.03-4.77,6.6-5.24,15.97-4.69,10.49.61,21.36-2.07,34.83-8.57,4.27-2.06,11.28-3.29,16.74-2.94,5.17.33,13.05.12,17.51-.47,9.69-1.29,19.62,3.87,24.93,12.94,14.6,24.97,20.64,81.61,10.31,96.74ZM1952.82,102.53c1.66,18.38-.69,35.34-4.96,35.79-5.42.58-12.32-7.64-13.36-15.9-.5-4-.12-13.17.85-20.38.96-7.21,1.29-16.6.72-20.87-.86-6.43-1.2-5.69-1.97,4.28-.51,6.62-1.78,16.49-2.83,21.93-1.05,5.44-1.52,11.14-1.06,12.66.47,1.52-1.3,3.55-3.92,4.5-3.58,1.3-3.76,1.69-.7,1.56,2.42-.1,4.69,1.88,5.62,4.91.85,2.79,3.25,7.27,5.33,9.95l3.78,4.87-27.78,8.49c-16.2,4.95-28.06,9.55-28.45,11.04-.37,1.4-3.47,3.41-6.89,4.45-4.51,1.38-8.3.4-13.81-3.55-19.6-14.06-27.58-33-26.04-61.83.52-9.85-.23-23.9-1.67-31.22-2.33-11.8-2.08-13.55,2.22-15.56,2.66-1.24,7.4-2.39,10.53-2.55l5.69-.29-3.45,8.1c-1.9,4.45-2.97,11.88-2.39,16.51.59,4.63,1.78,15.6,2.66,24.38,3.12,31.39,12.03,49.55,27.99,57.03,7.67,3.6,6.71,1.48-2.81-6.19-14.35-11.55-17.33-18.79-21.29-51.73-4.27-35.49-2.41-43.03,11.63-47.32l8.79-2.68-2.9,6.17c-4.21,8.97-3.92,20.35.95,36.49,2.79,9.25,3.82,17.76,2.95,24.41-.73,5.61-.6,10.59.3,11.07,3.13,1.67,9.63-1.61,17.74-8.96,9.71-8.79,11-18.87,4.26-33.45-5.46-11.81-5.95-25.83-1.23-34.7,2.97-5.59,5.26-7.17,11.95-8.27,4.55-.75,8.85-.54,9.55.45.71,1,3.32,3.19,5.8,4.88,4.24,2.88,4.27,2.81.53-1.21-2.19-2.35-3.62-4.95-3.17-5.78,1.74-3.27,8.68-.67,13.62,5.11,6.31,7.4,15.7,36.5,17.23,53.41ZM1930.2,59.62c.9,2.96.78,4.31-.26,3.02-1.05-1.29-1.79-3.71-1.64-5.37.14-1.66,1-.6,1.9,2.36ZM1894.82,50.47c-5.12,5.83-5.07,21.77.12,38.78,2.93,9.58,4.91,19.5,4.41,22.04-.9,4.57-16.86,18.7-19.52,17.29-.76-.4-1.05-4.43-.64-8.96.4-4.52-1.12-16.39-3.4-26.37-4.43-19.48-4.19-25.04,1.6-36.9,2.61-5.33,5.83-8.25,10.84-9.77,6.93-2.12,10.18-.2,6.59,3.88ZM1890.89,107.94c-4.04-.04-4.59.57-2.68,3.01,1.32,1.68,1.46,3.35.31,3.7-1.15.35-2.68-1.3-3.4-3.66-1.28-4.19,4.26-7.94,8.44-5.71,3.39,1.8,2.47,2.72-2.68,2.66ZM1827.47,68.53c.92,3.02-4.72,13.51-6.7,12.45-2.9-1.54-1.4-10.66,2.1-12.82,2.23-1.37,4.11-1.22,4.6.36ZM1815.46,83.11c-.55.32-5.71,1.28-11.48,2.14-8.03,1.19-11.08.59-13.05-2.61-1.41-2.29-2.28-4.7-1.93-5.36.88-1.66,22.26-7.53,24.9-6.84,2.13.56,3.49,11.54,1.56,12.66ZM1817.21,89.59l2.16,11.6c1.19,6.38,1.96,12.06,1.72,12.62-.24.56-4.85.65-10.24.19-5.39-.45-12.2-.09-15.14.81-6.36,1.94-8.74-3.25-6.68-14.53,1.47-8.05,5.3-10.1,19.55-10.47l8.63-.22ZM1827.51,142.69c-3.74,1.14-4.35-.85-3.31-10.98.79-7.76.92-7.89,3.26-3.03,3.48,7.22,3.5,12.96.05,14.01ZM1819.3,130.29c-.48,4.79-.34,10.43.3,12.53.64,2.11-1.52,8.03-4.8,13.15l-5.97,9.33,6.71-6.9c3.69-3.79,6.98-6.03,7.3-4.96.32,1.06-1.04,3.06-3.04,4.43-2,1.38-4.77,4.94-6.17,7.92-2.97,6.33-6.75,8.21-6.4,3.19.16-2.27-.67-2.77-2.39-1.43-1.74,1.36-5.2-.85-10.24-6.55-8.37-9.46-9.33-15.55-5.08-32.07,2-7.78,2.79-8.47,10.65-9.39,4.67-.54,10.91-.85,13.88-.67,6.39.38,6.36.31,5.25,11.41ZM1800.34,64.4c.31,1-7.19,4.18-16.65,7.07-15.06,4.6-17.35,4.78-18.37,1.44-.64-2.1-.34-6.37.68-9.48,1.75-5.38,2.37-5.66,12.59-5.71,5.91-.02,13.1,1.06,15.98,2.41,2.88,1.35,5.48,3.27,5.78,4.27ZM1762.78,119.7c-2.91,3.77-3.21,3.33-5.26-7.59-2.77-14.73,2.57-26.38,13.63-29.76,4.03-1.23,8.15-1.81,9.14-1.28,1.85.98-11.95,31.41-17.51,38.63ZM1806.54,177.89c.4.85-4.36,3.09-10.57,4.98-10.33,3.14-11.88,2.96-18.14-2.1-15.02-12.14-20.12-23.7-17.59-39.89.88-5.63,3.32-13.24,5.42-16.91l3.82-6.67,2.11,6.89c1.16,3.79,4.38,9.63,7.16,12.99,2.78,3.35,5.53,9.09,6.12,12.74.71,4.43,4.38,9.95,11.01,16.53,5.47,5.44,10.27,10.58,10.67,11.43ZM1768.77,190.72c-8.08,2.89-14.95,4.18-17.24,3.22-2.92-1.22-3.63-1-3.03.95.43,1.39-.5,2.2-2.05,1.8-2.02-.53-2.22-1.43-.71-3.16,3-3.41-.81-21.52-6.03-28.64-3.98-5.44-3.96-6.87.25-16.1,9.36-20.52,11.31-28.38,8.39-33.87-1.93-3.64-1.87-6.01.22-7.63,3.63-2.83,5.46,1.5,2.88,6.81-1.44,2.97-1.36,3.25.42,1.38,3.43-3.6,4.67,3.49,3.86,22.12-.4,9.17,0,19.09.89,22.05,1.93,6.44,17.19,23.88,22.1,25.27,2.24.63-1.33,2.71-9.95,5.8ZM1726.41,107.78c-4.63,5.94-9.41,15.25-10.61,20.7-1.21,5.44-3.32,10.69-4.7,11.65-3.77,2.64-3.95-8.63-.43-26.36,2.93-14.76,3.15-15.07,12.82-18.73,12.99-4.91,13.83-1.24,2.93,12.75ZM1740.96,194.31c-3.54,13.43-17.15,31.79-25.33,34.15q-6.82,1.98,1.53-6.24c9.01-8.85,15.18-21.08,17.1-33.93,1.05-6.98.17-10.17-6.58-23.91-4.97-10.11-7.66-17.96-7.43-21.68.31-5,1.5-3.72,8.51,9.15,12.02,22.1,14.91,32.13,12.19,42.44ZM1709.49,98.01c.22.71-5.48,33.28-6.64,37.92-.91,3.66-4.8-3.08-9.62-16.68-6.16-17.39-5.84-18.15,8.74-20.82,3.98-.73,7.36-.92,7.52-.41ZM1726.13,199.52c-1.18.36-6.29-4.01-11.36-9.72-8.4-9.47-9.22-11.23-9.27-20.08-.09-14.02,1.87-22.72,6.07-26.94,3.44-3.45,3.75-3.2,4.67,3.79.54,4.12,2.89,10.61,5.21,14.43,9.74,16.02,12.2,36.23,4.68,38.52ZM1701.99,158.1c-1.09,16.22,1.55,24.51,11.05,34.72,4.21,4.54,7.34,8.71,6.95,9.28-.4.57-5.34,2-10.99,3.19-9.75,2.05-10.59,1.75-16.47-5.8-12.16-15.62-11.55-25.76,2.96-49.18,6.75-10.9,7.67-9.8,6.5,7.79ZM1708.96,225.07l-8.7,6.76-8.35-5.45c-4.6-3-8.62-6.33-8.95-7.39-.55-1.81,16.54-5.81,31.38-7.34,8.46-.87,6.4,4.26-5.38,13.42ZM1686.39,107.04c.76,2.5-5.09,13.32-17.79,32.87l-5.06,7.8-1.73-5.72c-1.7-5.66,2.61-30.02,6-33.88.96-1.09,5.35-2.39,9.75-2.88,4.4-.49,8.37.33,8.83,1.82ZM1704.3,233.91c-2.66,1.3-6,1.74-7.42.99-1.56-.83.35-1.75,4.84-2.35,6.28-.83,6.67-.63,2.57,1.37ZM1684.19,209.53c-8.9,2.03-9.79,1.66-18.96-7.86-6.51-6.76-9.72-11.85-9.94-15.76-.38-6.72,5.74-29.95,8.07-30.67,2.71-.83,11.49,14.09,14.94,25.4,1.81,5.93,5.7,13.61,8.65,17.06,7.68,9,7.57,9.47-2.76,11.82ZM1656.85,129.11c-3.79,19.58-7.27,57.68-5.7,62.47.62,1.91,4.82,7.41,9.33,12.23,10.24,10.94,5.95,11.51-4.95.66-5.59-5.56-8.41-10.35-9.35-15.84-1.48-8.66,7.52-73.41,10.7-77.03,3.28-3.73,3.27.47-.03,17.5ZM1683.79,228.09c-2.76-1.3-6.03-2.05-7.27-1.67-1.24.38-3.9-.39-5.92-1.72-3.05-2-2.93-2.63.75-3.75,2.42-.74,7.19.59,10.6,2.95,7.65,5.32,8.54,7.32,1.85,4.18ZM1651.03,114.48c.2.65-1.6,13.42-4.01,28.37-7.43,46.12-6.52,52.92,8.82,65.88,2.56,2.17,4.37,4.49,4.01,5.16-.36.67-17.49,4.83-38.06,9.23-20.58,4.4-44.56,9.56-53.29,11.47l-15.88,3.46-7.06-10.78c-8.69-13.28-8.82-19.62-1.22-60.32,3.91-20.94,6.12-27.68,9.38-28.63,2.35-.68,19.98-5.23,39.19-10.12,19.2-4.88,40.05-10.23,46.33-11.9,6.28-1.66,11.58-2.49,11.78-1.84ZM1637.95,192.75c-1.28,1.03-4.17,1.96-6.43,2.05-2.26.09-1.22-.75,2.32-1.88,3.54-1.13,5.38-1.21,4.11-.17ZM1558.54,127.31c.62,2.02-17.76-.54-19.34-2.7-.83-1.14-3.88-3.33-6.78-4.87-2.89-1.54-4.38-3.07-3.3-3.4s5.29,1.56,9.36,4.19c4.07,2.63,10.17,4.97,13.56,5.2,3.39.23,6.31.93,6.51,1.57ZM1546.16,139.35l-6.9,17.49c-3.8,9.62-6.29,17.82-5.54,18.21.75.4,2.25-2.31,3.33-6.03,4.11-14.07,3.91-4.67-.44,20.92-2.48,14.61-5.37,25.5-6.42,24.2-1.05-1.3-1.28-.03-.51,2.82l1.4,5.18-6.63-4.61-6.63-4.61.14,5.68q.14,5.68-1.85-.05c-1.37-3.95.12-10.75,4.79-21.85,3.73-8.86,7.5-16.95,8.4-17.96.89-1.02.07-5.34-1.82-9.61-2.44-5.48-2.79-10.2-1.2-16.08,1.94-7.19,3.45-8.69,11.07-11.02l8.82-2.7ZM1563.48,254.1c-10.94,9.64-17.49,10.95-30.59,6.1-12.1-4.48-56.26-15.36-64.41-15.88-7.43-.47-44.2,5.2-55.15,8.49-12.6,3.79-32.32,17.92-36.3,26.01-1.7,3.45-4.86,15.21-7.02,26.12-3.64,18.41-4.69,20.56-14.62,29.75-17.34,16.07-20.51,16.88-47.29,12.13-23.41-4.15-23.6-4.23-26.83-12.59-2.1-5.41-2.48-10.31-1.08-13.77,1.93-4.76,2.18-4.88,2.14-1.06-.14,12.42,12.7,18.78,39.84,19.75,16.05.57,26.95-3.02,29.8-9.82,1.25-2.98.15-2.76-6.35,1.29-9.8,6.11-28.45,7.55-40.72,3.14-4.62-1.66-9.34-2.74-10.47-2.39-2.54.78-6.28-3.82-8.17-10.04-.78-2.56.15-9.9,2.06-16.3,1.91-6.4,3.11-12.85,2.67-14.33-1.25-4.14,2.37-4.2,4.09-.07.84,2,3.07,6.49,4.95,9.97,2.97,5.48,2.69,7.58-2.15,15.72-3.07,5.17-5.38,10.08-5.12,10.92.87,2.86,11.22-17.32,11.52-22.47.28-4.79.89-4.66,8.93,1.97,5.5,4.54,12.34,7.54,18.86,8.3,5.62.65,12.99,2.57,16.36,4.26,7.6,3.82,8.07,3.67,9.36-2.89.79-3.97.55-4.73-.95-3.03-2.54,2.89-10.02-.11-9.09-3.65.4-1.53-.14-1.7-1.27-.42-1.09,1.24-6.23,2.39-11.44,2.57-7.81.26-11.45-1.36-20.77-9.29-10.39-8.84-19.85-20.32-18.62-22.62,1.98-3.72,8.96,1.2,14.03,9.89,8.97,15.4,14.82,19,26.29,16.2,15.86-3.87,23.26-9.9,30.66-24.99,10.96-22.35,11.21-22.53,43.67-32.26,43.45-13.02,51.97-13.59,80.23-5.42,20.62,5.96,51.67,10.21,59.19,8.1,4.03-1.13,10.87-3.98,15.2-6.33,10.22-5.55,9.42-.69-1.46,8.9ZM1563.87,267.89c-1.42,1.69-4.04,3.51-5.82,4.05-2.87.88-2.94.65-.64-2.08,1.42-1.69,4.04-3.51,5.82-4.05,2.87-.88,2.94-.65.64,2.08ZM1527.28,145.11l-5.06,9.98c-6.92,13.66-17.07,28.18-18.98,27.16-.87-.46.19-7.79,2.36-16.28,3.79-14.88,4.26-15.54,12.81-18.15l8.87-2.71ZM1512.7,144.68c-4.75.33-9.43.81-10.39,1.07s-1.44-.7-1.06-2.15-1.49-11.19-4.16-21.66c-4.09-16.06-5.83-19.91-11.15-24.65-6.97-6.21-22.01-11.05-32.53-10.48-5.29.29-6.25-.28-4.31-2.55,6.83-7.94,20.58-4.99,38,8.17,7.66,5.79,9.29,8.46,13.45,22.07,3.95,12.92,5.96,16.43,12.15,21.2,9.99,7.69,9.99,8.28,0,8.97ZM1532.57,200.59c-.16,2.37-1,3.93-1.86,3.47-.86-.46-.73-2.39.29-4.3,1.48-2.76,1.8-2.58,1.57.84ZM1543.76,234.08c.9,2.96.78,4.31-.26,3.02-1.05-1.29-1.79-3.71-1.64-5.37.14-1.66,1-.6,1.9,2.36ZM1533.79,235.93c-.24,3.47-.76,3.6-5.42,1.41-2.83-1.33-5.46-3.42-5.83-4.64s1.17-.84,3.43.85c2.26,1.69,5.01,2.06,6.1.81,1.3-1.47,1.9-.93,1.72,1.57ZM1501.72,168.31c-4.41,15.78-7.91,19.19-8.1,7.91-.14-7.89,3-16.14,8.09-21.25,4.46-4.49,4.47-2.58.01,13.34ZM1493.21,121.29c3.81,12.46,5.36,20.94,4.23,23.07-1.77,3.33-18.16,9.55-21.08,8-.83-.44-1.36-5.01-1.18-10.15.43-12.06-2.64-15.93-23-28.99l-16.11-10.34,4.16-4.99c8.49-10.19,26.66-10.4,40.94-.47,5.04,3.51,7,7.39,12.04,23.89ZM1500.2,151.87c.17.55-3.61,4.63-8.4,9.06-4.79,4.43-11.66,13.11-15.28,19.27-8.47,14.46-9.62,10.5-2.22-7.67,5.32-13.05,6.58-14.49,15.69-17.93,5.45-2.06,10.04-3.29,10.21-2.74ZM1522.28,240.06c.17.27-1.66,1.09-4.06,1.83-3.86,1.18-4.25.68-3.28-4.23,1.07-5.41,1.19-5.46,4.06-1.83,1.63,2.06,3.1,3.97,3.28,4.24ZM1509.97,207.55c3.15,9.73,3.04,10.3-1.97,10.28-5.11-.02-5.12.08-.25,3.04,2.78,1.69,5.27,3.79,5.54,4.67.73,2.4-15.1-4.18-16.01-6.65-.43-1.17.25-7.41,1.51-13.87,2.63-13.46,2.24-17.98-.76-8.77-1.82,5.61-5.58,38.06-4.73,40.86.19.61,1.44-.56,2.79-2.6,2.04-3.11,2.4-3.07,2.17.23-.34,4.89-2.52,5.66-7.23,2.57-2-1.31-4.33-1.6-5.18-.63-.85.97-2.62-1.75-3.93-6.04-2.58-8.45,1.1-23.4,9.33-37.9,5.26-9.27,5.2-9.26,11.13-1.22,2.34,3.16,5.75,10.39,7.58,16.05ZM1511.05,233.69c.05.09-1.27.59-2.93,1.09s-2.92-.54-2.78-2.48c.2-2.8.71-2.99,2.93-1.09,1.48,1.27,2.73,2.39,2.78,2.48ZM1469.26,143.24c.73,9.76.34,10.6-4.67,10.25-3.04-.21-4.2-2.14-5.08-8.5-.88-6.36-2.6-9.24-7.59-12.71-9.75-6.77-14.7-3.71-24.77,15.27l-8.95,16.89-11.63,2.16c-14.01,2.6-19.51,7.77-25.42,23.93-8.04,21.98-10.84,44.21-7.1,56.43,3.09,10.11,2.94,11.75-1.42,15.6-4.25,3.76-5.43,3.86-9.33.82l-4.47-3.49-4.8,7.4c-5.31,8.19-20.18,14.43-26.45,11.1-2.77-1.47-3.7-1.07-4.53,1.97-1.89,6.88.89,10.85,10.69,15.27,8.38,3.78,9.05,4.53,5.12,5.73-11.34,3.47-24.79-6.15-24.04-17.2.23-3.37,1.94-6.6,3.82-7.17,1.87-.57,2.61-1.74,1.63-2.6-2.89-2.53,3.43-6.05,10.07-5.61,9.27.62,12.16-.89,16.16-8.41,3.16-5.94,3.1-7.59-.44-12.16-7.2-9.28-16.93-8.34-25.21,2.42-6.56,8.52-11.55,8.64-19.21.44-6.34-6.79-6.37-6.93-4.59-20.25,3.86-28.82,18.92-73.64,29.53-87.87,11.8-15.83,32.75-17.46,34.35-2.67.8,7.44,13.17,14.74,18.41,10.86,10.77-7.98,10.3-19.47-1.02-24.95-9.67-4.68-10.15-9.19-1.83-17.23,11.85-11.44,21.66-13.02,39.88-6.42,23.15,8.39,38.51,16.85,45.82,25.22,4.74,5.43,6.64,9.58,7.08,15.46ZM1476.72,159.68c.18.58-2.41,6.62-5.75,13.41-3.34,6.8-5.71,14.07-5.26,16.16.45,2.09-.79,9.52-2.75,16.51-1.96,6.99-3.24,13.73-2.86,14.97.38,1.25,2.28-4.04,4.21-11.73,1.93-7.7,4.41-14.27,5.52-14.61,1.11-.34,3.2,2.11,4.65,5.44,2.97,6.82,3.99,26,1.43,26.78-.92.28-.58,2.28.75,4.44,2.23,3.61,1.82,3.91-4.99,3.65-4.23-.17-7.89-1.81-8.53-3.83-.88-2.8-1.32-2.82-2.08-.06-.62,2.26-3.26,3.71-7.52,4.13-3.61.36-11.5,1.59-17.54,2.75-14.83,2.85-19.04-.99-16.48-15,.73-3.97,3.91-10.82,7.08-15.24,3.71-5.16,5.66-11.21,5.46-16.96-.45-13.52,5.42-25.54,12.83-26.24,3.29-.31,9.9-1.62,14.68-2.9,4.78-1.29,10.52-2.43,12.75-2.53,2.23-.11,4.2.28,4.38.86ZM1461.27,176c-1.86,8.57-1.76,12.13.33,12.19,1.76.04-.32,6.58-5.17,16.24-5.55,11.04-7.59,17.93-6.43,21.7.93,3.04.72,5.83-.46,6.19s-4.12-5.79-6.75-14.39c-4.81-15.74-6.23-17.24-9.06-9.57-.94,2.56-2.09,3.5-2.56,2.1-.47-1.4,0-3.51,1.04-4.69,1.04-1.18,2.38-6.7,2.99-12.25.6-5.55,2.46-12.09,4.13-14.52,2.31-3.37,2.34-2.61.14,3.25-4.96,13.17-1.89,14.8,7.09,3.75,4.47-5.5,10.03-13.26,12.36-17.26,5.3-9.06,5.66-7.96,2.36,7.26ZM1416.87,143.23c-4.14,15.28-4.82,16.3-11.31,16.95-3.8.38-7.51.36-8.26-.03-.74-.4-.75-5.37-.02-11.06,1.79-14-2.74-28.51-9.68-30.97-5.21-1.85-5.24-1.92-2.04-6.24,1.78-2.4,4.79-4.84,6.7-5.43,3.78-1.16,19.51,3.72,25.06,7.78,4.78,3.49,4.68,10.05-.45,28.99ZM1424.35,183.46c-6.88,17.82-12.34,41.52-10.76,46.7.95,3.13-.11,3.86-6.31,4.35-4.11.32-12.1,1.84-17.78,3.37-5.67,1.53-11.6,2.1-13.18,1.25-4.77-2.54,1.86-31.78,11.28-49.77,7.88-15.05,9.12-16.36,15.99-16.95,9.9-.85,10.23-.53,6.89,6.63-5.89,12.61-4.33,13.33,3.06,1.41,4.2-6.78,9.43-12.87,11.63-13.54,5.68-1.74,5.6-.08-.82,16.56ZM1456.74,271.23c-.99,1.12-1.61.37-1.46-1.77.15-2.05.64-3.84,1.11-3.99,1.74-.53,2.01,3.86.36,5.75ZM1432.79,224.31c.78,2.24.66,3.66-.27,3.16s-1.58-2.33-1.43-4.07c.16-1.93.83-1.57,1.7.9ZM1431.4,256.07c-3.07,2.24-14.72,3-13.6.88.45-.84,4.25-1.79,8.45-2.11,4.2-.32,6.51.24,5.15,1.23ZM1434.16,284.91c-5.45-5.05-13.49-16.42-12.68-17.94,1.43-2.69,9.68,3.54,13.38,10.11,4.59,8.17,4.22,12.38-.69,7.82ZM1419.1,240.48c.16.53-8.73,3.47-19.75,6.54-19.03,5.3-20.16,5.34-22.23.91-2.05-4.39-1.6-4.77,7.49-6.28,19.79-3.28,25.47-3.85,29.78-3,2.43.48,4.56,1.3,4.72,1.83ZM1434.75,292.58c.22.22-1.23.28-3.21.14-1.98-.14-4.02-1.6-4.52-3.25-1.31-4.29,2.67-4.86,5.2-.75,1.17,1.9,2.31,3.64,2.53,3.86ZM1420.84,290.43c-.89.27-5.19-.94-9.57-2.67-6.87-2.73-7.7-3.75-6.12-7.52,1.86-4.45,7.69-7.41,11.06-5.61,2.58,1.37,6.63,15.21,4.63,15.81ZM1413.26,265.58l-6.11,3.74c-8.68,5.32-10.77,13.08-5.46,20.32,2.3,3.14,6.75,5.88,9.89,6.09,7.68.51,9.14,6.75,4.03,17.2-3.61,7.37-5.27,8.68-11.83,9.39-7.48.81-30.9-2.22-31.47-4.06-.68-2.23,1.48-13.45,2.65-13.81.71-.22,2.92,1.49,4.9,3.79,1.98,2.3,7.74,5,12.8,6,8.81,1.74,9.49,1.56,15.77-4.19,7.82-7.16,7.62-9.22-1.09-10.94-8.35-1.64-13.54-8.38-14.97-19.42-1.36-10.5,4.25-16.31,14.44-14.97l6.43.84ZM1377.37,166.38c.16.03-3.07,6.66-7.18,14.73l-7.48,14.69-15.1-5.85c-16.21-6.27-22.8-11.43-23.07-18.05-.34-8.33,7.89-23.55,15.44-28.58,11.08-7.38,14.57-6.34,18.15,5.37,2.48,8.12,4.44,10.57,10.98,13.76,4.38,2.13,8.09,3.9,8.25,3.93ZM1356.54,217.67c-1.11,6.37-1.52,13.18-.92,15.15,1.82,5.95-.44,7.28-8.09,4.72-10.69-3.57-19.77-2.02-26.46,4.52-6.98,6.81-10.09,6.3-12.65-2.09-4.59-15.01,1.88-35.61,12.16-38.75,5.49-1.68,27.24.62,35,3.7,2.11.84,2.39,4.54.96,12.75ZM1340.33,256.66c-.98,3.72-4.02,3.38-6.55-.73-2.72-4.42-1.07-5.77,3.86-3.15,1.79.95,3,2.7,2.69,3.88ZM1288.14,225.23c.23,5.57-2.27,6.79-5.5,2.66-3.39-4.33-3.32-4.67,1.21-6.05,3.04-.93,4.15-.05,4.29,3.39ZM1287.12,237.42c.11,2.75-1.16,4.68-3,4.55-2.16-.15-.94,2.06,3.73,6.81,5.6,5.69,6.72,8.05,5.86,12.38-.65,3.26-2.47,5.25-4.67,5.1-1.99-.14-4.51.02-5.59.35-1.09.33-2.26-.34-2.61-1.49-.42-1.36,1.52-1.95,5.52-1.69,5.66.38,5.93.05,3.32-4.01-2.22-3.46-2.14-3.87.4-1.89,1.99,1.56,2.95,1.54,2.5-.04-1.18-4.06-5.87-4.31-6.15-.32-.14,1.98-1.77,3.5-3.64,3.37-1.86-.13-3.51,1.47-3.65,3.56-.33,4.76-8.72,6.56-45.78,9.82-40.17,3.53-52.88-.68-76.48-25.35-13.9-14.53-16.55-20.49-10.01-22.49,5.07-1.55,20.36.24,23.17,2.71,2.7,2.37-.84,9.27-5.49,10.69-6.89,2.11-3.38,4.86,6.14,4.8,11.69-.06,26.61-4.66,37.82-11.65,10.1-6.3,20.94-7.06,23.79-1.67,1.22,2.31-.21,4.42-4.73,6.96l-6.48,3.64,7.89.8c4.34.44,12.71-.48,18.59-2.06,5.88-1.57,10.97-1.99,11.29-.92.32,1.06-.56,1.63-1.97,1.26-1.41-.37-2.24.35-1.86,1.61.81,2.64,1.42,2.57,5.49-.61,1.65-1.28,1.99-3.24.76-4.35-1.22-1.11-.18-1.18,2.31-.17,2.5,1.01,5.01,3.42,5.58,5.35.9,3.05.64,3.17-2.03.92-2.73-2.3-2.96-2.23-2.05.63.56,1.77,3.16,4.67,5.78,6.46,3.52,2.4,4.15,2.41,2.44.04-1.36-1.87-1.15-4.13.5-5.42,1.8-1.41,2.55-1.15,2.06.72-.48,1.83,0,2.04,1.32.55,1.18-1.34.9-4.22-.64-6.63-2.1-3.27-2-3.68.41-1.76,1.73,1.37,3.58,1.67,4.12.66,1.38-2.6-2.71-5.72-6.13-4.68-1.58.48-4.02-.59-5.42-2.39-1.4-1.79-1.65-2.78-.55-2.2,1.1.58,2.97-.42,4.16-2.23,1.71-2.6,3.1-2.02,6.57,2.71,2.42,3.3,5.03,5.28,5.81,4.4.78-.88,1.5.54,1.61,3.17ZM1280.46,257.09c-4,3.91-6.51,5.05-8.64,3.92-1.65-.88-2.66-1.98-2.24-2.45,5.43-6.15,12.57-11.98,13.85-11.3,3.33,1.77,2.52,4.49-2.96,9.84ZM1286.58,297.01c-1.71,9.7-3.03,8.06-3.96-4.89-.47-6.63.4-11.28,2.23-11.84,3.32-1.02,3.89,4.47,1.73,16.73ZM1272.79,239.32c.57,1.87-1,1.36-3.74-1.21-6.2-5.83-7.31-9.31-1.67-5.23,2.44,1.76,4.87,4.66,5.41,6.43ZM1265.14,252.23c-1.41-.37-3.04-2.31-3.63-4.32-.93-3.14-.65-3.29,1.99-1.06,4.01,3.38,4.88,6.22,1.64,5.37ZM1270.9,263.39c.36,1.18.23,2.28-.29,2.44-.52.16-1.84-.5-2.94-1.45-1.09-.96-.96-2.06.29-2.44,1.25-.38,2.57.27,2.94,1.45ZM1262.75,258.53c-2.58-.69-5.13-2.68-5.66-4.41-.63-2.07.9-1.83,4.48.71,6.85,4.87,6.97,5.25,1.18,3.7ZM1253.94,246.39c.16.52-.68,1.24-1.86,1.61-1.18.36-2.46-.37-2.85-1.62-.38-1.25.45-1.97,1.86-1.61,1.41.37,2.69,1.1,2.85,1.62ZM1254.88,260.79c-.46.86-2.4.73-4.31-.29-2.76-1.48-2.58-1.8.84-1.57,2.37.16,3.93,1,3.47,1.86ZM1246.33,252.24c.34,1.11-.35,2.32-1.53,2.68s-2.61-.85-3.17-2.69.13-3.05,1.53-2.68c1.41.37,2.83,1.58,3.17,2.69ZM1223.61,284.45c-4.7,2.25-19.65,2.06-18.43-.22.34-.63,5.71-1.36,11.93-1.61,8.43-.35,10.09.12,6.5,1.84ZM1201.44,282.35c1.09,3.57-28.07-6.35-41.15-14-19.41-11.35-26.83-20.17-31.84-37.82-2.36-8.33-4.43-19.85-4.61-25.62-.17-5.76-2.14-17.91-4.36-26.99-3.45-14.07-4.92-17.1-9.92-20.47l-5.87-3.96-5.14,6.93q-6.09,8.21-4.46-6.61c1.53-14.02-1.53-22.39-7.9-21.63-10.01,1.21-10.16-2.57-.16-4.3,10.89-1.89,18.47,1.55,23.4,10.63,1.58,2.91,4.9,8.37,7.37,12.14,3.19,4.86,5.69,13.67,8.6,30.27,2.26,12.88,6.32,30.74,9.02,39.67,4.38,14.49,6.32,17.76,17.89,30.03,11.81,12.53,41.47,31.61,46.66,30.03.98-.3,2.08.46,2.46,1.69ZM1168.32,277.74c-.6,1.46-35.31,3.83-72.6,4.95-56.91,1.7-79.61,2.48-86.71,2.95-3.5.23-7-.13-7.78-.82-.78-.69,2.51-11.88,7.31-24.88,8.67-23.49,8.8-23.67,18.87-27.47,10.74-4.06,21.41-4.09,27.48-.11,5.08,3.33-.17,10.09-10.33,13.3-6.97,2.19-7.22,2.56-2.78,4.18,2.67.98,9.96,1.47,16.21,1.09,9.39-.58,13.92-2.15,26.16-9.09,12.03-6.81,16.77-8.48,25.33-8.91,7.44-.37,10.45.46,10.29,2.83-.13,1.85.63,3.09,1.7,2.77s4.3,3.18,7.19,7.79c6.24,9.95,22.12,23.47,32.52,27.68,4.09,1.65,7.3,3.33,7.14,3.73ZM1115.25,177.28c2.57,8.42,3.59,15.07,2.37,15.44-1.18.36-2.42-.22-2.74-1.28-.33-1.07-3.92-2.07-8-2.23-5.33-.21-7.33-1.36-7.14-4.12.15-2.11-.41-6.06-1.25-8.79-.83-2.73-.38-7.77,1.01-11.2,2.17-5.35,3.15-5.98,6.88-4.42,3.24,1.35,5.51,5.62,8.87,16.6ZM1089.58,142.44c-1.01,38.58-1.3,40.2-7.98,44.93-4.58,3.23-8.83,4.6-14.2,4.56-4.21-.03-12.16.14-17.67.38-14.24.63-14.98-6.25-1.96-18.21,6.96-6.4,10.47-12.03,12.83-20.6,4.37-15.91,13.12-22.2,23.88-17.15,2.85,1.34,5.15,4.08,5.09,6.08ZM1024.32,204.84c-6.46,9.85-11.66,21.76-14.61,33.46-5.12,20.26-15.48,49.19-18.46,51.54-1.07.84-3.66,5.14-5.76,9.55-5.79,12.17-40.37,37.39-63.48,46.3-19.68,7.58-21.67,7.6-41.4.28-6.5-2.4-12.67-4.11-13.71-3.79-5.46,1.67-28.9-1.49-31.7-4.27-1.78-1.76-7.96-11.64-13.75-21.95-5.79-10.29-11.78-19.4-13.33-20.22s-3.17-2.68-3.61-4.12c-.6-1.97,2.85-2.75,13.67-3.11,11.7-.39,15.83.63,21.61,5.31,3.93,3.18,8.07,8.79,9.2,12.45,3.31,10.7,17.79,25.14,27.87,27.78,8.08,2.13,11.87,1.43,40.91-7.46,32.3-9.9,46.19-16.59,58.34-28.11,3.24-3.07,7.19-5.98,8.78-6.46,1.59-.49,2.41-2.47,1.82-4.4s3.84-16.96,9.85-33.4c6.01-16.44,12.68-35.42,14.83-42.2,2.15-6.76,5.71-13.16,7.93-14.21,2.22-1.05,5.03-4.38,6.26-7.41,1.22-3.03,3.28-5.82,4.57-6.22,5.76-1.76,3.41,6.57-5.82,20.65ZM987.3,263.54c-5.34,20.96-7.43,22.36-34.36,23.19-29.96.92-146.73-2.63-199.99-6.07-111.58-7.22-234.64-21.46-274.82-31.8l-9.53-2.45,12.96-9.39c7.13-5.17,16.04-12.47,19.8-16.21,5.89-5.88,10.07-7.69,30.4-13.22,19.37-5.27,24.59-5.94,29.28-3.73,7.41,3.48,6.4,6.54-3.12,9.45-6.88,2.1-7.25,2.61-3.62,5.01,5.96,3.93,22.57,5.54,31.04,3.01,4.08-1.22,12.56-5.02,18.85-8.46,10.23-5.59,12.31-6.05,19.77-4.27,8.13,1.91,11.51,5.69,6.48,7.23-1.38.42-2.54,1.86-2.57,3.17-.08,3.29,25.07,4.78,38.74,2.3,16.73-3.03,31.43-1.8,32.03,2.69.43,3.2,3.43,3.03,20.19-1.09,14.23-3.5,21.99-4.26,27.97-2.75,10.68,2.69,12.04,6.97,3.08,9.7s-5.16,4.44,12.2,5.39c9.98.55,18.84-.77,31.72-4.7,24.32-7.43,42.59-6.86,39.21,1.22-2.15,5.14,7.2,5.41,30.2.84,18.47-3.66,25.82-2.94,27.54,2.68.59,1.96-1.66,3.75-6.62,5.27-10.12,3.09-8.57,5.91,3.96,7.18,7.89.8,17.9-1.07,42.62-7.94,21.39-5.95,35.11-8.71,40.6-8.17,8.53.85,10.1,5.07,2.73,7.32-6.29,1.92-3.78,5.57,3.42,4.98,3.47-.28,7.63-.51,9.25-.5,4.62.01,4.74,3.84.58,20.13ZM965.36,294.72c.92,3.03-25.95,6.36-46.31,5.74-27.1-.82-39.3,2.65-45.27,12.9-5.02,8.63-7.29,7.83-13.62-4.82-4.42-8.83-4.86-16.88-1-18.06,2.03-.62,81.63,1.41,102.77,2.62,1.64.09,3.2.82,3.44,1.61ZM943.71,310c-2.41,1.88-14.5,6.67-26.87,10.65-19.71,6.33-23.81,6.96-33.27,5.12-5.93-1.16-10.78-3.37-10.78-4.92,0-1.55,3.15-5.78,6.99-9.4,6.11-5.76,8.43-6.68,18.75-7.46,6.48-.48,20.28-.11,30.67.85,16.74,1.53,18.4,2.12,14.51,5.15ZM735.29,182.44c-6.95-.52-18.56-1.72-25.79-2.66-7.23-.95-14.26-1.41-15.6-1.05-3.59.98-15.01-4.55-25.18-12.2-4.89-3.68-10.86-7.36-13.26-8.2-2.4-.83-9.28-6.7-15.28-13.05-6.01-6.35-14.86-13.85-19.65-16.68-4.8-2.85-8.4-5.76-8.01-6.49,1.81-3.41,11.58-.52,22.84,6.75,6.79,4.39,17.89,9.56,24.68,11.5,17.81,5.09,16.68,5.57-7.22,3.01-5.01-.54-9.01-.61-8.87-.17.98,3.22,24.83,7.07,36.99,5.97,8.14-.73,19.63-.19,25.52,1.21,12.06,2.87,28.91,13.39,35.28,22.05,7.6,10.32,7.15,11.03-6.43,10ZM671.9,175.2c-.7,1.32-67.03-5.4-107.14-10.86-12.82-1.75-21.3-4-20.49-5.46,2.32-4.13,28.68-20.66,36.98-23.2,4.27-1.3,13.66-2,20.88-1.56,13.57.83,23.01,5.52,37.44,18.59,4.31,3.9,13.5,10.26,20.43,14.14,6.92,3.87,12.28,7.63,11.89,8.34ZM533.64,267.11c.09.28-10.35,3.47-23.21,7.09-19.09,5.38-24.78,6.17-31.02,4.29-4.21-1.26-8.12-2-8.7-1.63s-1.75-.89-2.6-2.79c-.84-1.91-3.39-7.39-5.63-12.17l-4.1-8.71,37.56,6.71c20.66,3.69,37.62,6.93,37.71,7.21ZM500.74,197.88c.85,2.79-5.42,8.7-11.05,10.43-3.76,1.14-4.03,1.89-1.34,3.65,2.68,1.76,2.08,3.37-2.93,7.94-3.47,3.15-8.66,6.46-11.55,7.34-10.41,3.18-33.24.65-44.41-4.91-24.98-12.47-32.22-12.74-45.51-1.73-6.31,5.23-7.13,5.37-15.01,2.57-4.59-1.61-24.34-6.82-43.89-11.54-41.22-9.97-76.72-20.96-96.01-29.71-26.13-11.87-49.03-23.62-60.37-30.98l-11.45-7.44,9.75-10.24,9.76-10.25,9.47,2.93c5.21,1.6,13.15,2.81,17.64,2.7,13.9-.38,24.42,7.32,17.45,12.76-7.58,5.92,1.92,8.48,26.74,7.19,12.82-.66,19.81.32,26.53,3.76,10.37,5.31,12.45,8.43,5.54,8.36-7.93-.08-4.11,3.66,5.15,5.04,5.52.83,14.06-.33,23.29-3.15,13.27-4.05,15.29-4.06,22.44-.06,9.03,5.06,7.87,8.37-3.35,9.58l-7.35.79,8.13,3.53c9.14,3.97,27.62,4.55,38.5,1.23,7.84-2.4,19.78-1.67,28.24,1.7,5.28,2.11,5.31,2.2,2.2,6.6-4.69,6.61-.67,7.22,16.45,2.51,16.3-4.5,29.33-4.61,29.22-.26-.04,1.45-2.61,3.95-5.72,5.54-5.5,2.82-5.31,2.96,6.12,4.74,6.73,1.04,19.23.45,29.19-1.39,9.57-1.77,19.69-2.78,22.47-2.23,2.79.55,5.33,1.9,5.67,2.99ZM441.43,146.56c-15.64-2.25-36.05-5.84-45.36-7.99-9.32-2.16-25.95-5.71-36.97-7.91-11.01-2.19-24.71-5.42-30.42-7.19-5.71-1.76-22.01-6.07-36.21-9.56-30.95-7.61-62.77-16.97-62.09-18.25,1.59-2.98,44.45,4.37,60.73,10.42,10.62,3.95,23.3,7.37,28.19,7.59,17.57.81,33.17-7.25,39.72-20.52,5.7-11.57,13.62-13.58,27.63-7.03,6.04,2.83,11.33,6.3,11.77,7.71,1.26,4.11-7.84,18.59-14.66,23.35-4.61,3.21-5.97,5.83-5.14,9.9,1.11,5.46,1.13,5.45,1.71.07.32-3.01,2.1-5.93,3.95-6.49,2.67-.82,3.17-.02,2.42,3.8-2.07,10.5.88,9.6,3.95-1.17,1.79-6.3,5.75-15.86,8.79-21.24l5.55-9.79,7.25,2.59c10.11,3.61,14.79,10.6,15.19,22.66.27,8.01,1.18,10.56,4.95,13.72,2.54,2.13,6.07,3.43,7.84,2.89,1.78-.55,8.78,1.68,15.56,4.94,20.62,9.91,16.7,11.95-14.34,7.5ZM456.63,236.31l-14.95,3.02-17.29-10.24c-13.8-8.17-19.1-10.04-26.34-9.25l-9.07.97,8.62-2.9c7.63-2.57,10.66-1.96,26.79,5.41,16.89,7.74,23.82,9.08,40.06,7.8,11.83-.92,7.17,2.16-7.83,5.19ZM456.77,241.43c-2.06,1.11-5.13,1.28-6.82.38-3.67-1.94-.68-3.28,6.15-2.75,4.25.34,4.28.42.66,2.37ZM379.1,76.72c-9.78-4.58-11.43-4.69-15.6-1-2.56,2.26-4.46,4.74-4.22,5.51.46,1.51-12.39,15.6-14.93,16.38-.84.26,1.1-5.73,4.31-13.33,5.56-13.11,6.27-13.86,14.64-15.23,5.39-.89,11.91.12,16.83,2.6,12.57,6.33,11.63,11-1.03,5.07ZM429.52,249.09c-4.02-.73-8.3-2.2-9.51-3.27-2.29-2.01,6.54-.95,12.96,1.56,5.8,2.27,4.14,3.1-3.45,1.71ZM426.65,236.6c-.75,1.53-16-2.61-16.57-4.48-.29-.93-2-1.24-3.82-.68-4.69,1.43-16.09-2.24-15.38-4.96.85-3.24,9.07-5.22,15.76-3.79,3.11.67,9.01,3.85,13.08,7.08,4.08,3.23,7.19,6.31,6.94,6.83ZM364.27,232.07c-.46.86-2.39.73-4.31-.3-2.76-1.48-2.58-1.79.84-1.57,2.37.16,3.93,1,3.47,1.87ZM278.74,96.91c-1.99-.83-15.07-2.88-29.08-4.55l-25.48-3.04,12.45-2.66c14.28-3.04,25.32-1.69,38.11,4.7,8.47,4.21,11.76,8.79,4,5.55ZM299.31,215.91c.11.35-6.07.87-13.74,1.14l-13.93.48-5.14,9.3c-4.83,8.74-5.79,9.4-16.06,10.99-18.25,2.84-29.76-5.48-52.49-37.92-18.9-26.96-23.59-31.32-44.55-41.31-10.13-4.83-17.18-9.15-15.68-9.61,1.51-.47,16.85,6.84,34.1,16.23,35.18,19.14,62.87,30.68,101.23,42.2,14.32,4.31,26.14,8.13,26.26,8.5ZM145.12,63.43c-10.65-4.42-19.11-8.53-18.8-9.12,1.43-2.69,18.49,2.69,30.76,9.71,21.12,12.1,18.21,11.94-11.96-.6ZM157.96,136.97c-8.78,8.38-9.47,8.68-18.61,7.9-5.45-.45-11.23-2.76-13.57-5.41-6.22-7.03-5.61-7.37,4.83-2.65,11.89,5.36,19.42,3.4,31.51-8.21,4.93-4.74,9.7-8.84,10.59-9.11,2.61-.79-4.86,8.05-14.75,17.48ZM165.2,118.26c-.04,2.66-8.55,7.84-18.16,11.05-5.68,1.91-7.79.86-18.69-9.2-6.75-6.23-12.74-12.83-13.29-14.64s-1.88-3.04-2.95-2.71c-3.34,1.02-18.01-13.94-25.31-25.81-3.85-6.23-6.18-11.57-5.21-11.87.98-.31,3.31,2.17,5.18,5.49,1.87,3.32,4.03,5.3,4.81,4.42.79-.88,5.17,4.69,9.76,12.38,4.58,7.7,8.6,13.49,8.93,12.87.34-.61-3.8-8.6-9.16-17.74-5.37-9.14-9.46-17.18-9.1-17.86,1.35-2.54,18.4,9.11,21.35,14.59,1.68,3.12,3.68,4.97,4.45,4.09.77-.87,5.99,2.73,11.59,8.01,5.62,5.28,15.97,12.96,23.02,17.08,7.04,4.11,12.78,8.55,12.77,9.84ZM126.27,97.25c1.01,3.47.59,3.36-2.11-.53-4.61-6.63-6.33-12.28-2.31-7.52,1.74,2.06,3.73,5.69,4.41,8.06ZM81.27,75.89c-4.5-3.25-6.44-6.39-4.36-7.03.64-.19,2.69,1.55,4.57,3.89,4.89,6.06,4.83,6.8-.21,3.14Z"/><path class="cls-3" d="M1168.32,277.74c-.6,1.46-35.31,3.83-72.6,4.95-56.91,1.7-79.61,2.48-86.71,2.95-3.5.23-7-.13-7.78-.82-.78-.69,2.51-11.88,7.31-24.88,8.67-23.49,8.8-23.67,18.87-27.47,10.74-4.06,21.41-4.09,27.48-.11,5.08,3.33-.17,10.09-10.33,13.3-6.97,2.19-7.22,2.56-2.78,4.18,2.67.98,9.96,1.47,16.21,1.09,9.39-.58,13.92-2.15,26.16-9.09,12.03-6.81,16.77-8.48,25.33-8.91,7.44-.37,10.45.46,10.29,2.83-.13,1.85.63,3.09,1.7,2.77s4.3,3.18,7.19,7.79c6.24,9.95,22.12,23.47,32.52,27.68,4.09,1.65,7.3,3.33,7.14,3.73Z"/><path class="cls-4" d="M1287.12,237.42c.11,2.75-1.16,4.68-3,4.55-2.16-.15-.94,2.06,3.73,6.81,5.6,5.69,6.72,8.05,5.86,12.38-.65,3.26-2.47,5.25-4.67,5.1-1.99-.14-4.51.02-5.59.35-1.09.33-2.26-.34-2.61-1.49-.42-1.36,1.52-1.95,5.52-1.69,5.66.38,5.93.05,3.32-4.01-2.22-3.46-2.14-3.87.4-1.89,1.99,1.56,2.95,1.54,2.5-.04-1.18-4.06-5.87-4.31-6.15-.32-.14,1.98-1.77,3.5-3.64,3.37-1.86-.13-3.51,1.47-3.65,3.56-.33,4.76-8.72,6.56-45.78,9.82-40.17,3.53-52.88-.68-76.48-25.35-13.9-14.53-16.55-20.49-10.01-22.49,5.07-1.55,20.36.24,23.17,2.71,2.7,2.37-.84,9.27-5.49,10.69-6.89,2.11-3.38,4.86,6.14,4.8,11.69-.06,26.61-4.66,37.82-11.65,10.1-6.3,20.94-7.06,23.79-1.67,1.22,2.31-.21,4.42-4.73,6.96l-6.48,3.64,7.89.8c4.34.44,12.71-.48,18.59-2.06,5.88-1.57,10.97-1.99,11.29-.92.32,1.06-.56,1.63-1.97,1.26-1.41-.37-2.24.35-1.86,1.61.81,2.64,1.42,2.57,5.49-.61,1.65-1.28,1.99-3.24.76-4.35-1.22-1.11-.18-1.18,2.31-.17,2.5,1.01,5.01,3.42,5.58,5.35.9,3.05.64,3.17-2.03.92-2.73-2.3-2.96-2.23-2.05.63.56,1.77,3.16,4.67,5.78,6.46,3.52,2.4,4.15,2.41,2.44.04-1.36-1.87-1.15-4.13.5-5.42,1.8-1.41,2.55-1.15,2.06.72-.48,1.83,0,2.04,1.32.55,1.18-1.34.9-4.22-.64-6.63-2.1-3.27-2-3.68.41-1.76,1.73,1.37,3.58,1.67,4.12.66,1.38-2.6-2.71-5.72-6.13-4.68-1.58.48-4.02-.59-5.42-2.39-1.4-1.79-1.65-2.78-.55-2.2,1.1.58,2.97-.42,4.16-2.23,1.71-2.6,3.1-2.02,6.57,2.71,2.42,3.3,5.03,5.28,5.81,4.4.78-.88,1.5.54,1.61,3.17ZM1271.82,261c2.13,1.13,4.64,0,8.64-3.92,5.48-5.35,6.3-8.07,2.96-9.84-1.28-.68-8.42,5.15-13.85,11.3-.42.47.59,1.57,2.24,2.45ZM1265.14,252.23c3.24.85,2.37-2-1.64-5.37-2.64-2.23-2.92-2.08-1.99,1.06.59,2,2.23,3.95,3.63,4.32ZM1270.61,265.83c.52-.16.65-1.26.29-2.44-.36-1.18-1.68-1.84-2.94-1.45-1.25.38-1.38,1.48-.29,2.44,1.09.96,2.41,1.61,2.94,1.45ZM1262.75,258.53c5.79,1.55,5.66,1.17-1.18-3.7-3.58-2.54-5.11-2.79-4.48-.71.53,1.73,3.08,3.72,5.66,4.41ZM1252.08,247.99c1.18-.36,2.02-1.08,1.86-1.61-.16-.52-1.44-1.25-2.85-1.62-1.41-.37-2.24.35-1.86,1.61.38,1.25,1.66,1.98,2.85,1.62ZM1254.88,260.79c.46-.86-1.1-1.7-3.47-1.86-3.42-.23-3.59.09-.84,1.57,1.91,1.02,3.85,1.15,4.31.29ZM1244.79,254.92c1.18-.36,1.87-1.57,1.53-2.68-.34-1.11-1.77-2.32-3.17-2.69-1.41-.37-2.09.84-1.53,2.68s1.99,3.06,3.17,2.69Z"/><path class="cls-4" d="M1469.26,143.24c.73,9.76.34,10.6-4.67,10.25-3.04-.21-4.2-2.14-5.08-8.5-.88-6.36-2.6-9.24-7.59-12.71-9.75-6.77-14.7-3.71-24.77,15.27l-8.95,16.89-11.63,2.16c-14.01,2.6-19.51,7.77-25.42,23.93-8.04,21.98-10.84,44.21-7.1,56.43,3.09,10.11,2.94,11.75-1.42,15.6-4.25,3.76-5.43,3.86-9.33.82l-4.47-3.49-4.8,7.4c-5.31,8.19-20.18,14.43-26.45,11.1-2.77-1.47-3.7-1.07-4.53,1.97-1.89,6.88.89,10.85,10.69,15.27,8.38,3.78,9.05,4.53,5.12,5.73-11.34,3.47-24.79-6.15-24.04-17.2.23-3.37,1.94-6.6,3.82-7.17,1.87-.57,2.61-1.74,1.63-2.6-2.89-2.53,3.43-6.05,10.07-5.61,9.27.62,12.16-.89,16.16-8.41,3.16-5.94,3.1-7.59-.44-12.16-7.2-9.28-16.93-8.34-25.21,2.42-6.56,8.52-11.55,8.64-19.21.44-6.34-6.79-6.37-6.93-4.59-20.25,3.86-28.82,18.92-73.64,29.53-87.87,11.8-15.83,32.75-17.46,34.35-2.67.8,7.44,13.17,14.74,18.41,10.86,10.77-7.98,10.3-19.47-1.02-24.95-9.67-4.68-10.15-9.19-1.83-17.23,11.85-11.44,21.66-13.02,39.88-6.42,23.15,8.39,38.51,16.85,45.82,25.22,4.74,5.43,6.64,9.58,7.08,15.46ZM1385.55,111.89c-3.19,4.32-3.17,4.39,2.04,6.24,6.94,2.46,11.47,16.96,9.68,30.97-.73,5.69-.72,10.66.02,11.06.74.39,4.46.41,8.26.03,6.49-.65,7.17-1.66,11.31-16.95,5.13-18.94,5.23-25.5.45-28.99-5.55-4.05-21.28-8.93-25.06-7.78-1.91.58-4.93,3.03-6.7,5.43ZM1339.98,143.32c-7.55,5.03-15.78,20.25-15.44,28.58.27,6.62,6.86,11.78,23.07,18.05l15.1,5.85,7.48-14.69c4.11-8.08,7.34-14.71,7.18-14.73-.16-.03-3.88-1.8-8.25-3.93-6.54-3.19-8.5-5.64-10.98-13.76-3.58-11.71-7.07-12.74-18.15-5.37ZM1308.42,239.97c2.56,8.39,5.67,8.91,12.65,2.09,6.69-6.53,15.77-8.08,26.46-4.52,7.64,2.55,9.91,1.23,8.09-4.72-.6-1.97-.19-8.78.92-15.15,1.43-8.22,1.15-11.91-.96-12.75-7.76-3.08-29.51-5.38-35-3.7-10.28,3.14-16.75,23.74-12.16,38.75Z"/><path class="cls-3" d="M1512.7,144.68c-4.75.33-9.43.81-10.39,1.07s-1.44-.7-1.06-2.15-1.49-11.19-4.16-21.66c-4.09-16.06-5.83-19.91-11.15-24.65-6.97-6.21-22.01-11.05-32.53-10.48-5.29.29-6.25-.28-4.31-2.55,6.83-7.94,20.58-4.99,38,8.17,7.66,5.79,9.29,8.46,13.45,22.07,3.95,12.92,5.96,16.43,12.15,21.2,9.99,7.69,9.99,8.28,0,8.97Z"/><path class="cls-3" d="M1424.35,183.46c-6.88,17.82-12.34,41.52-10.76,46.7.95,3.13-.11,3.86-6.31,4.35-4.11.32-12.1,1.84-17.78,3.37-5.67,1.53-11.6,2.1-13.18,1.25-4.77-2.54,1.86-31.78,11.28-49.77,7.88-15.05,9.12-16.36,15.99-16.95,9.9-.85,10.23-.53,6.89,6.63-5.89,12.61-4.33,13.33,3.06,1.41,4.2-6.78,9.43-12.87,11.63-13.54,5.68-1.74,5.6-.08-.82,16.56Z"/><path class="cls-4" d="M1476.72,159.68c.18.58-2.41,6.62-5.75,13.41-3.34,6.8-5.71,14.07-5.26,16.16.45,2.09-.79,9.52-2.75,16.51-1.96,6.99-3.24,13.73-2.86,14.97.38,1.25,2.28-4.04,4.21-11.73,1.93-7.7,4.41-14.27,5.52-14.61,1.11-.34,3.2,2.11,4.65,5.44,2.97,6.82,3.99,26,1.43,26.78-.92.28-.58,2.28.75,4.44,2.23,3.61,1.82,3.91-4.99,3.65-4.23-.17-7.89-1.81-8.53-3.83-.88-2.8-1.32-2.82-2.08-.06-.62,2.26-3.26,3.71-7.52,4.13-3.61.36-11.5,1.59-17.54,2.75-14.83,2.85-19.04-.99-16.48-15,.73-3.97,3.91-10.82,7.08-15.24,3.71-5.16,5.66-11.21,5.46-16.96-.45-13.52,5.42-25.54,12.83-26.24,3.29-.31,9.9-1.62,14.68-2.9,4.78-1.29,10.52-2.43,12.75-2.53,2.23-.11,4.2.28,4.38.86ZM1439.46,182.25c2.21-5.85,2.17-6.62-.14-3.25-1.66,2.43-3.52,8.96-4.13,14.52-.61,5.55-1.95,11.07-2.99,12.25-1.04,1.18-1.51,3.29-1.04,4.69.47,1.4,1.62.46,2.56-2.1,2.83-7.67,4.25-6.17,9.06,9.57,2.63,8.6,5.52,14.76,6.75,14.39s1.39-3.15.46-6.19c-1.15-3.78.89-10.66,6.43-21.7,4.85-9.66,6.94-16.2,5.17-16.24-2.09-.05-2.18-3.62-.33-12.19,3.3-15.22,2.94-16.32-2.36-7.26-2.33,4-7.9,11.76-12.36,17.26-8.98,11.05-12.05,9.42-7.09-3.75ZM1432.79,224.31c-.87-2.47-1.53-2.83-1.7-.9-.15,1.74.5,3.57,1.43,4.07s1.05-.93.27-3.16Z"/><path class="cls-3" d="M1509.97,207.55c3.15,9.73,3.04,10.3-1.97,10.28-5.11-.02-5.12.08-.25,3.04,2.78,1.69,5.27,3.79,5.54,4.67.73,2.4-15.1-4.18-16.01-6.65-.43-1.17.25-7.41,1.51-13.87,2.63-13.46,2.24-17.98-.76-8.77-1.82,5.61-5.58,38.06-4.73,40.86.19.61,1.44-.56,2.79-2.6,2.04-3.11,2.4-3.07,2.17.23-.34,4.89-2.52,5.66-7.23,2.57-2-1.31-4.33-1.6-5.18-.63-.85.97-2.62-1.75-3.93-6.04-2.58-8.45,1.1-23.4,9.33-37.9,5.26-9.27,5.2-9.26,11.13-1.22,2.34,3.16,5.75,10.39,7.58,16.05Z"/><path class="cls-3" d="M1527.28,145.11l-5.06,9.98c-6.92,13.66-17.07,28.18-18.98,27.16-.87-.46.19-7.79,2.36-16.28,3.79-14.88,4.26-15.54,12.81-18.15l8.87-2.71Z"/><path class="cls-3" d="M1501.72,168.31c-4.41,15.78-7.91,19.19-8.1,7.91-.14-7.89,3-16.14,8.09-21.25,4.46-4.49,4.47-2.58.01,13.34Z"/><path class="cls-3" d="M1500.2,151.87c.17.55-3.61,4.63-8.4,9.06-4.79,4.43-11.66,13.11-15.28,19.27-8.47,14.46-9.62,10.5-2.22-7.67,5.32-13.05,6.58-14.49,15.69-17.93,5.45-2.06,10.04-3.29,10.21-2.74Z"/><path class="cls-4" d="M1546.16,139.35l-6.9,17.49c-3.8,9.62-6.29,17.82-5.54,18.21.75.4,2.25-2.31,3.33-6.03,4.11-14.07,3.91-4.67-.44,20.92-2.48,14.61-5.37,25.5-6.42,24.2-1.05-1.3-1.28-.03-.51,2.82l1.4,5.18-6.63-4.61-6.63-4.61.14,5.68q.14,5.68-1.85-.05c-1.37-3.95.12-10.75,4.79-21.85,3.73-8.86,7.5-16.95,8.4-17.96.89-1.02.07-5.34-1.82-9.61-2.44-5.48-2.79-10.2-1.2-16.08,1.94-7.19,3.45-8.69,11.07-11.02l8.82-2.7ZM1532.57,200.59c.23-3.42-.09-3.59-1.57-.84-1.03,1.91-1.16,3.84-.29,4.3.87.46,1.7-1.1,1.86-3.47Z"/><path class="cls-3" d="M500.74,197.88c.85,2.79-5.42,8.7-11.05,10.43-3.76,1.14-4.03,1.89-1.34,3.65,2.68,1.76,2.08,3.37-2.93,7.94-3.47,3.15-8.66,6.46-11.55,7.34-10.41,3.18-33.24.65-44.41-4.91-24.98-12.47-32.22-12.74-45.51-1.73-6.31,5.23-7.13,5.37-15.01,2.57-4.59-1.61-24.34-6.82-43.89-11.54-41.22-9.97-76.72-20.96-96.01-29.71-26.13-11.87-49.03-23.62-60.37-30.98l-11.45-7.44,9.75-10.24,9.76-10.25,9.47,2.93c5.21,1.6,13.15,2.81,17.64,2.7,13.9-.38,24.42,7.32,17.45,12.76-7.58,5.92,1.92,8.48,26.74,7.19,12.82-.66,19.81.32,26.53,3.76,10.37,5.31,12.45,8.43,5.54,8.36-7.93-.08-4.11,3.66,5.15,5.04,5.52.83,14.06-.33,23.29-3.15,13.27-4.05,15.29-4.06,22.44-.06,9.03,5.06,7.87,8.37-3.35,9.58l-7.35.79,8.13,3.53c9.14,3.97,27.62,4.55,38.5,1.23,7.84-2.4,19.78-1.67,28.24,1.7,5.28,2.11,5.31,2.2,2.2,6.6-4.69,6.61-.67,7.22,16.45,2.51,16.3-4.5,29.33-4.61,29.22-.26-.04,1.45-2.61,3.95-5.72,5.54-5.5,2.82-5.31,2.96,6.12,4.74,6.73,1.04,19.23.45,29.19-1.39,9.57-1.77,19.69-2.78,22.47-2.23,2.79.55,5.33,1.9,5.67,2.99Z"/><path class="cls-3" d="M987.3,263.54c-5.34,20.96-7.43,22.36-34.36,23.19-29.96.92-146.73-2.63-199.99-6.07-111.58-7.22-234.64-21.46-274.82-31.8l-9.53-2.45,12.96-9.39c7.13-5.17,16.04-12.47,19.8-16.21,5.89-5.88,10.07-7.69,30.4-13.22,19.37-5.27,24.59-5.94,29.28-3.73,7.41,3.48,6.4,6.54-3.12,9.45-6.88,2.1-7.25,2.61-3.62,5.01,5.96,3.93,22.57,5.54,31.04,3.01,4.08-1.22,12.56-5.02,18.85-8.46,10.23-5.59,12.31-6.05,19.77-4.27,8.13,1.91,11.51,5.69,6.48,7.23-1.38.42-2.54,1.86-2.57,3.17-.08,3.29,25.07,4.78,38.74,2.3,16.73-3.03,31.43-1.8,32.03,2.69.43,3.2,3.43,3.03,20.19-1.09,14.23-3.5,21.99-4.26,27.97-2.75,10.68,2.69,12.04,6.97,3.08,9.7s-5.16,4.44,12.2,5.39c9.98.55,18.84-.77,31.72-4.7,24.32-7.43,42.59-6.86,39.21,1.22-2.15,5.14,7.2,5.41,30.2.84,18.47-3.66,25.82-2.94,27.54,2.68.59,1.96-1.66,3.75-6.62,5.27-10.12,3.09-8.57,5.91,3.96,7.18,7.89.8,17.9-1.07,42.62-7.94,21.39-5.95,35.11-8.71,40.6-8.17,8.53.85,10.1,5.07,2.73,7.32-6.29,1.92-3.78,5.57,3.42,4.98,3.47-.28,7.63-.51,9.25-.5,4.62.01,4.74,3.84.58,20.13Z"/><path class="cls-4" d="M165.2,118.26c-.04,2.66-8.55,7.84-18.16,11.05-5.68,1.91-7.79.86-18.69-9.2-6.75-6.23-12.74-12.83-13.29-14.64s-1.88-3.04-2.95-2.71c-3.34,1.02-18.01-13.94-25.31-25.81-3.85-6.23-6.18-11.57-5.21-11.87.98-.31,3.31,2.17,5.18,5.49,1.87,3.32,4.03,5.3,4.81,4.42.79-.88,5.17,4.69,9.76,12.38,4.58,7.7,8.6,13.49,8.93,12.87.34-.61-3.8-8.6-9.16-17.74-5.37-9.14-9.46-17.18-9.1-17.86,1.35-2.54,18.4,9.11,21.35,14.59,1.68,3.12,3.68,4.97,4.45,4.09.77-.87,5.99,2.73,11.59,8.01,5.62,5.28,15.97,12.96,23.02,17.08,7.04,4.11,12.78,8.55,12.77,9.84ZM126.27,97.25c-.69-2.37-2.68-6-4.41-8.06-4.03-4.76-2.3.89,2.31,7.52,2.7,3.89,3.12,4,2.11.53Z"/><path class="cls-2" d="M426.65,236.6c-.75,1.53-16-2.61-16.57-4.48-.29-.93-2-1.24-3.82-.68-4.69,1.43-16.09-2.24-15.38-4.96.85-3.24,9.07-5.22,15.76-3.79,3.11.67,9.01,3.85,13.08,7.08,4.08,3.23,7.19,6.31,6.94,6.83Z"/><path class="cls-2" d="M456.63,236.31l-14.95,3.02-17.29-10.24c-13.8-8.17-19.1-10.04-26.34-9.25l-9.07.97,8.62-2.9c7.63-2.57,10.66-1.96,26.79,5.41,16.89,7.74,23.82,9.08,40.06,7.8,11.83-.92,7.17,2.16-7.83,5.19Z"/><path class="cls-2" d="M456.77,241.43c-2.06,1.11-5.13,1.28-6.82.38-3.67-1.94-.68-3.28,6.15-2.75,4.25.34,4.28.42.66,2.37Z"/><path class="cls-4" d="M1651.03,114.48c.2.65-1.6,13.42-4.01,28.37-7.43,46.12-6.52,52.92,8.82,65.88,2.56,2.17,4.37,4.49,4.01,5.16-.36.67-17.49,4.83-38.06,9.23-20.58,4.4-44.56,9.56-53.29,11.47l-15.88,3.46-7.06-10.78c-8.69-13.28-8.82-19.62-1.22-60.32,3.91-20.94,6.12-27.68,9.38-28.63,2.35-.68,19.98-5.23,39.19-10.12,19.2-4.88,40.05-10.23,46.33-11.9,6.28-1.66,11.58-2.49,11.78-1.84ZM1637.95,192.75c1.28-1.03-.57-.96-4.11.17-3.54,1.13-4.58,1.97-2.32,1.88,2.26-.09,5.15-1.02,6.43-2.05Z"/><path class="cls-3" d="M1522.28,240.06c.17.27-1.66,1.09-4.06,1.83-3.86,1.18-4.25.68-3.28-4.23,1.07-5.41,1.19-5.46,4.06-1.83,1.63,2.06,3.1,3.97,3.28,4.24Z"/><path class="cls-3" d="M1533.79,235.93c-.24,3.47-.76,3.6-5.42,1.41-2.83-1.33-5.46-3.42-5.83-4.64s1.17-.84,3.43.85c2.26,1.69,5.01,2.06,6.1.81,1.3-1.47,1.9-.93,1.72,1.57Z"/><path class="cls-3" d="M1511.05,233.69c.05.09-1.27.59-2.93,1.09s-2.92-.54-2.78-2.48c.2-2.8.71-2.99,2.93-1.09,1.48,1.27,2.73,2.39,2.78,2.48Z"/><path class="cls-3" d="M1419.1,240.48c.16.53-8.73,3.47-19.75,6.54-19.03,5.3-20.16,5.34-22.23.91-2.05-4.39-1.6-4.77,7.49-6.28,19.79-3.28,25.47-3.85,29.78-3,2.43.48,4.56,1.3,4.72,1.83Z"/><path class="cls-3" d="M1413.26,265.58l-6.11,3.74c-8.68,5.32-10.77,13.08-5.46,20.32,2.3,3.14,6.75,5.88,9.89,6.09,7.68.51,9.14,6.75,4.03,17.2-3.61,7.37-5.27,8.68-11.83,9.39-7.48.81-30.9-2.22-31.47-4.06-.68-2.23,1.48-13.45,2.65-13.81.71-.22,2.92,1.49,4.9,3.79,1.98,2.3,7.74,5,12.8,6,8.81,1.74,9.49,1.56,15.77-4.19,7.82-7.16,7.62-9.22-1.09-10.94-8.35-1.64-13.54-8.38-14.97-19.42-1.36-10.5,4.25-16.31,14.44-14.97l6.43.84Z"/><path class="cls-3" d="M1434.16,284.91c-5.45-5.05-13.49-16.42-12.68-17.94,1.43-2.69,9.68,3.54,13.38,10.11,4.59,8.17,4.22,12.38-.69,7.82Z"/><path class="cls-3" d="M1434.75,292.58c.22.22-1.23.28-3.21.14-1.98-.14-4.02-1.6-4.52-3.25-1.31-4.29,2.67-4.86,5.2-.75,1.17,1.9,2.31,3.64,2.53,3.86Z"/><path class="cls-3" d="M1288.14,225.23c.23,5.57-2.27,6.79-5.5,2.66-3.39-4.33-3.32-4.67,1.21-6.05,3.04-.93,4.15-.05,4.29,3.39Z"/><path class="cls-2" d="M1272.79,239.32c.57,1.87-1,1.36-3.74-1.21-6.2-5.83-7.31-9.31-1.67-5.23,2.44,1.76,4.87,4.66,5.41,6.43Z"/></svg>