<?xml version="1.0" encoding="UTF-8"?>
<svg id="Layer_1" data-name="Layer 1" xmlns="http://www.w3.org/2000/svg" version="1.1" viewBox="0 0 1957.7 345.2">
  <defs>
    <style>
      .cls-1 {
        fill: #000000;
      }

      .cls-1, .cls-2, .cls-3, .cls-4 {
        stroke-width: 0px;
      }

      .cls-1, .cls-4 {
        fill-rule: evenodd;
      }

      .cls-2 {
        fill: #000000;
      }

      .cls-3, .cls-4 {
        fill: none;
      }
    </style>
  </defs>
  <path class="cls-1" d="M15.5,31.1c5.3-9.1,15.2-14.2,24.9-12.9,4.5.6,12.3.8,17.5.5,5.5-.4,12.5.9,16.7,2.9,13.5,6.5,24.3,9.2,34.8,8.6,9.4-.5,10.9,0,16,4.7,3.1,2.9,8.6,6.2,12.3,7.3,5.4,1.7,7.5,1,11-3.4,6.7-8.6,16.2-10.2,32.7-5.4l14.4,4.2,3.3,17.3c3,15.8,4.5,18.7,16.5,32.1,7.3,8.1,15,17.8,17.1,21.6,2.2,3.8,4.2,6,4.5,4.9,1.4-5.5-3.1-15.1-14.2-30.4-13.9-19.1-18.4-29.6-17.2-40.4,1.6-14.7-3.8-18.5-34.5-24.2-12-2.2-14.3-1.8-26.5,4.9-7.4,4.1-14.7,7-16.3,6.5-1.6-.5,0-1.8,3.8-3,3.7-1.1,11.1-4.5,16.4-7.6,10-5.7,12.7-5.7,49.5.4l8.3,1.4,3.4,21.1,3.4,21.1,8.2,1c4.5.6,29.1,6.9,54.7,14.1,66.1,18.6,140.4,37.8,149.6,38.6,3.4.3,7.5-2.8,13.5-10.2,4.7-5.8,9-12.2,9.5-14.2,2.7-11.3,12.2-23.8,24.8-32.8,17.2-12.2,23.2-12,41.2,1.9,7,5.4,14.7,9.8,16.9,9.8,2.2,0,6.2-.2,8.9-.4,20.8-1.4,27.4-.7,33.8,3.3,17.7,11.2,22.7,27.8,10.3,33.8-7,3.4-10,12-5.5,15.5,4.4,3.4,12.8-2.3,13.5-9.2.8-7.4,12-12.4,23.4-10.5,10.8,1.8,17.7,9,30.1,31.6l7.8,14.1,24.1,4.1c24.2,4.1,73.5,10,99.3,11.8,51.4,3.7,47.2,3.9,47.3-2.9,0-3.4,2.8-14.1,6-23.7,12-36.2,36.6-50.8,57.1-33.8,4,3.3,11.6,14.6,16.9,25.1,7.7,15.3,11.2,19.9,17.6,23.1,4.4,2.3,10.8,7.4,14.1,11.5l6,7.4,47.2-.6c26-.4,58.9-.9,73.2-1.2,30.5-.6,127.8-6.2,131.6-7.5,1.4-.5,11.1-9.7,21.5-20.5,10.4-10.8,21.4-20.7,24.4-22.2,3-1.5,11.7-3,19.3-3.4,26.2-1.4,43.1-5.5,51.1-12.4,10.3-8.8,34.1-20.2,41.6-19.8,9.3.5,21,6.6,32.8,17.3,5.9,5.3,16.9,13,24.3,17,7.5,4,16.4,9.8,19.7,12.9,6,5.5,6.5,5.5,30,2.1,21-3.1,24.6-4.3,29.6-10.4,7.6-9.1,18.7-15.1,28.4-15.4,5.8-.1,8.2-1.4,9.2-4.9,1.2-4.6,1.2-4.6-1.9-1-2.2,2.6-1.8-.7,1.1-10.9,4.2-14.3,4.6-14.8,16.6-22,6.7-4,17.6-11.7,24.2-17,14.4-11.8,26.1-14.4,35-7.9,3.2,2.4,9.4,11.2,13.6,19.6,6.2,12.2,9.1,15.7,14.5,17.4,10.8,3.3,24-.4,43.8-12.5,21.3-13,27.3-14.1,50-9.3,26.8,5.6,30.2,5,63.7-12.3,23.4-12.1,35-16.6,48.5-18.9,21.1-3.5,39.2-10.5,76.8-29.6,15.3-7.8,31.8-15.4,36.6-17l8.8-2.9-3.1,4.7c-6.9,10.5-63.4,79.3-77,93.7-8,8.5-22.2,23.8-31.4,33.9-14.2,15.5-20.5,20.3-40.4,31.1-26,14.1-32,20.6-50.6,54.6-10.5,19.2-25.4,33.9-36.8,36.4-5.2,1.1-14.9-.2-31.6-4.4l-24-6,21.6,3.4c29.7,4.7,37.7,2.7,53.1-13.2,2.9-3-.1-2.1-8.7,2.6-12.3,6.8-13.7,7-24.2,3.8-9.2-2.8-12-4.8-15.5-11l-4.3-7.6-12.7,1.1c-7,.6-17.4,1-23.2.8l-10.5-.3,7.1,3.7c6.9,3.6,20,15.4,15.7,14.1-1.2-.4-4.2-2.8-6.6-5.4-2.4-2.6-6.6-5.4-9.3-6.3-7.1-2.3-33.9.8-42.1,4.9-3.9,1.9-11.7,3-17.4,2.3-15.2-1.7-37.5,4-42.5,10.8-4.9,6.7-11.6,8.3-25.4,6.1-11.8-1.8-16.2,1.4-23.2,17-4,9-4.9,9.6-16.7,11.3-9.8,1.4-15.8.7-28.3-3.3-8.7-2.8-16.1-4.2-16.4-3.2-.8,2.7,8.3,7.6,14.5,7.8,4.2,0,4.5.4,1.5,1.4-5.9,1.9-11.9-.6-18.3-7.7-7.9-8.9-13.9-10.2-33.2-6.9-24.8,4.2-85.8,10.1-138.5,13.4-61.9,3.8-80.4,7.7-97.2,20.2-7.2,5.3-14.7,13.1-16.8,17.2-8.5,17-17,28.2-22.5,29.7-3.1.8-12.9,1.1-21.7.6-10.5-.6-19.1.5-25.1,3.2-12.4,5.6-16.4,5-44.9-6.5-21.1-8.5-27.6-12.2-43.4-25-10.2-8.3-20.4-18.3-22.6-22.2l-4-7.2-31.6-.3c-17.4-.2-53-1.4-79.1-2.8-26.1-1.4-48-2.3-48.6-2-.7.3-.4,2,.6,3.9,3.4,6.3-1,12.2-17.6,23.5-9.2,6.2-22.1,15.7-28.8,21-14.9,11.9-21.4,14.2-31.8,11-9.2-2.8-10-4.8-10.1-26.8,0-8-1.5-17.7-3.3-21.6l-3.3-7.2,3.8,5.9c3.6,5.5,8.1,29.8,6.1,33-.5.8-.8,3.9-.7,6.8.1,3.9,1.9,5.9,6.6,7.3,7.2,2.2,20.8.4,21.8-2.8.8-2.7-2.8-3.8-5.4-1.6-1.1,1-3.6,1.2-5.6.6-2.2-.7-.7-1.7,3.8-2.5,11.1-2.1,14.9-4.3,38.8-22.6,19.6-15,21.8-17.4,21.1-22.6-.7-5.3-1.9-6.1-11.8-8.3-7.4-1.7-15-1.3-23.3,1-17.8,5-24.2,4.9-41.2-.7-8.4-2.7-18-4.7-21.3-4.4-3.3.3-4.9,1.1-3.4,1.6,1.5.5,2.4,1.9,2,3.1-.4,1.3-2.4.6-5.2-1.9-11.8-10.4-17.2.5-12.8,26,5.3,30.8,1.2,35.7-34.5,41.6-22.3,3.7-29.3,1.6-46.6-13.7l-12.8-11.3-14,1.8c-8.4,1.1-17.9.6-23.8-1.2-8.3-2.5-10.3-4.3-13.3-11.3-2-4.6-3.4-10.8-3.3-13.9.3-5.2-.1-5.4-5.2-3.8-7.3,2.4-21-2-27-8.5-2.6-2.9-6.2-10.4-7.9-16.7-2.9-10.4-3.8-11.6-9.9-12.2-3.7-.4-9.5-1.5-12.8-2.5-4.1-1.3-12.5.8-27,6.5-30.3,12-36.8,13.9-42.8,12.1-9.1-2.8-17.7-11.6-24.3-24.9l-6.3-12.7-18-4.1c-27-6.1-42.1-7.6-49.8-4.9-3.8,1.3-9.6,2.3-12.8,2.2-3.2-.2-10.5,2-16.2,4.7-18.3,8.7-31,4.1-46.8-16.9l-10.2-13.5-55.8-15.9c-48.8-13.9-56.6-15.6-62.5-13.8-3.7,1.2-8.5,2.2-10.8,2.3-6.2.3-78.8-27.3-81.3-31C-5.2,112.7.9,56.1,15.5,31.1ZM22.2,28.6c4.9-5.8,11.9-8.4,13.6-5.1.4.8-1,3.4-3.2,5.8-3.7,4-3.7,4.1.5,1.2,2.5-1.7,5.1-3.9,5.8-4.9.7-1,5-1.2,9.6-.5,6.7,1.1,9,2.7,11.9,8.3,4.7,8.9,4.2,22.9-1.2,34.7-6.7,14.6-5.5,24.7,4.3,33.4,8.1,7.3,14.6,10.6,17.7,9,.9-.5,1-5.5.3-11.1-.9-6.6.2-15.2,3-24.4,4.9-16.1,5.2-27.5,1-36.5l-2.9-6.2,8.8,2.7c14,4.3,15.9,11.8,11.6,47.3-4,32.9-6.9,40.2-21.3,51.7-9.5,7.7-10.5,9.8-2.8,6.2,16-7.5,24.9-25.6,28-57,.9-8.8,2.1-19.8,2.7-24.4.6-4.6-.5-12.1-2.4-16.5l-3.5-8.1,5.7.3c3.1.2,7.9,1.3,10.5,2.5,4.3,2,4.5,3.8,2.2,15.6-1.4,7.3-2.2,21.4-1.7,31.2,1.5,28.8-6.4,47.8-26,61.8-5.5,3.9-9.3,4.9-13.8,3.5-3.4-1-6.5-3-6.9-4.5-.4-1.5-12.3-6.1-28.5-11l-27.8-8.5,3.8-4.9c2.1-2.7,4.5-7.2,5.3-9.9.9-3,3.2-5,5.6-4.9,3.1.1,2.9-.3-.7-1.6-2.6-1-4.4-3-3.9-4.5.5-1.5,0-7.2-1.1-12.7-1-5.4-2.3-15.3-2.8-21.9-.8-10-1.1-10.7-2-4.3-.6,4.3-.2,13.7.7,20.9,1,7.2,1.3,16.4.8,20.4-1,8.3-7.9,16.5-13.4,15.9-4.3-.5-6.6-17.4-5-35.8,1.5-16.9,10.9-46,17.2-53.4ZM29.5,36.7c.1,1.7-.6,4.1-1.6,5.4-1,1.3-1.2,0-.3-3,.9-3,1.8-4,1.9-2.4ZM69.5,26c5,1.5,8.2,4.4,10.8,9.8,5.8,11.9,6,17.4,1.6,36.9-2.3,10-3.8,21.8-3.4,26.4.4,4.5.1,8.6-.6,9-2.7,1.4-18.6-12.7-19.5-17.3-.5-2.5,1.5-12.5,4.4-22,5.2-17,5.2-32.9.1-38.8-3.6-4.1-.3-6,6.6-3.9ZM64.2,84.7c4.2-2.2,9.7,1.5,8.4,5.7-.7,2.4-2.3,4-3.4,3.7-1.1-.3-1-2,.3-3.7,1.9-2.4,1.4-3.1-2.7-3-5.1,0-6.1-.9-2.7-2.7ZM134.9,47.6c3.5,2.2,5,11.3,2.1,12.8-2,1.1-7.6-9.4-6.7-12.5.5-1.6,2.4-1.7,4.6-.4ZM143.8,49.9c2.6-.7,24,5.2,24.9,6.8.3.7-.5,3.1-1.9,5.4-2,3.2-5,3.8-13,2.6-5.8-.9-10.9-1.8-11.5-2.1-1.9-1.1-.6-12.1,1.6-12.7ZM149.2,69.3c14.2.4,18.1,2.4,19.5,10.5,2.1,11.3-.3,16.5-6.7,14.5-2.9-.9-9.7-1.3-15.1-.8-5.4.5-10,.4-10.2-.2-.2-.6.5-6.2,1.7-12.6l2.2-11.6,8.6.2ZM130.3,108.1c2.3-4.9,2.5-4.7,3.3,3,1,10.1.4,12.1-3.3,11-3.5-1.1-3.4-6.8,0-14ZM143.7,98.3c3-.2,9.2.1,13.9.7,7.9.9,8.6,1.6,10.7,9.4,4.3,16.5,3.3,22.6-5.1,32.1-5,5.7-8.5,7.9-10.2,6.5-1.7-1.3-2.5-.8-2.4,1.4.4,5-3.4,3.1-6.4-3.2-1.4-3-4.2-6.5-6.2-7.9-2-1.4-3.4-3.4-3-4.4.3-1.1,3.6,1.2,7.3,5l6.7,6.9-6-9.3c-3.3-5.1-5.4-11-4.8-13.2.6-2.1.8-7.7.3-12.5-1.1-11.1-1.1-11,5.3-11.4ZM163.2,39.6c2.9-1.4,10.1-2.4,16-2.4,10.2,0,10.8.3,12.6,5.7,1,3.1,1.3,7.4.7,9.5-1,3.3-3.3,3.2-18.4-1.4-9.5-2.9-17-6.1-16.7-7.1s2.9-2.9,5.8-4.3ZM177.5,60.5c1-.5,5.1,0,9.1,1.3,11.1,3.4,16.4,15,13.6,29.8-2,10.9-2.4,11.4-5.3,7.6-5.6-7.2-19.4-37.6-17.5-38.6ZM161.9,145.9c6.6-6.6,10.3-12.1,11-16.5.6-3.7,3.3-9.4,6.1-12.7,2.8-3.4,6-9.2,7.2-13l2.1-6.9,3.8,6.7c2.1,3.7,4.5,11.3,5.4,16.9,2.5,16.2-2.6,27.8-17.6,39.9-6.3,5.1-7.8,5.2-18.1,2.1-6.2-1.9-11-4.1-10.6-5,.4-.8,5.2-6,10.7-11.4ZM179,164.4c4.9-1.4,20.2-18.8,22.1-25.3.9-3,1.3-12.9.9-22.1-.8-18.6.4-25.7,3.9-22.1,1.8,1.9,1.9,1.6.4-1.4-2.6-5.3-.8-9.6,2.9-6.8,2.1,1.6,2.1,4,.2,7.6-2.9,5.5-1,13.3,8.4,33.9,4.2,9.2,4.2,10.7.2,16.1-5.2,7.1-9,25.2-6,28.6,1.5,1.7,1.3,2.6-.7,3.2-1.6.4-2.5-.4-2.1-1.8.6-1.9-.1-2.2-3-.9-2.3,1-9.2-.3-17.2-3.2-8.6-3.1-12.2-5.2-9.9-5.8ZM234.3,74.5c9.7,3.7,9.9,4,12.8,18.7,3.5,17.7,3.3,29-.4,26.4-1.4-1-3.5-6.2-4.7-11.7-1.2-5.4-6-14.8-10.6-20.7-10.9-14-10.1-17.7,2.9-12.7ZM229,131.3c7-12.9,8.2-14.2,8.5-9.2.2,3.7-2.5,11.6-7.4,21.7-6.7,13.7-7.6,16.9-6.6,23.9,1.9,12.8,8.1,25.1,17.1,33.9q8.4,8.2,1.5,6.2c-8.2-2.4-21.8-20.7-25.3-34.2-2.7-10.3.2-20.3,12.2-42.4ZM255.8,77.9c14.6,2.7,14.9,3.4,8.7,20.8-4.8,13.6-8.7,20.3-9.6,16.7-1.2-4.6-6.9-37.2-6.6-37.9.2-.5,3.5-.3,7.5.4ZM236.3,140.4c2.3-3.8,4.7-10.3,5.2-14.4.9-7,1.2-7.2,4.7-3.8,4.2,4.2,6.2,12.9,6.1,26.9,0,8.9-.9,10.6-9.3,20.1-5.1,5.7-10.2,10.1-11.4,9.7-7.5-2.3-5.1-22.5,4.7-38.5ZM262.3,129.8c14.5,23.4,15.1,33.6,3,49.2-5.9,7.5-6.7,7.8-16.5,5.8-5.7-1.2-10.6-2.6-11-3.2-.4-.6,2.7-4.7,6.9-9.3,9.5-10.2,12.1-18.5,11.1-34.7-1.2-17.6-.3-18.7,6.5-7.8ZM243.4,191.1c14.8,1.5,31.9,5.5,31.4,7.3-.3,1.1-4.4,4.4-8.9,7.4l-8.4,5.5-8.7-6.8c-11.8-9.2-13.8-14.3-5.4-13.4ZM280.2,84.7c4.4.5,8.8,1.8,9.7,2.9,3.4,3.9,7.7,28.2,6,33.9l-1.7,5.7-5.1-7.8c-12.7-19.6-18.5-30.4-17.8-32.9.5-1.5,4.4-2.3,8.8-1.8ZM256,212c4.5.6,6.4,1.5,4.8,2.4-1.4.8-4.8.3-7.4-1-4.1-2-3.7-2.2,2.6-1.4ZM270.8,177.1c2.9-3.4,6.8-11.1,8.6-17.1,3.5-11.3,12.2-26.2,14.9-25.4,2.3.7,8.4,24,8.1,30.7-.2,3.9-3.4,9-9.9,15.8-9.2,9.5-10.1,9.9-19,7.9-10.3-2.4-10.4-2.8-2.8-11.8ZM300.9,91c3.2,3.6,12.2,68.4,10.7,77-.9,5.5-3.8,10.3-9.4,15.8-10.9,10.8-15.2,10.3-5-.7,4.5-4.8,8.7-10.3,9.3-12.2,1.6-4.8-1.9-42.9-5.7-62.5-3.3-17-3.3-21.2,0-17.5ZM275.8,203.3c3.4-2.4,8.2-3.7,10.6-3,3.7,1.1,3.8,1.7.7,3.8-2,1.3-4.7,2.1-5.9,1.7-1.2-.4-4.5.4-7.3,1.7-6.7,3.1-5.8,1.1,1.9-4.2ZM318.5,95.8c6.3,1.7,27.1,7,46.3,11.9,19.2,4.9,36.8,9.4,39.2,10.1,3.3.9,5.5,7.7,9.4,28.6,7.6,40.7,7.5,47-1.2,60.3l-7.1,10.8-15.9-3.5c-8.7-1.9-32.7-7.1-53.3-11.5-20.6-4.4-37.7-8.6-38.1-9.2-.4-.7,1.4-3,4-5.2,15.3-13,16.2-19.8,8.8-65.9-2.4-14.9-4.2-27.7-4-28.4.2-.6,5.5.2,11.8,1.8ZM323.9,172.4c3.5,1.1,4.6,2,2.3,1.9-2.3,0-5.2-1-6.4-2.1-1.3-1,.6-1,4.1.2ZM405.7,105.2c3.4-.2,9.5-2.6,13.6-5.2,4.1-2.6,8.3-4.5,9.4-4.2s-.4,1.9-3.3,3.4c-2.9,1.5-5.9,3.7-6.8,4.9-1.6,2.2-20,4.7-19.3,2.7.2-.6,3.1-1.3,6.5-1.6ZM420.4,121.5c7.6,2.3,9.1,3.8,11.1,11,1.6,5.9,1.2,10.6-1.2,16.1-1.9,4.3-2.7,8.6-1.8,9.6.9,1,4.7,9.1,8.4,18,4.7,11.1,6.2,17.9,4.8,21.8q-2,5.7-1.8,0v-5.7c.1,0-6.5,4.6-6.5,4.6l-6.6,4.6,1.4-5.2c.8-2.8.5-4.1-.5-2.8-1,1.3-3.9-9.6-6.4-24.2-4.3-25.6-4.5-35-.4-20.9,1.1,3.7,2.6,6.4,3.3,6,.8-.4-1.7-8.6-5.5-18.2l-6.9-17.5,8.8,2.7ZM392.8,224.6c4.3,2.4,11.2,5.2,15.2,6.3,7.5,2.1,38.6-2.1,59.2-8.1,28.3-8.2,36.8-7.6,80.2,5.4,32.5,9.7,32.7,9.9,43.7,32.3,7.4,15.1,14.8,21.1,30.7,25,11.5,2.8,17.3-.8,26.3-16.2,5.1-8.7,12-13.6,14-9.9,1.2,2.3-8.2,13.8-18.6,22.6-9.3,7.9-13,9.6-20.8,9.3-5.2-.2-10.4-1.3-11.4-2.6-1.1-1.3-1.7-1.1-1.3.4.9,3.5-6.5,6.5-9.1,3.6-1.5-1.7-1.7-.9-.9,3,1.3,6.6,1.8,6.7,9.4,2.9,3.4-1.7,10.7-3.6,16.4-4.3,6.5-.8,13.4-3.8,18.9-8.3,8-6.6,8.7-6.8,8.9-2,.3,5.2,10.6,25.3,11.5,22.5.3-.8-2-5.8-5.1-10.9-4.8-8.1-5.1-10.2-2.2-15.7,1.9-3.5,4.1-8,5-10,1.7-4.1,5.3-4.1,4.1,0-.4,1.5.8,7.9,2.7,14.3,1.9,6.4,2.8,13.7,2.1,16.3-1.9,6.2-5.6,10.8-8.2,10-1.1-.3-5.8.7-10.5,2.4-12.3,4.4-30.9,3-40.7-3.1-6.5-4-7.6-4.3-6.3-1.3,2.8,6.8,13.7,10.4,29.8,9.8,27.1-1,40-7.3,39.8-19.8,0-3.8.2-3.7,2.1,1.1,1.4,3.5,1,8.4-1.1,13.8-3.2,8.4-3.4,8.4-26.8,12.6-26.8,4.7-29.9,3.9-47.3-12.1-9.9-9.2-11-11.3-14.6-29.8-2.2-10.9-5.3-22.7-7-26.1-4-8.1-23.7-22.2-36.3-26-10.9-3.3-47.7-9-55.1-8.5-8.1.5-52.3,11.4-64.4,15.9-13.1,4.8-19.6,3.5-30.6-6.1-10.9-9.6-11.7-14.5-1.5-8.9ZM394.5,245.2c1.8.5,4.4,2.4,5.8,4.1,2.3,2.7,2.2,3-.6,2.1-1.8-.5-4.4-2.4-5.8-4.1-2.3-2.7-2.2-3,.6-2.1ZM439.3,127.3c8.5,2.6,9,3.3,12.8,18.2,2.2,8.5,3.2,15.8,2.4,16.3-1.9,1-12.1-13.5-19-27.2l-5.1-10,8.9,2.7ZM445.1,115.1c6.2-4.8,8.2-8.3,12.2-21.2,4.2-13.6,5.8-16.3,13.4-22.1,17.4-13.2,31.2-16.1,38-8.2,1.9,2.3,1,2.8-4.3,2.5-10.5-.6-25.6,4.3-32.5,10.5-5.3,4.7-7.1,8.6-11.1,24.6-2.7,10.5-4.5,20.2-4.2,21.7s0,2.4-1.1,2.1-5.6-.7-10.4-1.1c-10-.7-10-1.3,0-9ZM426.8,179.2c1,1.9,1.2,3.8.3,4.3-.9.5-1.7-1.1-1.9-3.5-.2-3.4,0-3.6,1.6-.8ZM415.9,211.2c.1,1.7-.6,4.1-1.6,5.4-1,1.3-1.2,0-.3-3,.9-3,1.8-4,1.9-2.4ZM425.7,213.8c1.1,1.2,3.8.9,6.1-.8,2.3-1.7,3.8-2.1,3.4-.9s-3,3.3-5.8,4.6c-4.7,2.2-5.2,2.1-5.4-1.4-.2-2.5.4-3,1.7-1.6ZM456,134.4c5.1,5.1,8.2,13.4,8.1,21.2-.2,11.3-3.7,7.9-8.1-7.9-4.5-15.9-4.5-17.8,0-13.3ZM476.6,76.8c14.3-9.9,32.5-9.7,40.9.5l4.2,5-16.1,10.3c-20.4,13.1-23.4,16.9-23,29,.2,5.1-.3,9.7-1.2,10.2-2.9,1.6-19.3-4.7-21.1-8-1.1-2.1.4-10.6,4.2-23.1,5-16.5,7-20.4,12-23.9ZM467.8,134.1c9.1,3.4,10.4,4.9,15.7,17.9,7.4,18.2,6.3,22.1-2.2,7.7-3.6-6.2-10.5-14.8-15.3-19.3-4.8-4.4-8.6-8.5-8.4-9.1.2-.6,4.8.7,10.2,2.7ZM438.7,215.3c2.9-3.6,3-3.6,4.1,1.8,1,4.9.6,5.4-3.3,4.2-2.4-.7-4.2-1.6-4.1-1.8.2-.3,1.6-2.2,3.3-4.2ZM455.4,170.9c5.9-8,5.9-8,11.1,1.2,8.2,14.5,11.9,29.5,9.3,37.9-1.3,4.3-3.1,7-3.9,6-.8-1-3.2-.7-5.2.6-4.7,3.1-6.9,2.3-7.2-2.6-.2-3.3.1-3.3,2.2-.2,1.3,2,2.6,3.2,2.8,2.6.9-2.8-2.9-35.2-4.7-40.9-3-9.2-3.4-4.7-.8,8.8,1.3,6.5,1.9,12.7,1.5,13.9-.9,2.5-16.7,9.1-16,6.7.3-.9,2.8-3,5.5-4.7,4.9-3,4.9-3.1-.2-3-5,0-5.1-.5-2-10.3,1.8-5.7,5.2-12.9,7.6-16.1ZM449.5,210.7c2.2-1.9,2.7-1.7,2.9,1.1.1,1.9-1.1,3-2.8,2.5s-3-1-2.9-1.1c0,0,1.3-1.2,2.8-2.5ZM495.6,107.2c7.3-8.4,22.7-16.8,45.8-25.2,18.2-6.6,28-5,39.9,6.4,8.3,8,7.8,12.5-1.8,17.2-11.3,5.5-11.8,17-1,25,5.2,3.9,17.6-3.4,18.4-10.9,1.6-14.8,22.6-13.2,34.3,2.7,10.6,14.2,25.7,59.1,29.5,87.9,1.8,13.3,1.8,13.5-4.6,20.3-7.7,8.2-12.7,8.1-19.2-.4-8.3-10.8-18-11.7-25.2-2.4-3.5,4.6-3.6,6.2-.4,12.2,4,7.5,6.9,9,16.2,8.4,6.6-.4,13,3.1,10.1,5.6-1,.9-.2,2,1.6,2.6,1.9.6,3.6,3.8,3.8,7.2.7,11-12.7,20.7-24,17.2-3.9-1.2-3.3-1.9,5.1-5.7,9.8-4.4,12.6-8.4,10.7-15.3-.8-3-1.8-3.4-4.5-2-6.3,3.3-21.1-2.9-26.5-11.1l-4.8-7.4-4.5,3.5c-3.9,3-5.1,2.9-9.3-.8-4.4-3.9-4.5-5.5-1.4-15.6,3.7-12.2.9-34.5-7.1-56.4-5.9-16.2-11.4-21.3-25.4-23.9l-11.6-2.2-8.9-16.9c-10.1-19-15-22-24.8-15.3-5,3.5-6.7,6.4-7.6,12.7-.9,6.4-2,8.3-5.1,8.5-5,.4-5.4-.5-4.7-10.3.4-5.9,2.3-10,7.1-15.5ZM485.4,138.3c2.2.1,8,1.2,12.7,2.5,4.8,1.3,11.4,2.6,14.7,2.9,7.4.7,13.3,12.7,12.8,26.2-.2,5.8,1.8,11.8,5.5,17,3.2,4.4,6.4,11.3,7.1,15.2,2.6,14-1.6,17.8-16.5,15-6-1.2-13.9-2.4-17.5-2.8-4.3-.4-6.9-1.9-7.5-4.1-.8-2.8-1.2-2.7-2.1,0-.6,2-4.3,3.7-8.5,3.8-6.8.3-7.2,0-5-3.6,1.3-2.2,1.7-4.2.8-4.4-2.6-.8-1.5-20,1.4-26.8,1.4-3.3,3.5-5.8,4.7-5.4,1.1.3,3.6,6.9,5.5,14.6,1.9,7.7,3.8,13,4.2,11.7.4-1.2-.9-8-2.9-15-2-7-3.2-14.4-2.7-16.5.4-2.1-1.9-9.4-5.3-16.2-3.3-6.8-5.9-12.8-5.7-13.4.2-.6,2.1-1,4.4-.9ZM498.8,148.2c2.3,4,7.9,11.8,12.4,17.3,9,11,12.1,9.4,7.1-3.7-2.2-5.9-2.2-6.6.1-3.2,1.7,2.4,3.5,9,4.1,14.5.6,5.6,2,11.1,3,12.2,1,1.2,1.5,3.3,1,4.7-.5,1.4-1.6.5-2.6-2.1-2.8-7.7-4.2-6.2-9.1,9.6s-5.5,14.8-6.7,14.4-1.4-3.1-.5-6.2c1.2-3.8-.9-10.7-6.4-21.7-4.9-9.7-6.9-16.2-5.2-16.2,2.1,0,2.2-3.6.3-12.2-3.3-15.2-2.9-16.3,2.4-7.3ZM540.4,93.7c5.5-4.1,21.3-8.9,25.1-7.8s4.9,3,6.7,5.4c3.2,4.3,3.2,4.4-2,6.2-6.9,2.5-11.5,17-9.7,31,.7,5.7.7,10.7,0,11.1-.7.4-4.5.4-8.3,0-6.5-.6-7.2-1.7-11.3-16.9-5.1-18.9-5.2-25.5-.5-29ZM532.6,146.3c2.2.7,7.4,6.8,11.6,13.5,7.4,11.9,8.9,11.2,3.1-1.4-3.3-7.2-3-7.5,6.9-6.6,6.9.6,8.1,1.9,16,16.9,9.4,18,16.1,47.2,11.3,49.8-1.6.8-7.5.3-13.2-1.3-5.7-1.5-13.7-3-17.8-3.4-6.2-.5-7.3-1.2-6.3-4.3,1.6-5.2-3.9-28.9-10.8-46.7-6.4-16.6-6.5-18.3-.8-16.6ZM501.4,244.9c.5.1,1,1.9,1.1,4,.1,2.1-.5,2.9-1.5,1.8-1.7-1.9-1.4-6.3.4-5.8ZM526.7,202.9c.1,1.7-.5,3.6-1.4,4.1s-1.1-.9-.3-3.2c.9-2.5,1.5-2.8,1.7-.9ZM531.5,234.3c4.2.3,8,1.3,8.5,2.1,1.1,2.1-10.5,1.4-13.6-.9-1.4-1,.9-1.5,5.1-1.2ZM522.9,256.5c3.7-6.6,11.9-12.8,13.4-10.1s-7.2,12.9-12.7,17.9c-4.9,4.6-5.3.3-.7-7.8ZM543.4,218.1c4.3-.8,10-.3,29.8,3,9.1,1.5,9.5,1.9,7.5,6.3-2.1,4.4-3.2,4.4-22.2-.9-11-3.1-19.9-6-19.8-6.5.2-.5,2.3-1.4,4.7-1.8ZM525.5,268.2c2.5-4.1,6.5-3.5,5.2.8-.5,1.6-2.5,3.1-4.5,3.2-2,.1-3.4,0-3.2-.1.2-.2,1.4-2,2.5-3.9ZM541.5,254.1c3.4-1.8,9.2,1.2,11.1,5.6,1.6,3.8.7,4.8-6.1,7.5-4.4,1.7-8.7,2.9-9.6,2.7-2-.6,2.1-14.4,4.6-15.8ZM550.9,244.2c10.2-1.3,15.8,4.5,14.4,15-1.4,11-6.6,17.8-15,19.4-8.7,1.7-8.9,3.8-1.1,10.9,6.3,5.7,7,5.9,15.8,4.2,5.1-1,10.8-3.7,12.8-6,2-2.3,4.2-4,4.9-3.8,1.2.4,3.3,11.6,2.7,13.8-.6,1.8-24,4.9-31.5,4.1-6.6-.7-8.2-2-11.8-9.4-5.1-10.4-3.7-16.7,4-17.2,3.1-.2,7.6-2.9,9.9-6.1,5.3-7.2,3.2-15-5.5-20.3l-6.1-3.7,6.4-.8ZM588.6,141.9c6.5-3.2,8.5-5.6,11-13.8,3.6-11.7,7.1-12.7,18.2-5.4,7.6,5,15.8,20.3,15.4,28.6-.3,6.6-6.9,11.8-23.1,18l-15.1,5.8-7.5-14.7c-4.1-8.1-7.3-14.7-7.2-14.7.2,0,3.9-1.8,8.3-3.9ZM602.2,184.4c7.8-3.1,29.5-5.4,35-3.7,10.3,3.1,16.8,23.7,12.2,38.8-2.6,8.4-5.7,8.9-12.7,2.1-6.7-6.5-15.8-8.1-26.5-4.5-7.6,2.6-9.9,1.2-8.1-4.7.6-2,.2-8.8-.9-15.2-1.4-8.2-1.2-11.9,1-12.8ZM620.1,232.2c4.9-2.6,6.6-1.3,3.9,3.2-2.5,4.1-5.6,4.4-6.5.7-.3-1.2.9-2.9,2.7-3.9ZM673.9,201.3c4.5,1.4,4.6,1.7,1.2,6.1-3.2,4.1-5.7,2.9-5.5-2.7.1-3.4,1.2-4.3,4.3-3.4ZM672.2,213.7c.8.9,3.4-1.1,5.8-4.4,3.5-4.7,4.9-5.3,6.6-2.7,1.2,1.8,3.1,2.8,4.2,2.2,1.1-.6.8.4-.6,2.2-1.4,1.8-3.8,2.9-5.4,2.4-3.4-1-7.5,2.1-6.1,4.7s2.4.7,4.1-.7c2.4-1.9,2.5-1.5.4,1.8-1.5,2.4-1.8,5.3-.6,6.6,1.3,1.5,1.8,1.3,1.3-.5-.5-1.9.3-2.1,2.1-.7,1.7,1.3,1.9,3.5.5,5.4-1.7,2.4-1.1,2.4,2.4,0,2.6-1.8,5.2-4.7,5.8-6.5.9-2.9.7-2.9-2-.6-2.7,2.3-2.9,2.1-2-.9.6-1.9,3.1-4.3,5.6-5.3,2.5-1,3.5-.9,2.3.2-1.2,1.1-.9,3.1.8,4.3,4.1,3.2,4.7,3.2,5.5.6.4-1.3-.5-2-1.9-1.6-1.4.4-2.3-.2-2-1.3.3-1.1,5.4-.6,11.3.9,5.9,1.6,14.3,2.5,18.6,2.1l7.9-.8-6.5-3.6c-4.5-2.5-5.9-4.7-4.7-7,2.9-5.4,13.7-4.6,23.8,1.7,11.2,7,26.1,11.6,37.8,11.7,9.5,0,13-2.7,6.1-4.8-4.7-1.4-8.2-8.3-5.5-10.7,2.8-2.5,18.1-4.3,23.2-2.7,6.5,2,3.9,8-10,22.5-23.6,24.7-36.3,28.9-76.5,25.3-37.1-3.3-45.4-5.1-45.8-9.8-.1-2.1-1.8-3.7-3.7-3.6-1.9.1-3.5-1.4-3.6-3.4-.3-4-5-3.7-6.2.3-.5,1.6.5,1.6,2.5,0,2.5-2,2.6-1.6.4,1.9-2.6,4.1-2.3,4.4,3.3,4,4-.3,5.9.3,5.5,1.7-.4,1.2-1.5,1.8-2.6,1.5-1.1-.3-3.6-.5-5.6-.4-2.2.2-4-1.8-4.7-5.1-.9-4.3.3-6.7,5.9-12.4,4.7-4.7,5.9-7,3.7-6.8-1.8.1-3.1-1.8-3-4.6.1-2.6.8-4.1,1.6-3.2ZM674.3,226.7c1.3-.7,8.4,5.2,13.8,11.3.4.5-.6,1.6-2.2,2.5-2.1,1.1-4.6,0-8.6-3.9-5.5-5.3-6.3-8.1-3-9.8ZM672.9,259.7c1.8.6,2.7,5.2,2.2,11.8-.9,12.9-2.2,14.6-4,4.9-2.2-12.3-1.6-17.7,1.7-16.7ZM690.4,212.3c5.6-4.1,4.5-.6-1.7,5.2-2.7,2.6-4.3,3.1-3.7,1.2.5-1.8,3-4.7,5.4-6.4ZM694.3,226.3c2.6-2.2,2.9-2.1,2,1.1-.6,2-2.2,3.9-3.6,4.3-3.2.8-2.4-2,1.6-5.4ZM689.8,241.4c1.3.4,1.4,1.5.3,2.4-1.1,1-2.4,1.6-2.9,1.5-.5-.2-.7-1.3-.3-2.4.4-1.2,1.7-1.8,2.9-1.5ZM696.2,234.3c3.6-2.5,5.1-2.8,4.5-.7-.5,1.7-3.1,3.7-5.7,4.4-5.8,1.5-5.7,1.2,1.2-3.7ZM706.6,224.2c1.4-.4,2.2.4,1.9,1.6-.4,1.3-1.7,2-2.8,1.6-1.2-.4-2-1.1-1.9-1.6.2-.5,1.4-1.2,2.8-1.6ZM706.3,238.4c3.4-.2,3.6,0,.8,1.6-1.9,1-3.8,1.2-4.3.3-.5-.9,1.1-1.7,3.5-1.9ZM714.6,229c1.4-.4,2.1.8,1.5,2.7s-2,3.1-3.2,2.7-1.9-1.6-1.5-2.7c.3-1.1,1.8-2.3,3.2-2.7ZM740.6,262.1c6.2.3,11.6,1,11.9,1.6,1.2,2.3-13.7,2.5-18.4.2-3.6-1.7-1.9-2.2,6.5-1.8ZM758.8,260.1c5.2,1.6,34.9-17.5,46.7-30,11.6-12.3,13.5-15.5,17.9-30,2.7-8.9,6.8-26.8,9-39.7,2.9-16.6,5.4-25.4,8.6-30.3,2.5-3.8,5.8-9.2,7.4-12.1,4.9-9.1,12.5-12.5,23.4-10.6,10,1.7,9.9,5.5-.2,4.3-6.4-.8-9.4,7.6-7.9,21.6q1.6,14.8-4.5,6.6l-5.1-6.9-5.9,4c-5,3.4-6.5,6.4-9.9,20.5-2.2,9.1-4.2,21.2-4.4,27-.2,5.8-2.2,17.3-4.6,25.6-5,17.6-12.4,26.5-31.8,37.8-13.1,7.7-42.2,17.6-41.1,14,.4-1.2,1.5-2,2.5-1.7ZM796.6,253.4c10.4-4.2,26.3-17.7,32.5-27.7,2.9-4.6,6.1-8.1,7.2-7.8s1.8-.9,1.7-2.8c-.2-2.4,2.8-3.2,10.3-2.8,8.6.4,13.3,2.1,25.3,8.9,12.2,6.9,16.8,8.5,26.2,9.1,6.2.4,13.5-.1,16.2-1.1,4.4-1.6,4.2-2-2.8-4.2-10.2-3.2-15.4-10-10.3-13.3,6.1-4,16.7-4,27.5.1,10.1,3.8,10.2,4,18.9,27.5,4.8,13,8.1,24.2,7.3,24.9-.8.7-4.3,1.1-7.8.8-7.1-.5-29.8-1.3-86.7-3-37.3-1.1-72-3.5-72.6-5-.2-.4,3-2.1,7.1-3.7ZM851.4,140.1c3.7-1.6,4.7-.9,6.9,4.4,1.4,3.4,1.8,8.5,1,11.2-.8,2.7-1.4,6.7-1.2,8.8.2,2.8-1.8,3.9-7.1,4.1-4.1.2-7.7,1.2-8,2.2-.3,1.1-1.6,1.6-2.7,1.3-1.2-.4-.2-7,2.4-15.4,3.4-11,5.6-15.2,8.9-16.6ZM873.3,115.8c10.8-5,19.5,1.2,23.9,17.1,2.4,8.6,5.9,14.2,12.8,20.6,13,12,12.3,18.8-2,18.2-5.5-.2-13.5-.4-17.7-.4-5.4,0-9.6-1.3-14.2-4.6-6.7-4.7-7-6.4-8-44.9,0-2,2.2-4.7,5.1-6.1ZM927.6,163.6c1.3.4,3.3,3.2,4.6,6.2,1.2,3,4,6.4,6.3,7.4,2.2,1.1,5.8,7.4,7.9,14.2,2.1,6.8,8.8,25.8,14.8,42.2,6,16.4,10.4,31.5,9.8,33.4-.6,1.9.2,3.9,1.8,4.4,1.6.5,5.5,3.4,8.8,6.5,12.1,11.5,26,18.2,58.3,28.1,29,8.9,32.8,9.6,40.9,7.5,10.1-2.6,24.6-17.1,27.9-27.8,1.1-3.7,5.3-9.3,9.2-12.5,5.8-4.7,9.9-5.7,21.6-5.3,10.8.4,14.3,1.1,13.7,3.1-.4,1.4-2.1,3.3-3.6,4.1s-7.5,9.9-13.3,20.2c-5.8,10.3-12,20.2-13.7,21.9-2.8,2.8-26.2,5.9-31.7,4.3-1-.3-7.2,1.4-13.7,3.8-19.7,7.3-21.7,7.3-41.4-.3-23.1-8.9-57.7-34.1-63.5-46.3-2.1-4.4-4.7-8.7-5.8-9.6-3-2.3-13.3-31.3-18.5-51.5-3-11.7-8.2-23.6-14.6-33.5-9.2-14.1-11.6-22.4-5.8-20.7ZM971,222.8c1.6,0,5.8.2,9.3.5,7.2.6,9.7-3.1,3.4-5-7.4-2.3-5.8-6.5,2.7-7.3,5.5-.5,19.2,2.2,40.6,8.2,24.7,6.9,34.7,8.7,42.6,7.9,12.5-1.3,14.1-4.1,4-7.2-5-1.5-7.2-3.3-6.6-5.3,1.7-5.6,9.1-6.3,27.5-2.7,23,4.6,32.4,4.3,30.2-.8-3.4-8.1,14.9-8.6,39.2-1.2,12.9,3.9,21.7,5.3,31.7,4.7,17.4-1,21.2-2.6,12.2-5.4s-7.6-7,3.1-9.7c6-1.5,13.7-.7,28,2.7,16.8,4.1,19.8,4.3,20.2,1.1.6-4.5,15.3-5.7,32-2.7,13.7,2.5,38.8,1,38.7-2.3,0-1.3-1.2-2.8-2.6-3.2-5-1.5-1.7-5.3,6.5-7.2,7.5-1.8,9.5-1.3,19.8,4.3,6.3,3.4,14.8,7.2,18.9,8.5,8.5,2.5,25.1.9,31-3,3.6-2.4,3.3-2.9-3.6-5-9.5-2.9-10.5-6-3.1-9.4,4.7-2.2,9.9-1.5,29.3,3.7,20.3,5.5,24.5,7.3,30.4,13.2,3.8,3.7,12.7,11,19.8,16.2l13,9.4-9.5,2.5c-40.2,10.3-163.2,24.6-274.8,31.8-53.3,3.4-170,7-200,6.1-26.9-.8-29-2.2-34.4-23.2-4.2-16.3-4-20.1.6-20.1ZM995.8,272.5c21.1-1.2,100.7-3.2,102.8-2.6,3.9,1.2,3.4,9.2-1,18.1-6.3,12.7-8.6,13.5-13.6,4.8-6-10.2-18.2-13.7-45.3-12.9-20.4.6-47.2-2.7-46.3-5.7.2-.8,1.8-1.5,3.4-1.6ZM1028.5,284.3c10.4-1,24.2-1.3,30.7-.9,10.3.8,12.6,1.7,18.8,7.5,3.8,3.6,7,7.8,7,9.4,0,1.5-4.8,3.8-10.8,4.9-9.5,1.8-13.6,1.2-33.3-5.1-12.4-4-24.5-8.8-26.9-10.6-3.9-3-2.2-3.6,14.5-5.1ZM1216,151.9c6.4-8.7,23.2-19.2,35.3-22.1,5.9-1.4,17.4-1.9,25.5-1.2,12.2,1.1,36-2.8,37-6s-3.9-.4-8.9.2c-23.9,2.6-25,2.1-7.2-3,6.8-1.9,17.9-7.1,24.7-11.5,11.3-7.3,21-10.2,22.8-6.7s-3.2,3.6-8,6.5c-4.8,2.8-13.6,10.3-19.6,16.7-6,6.3-12.9,12.2-15.3,13-2.4.8-8.4,4.5-13.3,8.2-10.2,7.6-21.6,13.2-25.2,12.2-1.3-.4-8.4.1-15.6,1.1-7.2.9-18.8,2.1-25.8,2.7-13.6,1-14,.3-6.4-10ZM1297.7,146.3c6.9-3.9,16.1-10.2,20.4-14.1,14.4-13.1,23.9-17.8,37.4-18.6,7.2-.4,16.6.3,20.9,1.6,8.3,2.5,34.7,19.1,37,23.2.8,1.5-7.7,3.7-20.5,5.5-40.1,5.5-106.4,12.2-107.1,10.9s5-4.5,11.9-8.3ZM1461.8,239.3l37.6-6.7-4.1,8.7c-2.2,4.8-4.8,10.3-5.6,12.2-.9,1.9-2,3.2-2.6,2.8s-4.5.4-8.7,1.6c-6.2,1.9-11.9,1.1-31-4.3-12.9-3.6-23.3-6.8-23.2-7.1,0-.3,17.1-3.5,37.7-7.2ZM1462.7,174.3c2.8-.5,12.9.5,22.5,2.2,10,1.8,22.5,2.4,29.2,1.4,11.4-1.8,11.6-1.9,6.1-4.7-3.1-1.6-5.7-4.1-5.7-5.5-.1-4.4,12.9-4.2,29.2.3,17.1,4.7,21.1,4.1,16.4-2.5-3.1-4.4-3.1-4.5,2.2-6.6,8.5-3.4,20.4-4.1,28.2-1.7,10.9,3.3,29.4,2.7,38.5-1.2l8.1-3.5-7.4-.8c-11.2-1.2-12.4-4.5-3.4-9.6,7.2-4,9.2-4,22.4,0,9.2,2.8,17.8,4,23.3,3.2,9.3-1.4,13.1-5.1,5.1-5-6.9,0-4.8-3,5.5-8.4,6.7-3.4,13.7-4.4,26.5-3.8,24.8,1.3,34.3-1.3,26.7-7.2-7-5.4,3.6-13.1,17.5-12.8,4.5.1,12.4-1.1,17.6-2.7l9.5-2.9,9.8,10.2,9.8,10.2-11.4,7.4c-11.3,7.4-34.2,19.1-60.4,31-19.3,8.8-54.8,19.7-96,29.7-19.6,4.7-39.3,9.9-43.9,11.5-7.9,2.8-8.7,2.7-15-2.6-13.3-11-20.5-10.7-45.5,1.7-11.2,5.6-34,8.1-44.4,4.9s-8.1-4.2-11.6-7.3c-5-4.6-5.6-6.2-2.9-7.9,2.7-1.8,2.4-2.5-1.3-3.6-5.6-1.7-11.9-7.6-11.1-10.4.3-1.1,2.9-2.4,5.7-3ZM1502,118.5c6.8-3.3,13.8-5.5,15.6-4.9,1.8.5,5.3-.8,7.8-2.9,3.8-3.2,4.7-5.7,4.9-13.7.4-12.1,5.1-19,15.2-22.7l7.3-2.6,5.5,9.8c3,5.4,7,14.9,8.8,21.2,3.1,10.8,6,11.7,4,1.2-.8-3.8-.3-4.6,2.4-3.8,1.9.6,3.6,3.5,4,6.5.6,5.4.6,5.4,1.7,0,.8-4.1-.5-6.7-5.1-9.9-6.8-4.8-15.9-19.2-14.7-23.3.4-1.4,5.7-4.9,11.8-7.7,14-6.6,21.9-4.5,27.6,7,6.5,13.3,22.2,21.3,39.7,20.5,4.9-.2,17.6-3.6,28.2-7.6,16.3-6.1,59.1-13.4,60.7-10.4s-31.1,10.6-62.1,18.2c-14.2,3.5-30.5,7.8-36.2,9.6-5.7,1.8-19.4,5-30.4,7.2-11,2.2-27.6,5.7-37,7.9-9.3,2.1-29.7,5.7-45.4,8-31,4.5-35,2.4-14.3-7.5ZM1493.3,210.6c16.2,1.3,23.2,0,40.1-7.8,16.1-7.4,19.2-8,26.8-5.4l8.6,2.9-9.1-1c-7.2-.8-12.5,1.1-26.3,9.3l-17.3,10.2-15-3c-15-3-19.7-6.1-7.8-5.2ZM1501.6,218.5c6.8-.5,9.8.8,6.2,2.8-1.7.9-4.8.7-6.8-.4-3.6-2-3.6-2,.7-2.4ZM1577.6,51.1c4.9-2.5,11.4-3.5,16.8-2.6,8.4,1.4,9.1,2.1,14.6,15.2,3.2,7.6,5.2,13.6,4.3,13.3-2.5-.8-15.4-14.9-14.9-16.4.2-.8-1.7-3.3-4.2-5.5-4.2-3.7-5.8-3.6-15.6,1-12.7,5.9-13.6,1.3-1-5.1ZM1524.8,226.8c6.4-2.5,15.2-3.6,13-1.6-1.2,1.1-5.5,2.5-9.5,3.3-7.6,1.4-9.3.6-3.4-1.7ZM1538,209.2c4.1-3.2,10-6.4,13.1-7.1,6.7-1.4,14.9.6,15.8,3.8.7,2.7-10.7,6.4-15.4,5-1.8-.6-3.5-.3-3.8.7-.6,1.9-15.8,6-16.6,4.5-.3-.5,2.9-3.6,6.9-6.8ZM1596.9,209.6c3.4-.2,3.6,0,.8,1.6-1.9,1-3.8,1.2-4.3.3s1.1-1.7,3.5-1.9ZM1683,70.8c12.8-6.4,23.8-7.7,38.1-4.7l12.4,2.7-25.5,3c-14,1.7-27.1,3.7-29.1,4.6-7.8,3.2-4.5-1.3,4-5.5ZM1684.7,186.9c38.4-11.5,66-23.1,101.2-42.2,17.3-9.4,32.6-16.7,34.1-16.2,1.5.5-5.6,4.8-15.7,9.6-21,10-25.6,14.3-44.5,41.3-22.7,32.4-34.2,40.8-52.5,37.9-10.3-1.6-11.2-2.3-16.1-11l-5.1-9.3-13.9-.5c-7.7-.3-13.8-.8-13.7-1.1.1-.4,11.9-4.2,26.3-8.5ZM1800.7,43.5c12.3-7,29.3-12.4,30.8-9.7s-8.1,4.7-18.8,9.1c-30.2,12.5-33.1,12.7-12,.6ZM1785,98.9c.9.3,5.7,4.4,10.6,9.1,12.1,11.6,19.6,13.6,31.5,8.2,10.4-4.7,11-4.4,4.8,2.7-2.3,2.6-8.1,5-13.6,5.4-9.1.8-9.8.5-18.6-7.9-9.9-9.4-17.4-18.3-14.7-17.5ZM1805.3,87.9c7-4.1,17.4-11.8,23-17.1,5.6-5.3,10.8-8.9,11.6-8,.8.9,2.8-1,4.5-4.1,3-5.5,20-17.1,21.4-14.6s-3.7,8.7-9.1,17.9c-5.4,9.1-9.5,17.1-9.2,17.7.3.6,4.4-5.2,8.9-12.9,4.6-7.7,9-13.3,9.8-12.4.8.9,2.9-1.1,4.8-4.4,1.9-3.3,4.2-5.8,5.2-5.5,1,.3-1.4,5.6-5.2,11.9-7.3,11.9-22,26.8-25.3,25.8-1.1-.3-2.4.9-3,2.7-.6,1.8-6.5,8.4-13.3,14.6-10.9,10.1-13,11.1-18.7,9.2-9.6-3.2-18.1-8.4-18.2-11,0-1.3,5.7-5.7,12.8-9.8ZM1835.9,68.6c4-4.8,2.3.9-2.3,7.5-2.7,3.9-3.1,4-2.1.5.7-2.4,2.7-6,4.4-8.1ZM1876.3,52.2c1.9-2.3,3.9-4.1,4.6-3.9,2.1.6.1,3.8-4.4,7-5,3.7-5.1,2.9-.2-3.1Z"/>
  <path class="cls-3" d="M796.6,253.4c10.4-4.2,26.3-17.7,32.5-27.7,2.9-4.6,6.1-8.1,7.2-7.8s1.8-.9,1.7-2.8c-.2-2.4,2.8-3.2,10.3-2.8,8.6.4,13.3,2.1,25.3,8.9,12.2,6.9,16.8,8.5,26.2,9.1,6.2.4,13.5-.1,16.2-1.1,4.4-1.6,4.2-2-2.8-4.2-10.2-3.2-15.4-10-10.3-13.3,6.1-4,16.7-4,27.5.1,10.1,3.8,10.2,4,18.9,27.5,4.8,13,8.1,24.2,7.3,24.9-.8.7-4.3,1.1-7.8.8-7.1-.5-29.8-1.3-86.7-3-37.3-1.1-72-3.5-72.6-5-.2-.4,3-2.1,7.1-3.7Z"/>
  <path class="cls-4" d="M672.2,213.7c.8.9,3.4-1.1,5.8-4.4,3.5-4.7,4.9-5.3,6.6-2.7,1.2,1.8,3.1,2.8,4.2,2.2,1.1-.6.8.4-.6,2.2-1.4,1.8-3.8,2.9-5.4,2.4-3.4-1-7.5,2.1-6.1,4.7s2.4.7,4.1-.7c2.4-1.9,2.5-1.5.4,1.8-1.5,2.4-1.8,5.3-.6,6.6,1.3,1.5,1.8,1.3,1.3-.5-.5-1.9.3-2.1,2.1-.7,1.7,1.3,1.9,3.5.5,5.4-1.7,2.4-1.1,2.4,2.4,0,2.6-1.8,5.2-4.7,5.8-6.5.9-2.9.7-2.9-2-.6-2.7,2.3-2.9,2.1-2-.9.6-1.9,3.1-4.3,5.6-5.3,2.5-1,3.5-.9,2.3.2-1.2,1.1-.9,3.1.8,4.3,4.1,3.2,4.7,3.2,5.5.6.4-1.3-.5-2-1.9-1.6-1.4.4-2.3-.2-2-1.3.3-1.1,5.4-.6,11.3.9,5.9,1.6,14.3,2.5,18.6,2.1l7.9-.8-6.5-3.6c-4.5-2.5-5.9-4.7-4.7-7,2.9-5.4,13.7-4.6,23.8,1.7,11.2,7,26.1,11.6,37.8,11.7,9.5,0,13-2.7,6.1-4.8-4.7-1.4-8.2-8.3-5.5-10.7,2.8-2.5,18.1-4.3,23.2-2.7,6.5,2,3.9,8-10,22.5-23.6,24.7-36.3,28.9-76.5,25.3-37.1-3.3-45.4-5.1-45.8-9.8-.1-2.1-1.8-3.7-3.7-3.6-1.9.1-3.5-1.4-3.6-3.4-.3-4-5-3.7-6.2.3-.5,1.6.5,1.6,2.5,0,2.5-2,2.6-1.6.4,1.9-2.6,4.1-2.3,4.4,3.3,4,4-.3,5.9.3,5.5,1.7-.4,1.2-1.5,1.8-2.6,1.5-1.1-.3-3.6-.5-5.6-.4-2.2.2-4-1.8-4.7-5.1-.9-4.3.3-6.7,5.9-12.4,4.7-4.7,5.9-7,3.7-6.8-1.8.1-3.1-1.8-3-4.6.1-2.6.8-4.1,1.6-3.2ZM688.2,238c-5.4-6.2-12.6-12-13.8-11.3-3.3,1.8-2.5,4.5,3,9.8,4,3.9,6.5,5,8.6,3.9,1.7-.9,2.7-2,2.2-2.5ZM696.2,227.4c.9-3.1.7-3.3-2-1.1-4,3.4-4.9,6.2-1.6,5.4,1.4-.4,3-2.3,3.6-4.3ZM690.1,243.8c1.1-1,1-2.1-.3-2.4-1.3-.4-2.6.3-2.9,1.5-.4,1.2-.2,2.3.3,2.4.5.2,1.8-.5,2.9-1.5ZM700.7,233.6c.6-2.1-.9-1.8-4.5.7-6.8,4.9-7,5.2-1.2,3.7,2.6-.7,5.1-2.7,5.7-4.4ZM708.5,225.8c.4-1.3-.5-2-1.9-1.6-1.4.4-2.7,1.1-2.8,1.6-.2.5.7,1.2,1.9,1.6,1.2.4,2.5-.4,2.8-1.6ZM707.2,239.9c2.8-1.5,2.6-1.8-.8-1.6-2.4.2-3.9,1-3.5,1.9.5.9,2.4.7,4.3-.3ZM716.1,231.7c.6-1.8-.1-3-1.5-2.7-1.4.4-2.8,1.6-3.2,2.7-.3,1.1.3,2.3,1.5,2.7s2.6-.9,3.2-2.7Z"/>
  <path class="cls-4" d="M495.6,107.2c7.3-8.4,22.7-16.8,45.8-25.2,18.2-6.6,28-5,39.9,6.4,8.3,8,7.8,12.5-1.8,17.2-11.3,5.5-11.8,17-1,25,5.2,3.9,17.6-3.4,18.4-10.9,1.6-14.8,22.6-13.2,34.3,2.7,10.6,14.2,25.7,59.1,29.5,87.9,1.8,13.3,1.8,13.5-4.6,20.3-7.7,8.2-12.7,8.1-19.2-.4-8.3-10.8-18-11.7-25.2-2.4-3.5,4.6-3.6,6.2-.4,12.2,4,7.5,6.9,9,16.2,8.4,6.6-.4,13,3.1,10.1,5.6-1,.9-.2,2,1.6,2.6,1.9.6,3.6,3.8,3.8,7.2.7,11-12.7,20.7-24,17.2-3.9-1.2-3.3-1.9,5.1-5.7,9.8-4.4,12.6-8.4,10.7-15.3-.8-3-1.8-3.4-4.5-2-6.3,3.3-21.1-2.9-26.5-11.1l-4.8-7.4-4.5,3.5c-3.9,3-5.1,2.9-9.3-.8-4.4-3.9-4.5-5.5-1.4-15.6,3.7-12.2.9-34.5-7.1-56.4-5.9-16.2-11.4-21.3-25.4-23.9l-11.6-2.2-8.9-16.9c-10.1-19-15-22-24.8-15.3-5,3.5-6.7,6.4-7.6,12.7-.9,6.4-2,8.3-5.1,8.5-5,.4-5.4-.5-4.7-10.3.4-5.9,2.3-10,7.1-15.5ZM565.5,85.9c-3.8-1.2-19.5,3.7-25.1,7.8-4.8,3.5-4.7,10.1.5,29,4.1,15.3,4.8,16.3,11.3,16.9,3.8.4,7.5.4,8.3,0,.7-.4.7-5.4,0-11.1-1.8-14,2.7-28.5,9.7-31,5.2-1.8,5.2-1.9,2-6.2-1.8-2.4-4.8-4.8-6.7-5.4ZM599.6,128.1c-2.5,8.1-4.4,10.6-11,13.8-4.4,2.1-8.1,3.9-8.3,3.9-.2,0,3.1,6.7,7.2,14.7l7.5,14.7,15.1-5.8c16.2-6.3,22.8-11.4,23.1-18,.3-8.3-7.9-23.5-15.4-28.6-11.1-7.4-14.6-6.3-18.2,5.4ZM637.2,180.7c-5.5-1.7-27.2.6-35,3.7-2.1.8-2.4,4.5-1,12.8,1.1,6.4,1.5,13.2.9,15.2-1.8,6,.4,7.3,8.1,4.7,10.7-3.6,19.8-2,26.5,4.5,7,6.8,10.1,6.3,12.7-2.1,4.6-15-1.9-35.6-12.2-38.8Z"/>
  <path class="cls-3" d="M445.1,115.1c6.2-4.8,8.2-8.3,12.2-21.2,4.2-13.6,5.8-16.3,13.4-22.1,17.4-13.2,31.2-16.1,38-8.2,1.9,2.3,1,2.8-4.3,2.5-10.5-.6-25.6,4.3-32.5,10.5-5.3,4.7-7.1,8.6-11.1,24.6-2.7,10.5-4.5,20.2-4.2,21.7s0,2.4-1.1,2.1-5.6-.7-10.4-1.1c-10-.7-10-1.3,0-9Z"/>
  <path class="cls-3" d="M532.6,146.3c2.2.7,7.4,6.8,11.6,13.5,7.4,11.9,8.9,11.2,3.1-1.4-3.3-7.2-3-7.5,6.9-6.6,6.9.6,8.1,1.9,16,16.9,9.4,18,16.1,47.2,11.3,49.8-1.6.8-7.5.3-13.2-1.3-5.7-1.5-13.7-3-17.8-3.4-6.2-.5-7.3-1.2-6.3-4.3,1.6-5.2-3.9-28.9-10.8-46.7-6.4-16.6-6.5-18.3-.8-16.6Z"/>
  <path class="cls-4" d="M485.4,138.3c2.2.1,8,1.2,12.7,2.5,4.8,1.3,11.4,2.6,14.7,2.9,7.4.7,13.3,12.7,12.8,26.2-.2,5.8,1.8,11.8,5.5,17,3.2,4.4,6.4,11.3,7.1,15.2,2.6,14-1.6,17.8-16.5,15-6-1.2-13.9-2.4-17.5-2.8-4.3-.4-6.9-1.9-7.5-4.1-.8-2.8-1.2-2.7-2.1,0-.6,2-4.3,3.7-8.5,3.8-6.8.3-7.2,0-5-3.6,1.3-2.2,1.7-4.2.8-4.4-2.6-.8-1.5-20,1.4-26.8,1.4-3.3,3.5-5.8,4.7-5.4,1.1.3,3.6,6.9,5.5,14.6,1.9,7.7,3.8,13,4.2,11.7.4-1.2-.9-8-2.9-15-2-7-3.2-14.4-2.7-16.5.4-2.1-1.9-9.4-5.3-16.2-3.3-6.8-5.9-12.8-5.7-13.4.2-.6,2.1-1,4.4-.9ZM511.2,165.4c-4.5-5.5-10-13.3-12.4-17.3-5.3-9.1-5.7-8-2.4,7.3,1.9,8.6,1.8,12.1-.3,12.2-1.8,0,.3,6.6,5.2,16.2,5.5,11,7.6,17.9,6.4,21.7-.9,3-.7,5.8.5,6.2s4.1-5.8,6.7-14.4c4.8-15.7,6.2-17.2,9.1-9.6.9,2.6,2.1,3.5,2.6,2.1.5-1.4,0-3.5-1-4.7-1-1.2-2.4-6.7-3-12.2-.6-5.6-2.5-12.1-4.1-14.5-2.3-3.4-2.3-2.6-.1,3.2,5,13.2,1.9,14.8-7.1,3.7ZM525.2,206.9c.9-.5,1.6-2.3,1.4-4.1-.2-1.9-.8-1.6-1.7.9-.8,2.2-.7,3.7.3,3.2Z"/>
  <path class="cls-3" d="M455.4,170.9c5.9-8,5.9-8,11.1,1.2,8.2,14.5,11.9,29.5,9.3,37.9-1.3,4.3-3.1,7-3.9,6-.8-1-3.2-.7-5.2.6-4.7,3.1-6.9,2.3-7.2-2.6-.2-3.3.1-3.3,2.2-.2,1.3,2,2.6,3.2,2.8,2.6.9-2.8-2.9-35.2-4.7-40.9-3-9.2-3.4-4.7-.8,8.8,1.3,6.5,1.9,12.7,1.5,13.9-.9,2.5-16.7,9.1-16,6.7.3-.9,2.8-3,5.5-4.7,4.9-3,4.9-3.1-.2-3-5,0-5.1-.5-2-10.3,1.8-5.7,5.2-12.9,7.6-16.1Z"/>
  <path class="cls-3" d="M439.3,127.3c8.5,2.6,9,3.3,12.8,18.2,2.2,8.5,3.2,15.8,2.4,16.3-1.9,1-12.1-13.5-19-27.2l-5.1-10,8.9,2.7Z"/>
  <path class="cls-3" d="M456,134.4c5.1,5.1,8.2,13.4,8.1,21.2-.2,11.3-3.7,7.9-8.1-7.9-4.5-15.9-4.5-17.8,0-13.3Z"/>
  <path class="cls-3" d="M467.8,134.1c9.1,3.4,10.4,4.9,15.7,17.9,7.4,18.2,6.3,22.1-2.2,7.7-3.6-6.2-10.5-14.8-15.3-19.3-4.8-4.4-8.6-8.5-8.4-9.1.2-.6,4.8.7,10.2,2.7Z"/>
  <path class="cls-4" d="M420.4,121.5c7.6,2.3,9.1,3.8,11.1,11,1.6,5.9,1.2,10.6-1.2,16.1-1.9,4.3-2.7,8.6-1.8,9.6.9,1,4.7,9.1,8.4,18,4.7,11.1,6.2,17.9,4.8,21.8q-2,5.7-1.8,0v-5.7c.1,0-6.5,4.6-6.5,4.6l-6.6,4.6,1.4-5.2c.8-2.8.5-4.1-.5-2.8-1,1.3-3.9-9.6-6.4-24.2-4.3-25.6-4.5-35-.4-20.9,1.1,3.7,2.6,6.4,3.3,6,.8-.4-1.7-8.6-5.5-18.2l-6.9-17.5,8.8,2.7ZM427,183.5c.9-.5.7-2.4-.3-4.3-1.5-2.8-1.8-2.6-1.6.8.2,2.4,1,3.9,1.9,3.5Z"/>
  <path class="cls-3" d="M1462.7,174.3c2.8-.5,12.9.5,22.5,2.2,10,1.8,22.5,2.4,29.2,1.4,11.4-1.8,11.6-1.9,6.1-4.7-3.1-1.6-5.7-4.1-5.7-5.5-.1-4.4,12.9-4.2,29.2.3,17.1,4.7,21.1,4.1,16.4-2.5-3.1-4.4-3.1-4.5,2.2-6.6,8.5-3.4,20.4-4.1,28.2-1.7,10.9,3.3,29.4,2.7,38.5-1.2l8.1-3.5-7.4-.8c-11.2-1.2-12.4-4.5-3.4-9.6,7.2-4,9.2-4,22.4,0,9.2,2.8,17.8,4,23.3,3.2,9.3-1.4,13.1-5.1,5.1-5-6.9,0-4.8-3,5.5-8.4,6.7-3.4,13.7-4.4,26.5-3.8,24.8,1.3,34.3-1.3,26.7-7.2-7-5.4,3.6-13.1,17.5-12.8,4.5.1,12.4-1.1,17.6-2.7l9.5-2.9,9.8,10.2,9.8,10.2-11.4,7.4c-11.3,7.4-34.2,19.1-60.4,31-19.3,8.8-54.8,19.7-96,29.7-19.6,4.7-39.3,9.9-43.9,11.5-7.9,2.8-8.7,2.7-15-2.6-13.3-11-20.5-10.7-45.5,1.7-11.2,5.6-34,8.1-44.4,4.9s-8.1-4.2-11.6-7.3c-5-4.6-5.6-6.2-2.9-7.9,2.7-1.8,2.4-2.5-1.3-3.6-5.6-1.7-11.9-7.6-11.1-10.4.3-1.1,2.9-2.4,5.7-3Z"/>
  <path class="cls-3" d="M971,222.8c1.6,0,5.8.2,9.3.5,7.2.6,9.7-3.1,3.4-5-7.4-2.3-5.8-6.5,2.7-7.3,5.5-.5,19.2,2.2,40.6,8.2,24.7,6.9,34.7,8.7,42.6,7.9,12.5-1.3,14.1-4.1,4-7.2-5-1.5-7.2-3.3-6.6-5.3,1.7-5.6,9.1-6.3,27.5-2.7,23,4.6,32.4,4.3,30.2-.8-3.4-8.1,14.9-8.6,39.2-1.2,12.9,3.9,21.7,5.3,31.7,4.7,17.4-1,21.2-2.6,12.2-5.4s-7.6-7,3.1-9.7c6-1.5,13.7-.7,28,2.7,16.8,4.1,19.8,4.3,20.2,1.1.6-4.5,15.3-5.7,32-2.7,13.7,2.5,38.8,1,38.7-2.3,0-1.3-1.2-2.8-2.6-3.2-5-1.5-1.7-5.3,6.5-7.2,7.5-1.8,9.5-1.3,19.8,4.3,6.3,3.4,14.8,7.2,18.9,8.5,8.5,2.5,25.1.9,31-3,3.6-2.4,3.3-2.9-3.6-5-9.5-2.9-10.5-6-3.1-9.4,4.7-2.2,9.9-1.5,29.3,3.7,20.3,5.5,24.5,7.3,30.4,13.2,3.8,3.7,12.7,11,19.8,16.2l13,9.4-9.5,2.5c-40.2,10.3-163.2,24.6-274.8,31.8-53.3,3.4-170,7-200,6.1-26.9-.8-29-2.2-34.4-23.2-4.2-16.3-4-20.1.6-20.1Z"/>
  <path class="cls-4" d="M1805.3,87.9c7-4.1,17.4-11.8,23-17.1,5.6-5.3,10.8-8.9,11.6-8,.8.9,2.8-1,4.5-4.1,3-5.5,20-17.1,21.4-14.6s-3.7,8.7-9.1,17.9c-5.4,9.1-9.5,17.1-9.2,17.7.3.6,4.4-5.2,8.9-12.9,4.6-7.7,9-13.3,9.8-12.4.8.9,2.9-1.1,4.8-4.4,1.9-3.3,4.2-5.8,5.2-5.5,1,.3-1.4,5.6-5.2,11.9-7.3,11.9-22,26.8-25.3,25.8-1.1-.3-2.4.9-3,2.7-.6,1.8-6.5,8.4-13.3,14.6-10.9,10.1-13,11.1-18.7,9.2-9.6-3.2-18.1-8.4-18.2-11,0-1.3,5.7-5.7,12.8-9.8ZM1833.6,76.2c4.6-6.6,6.3-12.3,2.3-7.5-1.7,2.1-3.7,5.7-4.4,8.1-1,3.5-.6,3.4,2.1-.5Z"/>
  <path class="cls-2" d="M1538,209.2c4.1-3.2,10-6.4,13.1-7.1,6.7-1.4,14.9.6,15.8,3.8.7,2.7-10.7,6.4-15.4,5-1.8-.6-3.5-.3-3.8.7-.6,1.9-15.8,6-16.6,4.5-.3-.5,2.9-3.6,6.9-6.8Z"/>
  <path class="cls-2" d="M1493.3,210.6c16.2,1.3,23.2,0,40.1-7.8,16.1-7.4,19.2-8,26.8-5.4l8.6,2.9-9.1-1c-7.2-.8-12.5,1.1-26.3,9.3l-17.3,10.2-15-3c-15-3-19.7-6.1-7.8-5.2Z"/>
  <path class="cls-2" d="M1501.6,218.5c6.8-.5,9.8.8,6.2,2.8-1.7.9-4.8.7-6.8-.4-3.6-2-3.6-2,.7-2.4Z"/>
  <path class="cls-4" d="M318.5,95.8c6.3,1.7,27.1,7,46.3,11.9,19.2,4.9,36.8,9.4,39.2,10.1,3.3.9,5.5,7.7,9.4,28.6,7.6,40.7,7.5,47-1.2,60.3l-7.1,10.8-15.9-3.5c-8.7-1.9-32.7-7.1-53.3-11.5-20.6-4.4-37.7-8.6-38.1-9.2-.4-.7,1.4-3,4-5.2,15.3-13,16.2-19.8,8.8-65.9-2.4-14.9-4.2-27.7-4-28.4.2-.6,5.5.2,11.8,1.8ZM326.2,174.2c2.3,0,1.2-.8-2.3-1.9-3.5-1.1-5.4-1.2-4.1-.2,1.3,1,4.2,2,6.4,2.1Z"/>
  <path class="cls-3" d="M438.7,215.3c2.9-3.6,3-3.6,4.1,1.8,1,4.9.6,5.4-3.3,4.2-2.4-.7-4.2-1.6-4.1-1.8.2-.3,1.6-2.2,3.3-4.2Z"/>
  <path class="cls-3" d="M425.7,213.8c1.1,1.2,3.8.9,6.1-.8,2.3-1.7,3.8-2.1,3.4-.9s-3,3.3-5.8,4.6c-4.7,2.2-5.2,2.1-5.4-1.4-.2-2.5.4-3,1.7-1.6Z"/>
  <path class="cls-3" d="M449.5,210.7c2.2-1.9,2.7-1.7,2.9,1.1.1,1.9-1.1,3-2.8,2.5s-3-1-2.9-1.1c0,0,1.3-1.2,2.8-2.5Z"/>
  <path class="cls-3" d="M543.4,218.1c4.3-.8,10-.3,29.8,3,9.1,1.5,9.5,1.9,7.5,6.3-2.1,4.4-3.2,4.4-22.2-.9-11-3.1-19.9-6-19.8-6.5.2-.5,2.3-1.4,4.7-1.8Z"/>
  <path class="cls-3" d="M550.9,244.2c10.2-1.3,15.8,4.5,14.4,15-1.4,11-6.6,17.8-15,19.4-8.7,1.7-8.9,3.8-1.1,10.9,6.3,5.7,7,5.9,15.8,4.2,5.1-1,10.8-3.7,12.8-6,2-2.3,4.2-4,4.9-3.8,1.2.4,3.3,11.6,2.7,13.8-.6,1.8-24,4.9-31.5,4.1-6.6-.7-8.2-2-11.8-9.4-5.1-10.4-3.7-16.7,4-17.2,3.1-.2,7.6-2.9,9.9-6.1,5.3-7.2,3.2-15-5.5-20.3l-6.1-3.7,6.4-.8Z"/>
  <path class="cls-3" d="M522.9,256.5c3.7-6.6,11.9-12.8,13.4-10.1s-7.2,12.9-12.7,17.9c-4.9,4.6-5.3.3-.7-7.8Z"/>
  <path class="cls-3" d="M525.5,268.2c2.5-4.1,6.5-3.5,5.2.8-.5,1.6-2.5,3.1-4.5,3.2-2,.1-3.4,0-3.2-.1.2-.2,1.4-2,2.5-3.9Z"/>
  <path class="cls-3" d="M673.9,201.3c4.5,1.4,4.6,1.7,1.2,6.1-3.2,4.1-5.7,2.9-5.5-2.7.1-3.4,1.2-4.3,4.3-3.4Z"/>
  <path class="cls-2" d="M690.4,212.3c5.6-4.1,4.5-.6-1.7,5.2-2.7,2.6-4.3,3.1-3.7,1.2.5-1.8,3-4.7,5.4-6.4Z"/>
</svg>