<svg id="e8THUoSqlQe1" xmlns="http://www.w3.org/2000/svg" xmlns:xlink="http://www.w3.org/1999/xlink" viewBox="0 0 1600 85" shape-rendering="geometricPrecision" text-rendering="geometricPrecision"><path d="M1600,85C1066.66,85,533.33,85,0,85c0-8.19,0-16.37,0-24.55.42-.01.85-.02,1.28-.03c6.29-.16,12.55-.02,18.8.11c6.93.15,13.84.3,20.78.06c5.05-.18,9.58-.66,13.49-2.54c3.13-1.51,6.97-1.96,11.08-2.19c3.94-.28,7.82-.77,11.59-1.46c4.61-.76,9.18-1.6,13.75-2.43.01-.01.02-.01.03-.01c0,0,0,0,0,0c.43.15.86.3,1.29.45c1.5-.45,2.99-.89,4.48-1.31c1.68.85,3.54.92,5.37.94c4.24-2.96,9.08-3.6,13.92-4.24c1.66.12,3.21.5,4.54,1.42c4.27-.28,8.26-1.42,11.59-4.4c1.77-.66,3.67-1.03,5.47-.6c3.27-.69,6.55-1.76,9.01-4.53c1-.69,2.8-.91,4.24-.94c1.42-.08,2.83-.17,4.25-.26c1.63.11,3.26.21,4.89.2c7.47-.32,14.93-.71,22.39-.76c8.29-.03,16.58.15,24.87.34c3.78.09,7.57.19,11.35.26c1.91.03,3.82.03,5.73.02c2.57-.02,4.92.36,7.36.92c3.69.59,6.83-.3,10.23-1.58c2.88-1.5,6.1-2.41,9.32-3.29c2.66.2,5.36-.23,8.05-.7c5.39-1.96,10.94-1.88,16.49-1.78c2.18.04,4.35.13,6.52.13c1.89.01,3.77-.13,5.66-.29c2.68-.08,5.36-.17,8.05-.25c5.86-.23,11.72-.51,17.58-.58c6.53-.15,13.07-.1,19.58.03c6.9.46,13.79,1.01,20.67,1.55.49-.04.98-.08,1.46-.12c2.19.08,4.38.14,6.57.21c2.04.16,4.07.33,6.1.5.98-.08,1.95-.16,2.93-.23c5.77.09,11.54.2,17.31.27c8.83.52,17.66,1.08,26.46,1.67c3.21,1.12,6.56,1.26,9.86,1.12c8.28-2.89,17-3.75,25.84-4.74c6.38-.95,12.81-1.28,19.25-1.2c1.96.13,3.9-.42,5.87-1.03c1.11-.39,2.24-.78,3.38-1.02.37-.1.74-.2,1.12-.31.61.17,1.24.35,1.83.28c3.35-.69,6.77-1.17,10.04-.64c7.87,1.11,15.77.66,23.58-.76c11.06-2.11,22.1-1.54,33.16-.14c1.93.2,3.88.24,5.82.29c1.45.02,2.89.05,4.32.1c3.93.15,7.25.76,9.8,2.74c1.19.89,2.73,1.61,4.52,2.11c1.79.49,3.76.74,5.75.72c1.05-.04,2.1-.02,3.13.07c13.28,1.91,26.85,2.23,40.42,2.54c3.94.09,7.88.19,11.82.32c2.61.06,5.22-.05,7.78-.33c11.29-1.17,22.72-1.83,34.2-1.97c4.88-.04,9.64-.42,13.71-2.32c1.14-.52,2.7-.77,4.24-1.02.5-.08,1.01-.16,1.49-.25s1-.13,1.52-.17c.72-.05,1.44-.1,2.01-.29c5.25-1.79,10.89-1.62,16.56-1.46.92.03,1.83.06,2.75.08c7.82.16,15.67.27,23.46.37c1.85.03,3.69.05,5.54.08c0,0,0,0,0,0s0,0,0,0c1.81-.05,3.6-.1,5.4-.1c6.43.19,12.84.44,19.25.61c2.47-.1,4.92-.36,7.34-.8c1.17-.03,2.34-.11,3.51-.25c4.28-.11,8.57-.24,12.87-.19c10.07-.54,20.14-1.07,30.22-1.54c1.81-.08,3.64.02,5.46.13.22-.01.43-.03.65-.04c1.55.01,3.09.02,4.64.01c2.73.12,5.46.22,8.18.33c2.35-.09,4.69-.18,7.03-.32c8.98.21,17.95.34,26.92.6c4.86.28,9.7.79,14.54,1.31.38-.04.76-.08,1.15-.12c4.59-.49,9.18-.99,13.77-1.51c1.64.08,3.28.05,4.92.03c14.62,1.55,29.23,3.15,43.84,4.79c1.55.11,3.06.53,4.58.97.13-.05.27-.11.4-.17.74.1,1.48.19,2.24.33c1.69-.02,3.38.02,5.06.07c1.36.23,2.72.47,4.11.48c4.31.49,8.63.92,12.95,1.36c2.85.18,5.69.36,8.52.43c2.98-.42,6-.46,9.01-.41c2.61.21,5.2.41,7.75.98c6.62,1.69,13.35,2.09,20.09,2.2c1.07.02,2.15.04,3.23.06c0,0,0,0,0,0s0,0,.01,0c2.44-.05,4.89-.09,7.32.1c1.65.13,3.3.4,4.94.68c7.79.14,15.59.28,23.33-.33c5.26-.41,10.49-1.28,15.73-2.16c1.06.18,2.11.36,3.18.49c4.37-.47,8.74-1.04,13.11-1.57c4.79-.36,9.59-.49,14.36-.34c8.7-.02,17.39.12,26.09.72c12.05.94,24.08,1.67,36.17.9c3.08-.22,6.09.27,9.11.76c2.68-.03,5.33-.24,7.98-.49c5.88.63,11.61,1.78,17.35,2.95c2.85.56,5.7,1.13,8.57,1.65c1.35.34,2.72.6,4.09.87.99-.2,1.98-.39,2.92-.85c3.74.38,7.51.87,11.14,2.3c3.06.62,6.22.92,9.41.88c5.37.25,10.76.46,16.14.64c5.61.41,11.22.76,16.82,1.2c2.52.09,5.02.34,7.52.65c3.7.25,7.29.33,10.79-.47c5.54.36,10.77,1.34,15.69,4.41c1.21.36,2.56.5,3.79.35c1.5.44,3.03.9,4.12,2.31.19.13.41.24.67.33c1.14.26,2.17-.05,3.21-.41c3.44-.76,6.51.17,9.59,1.16c1.64.4,3.29.84,4.98,1.15c1.78.29,3.59.48,5.4.55c2.6.07,5.19.1,7.78.04c3.65.09,7.29.08,10.9.35c1.98.06,3.92.47,5.87.95c1.91.4,3.83.88,5.78,1.12c2.16.33,4.35.39,6.55.42c2.27-.06,4.53-.17,6.78-.21c3.51.35,7,.83,10.49,1.34.57.01,1.17,0,1.65-.15c1.71-.56,3.4-.34,4.77.65c3.08,2.48,5.98,2.07,9.15.53c4.76-1.87,9.69-1.8,14.71-1.29c8.29,1.8,16.72,1.91,25.14,2.01.61,0,1.23.03,1.83.1c2.57.94,5.24,1.12,7.91,1.02c6.73-2.88,13.81-3.7,20.98-3.94c2.32.6,4.68.41,7.02.06c4.43-1.95,9.02-1.9,13.67-1.85.21,0,.41,0,.62,0c2.23,0,4.21-.6,6.13-1.53c5.3-.24,9.89,1.56,14.27,4.49c3.52.63,7.23.94,10.97.97c9.04.45,18.08.94,27.11,1.26c4.29.01,8.55-.1,12.74-.36c1.81.55,3.66.19,5.4-.57c2.6-2.22,5.56-2.59,8.78-2.52.86.01,1.72,0,2.59-.03.65,2.91,1.31,5.81,1.95,8.75c0,5.85,0,11.69,0,17.54" transform="matrix(-1 0 0-1 1600 85.159431)" fill="#fff"/></svg>
