<svg id="e07BnDEIZtX1" xmlns="http://www.w3.org/2000/svg" xmlns:xlink="http://www.w3.org/1999/xlink" viewBox="0 0 1643 1500" shape-rendering="geometricPrecision" text-rendering="geometricPrecision"><path d="M306.014344,1233.564427l473.344489,172.125269q218.418593-51.726346,346.641166-14.973033c-23.368-71.154813-75.401911-136.236717-113.868683-210.694073c212.981029,108.284788,405.747251,161.16255,535.210152,270.443138c216.02304,182.34664,294.233812,421.98449,277.720831,607.103694-13.067429,146.492753-106.292524,341.877211-233.503333,425.818909-258.428161,170.527165-667.635305,119.486725-903.664529-66.773241-352.214197-277.946108-194.636583-830.927793-194.636583-830.927793-40.656318-262.702363-108.185421-259.797002-187.24351-352.12287Z" transform="translate(-233.211241-1133.707706)" fill="#00fcc7" stroke="#a3ffea" stroke-width="37"/><path d="M-325.916812,-37.854356c0-113.028175,40.624192-214.20029,40.624192-214.20029s563.180711,485.142389,563.180711,485.142389-44.545359,90.982515-241.880284,90.982515-361.924619-164.589689-361.924619-361.924614Z" transform="matrix(.846823 0 0 0.846823 660.919821 985.682114)" fill="#fff" stroke-width="0"/><path d="M-125.439241,163.889042c-68.236365-100.681468-116.842945-444.327284-97.95941-441.049709c178.001119,30.895276,554.672968,521.904381,554.672968,521.904381s-6.21615,102.866406-171.94014,102.866406-216.537053-83.039609-284.773418-183.721078Z" transform="matrix(-.694831-.067376-.066908 0.690012 1372.514574 1063.833435)" fill="#fff" stroke-width="0"/></svg>
