<?xml version="1.0" encoding="UTF-8"?>
<svg id="Layer_1" data-name="Layer 1" xmlns="http://www.w3.org/2000/svg" version="1.1" viewBox="0 0 574.5 322.5">
  <defs>
    <style>
      .cls-1 {
        fill: gray;
      }

      .cls-1, .cls-2 {
        stroke-width: 0px;
      }

      .cls-2 {
        fill: gray;
      }
    </style>
  </defs>
  <path class="cls-1" d="M46.08,59.19"/>
  <g id="ENERGY">
    <path class="cls-2" d="M.42,0c8.91,0,17.82.04,26.73,0,1.47,0,2.47.33,3.43,1.15,6.81,5.86,13.78,11.62,21.17,17.07,7.88,5.82,15.91,11.53,23.83,17.32,3.71,2.71,7.29,5.52,10.96,8.26,3.51,2.63,7.05,5.24,10.61,7.85.59.43,1.3.77,2.15,1.27,2.46-2.34,5.86-2.9,9.35-3.02,1.17,2.56,2.31,5.03,3.43,7.51,1.54,3.41,4.24,6.23,7.67,8.71,2.37,1.71,4.65,3.5,7,5.23.71.52.55,1.09.54,1.74-.04,2.15.05,4.3.13,6.44.03.73.54,1.1,1.46,1.51,3.96,1.77,7.8,3.7,11.68,5.59,3.58,1.75,7.1,3.55,10.72,5.25,2.89,1.36,6.13,2.01,9.5,2.31,2.91.26,5.83.52,8.74.83,3.28.34,6.4-.36,9.57-.72,1.59-.18,3.18-.5,4.76-.49,4.34.04,8.7.02,12.99.42,2.65.25,5.2,1.16,7.75,1.88,5.41,1.51,10.34,3.7,15.13,6.24-.3.83-.66,1.62-.86,2.43-.32,1.29-.79,2.59-.76,3.88.06,2.41-.74,4.67-1.64,6.94-.63,1.6-1.09,3.24-1.69,4.84-.75,1.99,2.23,4.77,5.39,4,2.19-.53,4-.11,5.61.97,1.51,1.01,3.03,2.03,4.43,3.12,2.32,1.82,4.62,3.65,6.79,5.57.91.81,1.86,1.36,3.26,1.51.45.05.87.26,1.37.41,2.45-1.36,4.89-2.74,7.37-4.08,2.9-1.56,5.93-2.93,9.47-3.58,1.99-.37,2.25-.81,2.17-2.36-.19-4.1.14-8.17,1.21-12.2.63-2.34.94-4.75,1.8-7.04,1.09-2.89,1.58-5.9,3.89-8.56,1.46-1.67,3.11-2,5.39-1.91,2.01.08,4.05.23,6.04.08,2.74-.21,3.87-1.14,4.37-3.21.84-3.51.5-7-.61-10.45-.42-1.32-.86-2.64-1.28-3.97-.37-1.17.64-2.22,2.24-2.28,1.18-.05,2.36,0,3.85,0-.08-.89-.21-1.81-.25-2.72-.08-2.1-.11-4.19-.16-6.29-.01-.53.04-1.06-.09-1.57-.38-1.52-.45-1.51,1.2-3.21,1.34.09,2.66.28,3.68,1.11,2.65,2.15,6.23,2.52,9.79,2.58,3.35.06,6.7-.26,10.05-.42.27-.01.54-.1.82-.11.66-.03,1.48.13,1.95-.11.5-.26.67-.88.98-1.35,2.3-3.48,4.69-6.93,6.87-10.45,2.93-4.75,5.67-9.57,8.53-14.35,2-3.34,4.13-6.63,6.07-9.99,2.88-5,5.6-10.05,8.47-15.06,2.57-4.49,5.27-8.94,7.85-13.42.42-.72.9-1.08,2-1.07,11.08.02,22.17.01,33.45.01-.33,1.29-1.25,2.27-2.12,3.27-.38.44-.79.86-1.1,1.33-.97,1.44-1.75,2.96-2.87,4.33-1.34,1.65-2.25,3.45-3.58,5.09-.88,1.08-1.96,2.06-2.84,3.14-1.14,1.4-1.78,2.99-3.09,4.34-1.38,1.43-1.9,3.25-3.6,4.55-.28.21-.41.54-.55.84-1.04,2.2-2.92,4.05-4.37,6.08-1.43,2.01-3.22,3.86-4.45,5.99-1.14,1.96-2.94,3.69-4.43,5.53-.53.66-1.04,1.34-1.51,2.02-2.4,3.47-4.78,6.95-7.17,10.43-1.92,1.13-1.74,3.29-3.79,4.35.08.83-1.06,1.19-1.33,1.88-.14.36-.2.73-.35,1.33,5.21-.82,10.06-1.59,14.91-2.35,1.58-.24,3.16-.5,4.75-.64,2.93-.26,5.76-.77,8.57-1.46,2.57-.63,5.32-.84,7.98-1.26,1.71-.27,3.42-.57,5.11-.89.38-.07.71-.28,1.14-.45-.99-3.34-2.23-6.5-5.43-9.06-1.83-1.47-3.04-3.21-2.37-5.61,1.69-.39,3.54-.83,5.39-1.24,2.14-.48,4.31-.9,6.43-1.43.68-.17,1.39-.5,1.85-.91,1.46-1.27,2.72-2.68,4.23-3.92,4-3.27,6.77-7.06,8.89-11.16,1.44-2.79,2.59-5.68,5.02-8.12,4.55-4.57,7.86-9.69,11.57-14.63.8-1.07,1.72-1.43,3.33-1.4,4.63.08,9.26.03,13.89.03.6,0,1.2.05,2.26.09-1.54,1.55-2.76,2.94-4.21,4.19-3.14,2.7-5.89,5.6-8.52,8.59-2.65,3.03-5.71,5.85-8.44,8.84-3.01,3.29-5.8,6.7-8.78,10.01-1.61,1.78-3.32,3.53-5.17,5.18-2.59,2.32-5.54,4.23-9.86,4.5-1,.06-1.95.57-2.94.81-2.46.59-4.94,1.15-7.41,1.73-.58.14-1.14.34-1.72.52-.05,1.11.41,1.98,1.17,2.74,3.2,3.2,5.94,6.61,8.47,10.13,1.02,1.42,2.52,2.65,3.83,3.94.51.5,1.12.91.71,1.67-.45.84-1.37.75-2.27.82-1.87.15-3.74.34-5.62.47-1.39.1-2.8.21-4.19.15-1.72-.07-3.37.11-4.93.61-2.33.75-4.72,1.2-7.27,1.39-2.27.17-4.48.76-6.74,1.07-2.61.37-5.27.55-7.85.97-6.83,1.11-13.64,2.34-20.47,3.46-1.19.2-1.85.72-2.35,1.42-1.66,2.32-3.15,4.71-4.95,6.97-1.23,1.54-1.8,3.41-3.83,4.57.19,1.19-1.72,1.71-1.6,2.88.01.14-.06.36-.2.44-1.64.88-1.8,2.43-2.89,3.58-1.3,1.38-2.17,2.98-3.22,4.49-.55.79-1.06,1.59-1.65,2.36-2,2.63-4.05,5.24-6.04,7.87-1.55,2.05-3.05,4.13-4.59,6.19-.38.5-.89.94-1.3,1.43-1.08,1.31-2.15,2.61-3.19,3.94-.62.79-1.14,1.61-1.75,2.4-1.4,1.82-2.83,3.64-4.25,5.45-.42.54-.94,1.03-1.33,1.58-.28.39-.42.84-.66,1.34,10.3,3.21,17.08,8.86,21.49,16.48.9-.62,1.79-1.12,2.51-1.73,2.8-2.35,6.17-4.12,9.77-5.67,2.03-.88,3.69-2.05,5.3-3.31,1.05-.83,2.25-1.59,3.53-2.2,1.49-.71,2.02-.56,3.16.43,2.91,2.54,6.21,4.65,10.46,5.87,3.44.99,6.82.85,10.7.1.84.55,1.89,1.3,3,1.98,2.39,1.46,4.86,2.85,7.7,3.8,1.24.41,2.03.12,2.78-.77,1.75-2.09,3.59-4.13,5.28-6.25,1.3-1.62,2.55-3.27,3.59-4.98,2.22-3.66,5.26-6.93,8.13-10.29,2.15-2.52,4.27-5.05,6.3-7.63,1.57-2,3.37-3.83,5.5-5.52,2.16-1.71,4.17-3.55,6.06-5.44,2.29-2.27,4.81-4.36,7.59-6.31,2.15-1.5,4.03-3.21,6.17-4.73,2.59-1.84,5.3-3.59,8.01-5.33,1.16-.75,2.41-1.44,3.72-2.03.87-.4,1.92-.8,2.89-.8,1.32,0,2.6.46,3.11,1.54,1.51,3.19,3.97,6,6.38,8.83.83.97,1.43,2.05,2.2,3.04.84,1.08,2.1,1.62,3.83,1.58,2.52-.05,5.05-.02,7.58,0,1.86,0,3.62.31,5.18,1.1,1.92.97,2.61,2.3,1.6,3.8-1.51,2.24-3.17,4.44-4.92,6.58-2.52,3.09-5.18,6.12-7.73,9.19-.42.5-.57,1.13-.89,1.78,4.28,1.26,5.44,3.94,6.18,6.78.46,1.76,1.53,3.03,3.82,3.83,3.01,1.05,6.03,1.93,9.39,2.08,1.42.07,2.63-.23,3.75-.82,4.39-2.32,7.85-5.22,9.83-9.02,1.36-2.62,3.2-5.01,5.89-7.01.97-.72,1.59-1.56,1.94-2.57.26-.75.65-1.55,1.31-2.13,3.48-3.1,4.97-6.88,6.7-10.59,1.52-3.25,1.86-6.66,2.47-10.04.62-3.43,1.54-6.83,2.32-10.25.26-1.14.44-2.28.69-3.42.19-.88.34-1.77.67-2.62.8-2.07,1.62-4.13,2.59-6.16.54-1.12,1.33-2.19,2.13-3.23.72-.94,1.88-1.52,3.24-1.91,4.83-1.38,9.7-2.71,14.47-4.2,8.78-2.74,17.5-5.6,26.26-8.38,5.67-1.8,11.36-3.54,17.05-5.31.45-.14.9-.26,1.53-.44v21.13c-1.49.32-3.04.62-4.56.98-7.4,1.76-14.76,3.63-22.2,5.27-4.8,1.06-9.12,2.92-13.78,4.2-5.12,1.4-10.04,3.23-15.43,4.07-.68.11-1.34.24-2.32.42-.72,2.1-1.49,4.28-2.21,6.46-1.03,3.11-2.05,6.22-3.05,9.33-.79,2.45-1.45,4.94-3.02,7.2-1.1,1.58-2.3,3.13-3.42,4.71-.29.41-.57.85-.66,1.31-.42,2.07-.8,4.15-1.12,6.23-.11.72-.02,1.47-.02,2.29-1.17.37-2.2.85-3.32,1.03-3.15.51-4.56,2.27-5.69,4.24-1.32,2.29-1.84,4.74-1.89,7.21-.02,1.17.65,2.35,1.03,3.51.22.66.49,1.31.78,2.05-4.67,2.08-9,4.6-14.29,5.82-.07.02-.14.02-.2.04-4.78,1.79-9.84,3-14.98,4.05-1.33.27-2.53.89-3.82,1.29-.83.26-1.7.52-2.59.59-1.53.12-2.38-.69-2.03-1.78.06-.2.22-.39.31-.58,1.68-3.62,2.35-7.36,2.08-11.17-.13-1.85-1.05-3.58-2.42-5.14-.42-.48-.93-.92-1.41-1.37q-1.38-1.32-3.67-1.51c-.1-.15-.34-.33-.34-.5.01-2.12-1.43-3.68-3.46-4.99-2.02-1.3-1.42-2.92-1.06-4.52.07-.3.27-.6.47-.87,1.63-2.09,2.46-4.43,3.66-6.66.57-1.06,1.22-2.09,1.96-3.34-2.24-.16-4.22-.37-6.21-.44-3.7-.14-7.25-.56-10.12-2.53-1.48-1.02-3.36-1.26-5.2-1.53-1.48-.21-1.93.05-2.52,1.12-.32.58-.54,1.27-1.11,1.67-1.15.81-1.06,1.75-.93,2.74.07.52.26,1.04.25,1.56-.03,1.39-.85,1.97-2.7,2.07-2.86.15-5.71.38-8.57.5-1.9.08-3.09.85-4.02,1.98-1.63,1.99-3.64,3.73-5.95,5.29-1.45.98-2.99,1.93-4.22,3.06-1.45,1.33-2.58,2.86-3.9,4.28-2.09,2.23-4.22,4.45-6.34,6.66-3.74,3.9-5.94,8.27-7.31,12.95-1.34,4.58-1.4,9.16-.88,13.78.07.64.1.64-1.23,1.29-2.92-2.15-6-4.22-8.76-6.51-2.17-1.8-4.55-3.26-7.55-4.13-3.04-.88-5.71-2.18-8.31-3.65-4.12-2.32-8.66-4.06-13.68-5.01-1.96-.37-3.93-.75-5.92-.95-.73-.07-1.64.25-2.3.59-3.47,1.78-6.9,3.58-10.29,5.44-2.54,1.39-5,2.86-7.31,4.19.16,2.9.42,5.65.44,8.39.02,2.48.18,4.99-1.05,7.38-.7,1.36-1.37,2.73-2.14,4.28,1.1.77,2.2,1.63,3.43,2.38,5.22,3.18,10.46,6.34,15.71,9.49,8.09,4.85,16.23,9.65,24.28,14.54,7.07,4.29,14.04,8.67,21.06,13.01,5.18,3.2,10.39,6.38,15.58,9.57,4.59,2.83,9.17,5.69,13.76,8.52,2.54,1.57,5.11,3.11,7.67,4.65.32.19.71.31,1.2.51.46-.88.99-1.67,1.3-2.5,1.23-3.37,2.34-6.77,3.6-10.14.73-1.97,1.51-3.94,2.51-5.84,1.19-2.29,2.62-4.51,3.97-6.75.99-1.64,2.68-2.56,5.07-2.92,2.88-.43,5.74-.94,8.71-.76,1.24.07,2.48.19,3.68.4,3.9.7,7.85.97,11.84.97,1.54,0,2.69-.47,3.73-1.45,1.15-1.09,2.72-1.94,4.23-2.78.45-.25,1.31-.21,1.94-.12,3.34.48,6.68.58,10.01.09,1.02-.15,2.06-.38,2.97-.73,2.23-.87,4.4-1.83,6.6-2.75.12-.05.3-.06.38-.13,3.39-2.77,8.29-4.33,10.9-7.72.23-.3.63-.53,1.03-.85.75.52.82,1.13.87,1.74.38,5.25-.84,10.19-4.2,14.9-2.85,3.99-4.56,8.35-5.04,12.92-.16,1.56-.09,1.62,1.83,2.22,3.93,1.22,7.14,3.03,9.34,5.84,1.71,2.18,4.36,3.6,7.41,4.65,1.13.39,2.15.98,3.14,1.55,1.03.59,1.92.57,3.07.12,5.81-2.3,9.31-5.94,11.18-10.57,1.4-3.47,2.77-6.94,4.13-10.41.36-.93.92-1.71,1.85-2.41.98-.74,1.65-1.69,2.52-2.51,2.75-2.58,5.48-5.19,8.33-7.71,1.35-1.19,2.97-2.21,4.44-3.33,1.75-1.35,3.46-2.72,5.19-4.08.24-.19.46-.4.73-.56,3.39-2.12,6.79-4.22,10.17-6.34,1.02-.64,1.98-1.33,3.03-1.93,2.32-1.34,4.69-2.63,7.28-4.08.11.57.22.9.22,1.23.01,3.53-.04,7.06.04,10.58.02.99-.45,1.62-1.55,2-4.44,1.53-7.89,4.16-12,6.07-.94.44-1.7,1.09-2.54,1.64-3.8,2.48-7.66,4.92-11.39,7.46-2.86,1.94-5.58,3.99-8.3,6.05-.56.42-.98,1.04-1.17,1.63-.9,2.76-1.94,5.48-3.49,8.08-.2.33-.35.69-.45,1.05-1.6,5.7-4.71,10.99-8.07,16.19-1.15,1.78-2.98,3.3-4.43,4.97-1.72,1.97-3.37,3.98-5.04,5.98-.11.13-.1.34-.24.43-.3.18-.69.45-.99.42-.28-.03-.63-.36-.73-.61-.14-.34-.08-.73-.08-1.1-.03-4.25-.03-8.49-.09-12.74,0-.66-.27-1.32-.44-2.15-2.5.13-4.87.14-7.18.41-4.4.51-5.43.04-5.81-3.3-.15-1.34-.66-2.56-1.35-3.76-1.63-2.83-4.99-3.88-8.65-4.39-1.88-.26-3.87-.08-5.81-.1-.41,0-.83-.05-1.45-.09-.11-.55-.32-1.1-.3-1.65.12-3.78.06-7.57,1.4-11.27.47-1.3.85-2.63,1.18-3.95.09-.35-.13-.75-.24-1.24-3.23.31-6.22.78-9.13,1.51-1.39.35-2.75.78-4.17,1.05-1.34.26-2.74.43-4.12.49-4.26.19-8.42.79-12.57,1.48-4.1.68-8.24,1.2-12.36,1.77-2.75.38-5.5.47-8.28.15-1.26-.15-1.7.15-2.05,1.16-.53,1.52-.97,3.07-1.51,4.59-.51,1.42-1.14,2.81-1.67,4.23-1.69,4.5-3.33,9-5.05,13.49-.3.78-.13,1.25.71,1.76,3.86,2.33,7.67,4.71,11.5,7.07,3.78,2.33,7.57,4.67,11.34,7.01,6.15,3.81,12.3,7.61,18.44,11.42,8.52,5.3,17.01,10.61,25.52,15.92,7.59,4.73,15.17,9.48,22.79,14.19,7.68,4.75,15.36,9.48,23.11,14.17,5.84,3.53,11.78,6.96,17.65,10.45,1.64.98,3.17,2.04,4.76,3.07h-53.04c-.57-.52-1.07-1.08-1.71-1.54-6.21-4.47-12.47-8.9-18.68-13.37-7.06-5.08-14.12-10.18-21.14-15.3-6.22-4.54-12.37-9.12-18.56-13.67-.64-.47-1.35-.87-2.14-1.38-2.63,1.01-5.21,1.94-7.71,2.97-1.92.79-3.06.81-4.76-.28-1.06-.68-2.05-1.43-3.02-2.19-3.15-2.46-6.26-4.93-8.51-7.96-2.23-3.01-5.54-5.39-8.82-7.77-1.36-.99-2.83-1.05-4.44-.52-1.59.53-3.12,1.1-4.16,2.24-.83.91-1.83,1.72-2.75,2.58-2.77,2.59-5.41,5.22-7.07,8.34-.51.97-1.17,1.91-1.86,2.81-1.17,1.54-2.35,3.09-3.66,4.56-.64.72-.59,1.36-.27,2.07.58,1.29,1.2,2.56,1.78,3.85,2.38,5.25,4.72,10.52,7.15,15.76,1.38,2.97,2.78,5.94,4.4,8.84,1.3,2.32,2.99,4.51,4.44,6.78.66,1.03,1.14,2.12,1.71,3.18h-11.79c-1.62-3.34-3.19-6.71-4.89-10.03-2.61-5.09-5.65-10.06-7.36-15.39-.25-.77-.62-1.52-1.08-2.62-.96,1.72-2.44,1.94-4.18,1.81-.53-.04-1.11.09-1.64.21-2.46.6-4.8.28-7.15-.4-1.62-.47-3.34-.75-5.01-1.13-1.99-.45-4.22-.23-6-1.22-1.42-.79-2.97-1.12-4.73-.94-1.85.18-3-.52-3.83-1.7-1.57-2.22-3.18-4.43-4.85-6.61-1.55-2.02-3.9-3.33-6.98-3.68-2.76-.32-5.55-.5-8.34-.61-5.32-.21-9.7-1.56-12.22-5.33-.93-1.39-2.41-1.95-4.43-1.91-1.47.03-2.93-.02-4.4-.02-1.23,0-1.96-.47-2.26-1.33-.12-.35-.23-.72-.27-1.08-.42-3.56-.76-7.12-1.26-10.66-.34-2.45-.62-4.92-1.82-7.26-.85-1.66-2.33-2.95-4.65-3.35-1.2-.21-2.01-.62-2.82-1.21-1.45-1.06-2.82-2.21-4.43-3.12-4.2-2.36-8.48-4.64-12.78-6.9-1.92-1-3.05-2.32-3.22-4.03-.13-1.31,0-2.63,0-3.94.02-1.73.04-3.46.05-5.18,0-.52-.12-1.05-.06-1.57.55-4.49,1.14-8.98,1.71-13.48.17-1.36.32-2.72.52-4.07.35-2.35.87-4.69,1.06-7.04.24-3.09.49-6.18,1.31-9.22.1-.37.01-.76.01-1.01-1.91,0-3.64-.05-5.37,0-4.71.15-9.2-.67-13.68-1.59-.42-.09-.92.04-1.49.08,0,.94,0,1.77,0,2.61.03,3.15.14,6.3.08,9.44-.03,1.62-.43,3.24-.52,4.86-.16,2.94-.18,5.88-.32,8.82-.08,1.62-.18,3.28-1.78,4.56-1.67,1.35-3.36,2.68-5.09,3.97-2.05,1.53-4.59,2.55-6.98,3.75-3.63,1.82-7.44,3.32-11.46,4.58-1.22.38-2.5.82-3.46,1.47-3.1,2.1-6.72,3.55-10.35,5.03-2.18.89-4.21,2-5.98,3.33.37.52.63.95.96,1.35,1.71,2.1,3.28,4.29,5.83,5.9,3.13,1.98,5.8,4.26,8.24,6.71.47.48.75,1.06,1.21,1.75-3.43.14-6.28.96-9.06,1.96-2.3.82-3.69,2.16-4.51,3.93-1.91,4.1-2.62,8.36-3.03,12.66-.26,2.67-1.84,3.99-5.4,4.28-1.52.12-3.08.13-4.56.39-2.65.47-5.28,1.02-7.85,1.68-4.03,1.04-8,2.24-12.22,2.8-2.45.32-3.87,1.42-4.71,3.15-.55,1.12-1.52,2.12-2.27,3.19-1.73,2.45-3.52,4.88-5.13,7.38-1.91,2.96-3.44,6.04-4.95,9.13-2.33,4.75-5.11,9.38-7.65,14.07-.49.91-.8,1.88-1.19,2.82h-33.68c1.68-2.12,3.26-4.28,5.06-6.35,2.3-2.64,4.88-5.13,7.11-7.8,1.91-2.28,3.97-4.44,6.29-6.49,2.58-2.27,4.99-4.65,7.45-7,3.18-3.03,6.23-6.15,9.52-9.11,2.41-2.16,4.49-4.43,5.7-7.09.71-1.56,2.17-2.44,4.18-2.78,1.28-.22,2.65-.34,3.95-.25,3.87.27,7.69-.18,11.53-.35,2.85-.12,5.72-.21,8.57-.14,2.08.05,4.17.27,6.2.6,2.48.4,4.03-.49,5.3-1.86.47-.5.84-1.11,1.01-1.71,1.14-4,2.3-8.01,3.28-12.03.46-1.87.9-3.7,2.03-5.42.32-.48.39-1.06.58-1.63-.53-.15-.84-.28-1.17-.32-2.17-.25-4.22-.78-6.06-1.67-2.11-1.01-4.16-2.09-6.38-3.22.03-.45-.01-.98.12-1.48.57-2.16,1.13-4.33,1.81-6.47.52-1.64,1.2-3.25,3.1-4.38-.24-.6-.54-1.14-.66-1.7-.23-1.02-.53-2.06-.47-3.09.09-1.71,1.1-2.63,3.34-2.95,1.91-.27,3.89-.23,5.83-.38.73-.06,1.57-.12,2.15-.41,3-1.48,6.28-2.52,9.56-3.58,2.17-.7,4.3-1.52,6.33-2.44,2.47-1.12,5.04-2.06,7.77-2.75,1.06-.27,2.09-.59,3.15-.86,1.18-.3,2.03-.86,2.77-1.6,1.97-2,3.24-4.27,4.46-6.56,1.43-2.68,2.94-5.32,3.51-8.21.94-4.78,1.98-9.55,2.98-14.32.39-1.83.37-1.97-2-2.71-2.17-.67-4.07-1.61-5.85-2.73-1.34-.84-2.79-1.59-4.13-2.44-2.44-1.55-4.93-3.09-6.7-5.13-.55-.63-1.4-.57-2.06-.38-1.85.53-3.64,1.17-5.44,1.78-1.65.56-3.25,1.19-4.93,1.69-1.61.48-3.34.73-4.93,1.25-2.77.9-5.49,1.89-8.19,2.9-2.01.76-4.32.88-6.23,1.88-1.16.61-2.62.91-3.98,1.3-2.65.77-5.34,1.46-7.98,2.26-2.29.69-4.58,1.41-6.77,2.26-1.71.66-3.63.81-5.32,1.63-1.17.58-2.74.83-4.11,1.31-2.33.82-4.83,1.35-7.17,2.24-2.48.94-5.12,1.63-7.71,2.41-2.33.7-4.76,1.23-6.99,2.08-2.54.97-5.2,1.61-7.87,2.27-.45.11-.87.31-1.29.48-.6.24-1.16.58-1.81.73-2.81.66-5.24,2.21-8.4,2.09-.17,0-.37.25-.54.39-.21.16-.37.4-.62.48-1.2.39-2.41.76-3.64,1.08-1.49.39-3.17.54-4.48,1.14-2.52,1.15-5.34,1.69-7.98,2.57-2.48.83-5.14,1.4-7.19,2.87-.84.61-1.21,1.17-1.09,2.06.17,1.25.28,2.53.11,3.78-.5,3.58-.03,7.13.42,10.69.29,2.25.64,4.49.91,6.73.23,1.88.38,3.77.56,5.65.1,1.08.17,2.16.26,3.21-1.84.68-3.5,1.32-5.2,1.91-1.2.42-2.52.67-3.65,1.17-3.38,1.49-6.62,3.17-10.07,4.57-2.97,1.2-5.08,2.92-6.74,5.05-.35.45-.69.92-1.1,1.34-2.06,2.13-4.14,4.24-6.22,6.36-.95.96-1.92,1.92-2.85,2.84-1.77-.18-3-.91-4.1-1.7-3.19-2.29-6.34-4.61-9.44-6.96-1.31-.99-1.79-1.09-3.44-.51-2.03.71-4.09,1.35-6.14,2.01-.96.31-1.99.53-2.9.92-5.17,2.19-10.86,3.38-16.48,4.63-3.86.86-7.91,1.3-11.9,1.8-6.76.85-13.53,1.61-20.3,2.4,0-.95,0-1.9,0-2.84.74-.11,1.52-.13,2.21-.33,2.02-.59,3.97-1.33,6.01-1.88,3.08-.83,6.22-1.55,9.34-2.32,2.72-.67,5.42-1.42,8.16-2.02,3.96-.87,7.97-1.59,11.92-2.46,1.52-.33,3.06-.75,4.42-1.35,3.01-1.32,5.94-2.76,8.86-4.21,1.1-.55,2.21-1.15,3.06-1.89,1.78-1.54,3.4-3.2,5.09-4.8.29-.27.63-.52,1.05-.85.64.46,1.18.86,1.73,1.25.66.47,1.24,1.05,2.01,1.37,4.32,1.81,7.71,4.33,10.53,7.34.32.35.89.57,1.25.79,1.58-1.1,2.89-2.13,4.36-3.01,2.98-1.8,6.32-3.2,9.13-5.23,2.24-1.62,5.04-2.83,7.7-4.09,1.88-.9,4.03-1.48,5.92-2.38,2.25-1.07,3.97-2.34,3.36-4.74-.45-1.78-.17-3.66-.22-5.49-.04-1.3-.06-2.61-.15-3.91-.1-1.52-.32-3.04-.41-4.56-.17-2.94-.29-5.88-.44-8.82,0-.14-.14-.27-.29-.56-1.05.3-2.14.5-3.05.91-1.72.78-3.98.54-5.48,1.7-.04.03-.14,0-.2.03-1.46.34-2.96.61-4.37,1.06-2.14.67-4.19,1.52-6.33,2.19-2.6.82-5.28,1.51-7.9,2.29-5.04,1.51-9.84,3.41-15.13,4.49-2.61.54-5.04,1.65-7.64,2.37-2.9.79-5.67,1.84-8.49,2.78-1.67.56-3.31,1.17-4.99,1.69-2.29.71-4.63,1.35-6.93,2.05-2.8.85-5.57,1.76-8.37,2.61-1.2.36-2.47.6-3.66.97-3.4,1.07-6.76,2.19-10.16,3.27-1.68.53-3.48.87-5.08,1.51-2.18.87-4.43,1.56-6.77,2.11v-55.28c.35,0,.7.04,1.04-.01,4.31-.63,8.62-1.29,12.93-1.92,6.79-1,13.57-2,20.37-2.97,5.63-.8,11.27-1.56,16.9-2.34,5.15-.72,10.3-1.45,15.46-2.15,5.36-.73,10.74-1.39,16.1-2.15,4.39-.62,8.75-1.41,13.16-1.94,1.46-.18,2.11-.62,2.73-1.55,1.41-2.09,3.43-3.85,6.23-4.94,3.51-1.36,6.64-3.09,9.63-5.01.81-.52,1.17-1.18,1.24-1.93.17-1.89.33-3.78.41-5.67.1-2.41.93-3,4.19-3.06,2.1-.04,4.19-.16,6.28-.31,2.85-.2,5.71-.41,8.55-.71,1.85-.2,3.71-.46,5.49-.87,2.73-.63,5.38-1.47,8.11-2.11,1.24-.29,2.67-.59,3.88-.4,3.46.53,6.86,1.3,10.28,1.98,2.76.55,5.48,1.23,8.38,1.19,1.39-.02,2.77-.14,4.16-.11,3.5.06,6.99.21,10.49.24,2.8.03,5.6-.15,8.39-.09,6.44.14,12.87.39,19.31.55,4.82.12,9.65.2,14.48.28.53,0,1.07-.08,1.3-.1.62-.95,1.09-1.69,1.57-2.43.27-.43.6-.84.78-1.29,1.18-2.97,2.43-5.92,3.45-8.92.74-2.2.46-4.41-1.45-6.26-1.41-1.36-3.06-2.59-4.71-3.8-2.19-1.6-4.93-2.23-7.91-1.89-3.73.43-7.2,1.57-10.69,2.6-.89.26-1.65.78-2.42,1.23-1.03.6-2.02,1.26-3.01,1.88-1.09-.36-1.89-.7-2.03-1.57-.33-2.04-.39-4.09.14-6.11.88-3.4,1.84-6.79,3.96-9.92.59-.88.88-1.88,1.34-2.81.24-.49.48-1,.83-1.45,2.14-2.77,1.82-5.75,1.39-8.73-.07-.49-.3-.87-1.06-1.04-3.16-.68-6.3-1.42-9.45-2.1-1.47-.32-3.08-.41-4.44-.89-2.19-.78-4.23-.77-6.48-.19-4.19,1.07-8.17,2.43-11.92,4.19-.45.21-1.24.25-1.74.11-1.63-.46-3.23-1-4.8-1.58-1.45-.53-2.82-1.17-4.27-1.69-3.47-1.24-6.96-2.45-10.47-3.64-7.33-2.49-14.62-5.03-22.02-7.4-4.16-1.33-7.72-3.09-10.35-5.9-.96-1.02-2.21-1.9-3.36-2.82-1.77-1.42-3.57-2.81-5.35-4.22-.96-.76-1.86-1.58-2.88-2.29-.67-.47-.98-.96-.95-1.65.06-1.1.07-2.21.02-3.31-.07-1.46-.47-2.81-2.54-3.49-1.21-.4-2.37-.89-3.53-1.36-.85-.34-1.39-.14-1.96.4-.97.9-2.01,1.75-3.09,2.57-.89.68-1.98.75-3.06.26-.83-.38-1.59-.84-2.4-1.25-6.25-3.19-12.74-6.08-19.26-8.95-5-2.2-9.93-4.53-14.66-7.04-4.56-2.41-8.83-5.15-13.25-7.71-6.09-3.53-12.16-7.07-18.33-10.52-8.02-4.48-16.13-8.88-24.22-13.3-1.57-.86-3.24-1.61-4.87-2.42V0ZM407.69,250.17c-32.86-24.1-65.81-47.85-98.04-72.36-3.5,3.71-8.91,5.31-13.42,7.94.23.34.37.71.67.97,3.99,3.46,6.59,7.54,9.15,11.62,1.43,2.28,2.54,4.66,3.99,6.93,1.14,1.79,2.71,3.44,3.85,5.23,2.56,4.02,5.2,8.01,7.47,12.15,1.95,3.56,4.94,6.81,7.54,10.16,2.18,2.81,4.47,5.58,6.1,8.61.81,1.51,1.77,3.02,3.6,4.01,2.54,1.38,5.12,2.74,7.76,4.01,1.4.68,2.89,1.31,4.45,1.73,3.88,1.03,7.8,2.02,11.76,2.85,4.85,1.01,9.7,2.02,14.31,3.53,2.11.69,4.17,1.49,6.12,2.4,1.55.72,1.6,1.56,1.05,2.84-.46,1.07-.77,2.23-.8,3.36-.06,2.56,1.18,4.95,1.97,7.4.4,1.23.92,2.44,1.46,3.88,1.72-1.75,3.35-3.26,4.75-4.87,2.54-2.95,5.28-5.81,6.97-9.15,1.54-3.03,3.19-6.05,5.6-8.78,1.23-1.4,2.35-2.85,3.67-4.46ZM373.07,293.17c1.07-.67,2.1-1.1,2.73-1.74,1.28-1.31,2.3-2.76,3.5-4.11.48-.54.59-1.01.28-1.61-1.58-3.14-2.98-6.34-4.7-9.44-1.95-3.51-3.41-7.07-3.59-10.92-.09-2.01-1.45-3.59-3.94-4.52-.44-.16-.9-.32-1.25-.57-1.89-1.32-4.23-1.64-6.64-1.54-3.27.14-6.52.45-9.94.7-.2-.24-.54-.58-.76-.96-1.54-2.6-4.47-4.09-7.71-5.27-.63-.23-1.52-.22-2.24-.11-1.28.19-2.51.55-3.88.86-1.79-1.51-2.69-3.44-3.86-5.27-1.74-2.74-3.36-5.53-5.26-8.2-1.9-2.67-4.15-5.21-6.13-7.85-2.67-3.56-5.09-7.23-7.87-10.75-2.65-3.35-5.16-6.73-6.94-10.39-1.73-3.56-4.15-6.86-6.81-10.06-2.48-2.99-4.85-6-6.05-9.47-.52-1.5-1.42-2.96-3.12-3.99-.79.18-1.54.35-2.4.54,0,.7.03,1.42,0,2.14-.13,2.41-.14,4.84-.46,7.23-.69,5.17-1.73,10.31-2.27,15.49-.52,4.91-.48,9.86-.89,14.78-.22,2.61,2.11,3.75,4.39,4.97,1.41.76,3.03,1.31,4.38,2.11,2.73,1.62,5.31,3.38,8.03,5.02,1.85,1.12,3.96,2.01,5.72,3.19,2.93,1.96,6,3.75,9.29,5.37,1.83.9,3.36,2.15,5.19,3.36-3.72,2.07-6.39,4.52-7.2,7.74-.79,3.13-.7,6.3,1.53,9.17,4.22-.22,6.27.66,7.93,3.56,1.27,2.22,3.46,3.78,6.02,5.12.38.2.89.29,1.35.38,3.82.7,7.71.98,11.63.92,2.77-.05,5.54-.28,8.35-.43.36.52.72,1.15,1.19,1.73,1.17,1.43,2.41,2.82,3.57,4.25,1.06,1.32,2.32,2.49,4.11,3.28,2.4,1.06,4.66,2.34,7.49,2.77.67.1,1.3.38,1.93.6,1.88.67,3.75,1.36,5.29,1.91ZM111.15,175.03c.1.09.19.19.29.28.28,0,.56.03.83,0,4.66-.69,9.32-1.38,13.98-2.07,5.14-.77,10.27-1.57,15.41-2.32,5.68-.83,11.38-1.6,17.05-2.43,7.89-1.16,15.77-2.37,23.66-3.52,7.19-1.05,14.4-2.07,21.59-3.09,4.86-.69,9.73-1.38,14.6-2.07,2.68-.38,5.37-.74,8.04-1.16,1.05-.16,2.17-.35,2.4-1.38-2.19,0-4.29-.1-6.37.02-5.17.29-10.34.45-15.53.3-1.18-.04-2.37.12-3.56.14-2.72.05-5.47.26-8.16.05-4.45-.34-8.85-.88-13.37-.71-2.62.1-5.33-.17-7.91-.56-2.6-.39-5.2-.67-7.82-.95-3.05-.33-5.81.19-8.61.84-.27.06-.52.15-.79.19-3.88.65-7.75,1.35-11.65,1.93-2.04.3-4.14.52-6.22.53-1.79.01-3.6-.28-5.38-.5-1.35-.16-2.34.06-3.35.85-2.28,1.79-4.53,3.57-6.15,5.76-.67.91-1.45,1.9-2.53,2.48-2.68,1.45-5.11,3.09-7.39,4.87-1.05.82-2.04,1.67-3.06,2.51ZM288.62,81.37c.3.69.7,1.27.79,1.87.4,2.76.75,5.53,1.03,8.3.15,1.46.09,2.93.18,4.4.07,1.14-.71,1.74-2.06,2.08-.99.25-2.02.48-2.93.86-2.71,1.13-5.67,1.43-8.68,1.6-.82.05-1.64.18-2.57.28-2.49,8.27-3.17,16.66-5.05,24.92h11.7c10-17.96,19.98-35.88,29.95-53.79-.15-.08-.25-.17-.36-.19-.27-.04-.56-.04-.83-.05-2.9-.1-5.72.24-8.49.85-2.27.5-4.54.58-6.73-.21-1.04-.38-2.03-.84-3.2-1.33-.35,2.17.12,4.13.73,6.06.46,1.47.07,2.58-1.62,3.42-.58.29-1.15.58-1.86.94Z"/>
  </g>
</svg>