<?xml version="1.0" encoding="UTF-8"?>
<svg id="Layer_1" data-name="Layer 1" xmlns="http://www.w3.org/2000/svg" version="1.1" viewBox="0 0 750.5 421.5">
  <defs>
    <style>
      .cls-1 {
        fill: gray;
      }

      .cls-1, .cls-2 {
        stroke-width: 0px;
      }

      .cls-2 {
        fill: gray;
      }
    </style>
  </defs>
  <path class="cls-2" d="M46.08,59.19"/>
  <g id="TWISTER">
    <path class="cls-1" d="M633.14,422.13c1.33-5.15,2.49-10.33,4.05-15.44,1.34-4.41,3.31-8.71,4.69-13.12,1.64-5.24,3.04-10.52,4.37-15.81.9-3.58,1.59-7.19,2.25-10.81.82-4.47,1.63-8.94,2.21-13.43.77-5.95,1.38-11.91,1.91-17.87.22-2.43.04-4.88.07-7.31.07-4.68-.06-9.35-.5-14.02-.51-5.43-.95-10.87-1.35-16.31-.17-2.33.02-4.68-.26-7-.31-2.63-.95-5.23-1.48-7.85-.7-3.5-1.42-7-2.13-10.5-1.15-5.71-2.64-11.37-4.88-16.92-2.16-5.36-4.32-10.73-6.29-16.13-2.19-5.99-5.06-11.78-8.12-17.54-1.37-2.58-2.45-5.25-4.04-7.75-2.54-4.01-5.36-7.92-8.13-11.84-1.27-1.81-2.67-3.56-4.09-5.31-1.45-1.79-2.97-3.54-4.49-5.3-1.97-2.28-4.08-4.49-5.9-6.84-1.13-1.45-2.99-2.57-3.3-4.44-.09-.53-1.49-.87-2.07-1.43-4.4-4.25-8.55-8.66-13.17-12.78-3.51-3.13-7.48-5.98-11.43-8.8-5.82-4.15-11.61-8.35-17.78-12.19-5.31-3.31-11.12-6.17-16.75-9.19-2.67-1.43-5.37-2.86-8.21-4.09-6.01-2.59-12.06-5.13-18.22-7.52-4.94-1.92-10.02-3.62-15.09-5.35-2.62-.89-5.35-1.63-7.97-2.74.37-.01.75-.1,1.09-.03,8.74,1.64,17.56,3.05,25.86,5.81,6.66,2.21,13.38,4.31,20.05,6.5,4,1.32,7.99,2.66,11.91,4.11,4.97,1.83,9.97,3.62,14.76,5.68,8.22,3.53,15.99,7.61,23.36,12.07,5.88,3.55,11.56,7.3,17.27,11,7.11,4.61,13.48,9.78,19.96,14.88,6.7,5.27,12.97,10.76,18.84,16.55,2.82,2.78,5.9,5.4,8.24,8.44,3.81,4.97,7.68,9.91,11.53,14.86,4.02,5.18,8.19,10.3,11.32,15.84,2.24,3.97,4.32,7.99,6.48,11.98,3.56,6.6,7.22,13.17,10.67,19.81,2.05,3.95,3.76,8,5.69,11.98.87,1.8,1.84,3.58,2.97,5.29.42.64.75,1.64,2.54,1.55-4.28-19.05-9.31-37.93-16.6-56.49,1.25,1.49,2.61,2.93,3.73,4.47,4.76,6.55,9.53,13.1,14.15,19.71,3.94,5.64,7.9,11.29,11.44,17.08,2.04,3.33,3.31,6.94,4.87,10.43.81,1.81,1.54,3.64,2.21,5.49,2.45,6.8,4.88,13.6,7.27,20.41.71,2.03,1.29,4.08,1.86,6.13.12.42-.1.89-.14,1.33-.02.23-.03.65.05.66,1.39.25,1.11,1.16,1.28,1.84,1.55,6.24,3.14,12.48,4.56,18.75,1.54,6.84,3.01,13.7,4.32,20.57,1.02,5.32,1.79,10.66,2.63,15.99.34,2.16.81,4.34.84,6.51.06,4.05,1.01,8.05.93,12.12-.07,3.14.45,6.29.6,9.43.11,2.43.02,4.87.05,7.31.02,2.03.21,4.07.11,6.09-.16,3.4-.49,6.8-.74,10.21-.03.41,0,.82-.01,1.23h-40.11c.2-2.19.52-4.37.59-6.56.18-5.71.32-11.43.34-17.14.02-5.68-.1-11.35-.22-17.03-.11-5.08-.34-10.15-.47-15.23-.06-2.52.1-5.04-.07-7.55-.18-2.67-.82-5.32-.91-7.99-.15-4.35-1.04-8.61-1.83-12.9-1.19-6.43-3.61-12.63-6.12-18.81-1.09-2.67-2.16-5.34-3.18-8.03-.62-1.63-1.07-3.29-1.71-4.91-.29-.74-.83-1.43-1.5-2.53-.2.71-.36.96-.32,1.2.23,1.41.32,2.86.81,4.22.48,1.33.04,2.65.44,4.02.79,2.68.98,5.47,1.18,8.23.51,7.06,1.16,14.12,1.27,21.19.12,7.77-.28,15.55-.49,23.32-.07,2.65-.23,5.31-.43,7.96-.22,2.97-.53,5.93-.82,8.9-.18,1.9-.33,3.8-.6,5.7-.37,2.62-.87,5.22-1.27,7.84-.49,3.18-.71,6.4-1.48,9.54-1.37,5.55-3.06,11.05-4.62,16.56h-48.36Z"/>
    <path class="cls-1" d="M449.05,422.13c.32-.32.57-.7.97-.94,3.72-2.2,7.46-4.38,11.21-6.56,2.6-1.51,5.26-2.95,7.82-4.49,3.12-1.89,6.24-3.79,9.23-5.79,4.14-2.76,8.29-5.53,12.2-8.48,3.14-2.36,5.97-4.97,8.87-7.5,2.43-2.12,4.85-4.24,7.12-6.45,1.71-1.66,3.05-3.54,4.76-5.2,4.41-4.27,7.89-8.99,11.77-13.52,1.02-1.19,1.81-2.49,2.67-3.76,2.73-4,5.46-7.99,8.14-12.01,1.98-2.97,3.94-5.95,5.81-8.96,1.67-2.7,3.27-5.42,4.75-8.18,1.51-2.82,2.82-5.7,4.24-8.54.32-.64.55-1.41,1.84-1.31-.81-1.03-.32-2,.16-3,1.34-2.81,2.67-5.63,3.95-8.46,1.15-2.55,2.4-5.08,3.31-7.68,1.42-4.07,2.85-8.14,4-12.27.8-2.84,1.66-5.68,2.35-8.54,1.3-5.42,2.38-10.86,3.56-16.3.42-1.93.98-3.85,1.27-5.79.22-1.45.08-2.93.14-4.4.1-2.23.33-4.46.34-6.69.02-2.1.93-4.18.08-6.3-.21-.53.19-1.19.17-1.79-.08-3.11-.31-6.23-.29-9.34.03-4.75-.33-9.48-1.08-14.19-.04-.26,0-.52,0-1.19,2.08,1.58,3.68,3.01,5.2,4.5,5.94,5.85,9.63,12.56,13.23,19.31,2.37,4.43,4.04,8.96,5.19,13.71,1.45,5.94,2.91,11.88,3.86,17.87.49,3.09.61,6.22.88,9.34.2,2.31.44,4.63.5,6.94.08,2.86.03,5.72,0,8.58-.03,2.56,0,5.12-.22,7.66-.19,2.26-.91,4.51-.93,6.77-.01,1.18.19,2.39.02,3.59-.7,5.02-1.14,10.05-2.61,15-1.11,3.75-1.82,7.57-2.88,11.34-.91,3.2-2.03,6.36-3.13,9.52-1.27,3.68-2.58,7.35-3.95,11.01-1.08,2.89-2.24,5.77-3.49,8.62-.28.64-1.06,1.17-1.77,1.91.52,1.11-.21,2.4-.88,3.62-3.16,5.74-6.39,11.46-9.61,17.19-.77,1.36-1.6,2.7-2.41,4.05l.59.23c1.03-1.35,2.09-2.68,3.1-4.04,1.54-2.08,3.04-4.18,4.56-6.27,1.74-2.39,3.45-4.8,5.22-7.18,1.51-2.02,3.18-3.98,4.59-6.03,2.19-3.2,4.23-6.45,6.31-9.69,1.24-1.94,2.49-3.88,3.65-5.85,1.37-2.33,2.63-4.69,3.96-7.04,1.36-2.41,2.81-4.78,4.08-7.22,1.12-2.16,2.09-4.36,3.01-6.56,1.44-3.44,2.88-6.89,4.16-10.37,1.6-4.34,2.91-8.74,3.26-13.26.06-.83.38-1.66.62-2.67,1.74.66,2.34,1.48,2.36,2.6.02,2.05.06,4.11.1,6.16.06,2.8.18,5.6.17,8.4-.03,7.96.24,15.92-2.64,23.73-1.21,3.27-1.42,6.74-2.09,10.12-.52,2.6-1.01,5.2-1.7,7.79-.51,1.9-.83,3.87-1.6,5.73-1.69,4.11-2.52,8.37-3.9,12.53-.1.31-.37.58-.54.88-.42.73-1.2,1.47-1.18,2.2.06,2.01-.5,3.83-1.59,5.68-.71,1.2-.69,2.64-1.03,3.96-.26,1.01-.95,1.93-1.4,2.89-.98,2.1-2.11,4.13-2.66,6.36-.32,1.3-1.64,2.41-2.14,3.76-.99,2.69-2.11,5.36-3.25,8.02-.33.77-.91,1.47-1.37,2.21h-139.02Z"/>
    <path class="cls-1" d="M750.73,86.57c-1.61-.76-3.18-1.59-4.84-2.28-9.4-3.94-18.79-7.91-28.25-11.77-7.84-3.2-15.78-6.27-23.69-9.39-4.76-1.88-9.51-3.78-14.33-5.56-3.88-1.44-7.86-2.73-11.81-4.07-4.32-1.46-8.62-2.94-12.98-4.31-4.79-1.5-9.64-2.9-14.48-4.32-5-1.47-10.01-2.93-15.04-4.34-6.3-1.76-12.59-3.54-18.95-5.18-10.42-2.68-21.04-4.8-31.89-6.27-7.62-1.03-15.18-2.31-22.83-3.18-6.85-.78-13.78-1.17-20.69-1.68-5.89-.43-11.78-.87-17.69-1.16-3.89-.19-7.8-.09-11.7-.13-3.73-.04-7.46-.15-11.18-.13-13.61.06-27.19.39-40.59,2.43-1.39.21-2.84.19-4.81.3,1.27-1.48,2.79-2.12,4.21-2.68,7.18-2.85,14.44-5.59,21.68-8.35,4.23-1.61,8.44-3.27,12.75-4.74,5.22-1.78,10.5-3.48,15.84-5.07,5.16-1.53,10.42-2.89,15.66-4.26,1.01-.27,2.14-.39,3.21-.39,11.81,0,23.62.05,35.43.05,8.42,0,16.84-.07,25.27-.07,41.48,0,82.96,0,124.44,0,15.75,0,31.5-.02,47.24-.03v86.57Z"/>
    <path class="cls-1" d="M750.73,263.01c-4.46-5.54-8.51-11.23-12.29-17.05-3.67-5.64-7.44-11.26-11.63-16.69-5.35-6.92-11.13-13.65-16.78-20.44-3.82-4.59-7.62-9.19-11.66-13.68-2.4-2.66-5.16-5.15-7.88-7.64-7.07-6.46-14.23-12.86-21.31-19.32-8.72-7.95-17.99-15.5-28.25-22.35-3.41-2.28-6.83-4.55-10.17-6.89-1.1-.78-1.92-1.78-2.92-2.64-.59-.51-1.18-1.08-1.93-1.4-4-1.7-7.06-4.26-10.54-6.43-4.89-3.05-9.75-6.14-14.68-9.16-1.76-1.08-3.47-2.17-4.85-3.6,1.29-.97,2.58-.74,3.88-.34,2.35.74,4.62,1.69,7.06,2.19,2.82.57,5.4,1.45,7.97,2.42,5.6,2.13,10.93,4.57,16.1,7.24,5.91,3.06,12.09,5.83,18.04,8.85,4.28,2.17,8.46,4.47,12.56,6.84,5.62,3.24,11.13,6.58,16.68,9.89,1.06.63,2.08,1.32,3.1,1.99.68.44,1.34.9,2.37,1.2-.12-.32-.11-.73-.38-.95-1.22-1-2.57-1.91-3.78-2.91-1.18-.98-2.21-2.05-3.37-3.04-3.54-3-6.92-6.12-10.72-8.92-4.26-3.15-8.32-6.46-12.37-9.75-2.89-2.35-5.99-4.52-9.03-6.73-4.69-3.42-9.45-6.79-14.31-10.09-2.56-1.74-5.6-3.09-8.02-4.92-2.65-2.01-5.79-3.49-8.72-5.19-2.73-1.59-5.58-3.05-8.4-4.55-4.44-2.38-8.81-4.83-13.36-7.09-3.93-1.95-8.04-3.68-12.1-5.47-6.04-2.67-12.05-5.39-18.18-7.94-5.8-2.41-11.72-4.65-17.62-6.92-3.22-1.24-6.48-2.41-9.76-3.56-.98-.34-2.11-.42-3.11-.73-7.24-2.23-14.46-4.51-21.7-6.74-4.81-1.48-9.66-2.88-14.48-4.34-1.65-.5-3.28-1.05-5.04-2.32,3.45.1,6.32.2,9.18.25,6.98.13,13.69,1.43,20.41,2.66,7.68,1.41,15.37,2.8,23.05,4.19,1.49.27,3.27-.06,4.16,1.36.17.26,1.18.33,1.79.32,2.42-.07,4.63.46,6.88,1.07,2.98.8,6.1,1.33,9.14,2.03,2.78.64,5.57,1.27,8.3,2.02,3.68,1,7.35,2.03,10.94,3.2,4.21,1.37,8.32,2.91,12.5,4.34,2.61.9,5.29,1.69,7.88,2.61,2.73.97,5.39,2.04,8.07,3.08,1.84.71,3.67,1.43,5.49,2.17,3.98,1.63,7.88,3.37,11.92,4.9,6.26,2.37,12.39,4.9,18.23,7.82,5.1,2.55,10.28,5.02,15.38,7.56,1.58.79,3.04,1.72,4.54,2.6,2.78,1.64,5.5,3.32,8.31,4.92,3.78,2.16,7.67,4.2,11.4,6.39,2.58,1.51,4.97,3.2,7.45,4.81,1.55,1.01,3.17,1.96,4.66,3.01,2.85,2.01,5.64,4.07,8.45,6.11,2.83,2.06,5.66,4.12,8.5,6.17,1.3.94,2.59,1.89,3.9,2.82,1.25.89,2.56,1.72,3.78,2.64,2.08,1.57,4.15,3.15,6.12,4.79,2.34,1.94,4.56,3.97,6.84,5.95,1.81,1.58,3.63,3.15,5.48,4.71.69.58,1.47,1.09,2.16,1.67,2.25,1.88,3.84,4.21,6.66,5.72v55.24c-.2-.11-.49-.19-.6-.34-2.32-3.36-4.91-6.6-7.78-9.71-2.92-3.18-5.68-6.45-8.74-9.56-3.41-3.46-7.03-6.79-10.63-10.14-2.75-2.56-5.6-5.06-8.45-7.55-.65-.57-1.32-1.37-2.72-.92-.38,1.09.41,1.89,1,2.72,1.11,1.57,2.33,3.1,3.34,4.71,2.96,4.69,5.76,9.43,8.78,14.1,3.68,5.7,7.81,11.25,11.18,17.05,3.42,5.89,7.65,11.43,11.59,17.1.87,1.25,2.02,2.38,3.04,3.57v21.02Z"/>
    <path class="cls-1" d="M296.84,422.13c2.11-.94,4.17-1.95,6.33-2.81,7.07-2.82,14.19-5.57,21.28-8.37,4.35-1.72,8.74-3.4,12.98-5.27,6.06-2.66,12.11-5.34,17.96-8.25,7.52-3.75,14.78-7.79,22.25-11.6,7.26-3.7,14.04-7.85,20.5-12.29,7.4-5.09,14.81-10.19,21.89-15.52,5.6-4.22,10.7-8.81,16.04-13.23,5.75-4.75,10.46-10.01,14.04-15.85.42-.68.94-1.33,1.46-1.97.17-.21.48-.36,1.11-.81-.45,1.88-.63,3.42-1.2,4.89-2.03,5.27-3.82,10.61-6.4,15.72-1.92,3.81-4.84,7.35-7.47,10.94-2.06,2.81-4.34,5.53-6.54,8.28-3.41,4.27-6.78,8.55-10.81,12.53-3.07,3.04-5.56,6.41-8.6,9.46-4.34,4.35-8.97,8.53-13.45,12.8-5.85,5.58-12.55,10.58-18.93,15.8-2.02,1.65-4.33,3.11-6.46,4.69-.21.16-.11.56-.15.84h-75.83Z"/>
    <path class="cls-1" d="M.32.15h59.52c-.22,2.91-.35,5.77-.69,8.62-.62,5.25-1.47,10.49-2.01,15.74-.39,3.82-.38,7.67-.65,11.5-.29,4.17-.66,8.34-1.08,12.51-.65,6.49-1.69,12.97-1.97,19.47-.39,8.89-.56,17.79.32,26.69.41,4.1.37,8.23.72,12.34.47,5.54,1.25,11.07,2.8,16.51.05.17.25.32.37.48.15-.05.3-.07.3-.1.07-3.28.22-6.56.15-9.83-.16-7.68-1.32-15.34-.28-23.03.72-5.32.99-10.67,1.79-15.98.82-5.42,2.05-10.8,3.09-16.2,1.1-5.67,2.09-11.36,3.32-17.02.83-3.81,2.05-7.58,3-11.38.66-2.64,1.09-5.31,1.73-7.95.42-1.73,1.15-3.42,1.57-5.14.93-3.87,1.73-7.76,2.63-11.64.42-1.81.95-3.6,1.46-5.54h24.01c0,.28.08.61-.01.9-2.47,7.51-5.09,15-7.42,22.53-3.71,12.01-7.17,24.06-9.36,36.29-1.19,6.64-2.25,13.3-3.04,19.98-.77,6.53-1.3,13.09-1.62,19.65-.33,6.84-.44,13.7-.33,20.55.1,6.02.58,12.04.97,18.05.34,5.2.63,10.42,1.27,15.6.39,3.18,1.37,6.33,2.11,9.49.49,2.13.98,4.26,1.53,6.39.78,3.01,1.54,6.01,2.43,9,.92,3.1,1.78,6.23,3.02,9.27,1.78,4.38,3.79,8.7,5.88,13,1.84,3.79,3.91,7.52,5.88,11.28,1.37,2.6,2.67,5.21,4.15,7.77,2.72,4.69,5.47,9.37,8.39,13.98,1.83,2.9,3.97,5.69,6,8.53,3.26,4.57,6.74,9.04,10.33,13.46,1.45,1.78,2.46,3.77,3.75,5.76-5.7-3.83-11.33-7.52-16.82-11.33-4.35-3.02-8.54-6.17-12.75-9.29-4.21-3.12-8.16-6.4-11.75-9.94-1.09-1.08-2.65-1.89-3.75-2.97-2.21-2.18-4.37-4.4-6.34-6.71-2.9-3.4-5.7-6.86-8.38-10.37-1.59-2.08-2.86-4.29-4.26-6.44-.56-.86-.98-1.78-1.64-2.6-2.21-2.74-3.8-5.67-5.24-8.67-.94-1.97-2.32-3.81-3.42-5.74-3.13-5.51-6.2-11.03-9.32-16.54-1.91-3.38-3.96-6.72-5.74-10.14-1.51-2.91-2.67-5.92-4.07-8.86-.94-1.97-2.09-3.88-3.08-5.84-1.06-2.1-1.93-4.25-3.06-6.32-3.43-6.32-6.92-12.63-10.42-18.93-.49-.88-1.06-1.75-1.79-2.52-.37-.39-1.33-.89-1.7-.77-.75.24-1.6.79-1.83,1.35-.34.82-.34,1.78-.18,2.65.48,2.56.81,5.17,1.73,7.65,2.73,7.38,5.69,14.71,8.6,22.05,1.39,3.5,2.89,6.98,4.02,10.57-.25-.37-.5-.73-.74-1.1-3.35-5.18-6.97-10.28-9.93-15.58-1.67-3-3.49-5.98-4.94-9.06-1.48-3.14-3.28-6.21-4.79-9.34-2.4-4.97-4.81-9.94-6.95-14.98-1.55-3.63-2.47-7.42-4.07-11.04-1.6-3.62-1.43-7.3-1.43-10.99,0-28.93,0-57.85,0-86.78,0-.94,0-1.89,0-2.95Z"/>
    <path class="cls-1" d="M45.89,372.76c2.29.59,4.57,1.21,6.88,1.76,3.29.78,6.59,1.54,9.91,2.26,5.24,1.15,10.48,2.3,15.75,3.39,5.09,1.05,10.18,2.12,15.32,3,5.95,1.02,11.98,1.77,17.94,2.76,3.26.54,6.65.62,9.74,1.8,1.19.46,2.8.25,4.17.49,6.89,1.17,13.72,2.54,20.65,3.55,6.81.99,13.7,1.64,20.57,2.41,3.84.43,7.7.79,11.5,1.46-8.52-.59-17.04-1.17-25.57-1.76-2.91-.2-5.82-.45-8.73-.61-7.64-.44-15.3-.8-22.94-1.28-3.54-.22-7.07-.58-10.59-.96-7.39-.79-14.77-1.62-22.15-2.48-3.15-.37-6.27-.84-9.4-1.3-2.41-.35-4.8-.75-7.2-1.14-2.11-.34-4.22-.72-6.33-1.04-1.42-.22-2.88-.34-4.3-.57-1.75-.28-3.48-.61-5.21-.94-3.42-.65-6.86-1.23-10.24-1.98-5.35-1.19-10.66-2.48-15.99-3.74-4.13-.98-8.28-1.93-12.39-2.97-4.88-1.23-9.73-2.52-14.58-3.81-2.1-.56-2.37-.85-2.38-2.56-.02-3.71,0-7.42,0-11.13,0-27.89,0-55.79,0-83.68,0-.74,0-1.47,0-2.21l.52-.17c1.55,1.44,3.09,2.89,4.65,4.33,3.5,3.24,6.91,6.53,10.55,9.68,3.34,2.89,6.81,5.71,10.43,8.41,4.77,3.56,9.67,7.03,14.64,10.43,4.42,3.03,8.97,5.96,13.55,8.86,2.29,1.44,4.79,2.7,7.19,4.05,3.2,1.8,6.29,3.72,9.6,5.4,6.64,3.36,13.4,6.6,20.11,9.88,1.74.85,3.45,1.73,5.21,2.55.67.31,1.47.44,2.17.71,3.96,1.52,7.86,3.13,11.89,4.56,10.04,3.56,20.15,6.99,30.57,9.93,8.36,2.36,16.85,4.4,25.41,6.29,3.58.79,7.22,1.45,10.83,2.16.34.07.7.06,1.2-.21-1.14-.35-2.29-.7-3.43-1.05-5.39-1.67-10.78-3.33-16.15-5.04-2.51-.8-4.98-1.68-7.43-2.57-3.36-1.23-6.71-2.48-10.03-3.76-5.97-2.31-11.93-4.63-17.88-6.98-6.47-2.56-12.67-5.41-18.28-8.98-7.59-4.83-15.33-9.52-22.92-14.35-2.2-1.4-4.08-3.08-6.11-4.64.14-.13.27-.27.41-.4.46.21.96.38,1.38.63,13.9,8.22,28.71,15.38,44.69,21.09,13.52,4.83,27.23,9.36,40.87,14,10.16,3.46,20.54,6.49,31.26,8.85,7.36,1.62,14.7,3.29,22.1,4.81,11.45,2.36,23.06,4.22,34.84,5.37,9.6.94,19.23,1.85,28.88,2.33,9.39.47,18.83.36,28.25.51.46,0,.91,0,1.48.3-2.28.57-4.56,1.14-6.83,1.72-6.22,1.59-12.42,3.21-18.65,4.75-5.89,1.46-11.82,2.82-17.72,4.23-4.67,1.12-9.35,2.18-14.29,2.39-.53.02-1.05.18-1.58.27-7.66,1.33-15.44,2.1-23.25,2.73-6.89.55-13.78,1.12-20.69,1.54-5.35.32-10.72.53-16.08.59-6.26.07-12.53,0-18.79-.17-3.53-.1-7.03-.57-10.56-.82-.98-.07-2,.14-2.98.07-7.39-.56-14.77-1.19-22.16-1.73-2.71-.2-5.45-.18-8.16-.37-3.36-.23-6.71-.54-10.05-.88-4.57-.46-9.19-.8-13.68-1.56-2.75-.46-5.66-.27-8.32-1.3-.92-.36-2.34-.15-3.6-.38-4.14-.74-8.5-.83-12.56-1.72-3.71-.8-7.63-.82-11.22-2.07-1.65-.57-3.68-.54-5.53-.8-3.47-.5-6.95-.98-10.4-1.55-1.96-.32-3.87-.84-5.82-1.21-.56-.11-1.18-.02-1.78-.02-.05.19-.11.38-.16.57Z"/>
    <path class="cls-1" d="M156.17,209.77c1.37,2.09,2.74,4.18,4.13,6.27.93,1.4,1.91,2.79,2.85,4.19,1.28,1.91,2.52,3.84,3.84,5.74.49.71,1.26,1.32,1.74,2.03,2.67,4.03,5.29,8.08,7.91,12.13,2.86,4.43,6.12,8.68,9.94,12.68,3.19,3.33,6.55,6.58,9.82,9.87,3.39,3.42,7.58,6.29,11.43,9.39.12.1.39.12.45.23,1.23,2.16,4.11,3.09,6.15,4.65,2.04,1.56,4.11,3.13,6.41,4.47,5.19,3.01,10.44,5.96,15.83,8.76,3.52,1.83,7.31,3.38,11.03,4.98,3.35,1.44,6.69,2.92,10.2,4.12,2.59.89,5.38,1.54,8.18,1.97,3.08.48,5.84,1.61,8.94,2.08,5.91.89,11.81,1.49,17.84,1.4,4.3-.06,8.6-.03,12.91-.01,6.24.03,12.32-.75,18.37-1.84,12.77-2.3,24.22-6.8,35.32-11.88,6.72-3.08,12.8-6.81,18.18-11.08,7.15-5.67,14.13-11.47,19.71-18.11,3.84-4.57,7.62-9.2,10.08-14.29,2-4.15,3.53-8.43,4.47-12.83,1.01-4.77.86-9.56,1.27-14.33.51-5.88-.63-11.61-1.81-17.35-.84-4.05-3.35-7.66-6.26-11.09-.98-1.15-2.05-2.26-2.95-3.52,2.19.48,4.07,1.32,5.9,2.29,6.99,3.7,12.1,8.65,16.83,13.9,2.87,3.19,5.66,6.44,7.48,10.01,2.83,5.57,5.41,11.23,6.51,17.16.48,2.61.55,5.31.3,7.94-.42,4.34-1.04,8.69-1.98,12.98-.62,2.81-1.94,5.53-3,8.28-.48,1.24-1.08,2.45-1.6,3.68-1.58,3.72-4.31,6.99-7.18,10.18-2.93,3.26-5.86,6.53-8.99,9.68-2.14,2.16-4.63,4.12-6.96,6.17-.69.61-1.36,1.22-2.28,2.05,7.01-1.59,21.67-9.47,36.7-23.99,10.23-9.88,15.72-21.39,19.94-33.36.85,2.61,1.39,5.17,1.29,7.81-.19,5.48-.1,11-1.36,16.4-1.12,4.84-2.66,9.66-4.65,14.33-1.14,2.68-3.37,5.14-5.41,7.56-4.25,5.03-8.62,10.01-13.07,14.94-3.69,4.09-8.34,7.51-13.55,10.5-4.99,2.86-9.86,5.86-15.05,8.49-7.93,4.01-16.26,7.51-25.34,9.91-5.49,1.45-10.95,2.99-16.51,4.29-5.46,1.28-11.04,2.17-16.76,2.62-3.53.28-7.01.91-10.54,1.16-8.64.61-17.29.36-25.92-.29-3.99-.3-7.99-.53-11.99-.83-6-.45-11.89-1.38-17.74-2.47-9.19-1.72-18.19-3.88-26.71-7-10.39-3.8-20.39-8.12-29.79-13.22-4.65-2.52-9.05-5.24-13.23-8.16-1.46-1.02-2.95-2.03-4.29-3.14-.78-.64-1.18-1.55-1.97-2.19-.78-.63-1.99-.97-2.75-1.61-2.19-1.83-4.32-3.71-6.36-5.64-2.81-2.67-5.57-5.38-8.25-8.13-4.66-4.79-9.02-9.72-12.79-14.94-2.24-3.11-4.73-6.13-6.77-9.31-2.85-4.44-5.46-8.98-8.05-13.51-1.76-3.08-3.39-6.2-4.9-9.35-2.18-4.56-4.08-9.19-4.59-14.07-.27-2.59-.62-5.18-.9-7.76-.07-.65-.01-1.3-.01-1.96.11-.01.22-.02.33-.03Z"/>
    <path class="cls-1" d="M282.75,68.4c-.94.09-1.49.07-1.97.19-10.9,2.77-21.49,6.12-31.77,10.02-12.96,4.92-25.37,10.58-37.23,16.84-9.57,5.05-18.65,10.58-26.84,16.9-7.52,5.8-14.4,12-21.12,18.34-7.63,7.2-14.04,15.03-21.49,22.31-.43.42-.86.85-1.73,1.09.84-1.54,1.72-3.07,2.51-4.62,1.37-2.69,2.73-5.38,4.02-8.09,3.69-7.73,7.17-15.52,11.08-23.19,1.85-3.63,4.52-7.01,6.8-10.52,2.43-3.73,5.76-7,9.02-10.33,5.09-5.21,10.75-10.02,16.95-14.48,3.73-2.68,7.28-5.52,11.17-8.07,3.41-2.23,7.14-4.21,10.81-6.21,4.89-2.67,10.01-5.1,15.32-7.26,5.47-2.22,11.13-4.19,16.73-6.23,3.09-1.13,6.15-2.33,9.35-3.26,7.95-2.32,15.89-4.63,24.18-6.25,4.05-.79,7.94-2.02,11.97-2.86,2.97-.62,6.05-.94,9.09-1.37,4.12-.59,8.24-1.17,12.37-1.73,7.52-1.04,15.08-1.92,22.74-2,7.18-.08,14.36-.11,21.54,0,3.79.06,7.62.29,11.29,1.64-.26.22-.38.43-.56.46-3.18.55-6.37,1.03-9.53,1.63-1.14.22-2.68.37-2.14,2.02,2.25,0,4.52,0,6.79,0,9.8.01,19.46.81,28.99,2.6,6.02,1.13,12.12,1.93,17.92,3.71,2.5.76,5.26,1.04,7.9,1.54.67.13,1.34.28,2.33.49-5.69.2-10.99.32-16.27.59-3.55.19-7.09.56-10.62.91-4.16.41-8.33.83-12.47,1.33-9.53,1.17-18.57,3.4-27.13,6.82-9.27,3.7-18.75,7.11-27.95,10.89-6.46,2.65-12.63,5.72-18.92,8.6-9.43,4.32-18.02,9.51-26.43,14.85-5.84,3.71-11.32,7.75-16.8,11.76-4.03,2.94-7.88,6.04-11.68,9.15-2.69,2.2-5.11,4.58-7.78,6.79-4.03,3.33-7.33,7.08-10.86,10.7-2.51,2.57-4.6,5.37-6.76,8.12-2.79,3.56-5.47,7.17-8.16,10.78-1.11,1.49-2.18,3-3.16,4.54-1.79,2.81-3.43,5.67-5.25,8.47-2.28,3.5-3.86,7.21-5.73,10.83-2.89,5.6-4.72,11.37-6.09,17.25-.36,1.55-.73,3.1-1.2,5.04-.46-.69-.8-1.04-.95-1.43-2.68-7.14-4.87-14.36-4.65-21.84.14-4.57.39-9.16,1.15-13.69.65-3.85,1.92-7.67,3.23-11.44,1.26-3.63,2.71-7.24,4.43-10.76,3.82-7.8,8.77-15.21,14.46-22.33,2.93-3.67,6.1-7.24,9.5-10.67,4.05-4.09,8.43-8,13.37-11.53,4.29-3.07,8.49-6.22,12.97-9.13,4.19-2.72,8.58-5.29,13.11-7.7,6.29-3.34,12.79-6.47,19.2-9.69.2-.1.39-.22.95-.54Z"/>
    <path class="cls-1" d="M364.48,155.42c1.73-.85,3.41-1.77,5.19-2.54,6.32-2.74,12.77-5.31,18.98-8.18,7.99-3.69,16.7-4.84,25.88-4.86,8.7-.02,17.37.2,25.76,2.06,4.79,1.06,9.51,2.4,14.08,3.93,10.1,3.39,19.41,7.81,28.2,12.84,1.87,1.07,3.83,2.17,5.26,3.53,1.12,1.07,2.65,1.63,3.85,2.53,1.35,1.02,2.68,2.05,4.02,3.08,1.26.97,2.58,1.9,3.73,2.93,2.7,2.41,5.35,4.84,7.95,7.3,1.85,1.75,3.65,3.53,5.4,5.33,3.8,3.94,7.09,8.11,10.02,12.44,4.83,7.14,8.74,14.54,11.4,22.31,1.24,3.64,2.94,7.2,3.94,10.87,1.04,3.79,1.58,7.67,2.17,11.52.47,3.04.76,6.1.97,9.16.18,2.58.1,5.18.18,7.76.08,2.8-.16,5.6-.24,8.38-.13,4.37-1.19,8.75-3.69,12.95-.54-2.36-1.26-4.71-1.59-7.08-.97-7.1-2.11-14.18-4.64-21.06-1.3-3.55-3.24-6.98-4.95-10.45-1.26-2.56-2.66-5.08-3.89-7.65-3.52-7.35-8.12-14.29-13.73-20.87-4.53-5.31-9.55-10.33-14.78-15.25-3.92-3.69-8.05-7.24-12.56-10.51-5.75-4.17-11.57-8.33-17.85-12.01-6-3.52-12.58-6.48-19.52-8.94-5.83-2.07-11.57-4.32-17.83-5.59-3.95-.8-8.02-1.28-11.98-2.06-5.75-1.13-11.68-1.3-17.49-2.07-3.68-.49-7.47-.27-11.08-1.15-.59-.14-1.36.19-2.06.23-6.33.36-12.76-.18-19.12,1.1Z"/>
    <path class="cls-1" d="M220.07.03c-5.51,3.37-10.51,6.45-15.55,9.5-10.81,6.55-21.28,13.37-30.72,21.04-8.82,7.16-16.99,14.7-24.42,22.71-3.28,3.54-6.89,6.91-10.1,10.49-2.49,2.77-4.62,5.73-6.86,8.62-2.61,3.37-5.17,6.77-7.76,10.15-.13.17-.35.3-.71.59-.76-1.71-.08-3.3.16-4.81.67-4.14,1.51-8.26,2.6-12.35,1.77-6.64,3.69-13.26,6.57-19.7,2.38-5.32,4.7-10.67,7.4-15.9,2.13-4.14,4.73-8.14,7.24-12.17,2.16-3.46,4.37-6.92,6.78-10.28,1.71-2.39,3.82-4.63,5.72-6.94.54-.65,1.25-.96,2.26-.93.37.01.73,0,1.1,0,18.12,0,36.24,0,54.37,0,.45,0,.9,0,1.93,0Z"/>
    <path class="cls-1" d="M356.14,174.11c-7.34,4.03-14,8.64-20.1,13.66-4.29,3.53-8.29,7.32-11.86,11.28-3.24,3.59-4.81,7.78-5.96,12.05-2.13,7.88-.27,15.38,3.62,22.68,2.53,4.76,6.04,9.06,11.41,12.34,4.84,2.95,10.2,5.26,16.08,6.87,1.46.4,2.92.8,4.32,1.3,3.6,1.27,7.32,2.04,11.35,1.82.96-.05,1.94.09,3.34.17-2.83,2.19-5.92,3.38-9.25,4.3-3.47.96-7.17.97-10.72,1.55-6.73,1.09-13.17-.03-19.29-1.73-6.14-1.71-11.74-4.42-16.64-7.77-1.43-.98-2.53-2.29-3.55-3.55-2.07-2.57-4.1-5.16-5.92-7.83-2.61-3.84-3.5-8.07-4.34-12.26-1.24-6.17-.58-12.34,1.88-18.26,1.76-4.22,4.34-8.27,7.55-12.04,4.7-5.53,10.45-10.36,17.42-14.3,6.43-3.64,13.4-6.56,21.07-8.53,3.11-.8,6.22-1.5,9.59-1.73Z"/>
    <path class="cls-1" d="M.89,141.59c.44.78.85,1.57,1.31,2.34,2.7,4.55,5.51,9.07,8.08,13.66,1.83,3.27,3.33,6.65,4.98,9.98,2.28,4.61,4.65,9.2,6.84,13.84,2.68,5.69,6.8,10.86,10.15,16.3,2.63,4.27,5.44,8.5,8.47,12.61,3.61,4.9,7.53,9.68,11.36,14.5,2.76,3.46,5.56,6.91,8.4,10.33,1.82,2.2,3.65,4.39,5.62,6.51,4.49,4.83,8.96,9.67,13.63,14.4,3.83,3.88,7.69,7.75,11.94,11.39,2.69,2.31,5.34,4.64,7.97,6.98.55.49.93,1.09,1,1.88-1.46-1.08-3-2.11-4.37-3.26-8.78-7.34-17.52-14.7-26.26-22.07-3.64-3.06-7.33-6.09-10.86-9.22-3.36-2.97-6.56-6.04-9.78-9.1-2.48-2.36-4.9-4.76-7.31-7.15-4.12-4.09-8.01-8.29-11.32-12.79-2.32-3.15-4.99-6.15-7.4-9.27-2.05-2.65-4.09-5.33-5.9-8.08-2.89-4.38-5.71-8.79-8.34-13.25-2.15-3.65-3.97-7.41-5.93-11.12-.13-.25-.18-.54-.38-.77-2.44-2.87-2.55-6.04-2.48-9.31.13-5.77.03-11.54.03-17.31,0-.66,0-1.32,0-1.98.19-.03.38-.06.57-.08Z"/>
    <path class="cls-1" d="M237.5,22.11c2.43-1.7,4.76-3.23,6.94-4.87,5.58-4.23,12.06-7.54,18.95-10.4,5.24-2.18,10.64-4.14,16.04-6.1,1.27-.46,2.81-.68,4.24-.68,16.38-.04,32.76-.03,49.14-.02.17,0,.34.05.58.3-2.82.44-5.65.84-8.46,1.32-4.35.74-8.69,1.53-13.03,2.31-3.54.63-7.13,1.15-10.61,1.95-5.66,1.3-11.28,2.7-16.86,4.19-10.73,2.86-21.43,5.79-32.11,8.74-3.85,1.06-7.64,2.26-11.45,3.4-1,.3-1.99.75-3.35-.14Z"/>
    <path class="cls-1" d="M417.31,179.4c1.03-.1,1.58-.29,1.94-.17,1.75.57,3.56,1.08,5.14,1.86,12.48,6.14,22.33,14.07,28.92,24.19,2.28,3.51,4.39,7.04,5.09,10.98.36,2.03,1.22,4,1.8,6.01.38,1.32.31,1.47-.71,2.95-.41-.59-.77-1-1.01-1.45-4.55-8.74-9.67-17.3-16.36-25.24-4.73-5.61-9.81-11.11-16.98-15.22-2.29-1.32-4.81-2.4-7.85-3.9Z"/>
  </g>
</svg>