<?xml version="1.0" encoding="UTF-8"?>
<svg id="Layer_1" data-name="Layer 1" xmlns="http://www.w3.org/2000/svg" version="1.1" viewBox="0 0 800.5 449.5">
  <defs>
    <style>
      .cls-1 {
        fill: #000;
      }

      .cls-1, .cls-2 {
        stroke-width: 0px;
      }

      .cls-2 {
        fill: #000;
      }
    </style>
  </defs>
  <path class="cls-2" d="M46.08,59.19"/>
  <g id="HEAVY_RAIN" data-name="HEAVY RAIN">
    <path class="cls-1" d="M552.37,449.47c1.6-2.07,4.22-3.39,6.61-4.83,3.86-2.33,8.02-4.37,11.93-6.65,5.64-3.3,11.12-6.76,16.78-10.05,4.29-2.49,8.7-4.86,13.15-7.18,4.94-2.57,10.02-4.98,14.55-7.96,2.53-1.67,4.9-3.48,7.44-5.15,4.63-3.03,10.11-5.09,15.27-7.53,3.92-1.86,7.54-4.08,11.43-5.98,3.14-1.54,5.42-3.75,8.23-5.52,3.26-2.05,6.83-3.83,10.31-5.69,2.8-1.49,5.67-2.9,8.5-4.37,2.07-1.08,4.14-2.15,6.16-3.29,2.01-1.13,3.9-2.39,5.95-3.47,4.02-2.12,8.11-4.15,12.18-6.21,3.61-1.84,7.4-3.51,10.8-5.55,4-2.4,7.71-5.07,11.47-7.69,3.51-2.44,7.12-4.76,11.51-6.26,1.18-.4,2.53-.51,3.81-.76.12.13.23.27.35.4-.85.83-1.72,1.65-2.56,2.49-4.9,4.93-10.83,9.15-16.57,13.51-1.43,1.08-2.78,2.26-3.92,3.51-2.81,3.09-6.16,5.79-9.74,8.38-4.39,3.17-8.69,6.43-12.88,9.75-1.56,1.24-2.54,2.89-4.09,4.14-2.23,1.82-4.52,3.66-7.15,5.11-4.54,2.49-8.09,5.68-11.95,8.67-2.78,2.14-5.46,4.39-8.51,6.3-5.05,3.16-8.89,6.94-11.3,11.49-1.38,2.62-1.67,5.42-1.62,8.38,2.97.19,5.57.03,8.11-.83,3.14-1.07,5.77-2.65,8.37-4.31,1.76-1.12,3.69-2.18,5.78-2.9,3.65-1.25,6.28-3.39,9.1-5.36,2.21-1.54,4.25-3.22,6.3-4.89,3.01-2.45,6.71-4.16,10.56-5.75,4.93-2.04,9.96-3.99,14.57-6.39,3.23-1.68,6.11-3.87,8.63-6.16,4.03-3.67,9.03-6.36,14.27-8.89,5.55-2.68,11.23-5.21,16.59-8.1,2.72-1.46,4.88-3.52,7.22-5.37,6.05-4.77,12.73-9.01,19.35-13.31,6.1-3.96,12.04-8.06,18.07-12.08,1.59-1.06,3.25-2.06,5.17-3.28.15.68.33,1.13.33,1.58.02,4.75,0,9.5.02,14.26,0,.89-.12,1.67-.95,2.43-2.23,2.02-4.5,4.04-6.4,6.23-5.17,5.96-11.5,11.2-17.86,16.43-4.94,4.07-8.53,8.84-12.35,13.5-3.03,3.69-5.35,7.77-9.63,10.86-.79.57-1.14,1.46-1.87,2.09-.77.68-1.75,1.23-2.44,1.7-.55.8-.88,1.61-1.55,2.2-4.5,3.99-9.24,7.83-13.06,12.22-4.3,4.93-8.31,9.99-12.58,14.93-2.32,2.69-4.93,5.24-7.37,7.87-.99,1.07-1.87,2.19-2.8,3.29h-159.69Z"/>
    <path class="cls-1" d="M1.94,445.08c.59-.22,1.27-.36,1.77-.67,3.61-2.23,7.43-4.2,11.51-5.94,2.78-1.18,5.38-2.63,7.88-4.13,4.04-2.42,8.33-4.51,12.79-6.47,3.43-1.51,6.7-3.24,9.45-5.47,2.45-1.99,5.28-3.63,8.43-5,4.96-2.16,9.53-4.73,13.97-7.48,4.19-2.6,8.77-4.84,13.17-7.24,1.89-1.03,3.76-2.08,5.66-3.09,2.22-1.18,4.4-2.41,6.7-3.5,3.95-1.88,7.79-3.87,11.07-6.39,3.8-2.92,8.62-4.71,13.18-6.79,3.18-1.45,6.18-3.02,8.78-5.04,3.41-2.65,7.47-4.63,11.65-6.54,3.72-1.7,7.13-3.77,10.74-5.62,4.82-2.47,9.87-4.69,14.5-7.35,5.23-3,11.09-5.11,16.73-7.55,2.1-.91,4.22-1.86,6.03-3.05,3.48-2.29,7.47-3.9,11.52-5.52,4.46-1.78,8.75-3.8,13.11-5.71,3.6-1.58,7.26-3.11,10.79-4.77,1.81-.85,3.34-2.02,5.11-2.92,2.65-1.34,5.26-2.79,8.14-3.79,3.92-1.36,7.69-2.91,10.85-5.04,5.42-3.64,11.56-6.4,17.8-9.11,6.47-2.82,12.88-5.7,19.22-8.67,2.29-1.07,4.18-2.64,6.47-3.7,3.47-1.6,7.15-2.94,10.71-4.44,1.94-.82,3.86-1.69,5.71-2.63,6.51-3.33,12.97-6.71,19.47-10.05,4.01-2.06,8.04-4.09,12.06-6.14,1.43-.73,2.68-.68,3.93.58-.58.48-1.02,1.11-1.72,1.37-6.1,2.29-10.67,5.98-15.65,9.32-3.31,2.21-6.58,4.45-10.36,6.26-1.94.93-3.38,2.43-5.1,3.64-1.54,1.08-3.09,2.17-4.73,3.16-3.14,1.89-6.38,3.69-9.53,5.58-2.4,1.44-4.62,3.07-7.1,4.43-2.69,1.49-5.56,2.8-8.39,4.13-4.1,1.92-7.77,4.21-11.36,6.64-2.97,2.02-6.53,3.56-9.9,5.22-2.32,1.14-5.14,1.85-7.1,3.25-3.29,2.36-7.03,4.26-10.54,6.38-2.09,1.26-4.48,2.24-6.67,3.41-2.56,1.37-5.02,2.85-7.59,4.22-2.29,1.22-4.56,2.52-7.05,3.48-3.29,1.27-5.98,3.06-8.64,4.91-3.29,2.29-7.03,4.07-10.94,5.7-2.78,1.17-5.42,2.54-8.06,3.89-2.74,1.4-5.25,3-7.75,4.65-2.95,1.94-6.64,3.25-9.87,4.97-2.88,1.53-5.57,3.27-8.38,4.88-.83.48-1.78.83-2.66,1.25-.4.19-.81.38-1.17.61-2.44,1.53-4.88,3.07-7.29,4.63-2.54,1.64-5,3.35-7.56,4.97-1.55.99-3.11,2.02-4.86,2.77-5,2.16-9.15,5.01-12.89,8.26-2.02,1.75-4.57,3.03-7.14,4.33-3.38,1.7-6.74,3.56-9.48,5.78-1.55,1.26-3.72,2.15-4.65,4.01-.57,1.14-2.46,1.94-3.85,2.81-1.92,1.2-3.9,2.35-5.9,3.49-3.8,2.16-7.2,4.6-10.31,7.33-2.49,2.2-5.54,3.97-8.8,5.65-3.56,1.83-7.15,3.87-9.93,6.52-1.25,1.19-2.69,2.3-4.23,3.28-3.81,2.44-7.73,4.78-11.58,7.18-.59.37-1.07.84-1.6,1.26H1.94c0-1.48,0-2.93,0-4.39Z"/>
    <path class="cls-1" d="M353.49,449.47c1.34-.94,2.67-1.89,4.02-2.81,1.44-.99,3.09-1.83,4.3-2.95,3.7-3.42,8.64-5.62,13.42-7.99,2.75-1.36,5.4-2.84,8.12-4.24,5.13-2.64,10.24-5.3,15.42-7.88,3.96-1.97,7.92-3.95,12.06-5.69,5.52-2.33,10.85-4.76,15.5-8.07,2.5-1.78,5.75-2.96,8.63-4.44,3.04-1.56,6.08-3.13,9.09-4.73,3.89-2.06,7.71-4.18,11.62-6.21,5.76-2.99,11.43-6.09,17.39-8.83,5.51-2.53,10.53-5.46,15.44-8.58,3.17-2.01,6.97-3.46,10.44-5.21,3.46-1.75,6.84-3.59,10.29-5.35,3.62-1.84,7.33-3.58,10.92-5.45,5.35-2.79,10.72-5.56,15.93-8.5,4.66-2.62,9.06-5.49,13.66-8.18,2.68-1.57,5.57-2.94,8.28-4.49,2.56-1.45,5.28-2.82,7.44-4.56,4.44-3.57,9.62-6.32,15.14-8.83,3.81-1.73,7.24-3.93,10.96-5.79,5.33-2.67,10.94-5.05,16.09-7.89,5.83-3.22,12.36-5.53,18.32-8.53,2.74-1.38,5.29-2.97,8.08-4.29,1.62-.76,3.51-1.22,5.33-1.72,1.01-.28,1.95-.14,2.18,1.01-.2.17-.45.5-.82.7-4.17,2.19-7.44,5.09-11.05,7.72-1.79,1.31-3.88,2.46-6.07,3.37-5.33,2.21-9.71,5.31-14.34,8.19-2.84,1.76-5.79,3.46-8.89,4.93-3.06,1.46-5.96,2.94-8.28,5.1-1.38,1.28-3.26,2.3-5.06,3.28-3.52,1.93-7.23,3.67-10.7,5.64-2.08,1.18-3.81,2.7-5.79,3.97-2.64,1.7-5.35,3.28-8.42,4.61-3.74,1.62-6.93,3.92-9.86,6.34-3.73,3.07-8.2,5.41-12.74,7.74-2.87,1.47-5.41,3.39-7.73,5.35-4.4,3.72-9.35,6.89-14.94,9.56-2.25,1.08-4.25,2.57-5.98,4.11-4.34,3.87-9.23,7.27-14.69,10.22-4.05,2.19-6.9,5.29-10.47,7.83-2.44,1.74-4.97,3.45-7.7,4.93-4.31,2.33-8.23,4.97-12.01,7.76-2.27,1.67-4.85,3.1-7.29,4.63-3.19,2.01-6.38,4.01-9.56,6.02-3.24,2.06-6.5,4.1-9.69,6.21-2.7,1.78-5.3,3.64-7.95,5.45-5.44,3.72-10.96,7.37-16.29,11.18-2.27,1.62-4.14,3.56-6.18,5.36h-55.57Z"/>
    <path class="cls-1" d="M1.94,267.78c7.18-3.17,14.96-5.55,21.29-9.83,3.36-2.27,7.52-3.87,11.24-5.87,6.89-3.69,13.66-7.5,20.58-11.16,3.41-1.8,7.05-3.37,10.56-5.06.9-.43,1.86-.85,2.59-1.41,4.3-3.37,9.62-5.63,14.8-8.1,6.63-3.16,12.91-6.74,19.42-10.06,3.37-1.72,6.8-3.39,10.38-4.84,3.36-1.35,6.51-2.87,9.46-4.68,1.94-1.19,4.08-2.22,6.2-3.24,4.48-2.18,8.89-4.47,13.54-6.42,6.32-2.65,11.75-6.22,17.77-9.16,4.83-2.36,9.42-4.88,13.7-7.78,2.21-1.5,5-2.51,7.5-3.76,3.16-1.57,6.29-3.17,9.45-4.75,2.83-1.41,5.68-2.81,8.51-4.21,1.05-.52,2.09-1.05,3.15-1.56,3.44-1.64,6.85-3.34,10.36-4.9,3.93-1.74,7.82-3.48,11.1-5.93,2.84-2.12,6.34-3.4,10.11-4.46,2.14-.6,3.85-2.16,5.63-3.39,1.57-1.08,2.93-2.34,4.47-3.45,1.28-.93,2.75-1.63,4.83-1.5.47.99-.39,1.57-1.15,2.21-4.07,3.44-8.38,6.67-13.42,9.34-3.43,1.82-6.24,4.16-8.69,6.74-2.57,2.7-5.88,4.84-9.25,6.95-2.31,1.44-4.61,2.93-6.63,4.58-2.87,2.34-6.27,4.14-9.8,5.81-3.31,1.57-6.27,3.34-8.92,5.56-2.51,2.09-5.56,3.89-8.67,5.49-3.54,1.82-6.89,3.75-10.1,5.89-2.89,1.93-6.18,3.52-9.29,5.26-7.33,4.09-14.65,8.2-22,12.27-3.28,1.82-6.56,3.63-9.95,5.33-2.44,1.22-4.72,2.54-6.72,4.16-3.27,2.65-7.31,4.57-11.28,6.56-2.42,1.21-4.68,2.59-7,3.91-3.26,1.84-6.54,3.66-9.74,5.55-3.21,1.89-6.4,3.8-9.48,5.81-8.44,5.51-16.82,11.07-25.21,16.62-3.36,2.22-6.54,4.6-10.05,6.67-4.9,2.89-9.7,5.84-14.23,9.07-2.45,1.75-5.39,3.11-8.06,4.69-1.9,1.13-3.92,2.2-5.54,3.54-3.8,3.15-7.96,5.98-12.26,8.74-2.41,1.55-4.36,3.51-6.54,5.27-.85.68-1.77,1.32-2.67,1.97,0-10.83,0-21.65,0-32.48Z"/>
    <path class="cls-1" d="M1.94,392.86c.57-.19,1.34-.25,1.69-.58,2.76-2.55,6.4-4.22,10-5.97,3.5-1.7,6.89-3.55,10.28-5.37,3.87-2.08,7.69-4.21,11.54-6.3,3.39-1.84,6.76-3.69,10.19-5.48,2.07-1.08,4.26-2.04,6.36-3.1,3.22-1.63,6.59-3.14,9.54-5.01,3.82-2.43,7.91-4.49,12.37-6.15,4.21-1.57,7.99-3.59,11.74-5.7,4.35-2.45,8.88-4.72,13.33-7.07.72-.38,1.49-.69,2.2-1.07,8.67-4.57,17.31-9.18,26.03-13.7,2.23-1.15,4.67-2.08,7.07-3.04,4.04-1.62,7.95-3.34,11.61-5.45,3.22-1.86,6.79-3.39,10.19-5.08,3.48-1.73,6.89-3.54,10.44-5.19,2.96-1.38,6.13-2.51,9.09-3.9,3.54-1.66,6.88-3.55,10.45-5.17,3.48-1.58,7.15-2.93,10.72-4.4,3.49-1.43,6.97-2.89,10.46-4.32,2.65-1.08,5.28-2.19,7.99-3.17.76-.28,1.8-.13,2.59-.17.62,1.02.29,1.47-.68,2.01-6.94,3.88-13.84,7.8-20.68,11.77-2.45,1.42-4.95,2.87-7.01,4.59-4.22,3.51-9.35,6.12-14.43,8.81-2.13,1.13-4.25,2.32-6.11,3.68-3.93,2.87-8.19,5.39-12.97,7.4-4.11,1.73-7.54,4.09-11.1,6.37-5.02,3.22-10.36,6.15-15.5,9.26-6.96,4.21-13.84,8.49-20.8,12.69-3.55,2.15-7.28,4.14-10.81,6.3-3.54,2.17-6.88,4.51-10.4,6.7-3.36,2.09-6.69,4.24-10.3,6.06-3.74,1.89-7.29,3.92-10.28,6.43-3.16,2.65-6.92,4.71-10.82,6.62-3.77,1.85-7.09,4.05-10.42,6.3-2.88,1.95-5.89,3.8-8.88,5.66-3.73,2.33-7.53,4.6-11.24,6.95-3.72,2.35-7.41,4.73-11.03,7.17-3.34,2.24-6.56,4.57-9.87,6.84-.78.53-1.7.95-2.55,1.42,0-9.22,0-18.43,0-27.65Z"/>
    <path class="cls-1" d="M1.94,104.53c7.04-2.44,14.2-4.75,19.96-8.81,3.77-2.66,7.91-4.93,12.37-6.88,4.8-2.1,9.26-4.53,13.3-7.42,4.74-3.39,10.4-5.85,16.03-8.3,3.77-1.64,7.69-3.09,11.56-4.6,2.14-.84,4.23-1.81,6.49-2.4,3.48-.91,6.02-2.68,8.23-4.7,3.89-3.56,8.58-6.31,13.83-8.62,4.29-1.89,8.18-4.19,11.67-6.85,4.53-3.45,9.59-6.36,14.97-9.04,3.96-1.96,7.67-4.25,11.25-6.59,4.88-3.18,10.55-5.38,16.07-7.8,4.6-2.01,9.17-4.07,13.78-6.08,1.31-.57,2.68-1.05,4.31-1.25-1.49,1.36-2.95,2.75-4.49,4.08-3.15,2.72-5.97,5.55-8.38,8.72-2.31,3.03-5.67,5.65-8.84,8.27-4.7,3.87-9.52,7.67-14.54,11.3-2.71,1.96-5.19,4.17-8.75,5.43-1.56.56-2.7,1.75-4.19,2.48-5.53,2.69-8.52,7.16-13.18,10.47-4.12,2.92-8.56,5.54-12.94,8.22-2.68,1.63-5.16,3.36-7.36,5.41-2.07,1.92-4.69,3.61-7.43,5-5.75,2.92-10.75,6.46-15.8,9.97-2.13,1.48-4.22,3.17-6.77,4.07-2.79.99-4.45,2.84-6.97,3.99-2.47,1.12-4.57,2.68-6.88,4-3.67,2.11-7.26,4.32-11.1,6.25-3.31,1.66-6.33,3.52-9.16,5.6-2.71,1.99-5.6,3.85-8.45,5.72-1.89,1.24-3.86,2.36-6.31,3.01-1.3.34-2.43,1.11-3.54,1.78-2.94,1.78-5.82,3.61-8.73,5.42,0-9.95,0-19.9,0-29.84Z"/>
    <path class="cls-1" d="M1.94,38.7c.8-.39,1.72-.68,2.38-1.17,4.53-3.33,8.87-6.82,13.56-10.02,2.32-1.58,5.26-2.65,7.95-3.92,3.18-1.49,6.47-2.87,9.6-4.42,4.34-2.15,8.53-4.46,12.87-6.61,2.34-1.16,4.8-2.18,7.27-3.18,4.4-1.78,8-4.41,12.14-6.46,3.11-1.54,6.27-3.06,10.34-2.85,3.16.16,6.35.03,9.69.4-2.09,1.13-4.17,2.27-6.28,3.38-4.16,2.17-7.98,4.56-11.23,7.54-1.64,1.51-3.57,2.93-5.55,4.29-2.43,1.66-5.04,3.11-7.52,4.7-5.1,3.27-10.1,6.63-15.2,9.89-2.02,1.3-4.29,2.38-6.31,3.68-2.59,1.67-5.53,3.22-7.39,5.3-1.25,1.4-2.44,2.76-4.1,3.88-.54.37-1.15.7-1.77,1-2.34,1.15-4.65,2.34-7.06,3.4-1.24.55-2.72.78-3.99,1.29-3.17,1.27-6.28,2.61-9.42,3.92,0-4.68,0-9.36,0-14.04Z"/>
    <path class="cls-1" d="M1.94,238.82c.9-.18,1.92-.22,2.69-.56,4.59-2.04,9.13-4.16,13.69-6.24,1.24-.57,2.46-1.18,3.77-1.66,4.19-1.51,8.49-2.87,12.61-4.48,2.39-.94,4.64-2.13,6.73-3.41,6.72-4.1,13.93-7.6,21.68-10.5,5.46-2.05,10.76-4.33,16.15-6.49,3.16-1.27,6.34-2.51,9.55-3.72.52-.2,1.22-.12,2.16-.2-1.12,2.11-2.53,3.73-4.38,5.15-2.84,2.18-5.72,4.33-8.48,6.57-2.06,1.67-3.95,3.46-5.92,5.2-.13.11-.22.25-.38.33-2.55,1.25-5.15,2.44-7.65,3.75-1.94,1.02-3.77,2.16-5.63,3.26-.14.08-.15.33-.28.36-3.09.74-5.07,2.57-7.38,4.09-1.47.97-3.85,1.56-4.54,2.74-1.36,2.33-4.58,2.47-6.6,3.91-.72.52-1.91.65-2.82,1.04-1.56.68-3.3,1.25-4.52,2.19-1.13.87-2.77,1.24-3.67,2.28-.04.05-.71-.2-1.36-.39.38,1.54-1,2.16-2.38,2.77-1.83.82-3.6,1.73-5.5,2.43-3.48,1.28-6.52,3.06-9.8,4.56-1.11.51-2.41.92-3.19,1.64-1.24,1.13-3.07,1.33-4.55,2.04,0-5.56,0-11.12,0-16.68Z"/>
    <path class="cls-1" d="M285.05,449.47c1.04-.73,1.95-1.62,3.14-2.17,5.67-2.59,10.53-5.9,15.33-9.3,2.74-1.94,5.98-3.47,8.95-5.23,3.96-2.34,7.83-4.78,11.83-7.08,4.16-2.39,8.45-4.65,12.66-6.99,4.2-2.34,8.36-4.71,12.56-7.06,5.03-2.81,9.81-5.93,16.11-7.57,0,.4.13.73-.02.93-1.87,2.42-4.29,4.47-7.26,6.2-1.33.77-2.55,1.75-3.47,2.8-4.19,4.76-7,10.06-10.53,15.08-2.75,3.91-6.33,7.49-9.43,11.27-2.29,2.79-4.39,5.65-6.56,8.49-.12.16-.02.42-.02.64h-43.29Z"/>
    <path class="cls-1" d="M1.94,185.72c1.76-.89,3.53-1.77,5.28-2.68,2.16-1.12,4.29-2.26,6.44-3.39,3.98-2.09,7.91-4.23,11.96-6.24,3.3-1.64,6.79-3.07,10.1-4.7,2.83-1.4,5.75-2.77,8.24-4.47,3.19-2.16,6.89-3.62,10.75-4.75,6.66-1.95,12.19-5.07,17.63-8.41,2.55-1.56,5.28-3.01,8.14-4.23,4.72-2.02,9.6-3.82,14.42-5.7,1.4-.55,2.83-1.11,4.28.26-1.09,1.72-3.15,2.86-4.87,4.17-7.59,5.8-16.67,10.26-25.06,15.34-5.67,3.43-11.72,6.51-17.51,9.84-3.32,1.9-6.38,4.05-9.7,5.95-2.7,1.54-5.53,2.97-8.44,4.28-3.9,1.76-7.08,4.09-9.99,6.65-3.76,3.31-8.31,5.89-12.92,8.45-2.34,1.3-4.47,2.8-6.71,4.2-.67.42-1.37.82-2.05,1.23,0-5.27,0-10.53,0-15.8Z"/>
    <path class="cls-1" d="M464.63,449.47c.22-.31.35-.7.69-.91,4.86-3.03,9.61-6.16,14.66-9,6.68-3.76,13.43-7.49,20.47-10.84,7.78-3.71,15.84-7.09,23.93-10.4,4.83-1.97,9.27-4.26,13.13-7.18,2.53-1.91,5.67-3.01,8.92-3.98.68-.2,1.49-.18,2.16-.26,1.07,1.08,1.1,1.86-.13,2.78-3.29,2.47-6.61,4.94-9.6,7.61-2.79,2.49-6.02,4.59-9.46,6.48-5.01,2.75-8.86,6.3-12.91,9.74-2.57,2.18-5.12,4.36-7.8,6.47-2.95,2.31-6.08,4.5-9.01,6.82-.96.76-1.54,1.78-2.3,2.68h-32.76Z"/>
    <path class="cls-1" d="M1.94,73.81c1.42-.74,2.87-1.44,4.26-2.21,6.31-3.52,12.24-7.34,17.73-11.59,2.2-1.7,4.93-3.12,7.71-4.26,5.69-2.34,10.42-5.52,15.25-8.7,4.06-2.69,8.69-4.89,13.11-7.27,2.52-1.36,5.24-2.52,7.65-3.97,3.6-2.16,7.6-3.8,11.57-5.5,2.67-1.15,5.27-2.39,8.35-3.79-2.15,2.42-4.5,4.24-7.01,5.88-5.79,3.78-11.25,7.77-16.12,12.25-2.55,2.34-5.63,4.39-8.73,6.34-3.8,2.39-7.39,4.89-10.73,7.65-2.52,2.09-5.6,3.84-8.64,5.53-5.73,3.18-11.18,6.57-16.29,10.3-4.11,3-8.6,5.71-12.91,8.56-1.75,1.16-3.46,2.35-5.18,3.52,0-4.24,0-8.48,0-12.73Z"/>
    <path class="cls-1" d="M1.94,12.37c4.04-2.19,8.26-4.23,12.05-6.65,1.57-1,3.93-1.57,4.53-3.36C21.06,1.59,22.82-.18,26.2.02c5.72.34,11.49.09,17.24.09.95,0,1.89,0,3.5,0-.93.66-1.31,1.05-1.83,1.27-3.01,1.33-6.09,2.56-9.06,3.93-3.71,1.72-7.39,3.47-10.97,5.33-5.62,2.92-11.68,5.22-17.89,7.33-1.77.6-3.51,1.24-5.26,1.85,0-2.49,0-4.97,0-7.46Z"/>
    <path class="cls-1" d="M138.81,449.47c2.85-1.85,5.68-3.71,8.55-5.55,3.42-2.19,6.84-4.38,10.3-6.54.88-.55,2-.88,2.88-1.43,5.93-3.71,13.1-5.9,19.57-8.95,2.18-1.03,4.79-1.57,7.25-2.23.93-.25,1.99-.21,3-.3.09.16.18.32.27.48-1.96,1.13-3.93,2.26-5.88,3.4-1.69.99-3.64,1.83-4.97,3.05-4.31,3.94-9.54,7.16-14.33,10.72-3.07,2.28-6.06,4.64-8.49,7.35h-18.13Z"/>
    <path class="cls-1" d="M800.77.11v5.26c-4.51,2.01-9.19,4.09-13.85,6.19-6.66,3.01-13.32,6.02-19.95,9.07-6.79,3.13-13.59,6.24-20.29,9.47-3.75,1.81-7.27,3.9-10.97,5.77-5.56,2.81-11.17,5.58-16.82,8.3-3.5,1.69-7.18,3.19-10.64,4.92-2.42,1.21-4.53,2.77-6.95,3.97-3.73,1.85-7.67,3.45-11.41,5.28-5.61,2.75-11.08,5.67-16.69,8.43-7.65,3.75-15.39,7.4-23.06,11.12-2.2,1.07-4.31,2.25-6.48,3.37-3.84,1.98-7.52,4.17-11.59,5.86-6.51,2.7-12.31,6.15-18.48,9.2-5.28,2.61-10.59,5.19-15.95,7.71-2.55,1.19-5.31,2.12-7.88,3.29-2.66,1.21-5.34,2.43-7.75,3.89-3.72,2.25-7.61,4.28-11.87,5.89-5.68,2.15-10.59,5.18-15.86,7.79-6.5,3.21-12.92,6.51-19.4,9.74-1.29.65-2.63,1.26-4.03,1.76-4.06,1.45-7.64,3.43-11.24,5.43-3.35,1.86-6.98,3.43-10.53,5.08-5.53,2.57-11.13,5.06-16.64,7.64-3.71,1.74-7.36,3.55-10.98,5.38-3.22,1.63-6.19,3.59-9.59,4.96-6.22,2.51-11.65,5.73-16.87,9.23-1.37.92-3.04,1.57-4.55,2.37-5.02,2.63-10.02,5.28-15.05,7.9-3.67,1.91-7.4,3.76-11.08,5.66-7.36,3.81-14.72,7.63-22.05,11.48-.77.41-1.27,1.1-2.02,1.54-3.16,1.82-6.19,3.8-9.59,5.32-5.51,2.48-10.97,4.97-16.08,7.91-3.61,2.08-7.65,3.73-11.32,5.77-8.29,4.6-17.61,8.09-25.41,13.21-4.73,3.11-10.41,5.07-15.69,7.51-.83.38-1.7.73-2.43,1.2-5.7,3.67-12.02,6.68-18.23,9.83-6.52,3.31-12.75,6.94-19.07,10.47-3.11,1.74-6.12,3.57-9.24,5.31-.92.51-2,.92-3.09,1.18-.48.12-1.43-.13-1.7-.44-.29-.33-.28-1.19.04-1.37,5.32-3.02,8.41-7.69,13.92-10.52,6.38-3.27,11.77-7.4,17.55-11.19,2.56-1.68,5.38-3.14,8.04-4.72,5.18-3.09,10.27-6.26,15.52-9.27,3.05-1.75,6.05-3.54,8.85-5.49,4.36-3.04,9.06-5.75,14.01-8.22,3.25-1.62,6.03-3.65,8.71-5.73,2.92-2.27,6.14-4.21,9.55-6.04,3.78-2.03,7.47-4.23,10.76-6.69,4.02-3.01,8.55-5.48,13.04-8.02,2.94-1.66,5.84-3.4,8.5-5.31,4.32-3.09,9.16-5.64,14.03-8.18,1.35-.71,2.61-1.52,3.89-2.31,3.85-2.35,7.68-4.72,11.54-7.06,3.48-2.11,6.94-4.23,10.5-6.27,3.16-1.81,6.5-3.45,9.64-5.28,2.75-1.6,5.55-3.21,7.95-5.09,4.09-3.19,8.84-5.7,13.62-8.22,2.53-1.34,4.97-2.83,7.14-4.48,3.84-2.93,7.98-5.52,12.55-7.8,3.55-1.76,6.9-3.81,9.98-6.02,4.32-3.09,9.26-5.55,13.87-8.34,9.39-5.68,18.6-11.51,27.9-17.27,1.95-1.21,3.88-2.44,5.94-3.53,4.01-2.11,7.61-4.59,10.79-7.35,3.41-2.96,7.42-5.34,11.47-7.74,3.19-1.89,6.28-3.92,9.15-6.08,3.32-2.51,7.02-4.61,10.93-6.53,4.57-2.24,8.77-4.81,12.66-7.7,1.98-1.47,4.36-2.71,6.8-3.75,5.45-2.31,10.32-5.21,15.28-8.04,2.93-1.67,6.11-3.1,8.99-4.82,3.72-2.22,7.21-4.67,10.9-6.94,2.03-1.25,4.34-2.23,6.36-3.48,3.06-1.9,5.98-3.93,8.95-5.91,2.68-1.78,5.34-3.59,8.03-5.36.85-.56,1.76-1.06,3.19-1.91-2.55-.11-4.34.12-5.93.67-5.76,2.01-11.86,3.25-17.91,4.58-5.13,1.13-9.55,3.22-13.83,5.48-5.14,2.71-10.13,5.59-15.27,8.3-4.99,2.63-10.08,5.17-15.16,7.7-2.42,1.21-4.84,2.44-7.41,3.44-3.8,1.48-7.37,3.2-10.54,5.33-6.29,4.23-13.62,7.2-21.03,10.13-2.99,1.18-5.81,2.65-8.58,4.11-5.47,2.89-11.01,5.66-17.01,7.92-2.67,1-5.14,2.3-7.7,3.46-2.84,1.28-5.56,2.74-8.54,3.78-6.48,2.26-12.34,5.15-17.97,8.45-3.64,2.13-7.84,3.75-11.94,5.39-4.98,1.99-9.87,4.02-14.38,6.61-5.01,2.88-10.37,5.41-15.55,8.12-1.75.92-3.49,1.85-5.09,2.9-5.81,3.82-12.32,6.86-18.91,9.83-1.58.71-3.21,1.43-4.53,2.38-6.53,4.7-14.26,8.03-22.08,11.3-2.7,1.13-5.28,2.48-7.65,3.96-5.53,3.47-11.15,6.83-17.37,9.59-1.75.78-3.45,1.67-5,2.65-4.62,2.94-9.83,5.22-14.88,7.68-3.74,1.82-7.47,3.68-11.02,5.71-4.64,2.66-9.47,5.05-14.68,7.06-5.79,2.23-11.28,4.8-16.29,8.01-4.58,2.93-9.92,5.09-15.25,7.21-1.02.41-1.93.97-2.9,1.45-4.13,2.03-8.26,4.06-12.41,6.07-.36.18-.86.2-1.47.07.67-.47,1.33-.95,2.02-1.41,4.86-3.25,9.52-6.69,14.63-9.69,6.44-3.79,12.21-8.08,18.15-12.26,3.09-2.17,6.79-3.86,10.24-5.74,4.46-2.43,8.9-4.89,12.15-8.3,2.66-2.78,6.15-4.87,9.84-6.76,5.98-3.06,11.64-6.35,16.05-10.73,2.83-2.81,6.32-5.06,10.45-6.83,5.99-2.57,11.82-5.32,16.64-9.16,3.61-2.88,8.07-5.01,12.42-7.24,4.64-2.37,9.03-5.01,13.52-7.55,5.03-2.84,10.14-5.61,15.04-8.58,3.92-2.37,7.55-5.03,11.38-7.49,2.87-1.84,5.94-3.51,8.8-5.36,2.77-1.79,5.44-3.68,8.06-5.6,4.99-3.66,9.39-7.72,15.19-10.8,5.84-3.1,11.08-6.77,16.27-10.5,3.53-2.53,7.96-4.4,12.16-6.36,4.39-2.04,8.79-4.06,12.45-6.81,3.09-2.33,6.39-4.42,10.11-6.19,4.17-1.99,8.24-4.1,12.21-6.29,2.64-1.46,4.97-3.22,7.57-4.73,4.68-2.72,9.57-5.24,14.14-8.06,3.5-2.16,6.64-4.66,9.95-7,1.76-1.24,3.54-2.47,5.33-3.7,6.09-4.18,12.02-8.49,18.33-12.46,3.53-2.22,7.67-3.89,11.61-5.72.66-.31,1.71-.2,2.58-.2,26.12.02,52.25.08,78.37.07,33.53,0,67.06-.05,100.59-.08,1.24,0,2.49,0,3.89,0Z"/>
    <path class="cls-1" d="M150.69,123.84c.48-.57.79-1.36,1.48-1.69,6.48-3.14,11.11-7.63,15.91-12.02,2.9-2.65,6.16-4.99,10.04-6.91,3.05-1.51,5.87-3.35,8.46-5.3,3.9-2.94,8.11-5.52,12.59-7.94,4.17-2.24,8.16-4.69,12.03-7.21,5-3.26,10.36-6.14,15.63-9.13,3.79-2.15,7.29-4.59,10.94-6.88,3.89-2.43,7.85-4.79,11.71-7.24,3.64-2.31,7.08-4.79,10.81-7.01,3.58-2.13,7.43-4,11.11-6.03,3.21-1.77,6.23-3.68,8.86-5.98,2.42-2.11,5.25-3.96,7.92-5.91.26-.19.68-.29,1.05-.34.98-.15,1.74-.36,2.18-1.19.24-.45,1.1-.79,1.78-1.04,3.24-1.2,5.58-3.17,7.91-5.14,2.18-1.85,4.15-3.89,6.58-5.54,2.63-1.79,5.64-3.29,8.57-4.82,3.09-1.62,6.02-3.34,8.6-5.42,1.87-1.51,3.31-3.17,4.74-4.92,1.41-1.73,3.52-3.17,5.48-4.63,1.68-1.25,3.88-1.47,6.2-1.46,25.34.03,50.68.02,76.02.02,3.97,0,7.94,0,11.91,0,.08.14.16.28.24.42-3.61,1.76-7.09,3.71-10.87,5.25-6.74,2.74-13.05,5.94-19.28,9.27-3.2,1.72-6.62,3.29-10.18,4.53-4.96,1.73-9.41,4.07-14.05,6.17-3.65,1.65-7.24,3.37-10.84,5.08-3.68,1.75-7.31,3.58-11.02,5.3-4.46,2.06-9,4.01-13.47,6.04-2.16.98-4.45,1.86-6.35,3.08-5.58,3.58-11.92,6.2-18.4,8.69-2.49.96-4.81,2.18-7.16,3.33-4.63,2.26-9.23,4.57-13.84,6.85-3.33,1.65-6.65,3.3-9.98,4.93-5.5,2.7-11.06,5.3-17.16,7.24-2.27.72-4.33,1.92-6.31,3.07-5.81,3.38-12.51,5.55-19.01,8-2.42.91-4.71,2.02-7.13,2.93-3.03,1.13-6.08,2.25-9.22,3.2-4.53,1.37-8.83,3.02-12.81,5.16-3.81,2.05-8.03,3.52-12.29,4.98-5.48,1.87-10.66,4.16-15.61,6.78-3.13,1.66-6.16,3.45-9.95,4.38-2.27.55-4.15,2.01-6.41,2.56-2.45.6-4.49,1.59-6.61,2.58-2.1.98-4.3,1.86-6.48,2.73-1.26.5-2.58.9-3.88,1.35-.15-.05-.29-.1-.44-.15Z"/>
    <path class="cls-1" d="M718.29,158.39c-.88.97-1.65,2.15-2.81,3.03-5.67,4.3-11.22,8.72-17.25,12.73-13.26,8.82-25.19,18.68-38.58,27.37-2.93,1.91-6.13,3.58-9.19,5.38-4.21,2.48-8.36,5-12.61,7.44-4.09,2.35-8.16,4.75-12.46,6.87-4.42,2.17-8.58,4.55-12.31,7.33-4.15,3.09-8.96,5.5-13.74,7.98-4.62,2.4-9.33,4.82-13.32,7.76-3.48,2.57-7.34,4.69-11.09,6.97-4.3,2.61-8.45,5.36-12.64,8.07-5.52,3.56-11.06,7.12-16.53,10.72-2.62,1.72-5.05,3.61-7.68,5.32-3.88,2.52-7.93,4.89-11.78,7.44-3.77,2.49-7.27,5.21-11.1,7.64-4,2.54-8.33,4.79-12.39,7.28-3.07,1.88-6.11,3.82-8.85,5.96-3.81,2.97-7.97,5.59-12.58,7.78-4.29,2.04-8.09,4.49-11.5,7.29-3.9,3.19-8.32,5.86-13.32,8.05-5.15,2.25-9.61,5.2-13.68,8.45-5.04,4.02-10.95,7.19-17.18,10.06-3.22,1.48-6.3,3.14-9.46,4.69-1.61.79-3.29,1.51-4.89,2.31-7.84,3.96-15.73,7.88-23.49,11.92-6.72,3.5-13.3,7.17-19.95,10.75-.62.34-1.33.58-2.37,1.03,2.18-3.61,3.77-7.13,6.33-10.2,2.07-2.47,5.21-4.46,8.07-6.52,3-2.15,6.29-4.08,9.32-6.21,1.25-.88,2.15-2.04,3.23-3.05,4.34-4.04,9.07-7.78,14.71-10.83,4.21-2.28,7.46-5.29,10.78-8.24,3.34-2.97,7.16-5.51,11.42-7.69,5.05-2.58,9.85-5.33,13.99-8.78,2.76-2.3,6.09-4.28,9.48-6.08,5.69-3.03,11.34-6.05,16.17-9.89,3.85-3.07,8.17-5.76,12.73-8.24,4.73-2.58,8.39-6.02,12.42-9.16,1.33-1.03,2.7-2.05,4.2-2.95,2.76-1.65,5.68-3.14,8.43-4.8,2.57-1.55,5.01-3.22,7.51-4.83,4.84-3.12,9.72-6.22,14.53-9.37,4.22-2.76,8.31-5.64,12.59-8.34,2.66-1.68,5.49-3.24,8.43-4.63,5.56-2.63,9.85-6.33,14.74-9.52,1.45-.95,2.89-1.93,4.47-2.75,2.46-1.28,5-2.46,7.55-3.64,3.46-1.59,6.61-3.45,9.55-5.56,3.08-2.2,6.37-4.24,9.7-6.22,1.92-1.14,4.11-2.04,6.17-3.05,4.52-2.22,8.61-4.84,12.83-7.35,4.47-2.66,9.16-5.12,13.79-7.64,3.35-1.82,6.72-3.63,10.12-5.4,2.38-1.24,4.67-2.68,7.27-3.56,5.05-1.71,9.07-4.42,12.99-7.18,3.14-2.22,6.6-4.04,10.27-5.63,5.97-2.58,11.76-5.29,17.13-8.59,3.63-2.23,7.87-3.99,12.11-5.54,3.62-1.32,6.72-3.13,9.98-4.81,1.68-.87,3.32-1.8,5.09-2.53,2.04-.84,2.71-.64,4.63,1.12Z"/>
    <path class="cls-1" d="M577.88,204.2c-.66-1.48-.2-2.25.89-3.09,2.97-2.3,6-4.6,8.59-7.14,4.2-4.14,8.85-7.92,14.13-11.28,2.06-1.31,3.82-2.89,5.82-4.26,3.47-2.4,6.16-5.35,9.7-7.67,3.21-2.1,6.8-3.89,9.98-6.02,2.79-1.87,5.41-3.92,7.83-6.07,2.81-2.5,5.49-5.06,8.91-7.16,3.78-2.32,7.41-4.78,11.04-7.23,1.87-1.26,3.64-2.59,5.39-3.94,6.7-5.15,14.06-9.75,21.45-14.32,5.7-3.52,11.5-6.96,17.25-10.43,3.23-1.95,6.3-4.02,9.21-6.23,1.54-1.17,3.3-2.19,5.06-3.18,5.68-3.19,11.19-6.49,15.7-10.68,3.95-3.67,8.65-6.8,13.97-9.34,5.23-2.5,9.46-5.82,13.22-9.42,2.33-2.23,5.24-3.85,8.18-5.48,2.7-1.5,5.68-2.73,8.3-4.31,2.17-1.31,4.1-2.88,5.92-4.46,3.16-2.73,6.8-4.93,11.04-6.67,3.8-1.56,7.41-3.37,11.31-5.17.05.56.15,1.11.15,1.65,0,13.24-.03,26.48.06,39.71.01,1.54-.72,2.45-2.34,3.17-3.01,1.34-6.05,2.64-8.99,4.06-1.99.96-3.89,2.05-5.74,3.17-4.78,2.88-9.81,5.43-15.4,7.37-4.66,1.62-9.08,3.59-13.35,5.76-6.03,3.08-12.18,6.01-18.3,8.99-4.07,1.98-8.14,3.96-12.25,5.88-1.4.65-2.93,1.15-4.4,1.71-4.71,1.78-8.99,4.04-13.09,6.52-1.59.96-3.31,1.82-5.09,2.56-6.38,2.65-12.72,5.31-18.6,8.6-5.92,3.32-12.12,6.36-18.16,9.57-1.58.84-3.1,1.77-4.45,2.8-3.59,2.76-7.99,4.63-12.36,6.55-4.21,1.85-8.15,3.94-11.82,6.37-3.95,2.62-8.63,4.48-13.38,6.18-5.11,1.84-9.73,4.17-14,6.99-3.84,2.53-8.02,4.74-12.36,6.8-4.17,1.99-8,4.39-12.02,6.55-1.42.76-2.95,1.42-4.49,2.04-.72.29-1.58.36-2.55.56Z"/>
    <path class="cls-1" d="M800.83,169.03v10.92c-3.09,2.1-5.89,4.11-8.85,5.98-2.31,1.45-4.7,2.87-7.27,4.02-4.11,1.85-7.89,3.92-11.29,6.49-2.51,1.9-5.54,3.4-8.34,5.09-4.01,2.42-7.9,4.96-12.04,7.25-5.72,3.15-11.38,6.34-16.61,9.95-1.78,1.22-3.91,2.18-5.98,3.13-3.5,1.61-6.73,3.45-9.53,5.71-3.82,3.08-8.66,5.15-13.22,7.51-1.97,1.02-3.77,2.24-5.61,3.4-3.05,1.92-6,3.92-9.11,5.78-4.86,2.91-9.72,5.84-14.76,8.56-7.89,4.25-15.98,8.3-23.9,12.52-2.84,1.51-5.32,3.39-8.13,4.93-3.99,2.19-8.16,4.2-12.21,6.33-1.83.96-3.79,1.86-5.31,3.05-3.19,2.52-6.98,4.39-10.74,6.34-3.99,2.07-7.86,4.28-11.76,6.46-2.81,1.57-5.51,3.24-8.36,4.76-6.49,3.46-13.05,6.84-19.54,10.3-1.49.79-2.89,1.71-4.18,2.68-3.76,2.82-8.29,4.83-12.67,7-2.59,1.29-5.04,2.72-7.58,4.06-3.18,1.67-6.35,3.36-9.59,4.96-7.85,3.89-15.7,7.79-23.64,11.59-5,2.39-10.17,4.57-15.22,6.89-2.32,1.06-4.67,2.12-6.78,3.39-4.91,2.95-10.6,4.85-16.14,6.95-3.88,1.47-7.74,2.96-11.96,4.18.53-.52,1.07-1.05,1.6-1.56,2.98-2.87,5.98-5.72,8.93-8.61,2.02-1.97,4.19-3.79,6.79-5.38,3.38-2.07,6.41-4.47,9.67-6.65,3.11-2.09,6.31-4.11,9.51-6.12,9.08-5.71,18.5-11.11,27.15-17.21,3.38-2.38,7.19-4.43,10.74-6.67,2.3-1.45,4.59-2.92,6.73-4.51,2.59-1.92,5.52-3.44,8.66-4.79,4.05-1.74,7.85-3.72,11.16-6.26,1.87-1.44,4.18-2.66,6.55-3.61,5.26-2.11,9.79-4.92,14.39-7.7,4.08-2.47,8.39-4.74,12.68-7,5.16-2.71,10.43-5.3,15.62-7.99,1.11-.57,2.14-1.26,3.03-2.02,3.47-2.95,8.03-4.81,12.22-7.05,2.76-1.47,5.64-2.91,7.93-4.74,3.19-2.55,7.07-4.3,10.8-6.26,3.34-1.75,6.59-3.59,9.91-5.36,2.46-1.3,4.96-2.55,7.46-3.81,4.18-2.09,8.31-4.26,12.6-6.23,3.72-1.71,7.7-3.09,11.4-4.81,2.8-1.3,5.23-3.05,8.03-4.34,3.55-1.63,7.32-2.98,10.98-4.49,1.19-.49,2.37-1.02,3.43-1.64,6.75-3.96,13.44-7.97,20.19-11.92,1.38-.81,2.85-1.54,4.38-2.18,4.21-1.74,7.96-3.91,11.27-6.51,2.98-2.35,6.47-4.21,10.2-5.8,3.93-1.67,7.04-4.1,10.59-6.12,2.75-1.56,5.68-2.96,8.55-4.41,2.87-1.45,5.76-2.88,8.66-4.31,2.66-1.31,5.33-2.59,8.54-4.15Z"/>
    <path class="cls-1" d="M800.93,215.95c0,1.83,0,3.2,0,4.57,0,11.26-.02,22.52.05,33.78,0,1.34-.49,2.28-1.79,3.23-5.23,3.83-10.79,7.33-16.62,10.64-5.17,2.94-9.9,6.32-15.03,9.3-6.21,3.61-12.67,6.98-18.95,10.52-3.57,2.01-6.97,4.2-10.53,6.22-5.88,3.35-11.84,6.62-17.74,9.94-1.16.66-2.27,1.38-3.33,2.12-4.13,2.9-8.8,5.26-13.46,7.64-3.11,1.59-6.08,3.41-8.79,5.38-3.8,2.76-7.92,5.15-12.27,7.38-4.73,2.43-9.13,5.22-13.88,7.63-9.82,4.98-19.26,10.4-29.77,14.6-.85.34-1.69.76-2.35,1.27-5.15,3.96-11.36,6.82-17.55,9.72-2.05.96-4,2.08-5.8,3.29-5.38,3.62-11.57,6.43-17.18,9.8-8.2,4.92-16.06,10.16-23.98,15.34-4.32,2.83-8.5,5.77-13.72,7.98-.73-.4-1.47-.81-2.26-1.25.78-1.8,2.22-3.1,3.84-4.22,4.66-3.24,8.49-7.01,12.54-10.64,1.79-1.61,3.88-3.06,6.05-4.4,4.59-2.83,9-5.74,12.79-9.22,2.61-2.4,6-4.33,9.08-6.43,3.95-2.7,7.92-5.38,11.91-8.04,4.5-2.99,9.05-5.93,13.55-8.92,1.6-1.06,3.08-2.22,4.66-3.3,5.36-3.7,10.77-7.37,16.09-11.1,3.12-2.19,6.03-4.54,9.2-6.69,2.22-1.51,4.77-2.74,7.08-4.19,3.5-2.2,6.82-4.57,10.41-6.68,4.12-2.43,8.48-4.62,12.69-6.97,1.55-.87,3.06-1.81,4.37-2.87,3.48-2.8,7.84-4.72,11.86-6.98,2.62-1.47,5.32-3.02,7.32-4.93,4.35-4.14,8.91-8.1,14.56-11.25,3.77-2.1,6.39-4.88,8.8-7.8,2.57-3.12,5.68-5.88,9-8.55,2.69-2.17,4.93-4.66,7.33-7.04,3.1-3.06,5.43-6.55,9.35-9.15,3.41-2.26,6.75-4.58,10.08-6.91,1.84-1.29,3.7-2.58,5.36-4,2.54-2.16,5.62-3.8,8.75-5.41,4.2-2.16,7.47-5.06,10.71-7.97,2.11-1.9,4.21-3.81,7.6-5.43Z"/>
    <path class="cls-1" d="M313.56.63c-7.58,4.06-15.16,8.11-22.73,12.18-1.42.76-2.76,1.62-4.2,2.36-4.48,2.32-8.9,4.7-13.5,6.87-4.29,2.03-8.51,4.07-12.12,6.79-3.72,2.8-8.11,5-12.62,7.01-4.28,1.91-8.21,4.13-12.01,6.54-4.15,2.63-8.48,5.12-12.8,7.6-3.7,2.13-7.47,4.2-11.28,6.22-5.22,2.78-10.54,5.47-15.76,8.26-3.24,1.74-6.26,3.71-9.57,5.37-3.62,1.82-7.52,3.32-11.19,5.09-3.1,1.5-6.25,3-8.98,4.84-4.62,3.09-9.89,5.39-15.11,7.79-2.81,1.29-5.54,2.69-8.28,4.07-5.57,2.8-11.15,5.59-16.66,8.45-2.88,1.49-5.55,3.21-8.45,4.68-3.86,1.96-7.89,3.73-11.78,5.67-3.31,1.65-6.72,3.25-9.72,5.19-4.5,2.9-9.03,5.69-14.34,7.75-5.54,2.15-10.47,5.01-15.43,7.83-1.72.97-3.59,1.69-5.8,1.93-1.13.12-2.21.32-2.78-.57-.55-.86-.79-1.81.19-2.65.51-.44,1-.9,1.56-1.3,3.13-2.28,6.46-4.43,9.39-6.84,3.22-2.66,7.3-4.48,10.82-6.82,4.42-2.94,8.65-6.04,12.98-9.06,1.41-.99,2.8-2.01,4.34-2.87,5.95-3.34,11.48-7,16.58-11.08,3.3-2.64,7.02-5.03,10.81-7.29,5.24-3.13,9.96-6.64,14.31-10.43,2.29-2,4.86-3.7,7.62-5.35,5.2-3.11,10.46-6.22,14.63-10.19,3.46-3.3,8.12-5.56,12.5-8.07,3.83-2.2,7.31-4.76,10.88-7.22,3.35-2.31,6.52-4.77,9.95-7.01,2.09-1.36,4.72-2.27,6.79-3.64,3.78-2.5,7.31-5.22,10.98-7.82,2.32-1.64,4.62-3.31,7.09-4.82,2.56-1.56,5.36-2.89,7.95-4.42,1.27-.75,2.32-1.71,3.43-2.61,1.78-1.45,3.54-2.91,5.26-4.39,3.52-3.04,7.72-5.51,11.96-7.94.69-.4,1.78-.54,2.69-.56,2.82-.07,5.65-.03,8.48-.03,16.86,0,33.72,0,50.58,0,1.05,0,2.09,0,3.14,0,.06.17.13.35.19.52Z"/>
    <path class="cls-1" d="M19.75,338.32c-1.25-.5-1.33-1.04-.61-1.53,1.83-1.26,2.84-2.91,3.92-4.52,1.14-1.69,1.99-3.5,3.31-5.1,1.32-1.6,2.92-3.09,4.63-4.47,4.24-3.41,8.66-6.7,12.94-10.08,3.98-3.14,8.17-6.01,13.76-7.51,4.01-1.08,7.14-3.2,10.16-5.37,2.17-1.56,4.09-3.33,6.27-4.89,1.69-1.2,3.54-2.29,5.46-3.28,6.44-3.31,12.65-6.8,17.51-11.47,1.07-1.03,2.14-2.06,3.18-3.11,2.9-2.91,6.94-4.87,10.68-7.06,4.86-2.86,9.2-6.07,12.97-9.74,2.16-2.1,4.79-3.83,7.92-5.1,7.39-3.01,14.22-6.59,20.23-11.05,1.85-1.37,4.19-2.38,6.16-3.67.71-.47,2.03.1,2.41-1.13.21-.66,1.97-1.05,3.03-1.56.98-.47,1.97-.94,2.93-1.43.96-.49,1.91-1,2.83-1.54.99-.59,1.95-1.21,2.91-1.83.88-.57,1.68-1.22,2.61-1.74,3.19-1.8,6.36-3.62,9.63-5.33,5.61-2.93,10.61-6.37,15.49-9.95,3.05-2.24,6.48-4.18,9.63-6.34,3.22-2.21,6.35-4.51,9.44-6.82,3.71-2.78,7.32-5.64,11.01-8.44.82-.62,1.74-1.17,2.68-1.69,5.95-3.33,11.16-7.26,16.03-11.43,3.23-2.77,6.99-5.1,11.06-7.1,5.67-2.78,10.53-6.23,15.24-9.81,2.63-2,5.62-3.56,8.77-5.02,2.15-.99,4.34-1.95,6.43-3.01.95-.48,1.9-1.06,2.55-1.75,1.38-1.47,3.18-2.53,5.15-3.5,8.28-4.1,16.7-8.06,24.75-12.41,8.28-4.48,16.44-9.12,24.17-14.11,6.07-3.92,12.49-7.42,19.06-10.82,2.86-1.48,5.42-3.33,7.86-5.21,3.7-2.85,7.88-5.17,12.44-7.16,4.84-2.11,9.78-4.17,13.79-7.14,4.84-3.59,10.78-5.9,16.48-8.53,4.54-2.1,8.64-4.7,13.09-6.92,5.43-2.7,11.01-5.23,16.54-7.83.14-.06.38,0,.68,0,.7.98,0,1.62-.97,2.17-3.64,2.06-7.31,4.09-10.94,6.15-2.92,1.66-6.03,3.11-8.7,5.04-2.19,1.58-4.82,2.81-7.25,4.21-.68.4-1.33.82-1.99,1.24-1.61,1.03-3.16,2.12-4.84,3.07-2.2,1.25-4.03,2.76-5.87,4.28-6.16,5.05-12.72,9.8-19.7,14.22-.88.56-1.76,1.13-2.52,1.78-1.41,1.2-2.59,2.55-4.89,2.98-.66.12-1.28.64-1.72,1.09-1.06,1.08-2.69,1.61-3.95,2.45-5.83,3.87-13.18,6.15-18.75,10.27-2.05,1.52-4.25,2.92-6.34,4.4-3.19,2.28-6.96,3.93-10.7,5.6-4.95,2.21-9.41,4.85-13.34,8.02-3.74,3.01-8.23,5.33-12.79,7.55-4.99,2.44-9.36,5.4-13.67,8.46-3.3,2.34-6.7,4.62-10.27,6.72-5.58,3.29-10.75,6.92-16.06,10.44-4.94,3.27-10.03,6.43-14.92,9.74-3.1,2.1-5.82,4.51-8.95,6.58-4.67,3.08-9.6,5.94-14.35,8.97-2.81,1.79-5.37,3.79-8.21,5.55-3.37,2.08-6.74,4.21-10.42,5.95-5.73,2.7-10.88,5.84-15.49,9.55-1.65,1.32-3.62,2.43-5.55,3.54-3.93,2.26-7.97,4.41-11.9,6.67-3.77,2.17-6.43,5.15-9.68,7.7-2.21,1.73-4.64,3.34-7.19,4.79-5.19,2.96-10.5,5.78-14.53,9.7-1.9,1.85-3.7,3.77-5.78,5.51-3.27,2.72-7.21,4.84-11.23,6.92-2.06,1.07-4.12,2.2-5.98,3.57-5.61,4.13-11.45,8.04-18.31,11.08-3.99,1.77-7.44,4.19-11.26,6.2-5.32,2.79-10.79,5.43-16.13,8.21-1.86.97-3.66,2.06-5.23,3.27-2.98,2.32-6.35,4.22-9.92,6-5.07,2.52-10.35,4.87-14.78,8.05-1.59,1.14-3,2.42-4.56,3.58-3.64,2.71-7.36,5.3-11.92,7.22-3.67,1.55-6.96,3.62-10.34,5.55-1.9,1.08-3.61,2.34-5.32,3.46Z"/>
    <path class="cls-1" d="M421.51,290.25c-.91.65-1.83,1.28-2.7,1.94-2.59,1.97-5.41,3.82-7.7,5.98-4.32,4.09-9.52,7.46-14.66,10.9-1.01.68-1.86,1.49-2.9,2.14-2.15,1.35-4.38,2.62-6.58,3.93-3.88,2.31-7.77,4.61-11.62,6.95-4.54,2.75-9.04,5.52-13.56,8.29-5.87,3.6-11.63,7.3-17.65,10.75-4.79,2.75-9.43,5.6-13.95,8.59-3.48,2.3-7.43,4.19-11.15,6.29-4.18,2.37-8.29,4.81-12.51,7.14-2.97,1.64-6.1,3.11-9.08,4.74-3.06,1.67-6.02,3.45-9.04,5.17-4.56,2.6-9.15,5.16-13.68,7.8-3.75,2.18-7.38,4.48-11.15,6.66-3.23,1.86-6.65,3.55-9.85,5.44-2.82,1.67-5.56,3.43-8.17,5.28-4.32,3.05-8.55,6.17-13.82,8.33-.51.21-1.02.44-1.46.72-3.68,2.39-8.04,3.91-12.8,5.76.3-.9.34-1.54.7-2.05,1.09-1.54,2.2-3.08,3.49-4.52,1.8-2.01,3.81-3.93,5.67-5.91,3.66-3.9,8.99-6.5,13.45-9.78,1.8-1.33,3.56-2.69,5.19-4.14,2.66-2.36,5.7-4.39,9.23-5.96,4.22-1.87,8.02-4.08,11.32-6.82,2.13-1.77,4.41-3.53,7-4.89,2.11-1.11,4.17-2.27,6.26-3.38,2.52-1.34,4.53-2.97,6.37-4.74,3.95-3.82,8.68-7,13.56-10.11,3.6-2.3,6.75-5,10.23-7.42,3.06-2.12,6.29-4.09,9.47-6.11,4.87-3.11,9.74-6.22,14.64-9.29,2.09-1.31,4.17-2.65,6.42-3.78,5.68-2.86,11.37-5.67,16.55-9.05,1.45-.94,3.19-1.65,4.88-2.36,4.06-1.7,7.7-3.86,11.58-5.75,3.9-1.89,8.14-3.3,12.29-4.84,4.42-1.64,8.64-3.59,12.92-5.45,1.45-.63,2.92-.96,4.6-1.18,2.25-.29,4.45-1.01,6.54-1.75,2.88-1.03,5.87-1.93,8.24-3.65,1.03-.74,2.16-.87,3.4.14Z"/>
    <path class="cls-1" d="M267.36,135.03c.32-.57.42-1.03.76-1.33,2.53-2.18,4.97-4.43,7.72-6.44,2.07-1.52,4.59-2.69,6.84-4.08,2.02-1.24,4.29-2.38,5.85-3.91,3.13-3.07,7.02-5.4,11.08-7.7,2.77-1.56,5.1-3.56,7.65-5.35,2.48-1.74,4.85-3.57,7.5-5.16,3.65-2.18,7.27-4.34,10.44-6.94,2.35-1.93,5.13-3.57,7.73-5.32,3.19-2.14,6.37-4.27,9.6-6.37,2.94-1.91,5.98-3.73,8.89-5.66,4.8-3.19,9.56-6.41,14.28-9.67,8.52-5.87,16.95-11.81,25.52-17.65,6.47-4.4,13.06-8.71,19.66-13,2.48-1.62,5.17-3.06,7.71-4.63.65-.4,1.18-.95,1.68-1.47,3.75-3.89,8.01-7.2,14.17-9.12,3.03-.94,5.47-2.95,8.15-4.5,2.14-1.24,4.06-2.76,6.39-3.74,5.43-2.3,10.46-5.03,15.53-7.73,3.24-1.73,6.72-3.21,10.11-4.78.39-.18.89-.35,1.34-.35,5.52-.02,11.05-.02,17.32-.02-1.57,1.22-2.59,2.16-3.8,2.93-4.68,2.96-9.41,5.89-14.14,8.8-1.43.88-2.88,1.76-4.45,2.48-3.84,1.77-7.14,3.98-10.4,6.32-3.07,2.2-6.72,3.94-10.09,5.91-2.22,1.3-4.65,2.47-6.5,4.02-2.89,2.42-6.07,4.53-9.67,6.28-3.38,1.64-6.29,3.62-9.13,5.75-3,2.25-6.52,4.1-9.74,6.19-2.78,1.8-5.46,3.68-8.18,5.53-2.95,2-5.87,4.05-8.87,6.01-4.68,3.07-9.39,6.12-14.16,9.11-4.77,2.99-9.49,6.03-14.49,8.79-3.52,1.95-7.09,3.78-10.27,6.08-2.41,1.75-5.38,3.12-8.31,4.38-4.06,1.75-8.06,3.51-11.4,6.03-1.09.82-2.38,1.51-3.65,2.18-5.31,2.82-10.56,5.72-16.01,8.39-8.06,3.94-15.15,8.91-23.6,12.44-1.17.49-2.33,1.12-3.17,1.89-3.26,2.99-7.37,5.18-11.71,7.13-4.17,1.87-7.32,4.56-10.69,7.09-.83.62-1.51,1.59-3.51,1.18Z"/>
    <path class="cls-1" d="M378.72,42.79c-2.52,3.59-5.31,6.26-9.16,8.26-4.4,2.29-8.28,5.05-11.87,8.01-2.47,2.04-5.37,3.59-8.54,4.86-3.03,1.22-5.68,2.66-8.03,4.61-2.53,2.1-5.65,3.78-8.5,5.66-2.7,1.78-5.39,3.56-8.07,5.36-2.82,1.89-5.49,3.93-8.46,5.68-6.18,3.64-12.53,7.13-18.8,10.69-1.32.75-2.54,1.59-3.87,2.33-2.72,1.53-5.37,3.15-8.25,4.48-3.33,1.54-6.54,3.14-9.19,5.33-2.98,2.46-6.79,4.1-10.42,5.94-3.05,1.55-5.93,3.29-8.88,4.95-2.02,1.14-3.98,2.34-6.04,3.44-5.47,2.91-11,5.76-16.48,8.66-2.54,1.34-4.97,2.79-7.52,4.12-3.43,1.79-6.85,3.59-10.4,5.24-3.32,1.54-6.54,3.12-9.3,5.23-1.49,1.14-3.16,2.22-4.99,3.01-6.45,2.77-12.18,6.28-18.03,9.67-.31.18-.6.38-.94.52-5.31,2.3-10.29,4.96-15.3,7.61-4.54,2.4-9.11,4.73-13.04,7.71-1.97,1.5-4.24,2.65-6.89,3.56-2.95,1.01-5.66,2.58-8.12,4.21-3.37,2.24-6.84,4.31-10.85,5.87-1.06.41-1.94.69-2.88-.77.44-.2,1.03-.45,1.59-.74,4.29-2.21,7.71-5.12,11.36-7.85,1.57-1.17,3.32-2.24,5.13-3.21,4.13-2.2,8.29-4.34,11.63-7.25,2.85-2.48,6.85-3.83,10.25-5.77,2.15-1.23,4.27-2.54,6.12-4.01,2.67-2.14,5.41-4.18,8.69-5.81,4.32-2.14,7.96-4.88,11.57-7.64.54-.41,1.11-.82,1.71-1.19,8.96-5.49,17.34-11.5,26.69-16.65,3.13-1.72,6.19-3.52,9.23-5.34,3.19-1.91,6.25-3.94,9.49-5.81,2.61-1.51,5.31-2.96,8.11-4.25,4-1.85,7.57-4.06,10.93-6.51,1.59-1.16,3.55-2.02,5.34-3.02,3.19-1.78,6.52-3.44,9.53-5.38,7.76-5,16.05-9.44,24.58-13.65,2.68-1.32,5.15-2.87,7.78-4.25,2.7-1.42,5.43-2.81,8.21-4.14,2.78-1.33,5.85-2.38,8.43-3.89,3.79-2.23,7.99-3.87,12.15-5.61,4.67-1.95,9.22-4.06,13.84-6.07,2.01-.88,4.1-1.65,6.1-2.53.82-.36,1.52-.88,2.25-1.35,2.13-1.38,4.15-2.86,6.38-4.13,4.42-2.51,8.95-4.9,13.45-7.33.51-.28,1.13-.45,2.26-.88Z"/>
    <path class="cls-1" d="M605.03,256.33c.18-.6.15-.93.36-1.13,3.34-3.12,6.39-6.43,11.05-8.6,4.19-1.95,7.4-4.63,10.3-7.64,1.91-1.98,4.35-3.75,6.9-5.29,4.38-2.64,8.8-5.22,12.66-8.33,1.64-1.32,3.66-2.39,5.57-3.52,3.51-2.08,7.07-4.1,10.58-6.17,3.21-1.89,6.44-3.76,9.56-5.73,4.68-2.96,9.09-6.18,13.94-8.96,5.57-3.2,10.92-6.55,15.97-10.21,2.36-1.71,5.13-3.13,7.85-4.52,3.25-1.66,5.89-3.77,8.57-5.89,2.67-2.1,5.67-3.97,8.52-5.95,2.91-2.03,6.05-3.91,8.66-6.14,3.27-2.79,7.08-4.91,11.4-6.66,2.37-.96,4.57-2.16,6.75-3.35,2.28-1.24,4.36-2.68,6.68-3.86,5.4-2.75,9.78-6.36,14.68-9.52,2.64-1.7,5.38-3.32,8.1-4.95,4.23-2.54,8.45-5.1,12.75-7.57,1.43-.82,3.09-1.42,4.91-2.23v18.99c-3.24,1.6-6.57,3.21-9.86,4.87-4.99,2.53-9.91,5.12-14.92,7.63-3.15,1.57-6.32,3.14-9.63,4.51-3.52,1.46-6.56,3.38-9.72,5.2-2.77,1.59-5.75,2.98-8.65,4.45-4.9,2.5-9.81,4.98-14.71,7.49-1.44.74-2.82,1.55-4.25,2.3-7.65,4.01-15.35,7.96-22.94,12.03-3.95,2.12-7.54,4.63-11.59,6.62-4.99,2.46-9.57,5.21-13.86,8.32-2.84,2.06-6.37,3.57-9.54,5.38-3.17,1.82-6.22,3.74-9.39,5.55-3.56,2.02-7.22,3.94-10.79,5.95-2.33,1.31-4.58,2.7-6.85,4.06-2.49,1.5-4.99,2.99-7.46,4.51-4.27,2.63-8.51,5.31-12.8,7.92-1.71,1.04-3.56,1.94-5.29,2.96-3.04,1.81-6.02,3.67-9.03,5.5-1.24.75-2.26,1.79-4.49,1.97Z"/>
    <path class="cls-1" d="M299.91,211.65c-3.69,2.31-7.32,4.67-11.07,6.92-4.44,2.67-9.31,4.95-12.7,8.5-3.49,3.65-8.25,6.12-13.57,8.02-3.79,1.35-6.65,3.58-9.83,5.53-2.69,1.64-5.59,3.14-8.6,4.44-4.19,1.81-8.18,3.78-12.03,5.99-4.61,2.65-9.56,4.96-14.33,7.45-1.74.91-3.32,1.99-5.09,2.85-4.06,1.98-8.23,3.83-12.27,5.83-1.98.98-3.98,2.04-5.6,3.33-3.74,2.97-8.4,4.91-12.97,6.95-3.44,1.54-6.55,3.32-9.55,5.31-2.81,1.87-6.02,3.42-9.13,5.03-3.58,1.85-7.22,3.64-10.88,5.41-4.56,2.21-9.16,4.36-13.74,6.55-.74.35-1.47.72-2.13,1.14-4.81,3.1-10.15,5.59-15.75,7.8-3.45,1.36-6.69,2.92-9.52,4.97-4.24,3.06-9.47,5.08-14.29,7.53-2.01,1.02-3.94,2.14-5.98,3.13-1.57.76-2.03.65-3.51-.58.74-.62,1.49-1.26,2.26-1.9,3.76-3.07,7.97-5.75,12.46-8.22,2.97-1.64,5.75-3.48,8.48-5.35,3.9-2.68,8.33-4.79,12.74-6.93,3.56-1.73,6.69-3.84,9.34-6.25,3.54-3.22,8.11-5.4,12.46-7.85,2.86-1.61,5.61-3.36,8.13-5.26,2.28-1.73,4.7-3.15,7.58-4.32,3.56-1.45,7.02-3.19,10.02-5.22,5.3-3.59,11.18-6.57,16.92-9.71,4.87-2.66,9.6-5.48,15.06-7.49,3.33-1.22,5.98-3.17,8.86-4.88,2.59-1.53,5.19-3.15,8.11-4.26,5.17-1.96,9.86-4.35,14.32-7.1,2.47-1.52,5.21-2.8,7.8-4.21,3.94-2.14,7.86-4.3,11.77-6.48.97-.54,1.64-1.21,3.23-1.05,1.06.11,2.33-.62,3.42-1.09,5.16-2.19,10.24-4.48,15.44-6.62,3.91-1.61,7.95-2.98,12.44-3.57,1.36-.18,2.64-1.11,3.74-1.88,1.51-1.05,2.9-2.18,4.97-2.58.88-.17,1.8-.25,2.7-.37.11.16.21.31.32.47Z"/>
    <path class="cls-1" d="M535.29,165.68c-1.78,1.12-3.73,2.13-5.31,3.39-3.55,2.83-7.02,5.74-10.35,8.72-4.55,4.06-10.2,7.07-16.02,9.96-1.77.88-3.56,1.75-5.16,2.78-3.03,1.94-5.89,4.01-8.89,5.98-1.38.91-2.82,1.8-4.38,2.51-3.3,1.5-6.76,2.8-10.04,4.32-1.61.75-2.97,1.81-4.44,2.73-2.72,1.7-5.35,3.48-8.19,5.07-4.06,2.27-8.31,4.36-12.41,6.6-3.02,1.65-5.89,3.45-8.92,5.1-1.86,1.01-3.91,1.84-5.84,2.79-3.65,1.79-7.52,3.31-10.82,5.55-3.19,2.16-6.64,4.12-10.18,5.95-2.61,1.35-5.57,2.31-8.33,3.5-1.5.64-2.89,1.41-4.36,2.09-1.98.92-4.04,1.74-5.96,2.72-5.37,2.77-11.37,4.67-17.06,7-2.36.96-4.54,2.19-6.74,3.35-4.76,2.51-10.26,3.74-15.63,5.18-3.13.83-6.04,1.87-8.63,3.43-.95.57-1.85,1.33-3.35,1.05-.54-.87.32-1.46.81-1.98,3.21-3.4,6.79-6.57,11.37-8.99,1.65-.87,3.41-1.62,5.14-2.4,3.87-1.77,7.24-3.96,10.53-6.31,2.73-1.95,6.05-3.47,9.28-4.98,1.9-.89,3.7-1.91,5.26-3.01,6.38-4.51,13.22-8.44,21.07-11.45,3.66-1.41,6.92-3.44,10.16-5.39,2.03-1.22,4.03-2.41,6.34-3.31,3.04-1.18,5.97-2.53,9.07-3.6,3.79-1.31,7.05-3.19,10.47-4.92,3.96-2,8.18-3.71,12.21-5.62,1.62-.77,3.01-1.82,4.6-2.64,1.51-.77,2.98-1.52,4.29-2.52,1.11-.85,2.65-1.37,4.01-2.03,4.41-2.16,9.17-3.81,13.83-5.62,3.37-1.31,6.21-3.37,9.34-5.04,2.64-1.41,5.32-2.79,8.06-4.09,2.52-1.2,5.01-2.52,7.75-3.36,2.94-.9,5.44-2.24,7.96-3.59,3.56-1.91,6.93-4.01,10.58-5.82,2.72-1.35,5.74-2.35,8.62-3.5.08.14.17.28.25.42Z"/>
    <path class="cls-1" d="M800.93,22.68c0,4.28-.03,8.07.03,11.85.01.82-.64,1.19-1.35,1.54-3.6,1.72-7.26,3.37-10.83,5.12-2.91,1.43-5.65,3.05-8.57,4.46-3.75,1.81-7.63,3.46-11.39,5.26-3.43,1.64-6.73,3.46-10.18,5.07-3.38,1.58-6.74,3.25-10.37,4.44-5.03,1.65-9.58,3.7-13.86,6.3-3.82,2.32-8.23,4.09-12.44,6.04-5.53,2.56-11.16,5.02-16.67,7.6-6.18,2.89-12.3,5.87-18.42,8.83-2.83,1.37-5.54,2.9-8.45,4.16-4.03,1.74-8.25,3.24-12.31,4.94-1.5.63-2.92,1.43-4.17,2.32-4.29,3.04-9.32,5.21-14.43,7.36-3.79,1.59-7.23,3.67-10.92,5.4-5.59,2.62-11.28,5.11-16.89,7.7-1.73.8-3.39,1.69-5.01,2.62-4.18,2.39-8.51,4.57-13.21,6.36-4.94,1.89-9.55,4.22-13.65,7.05-4.8,3.31-10.57,5.41-16.3,7.58-1.96.74-4.01,1.34-6.02,2-.14-.15-.28-.31-.41-.46.98-.74,1.88-1.56,2.97-2.2,2.85-1.66,5.84-3.17,8.66-4.86,2.96-1.77,5.95-3.54,8.63-5.54,3.3-2.46,6.99-4.4,11.19-5.85,5.77-1.99,10.87-4.71,15.84-7.66,4.02-2.39,8.6-4.23,12.92-6.33,3.42-1.66,6.83-3.35,10.25-5.01,3.83-1.86,7.54-3.87,11.53-5.5,4.07-1.67,7.69-3.71,10.95-6.11,2.89-2.13,6.15-3.81,9.75-5.11,5.73-2.06,11.02-4.58,16.1-7.44,5.52-3.1,11.24-6.01,16.9-8.97,4.21-2.2,8.43-4.39,12.71-6.52,2.18-1.08,4.46-2.06,6.75-3.01,3.64-1.51,6.71-3.53,9.63-5.73,3.32-2.51,7.47-4.17,11.51-5.93,2.68-1.16,5.43-2.25,7.95-3.58,1.76-.93,3.17-2.21,4.77-3.31.34-.24.8-.39,1.2-.58,3.71-1.8,7.52-3.5,11.1-5.44,3.22-1.75,6.41-3.52,9.85-5.03.95-.42.99-1.49,2.17-1.95,2.01-.77,3.9-1.72,5.8-2.64,1.27-.61,2.57-1.21,3.72-1.94,2.6-1.64,5.84-2.62,8.15-4.6,1.15-.99,2.85-1.63,4.86-2.73Z"/>
    <path class="cls-1" d="M394.07,276.41c1.9-1.37,3.26-2.59,4.93-3.5,4.04-2.22,8.33-4.18,12.3-6.47,3.14-1.81,6.03-3.87,8.89-5.94,2.79-2.01,5.57-3.97,8.75-5.67,3.68-1.96,7.49-3.79,10.9-6.06,4.35-2.88,9.01-5.5,13.59-8.19,1.98-1.16,4.1-2.19,6.14-3.3,3.69-1.99,7.36-4.02,11.07-5.99,3.22-1.72,6.6-3.28,9.72-5.1,3.69-2.14,7.14-4.51,10.75-6.72,2.61-1.6,5.15-3.29,8-4.61,6.7-3.1,12.9-6.64,18.72-10.61,2.13-1.45,4.64-2.63,7.11-3.77,3.21-1.48,6.55-2.81,9.83-4.21.32-.14.64-.28.91-.47,4.67-3.14,9.3-6.31,14.04-9.39,1-.65,2.34-1.09,3.62-1.38.9-.2,1.96.02,3.68.08-2.25,2.14-3.88,3.93-5.83,5.51-5.62,4.54-11.54,8.86-16.99,13.51-4.36,3.72-9.06,7.13-13.92,10.46-4.01,2.75-7.69,5.77-11.77,8.45-2.89,1.9-6.31,3.33-9.32,5.14-2.86,1.72-5.41,3.73-8.25,5.47-3.76,2.3-7.96,4.05-12.36,5.62-4.2,1.49-8.11,3.41-11.78,5.61-3.22,1.94-6.37,3.93-10.34,5.16-2.97.93-5.95,1.98-8.79,3.15-3.54,1.46-6.97,3.11-10.19,4.93-3.42,1.94-6.88,3.71-10.82,5.04-4.85,1.64-9.58,3.51-14.22,5.48-2.41,1.02-4.41,2.56-6.75,3.7-2.96,1.44-6.04,2.74-9.13,4.03-.48.2-1.24.03-2.5.03Z"/>
    <path class="cls-1" d="M279.21,336.87c-1.9,1.73-3.76,3.48-5.71,5.18-3.1,2.7-6.17,5.42-9.41,8.02-2.18,1.75-4.62,3.31-6.97,4.94-4.27,2.96-8.44,6-12.87,8.81-3.39,2.14-7.15,3.95-10.69,5.96-1.62.92-3.43,1.79-4.59,2.99-3.42,3.56-7.96,6.13-12.58,8.65-2.65,1.45-5.47,2.73-8.09,4.2-1.78,1-3.53,2.08-4.98,3.32-3.89,3.34-8.89,5.6-13.61,8.14-1.26.68-2.69,1.21-3.8,2.01-5.79,4.17-12.53,7.31-19.44,10.29-2.34,1.01-4.55,2.25-6.54,3.62-6.25,4.31-13.09,8-20.26,11.37-2.43,1.14-4.83,2.32-7.77,3.74.16-.81.1-1.3.36-1.65,2.04-2.76,4.73-5.09,7.93-7.17,5.13-3.34,10.02-6.88,15.07-10.29,2.38-1.6,4.97-3.03,7.37-4.62,1.81-1.2,3.56-2.46,5.19-3.81,3.44-2.85,6.72-5.82,10.19-8.65,1.43-1.16,3.04-2.27,4.82-3.1,4.64-2.18,8.05-5.34,11.96-8.09,3.44-2.42,7.2-4.59,10.8-6.9,2.12-1.36,4.26-2.71,6.28-4.16,3.4-2.44,6.49-5.16,10.13-7.36,2.86-1.73,6.1-3.21,9.8-3.94,1.04-.21,2-.74,2.91-1.22,4.26-2.24,8.39-4.62,12.75-6.75,2.8-1.36,5.91-2.37,8.88-3.53,1.2-.47,2.47-.85,3.6-1.4,6.03-2.94,12.03-5.92,18.04-8.88.21-.1.5-.1.76-.15.16.14.32.27.49.41Z"/>
    <path class="cls-1" d="M697.26,346.59c0-2.11,1.12-3.76,2.51-5.35,1.9-2.2,4.62-3.73,7.45-5.15,3.31-1.67,6.71-3.23,10.01-4.89,1.36-.69,2.6-1.52,3.89-2.29,2.43-1.45,4.84-2.92,7.27-4.36,4.32-2.56,8.68-5.02,12.42-8.15,3.72-3.12,8.37-5.61,12.59-8.4,2.9-1.91,5.65-3.95,8.67-5.74,3.57-2.11,7.14-4.23,11.33-5.7,4.12-1.44,8-3.19,11.36-5.57,4.5-3.19,9.71-5.52,15.94-6.85.45,2.13.52,3.94-1.74,5.62-2.62,1.94-4.24,4.44-5.97,6.89-.92,1.3-1.11,3.31-3.81,3.68-.09,1.19-1.18,1.8-2.39,2.38-1.54.75-3.04,1.54-4.52,2.35-1.46.81-2.86,1.68-4.31,2.51-2.34,1.34-4.06,3.27-6.93,4.11-.27.08-.37.46-.57.7-.24.3-.46.84-.74.86-2.17.17-2.66,1.9-4.36,2.52-1.7.62-3.2,1.54-4.86,2.22-2.06.84-3.48,2.57-6.19,2.51-.43,1.52-2.58,1.8-3.71,2.83-.84.77-1.92,1.68-3.09,1.89-2.54.44-3.79,2.15-6.02,2.92-3.9,1.34-7.53,3.13-11.21,4.8-1.43.65-2.59,1.67-4.06,2.26-5.18,2.09-10.48,4-15.64,6.11-2.8,1.15-5.37,2.61-8.1,3.86-1.5.69-2.71,2-5.22,1.42Z"/>
    <path class="cls-1" d="M35.22,206.6c5.1-2.04,8.3-4.88,11.85-7.47,2.47-1.8,5.56-3.11,8.38-4.62.39-.21.89-.32,1.25-.56,3.88-2.54,7.68-5.16,11.63-7.64,5.48-3.44,11.06-6.81,16.64-10.16,1.97-1.18,3.97-2.3,5.44-3.87,2.46-2.61,5.89-4.4,9.36-6.13,4.68-2.34,9.05-4.96,13.34-7.69,2.79-1.78,6.06-3.14,9.19-4.6,2.06-.96,4.37-1.62,6.35-2.64,3.47-1.78,6.72-3.8,10.17-5.6,2.77-1.45,5.61-2.87,8.6-4.03,2.55-.99,5.41-1.53,8.07-2.38,1.69-.54,3.26-1.28,4.88-1.93,1.23-.5,2.46-1,3.7-1.49.16.14.31.29.47.43-1.34,1.19-2.6,2.44-4.05,3.55-1.36,1.04-2.86,1.98-4.41,2.86-3.28,1.85-6.32,3.89-8.94,6.24-1.42,1.27-2.43,2.79-3.72,4.14-.72.76-1.67,1.39-2.48,2.11-.86.76-1.54,1.69-2.56,2.3-1.87,1.11-3.69,2.22-5.16,3.64-.44.43-1.19.7-1.85.99-2.12.93-4.34,1.74-6.34,2.8-.64.34-1.51.65-1.91,1.46-.34.68-1.68,1.11-2.66,1.55-.69.31-1.35.39-1.71,1.18-.25.53-1.48,1.01-2.72,1.26-1.75.35-3.32,1.43-4.73,2.39-1.24.85-2.48,1.47-4.15,1.73-1.08.17-2.27.52-3.04,1.07-3.74,2.67-8.37,4.17-12.85,5.93-3.43,1.34-6.69,2.95-9.97,4.5-6.97,3.29-13.12,7.5-20.63,10.18-2.37.84-4.66,1.79-7.03,2.63-3.56,1.26-6.08,3.57-9.36,5.12-2.61,1.24-5.06,2.71-9.04,2.76Z"/>
    <path class="cls-1" d="M448.12,290.89c2.41-4.61,6.44-8.4,10.79-12.04,2.59-2.16,5.13-4.37,7.94-6.36,2.39-1.69,5.12-3.11,7.73-4.62,2.53-1.47,5.12-2.89,7.63-4.37.51-.3.88-.77,1.19-1.21,1.58-2.24,2.87-4.62,4.73-6.72,1.7-1.91,3.76-3.73,6.07-5.24,3.7-2.42,7.78-4.52,11.63-6.82,2.01-1.2,3.91-2.52,5.79-3.84,3.47-2.42,7.14-4.51,11.52-6.05,6.95-2.44,13.09-5.84,18.37-10.09,1.44-1.16,3.24-2.1,5.04-2.94,3.21-1.5,6.51-2.9,9.85-4.22.98-.39,2.42-1.34,3.33-.25.8.96-.87,1.46-1.68,1.99-2.41,1.58-4.83,3.17-7.38,4.62-2.37,1.35-4.23,2.99-5.75,4.88-1.25,1.55-2.6,3.07-3.81,4.64-2.71,3.51-6.94,5.8-11.23,8.07-3.07,1.62-6.45,2.95-8.89,5.18-3.68,3.37-8.32,5.9-13.01,8.39-1.49.79-3.18,1.38-4.6,2.23-1.63.97-3.27,1.99-4.56,3.2-6.31,5.93-13.93,10.62-22.81,14.25-2.86,1.17-5.48,2.75-7.94,4.37-5.4,3.56-10.63,7.27-15.92,10.92-1.17.81-2.33,1.63-3.49,2.44-.18-.13-.36-.27-.54-.4Z"/>
    <path class="cls-1" d="M86.03,42.69c.69-.63,1.23-1.28,1.97-1.78,5.5-3.7,11.15-7.27,16.5-11.09,2.43-1.74,4.59-3.8,6.32-5.96,2.12-2.65,4.76-4.9,7.64-7.05,1.41-1.05,3.42-1.66,4.63-2.64,1.68-1.35,3.39-2.59,5.48-3.46,2.96-1.24,4.76-3.37,7.33-4.9,1.4-.83,2.34-2.15,4.46-2.22.39-.01.96-.37,1.09-.66,1.15-2.46,3.89-2.79,6.75-2.81,7.02-.05,14.03-.02,21.05-.01.54,0,1.08.06,2,.11-3.75,3.32-7.56,6.06-12.22,8.19-3.46,1.58-6.68,3.47-9.87,5.34-1.44.85-3,1.56-4.18,2.76-1.09,1.1-3.04,1.76-4.69,2.5-2.39,1.08-4.97,1.92-7.26,3.1-4.5,2.32-9.84,3.65-13.53,6.99-1.84,1.67-4.48,3.11-7.15,3.95-3.67,1.16-7.05,2.67-10.53,4.05-1.97.78-3.84,1.7-5.73,2.58-1.97.92-3.87,1.92-5.87,2.78-1.15.5-2.43.98-4.19.23Z"/>
    <path class="cls-1" d="M450.85,436.92c2.56-1.72,3.39-4.08,4.78-6.19,2.06-3.11,5.46-5.24,9.01-7.31,3.14-1.83,6.41-3.56,9.28-5.61,6.01-4.29,12.67-7.91,19.5-11.42,2.53-1.3,4.71-2.96,7.06-4.45,5.23-3.34,10.48-6.65,15.68-10.02,1.68-1.09,3.27-2.26,4.83-3.44,3.68-2.81,7.71-5.25,12.4-7.06,4.58-1.76,8.75-3.99,12.69-6.49,2.57-1.63,5.32-3.11,8.14-4.52-5.03,5.25-9.81,10.63-16.87,14.52-3.54,1.95-6.67,4.19-9.23,6.9-3.4,3.59-7.97,6.29-12.49,9.03-6.95,4.22-13.85,8.47-20.8,12.69-1.28.78-2.74,1.4-4,2.19-4.39,2.76-8.78,5.52-13.07,8.36-3.78,2.5-7.72,4.79-12.02,6.77-3.3,1.52-6.37,3.32-9.67,4.85-1.51.7-3.16,1.42-5.23,1.21Z"/>
    <path class="cls-1" d="M426.79,64.49c2.03-1.44,3.98-2.96,6.12-4.31,3.28-2.07,6.47-4.17,9.37-6.56,1.72-1.42,4.06-2.45,6.26-3.51,4.36-2.09,8.22-4.52,11.62-7.51,2.86-2.51,6.47-4.56,9.82-6.75,2.55-1.67,5.11-3.34,7.85-4.83,3.99-2.17,8.2-4.12,12.2-6.28,2.49-1.34,4.74-2.94,7.2-4.32,1.31-.73,2.93-1.15,4.23-1.89,2.55-1.45,5.07-2.93,7.41-4.57,3.37-2.36,7.54-3.81,11.23-5.8,2.44-1.31,4.8-2.7,7.2-4.05,2.01-1.14,3.99-2.31,6.04-3.4.6-.32,1.41-.56,2.14-.58,2.7-.07,5.4-.03,8.76-.03-.87.81-1.3,1.34-1.89,1.75-5.48,3.79-10.92,7.61-16.51,11.3-1.57,1.04-3.51,1.83-5.41,2.51-3.52,1.26-6.56,2.96-9.4,4.94-1.89,1.31-3.86,2.61-6.04,3.62-4.46,2.06-8.48,4.54-12.61,6.92-2.53,1.47-5.04,2.99-7.76,4.24-8.31,3.81-16.28,7.95-23.72,12.67-2.5,1.59-5.4,2.86-8.27,4.07-3,1.26-5.76,2.66-8.15,4.53-4,3.13-8.74,5.58-13.64,7.83-.96.44-2.35.36-3.55.51-.16-.18-.31-.35-.47-.53Z"/>
    <path class="cls-1" d="M207.96,318.22c.73-.63,1.37-1.33,2.2-1.87,3.97-2.58,8.16-4.92,12.84-6.75.77-.3,1.6-.59,2.24-1.01,5.12-3.39,10.79-6.08,16.93-8.36,2.95-1.1,5.61-2.93,7.79-4.82,2.74-2.38,6.35-3.45,9.86-4.82,5.8-2.27,12.02-4.07,16.32-8.1,1.9-1.78,4.59-2.84,7.4-3.72,1.23-.38,2.36-.97,3.49-1.52,7.22-3.49,14.08-7.4,21.94-10.13,4.13-1.43,8.14-3.05,12.36-4.65-1,1.32-2.21,2.56-3.66,3.68-3.22,2.49-7.15,4.25-10.97,6.12-.65.32-1.3.63-1.89,1-3.68,2.36-7.31,4.76-11.02,7.09-2.07,1.3-4.26,2.5-6.4,3.75-.31.18-.6.4-.95.51-4.97,1.5-8.29,4.69-12.61,6.86-4.36,2.19-8.89,4.11-13.61,5.82-1.81.66-3.52,1.51-5.1,2.45-5.1,3.02-10.18,6-16.43,7.7-3.25.89-6.3,2.27-9.25,3.66-3.71,1.74-7.58,3.16-11.69,4.29-2.64.72-5.12,1.75-7.68,2.64-.57.2-1.17.35-1.76.52-.12-.11-.24-.22-.36-.33Z"/>
    <path class="cls-1" d="M800.93,106.97c0,3.39.04,6.52-.04,9.64-.01.51-.41,1.24-.94,1.48-4.25,1.9-7.51,4.79-11.92,6.56-4.65,1.87-9.32,3.79-13.56,6.13-4.6,2.54-9.45,4.73-14.35,6.87-2.98,1.3-6.34,2.12-9.37,3.37-3.56,1.47-6.97,3.14-10.41,4.78-2.23,1.06-4.68,1.6-7.47,2.06.83-1.98,2.68-3.21,4.37-4.39,4.02-2.81,8.62-5.19,12.39-8.16,4.38-3.45,9.71-6,14.31-9.22,4.09-2.86,8.27-5.71,13.36-7.67,3.15-1.21,6.03-2.82,9.01-4.28.56-.27,1.06-.63,1.56-.98,3.75-2.63,8.14-4.46,13.08-6.18Z"/>
    <path class="cls-1" d="M587.65.13c-5.02,3.34-9.64,6.52-14.42,9.55-2.64,1.68-5.54,3.13-8.36,4.64-5.83,3.13-11.69,6.22-17.52,9.35-.77.42-1.44.95-2.12,1.46-3.24,2.43-7.58,3.51-11.38,5.24-1.57.72-3.15,1.47-4.5,2.39-3.47,2.38-7.49,4.13-11.48,5.94-3.49,1.58-6.83,3.35-10.23,5.04-.94.46-1.88.93-2.94,1.27,2.28-2.65,4.83-5.16,8.34-6.84,5.47-2.63,10.23-5.69,14.22-9.58,2.33-2.26,5.61-3.98,8.47-5.93,1.51-1.03,3.23-1.9,4.56-3.05,3.61-3.12,8.16-5.38,12.4-7.92,3.86-.65,6.03-3.26,9.36-4.54,1.95-.75,3.93-1.51,5.72-2.45,2.14-1.11,4.07-2.44,6.14-3.63.65-.38,1.41-.9,2.14-.92,3.77-.09,7.55-.04,11.61-.04Z"/>
    <path class="cls-1" d="M265.52,430.37c-.6-1.16.25-1.92,1.06-2.65,2.1-1.91,4.16-3.84,6.36-5.69,3.82-3.21,7.65-6.42,11.61-9.53,4.18-3.28,8.95-6,14.42-8.02,1.45-.53,2.71-1.38,3.97-2.16,2.03-1.24,3.86-2.68,6-3.8,2.99-1.55,6.21-2.85,9.29-4.31,3.16-1.5,6.35-2.97,9.38-4.62,2.96-1.61,5.74-3.42,8.71-5.03-5.17,6.05-11.01,11.58-19.36,15.35-3.34,1.51-6.01,3.56-8.43,5.91-2.22,2.17-5.21,3.88-7.77,5.87-3.82,2.97-7.56,6-11.33,9-3.51,2.8-7.17,5.37-12.3,6.57-2.55.59-4.86,1.78-7.28,2.7-1.33.51-2.67.91-4.34.4Z"/>
    <path class="cls-1" d="M657.06,366.08c-.66,2.66-3.07,4.32-5.38,5.92-2.9,2.01-6.06,3.81-9.23,5.59-4.04,2.27-7.83,4.74-11.14,7.6-1.52,1.32-3.63,2.17-5.18,3.33-1.97,1.47-4.22,2.55-6.35,3.79-3.14,1.82-6.23,3.71-9.49,5.39-2.79,1.44-5.85,2.56-8.69,3.94-6.07,2.96-13,4.88-18.46,8.58-.41.28-.99.41-1.65.68,2.01-3.11,4.39-5.33,7.56-7.05,1.95-1.06,3.89-2.14,5.9-3.14,3.98-2,7.24-4.6,10.5-7.19,2.46-1.95,4.82-3.98,7.32-5.9,1.14-.88,2.51-1.59,3.79-2.37,2.38-1.46,4.81-2.88,7.12-4.4,2.06-1.35,3.84-2.96,5.99-4.21,2.42-1.41,5.04-2.67,7.72-3.8,5.27-2.22,10.63-4.31,15.97-6.44,1.1-.44,2.18-1.04,3.73-.32Z"/>
    <path class="cls-1" d="M565.73,175.56c2.98-2.24,5.93-4.49,8.94-6.71,3.72-2.75,7.51-5.44,11.22-8.19,2.36-1.75,4.49-3.62,7.39-4.99,3.81-1.8,7.36-3.94,10.78-6.15,4.85-3.14,10.14-5.81,15.45-8.46,2.24-1.12,4.33-2.41,6.49-3.63,2.86-1.61,5.67-3.28,8.63-4.8.87-.44,2.15-.43,3.29-.63.13,1.82-.83,3.04-2.16,4.25-4.03,3.64-8.32,6.99-13.7,9.62-5.19,2.53-9.76,5.73-13.92,9.21-4,3.35-8.37,6.38-13.7,8.59-2.52,1.04-4.71,2.53-7.11,3.76-1.35.69-2.76,1.35-4.23,1.89-2.77,1.01-5.78,1.69-7.81,3.61-.23.21-.63.35-.99.45-2.75.81-5.52,1.61-8.27,2.41-.1-.08-.2-.15-.29-.23Z"/>
    <path class="cls-1" d="M441.83,358.99c-.16.64-.12.97-.31,1.17-2.89,2.87-5.5,5.87-9.28,8.25-4.14,2.6-7.92,5.52-11.31,8.74-1.99,1.89-4.72,3.38-7.32,4.86-3.31,1.89-6.65,3.81-10.29,5.28-3.24,1.31-4.99,3.65-7.74,5.26-2.18,1.28-4.08,2.84-6.23,4.16-2.38,1.45-5.72,2.62-8.21,3.05.72-.6,1.25-1.08,1.83-1.52,4.04-3.07,7.57-6.42,10.84-9.98,2.4-2.62,5.44-4.93,8.3-7.3,3.57-2.97,7.44-5.75,10.83-8.82,2.16-1.96,4.85-3.32,7.55-4.66,3.38-1.66,7.04-3,10.58-4.48,2.71-1.13,5.42-2.28,8.16-3.38.69-.28,1.52-.37,2.61-.62Z"/>
    <path class="cls-1" d="M800.89,404.59c0,2.74.17,4.98-.09,7.19-.1.83-1.07,1.66-1.83,2.38-4.58,4.33-9.59,8.35-15.02,12.09-1.93,1.33-3.74,2.76-5.59,4.16-3.09,2.33-6.7,4.18-9.99,6.31-3.73,2.41-6.9,5.3-10.3,8-.26.21-.43.48-.95,1.05.28-1.62.34-1.66,1.14-2.66,3.18-3.94,7.13-7.42,11.23-10.83,1.87-1.56,3.42-3.34,5.03-5.06,2.06-2.19,3.97-4.47,6.09-6.63,3.77-3.85,8.13-7.3,12.72-10.62,2.34-1.69,4.63-3.41,7.55-5.38Z"/>
    <path class="cls-1" d="M320.48,312.2c1.12-.78,2.32-1.5,3.35-2.34,1.7-1.4,3.19-2.94,4.95-4.3,3.05-2.35,6.24-4.58,9.36-6.88,2.2-1.62,4.31-3.33,6.59-4.9,4.96-3.41,10.54-6.11,16.82-7.97,1.62-.48,3.17-1.1,4.77-1.64.82-.28,1.62-.42,2.39.18.84.66.78,1.35.08,1.96-1,.88-2,1.81-3.22,2.49-5.26,2.91-10.27,6-14.43,9.81-2.25,2.06-5.42,3.06-8.58,3.99-4.78,1.41-8.97,3.48-12.69,6.08-2.29,1.6-4.89,2.77-7.71,3.69-.42.14-.94.1-1.42.14-.08-.1-.16-.21-.24-.31Z"/>
    <path class="cls-1" d="M370.84,182.16c1.49-1.18,2.85-2.48,4.5-3.52,4.61-2.91,9.36-5.69,14.01-8.56,2.55-1.57,4.9-3.33,7.54-4.79,2.72-1.5,5.6-2.89,8.59-4.08,5.07-2.01,10.2-3.86,14.52-6.82,2.53-1.73,5.29-3.45,9.07-3.53-.01.15.04.33-.05.4-3.46,2.74-6.92,5.48-10.43,8.19-3.3,2.55-7.59,4.02-11.54,5.87-3.04,1.43-6.15,2.81-8.93,4.5-4.09,2.49-8.45,4.64-12.98,6.63-4.61,2.02-9.19,4.07-13.78,6.11-.18-.14-.36-.27-.54-.41Z"/>
    <path class="cls-1" d="M718.47,247.08c.28-.51.47-1.06.86-1.51,3.93-4.56,9.14-8.24,14.57-11.76,1.43-.93,3.27-1.49,4.79-2.35,2.47-1.4,4.88-2.86,7.22-4.37,5.16-3.36,11.11-5.49,17.88-6.51-2.96,1.92-6,3.77-8.85,5.78-2.61,1.84-5.05,3.82-7.48,5.79-3.1,2.53-6.14,5.01-10.09,6.93-3.65,1.78-7.3,3.63-10.8,5.61-1.55.87-3.23,1.63-4.94,2.33-.77.32-1.74.37-2.62.54-.18-.17-.37-.33-.55-.5Z"/>
    <path class="cls-1" d="M691.29,272.23c1.14-.02,2.1,1.07,1.26,1.93-2.89,2.93-5.89,5.75-9.92,7.92-4.15,2.23-8.88,3.51-13.39,5.17-.26.09-.53.25-.79.25-.62-.01-1.24-.1-1.86-.16.12-.46.06-1.02.4-1.36.75-.75,1.65-1.44,2.58-2.07,3.44-2.34,6.92-4.62,10.96-6.41,2.14-.95,4-2.27,5.95-3.46,1.36-.83,2.66-1.73,4.82-1.82Z"/>
    <path class="cls-1" d="M491.45,52.46c-1.58,1.12-3.01,2.19-4.53,3.19-2.98,1.97-6,3.9-9.02,5.84-2.81,1.8-5.75,3.45-9.27,4.41-.63.17-1.31.43-1.94.4-.6-.03-1.42-.27-1.68-.62-.23-.31.03-.97.36-1.33.49-.53,1.2-.95,1.86-1.37,4.64-2.96,9.21-5.98,13.98-8.82,1.87-1.12,4.21-1.79,6.3-2.71,1.58-.69,2.73-.37,3.94,1.01Z"/>
    <path class="cls-1" d="M233.55,273.1c2.2-1.28,4.42-2.53,6.58-3.84,3.16-1.92,6.32-3.84,9.38-5.84,3.62-2.37,7.83-3.99,12.02-5.65.3-.12.74-.06,1.24-.09.47,1.19-.55,1.83-1.44,2.42-6.5,4.35-12.82,8.89-21.03,11.5-2.11.67-4.2,1.37-6.3,2.06-.15-.18-.3-.37-.46-.55Z"/>
    <path class="cls-1" d="M63.01,340.11c-1.07.95-1.77,1.71-2.65,2.32-7.02,4.89-15.2,8.61-22.89,12.83-1.2.66-2.75.97-4.3,1.24,5.2-3.67,9.54-7.97,15.86-10.69,2.41-1.04,4.39-2.63,6.71-3.79,1.67-.84,3.58-1.43,5.42-2.07.34-.12.86.06,1.85.16Z"/>
  </g>
</svg>