<?xml version="1.0" encoding="UTF-8"?>
<svg id="Layer_1" data-name="Layer 1" xmlns="http://www.w3.org/2000/svg" version="1.1" viewBox="0 0 313 425">
  <defs>
    <style>
      .cls-1 {
        fill: #000000;
        stroke-width: 0px;
      }
    </style>
  </defs>
  <g id="FIRE_05" data-name="FIRE 05">
    <path class="cls-1" d="M120.31,61.67c0,.95-.03,1.57,0,2.18.15,2.55-.3,4.98-1.68,7.12-.83,1.29-1.87,2.51-3,3.55-3.22,2.98-7.06,5.11-10.63,7.6-2.1,1.46-4.15,3-6.17,4.56-3.11,2.4-6.38,4.45-10.23,5.49-1.7.46-3.23,1.31-4.35,2.76-.61.79-1.19,1.63-1.01,2.7.39,2.38-.44,4.48-1.42,6.54-.66,1.38-1.15,2.82-1.08,4.36.03.65.23,1.45.66,1.89,2.67,2.75,5.39,5.46,8.19,8.08.87.81,2.09,1.25,3.09,1.94,1.38.96,2.78,1.9,4.01,3.03,1.67,1.53,3.27,3.12,5.31,4.2.79.42,1.68,1.09,2,1.86.69,1.67,1.9,2.91,2.95,4.27,1.79,2.31,1.86,4.81,1.04,7.44-.45,1.43-.96,2.85-1.49,4.26-1.09,2.88-2.2,5.76-5.13,7.38-.24.13-.44.36-.7.58.21.15.32.28.47.33,4.65,1.44,9.13,3.39,14.08,3.83,2.99.27,5.93,1.03,8.91,1.51,1.01.16,2.07.08,3.09.2,2.7.33,5.4.72,8.1,1.08,1.44.19,2.88.38,4.31.59,2.98.43,5.96.86,8.95,1.29.62.09,1.24.16,2.16.29-.91-1.05-1.6-1.88-2.31-2.67-.87-.96-2.16-.91-3.25-1.04-2.72-.32-4.71-1.77-6.58-3.56-3.07-2.95-5.18-6.56-6.91-10.38-1.7-3.74-1.02-7.32,1.37-10.51,1.17-1.55,2.75-2.8,4.17-4.16,1.45-1.39,2.96-2.73,4.4-4.14,1.72-1.67,3.73-2.9,5.81-4.05,1.53-.84,1.79-1.48,1.2-3.11-.38-1.03-.81-2.05-1.28-3.05-.43-.92-.95-1.8-1.5-2.85,1.69.53,2.85,1.63,3.83,2.8,1.18,1.41,2.28,2.96,3.04,4.62,1.07,2.34.33,4.61-1.24,6.49-1.41,1.69-3.08,3.17-4.61,4.76-1.77,1.84-2.67,4.06-2.79,6.6-.1,1.96-.19,3.93-.28,5.89-.09,2.19.22,2.45,2.2,3.4,3.42,1.64,6.65,1.13,9.79-.6,1-.55,1.87-1.39,2.71-2.18,1.45-1.37,3.1-2.2,5.1-2.38,1.15-.1,2.29-.37,3.44-.56,1.29-.21,1.92.26,1.88,1.57-.03,1.04-.29,2.07-.43,3.1-.3,2.18-.93,4.39-.81,6.55.23,4.12,1.14,6.6,5.32,7.61.22-.29.42-.66.72-.92.56-.49,1.12-.71,1.87-.19.79.54,1.7.91,2.81,1.49-.26-1.58-.47-2.83-.68-4.08-.2-1.18.23-2.03,1.49-2.66.64.61,1.35,1.2,1.95,1.89,1.43,1.64,3.05,2.96,5.02,3.96,1.85.94,3.55,2.2,5.26,3.41,1.77,1.25,3.62,2.31,5.66,3.04.33.12.66.24.95.44,2.69,1.83,5.68,2.85,8.87,3.41,1.14.2,2.24.62,3.34,1,2.8.96,5.59,1.95,8.38,2.95,1.77.64,3.57.96,5.46.97,4.89.04,9.72.41,14.29,2.5,2.26,1.03,4.77,1.46,6.91,2.87.45.3,1.36.09,1.99-.12,2.33-.77,4.67-1.41,7.12-1.62,1.57-.13,3.14-.21,4.7-.33,2.32-.18,4.63-.35,6.95-.59,1.56-.16,3.01.15,4.38.87,4.43,2.32,8.02,5.48,10.47,9.94,1.67,3.03,3.04,6.13,4.01,9.44.37,1.28.87,2.52,1.38,3.76,1.01,2.46,1.12,5.09,1.45,7.67.14,1.1-.22,1.46-1.31,1.64-.39.07-.8.06-1.2.08.43,2.14.9,4.28,1.29,6.43,1.17,6.4,1.27,12.82.35,19.27-.34,2.36-.25,4.78-.69,7.11-.58,3.01-1.49,5.96-2.28,8.93-.18.68-.63,1.04-1.38,1.1-2.63.21-4.53,1.69-6.1,3.66-3.06,3.81-6.14,7.61-9.1,11.5-1.65,2.17-3.3,4.39-4.56,6.78-1.29,2.44-2.12,5.12-3.11,7.72-.23.61-.54,1.02-1.2,1.09-1.15.13-2.31.38-3.46.34-1.98-.07-3.64.57-5.13,1.81-2.1,1.75-4.23,3.47-6.35,5.2-.71.58-1.42,1.17-2.35,1.93,2.68,1.4,5.45.73,8.16.99-.03,1.64-.15,3.06-1.66,3.85-2.37,1.23-4.69,2.61-7.16,3.6-5.55,2.24-11.17,4.32-16.79,6.39-4.2,1.54-8.46,2.92-12.66,4.45-2.69.98-5.24,2.22-7.4,4.18-.51.46-1.33.73-2.04.81-2.69.3-5.34-.18-7.94-.82-5.47-1.34-10.92-2.77-16.38-4.13-6.2-1.55-12.41-3.07-18.61-4.59-.5-.12-1.03-.18-1.54-.23-1.27-.11-1.29-.13-1.22-1.68.73-.29,1.47-.59,2.19-.88-.5-2.19-.79-2.46-2.73-2.45-8.48.04-16.96.1-25.43.15-.47,0-.93.02-1.4,0-4.38-.25-8.71.19-13.04.86-3.04.47-6.12.66-9.16,1.16-1.83.3-3.58.98-5.39,1.42-3.5.86-7,1.71-10.51,2.49-3.78.84-7.34,2.25-10.75,4.03-9.41,4.92-18.12,10.94-26.75,17.09-1.3.93-2.33,2.12-2.95,3.61-1.45,3.49-3.1,6.87-4.98,10.15-.36.62-.6,1.43-.55,2.13.12,1.55.39,3.11.72,4.63.42,1.98.99,3.93,1.45,5.91.57,2.46,1.65,4.55,3.8,6.04,1.24.86,2.44,1.8,3.5,2.87,1.95,1.96,4.46,2.89,6.84,4.11,2.98,1.52,6.18,1.9,9.45,2.12,4.6.31,9.17.4,13.75-.31,1.43-.22,2.9-.15,4.35-.3,2.71-.27,5.42-.61,8.13-.91,1.67-.18,3.35-.45,5.03-.44.72,0,1.58.48,2.14.99,1.28,1.19,2.74,1.72,4.44,1.65,1.8-.08,3.6-.18,5.39-.3.89-.06,1.46-.56,1.91-1.33.55-.95,1.18-1.85,1.82-2.73.42-.58.76-1.08.48-1.89-.38-1.1.21-1.84.94-2.75,1.51-1.89,3.5-2.08,5.59-2.17,2.78-.12,5.57-.15,8.35-.28.92-.04,1.84-.24,2.74-.45,4.17-.96,8.41-.99,12.66-.92,2.2.03,4.39-.06,6.59-.08,2.37-.03,4.74-.05,7.11-.05,2.15,0,4.31,0,6.46.11,3.13.15,6.26.39,9.39.57,1.39.08,2.8.01,4.19.15,2.66.25,5.32.53,7.95.93,2.64.4,5.27.9,7.88,1.44,3.94.81,6.72,3.23,8.89,6.49,1.05,1.57,2.34,2.9,4.05,3.75,2.65,1.31,5.31,2.6,7.96,3.91.41.2.84.4,1.17.7,1.69,1.54,3.71,2.34,5.9,2.79,2.61.53,4.35-1.19,3.85-3.8-.09-.45-.24-.89-.41-1.53,2.31.6,4.34,1.52,6.28,2.63,1.41.8,2.77,1.7,4.11,2.62.51.35,1,.81,1.36,1.32,4.01,5.74,8.99,10.49,14.67,14.54,2.93,2.09,5.08,4.75,6.54,8.08,1.48,3.38,2.43,6.88,3.1,10.47.13.68.15,1.39.1,2.08-.06.84-.88,1.57-1.66,1.38-.92-.22-1.84-.41-2.5-1.34-.86-1.23-1.96-2.3-2.95-3.44-.47-.55-1-.58-1.71-.44-2.5.5-5.01,1-7.54,1.28-1.11.12-2.32-.15-3.43-.44-4.62-1.22-8.7-3.52-12.44-6.47-1.55-1.22-3.08-2.46-4.64-3.67-.31-.24-.69-.42-1.06-.51-3.21-.79-6.43-1.58-9.66-2.29-.84-.18-1.76-.18-2.61-.06-3.41.48-6.81.64-10.26.36-2.01-.16-4.06.24-6.09.28-3.19.06-6.39-.03-9.58.03-1.97.04-3.95.24-5.92.38-.75.05-1.51.21-2.25.18-4.28-.17-8.46.69-12.66,1.25-3.96.53-7.89.27-11.84.13-1.49-.05-3,.06-4.49.22-1.05.11-2.03.36-3-.34-.32-.24-.9-.21-1.35-.19-3.37.17-6.74.31-10.1.58-5.43.44-10.53-.57-15.26-3.32-.55-.32-1.05-.73-1.53-1.15-2.25-1.95-2.8-3.48-2.26-6.39-.63-.51-1.29-1.06-1.97-1.6-.73-.58-1.56-.67-2.47-.55-2.76.36-5.53.9-8.3.93-3.73.04-6.84,1.61-9.98,3.28-1.28.69-2.57,1.35-3.86,2.02-2.46,1.28-4.95,2.52-7.39,3.84-1.06.58-2.07.84-3.3.6-1.35-.27-2.76-.34-4.15-.35-2.26-.03-4.5,0-6.75-.36-2.52-.41-5.07-.57-7.63-.31-4.08.41-8.13-.3-12.19-.44-4.25-.15-8.38-1.13-12.58-1.69-2.92-.39-5.85-.77-8.75-1.28-2.69-.48-5.33-1.19-8.01-1.69-1.53-.28-2.72-1.03-3.69-2.14-1.83-2.1-3.62-4.25-5.39-6.41-.24-.29-.33-.71-.45-.99,1.16-2.2,3.09-1.47,5.17-1.26-.62-1.27-1.07-2.24-1.55-3.19-1.86-3.68-3.83-7.3-5.55-11.04-1.42-3.11-2.55-6.36-3.8-9.55-.98-2.5-.71-5.16-.98-7.75-.15-1.44-.16-2.9-.29-4.34-.13-1.35.36-2.41,1.42-3.18,2.45-1.78,4.19-4.18,5.96-6.56,1.89-2.56,3.36-5.25,3.42-8.6.02-1.2.69-2.45,1.27-3.56,2.92-5.61,6.96-10.29,11.95-14.16,1.38-1.07,2.74-2.17,4.07-3.3,2.89-2.46,6.23-4.02,9.85-5.07,1.89-.55,3.76-1.2,5.65-1.76,1.39-.41,2.79-.79,4.2-1.12.95-.22,1.85-.11,2.44.84.53.84,1.15.83,2.08.46,1.22-.48,2.57-.71,3.88-.87,1.29-.16,2.34.52,3.09,1.36,2.77-.81,5.43-1.58,8.09-2.35,3.62-1.06,7.27-2.05,10.86-3.21,5.4-1.74,10.89-2.83,16.56-3.21,3.65-.25,7.28-.86,10.92-1.22,2.66-.26,5.34-.32,8-.55,3.94-.33,7.87-.85,11.81-1.08,5-.29,9.96-.89,14.91-1.6,2.24-.32,4.52-.33,6.79-.43,2.92-.13,5.88-.4,8.42-1.88,2.79-1.63,5.5-3.49,7.54-6.33-.49-.94-.96-1.93-1.51-2.88-.84-1.44-1.1-2.97-.44-4.5,1.17-2.73.93-5.59,1-8.42.02-.81-.02-1.63-.1-2.44-.18-1.75.43-3.16,1.6-4.44,2.75-3.01,6.06-5.23,9.63-7.13,1.8-.96,3.57-1.96,5.36-2.93,1.12-.61,1.76-1.42,1.57-2.8-.17-1.24.07-2.43.82-3.49.16-.23.27-.53.3-.8.19-1.78,1.33-2.89,2.67-3.89,2.46-1.82,4.38-4.13,5.98-6.62-.63-.69-1.15-1.41-1.82-1.93-1.16-.91-1.83-2.11-2.23-3.46-.53-1.78-1.11-3.57-1.36-5.4-.17-1.22-.1-2.63.35-3.77,1.13-2.85,1.6-5.82,1.97-8.82.23-1.89.83-3.61,1.73-5.26.62-1.12,1.2-2.26,1.79-3.39.55-1.06.54-1.37-.51-1.99-1.95-1.16-3.98-2.18-5.94-3.31-4.17-2.42-8.31-4.88-12.25-7.69-4.59-3.27-9.48-6.1-14.38-8.92-2.97-1.71-6.26-2.44-9.33-3.79-.76-.33-1.72-.39-2.57-.33-3.27.2-6.35-.68-9.41-1.57-2.71-.78-5.39-1.4-8.22-1.26-2.93.15-5.78-.2-8.63-.98-1.83-.5-3.76-.8-5.66-.89-3.63-.18-7.11-1.2-10.66-1.76-7.37-1.15-14.21-3.89-21.01-6.79-4.38-1.86-8.85-3.51-13.22-5.4-2.98-1.29-5.83-2.88-8.78-4.24-4.26-1.96-8.11-4.63-11.79-7.43-3.98-3.02-7.33-6.73-9.48-11.44-1.6-3.51-3.16-7-3.89-10.79-.4-2.11-.58-4.25-.9-6.38-.22-1.49-.38-3-.79-4.44-1.06-3.77-.99-7.57-.62-11.42.13-1.32.08-2.66,0-3.99-.15-2.68.34-5.18,1.68-7.55.89-1.56,1.66-3.2,2.35-4.86.92-2.18,2.32-4.03,3.85-5.78.85-.98.88-1.71.31-2.92-1.36-2.88-1.04-5.71.92-8.32,1.66-2.21,3.8-3.91,5.96-5.57,1.01-.78,2.09-1.47,3.19-2.1,1.79-1.02,3.81-.99,5.78-.98,2.26.02,4.52.26,6.77.32.86.02,1.75-.07,2.58-.29,1.74-.46,3.5-.44,5.16.04,1.16.34,2.16,1.21,3.54,2.02,1.12-.52,2.61-1.15,4.03-1.91,3.79-2.02,7.61-4,11.31-6.2,2.83-1.68,5.6-3.53,8.19-5.56,2.33-1.82,4.82-3.2,7.6-4.13,1.21-.4,2.38-.92,3.54-1.45,1.04-.48,2.03-.15,3.22,0-.23.62-.44,1.12-.61,1.65-.46,1.51.2,2.69,1.33,3.79,2.36,2.3,4.73,1.41,7.02.18,2.96-1.6,5.79-3.45,8.71-5.15,2.72-1.58,5.53-2.8,8.81-2.88,2.01-.05,3.99-.75,6-.98,2.19-.25,4.4-.34,6.61-.43,2.56-.09,5.12-.13,7.67-.14,1.33,0,2.66.11,3.99.19.74.05.8.53.62,1.21-.45.11-.95.26-1.45.36-1.96.39-3.77,1.1-5.46,2.17-1.73,1.09-3.54,2.03-5.63,2.23-.75.07-1.35.27-1.3,1.26.06,1.1.45,1.75,1.43,1.86.63.07,1.29.03,1.91-.08,2.75-.5,5.44-.39,8.11.47,2.46.79,4.99,1.15,7.57,1.06,1.92-.07,3.54.51,4.86,1.92-.29,1.39-.34,1.42-1.64,1.34-1.85-.13-3.7-.25-5.54-.37-.23-.01-.47-.04-.69,0-2.9.57-5.76.08-8.64-.2-2.66-.26-5.17.49-7.72,1.09-1.4.34-2.86.62-4.29.58-1.13-.03-1.92.3-2.63,1.03-1.54,1.59-3.04,3.21-4.58,4.79-1.3,1.33-2.66,2.61-3.94,3.95-1.44,1.52-3.26,2.18-5.25,2.45-1.84.25-3.7.43-5.55.62-2.21.22-4.25-.26-6.26-1.92ZM178.7,280.55c-.56.78-.89,1.41-1.38,1.86-3.45,3.23-7.19,6.05-11.38,8.28-2.33,1.24-4.72,2.24-7.37,2.54-1.04.12-2.08.29-3.08.59-6.01,1.81-12.2,2.8-18.31,4.12-1.11.24-2.24.38-3.36.57.95.27,1.87.22,2.79.28,1.62.1,3.25.46,4.85.35,4.29-.28,8.57-.74,12.75-1.88,2.8-.76,5.6-1.56,8.44-2.14,5.01-1.03,10.01-1.97,14.78-3.98,6.37-2.69,11.54-6.68,15.04-12.72.85-1.47.3-2.77-1.39-3.06-.63-.11-1.28-.17-1.91-.13-1.13.06-2.05-.35-2.86-1.06-.83-.73-1.6-1.54-2.5-2.18-.8-.58-1.35-1.24-1.5-2.25.88-1.49,2.28-2.46,3.52-3.59.86-.78,1.77-1.52,2.55-2.38,1.08-1.19,1.04-1.98-.03-3.2-.41-.47-.85-.91-1.07-1.14.23-3.6,2.75-4.68,5.4-5.62.11-.04.23-.06.34-.1,3.27-1.03,6.56-1.99,9.81-3.1,6.43-2.19,12.15-5.53,16.66-10.74,3.96-4.58,6.51-9.83,6.84-15.89.31-5.64-.78-11.09-3.5-16.15-1.63-3.04-4.07-5.29-6.65-7.44-1.17.62-.78,1.33-.29,2.04,1.49,2.15,2.31,4.56,2.72,7.11.28,1.78.59,3.6.5,5.38-.12,2.36-.43,4.76-1.75,6.85-2.15,3.41-4.75,6.44-7.8,9.07-1.04.9-1.98,1.98-3.49,2.61.25-.54.39-.86.54-1.17.4-.84.85-1.66,1.18-2.53.24-.64.18-1.38-.52-1.64-.37-.14-.94.15-1.37.35-.29.14-.46.52-.74.73-1.29.97-2.59,1.93-3.91,2.86-1.95,1.37-4.04,2.56-5.82,4.11-1.15.99-2.25,1.97-3.59,2.68-2.73,1.46-4.15,3.65-4.22,6.87-.07,3.05-1.71,5.27-4.58,6.38-2.88,1.11-5.33,2.85-7.57,4.89-.87.79-1.48,1.9-2.05,2.96-.91,1.68-1.72,3.42-2.52,5.16-.92,2.01-1.5,4.13-1.65,6.34-.07,1.07.25,2.02.84,2.96.96,1.54,2.29,2.62,3.82,3.49,1.51.86,3.04,1.68,4.81,2.66ZM78.46,91.28c-.5-.06-.71-.13-.92-.11-1.73.18-3.46.41-5.19.55-1.2.1-2.41.03-3.6.13-.92.08-1.83.33-2.74.5-2.12.38-4.23.79-6.35,1.13-1.61.26-2.64,1.06-2.95,2.72-.09.51-.22,1.03-.39,1.52-.78,2.24-1.35,4.59-2.4,6.7-2.35,4.67-2.68,9.43-1.2,14.37.2.66.45,1.33.83,1.9,1.76,2.6,3.52,5.2,5.38,7.73,1.51,2.04,1.56,1.93,3.85.77,1.17-.59,2.47-.96,3.75-1.27.46-.11,1.29.12,1.5.46.22.35.05,1.18-.25,1.56-.82,1.02-.56,1.94,0,2.89.41.7.79,1.44,1.33,2.05,1.97,2.21,3.83,4.57,6.05,6.51,2.8,2.45,6,4.36,9.75,5.16,1.85.4,3.44.07,4.91-1.09,2.12-1.68,3.52-3.96,5.1-5.99-.08-.24-.1-.36-.15-.46-1.42-2.81-3.77-4.86-5.88-7.09-2.48-2.61-5.09-5.05-6.69-8.39-.63-1.31-1.81-2.38-2.83-3.48-.99-1.06-2.1-2-3.13-3.03-2.08-2.09-3.32-4.55-2.6-7.55.46-1.92.24-3.8.29-5.7.03-1.38.02-2.82.44-4.1.57-1.75,1.51-3.38,2.33-5.04.53-1.07,1.11-2.11,1.76-3.33ZM91.4,375.52c-.02-.19-.03-.38-.05-.57-.47-.05-.95-.16-1.41-.13-2.42.16-4.83.44-7.26.52-2.85.1-5.7.02-8.54.05-.8,0-1.63.3-2.4.18-2.45-.37-4.91-.67-7.23-1.68-1.14-.5-2.44-.62-3.66-.94-2.1-.55-4.3-.58-6.33-1.57-3.07-1.49-5.96-3.29-8.78-5.17-1.28-.85-2.36-2.04-2.91-3.59-1.07-3.07-1.03-6.26-1.09-9.44-.02-1.27.13-2.54.26-3.81.35-3.39,1.11-6.75.84-10.2-.03-.39.01-.85.2-1.17.8-1.34,1.6-2.7,2.54-3.94,1.93-2.54,3.95-5.01,5.95-7.5.28-.35.59-.71.95-.95,2.05-1.33,4.11-2.62,6.51-4.13-.82.1-1.32.1-1.78.23-1.27.37-2.52.82-3.78,1.2-1.88.56-3.79,1.04-5.66,1.65-3.43,1.11-6.2,3.18-8.5,5.96-1.66,2-3.22,4.03-3.87,6.61-.04.15-.15.35-.28.41-.94.42-1.06,1.27-1.25,2.14-.24,1.11-.56,2.21-.89,3.3-.82,2.68-1.65,5.35-2.5,8.02-.34,1.06-.5,2.09.18,2.96-1.73,1.82-.84,3.97-.84,6.02-1.05-.76-1.12-2-1.49-3.04-1.23-3.46-2.35-6.96-1.01-10.68.09-.26.14-.61.04-.86-.16-.41-.45-.77-.7-1.17-1.2.72-1.51,1.73-1.93,2.68-.67,1.53-1.35,3.06-2.07,4.57-.45.95-.69,1.89-.67,2.99.11,4.99,1.45,9.6,4.07,13.81.82,1.31,1.86,2.61,3.09,3.51,2.2,1.62,4.62,2.92,6.95,4.38,1.26.79,2.5,1.6,3.74,2.41.87.57,1.68,1.22,2.59,1.72,1.33.74,2.81,1.25,4.07,2.09,3.4,2.27,7.24,3.39,11.11,4.44,1.11.3,2.3.32,3.46.35.66.01,1.63.09,1.79-.73.19-1-.86-1.06-1.53-1.31-2.17-.81-4.36-1.55-6.51-2.4-3.21-1.28-6.61-3.6-8.69-6.29.42.09.81.08,1.06.26,2.53,1.76,5.46,2.45,8.38,3.11,1.26.29,2.6.4,3.89.34,5.27-.25,10.52-.84,15.81-.76,1.04.02,2.09-.1,3.12-.28,1.75-.3,3.48-.69,5.21-1.08,1.92-.43,3.84-.86,5.73-1.4.74-.21,1.39-.74,2.08-1.12ZM275.15,234.1c-.75,0-1.52.23-2.03-.04-2.78-1.45-4.71-3.75-5.94-6.61-1.1-2.56-2.03-5.19-3.21-7.71-.81-1.73-1.77-3.41-2.9-4.94-1.04-1.41-2.01-1.23-3.3.41.78,1.33,1.58,2.74,2.43,4.12,1.52,2.48,2.95,4.98,3.88,7.77,1.08,3.24,1.41,6.58,1.6,9.93.1,1.75.07,3.6-1.02,5.21-.22.33-.11,1.03.08,1.46.54,1.26.24,2.17-.74,3.1-.94.9-2.05,1.75-2.15,3.27-.02.25-.41.55-.69.7-.46.24-.97.38-1.45.56-2.97,1.11-5.99,1.64-9.18,1.22-1.86-.24-3.72.02-5.49.69-2.11.79-3.22,2.03-3.03,4.13.13,1.38.27,2.79.7,4.09.92,2.71,2.31,5.18,4.04,7.48,1.12,1.48,2.21,3,3.11,4.63,1.14,2.06,2.42,4.1,2.42,6.61,0,.39.36.78.53,1.1,1.13-.06,1.6-.63,1.98-1.43.52-1.1,1.05-2.21,1.72-3.22,2.12-3.2,4.31-6.34,6.45-9.52.26-.38.5-.8.66-1.23.66-1.71-.39-3.19-2.21-3.08-.51.03-1.01.25-1.53.28-.53.04-1.07-.04-1.95-.08.38-.84.55-1.45.9-1.92.45-.59,1.02-1.13,1.62-1.58,4.85-3.71,9.67-7.45,13.85-11.94.59-.64,1.27-1.21,1.8-1.89,1.53-1.95,1.82-4.16.86-6.39-.58-1.34-1.13-2.65-1.36-4.1-.06-.38-.3-.73-.43-1.05ZM179.39,299.2c.01.08.02.17.04.25,1.85.44,3.77.71,5.55,1.35,2.39.87,4.67.73,6.99-.08,1.37-.48,2.71-1.28,4.1-1.37,1.45-.09,2.93.58,4.42.78,3.42.45,6.83.6,10.19-.47,2.6-.83,5.24-1.55,7.8-2.48,3.39-1.23,6.3-3.23,8.65-5.99,1.69-1.98,2.85-4.25,3.29-6.83.45-2.66-1.4-4.38-3.99-3.78-.34.08-.68.14-1.02.23-2.89.72-5.66,1.67-8.04,3.58-3.07,2.46-6.03,5.06-9.45,7.08-1.91,1.13-3.62,1.07-5.49.25-.46-.2-.92-.42-1.46-.67-.44,1.71-1.6,2.71-3.01,3.28-1.98.79-4.03,1.48-6.1,1.99-3.6.88-7.25,1.59-10.88,2.38-.54.12-1.06.33-1.59.5ZM173.24,174.26c-.07.12-.14.24-.21.36,1.29,1.26,2.12,3.03,4.29,3.31.66.08,1.35.36,1.9.74,2.24,1.55,4.46,3.14,6.64,4.78,4.77,3.57,9.75,6.74,15.55,8.41,1.78.51,3.55,1,5.43.92,2.01-.08,3.66-.9,4.93-2.41,1.06-1.26.83-2.93-.5-3.94-1.25-.95-2.52-1.87-3.86-2.67-3.62-2.16-7.32-4.21-10.93-6.39-2.94-1.77-5.95-2.3-9.33-1.48-3.93.96-7.85.46-11.66-.88-.74-.26-1.5-.49-2.24-.74ZM197.43,380.48c-.16-.63-.14-.99-.31-1.13-.91-.79-1.76-1.83-2.83-2.23-3.14-1.18-6.32-2.36-9.59-3.07-4.87-1.07-9.81-1.85-14.75-2.54-3.15-.44-6.37-.4-9.54-.71-6.05-.59-12.1-.37-18.15-.29-1.21.02-2.41.23-3.61.35.66.36,1.3.42,1.93.43,6.05.07,11.85,1.5,17.58,3.3,1.73.54,3.23,1.29,3.82,3.21.11.35.58.76.95.84,1.66.34,3.37.54,4.98-.13,1.69-.7,3.44-.63,5.15-.43,4.73.56,9.44,1.34,14.17,1.84,3.28.35,6.59.39,10.2.58ZM274.51,218.13c.36-3.22.17-5.94-1.1-8.55-1.32-2.71-2.27-5.61-4.41-7.85-1.96-2.06-3.94-4.11-5.92-6.15-.2-.2-.46-.36-.72-.47-3.85-1.69-7.55-1.02-11.47.65.33.23.46.35.61.41,2.39.89,4.79,1.76,7.18,2.66,4.6,1.74,8.01,4.79,10.06,9.29.46,1,.82,2.04,1.26,3.05,1.07,2.45,2.66,4.56,4.5,6.96ZM196.53,283.66c.08.13.17.26.25.39.21-.05.45-.05.64-.15,1.7-.88,3.39-1.77,5.08-2.65.29-.15.73-.49.88-.4.66.43.94-.04,1.31-.4.42-.4.81-.86,1.28-1.18,2.41-1.68,3.47-4.32,4.77-6.77.74-1.4.42-2.85-.68-4.04-1.42-1.53-4.39-2.28-6.26-1.44-2.06.92-4.05,2.01-6.06,3.05-.52.27-1.12.61-.9,1.31.22.7.53,1.48,1.46,1.51.63.02,1.27-.06,1.89-.14,1.48-.19,2.86-.55,4.42.07,1.66.66,1.66,1.76,1.25,2.9-.42,1.15-.98,2.24-2.05,2.97-1.92,1.31-3.82,2.65-5.74,3.97-.5.34-1.02.67-1.53,1Z"/>
    <path class="cls-1" d="M146.68,279.32c-.54-.28-1.2-.44-1.59-.85-4.8-5.06-9.64-10.1-14.31-15.29-2.13-2.37-3.9-5.06-4.82-8.2-.23-.78-.56-1.54-.95-2.25-1.13-2.09-1.4-4.31-1.06-6.61.33-2.24.83-4.45,1.18-6.68.48-3.13,2.54-4.99,5.26-5.94,3.5-1.22,7.13-2.09,10.74-3,1.05-.26,2.2-.14,3.3-.2.4-.02.79-.06,1.08-.09.14-1.71.16-3.33.42-4.91.43-2.66,1.68-4.94,3.66-6.78,2.18-2.03,4.59-3.76,7.23-5.16,1.37-.73,2.71-.72,4.02-.09,4.72,2.26,8.96,5.14,12.2,9.35,2.12,2.75,3.55,5.85,4.72,9.08.13.35,0,.8-.01,1.56-3.01-2.87-6.28-3.32-9.82-2.71-1.88.32-3.26,1.51-4.55,2.76-2.95,2.86-4.56,6.38-4.72,10.51-.03.79.2,1.58.25,2.38.03.55-.02,1.11-.1,1.66-.14.98-.78,1.22-1.66,1.01-1.24-.31-2.47-.65-3.71-.96-2.12-.53-4.2-.17-6.14.64-1.28.54-2.34,1.51-2.6,3.05-.03.17-.04.36-.13.51-1.45,2.44-.67,5.07-.77,7.64-.1,2.75,1.05,5.21,1.36,7.83.35,2.97,1.56,5.69,2.28,8.54.27,1.07.25,2.07-.79,3.22Z"/>
    <path class="cls-1" d="M253.65,147.54c1.06-.69,2.04-1.41,3.11-1.98.66-.35.87-.85,1.02-1.5.51-2.08,1.42-3.9,3.13-5.3,1.09-.89,2.21-1.03,3.4-.42,2.94,1.52,5.82,3.15,8.29,5.41.98.9,2.15,1.57,3.16,2.45,1.66,1.45,3.47,2.82,4.82,4.52,1.93,2.43,3.59,5.1,5.22,7.75,1.77,2.86,3.48,5.77,5.02,8.76.94,1.82,1.71,3.77,1.29,5.98-.12.61.24,1.35.48,1.98.46,1.19,1.01,2.35,1.49,3.53.24.59.46,1.2.59,1.82.06.28-.14.62-.23.93-.3-.08-.69-.07-.89-.26-.38-.35-.7-.79-.95-1.24-1.12-1.97-2.19-3.97-3.32-5.93-2.27-3.94-5.11-7.32-9.31-9.37-3.6-1.75-7.12-3.65-10.76-5.29-2.72-1.23-5.67-1.65-8.68-1.5-.81.04-1.63-.05-2.43.03-4.6.49-8.37,2.51-11.17,6.23-.27.36-.41.83-.64,1.23-.33.61-.61,1.27-1.05,1.8-.98,1.17-2.08,1.01-2.73-.34-.22-.47-.44-.95-.59-1.45-.92-3.05-2.94-5.37-5.07-7.61-2.41-2.52-4.85-5.01-7.22-7.57-1.5-1.62-2.87-3.36-4.35-4.99-.89-.98-1.9-1.86-2.87-2.77-.25-.24-.55-.42-.8-.66-1.36-1.29-1.08-2.55.76-2.99,1.4-.33,2.86-.47,4.31-.58,3.01-.24,6.02-.44,9.03-.61,1.56-.09,2.99.43,4.32,1.17,2.29,1.26,4.6,2.48,6.8,3.89,2.34,1.51,4.55,3.23,6.81,4.85Z"/>
    <path class="cls-1" d="M163.45,328.24c-2.06-.25-4.12-.66-6.2-.72-3.95-.12-7.9-.15-11.85-.03-2.31.07-4.64.38-6.91.83-1.92.38-3.81,1.02-5.65,1.71-.81.3-1.43.29-2.12-.1-.65-.38-1.33-.73-1.94-1.18-1.46-1.07-3.11-1.58-4.87-1.62-3.43-.08-6.89-.39-10.27,0-5.06.57-10.09-.17-15.12.2-1.74.13-3.47.25-5.21.37-.63.04-1.26.08-1.95-.12,1.71-.67,3.42-1.34,5.13-2.02,2.99-1.2,6.18-1.52,9.29-2.21,1.4-.31,2.76-.83,4.13-1.29.75-.26,1.03-.73.87-1.62-.21-1.15.12-1.47,1.38-1.64,1.44-.19,2.88-.33,4.33-.47,4.45-.43,8.9-1.08,13.36-1.17,2.98-.06,6.01.54,8.96,1.14,4.43.91,8.85,1.96,13.2,3.18,1.75.49,3.33,1.6,4.97,2.46,1.9.99,3.8,1.99,5.67,3.02.4.22.72.61,1.07.92l-.28.37Z"/>
    <path class="cls-1" d="M236.82,374.17c-1.74-.95-3.34-1.89-5-2.72-2.18-1.09-4.47-1.95-6.58-3.16-2.46-1.41-4.78-3.07-7.13-4.66-.33-.22-.75-.78-.66-1.05.13-.42.59-.91,1-1.03,2.19-.63,4.43-.97,6.72-.82.34.02.7.1,1.01.24,4.07,1.83,8.27,3.42,12.14,5.61,3.56,2.02,7.26,3.88,10.45,6.52.89.74,1.71,1.57,2.6,2.3.8.66,1.35,1.68,2.69,1.63.48-.02,1.14.65,1.44,1.16,1.68,2.85,4.36,4.79,6.49,7.22,3.42,3.9,6.39,8.09,7.73,13.21.13.49.16,1.01-.04,1.71-.33-.32-.69-.63-1-.97-3.81-4.31-7.63-8.61-11.42-12.94-1.48-1.69-2.83-3.51-4.37-5.15-3.45-3.69-7.62-6.43-12.04-8.81-1.94-1.04-2.89-.64-4.04,1.71Z"/>
    <path class="cls-1" d="M136.04,1.83c1.08.98.74,1.81.46,2.65-.46,1.37-.88,2.75-1.3,4.14-.08.26-.01.55-.01.98,2.73.35,5.65-.43,8.14,1.52-.3.18-.52.36-.77.44-3.48,1.08-6.51,3.06-9.62,4.88-2.47,1.45-4.6,3.31-6.27,5.69-1.15,1.63-1.83,3.35-1.83,5.34,0,1.11.08,2.21.02,3.32-.01.32-.35.62-.55.92-.26-.18-.63-.31-.76-.56-.34-.67-.53-1.42-.88-2.08-.89-1.69-1.84-3.35-2.76-5.03-.36-.66-.8-1.29-1.08-1.98-.45-1.1-.29-2.1.47-3.09,4.36-5.7,9.19-10.95,14.62-15.64.64-.55,1.38-.99,2.1-1.49Z"/>
    <path class="cls-1" d="M295.85,222.85c.17-.41.32-.84.53-1.24,1.33-2.52,1.41-5.16.52-7.78-.68-2-.89-4-.5-6.01.47-2.46-.09-4.58-1.49-6.59-1.08-1.54-2.12-3.17-1.77-5.14.29-1.64.77-3.27,1.4-4.82.56-1.37,1.84-1.68,3.01-.79,2.27,1.72,4.47,3.53,6.65,5.35,1.08.9.85,2.18.67,3.36-.11.74-.33,1.49-.67,2.15-1.15,2.25-1.59,4.68-2.1,7.12-.62,2.94-1.22,5.92-2.23,8.74-.71,1.98-2.09,3.73-3.19,5.57-.09.16-.36.21-.55.31-.09-.08-.17-.16-.26-.24Z"/>
    <path class="cls-1" d="M136.2,90.09c.5.92-.04,1.44-.45,1.99-.69.93-1.47,1.8-2.09,2.78-.97,1.54-1.06,3.29-.85,5.03.28,2.34,1.07,4.55,2.72,6.26.98,1.02.89,1.98.59,3.27-1.95-.93-3.82-1.8-5.68-2.71-.77-.37-1.09-1.05-1.42-1.85-1.62-3.96-.9-7.64,1.15-11.17.38-.65,1.07-1.2,1.74-1.61,1.32-.81,2.6-1.77,4.3-1.99Z"/>
    <path class="cls-1" d="M200.29,49.95c1.76.22,3.42.89,4.95,1.76,2.96,1.68,4.8,4.32,5.92,7.48.43,1.21.14,2.04-.74,2.07-.51.02-1.16-.25-1.54-.61-1.09-1.03-2.14-2.13-3.09-3.29-.95-1.16-1.71-2.48-2.65-3.65-.69-.86-1.52-1.59-2.3-2.37-.36-.35-.93-.58-.56-1.39Z"/>
  </g>
</svg>