<?xml version="1.0" encoding="UTF-8"?>
<svg id="Layer_1" data-name="Layer 1" xmlns="http://www.w3.org/2000/svg" version="1.1" viewBox="0 0 192 547">
  <defs>
    <style>
      .cls-1 {
        fill: #ff5c7a;
      }

      .cls-1, .cls-2 {
        stroke-width: 0px;
      }

      .cls-2 {
        fill: #a515ff;
      }
    </style>
  </defs>
  <g id="FIRE_ALT_03" data-name="FIRE ALT 03">
    <path class="cls-2" d="M122.09,192.99c.26,2.99.62,5.77.71,8.56.14,4.47.18,8.95.1,13.43-.06,2.86-.43,5.72-.64,8.58-.18,2.56-.36,5.11-.48,7.67-.16,3.45-.41,6.9-.34,10.34.05,2.78.49,5.55.8,8.32.36,3.14.75,6.28,1.18,9.41.28,2.04.65,4.07,1,6.1.39,2.28.82,4.56,1.22,6.84.32,1.79.75,3.58.9,5.39.19,2.26,0,4.42-.96,6.66-.98,2.32-.95,5.05-1.63,7.53-.92,3.39.35,6.57.58,9.85.15,2.13.38,4.3.14,6.4-.6,5.21-.59,10.35,1.07,15.36.81,2.44,1.86,4.82,2.97,7.15.97,2.04,2.1,4.02,3.29,5.93.72,1.16,1.71,2.14,2.91,3.62.77-2.05,1.64-3.56,1.9-5.16.77-4.8,1.64-9.68.56-14.51-.87-3.95-2.22-7.79-3.35-11.68-.32-1.09-.64-2.19-1.04-3.56,5.58,3.47,9.26,8.16,11.73,13.69,1.12,2.5,1.45,5.39,1.87,8.15.18,1.21.56,2.03,1.48,2.77,2.2,1.77,3.78,3.88,3.46,6.94-.18,1.76-.37,3.53-.35,5.3.04,3.17.03,6.37.43,9.51.21,1.62,1.2,3.16,1.92,4.69,1.66,3.54,3.37,7.06,5.07,10.59,1.81,3.74,1.86,7.88,2.71,11.84.84,3.89.7,7.75.46,11.66-.35,5.49.16,10.92,1.15,16.33.43,2.32.42,4.71.63,7.07.1,1.16-.6,1.92-1.26,2.73-2.71,3.31-4.89,6.92-6.56,10.89-2.06,4.88-3.22,9.98-4.2,15.12-.39,2.04-.06,4.22-.06,6.17.86.79,1.55.75,2.12.07.7-.84,1.41-1.71,1.97-2.65.56-.95.9-2.03,1.41-3.01.17-.32.63-.73.92-.7.31.03.7.47.84.81.32.74.51,1.53.74,2.31,1.42,4.97,2.72,9.98,4.29,14.9,1.1,3.44,2.58,6.75,3.9,10.12,1.71,4.35,2.61,8.9,3.36,13.49.18,1.09.33,2.19.52,3.28.26,1.5-.04,2.87-.53,4.3-.81,2.37-1.44,4.81-2.01,7.26-1.16,4.99-2.91,9.75-5.3,14.27-1.48,2.8-3.06,5.57-4.36,8.45-1.14,2.55-2.9,4.61-4.68,6.64-3.17,3.6-6.49,7.07-9.75,10.59-.4.43-.83.85-1.32,1.17-1.26.81-2.56.65-3.59-.42-2.8-2.94-5.64-5.86-8.37-8.87-1.79-1.97-3.86-3.29-6.39-4.18-9.08-3.18-18.22-3.26-27.51-1.12-3.88.89-7.81,1.57-11.73,2.25-.99.17-2.06.11-3.06-.05-2.54-.41-5.2-.58-7.56-1.51-2.82-1.12-5.51-2.69-7.74-4.9-2.67-2.65-5.47-5.18-8.24-7.73-.84-.77-1.74-1.14-3.02-.88-2.02.4-4.1.49-6.16.69-1.13.11-2.02-.21-2.52-1.36-2.27-5.26-5.81-9.76-8.76-14.62-2.83-4.66-5.14-9.64-7.76-14.44-1.63-2.98-3.55-5.81-5.08-8.84-2.03-4.02-3.73-8.2-5.69-12.26-1.84-3.8-3.93-7.45-6.76-10.64-1.35-1.53-1.4-2.11-.29-3.92,1.16-1.89,2.31-3.8,3.64-5.57,2.75-3.66,3.82-7.79,3.64-12.28-.23-5.82-.43-11.65-.82-17.46-.38-5.67-.88-11.33-1.5-16.97-.31-2.78-1.01-5.52-1.52-8.28-.13-.71-.21-1.42-.38-2.64.76.58,1.22.79,1.49,1.14,3.78,4.92,7.55,9.85,11.29,14.8.93,1.23,1.07,2.56.81,4.17-.36,2.23-.41,4.58-.16,6.83.52,4.54,1.28,9.07,2.04,13.58,1,5.92,2.74,11.64,4.75,17.28.57,1.6,1.08,3.22,1.68,4.8.29.75.67,1.5,1.16,2.13.85,1.11,1.96,1,2.68-.22.3-.5.46-1.09.65-1.65,1.44-4.37,1.51-8.86,1.17-13.4-.67-8.9-3.37-17.35-5.68-25.9-1.69-6.27-3.16-12.6-4.92-18.85-.94-3.33-2.29-6.55-3.45-9.82-1.53-4.31-3.03-8.64-4.58-12.95-.59-1.64-.4-3.15.35-4.7,2.81-5.78,5.59-11.57,8.33-17.38.85-1.8,1.41-3.74,2.31-5.51,1.51-2.96,3.15-5.85,4.81-8.73,3.09-5.38,6.22-10.75,9.37-16.09,1.24-2.1,2.51-4.19,3.9-6.18,2.04-2.92,3.84-5.96,5.21-9.25,2.3-5.53,5.52-10.42,9.74-14.69,1.59-1.61,2.95-3.46,4.72-5.57.48,4,.92,7.59,1.4,11.55,1.99-.95,3.65-1.71,5.28-2.53.94-.47.97-1.4,1.02-2.31.36-5.68.84-11.36,1.05-17.05.25-6.65.43-13.31.33-19.96-.07-4.43-.66-8.85-1.06-13.27-.36-4.05-.79-8.09-1.12-12.14-.05-.61.24-1.27.47-1.88.42-1.1.84-2.21,1.39-3.25,1.63-3.06,1.5-6.28.91-9.52-1.38-7.62-2.85-15.23-4.24-22.85-.54-2.97-.85-5.98-1.49-8.92-.46-2.08-1.22-4.1-2-6.09-.78-1.98-1.06-3.79.39-5.61.96-1.21,1.74-2.56,2.67-3.96-2.42-2.46-3.14-5.82-4.39-8.94-.98-2.45-2.13-4.87-3.52-7.11-1.72-2.76-3.46-5.48-4.84-8.45-1.74-3.75-3.72-7.39-5.71-11.03-.51-.94-.73-1.75-.3-2.71.51-1.14.83-2.44,1.6-3.38,2.32-2.85,3.91-6.08,5.41-9.38,1.77-3.9,3.39-7.87,5.34-11.68,3.21-6.28,3.5-12.92,2.7-19.68-.47-3.93-.11-7.69,1.31-11.32,1.28-3.29,2.94-6.43,4.15-9.74,1.09-2.97,2-6.03,2.65-9.12,1.74-8.31,3.33-16.64,4.9-24.99.46-2.46.61-4.98.94-7.47.07-.55.28-1.07.55-2.07.92,1.95,1.09,3.55,1.14,5.15.24,6.88.46,13.75.63,20.63.13,5.45.08,10.9.27,16.35.11,3.17.58,6.33.77,9.5.06.92-.2,1.87-.41,2.78-.64,2.8-1.41,5.57-1.98,8.38-1.35,6.66-2.66,13.32-3.89,20-.47,2.54-.68,5.13-.98,7.7-.05.43-.04.89.03,1.32.67,3.93,1.35,7.86,2.04,11.78.71,4,1.65,7.96,2.12,11.98.83,7.09,2.75,13.89,4.79,20.68,2.1,7,4.13,14.02,6.11,21.06.66,2.34,1.14,4.74,1.59,7.13.66,3.53,1.91,6.81,3.65,9.93,1.38,2.49,3.52,3.91,6.23,4.54,1.65.38,3.32.81,5,.98,1.59.17,3.2.04,5.09.04ZM103.96,357.93c-1.2.22-2.19.46-3.2.57-2.12.23-4.26.38-6.38.58-2.65.24-4.03,2.2-3.01,4.41.74,1.6,1.7,3.09,2.45,4.68.62,1.31,1.15,2.68,1.57,4.07.25.81-.14,1.31-1.1,1.54-1.33.32-2.42-.28-3.62-.51-3.28-.64-4.74.32-4.19,3.93.08.51.28.99.42,1.49.24.85.57,1.69.7,2.56.37,2.48.72,4.97.98,7.46.55,5.2.05,10.31-1.42,15.32-1.53,5.26-3.62,10.3-5.86,15.29-1.93,4.3-3.42,8.77-5.67,12.95-3.37,6.25-7.3,12.11-11.51,17.8-1.26,1.7-2.78,3.23-4.99,3.85-1.41.4-2.73,1.1-4.08,1.69-3.08,1.33-4.18,3.5-3.71,6.91.29,2.04.36,4.11.53,6.17.17,2.06.22,4.13.54,6.17.31,1.95,1.18,3.64,3.22,4.43.47.18.91.51,1.27.88,2.48,2.53,5.1,4.94,7.34,7.67,2.24,2.73,4.19,5.72,6.07,8.72,2.09,3.34,5.05,5.38,8.77,6.28,5.81,1.42,11.68,2.57,17.48,4.03,2.77.7,5.65,1.46,8.1,2.85,4.8,2.73,10,3.93,15.28,4.99,1.71.34,2.74-.5,2.79-2.21.02-.79-.13-1.61-.36-2.37-.79-2.62-1.72-5.19-2.44-7.82-.38-1.38-1.11-2.77-.5-4.47,1.92-.29,3.86-.7,5.83-.86,6.31-.53,12.36-2.1,18.19-4.51,1.92-.79,2.34-1.52,2.19-3.55-.04-.59-.12-1.18-.28-1.75-.53-1.91-.75-4.02-1.74-5.65-1.77-2.9-4.44-5.04-7.83-5.81-2.91-.66-4.5-2.38-5.62-5.02-3.32-7.82-6.81-15.56-10.18-23.36-.9-2.09-1.61-4.27-2.39-6.42-.49-1.36-.12-2.52.64-3.75,1.32-2.12,2.49-4.34,3.6-6.58,2.24-4.51,4.69-8.83,8.19-12.54,2.43-2.57,4.62-5.37,6.77-8.19,2.77-3.64,5.4-7.39,8.07-11.1.3-.41.55-.87.8-1.32,1.82-3.31.66-6.76-2.82-8.22-.95-.4-1.96-.66-2.97-.89-.99-.22-1.56-.68-1.65-1.76-.09-1.1-.31-2.19-.46-3.29-.38-2.62-.7-5.26-1.17-7.86-.18-.96-.29-2.01-1.33-2.67-2.31-1.47-3.9-1.17-5.65.95-.89,1.07-1.69,2.49-3.61,2.39-.34-.81-.73-1.59-1-2.42-1.3-3.99-2.47-8.04-3.88-11.99-1.73-4.85-3.8-9.59-5.47-14.47-2.32-6.76-4.2-13.66-5.72-20.66-1.73-7.95-2.31-16.05-3.26-24.1-.51-4.33-.73-8.69-1.2-13.02-.27-2.48-.89-4.92-1.18-7.4-.23-1.97-.21-3.97-.29-5.92-1.9-.82-2.12-.74-2.46,1.02-.14.72-.14,1.47-.15,2.21-.01,4.22-.01,8.44,0,12.66.01,4.29-.09,8.59.11,12.87.2,4.35.74,8.68,1.06,13.03.37,5.08.65,10.17.99,15.26.46,6.85,1.28,13.69.9,20.58-.08,1.38-.32,2.75-.5,4.21ZM53.51,400.81c-.24-4.31-.42-8.63-.73-12.94-.19-2.65-.4-5.31-.87-7.92-.55-3-.81-5.98-.71-9.03.11-3.36,1.15-6.03,4.45-7.49,1.9-.84,3.56-2.09,4.96-3.65,2.41-2.7,4.93-5.32,7.15-8.17,1.75-2.25,3.2-4.76,4.64-7.24,1.06-1.83.59-3.9.41-5.87-.1-1.17-.38-2.32-.61-3.66-1.94,2.94-3.65,5.59-5.43,8.19-1.5,2.19-3.02,4.37-4.66,6.45-2.01,2.55-4.22,4.91-7.03,6.67-4.35,2.72-8.07,6.21-11.87,9.62-.69.62-1.21,1.28-1.21,2.24,0,1.6,0,3.19,0,5.04.84-.18,1.46-.34,2.08-.44,1.48-.22,2.89-.01,3.74,1.32.62.98,1.21,2.1,1.38,3.22.58,3.72.95,7.47,1.42,11.21.53,4.22,1.03,8.45,2.89,12.45Z"/>
    <path class="cls-2" d="M46.4,294.31c0-7.32.01-14.64,0-21.97-.03-16.21-.08-32.41-.11-48.62-.01-5.47.05-10.95,0-16.42-.02-2.29-.18-4.58-.38-6.85-.09-1.09.31-1.77,1.13-2.44,1.54-1.26,3.09-2.54,4.44-4,2.88-3.11,4.16-7.01,4.52-11.09.49-5.42-.46-10.74-1.95-15.97-.49-1.71-1.42-2.78-3.19-3.26-2.81-.76-5.41-1.99-7.61-3.95-.99-.88-2.18-1.25-3.48-1.17-2.46.15-4.4-.91-6.21-2.47-1.6-1.38-2.48-3.07-2.78-5.12-.38-2.63-.86-5.25-1.11-7.88-.33-3.41.22-6.77.93-10.1,1.15-5.37,3.08-10.48,5.43-15.43.47-.99,1.09-1.91,1.86-3.23.19.63.31.85.32,1.08.19,5.32.43,10.65.51,15.97.07,4.07-.09,8.14-.1,12.21,0,2.35.11,2.62,2.4,2.14,3.82-.79,7.57-1.92,11.35-2.93,1.28-.34,2.54-.82,3.84-1.07,1.66-.31,2.39.32,2.32,2.02-.13,3.45.64,6.73,1.75,9.96,2.6,7.61,5.16,15.24,7.74,22.86.59,1.75,1.32,3.45,1.83,5.22.2.71.16,1.6-.07,2.32-2.36,7.26-4.28,14.62-4.5,22.29-.16,5.61-.1,11.22-.05,16.83.03,4.31-.45,8.56-1.48,12.73-1.57,6.38-3.28,12.72-5.01,19.05-1.49,5.48-3.06,10.95-4.65,16.4-1.05,3.61-2.42,7.14-3.25,10.8-.96,4.21-2.65,8.12-4.43,12.09Z"/>
    <path class="cls-2" d="M124.86,78.99c-1.15-.93-1.33-1.79-.91-2.93,1.05-2.85,2.23-5.62,4.07-8.07.58-.77,1.25-1.51,1.64-2.37,1.13-2.47,3.22-2.81,5.55-2.66,2.58.17,5.15.44,7.73.54,2.53.1,3.44.53,4,2.9,1.18,5.08,3.8,9.42,6.55,13.72,1.86,2.9,3.81,5.73,5.76,8.64-.21.07-.56.32-.88.28-2.33-.29-4.13.88-5.92,2.07-4.25,2.83-7.52,6.64-10.55,10.67-3.07,4.08-5.78,8.37-7.66,13.17-1.42,3.64-3.16,7.15-4.72,10.74-.4.93-.63,1.93-.99,3.03,1.34.27,2.48.5,3.61.74,1.88.4,2.74,1.69,2.2,3.55-1.11,3.83-2.52,7.58-3.39,11.46-1.19,5.32-1.99,10.73-2.95,16.1-.09.51-.05,1.05-.18,1.54-.5,1.92-.36,3.8.16,5.69.25.91.39,1.86.25,2.94-.22-.45-.54-.88-.63-1.35-.74-3.76-1.5-7.52-2.13-11.3-.81-4.88-1.68-9.75-2.21-14.67-.41-3.73-.52-7.52-.42-11.27.19-7.4,1.41-14.72,3.15-21.88,1.58-6.51,3.64-12.93,5.89-19.25,1.07-3.02,3.06-5.71,4.64-8.54.4-.71.74-1.48,1.27-2.08,1.62-1.84,1.14-3.62,0-5.43-.04-.06-.06-.13-.11-.19-2.06-2.82-2.15-3.42-4.9-.74-2.25,2.18-5.06,3.54-7.9,4.93Z"/>
    <path class="cls-2" d="M23.45,285.54c-1.14-.79-2.14-1.47-3.48-2.4-.41,3.58.85,6.55,1.36,9.59.53,3.12,1.35,6.2,2.18,9.26.82,3.02,1.83,5.99,2.85,9.31-1.23-1.13-2.45-1.93-3.22-3.04-3.32-4.79-6.63-9.6-9.72-14.55-2.26-3.63-3.05-7.84-3.51-12.02-.5-4.54-.86-9.13-.84-13.7.02-5.38.18-10.84,2.12-15.95,1.2-3.15,2.82-6.17,4.49-9.1,1.39-2.43,3.1-4.66,4.09-7.32.56-1.49,1.41-2.71,2.82-3.57.92-.57,1.67-1.42,2.88-2.48.09,1.21.2,2.03.19,2.85-.04,4,.25,7.95,1.3,11.85.76,2.81,2.11,5.17,4.14,7.19.31.31.66.6.93.95.94,1.21.71,1.91-.67,2.5-3.83,1.65-6.96,4.15-9,7.85-.38.68-.66,1.54-.63,2.29.18,4.35.41,8.7.75,13.04.19,2.41.61,4.81.95,7.43Z"/>
    <path class="cls-2" d="M136.6,198.98c.98.28,1.06,1.03,1.19,1.74.49,2.61.98,5.22,1.47,7.84.81,4.27,1.64,8.53,2.42,12.81.9,4.93,1.75,9.87,2.62,14.81,1.04,5.88,3.5,11.24,6.12,16.54.65,1.32,1.21,2.72,2.06,3.91,1.03,1.44.59,2.51-.27,3.79-1.55,2.33-3.12,4.68-4.37,7.18-1.87,3.76-3.47,7.65-5.18,11.49-.12.27-.14.61-.32.82-.35.41-.74,1.01-1.17,1.07-.75.11-1.09-.5-1.23-1.26-.51-2.83-1.1-5.64-1.6-8.47-.85-4.87-1.75-9.73-2.46-14.61-.79-5.41-1.44-10.85-1.09-16.33.26-4.05.82-8.08,1.13-12.12.6-7.95,1.44-15.9.7-23.9-.16-1.72-.02-3.47-.02-5.29Z"/>
    <path class="cls-2" d="M182.58,404.66c-2.06,4.05-4.95,7.3-7.83,10.55-1.37,1.55-2.65,3.17-3.98,4.75-.42.51-.79,1.12-1.32,1.47-.42.28-1.19.47-1.57.27-.39-.21-.64-.94-.67-1.45-.03-.56.27-1.13.43-1.7.88-2.97,1.89-5.91,2.61-8.91,1.35-5.59,1.3-11.25.34-16.91-.3-1.73-.28-1.74,1.77-2.53,3.58,4.68,7.36,9.28,10.2,14.46Z"/>
    <path class="cls-1" d="M103.96,357.93c.18-1.46.42-2.83.5-4.21.38-6.89-.44-13.72-.9-20.58-.34-5.09-.62-10.18-.99-15.26-.32-4.35-.86-8.68-1.06-13.03-.2-4.28-.1-8.58-.11-12.87-.01-4.22-.01-8.44,0-12.66,0-.74,0-1.49.15-2.21.34-1.76.56-1.84,2.46-1.02.09,1.95.06,3.95.29,5.92.29,2.48.91,4.92,1.18,7.4.48,4.33.69,8.69,1.2,13.02.95,8.05,1.53,16.15,3.26,24.1,1.52,6.99,3.4,13.89,5.72,20.66,1.67,4.87,3.74,9.61,5.47,14.47,1.41,3.95,2.58,8,3.88,11.99.27.82.66,1.61,1,2.42,1.92.1,2.73-1.32,3.61-2.39,1.75-2.12,3.34-2.42,5.65-.95,1.04.66,1.16,1.71,1.33,2.67.47,2.61.79,5.24,1.17,7.86.16,1.1.38,2.19.46,3.29.09,1.08.66,1.54,1.65,1.76,1.01.22,2.02.49,2.97.89,3.48,1.46,4.64,4.91,2.82,8.22-.25.45-.5.9-.8,1.32-2.68,3.71-5.3,7.46-8.07,11.1-2.15,2.82-4.34,5.62-6.77,8.19-3.5,3.71-5.96,8.03-8.19,12.54-1.11,2.24-2.28,4.46-3.6,6.58-.76,1.23-1.14,2.38-.64,3.75.78,2.15,1.49,4.32,2.39,6.42,3.37,7.8,6.85,15.55,10.18,23.36,1.12,2.64,2.71,4.36,5.62,5.02,3.38.77,6.06,2.91,7.83,5.81,1,1.63,1.21,3.74,1.74,5.65.16.57.24,1.16.28,1.75.14,2.03-.28,2.76-2.19,3.55-5.84,2.41-11.88,3.98-18.19,4.51-1.97.17-3.92.57-5.83.86-.6,1.7.13,3.09.5,4.47.72,2.63,1.65,5.21,2.44,7.82.23.76.38,1.59.36,2.37-.05,1.72-1.08,2.55-2.79,2.21-5.28-1.06-10.49-2.25-15.28-4.99-2.45-1.4-5.33-2.16-8.1-2.85-5.8-1.46-11.67-2.61-17.48-4.03-3.72-.91-6.68-2.94-8.77-6.28-1.88-3-3.83-5.99-6.07-8.72-2.24-2.73-4.86-5.14-7.34-7.67-.35-.36-.8-.69-1.27-.88-2.04-.79-2.91-2.47-3.22-4.43-.32-2.03-.37-4.11-.54-6.17-.17-2.06-.24-4.13-.53-6.17-.48-3.41.62-5.58,3.71-6.91,1.35-.58,2.68-1.29,4.08-1.69,2.22-.63,3.74-2.15,4.99-3.85,4.21-5.69,8.14-11.55,11.51-17.8,2.25-4.18,3.74-8.65,5.67-12.95,2.24-4.99,4.32-10.03,5.86-15.29,1.46-5.02,1.97-10.13,1.42-15.32-.27-2.5-.61-4.98-.98-7.46-.13-.87-.46-1.71-.7-2.56-.14-.5-.34-.98-.42-1.49-.55-3.6.91-4.56,4.19-3.93,1.2.23,2.29.83,3.62.51.95-.23,1.35-.73,1.1-1.54-.43-1.39-.95-2.75-1.57-4.07-.75-1.59-1.72-3.08-2.45-4.68-1.02-2.21.36-4.17,3.01-4.41,2.13-.19,4.26-.35,6.38-.58,1.01-.11,2.01-.35,3.2-.57ZM123.82,473.41c-.64-.75-1.05-1.22-1.45-1.7-1-1.18-2.06-2.32-3-3.55-3.16-4.12-4.85-8.94-6.44-13.8-2.64-8.07-5.14-16.2-7.98-24.2-.87-2.45-1.31-4.43.6-6.43.2-.21.31-.5.46-.76,4.19-7.17,9.55-13.32,15.95-18.59.42-.34.73-.81,1.16-1.3-.35-.28-.51-.53-.69-.53-.5-.01-1.01.11-1.52.11-1.54,0-3.23.21-4.16-1.39-1.98-3.41-3.06-7.02-2.3-11.03.32-1.7.46-3.44.69-5.3-1.44.07-1.4,1.07-1.64,1.74-.86,2.44-1.54,4.94-2.5,7.34-2.58,6.46-4.67,13.07-6.39,19.81-.31,1.22-.79,2.15-1.78,2.92-2.68,2.08-3.92,4.93-4.13,8.26-.21,3.35.89,6.37,2.27,9.37,1.41,3.08,2.69,6.23,3.84,9.41.91,2.51.49,3.8-1.7,5.39-1.73,1.25-3.58,2.41-5.52,3.27-3.97,1.77-8.07,2.91-12.47,1.53-.52-.16-1.13-.02-1.72-.02-.58,1.45.21,2.38.96,3.27,1.79,2.12,4.21,3.2,6.79,3.99,1.58.48,3.14,1,5,1.59-.69.58-1.05.94-1.46,1.22-3.47,2.4-7.49,3.45-11.47,4.55-1.33.37-2.79.52-4.16.43-4.21-.29-8.38-.81-12.3-2.6-1.3-.59-2.72-1.16-4.24-.8-.11.3-.21.49-.25.7-.04.22-.05.46,0,.66,1.06,3.62,2.47,7.14,6.05,8.89,3.7,1.81,7.52,3.55,11.48,4.61,2.88.77,4.9,2.17,6.55,4.44.74,1.02,1.46,2.05,2.16,3.09.5.74.95,1.5,2.17,1.42.49-.86.97-1.76,1.51-2.62.88-1.4,1.39-1.59,2.99-1.23.9-.77,1.78-1.56,2.7-2.3,2.98-2.4,2.99-2.42,2.41-6.14-.02-.15-.09-.28-.11-.43-.37-2.3-.74-4.6-1.14-7.12.88.13,1.62.15,2.3.35,2.68.82,5.36,1.67,8.01,2.56,2.89.97,5.77,1.86,8.88,1.49,1.68-.2,3.37-.36,5.59-.59ZM77.23,462.89c1.64-1.75.07-3.25.53-4.69.44-1.37.39-2.9.5-4.37.11-1.52.14-3.04.21-4.6,4.38-.7,8.42.68,12.62.39-.1-.52-.09-.82-.21-1.07-1.26-2.58-2.52-5.16-3.81-7.72-.91-1.82-1.62-3.82-3.8-4.8-3.13,1.96-6.17,4.05-8.59,6.88-1.42,1.66-2.28,3.73-1.95,5.91.72,4.76,2.65,9.16,4.5,14.06ZM104.95,363.02c.13.63.22,1.31.41,1.96.39,1.34.91,2.65,1.22,4.01.87,3.79.47,7.38-2.29,10.35-1.65,1.78-3.37,3.53-5.28,5.02-.99.77-1.48,1.6-1.51,2.69-.04,1.39-.06,2.84.27,4.17.94,3.82,1.69,7.63,1.45,11.59-.08,1.4-.03,2.81.04,4.22.01.32.32.63.73,1.37.23-.87.38-1.25.44-1.65,1.04-7.48,2.61-14.83,5.84-21.72,1.81-3.86,3.38-7.85,5.83-11.39.28-.4.29-1.15.14-1.66-.2-.69-.63-1.33-1.04-1.94-1.43-2.15-2.9-4.27-4.34-6.42-.41-.62-.86-.99-1.92-.59ZM99.7,496.31c-.7-.22-1.09-.46-1.49-.45-2.79.03-5.58.24-8.36.15-4.49-.14-7.68-2.24-9.2-6.61-.11-.33-.45-.58-.99-1.24-.07,3.18.58,5.72,1.37,8.24.53,1.68,1.72,2.49,3.48,2.51,2.95.04,5.9.22,8.85.1,2.29-.09,4.37-.94,6.34-2.71Z"/>
    <path class="cls-1" d="M53.51,400.81c-1.86-4-2.36-8.23-2.89-12.45-.47-3.74-.84-7.49-1.42-11.21-.17-1.12-.76-2.24-1.38-3.22-.85-1.34-2.27-1.55-3.74-1.32-.63.1-1.25.26-2.08.44,0-1.85,0-3.44,0-5.04,0-.97.52-1.62,1.21-2.24,3.8-3.41,7.52-6.91,11.87-9.62,2.81-1.76,5.02-4.11,7.03-6.67,1.64-2.08,3.16-4.26,4.66-6.45,1.78-2.6,3.49-5.26,5.43-8.19.23,1.35.51,2.5.61,3.66.17,1.97.65,4.04-.41,5.87-1.44,2.48-2.89,4.99-4.64,7.24-2.22,2.85-4.74,5.47-7.15,8.17-1.39,1.56-3.06,2.81-4.96,3.65-3.3,1.46-4.34,4.14-4.45,7.49-.1,3.05.17,6.03.71,9.03.48,2.61.69,5.27.87,7.92.3,4.31.49,8.63.73,12.94Z"/>
    <path class="cls-2" d="M123.82,473.41c-2.22.23-3.91.39-5.59.59-3.11.37-5.99-.52-8.88-1.49-2.66-.9-5.33-1.74-8.01-2.56-.68-.21-1.42-.22-2.3-.35.4,2.52.77,4.82,1.14,7.12.02.15.09.28.11.43.58,3.72.57,3.73-2.41,6.14-.92.74-1.8,1.54-2.7,2.3-1.61-.36-2.11-.17-2.99,1.23-.54.86-1.02,1.76-1.51,2.62-1.22.08-1.67-.69-2.17-1.42-.7-1.04-1.42-2.07-2.16-3.09-1.64-2.27-3.66-3.68-6.55-4.44-3.96-1.06-7.78-2.8-11.48-4.61-3.59-1.75-5-5.27-6.05-8.89-.06-.2-.04-.45,0-.66.03-.21.14-.4.25-.7,1.53-.36,2.95.2,4.24.8,3.92,1.79,8.09,2.31,12.3,2.6,1.38.09,2.83-.06,4.16-.43,3.98-1.1,8-2.15,11.47-4.55.41-.28.77-.64,1.46-1.22-1.86-.59-3.43-1.11-5-1.59-2.59-.79-5-1.87-6.79-3.99-.75-.89-1.55-1.82-.96-3.27.59,0,1.2-.14,1.72.02,4.4,1.38,8.51.24,12.47-1.53,1.94-.87,3.79-2.02,5.52-3.27,2.19-1.59,2.61-2.87,1.7-5.39-1.15-3.19-2.43-6.34-3.84-9.41-1.37-3-2.48-6.02-2.27-9.37.21-3.33,1.45-6.18,4.13-8.26.99-.77,1.47-1.7,1.78-2.92,1.71-6.73,3.8-13.35,6.39-19.81.96-2.4,1.64-4.9,2.5-7.34.24-.67.2-1.67,1.64-1.74-.24,1.86-.37,3.6-.69,5.3-.77,4.01.32,7.63,2.3,11.03.93,1.61,2.62,1.39,4.16,1.39.51,0,1.01-.12,1.52-.11.18,0,.34.25.69.53-.43.49-.74.96-1.16,1.3-6.4,5.27-11.76,11.43-15.95,18.59-.15.26-.26.55-.46.76-1.91,2-1.47,3.99-.6,6.43,2.85,8,5.34,16.13,7.98,24.2,1.59,4.86,3.28,9.68,6.44,13.8.94,1.23,2,2.37,3,3.55.4.48.81.95,1.45,1.7Z"/>
    <path class="cls-2" d="M77.23,462.89c-1.85-4.9-3.79-9.3-4.5-14.06-.33-2.19.52-4.25,1.95-5.91,2.42-2.83,5.45-4.92,8.59-6.88,2.18.97,2.89,2.97,3.8,4.8,1.29,2.57,2.55,5.14,3.81,7.72.12.24.11.55.21,1.07-4.2.28-8.25-1.09-12.62-.39-.07,1.56-.1,3.08-.21,4.6-.1,1.47-.06,3-.5,4.37-.47,1.44,1.1,2.94-.53,4.69Z"/>
    <path class="cls-2" d="M104.95,363.02c1.06-.4,1.51-.03,1.92.59,1.43,2.15,2.91,4.27,4.34,6.42.41.61.84,1.25,1.04,1.94.15.51.14,1.25-.14,1.66-2.45,3.54-4.02,7.53-5.83,11.39-3.23,6.89-4.81,14.23-5.84,21.72-.06.4-.2.78-.44,1.65-.41-.74-.72-1.04-.73-1.37-.06-1.4-.12-2.82-.04-4.22.23-3.96-.51-7.78-1.45-11.59-.33-1.33-.31-2.78-.27-4.17.03-1.09.52-1.92,1.51-2.69,1.91-1.49,3.63-3.24,5.28-5.02,2.76-2.97,3.15-6.56,2.29-10.35-.31-1.36-.83-2.67-1.22-4.01-.19-.65-.28-1.33-.41-1.96Z"/>
    <path class="cls-2" d="M99.7,496.31c-1.96,1.76-4.05,2.62-6.34,2.71-2.94.11-5.9-.07-8.85-.1-1.76-.02-2.95-.83-3.48-2.51-.79-2.51-1.45-5.05-1.37-8.24.54.66.88.91.99,1.24,1.52,4.37,4.71,6.47,9.2,6.61,2.78.08,5.57-.12,8.36-.15.39,0,.79.23,1.49.45Z"/>
  </g>
</svg>