<?xml version="1.0" encoding="UTF-8"?>
<svg id="Layer_1" data-name="Layer 1" xmlns="http://www.w3.org/2000/svg" version="1.1" viewBox="0 0 305 567">
  <defs>
    <style>
      .cls-1 {
        fill: #ff5c7a;
      }

      .cls-1, .cls-2 {
        stroke-width: 0px;
      }

      .cls-2 {
        fill: #a515ff;
      }
    </style>
  </defs>
  <g id="FIRE_ALT_01" data-name="FIRE ALT 01">
    <path class="cls-2" d="M67.92,509.57c.65.29,1.29.62,1.96.84.76.25,1.54.5,2.33.58,2.37.24,3.13-.33,3.77-2.67.15-.56.3-1.11.46-1.72,2.5-.21,4.21,1.63,6.33,2.36.14-.36.31-.57.27-.74-1.33-6.79-4.05-12.8-9.4-17.46-3.64-3.17-7.73-4.62-12.54-4.07-1.73.2-3.25-.44-4.15-1.91-.87-1.41-1.72-2.93-2.13-4.51-.56-2.18-.63-4.49-1.04-6.72-.59-3.16-1.24-6.32-1.99-9.44-.44-1.84-1.14-3.62-1.74-5.46-.95-.56-1.85-.38-2.65.25-1.18.92-2.38,1.4-4.16.24-.21-.95-.7-2.28-.78-3.63-.33-5.55-.25-11.09.64-16.61.67-4.17,1.21-8.36,1.88-12.53.32-2,.8-3.98,1.21-5.97.7-3.44,1.3-6.9,2.1-10.31.93-3.99,2.09-7.92,3.04-11.9.4-1.68.53-3.42.79-5.13.19-1.27.39-2.54.59-3.81.35-2.23.87-4.44,1.01-6.68.12-1.94.65-3.74,1.13-5.58.33-1.26.73-2.53.81-3.81.12-1.91,1.16-3.24,2.44-4.73,2.15.89,4.3,1.78,6.63,2.74,1.92-2.25,3.99-4.41,5.08-7.36.52-1.42,1.45-2.69,2.16-4.04.53-1.01.53-1.98.16-3.15-2.13-6.66-2.42-13.36.06-20.02,1.2-3.21,2.26-6.5,3.79-9.55,1.66-3.31,3.63-6.51,5.78-9.52,2.84-3.98,6-7.73,9.03-11.58.23-.29.54-.52.71-.84,2.13-4.09,5.59-6.63,9.7-8.46.99-.44,1.83-1.21,2.81-1.71,2.01-1.02,4.18-1.77,6.06-2.98,2.34-1.51,4.81-2.7,7.29-3.93,2.91-1.44,5.61-3.31,8.42-4.96,3.12-1.84,6.24-3.7,9.42-5.44,1.91-1.04,4.01-1.73,5.89-2.81,1.97-1.12,3.69-2.61,5.06-4.46,2.27-3.09,5.38-5.14,8.75-6.78,3.29-1.6,6.7-2.94,9.97-4.57,1.68-.84,3.27-1.95,4.73-3.15,1.93-1.58,3.67-3.37,5.51-5.05,2.15-1.96,2.97-4.63,3.98-7.23,2.45-6.3,2.51-12.9,2.56-19.5.01-1.75-.18-3.51-.3-5.26-.11-1.54-.99-2.59-2.32-3.24-1.58-.76-3.19-1.45-4.81-2.14-5.24-2.25-10.74-3.35-16.4-3.86-1.96-.18-3.91-.6-5.86-.94-1.92-.34-3.58.59-4.23,2.4-.63,1.73-.63,3.36.21,5.09.69,1.42,1.19,3.02,1.35,4.58.41,4.01-2.4,5.69-5.87,5.79-3.49.1-7.01-.37-10.5-.7-6.02-.56-11.28-2.86-15.73-7.02-1.28-1.19-2.82-2.1-4.07-3.32-3.78-3.69-7.26-7.66-10.1-12.13-1.71-2.69-2.31-5.83-2.9-8.94-.33-1.71-.75-3.43-1.38-5.05-.35-.9-1.08-1.75-1.84-2.39-2.45-2.07-4.44-4.47-5.82-7.36-1.2-2.51-2.42-5.01-3.52-7.57-.39-.92-.6-1.98-.64-2.99-.22-6.18-1.32-12.23-2.33-18.31-.39-2.37-.4-4.8-.57-7.21-.02-.22.07-.44.06-.66-.08-1.82-.3-3.33-2.06-4.68-2.96-2.27-5.34-5.17-7.25-8.47-1.5-2.59-3.38-4.96-5.02-7.48-1.86-2.85-2.99-6.02-3.88-9.29-1.63-6-3.24-12.01-4.88-18-.95-3.47-.38-6.87.63-10.16,1.54-4.98,3.69-9.72,6.65-14.04.49-.72,1.02-1.42,1.54-2.12,1.42-1.91,2.25-4.1,2.93-6.35.17-.56.29-1.15.55-1.66.57-1.14,1.26-2.11,2.81-2.02.86.05,1.75-.15,2.61-.3,1.09-.19,1.86-.75,2.04-1.96.11-.79.31-1.58.52-2.36.6-2.24,2.03-3.7,4.27-4.26,2.93-.73,5.44-2.08,7.22-4.62.38-.54.77-1.16,1.31-1.47,2.59-1.49,2.28-4.24,2.92-6.56.12-.45-.23-1.1-.5-1.58-.9-1.65-.68-5.58.47-7.1.68-.9,1.82-1.41,2.91-.92,1.69.77,3.45.57,5.18.73,2.56.23,4.96.59,7.14,2.36,1.76,1.42,4.11,1.69,6.46,1.04,2.38-.66,4.82-1.14,7.22-1.75,1.69-.43,3.48-.7,5.01-1.47,1.31-.66,2.33-1.92,3.46-2.94,2.92-2.61,5.46-5.51,7.12-9.11.31-.67.68-1.31,1.06-1.93,1.34-2.2,2.76-2.8,5.33-2.25.79.17,1.55.43,2.34.63,1.34.33,2.67.8,4.02.91,1.6.13,3.04.35,3.83,1.9,1.07-.27,2.03-.64,3-.72.94-.07,1.89.19,2.84.26,1.31.1,2.63.2,3.95.23,1.74.04,3.12.62,3.87,2.39-2.2,3.86-.61,7.53.91,11.18.89,2.15,2.1,4.21,1.52,6.69-.08.36-.08.77-.27,1.05-1.64,2.37-1.46,5.08-1.79,7.77-.41,3.33-1.32,6.64-4.44,8.69-.12.08-.23.2-.36.25-.85.3-1.66,1.25-2.62.46-.94-.77-.06-1.57.14-2.36.21-.83.2-1.71.4-2.54.66-2.8,1.82-5.33,3.39-7.78,1.81-2.83,2.46-5.57-.02-8.22-2.08-2.23-3.01-4.96-2.04-8.11.27-.89.2-1.88.3-3.03-.64-.18-1.25-.5-1.85-.49-2.19.04-4.45-.1-6.55.41-1.7.42-3.36,1.48-4.76,2.6-6.71,5.34-13.77,10.26-19.94,16.28-2.25,2.2-4.9,3.98-7.21,6.12-3.06,2.84-6.12,5.73-7.46,9.89-.98,3.03-1.39,6.14-1.46,9.31-.05,2.28.04,4.56-.03,6.83-.06,2.02.26,3.99,1.07,5.8,1.38,3.07,2.78,6.15,4.46,9.06,1.71,2.96,4.52,4.87,7.67,5.99,1.42.51,3.21.25,4.78.03,2.17-.31,4.3-.9,6.45-1.38,4.5-1.01,8.98-2.11,13.51-2.98,1.39-.27,2.91.03,4.36.17,4.67.45,9.37.8,13.8,2.52,5.73,2.22,11.55,4.21,17.01,7.13,2.46,1.32,5.37,1.89,8.14,2.51,4.43.99,8.91,1.77,13.38,2.59,1.44.26,2.91.45,4.37.5,1,.03,2.06-.09,3.02-.39,1.94-.6,2.55-2.06,1.32-3.73-2.21-3-4.5-5.97-7.95-7.77-4.62-2.41-9.27-4.74-14.18-6.52-1.24-.45-2.48-.94-2.99-2.33.46-1.12,1.38-1.21,2.37-1.23,2.99-.06,5.8.82,8.6,1.67,2.45.74,4.83,1.69,7.24,2.56,4.47,1.61,8.96,3.19,13.41,4.87,3.92,1.48,7.64,3.38,11.16,5.66,2.77,1.79,5.66,3.4,8.43,5.18,2.22,1.43,4.41,2.91,6.48,4.53,4.51,3.51,9.04,7.02,13.38,10.74,4.45,3.81,9.41,7.01,13.31,11.47,2.27,2.59,4.01,5.39,4.97,8.69.75,2.6,1.54,5.2,2.38,7.77.28.87.27,1.51-.48,2.14-.67.56-1.27.65-1.97.14-.46-.34-.94-.66-1.61-1.12.38,2.65,1.23,4.91,2.29,7.06,4.81,9.72,8,19.99,10.22,30.56.84,4,1.06,8.12,1.48,12.2.23,2.26.37,4.53.41,6.8.13,7.6-1.59,14.86-4.49,21.82-2.72,6.52-4.87,13.19-6.34,20.09-.47,2.22-1.4,4.15-2.78,5.9-1.96,2.47-3.87,4.98-5.92,7.39-.94,1.1-2.15,1.98-3.24,2.97-1.6-.26-2.81-.87-3.64-2.27-1.9-3.2-4.72-5.35-8.11-6.74-1.53-.63-3.16-1.28-4.78-1.4-3.49-.27-7-.43-10.47.48-1.69.44-3.47.49-5.19.8-.8.14-1.49.06-1.96-.61-.64-.93-1.56-.99-2.53-.98-3.2.02-6.23.78-9.14,2.1-4.56,2.07-8.39,5.05-11.45,9.05-2.05,2.68-4.37,5.15-6.34,7.88-2.73,3.78-4.16,8.23-5.82,12.53-2.32,6.02-4.42,12.12-5.34,18.54-.67,4.64-1.37,9.28-1.91,13.93-.35,2.98.27,5.85,1.61,8.55.78,1.58,1.48,3.2,2.37,4.71.89,1.51,1.9,2.96,2.98,4.34.99,1.26,2.13,2.42,3.24,3.59,1.62,1.72,2.74,1.93,4.89.99,2.42-1.06,4.82-2.15,7.27-3.14,3.04-1.23,5.64-3.1,8.05-5.26.32-.28.69-.5,1.28-.91.29,1.39.56,2.57.78,3.75.77,4.05,1.15,8.11.91,12.25-.26,4.48.2,8.95,1.02,13.36.23,1.22.2,2.33-.39,3.4-2.5,4.48-4.9,9.03-7.59,13.38-1.81,2.92-4.08,5.55-6.11,8.34-1.12,1.54-2.39,3.03-3.18,4.74-.61,1.33-.63,2.96-.82,4.46-.1.79-.02,1.61-.02,2.51.61.41,1.21.8,1.8,1.2,3.26-1.79,6.12-3.97,7.89-7.7.53.93.89,1.44,1.13,2.01,1.04,2.42,2.18,4.81,3.02,7.3.57,1.71.74,3.56,1.03,5.36.33,2.02.52,4.07.91,6.08.15.8.66,1.54,1.08,2.5,2.19-2.73,3.42-5.58,4.35-8.59,1.39-4.48,2.81-8.94,4.2-13.42.41-1.33.72-2.68,1.11-4.01.28-.96.61-1.91,1.36-2.85.09.51.26,1.01.27,1.52.24,7.77.37,15.55-.14,23.3-.54,8.12-1.34,16.23-3.1,24.2-1.32,6.01-2.34,12.1-4.02,18-2.49,8.73-5.47,17.32-8.22,25.98-1.46,4.6-3.7,8.74-7.25,12.66-.16-6.46,1.33-12.55.66-19.12-.49.67-.8,1-1.01,1.39-3.6,6.56-7.09,13.17-9.58,20.26-.93,2.65-1.35,5.34-1.01,8.2.31,2.61.42,5.27.32,7.9-.09,2.25-.4,4.54-.97,6.71-1.71,6.57-4.84,12.55-7.95,18.53-1.27,2.43-3.36,4.03-5.68,5.37-.57.33-1.14.67-1.75.93-2.97,1.23-5.06,3.25-6.48,6.21-1.28,2.65-3.75,4.3-6.27,5.71-4.95,2.76-10.23,4.67-15.67,6.26-4.13,1.21-8.32,1.5-12.55,1.84-2.7.22-5.38.72-8.08.84-6.49.3-12.94.91-19.45-.45-6.2-1.3-12.21-3.11-17.95-5.67-5.58-2.49-10.65-5.83-14.95-10.28-3.77-3.9-7.71-7.63-11.14-11.85-4.74-5.82-8.99-11.95-12.48-18.6-.32-.6-.48-1.28-.71-1.92.17-.13.34-.26.51-.38ZM96.72,439.2c-1.43,2.72-2.77,4.92-3.75,7.27-1.16,2.76-2.02,5.65-2.96,8.5-.77,2.31-1.33,4.65-1,7.13.16,1.16.16,2.33.28,3.49.4,3.7.78,7.39,2.71,10.74,1.09,1.9,1.86,3.98,2.69,6.02,1.53,3.76,3.3,7.35,6.52,10.01,1.53,1.26,2.94,2.66,4.55,3.81,1.71,1.22,2.08,2.89,2.11,4.78.06,3.69.85,7.28,1.96,10.76.96,2.98,2.26,5.87,3.55,8.73.5,1.12,1.2,2.25,2.1,3.07,2.48,2.27,4.9,4.71,7.72,6.46,4.72,2.93,9.57,5.71,15.05,7.1.92.23,1.81.58,2.72.86,5.97,1.8,12.01,2.58,18.19,1.21.83-.19,1.72-.27,2.37-1.49-.51-.38-1.13-.69-1.53-1.19-1.29-1.58-2.8-3.09-3.68-4.89-2.64-5.38-3.81-11.21-4.55-17.11-.33-2.57.13-5.12,1.58-7.38,1.37-2.12,1.52-2.25-.17-4.18-2.65-3.03-2.33-6.35-1.29-9.74.51-1.68,1.38-3.47,3.36-3.72,2.3-.29,4.66-.19,6.99-.19.89,0,1.71.08,2.45-.61,3-2.78,6.03-5.53,9.09-8.25,1.35-1.2,2.62-2.67,4.21-3.38,2.14-.95,3.18-2.41,3.61-4.54,1.31-6.45,2.59-12.9,5.47-18.91.98-2.05.03-4.64-1.77-5.76-.89,1.98-1.89,3.94-2.65,5.98-1.66,4.44-4.5,8.01-8.01,11.06-1.35,1.17-2.98,2.29-4.66,2.78-2.84.82-5.61-.12-5.15-3.5.02-.14,0-.29-.02-.44-.28-3.02-1.91-4.34-4.88-3.88-.86.13-1.7.4-2.56.59-1.51.33-2.85-.43-3.03-1.68-.55-3.76-1.13-7.51-1.68-11.27-.34-2.31-.87-4.63-.89-6.95-.04-4.32.06-8.66.42-12.96.4-4.74,1.06-9.46,1.78-14.16.46-2.98,1.41-5.84,3.33-8.27,2.96-3.74,6.11-7.3,10.05-10.07.24-.17.37-.49.69-.93-4.52.35-7.66,2.78-10.34,5.69-2.57,2.79-4.71,5.98-7.12,8.92-2.48,3.02-4.48,6.3-6.03,9.89-1.27,2.96-2.68,5.86-4.11,8.75-.25.49-.94,1.08-1.42,1.07-.86-.01-1.1-.82-1.05-1.64.22-3.59.31-7.19.69-10.76.58-5.54,1.34-11.05,2.04-16.58.53-4.21,1.1-8.42,1.63-12.64.06-.48,0-.97,0-1.74-.65.48-1.1.8-1.53,1.14-2.25,1.79-3.04,1.57-4.38-.89-1.92-3.53-2.84-7.37-3.71-11.23-.34-1.5-.55-2.98-.02-4.54,1.35-4.02,2.6-8.08,3.84-12.14,2.11-6.86,4.51-13.65,6.19-20.61,1.26-5.24,1.61-10.7,2.31-16.06.8-6.1,1.62-12.19,4.02-17.93.07-.17-.02-.41-.05-.78-3.82.58-7.44,1.6-10.94,3.12-3.41,1.49-6.89,2.83-10.32,4.28-3.43,1.45-7.09,2.46-10.44,4.93,1.7.96,3.05,1.68,4.36,2.48,6.21,3.75,9.41,9.23,9.35,16.51-.02,2.32-.04,4.67-.37,6.96-.26,1.85-.25,3.95-2.3,5.17.56.76,1.1,1.45,1.6,2.16.73,1.06,1.3,2.35.71,3.48-.68,1.32-1.72,2.54-2.83,3.55-1.34,1.22-2.95,2.12-4.4,3.23-3.87,2.97-5.26,7.47-6.97,11.72-.75,1.87-.78,4.03-1.4,5.97-.88,2.78-2.13,5.45-2.99,8.24-1.08,3.49-2.01,7.03-2.84,10.6-.98,4.25-1.82,8.53-2.63,12.81-.69,3.66-1.25,7.35-1.84,11.03-.16,1.01-.37,2.04-.32,3.05.21,4.09.52,8.17.77,12.26.05.8.09,1.62,0,2.42-.26,2.39-.57,4.78-.89,7.17-.06.47-.24.92-.36,1.35-1.95.15-2.97-1.02-4.04-2.14-.95-1-1.97-1.92-3.22-3.13ZM126.6,180.46c1.25-1.67,2.92-1.21,4.46-.91,3.59.69,7.15,1.51,10.73,2.25.64.13,1.31.11,1.97.18,2.11.22,4.34.1,6.31.76,3.31,1.11,6.59,2.48,9.64,4.19,3.96,2.21,8.04,3.8,12.55,4.38,3.25.42,6.34,1.48,8.71,3.85,1.95,1.97,3.97,3.98,5.42,6.31,2.71,4.35,4.99,8.96,7.52,13.42,1.99,3.49,2.65,7.27,2.54,11.2-.09,3.14-.2,6.31-1.76,9.18-1.54,2.82-2.97,5.71-4.61,8.48-1.26,2.13-3.24,3.94-4.07,6.2-1.22,3.31-3.59,5.52-5.79,8-1.71,1.93-3.61,3.59-5.66,5.11-1.75,1.3-3.55,2.52-4.86,4.36-.69.97-1.7,1.72-2.59,2.55-2.02,1.89-4.07,3.74-6.06,5.67-.63.61-1.1,1.39-1.64,2.1l.41.45c3.51-1.94,7.03-3.87,10.53-5.81,1.66-.92,3.26-1.98,4.97-2.79,3.5-1.68,7.08-3.19,10.59-4.85,7.63-3.61,12.85-9.55,16.46-17.06.42-.87,1.1-1.6,1.72-2.49,1.07.61,1.87,1.07,2.69,1.54,2.55-1.18,4.83-2.83,6.67-4.92,2.46-2.8,4.72-5.79,6.98-8.75,1.06-1.38,1.99-2.8,4.17-1.85,1.55-5.83,2.56-11.59,3.36-17.38.42-3.06.03-6.13-.41-9.17-.75-5.17-1.96-10.24-4.15-14.98-2.8-6.05-5.91-11.96-8.87-17.93-1.42-2.86-3.29-5.36-5.71-7.46-.76-.66-1.51-1.21-2.56-.94-2.53.66-4.92.07-7.35-.61-2.26-.63-4.56-.96-7.18-.65-.16.93-.32,1.83-.46,2.74-.19,1.24-1.05,1.8-2.15,1.25-.85-.42-1.75-.87-2.38-1.55-3.02-3.29-6.17-6.49-7.98-10.68-.36-.85-.9-1.15-1.83-1.25-2.93-.3-5.83-.25-8.76.12-7.05.89-14.11,1.7-21.17,2.44-6.21.66-12.43.9-18.66.24-3.14-.33-5.45-1.83-7.11-4.56-1.37-2.25-1.87-4.77-2.57-7.22-.55-1.94-1.58-3.02-3.62-3.21-3.42-.33-5.95-2.21-7.45-5.15-1.39-2.72-2.45-5.63-3.39-8.55-.66-2.04-.88-4.23-1.29-6.33-.3.02-.52-.03-.57.04-1.55,2.2-3.2,4.36-4.56,6.67-.46.78-.45,2.03-.24,2.97.77,3.48.77,6.99.68,10.52-.02.65-.1,1.41.19,1.95,1.18,2.25,1.13,4.63,1.17,7.06.04,2.18.07,4.47.74,6.51,1.28,3.88,2.87,7.68,4.58,11.4,2.1,4.59,4.54,9.02,6.63,13.61.92,2.03,2.23,3.41,4.25,4.16,2.63.97,5.04,2.31,7.33,3.93,2.73,1.94,5.69,2.82,9.12,1.79,1.94-.58,4.03-.64,6.05-.95.26-.04.5-.17,1-.36-.67-1.14-1.45-2.07-1.79-3.14-.44-1.38-1.5-1.9-2.59-2.47-1.9-1-3.95-1.57-6.09-1.68-1.2-.06-1.92-.57-2.2-1.93ZM112.49,47.06c-.49.04-.79-.01-1.03.09-2.04.81-4.06,1.67-6.1,2.48-1.79.71-3.11,1.96-4.01,3.61-.97,1.8-1.87,3.65-2.7,5.53-1.19,2.68-2.2,5.44-4.42,7.53-1.34,1.26-2.55,2.64-3.9,3.88-.42.39-1.13.78-1.64.71-.85-.12-1.32-.82-1.33-1.77,0-.54-.1-1.08-.15-1.62-.16-.1-.32-.19-.48-.29-.12.27-.19.57-.35.81-1.57,2.31-3.27,4.53-4.7,6.92-3.42,5.73-5.34,11.77-2.86,18.43,2.28,6.12,3.98,12.4,5.35,18.78.26,1.19.65,2.34.98,3.52.3-.66.23-1.23.12-1.79-.33-1.72-.72-3.44-1-5.17-.58-3.61.13-7.17.54-10.73.08-.7.41-1.41.75-2.05,1.66-3.11,5.01-3.6,7.74-1.37,1.8,1.47,3.12,3.23,3.86,5.09,1.47,0,2.64-.1,3.79.03,1.17.14,2.31.5,3.89.87-.67-1.62-1.19-2.73-1.6-3.88-1.69-4.62-3.61-9.12-6.39-13.21-.75-1.11-.91-2.3-.54-3.57.29-.98.56-1.98.93-2.94,1.04-2.74,2.23-5.42,3.15-8.2,2.53-7.6,6.2-14.54,11.45-20.62.22-.26.35-.59.63-1.07ZM86.78,350.49c.32,5.14-.48,9.92-1.85,14.57-1.36,4.6-3.12,9.07-4.7,13.6.83-.82,1.35-1.81,1.98-2.73,3.44-5.02,6.89-10.02,10.36-15.01.71-1.02,1.5-1.98,2.31-2.92.58-.67,1.3-.83,2.18-.43.86.38,1.54.8,1.58,1.86.01.45.12.9.18,1.35,2.83-6.23,5.73-12.33,7.68-19.32-2.47,1.55-4.56,2.74-6.53,4.12-3.05,2.14-6.36,3.59-10.05,4.19-1,.16-1.98.46-3.14.74ZM69.53,412.11c-.55.84-1.21,1.64-1.65,2.54-2.23,4.6-2.25,9.36-.61,14.1.81,2.32.93,4.44.18,6.82-1.68,5.32-1.46,10.64.77,15.87-.25-12.07,2.97-23.52,6-34.33-1.7-1.81-3.1-3.3-4.69-4.99ZM75.28,390.94c1.05-2.6,2.1-5.21,3.15-7.81-2.03,2.2-4.09,4.39-3.15,7.81Z"/>
    <path class="cls-2" d="M199.09,547.14c.62-1.45,1.12-2.79,2.73-3.89,2.06-1.41,3.57-3.65,5.26-5.58,1.37-1.56,2.91-2.82,4.69-3.92,1.38-.86,2.45-2.27,3.51-3.56,2.57-3.11,4.72-6.51,6.6-10.07.73-1.39,1.1-2.96,1.73-4.41,2.61-6.05,5.34-12.05,8.74-17.71.79-1.31,1.59-2.65,2.63-3.74,2.2-2.3,3.77-2.31,6.23-.34.16.13.39.19.69.34.22-.25.52-.47.66-.77.65-1.44,1.63-2.16,3.3-1.92.5.08,1.14-.21,1.61-.5,2.04-1.3,4.07-2.62,6.04-4.03,1.65-1.19,2.65-2.92,3.43-4.76,2.38-5.62,4.08-11.45,5.35-17.4.95-4.44,1.75-8.91,2.7-13.34.92-4.27,1.1-8.59.91-12.91-.36-8.13-.83-16.25-1.44-24.36-.37-4.89-1.53-9.66-3.13-14.31-.28-.83-.58-1.67-.69-2.53-.05-.4.21-1.07.53-1.25.62-.35,1.08.12,1.35.72.06.13.1.28.16.41,2.59,5.17,5.44,10.21,7.6,15.6.87,2.17,2.22,4.14,3.13,6.3,2.77,6.54,5.33,13.15,7.25,20.01,1.73,6.19,1.9,12.4,1.03,18.71-.19,1.41-.03,2.87-.03,4.79,1.59-1.49,2.73-2.68,4.01-3.71,1.19-.96,2.46-1.88,3.83-2.55,1.83-.89,2.64-.38,3.68,1.34,1.3,2.16,1.68,4.45,1.76,6.92.19,6.17.06,12.32-1.51,18.32-1.23,4.69-2.92,9.24-5.53,13.36-.96,1.53-2.25,2.94-3.64,4.09-4.13,3.4-8.41,6.65-13.47,8.61-2.11.82-4.29,1.51-6.49,2.02-2.59.61-5.08-.15-7.5-1.08-.94-.36-1.91-.65-3.17-1.07-.07,1.02-.15,1.78-.16,2.55-.05,2.8-1.82,4.7-4.67,5-.29.03-.58,0-1.07,0-.18.74-.44,1.49-.52,2.27-.41,4.1-2.38,7.49-4.85,10.63-1.67,2.13-3.64,4.05-5.13,6.29-1.98,2.98-4.7,5.02-7.67,6.78-2.14,1.26-4.39,2.33-6.64,3.39-1.97.92-4.13,1.21-6.23.83-2.86-.51-5.54-.01-8.21.84-1.04.33-2.08.71-3.14.98-1.09.28-2.07.22-3.13-.45-.86-.55-2.01-.62-3.13-.93Z"/>
    <path class="cls-2" d="M33.08,493.81c-1.09-1.64-1.9-3.1-2.94-4.38-1.99-2.48-3.57-5.18-5.03-7.99-.95-1.81-1.99-3.6-3.23-5.22-2.43-3.19-4.19-6.69-5.35-10.51-1.84-6.1-3.93-12.13-5.5-18.3-1.95-7.65-3.73-15.37-5.13-23.14-1.05-5.86-.88-11.85.2-17.74,1.24-6.77,2.64-13.51,3.99-20.25.14-.71,0-1.93,1.18-1.7,1.03.2.68,1.32.65,2.07-.17,4.32-.38,8.64-.58,12.96-.12,2.53.4,4.98,1.2,7.34,1.49,4.44,3.06,8.85,4.66,13.25.77,2.11,1.85,3.94,4.18,4.78.82.3,1.5,1.11,2.13,1.79.9.98,1.28,1.17,2.41.45.85-.55,1.54-1.35,2.34-1.98.74-.58,1.47-1.26,2.32-1.57,1.52-.55,2.25-.19,2.5,1.43.28,1.79.37,3.65.2,5.45-.62,6.34-1.52,12.65-2.05,19-.38,4.44-.36,8.92-.48,13.39-.13,4.67,1.51,8.82,4.25,12.47,4.92,6.54,8.72,13.7,12.17,21.09.61,1.31,1.45,2.54,2.34,3.68,1.39,1.8,2.12,3.82,2.47,6.03.14.87.28,1.73.44,2.74,2.09.27,2.91,1.66,3.12,3.61.2,1.89.38,3.79.74,5.66.71,3.69,2.1,7.02,5.47,9.15.43.27.87.58,1.18.98,3.32,4.27,7.88,7.2,11.75,10.89,2.02,1.93,4.78,3.08,7.21,4.57.44.27.9.53,1.35.79-.05.18-.1.37-.15.55-.81-.07-1.64-.07-2.44-.24-.63-.14-1.27-.41-1.82-.76-3.3-2.03-7.08-2.7-10.68-3.89-1.66-.55-3.24-1.35-4.79-2.15-2.6-1.35-5.13-2.82-7.71-4.2-3.93-2.11-7.9-4.15-11.8-6.3-2.83-1.56-5.38-3.57-7.58-5.9-3.32-3.51-6.46-7.2-9.58-10.89-2.29-2.7-4.02-5.74-5.38-9.03-1.48-3.59-3.18-7.08-4.72-10.65-.93-2.16-1.72-4.38-.96-6.76,1.28-.82,2.15-.37,3.11.58,2.59,2.59,5.28,5.08,7.95,7.59,1.47,1.38,3.39,1.81,6.42,1.27Z"/>
    <path class="cls-2" d="M68.66,270.56c4.65-1.7,8.95-2.14,13.33-.72,2.87.94,5.03,2.97,7.28,4.84.95.79,1.75,1.77,2.66,2.62.97.91,1.74,1.85,1.96,3.29.14.93.88,1.77,1.53,2.97-.83-.08-1.3-.07-1.74-.17-2.71-.65-5.4-.93-8.23-.6-4.2.5-8.45.57-12.67.94-1.89.17-3.75.59-5.62.94-1.12.2-1.21,1.17-1.36,2.03-.52,2.88-.86,5.81-1.55,8.65-1.03,4.24-.42,8.47-.24,12.7.04.93.32,1.91.74,2.75,1.42,2.85,1.28,5.95,1.77,9.47-.92-.67-1.55-1.07-2.12-1.55-2.02-1.7-3.93-3.52-6.03-5.11-2.25-1.71-4.08-3.76-5.69-6.05-2.14-3.06-4.35-6.07-6.54-9.09-2.27-3.12-3.41-6.59-3.46-10.46-.06-5.07.12-10.12,1.07-15.1.51-2.66,2.05-4.55,4.79-5.5,2.83-.99,5.53-2.35,8.31-3.48,3.46-1.41,4.8-.86,7.15,2.1,1.34,1.69,3.12,3.04,4.69,4.54Z"/>
    <path class="cls-2" d="M32.2,365.89c-1.67,2.03-3.11,3.65-4.39,5.38-.83,1.13-1.78,1.89-3.19,2.01-1.24.1-2-.42-2.12-1.67-.1-1.01-.12-2.09.12-3.06,1.31-5.48,2.42-11.04,5.15-16.06,1.4-2.57,2.94-5.07,4.5-7.55.46-.73,1.11-1.38,1.8-1.91,1.75-1.35,3.4-1.04,4.7.82,1.21,1.74,1.71,3.7,1.71,5.81,0,2.94,0,5.87.05,8.81.08,4.32.34,8.63.29,12.95-.04,3.58-.43,7.16-.64,10.75-.08,1.39-.16,2.79-.15,4.18.02,3.14-.88,6.06-1.94,8.96-.07.2-.21.39-.35.55-.08.09-.24.12-.44.21-.74-1.03-.39-2.19-.45-3.31-.16-3.37-.72-6.69-1.78-9.9-1.69-5.11-2.6-10.35-2.61-15.74,0-.21-.08-.41-.24-1.22Z"/>
    <path class="cls-2" d="M116.68,268.31c.59-1.29,1.07-2.18,1.42-3.12,1.34-3.56,2.69-7.12,3.92-10.72.37-1.09.43-2.3.58-3.46.14-1.07-.27-1.93-.86-2.85-.95-1.46-1.74-3.04-2.41-4.65-.27-.64-.04-1.49-.04-2.4.65.08,1.07.14,1.48.19,1.96.21,3.92.56,5.88.59,2.85.05,4.93,1.22,6.84,3.33,2.79,3.08,3,6.4,2.18,10.22-1.15,5.32-4.76,8.28-9.39,10.14-2.94,1.18-6.12,1.75-9.6,2.71Z"/>
    <path class="cls-2" d="M252.38,358.62c.17-3.28-1.66-6.48.02-9.84.44-.88.47-1.98.61-3,.15-1.03-.32-1.81-1.08-2.51-1.19-1.09-2.3-2.27-3.47-3.38-1.28-1.21-1.86-2.6-1.23-4.35.15-.41.17-.86.3-1.28.34-1.08.19-2.02-.72-2.77-.85-.7-1.08-1.56-.62-2.55.44-.96,1.61-1.61,2.75-1.28,1.24.36,2.56.81,3.56,1.59,2.61,2.03,4.86,4.44,6.39,7.43,1.42,2.78,1.29,5.65.43,8.55-.99,3.36-1.89,6.75-4.13,9.61-.92,1.18-1.55,2.59-2.31,3.9l-.52-.12Z"/>
    <path class="cls-1" d="M96.72,439.2c1.25,1.21,2.28,2.14,3.22,3.13,1.07,1.13,2.08,2.3,4.04,2.14.12-.43.3-.89.36-1.35.32-2.39.63-4.77.89-7.17.09-.8.05-1.62,0-2.42-.25-4.09-.56-8.17-.77-12.26-.05-1.01.15-2.04.32-3.05.59-3.68,1.15-7.36,1.84-11.03.8-4.28,1.65-8.57,2.63-12.81.82-3.56,1.76-7.1,2.84-10.6.86-2.79,2.11-5.45,2.99-8.24.62-1.94.64-4.1,1.4-5.97,1.71-4.25,3.1-8.75,6.97-11.72,1.44-1.11,3.06-2.02,4.4-3.23,1.11-1.01,2.15-2.23,2.83-3.55.58-1.13.02-2.42-.71-3.48-.5-.72-1.03-1.4-1.6-2.16,2.05-1.22,2.04-3.32,2.3-5.17.32-2.29.35-4.63.37-6.96.07-7.29-3.14-12.77-9.35-16.51-1.31-.79-2.66-1.52-4.36-2.48,3.35-2.47,7.01-3.48,10.44-4.93,3.43-1.45,6.9-2.79,10.32-4.28,3.5-1.53,7.11-2.55,10.94-3.12.03.37.12.61.05.78-2.4,5.74-3.22,11.83-4.02,17.93-.7,5.37-1.05,10.83-2.31,16.06-1.68,6.96-4.07,13.75-6.19,20.61-1.25,4.06-2.49,8.11-3.84,12.14-.52,1.56-.32,3.04.02,4.54.87,3.86,1.79,7.7,3.71,11.23,1.34,2.46,2.12,2.67,4.38.89.43-.34.89-.66,1.53-1.14,0,.77.05,1.26,0,1.74-.53,4.21-1.1,8.42-1.63,12.64-.7,5.52-1.46,11.04-2.04,16.58-.37,3.57-.47,7.17-.69,10.76-.05.82.19,1.62,1.05,1.64.48,0,1.18-.58,1.42-1.07,1.43-2.88,2.84-5.79,4.11-8.75,1.54-3.59,3.55-6.87,6.03-9.89,2.41-2.94,4.55-6.13,7.12-8.92,2.68-2.91,5.82-5.34,10.34-5.69-.32.44-.45.76-.69.93-3.94,2.77-7.09,6.33-10.05,10.07-1.92,2.43-2.87,5.29-3.33,8.27-.72,4.7-1.38,9.42-1.78,14.16-.36,4.3-.46,8.64-.42,12.96.02,2.32.56,4.64.89,6.95.55,3.76,1.13,7.51,1.68,11.27.18,1.25,1.52,2.01,3.03,1.68.86-.19,1.7-.46,2.56-.59,2.97-.45,4.6.86,4.88,3.88.01.15.04.3.02.44-.45,3.38,2.31,4.32,5.15,3.5,1.69-.49,3.31-1.6,4.66-2.78,3.51-3.04,6.35-6.62,8.01-11.06.76-2.04,1.76-4,2.65-5.98,1.8,1.12,2.75,3.71,1.77,5.76-2.88,6.01-4.15,12.46-5.47,18.91-.43,2.12-1.47,3.58-3.61,4.54-1.59.71-2.86,2.18-4.21,3.38-3.05,2.72-6.08,5.48-9.09,8.25-.75.69-1.56.61-2.45.61-2.33,0-4.69-.1-6.99.19-1.98.25-2.85,2.04-3.36,3.72-1.04,3.39-1.36,6.71,1.29,9.74,1.69,1.93,1.53,2.06.17,4.18-1.46,2.26-1.91,4.82-1.58,7.38.75,5.89,1.91,11.73,4.55,17.11.88,1.8,2.39,3.3,3.68,4.89.4.49,1.02.8,1.53,1.19-.65,1.22-1.54,1.31-2.37,1.49-6.18,1.38-12.22.59-18.19-1.21-.91-.27-1.8-.62-2.72-.86-5.48-1.39-10.34-4.17-15.05-7.1-2.83-1.75-5.24-4.2-7.72-6.46-.89-.82-1.6-1.95-2.1-3.07-1.28-2.87-2.59-5.75-3.55-8.73-1.12-3.48-1.9-7.06-1.96-10.76-.03-1.89-.4-3.56-2.11-4.78-1.6-1.15-3.02-2.55-4.55-3.81-3.23-2.65-5-6.24-6.52-10.01-.83-2.04-1.6-4.12-2.69-6.02-1.93-3.35-2.31-7.04-2.71-10.74-.12-1.16-.13-2.34-.28-3.49-.34-2.48.23-4.82,1-7.13.95-2.85,1.81-5.74,2.96-8.5.98-2.35,2.33-4.54,3.75-7.27Z"/>
    <path class="cls-1" d="M126.6,180.46c.28,1.37,1,1.87,2.2,1.93,2.14.11,4.18.68,6.09,1.68,1.09.57,2.15,1.09,2.59,2.47.34,1.07,1.12,2,1.79,3.14-.5.18-.74.32-1,.36-2.02.31-4.11.37-6.05.95-3.43,1.03-6.39.15-9.12-1.79-2.29-1.62-4.7-2.96-7.33-3.93-2.02-.75-3.33-2.13-4.25-4.16-2.09-4.59-4.53-9.02-6.63-13.61-1.7-3.72-3.3-7.52-4.58-11.4-.67-2.03-.7-4.33-.74-6.51-.04-2.43.01-4.82-1.17-7.06-.28-.53-.2-1.29-.19-1.95.1-3.53.09-7.03-.68-10.52-.21-.94-.22-2.19.24-2.97,1.37-2.31,3.01-4.47,4.56-6.67.05-.07.27-.02.57-.04.41,2.1.63,4.29,1.29,6.33.94,2.91,2.01,5.83,3.39,8.55,1.5,2.95,4.03,4.83,7.45,5.15,2.03.19,3.06,1.27,3.62,3.21.7,2.45,1.2,4.97,2.57,7.22,1.66,2.73,3.97,4.23,7.11,4.56,6.23.66,12.45.42,18.66-.24,7.06-.75,14.12-1.55,21.17-2.44,2.93-.37,5.83-.42,8.76-.12.93.1,1.47.4,1.83,1.25,1.81,4.19,4.96,7.39,7.98,10.68.62.68,1.53,1.13,2.38,1.55,1.1.54,1.96-.01,2.15-1.25.14-.91.3-1.81.46-2.74,2.62-.32,4.93.02,7.18.65,2.42.68,4.82,1.27,7.35.61,1.04-.27,1.8.28,2.56.94,2.42,2.1,4.29,4.6,5.71,7.46,2.96,5.97,6.07,11.88,8.87,17.93,2.19,4.73,3.41,9.81,4.15,14.98.44,3.04.84,6.11.41,9.17-.8,5.79-1.81,11.55-3.36,17.38-2.18-.95-3.11.47-4.17,1.85-2.26,2.97-4.52,5.96-6.98,8.75-1.84,2.09-4.12,3.74-6.67,4.92-.82-.47-1.61-.92-2.69-1.54-.62.89-1.31,1.62-1.72,2.49-3.61,7.51-8.84,13.45-16.46,17.06-3.51,1.66-7.09,3.17-10.59,4.85-1.71.82-3.31,1.87-4.97,2.79-3.51,1.95-7.02,3.87-10.53,5.81l-.41-.45c.54-.7,1.01-1.49,1.64-2.1,1.99-1.92,4.04-3.78,6.06-5.67.89-.83,1.9-1.58,2.59-2.55,1.3-1.84,3.1-3.06,4.86-4.36,2.05-1.52,3.95-3.17,5.66-5.11,2.2-2.49,4.57-4.7,5.79-8,.83-2.26,2.81-4.07,4.07-6.2,1.64-2.76,3.07-5.65,4.61-8.48,1.57-2.87,1.67-6.04,1.76-9.18.12-3.93-.55-7.71-2.54-11.2-2.54-4.46-4.81-9.07-7.52-13.42-1.45-2.33-3.47-4.34-5.42-6.31-2.36-2.38-5.46-3.44-8.71-3.85-4.51-.58-8.59-2.17-12.55-4.38-3.05-1.7-6.33-3.07-9.64-4.19-1.97-.66-4.2-.54-6.31-.76-.65-.07-1.33-.05-1.97-.18-3.58-.74-7.14-1.56-10.73-2.25-1.54-.3-3.21-.76-4.46.91Z"/>
    <path class="cls-1" d="M112.49,47.06c-.28.48-.41.82-.63,1.07-5.24,6.08-8.91,13.02-11.45,20.62-.92,2.77-2.12,5.46-3.15,8.2-.36.96-.64,1.95-.93,2.94-.37,1.27-.22,2.46.54,3.57,2.77,4.09,4.7,8.59,6.39,13.21.42,1.15.93,2.27,1.6,3.88-1.58-.36-2.72-.73-3.89-.87-1.15-.13-2.32-.03-3.79-.03-.74-1.86-2.06-3.62-3.86-5.09-2.73-2.23-6.08-1.75-7.74,1.37-.34.64-.67,1.34-.75,2.05-.41,3.56-1.12,7.12-.54,10.73.28,1.73.67,3.44,1,5.17.11.56.18,1.13-.12,1.79-.33-1.17-.72-2.33-.98-3.52-1.38-6.38-3.08-12.66-5.35-18.78-2.48-6.66-.56-12.7,2.86-18.43,1.43-2.39,3.13-4.61,4.7-6.92.16-.24.24-.54.35-.81.16.1.32.19.48.29.05.54.15,1.08.15,1.62,0,.94.48,1.65,1.33,1.77.51.07,1.22-.32,1.64-.71,1.35-1.24,2.56-2.63,3.9-3.88,2.22-2.08,3.22-4.85,4.42-7.53.83-1.87,1.72-3.72,2.7-5.53.89-1.65,2.22-2.9,4.01-3.61,2.04-.81,4.06-1.67,6.1-2.48.24-.1.54-.05,1.03-.09Z"/>
    <path class="cls-1" d="M86.78,350.49c1.16-.28,2.14-.58,3.14-.74,3.68-.61,6.99-2.05,10.05-4.19,1.96-1.38,4.06-2.57,6.53-4.12-1.94,6.99-4.85,13.1-7.68,19.32-.06-.45-.17-.9-.18-1.35-.03-1.06-.72-1.48-1.58-1.86-.88-.39-1.6-.24-2.18.43-.81.94-1.6,1.9-2.31,2.92-3.47,4.99-6.93,10-10.36,15.01-.63.92-1.15,1.91-1.98,2.73,1.58-4.53,3.34-9,4.7-13.6,1.37-4.64,2.17-9.42,1.85-14.57Z"/>
    <path class="cls-1" d="M69.53,412.11c1.59,1.69,2.99,3.18,4.69,4.99-3.03,10.81-6.25,22.26-6,34.33-2.23-5.23-2.45-10.55-.77-15.87.75-2.37.63-4.49-.18-6.82-1.64-4.73-1.62-9.5.61-14.1.44-.9,1.1-1.7,1.65-2.54Z"/>
    <path class="cls-1" d="M75.28,390.94c-.94-3.42,1.12-5.6,3.15-7.81-1.05,2.6-2.1,5.21-3.15,7.81Z"/>
  </g>
</svg>