<?xml version="1.0" encoding="UTF-8"?>
<svg id="Layer_1" data-name="Layer 1" xmlns="http://www.w3.org/2000/svg" version="1.1" viewBox="0 0 539 407">
  <defs>
    <style>
      .cls-1 {
        fill: #a515ff;
        stroke-width: 0px;
      }
    </style>
  </defs>
  <g id="FIRE_04" data-name="FIRE 04">
    <path class="cls-1" d="M78.95,71.25c1.05-8.94-11.27-14.22-17.72-8.8-.33-.6-.35-1.09.22-1.5,2.02-1.46,4.02-2.93,6.07-4.34,1.8-1.23,3.71-2.3,5.47-3.58,3.81-2.77,6.41-6.55,8.64-10.62.11-.19.22-.4.24-.61.14-2.29,1.86-3.65,3.3-4.99,1.67-1.54,2.84-3.32,3.76-5.3,1-2.17,2.52-3.32,4.98-3.15,4.08.28,8.05-.47,12.01-1.31,4.42-.95,8.89-.79,13.35-.25,4.3.52,8.6,1.04,12.91,1.45,7.17.69,14.36,1.14,21.5,1.96,6.48.74,12.92,1.86,19.39,2.77,3.13.44,6.26.81,9.4,1.12,1.55.15,2.85.55,3.68,1.99.85,1.47,2.33,1.95,3.88,2.22.4.07.98.07,1.25-.16,1.29-1.1,2.75-.62,3.98-.23,1.79.58,3.63,1.36,5.12,2.48,4.38,3.29,8.64,6.76,12.86,10.26.92.76,1.71,1.85,2.15,2.95.64,1.61-.28,3.03-1.31,4.21-3.3,3.76-6.66,7.46-9.99,11.18-.73.82-1.52,1.6-2.2,2.46-1.21,1.52-2.82,2.3-4.69,2.63-2.38.42-4.75.93-7.15,1.23-1.13.14-2.33-.02-3.48-.19-3.34-.47-6.68-1.06-10.06-.53-2.75.44-5.49.96-8.22,1.54-5.11,1.09-10.26,1.55-15.48,1.61-2.11.02-4.22.49-6.34.73-1.92.22-3.06,1.22-3.36,3.43,3.83,2.51,8.13,3.91,13.06,4.55-.62.65-.88,1.12-1.28,1.32-2.22,1.12-4.42,2.32-6.73,3.21-3.28,1.27-6.7,2.18-9.98,3.45-3.14,1.22-6.15,2.8-9.28,4.06-2.85,1.15-5.78,2.06-8.67,3.1-4,1.44-8.05,2.76-11.98,4.39-2.71,1.12-4.62,3.1-5.92,5.35,1.37,1.61,2.74,3.3,4.21,4.92,2.11,2.33,4.34,4.55,6.41,6.91,1.48,1.7,3.12,3.03,5.26,3.85,5.66,2.15,11.38,3.81,17.52,3.89,3.36.04,6.72.66,10.08.78,5.89.21,11.72-.59,17.54-1.43,2.75-.4,5.5-.9,8.27-1.1,3.27-.24,6.05-1.69,8.75-3.26,3.21-1.87,6.68-2.89,10.26-3.58,5.38-1.03,10.7-2.09,15.52-4.97,2.31-1.38,4.92-2.31,7.46-3.23,2.92-1.05,5.55-2.62,7.96-4.46,1.54-1.18,2.68-2.9,3.94-4.43,3.03-3.67,6.6-6.65,10.85-8.84.67-.35,1.23-.99,1.73-1.59,1.36-1.63,2.61-3.35,4-4.96.5-.58,1.27-.92,1.9-1.38.46-.34.97-.64,1.35-1.06,2.07-2.29,4.13-4.59,6.16-6.91,1.08-1.24,1.84-2.67,2.05-4.32.49-3.97,2.09-7.6,3.38-11.33,1.73-4.99,3.58-9.94,5.38-14.91,1.14-3.15,3.1-5.82,5.08-8.47.47-.63,1.13-1.21,1.83-1.57,3.43-1.8,6.75-3.83,10.52-4.95,2.46-.73,4.85-1.72,7.22-2.7,1.36-.56,2.55-1.31,3.1-2.91.48-1.39,1.84-1.7,3.24-1.86,4.17-.48,8.35-.31,12.5.08,4.24.4,8.45,1.04,12.66,1.68,2.75.42,5.49.97,8.2,1.59,4.78,1.09,7.94,4.75,8.55,9.75.09.71.16,1.43.28,2.54.72-.52,1.23-.84,1.7-1.23,1.9-1.6,3.48-3.62,5.85-4.62,3.31-1.4,6.48-3.13,10.09-3.74,1.19-.2,2.49-.69,3.4-1.45,2.01-1.67,4.36-2.24,6.78-2.16,7.49.25,14.95,1.04,22.22,2.93,5.39,1.4,10.68,3.2,16.06,4.69,4.87,1.35,9.8,2.5,14.69,3.77,5.2,1.35,10.29,3.05,15.14,5.32,7.71,3.61,15.37,7.32,22.96,11.15,3.41,1.72,6.73,3.6,10.36,4.82.41.14.81.35,1.19.57,3.03,1.76,6.11,3.44,9.07,5.33,1.4.9,2.63,2.11,3.82,3.3,3.11,3.12,6.38,6.12,9.16,9.51,2.62,3.21,5.37,6.22,8.6,8.81,3.04,2.43,6.02,4.94,9.12,7.28,4.39,3.32,8.82,6.59,13.33,9.74,2.34,1.64,4.89,2.98,7.35,4.45,1.25.75,2.63,1.4,2.69,3.16.04,1.08,0,2.17.14,3.24.91,6.65.87,13.3.64,20-.21,5.99-1.11,11.85-2.08,17.71-1.06,6.35-2.56,12.63-3.69,18.97-.66,3.68-1.01,7.42-1.4,11.14-.85,8.1-1.57,16.2-3.31,24.19-1.71,7.84-3.81,15.56-6.56,23.08-2.67,7.3-5.75,14.45-8.73,21.63-1.09,2.64-2.41,5.18-3.59,7.79-2.1,4.6-5.14,8.54-8.44,12.31-1.11,1.27-2.25,2.52-3.33,3.81-.89,1.06-2.01,1.25-3.18.75-1.92-.81-3.92-.61-5.88-.52-4.62.2-9.24.71-13.86.78-7.03.09-13.88,1.33-20.71,2.78-3.16.67-6.35,1.19-9.55,1.63-4.03.56-7.92,1.58-11.73,2.96-5.45,1.97-10.93,3.89-16.31,6.05-2.29.92-4.35,2.42-6.52,3.65-3.82,2.17-7.65,4.33-11.48,6.49-4.44,2.5-8.3,5.79-12.26,8.94-2.63,2.09-5.36,4.09-8.14,5.99-3.35,2.28-6.48,4.77-9.24,7.76-3.14,3.39-6.51,6.57-9.67,9.95-1.24,1.32-2.34,2.83-3.25,4.4-2.72,4.69-5.37,9.42-7.94,14.2-1.88,3.5-3.27,7.21-4.04,11.13-.13.65-.25,1.3-.48,1.92-.82,2.25-2.8,3.3-5.06,2.53-6.32-2.17-12.77-2.34-19.35-1.66-3.73.38-7.41.84-10.94,2.14-3.32,1.22-6.25,2.95-8.69,5.65-1.3,1.44-2.41,2.99-3.23,4.62-1.13,2.25-2.56,3.81-5.32,4.3-.4-.56-1.04-1.19-1.36-1.95-.5-1.19-1.05-2.3-2.36-2.7-1.55-.48-3.15-.87-4.74-.2-3.84,1.62-7.64,3.34-11.48,4.94-5.13,2.14-10.25,4.26-15.51,6.11-7.52,2.65-15.16,4.81-22.94,6.44-5.58,1.17-11.23,2.05-16.88,2.83-4.63.64-9.31,1.07-13.98,1.35-4.02.24-8.05.17-12.06-.41-3.75-.54-7.55-.75-11.31-1.27-5.22-.73-10.36-1.9-15.36-3.57-4.8-1.61-9.51-3.45-14.3-5.08-1.51-.51-3.14-.68-4.88-1.04-.39,2.11-2.83,1.37-3.88,2.71.42,1.35,1.34,2.14,2.39,2.84.81.54,1.75,1.2,1.45,2.24-.31,1.06-1.42,1.41-2.5,1.47-2.42.16-4.83.28-7.25.44-2.71.18-5.42.33-8.13.58-5.46.49-10.82-.03-16.09-1.53-4.86-1.38-9.71-2.79-14.57-4.15-1.54-.43-3.13-.7-4.69-1.08-3.55-.86-7.13-1.59-10.62-2.65-2.96-.9-5.93-.9-8.92-.65-1.12.09-2.22.7-3.28,1.17-1.78.79-3.39,1.87-5.35,2.36-1.27.32-1.85-.08-2.29-.98-.3-.63-.39-1.39-.44-2.1-.21-3.22-.13-6.49-.62-9.67-.7-4.49-1.81-8.91-2.76-13.36-.71-3.37-1.39-6.75-2.17-10.1-1.04-4.49-2.12-8.98-3.27-13.45-1.5-5.85-1.8-11.74-.85-17.71.19-1.21.18-2.45.28-4.01,1.06-.77,2.36-1.71,3.66-2.65,5.21-3.78,8.68-8.85,11.32-14.64,2.12-4.64,3.21-9.43,3.23-14.49,0-.58-.02-1.18-.13-1.75-.4-2.18.81-3.23,3.06-2.83,1.46.26,2.67-.46,3.61-1.57,2.73-3.18,5.53-6.29,8.14-9.56,3.06-3.82,6.99-6.52,11.23-8.75,3.82-2.01,7.78-3.79,11.76-5.48,4.93-2.08,9.88-4.16,14.94-5.88,8.46-2.87,16.83-6.09,25.61-7.87,4.81-.97,9.7-1.6,14.57-2.19,3.79-.46,7.61-.82,11.42-.86,4.64-.05,9.22.81,13.69,2.01,2.74.73,5.33,2.02,8.06,2.75,1.74.46,3.64.4,5.47.47,3.6.13,7.21.11,10.81.29,4.3.21,8.59.54,12.89.84,1.27.09,2.14.81,2.79,1.93-.55,1.93-3.12,1.64-3.77,3.4,3.39,1.66,6.67,3.5,10.13,4.93,6.99,2.88,14.17,5.09,21.86,5.19,2.93.04,5.85.49,8.78.75,3.75.34,7.28-.27,10.66-2.07,1.86-.99,3.91-1.75,5.97-2.23,3.94-.93,7.39-2.77,10.74-4.93,1.79-1.15,3.66-2.17,5.51-3.23,3.02-1.71,5.23-4.21,7.11-7.08,1.49-2.28,3.03-4.51,4.54-6.77.53-.79,1.14-1.56,1.51-2.43,1.3-3.05,3.48-5.38,5.84-7.63,2.82-2.68,5.52-5.49,8.33-8.19,1.05-1.01,2.23-1.91,3.4-2.79,2.06-1.54,4.1-3.11,6.25-4.51,2.08-1.35,4.24-2.62,6.47-3.71,2.37-1.16,4.87-2.05,7.29-3.12,4.25-1.89,8.68-3.22,13.27-3.89,2.01-.29,4.11-.07,6.16.06,10.19.64,19.68,4.09,29.15,7.48,10.43,3.74,20.75,7.77,31.1,11.74,3.22,1.23,6.38,2.63,9.54,4.03,2.21.98,4.58,1.02,6.9,1.26,1.96.2,3.96.04,6.07.04.15-.67.48-1.27.36-1.76-.69-2.79-.07-5.56.06-8.33.04-.81.06-1.63-.03-2.43-.52-4.79.46-9.33,2.02-13.82,3.02-8.68,7.72-16.48,12.55-24.2,2.68-4.28,6.75-6.65,11.75-7.39,1.67-.25,3.28-.57,4.83-1.4,1.09-.58,1.97-1.26,2.56-2.31.75-1.35,1.49-2.7,2.15-4.1,1.19-2.52.83-4.77-1.12-6.86-1.96-2.09-3.78-4.3-5.61-6.51-1.12-1.36-2.24-2.74-3.16-4.24-2.67-4.35-6.43-7.65-10.32-10.78-5.54-4.45-10.2-9.73-14.66-15.2-1.42-1.74-1.71-4-1.3-6.25.07-.37.43-.7.69-1.11,2.83,1.92,5.52,3.8,8.27,5.6,2.86,1.88,5.93,2.92,9.39,1.98,2.18-.59,3.16-1.64,3.09-3.9-.07-2.11-.25-4.29-.86-6.29-1.12-3.72-2.49-7.37-3.95-10.98-1.43-3.52-3.89-6.38-6.45-9.14-1.7-1.83-3.5-3.56-5.25-5.35-2.91-2.97-6.14-5.36-10.16-6.77-11.6-4.06-22.58-9.53-33.47-15.17-7.29-3.77-15.03-6.23-23-8.07-3.43-.79-6.82-1.76-10.24-2.57-6.19-1.46-12.39-2.89-18.6-4.26-.56-.12-1.27.12-1.82.38-4.21,2.02-7.79,4.92-11.17,8.1-1.01.95-2.15,1.76-3.11,2.75-2.45,2.52-5.44,3.39-8.84,2.95-2.69-.35-5.38-.73-8.04-1.22-6.16-1.13-12.38-1.42-18.62-1.5-5.83-.08-11.59.44-17.27,1.74-1.57.36-3.13.83-4.63,1.41-1.73.67-2.69,2.09-3.45,3.77-1.92,4.27-3.42,8.73-5.88,12.76-2.26,3.7-4.2,7.59-6.5,11.27-1.9,3.05-4.05,5.96-6.24,8.82-.63.82-1.74,1.35-2.71,1.84-5.14,2.57-9.75,5.9-14.12,9.62-2.57,2.19-5.29,4.2-8.74,4.89-.62.12-1.26.46-1.76.86-3.22,2.51-6.83,4.15-10.72,5.37-3.04.95-5.88,2.5-8.9,3.54-3.93,1.35-7.79,2.88-11.92,3.71-4.95,1-9.8,2.46-14.32,4.81-2.53,1.31-5.31,1.66-8.08,1.94-4.02.41-8.03.79-12.05,1.16-6.74.61-13.46.87-20.2-.11-3.76-.54-7.57-.83-11.36-1.09-4.24-.29-8.4-1.01-12.46-2.22-1.86-.56-3.53-1.7-5.32-2.52-1.45-.66-2.9-1.44-4.43-1.77-1.4-.3-2.92,0-4.37-.1-3.59-.25-7.15.02-10.73.22-1.56.09-2.59-1.02-3.2-2.33-1.14-2.46-2.36-4.91-3.15-7.49-1.37-4.48-2.6-9.02-3.61-13.6-1.21-5.52-2.18-11.1-3.13-16.67-.56-3.3.13-4.69,3.22-6.24,4.92-2.47,9.89-4.85,14.91-7.1,3.54-1.59,7.13-3.15,10.84-4.27,3.69-1.11,7.44-2.35,11.41-1.99,1.16.11,2.43.15,3.44.64,1.66.8,3.3.76,4.95.41,3.65-.78,7.29-1.65,10.92-2.57,6.33-1.6,12.64-3.29,18.97-4.9,4.41-1.12,8.85-2.07,13.24-3.27,2.33-.63,4.55-1.62,6.83-2.44,2.41-.87,4.82-1.72,7.23-2.6.26-.1.49-.3.66-.41-1.4-3.13-2.76-6.19-4.24-9.51-5.24-1.43-10.68-3.33-16.28-4.35-8.88-1.61-17.85-2.8-26.94-2.15-3.9.28-7.71,1.05-11.38,2.37-3.38,1.21-6.64,2.74-10.03,3.92-3.99,1.39-6.55,4.26-8.76,7.66-1.31,2.02-2.82,3.92-4.33,5.81-.57.72-1.38,1.24-2.39,2.14.09-1.14.11-1.85.2-2.54.34-2.39-.55-4.52-1.63-6.49-1.23-2.24-4.11-3.11-6.68-2.39-1.58.45-2.81,1.43-4.14,2.35-1.71,1.18-2.82,2.71-3.98,4.31-2.32,3.21-2.98,6.98-3.64,10.74-.18,1.01-.22,2.07-.52,3.04-.29.93-.83,1.79-1.26,2.67-.16-.09-.31-.17-.47-.26ZM155.87,360.21c.1-.15.21-.29.31-.44-.19-.54-.43-1.07-.54-1.62-.12-.57-.16-1.17-.14-1.75.05-1.37.93-2.31,2.29-2.48.51-.06,1.03-.06,1.54-.05,2.94.04,5.88.17,8.82.13,6.07-.08,12.14-.28,18.22-.37,1.39-.02,2.78.22,4.17.26,5.42.19,10.85.42,16.27.49,3.88.05,7.79.09,11.65-.25,5.7-.5,11.38-1.21,17.03-2.08,5.5-.84,10.99-1.85,16.43-3.04,6.02-1.32,11.98-2.91,17.96-4.4,5.84-1.46,11.72-2.78,17.5-4.45,7.92-2.27,15.25-5.76,21.27-11.57,1.22-1.18,2.58-2.3,3.2-4.14-.58-.04-.95-.04-1.3-.1-1.93-.35-2.36-1.1-1.59-2.89.35-.8.83-1.55,1.28-2.3.98-1.63,1.94-3.28,2.98-4.87,1.4-2.15,2.64-4.46,4.36-6.32,3.65-3.93,7.52-7.62,9.76-12.66,1.07-2.41,2.63-4.58,4.83-6.21,1.89-1.4,3.96-1.56,5.56-.14.74.66,1.26,1.61,1.73,2.5.59,1.14,1.01,2.36,1.58,3.73,1.46-1.64,2.54-3.27,4-4.43,4.94-3.92,9.9-7.83,15.08-11.43,4.9-3.41,10.26-6.03,16.17-7.25,3.22-.67,6.49-1.16,9.76-1.55,5.68-.69,11.37-1.1,17.08-.09,1.87.33,3.8.42,5.7.44,1.27.01,2.6-.1,3.89-.93-.27-.37-.42-.71-.69-.9-1.12-.82-2.24-1.64-3.41-2.38-1.7-1.07-2.11-1.9-1.57-3.85.29-1.03.73-2.02,1.14-3.13-1.62-1-3.1-2.11-4.74-2.88-3.45-1.61-6.93-3.19-10.51-4.5-4.59-1.68-9.3-1.83-14.09-.61-6.02,1.52-11.68,3.96-17.36,6.35-4.2,1.77-8.27,3.8-11.58,7.07-.94.92-1.95,1.77-2.93,2.65-3.99,3.56-8.09,6.97-11.89,10.77-3.88,3.88-8.13,7.52-12.66,10.61-6.8,4.64-13.59,9.24-19.7,14.78-3.26,2.96-6.7,5.71-10.49,7.99-2,1.21-3.92,2.56-5.87,3.86-1.16.78-1.96.72-3.1-.25-.34-.29-.73-.52-1.01-.85-1.39-1.66-3.19-2.47-5.28-2.93-2.5-.55-5.08-1.02-7.16-2.66-1.72-1.36-3.35-2.85-5-4.3-1.49-1.3-2.87-2.75-4.45-3.93-2.76-2.06-5.6-4.02-8.47-5.92-2.14-1.41-4.25-3.04-6.61-3.91-4.87-1.79-9.84-3.35-14.87-4.64-7.02-1.8-14.09-3.49-21.29-4.4-4.29-.55-8.59-1.14-12.9-1.39-9.65-.56-19.25.35-28.83,1.31-1.57.16-3.12.54-4.97.86.53.72.82,1.23,1.22,1.63,1.64,1.68,3.38,3.28,4.97,5.01,1.58,1.72,3.29,3.37,3.7,5.87.35,2.09-.17,2.93-2.29,2.91-1.31,0-2.61-.41-3.92-.46-4.85-.17-9.7-.4-14.55-.35-3.67.04-7.34.38-10.99.76-4.45.46-8.9.97-13.31,1.68-5.67.91-11.2,2.44-16.53,4.57-3.94,1.57-7.8,3.35-11.63,5.18-2.49,1.19-4.8,2.73-7.28,3.94-3.86,1.89-7.39,4.21-10.39,7.31-4.51,4.67-8.64,9.52-10.48,16.01-1.44,5.1-2.86,10.16-2.71,15.52.04,1.47.06,2.94.04,4.41-.07,3.75,1.9,6.63,3.85,9.69,5.34-3.21,10.98-5.03,16.86-6.09,3.76-.68,7.54-1.23,11.33-1.65,7.23-.8,14.47-1.47,21.71-2.16.7-.07,1.43.12,2.12.02,1.43-.21,2.84-.69,4.27-.77,5.57-.29,11.15-.64,16.68.39.57.11,1.15.21,1.69.41,1.79.64,3.57,1.3,5.34,1.99,1.26.5,2.5,1.07,3.75,1.61ZM350.4,227.12c-.71.03-1.37,0-1.99.11-4.53.81-9,1.88-13.34,3.47-1.31.48-2.7.79-3.91,1.45-2.18,1.19-4.28,2.55-6.37,3.89-1.5.96-2.68,2.21-3.74,3.68-1.79,2.49-3.66,4.96-5.73,7.22-1.92,2.09-4.19,3.84-5.8,6.24-.38.57-1.14.91-1.75,1.32-3.32,2.17-6.65,4.33-9.97,6.5-3.56,2.34-7.22,4.55-10.65,7.07-4.38,3.21-8.59,6.64-12.84,10.02-.81.65-1.46,1.51-2.11,2.2.68,1.19,1.34.62,1.85.33,1.4-.8,2.71-1.77,4.12-2.55,4.16-2.33,8.44-4.47,12.35-7.25,3.36-2.39,6.91-4.43,10.82-5.85,1.28-.46,2.55-1.28,3.51-2.24,1.64-1.64,3.77-2.25,5.77-3.14,1.49-.66,2.73-.07,3.5,1.35.2.37.33.77.55,1.31,1.01-.4,1.9-.71,2.75-1.11,4.51-2.15,9-4.31,13.49-6.49,1.59-.77,3.18-1.52,4.71-2.38,3.05-1.73,5.98-3.7,9.11-5.26,4.09-2.03,6.12-5.05,5.75-9.66-.15-1.9-.07-3.81-.09-5.72-.01-1.45,0-2.9,0-4.49ZM472.31,195.81c.08.09.17.18.25.27.25-.12.53-.22.76-.37,1.9-1.28,3.84-2.41,6.19-2.7.48-.06,1.05-.54,1.33-.99.84-1.37,1.44-2.89,2.36-4.2,1.41-2.03,2.29-4.24,2.96-6.59.71-2.51,1.74-4.9,4.12-6.29,1.8-1.06,2.54-2.63,2.49-4.58-.07-3.35-.24-6.7-.39-10.05-.08-1.68-.25-3.36-.3-5.04-.09-3-.02-6.01-.2-9-.16-2.7-.49-5.4-.89-8.08-.28-1.96-.64-3.92-2.69-5.01-3.89-2.06-7.72-4.24-11.96-5.56-1.37-.43-2.69-1.03-4.14-1.59-.04.45-.11.66-.06.85,1.19,5.39,3.57,10.2,7.05,14.49,1.43,1.76,2.89,3.51,4.15,5.39,2.45,3.65,4.69,7.43,7.18,11.05.96,1.38,1.15,2.62.58,4.1-.21.55-.4,1.11-.62,1.65-2.14,5.15-4.22,10.32-6.44,15.43-1.64,3.77-3.44,7.45-6.36,10.49-1.91,1.99-3.58,4.22-5.36,6.34ZM428.24,258.13c2.75,0,5.02.07,7.28-.02,3.23-.12,6.45-.29,9.67-.55,2.73-.22,5.31-1.02,7.68-2.47,2.19-1.35,4.48-2.54,6.62-3.96,3.11-2.07,6.18-4.22,9.16-6.47,1.45-1.1,2.71-2.47,3.97-3.79.33-.35.58-1.07.46-1.51-.54-2.02-1.22-4.01-1.94-6.3-1.12.41-2.21.76-3.26,1.19-1.35.56-2.69,1.16-4.01,1.81-1.97.97-3.97,1.89-5.84,3.02-3.83,2.31-7.61,4.71-11.37,7.14-1.78,1.15-3.54,2.36-5.18,3.71-2.72,2.23-5.17,4.81-8.45,6.28-1.44.65-2.93,1.19-4.79,1.94ZM503.12,201.17c-2.25.7-3.65,1.8-4.22,3-1.17,2.44-2.42,4.83-3.62,7.25-.51,1.04-1.09,2.08-1.42,3.18-1.03,3.44-1.97,6.9-2.9,10.36-.24.9-.31,1.84-.46,2.8,2.02-.23,2.86-.49,3.66-1.78,2.08-3.35,4.04-6.78,6.04-10.19.11-.19.17-.4.23-.62.93-3.31,1.9-6.62,2.75-9.95.34-1.32.41-2.71-.06-4.06ZM469.39,199.96c-4.18,4.07-6.7,11.02-5.17,13.48,1.65-4.29,3.31-8.63,5.17-13.48Z"/>
    <path class="cls-1" d="M42.18,281.29c3.81,1.2,4.95-1.45,6.31-3.87.36.29.74.43.76.62.52,4.42,1.72,8.86.24,13.28-.57,1.71-1.43,3.4-2.51,4.84-3.31,4.4-6.82,8.65-10.19,13.01-1.76,2.27-3.17,4.76-4.03,7.52-.13.42-.27.85-.3,1.29-.27,3.94-.53,7.89-.77,11.84-.08,1.31-.17,2.63-.11,3.94.21,4.54.37,9.09.79,13.61.17,1.86.8,3.73,1.52,5.46,1.08,2.59.66,5.35,1.1,8.06-.89-1.7-1.78-3.39-2.66-5.09-.2-.39-.33-.84-.59-1.18-2.17-2.76-3.19-6.07-4.44-9.28-.43-1.1-.96-2.07-1.92-2.88-1.9-1.6-2.63-3.8-2.67-6.24-.11-5.3-.98-10.5-1.81-15.72-.55-3.47-.66-7-1.02-10.5-.1-.99.47-1.46,1.12-1.98,2.18-1.75,4.38-3.47,6.5-5.29,1.45-1.25,2.79-2.62,4.13-3.98,2.84-2.87,4.33-6.36,5.12-10.3.34-1.68.15-2.98-.5-4.56-4.58-11.18-11.53-20.91-18.47-30.65-.55-.78-1.12-1.54-1.66-2.33-2.08-3.02-4.02-6.14-6.71-8.7-.51-.48-1.6-1.16-.23-2.19.74.5,1.53.99,2.27,1.55,4.61,3.48,9.59,5.97,15.58,5.47,1.85-.15,3.01.53,3.96,2.08,1.57,2.56,3.51,4.92,4.89,7.57,1.1,2.11,1.65,4.52,2.38,6.82.82,2.59,1.51,5.21,2.34,7.79.79,2.46,1.41,4.93,1.31,7.55-.03.86.19,1.72.28,2.43Z"/>
    <path class="cls-1" d="M313.58,138.34c3.58,1.44,7.3,1.25,10.95,1.45,3.09.17,5.53.85,6,4.59,4.19-2.62,8.46-4.42,12.92-5.88.36.24.77.54,1.21.78,1.85,1.02,2.43,2.22,2.04,4.33-.39,2.09-.8,4.17-1.2,6.28-1.77-.04-3.63-.13-5.5-.1-1.02.02-2.03.29-3.05.36-2.26.14-3.64,1.57-4.54,3.36-.54,1.08-1.25,1.8-2.22,2.27-1.31.64-2.67,1.19-4.05,1.67-3.38,1.18-6.22,3.26-9.14,5.24-1.75,1.19-3.65,2.19-5.32,3.48-2.37,1.83-4.6,3.85-6.99,5.88-.56-.66-.5-1.55-.56-2.48-.49-6.8.82-13.29,3.26-19.6.92-2.38,1.65-4.84,2.69-7.17.77-1.73,1.99-3.22,3.52-4.44Z"/>
    <path class="cls-1" d="M210.89,234.1c-1.24,0-2.48-.02-3.72,0-.73.01-1.48.02-2.2.17-1.47.31-2.93.71-4.53,1.11.25.31.52.72.86,1.04,1.19,1.09,2.42,2.14,3.6,3.23.6.56,1.15,1.21.82,2.12-.25.68-1.77,1.22-2.7.97-.57-.15-1.12-.36-1.67-.58-4.39-1.7-8.91-3-13.52-3.93-6.76-1.36-13.53-2.76-20.34-3.87-4.11-.67-8.3-.94-12.47-1.14-5.5-.27-11.01-.5-16.51-.38-6.74.15-13.45.69-20.1,1.98-3.5.68-7.08.99-10.74,1.14.55-.21,1.09-.43,1.65-.61,4.62-1.53,9.25-3.03,13.87-4.59,2.06-.7,4.04-1.7,6.15-2.22,2.55-.64,5.18-1.04,7.8-1.33,5.98-.66,11.95-1.44,17.99-1.46,7.21-.02,14.4.43,21.56,1.16,4.01.41,8.05.75,12.01,1.45,4.61.82,9.16,1.99,13.73,3.03,2.07.47,4.14.97,6.2,1.5.77.2,1.52.49,2.28.74-.01.14-.02.29-.03.43Z"/>
    <path class="cls-1" d="M352.72,356.19c1.17-2.65,2.13-4.93,3.98-6.64,2.64-2.44,5.31-4.85,8.09-7.12,3.41-2.79,6.89-5.5,10.45-8.1,1.83-1.33,3.84-2.46,5.87-3.47,4.6-2.27,9.23-4.49,13.93-6.57,2.06-.91,4.3-1.39,6.43-2.15,3.43-1.23,7.11-2.03,9.43-5.26.55-.77,1.01-1.61,1.59-2.37.28-.37.74-.6,1.33-1.05.4.87.73,1.5.99,2.16.64,1.64,1.18,3.32,1.87,4.93.79,1.82.08,3.48-.5,5.11-.13.37-.94.75-1.41.72-1.94-.12-3.72.38-5.52,1-1.17.4-2.41.63-3.64.81-2.36.34-4.42,1.46-6.59,2.31-8.15,3.2-15.56,7.78-23.01,12.29-4.45,2.7-9.03,5.19-13.52,7.82-2.75,1.61-5.43,3.33-8.16,4.98-.34.21-.77.29-1.6.59Z"/>
    <path class="cls-1" d="M55.21,35.03c-1.09,1.08-2.18.69-3.21.46-3.71-.84-7.4-1.79-11.13-2.55-3.23-.65-6.5-1.07-9.75-1.65-1.21-.22-2.43-.47-3.31-1.53-.72-.87-.95-1.68-.63-2.82.57-2.04,1-4.13,1.38-6.21.75-4.09-.86-7.6-2.86-10.99-.22-.37-.47-.72-.68-1.04.61-1.06,1.44-1.3,2.49-1.08,1.5.32,3.01.61,4.52.9,3.05.58,6.11.68,9.18.09,1.46-.28,3.64.99,4.28,2.8.9,2.54,1.6,5.18,2.09,7.84.37,2,.24,4.09.36,6.13.1,1.65,1.16,2.77,2.2,3.91,1.71,1.87,3.36,3.8,5.07,5.75Z"/>
    <path class="cls-1" d="M268.07,25.26c-.21,1.38-.86,1.54-1.93,1.35-2.81-.5-5.64-.9-8.47-1.3-.87-.12-1.77-.06-2.63-.21-2.16-.36-3.76.66-4.98,2.19-2.1,2.64-4.13,5.33-6,8.13-1.53,2.29-1.97,5.02-2.43,7.69-.07.43-.11.86-.2,1.59-.72-.66-.9-1.27-1.05-1.95-1.11-5.21-4.53-8.57-8.97-11.08-.74-.42-1.64-.56-2.27-.77,2.64-3.48,5.13-7.1,7.96-10.41,3.19-3.73,7.44-6.12,11.81-8.25.69-.34,1.25-.3,1.8.23,4.36,4.22,9.64,7.15,14.67,10.44,1.01.66,1.85,1.59,2.69,2.33Z"/>
    <path class="cls-1" d="M422.34,142.82c.14,1.98.34,3.8.39,5.61.04,1.45.42,2.7,1.32,3.87,1.29,1.67,2.44,3.44,3.63,5.18.29.42.63.88.7,1.35.39,2.69.7,5.39,1.05,8.09.3,2.26-.91,3.71-2.76,4.54-4.44,1.98-9.01,3.58-13.93,3.95-1.17.09-2.34.22-3.51.35-.95.1-1.53-.34-1.94-1.5.44-.6.88-1.46,1.54-2.08,2.69-2.51,3.86-5.86,5.2-9.11.88-2.13,1.64-4.32,2.37-6.51.19-.58.17-1.3.03-1.9-.54-2.29-1.27-4.54-2.69-6.45-.64-.87-1.45-1.62-2.2-2.39-.41-.42-.95-.73-1.28-1.19-.51-.7-.31-1.67.51-2.01.85-.35,1.82-.63,2.71-.58,2.9.17,5.8.5,8.87.78Z"/>
    <path class="cls-1" d="M268,248.32c-.59-.51-1.2-.99-1.75-1.53-.31-.3-.45-.83-.8-1.03-1.86-1.08-1.87-2.74-2.07-4.68-.32-3.17.87-5.52,2.77-7.76.99-1.16,1.89-2.4,2.92-3.53.29-.32,1.01-.65,1.31-.51,1.29.63,3.08,1.15,3.6,2.23.95,2,1.94,4.32.55,6.66-1.11,1.88-2.21,3.77-3.3,5.65-.26.44-.61.87-.7,1.35-.26,1.45-1.27,2.24-2.52,3.15Z"/>
    <path class="cls-1" d="M48.5,47.18c.27.44.76.87.77,1.31.04,2.23.66,4.59-1.04,6.52-1.21,1.37-2.45,2.72-3.79,3.95-1.19,1.1-2.77.54-2.83-1.03-.1-2.74.34-5.46,1.66-7.87.43-.79,1.58-1.23,2.46-1.71.69-.37,1.49-.55,2.24-.81.18-.12.35-.24.53-.36Z"/>
  </g>
</svg>