<?xml version="1.0" encoding="UTF-8"?>
<svg id="Layer_1" data-name="Layer 1" xmlns="http://www.w3.org/2000/svg" version="1.1" viewBox="0 0 364 497">
  <defs>
    <style>
      .cls-1 {
        fill: #ff5c7a;
      }

      .cls-1, .cls-2 {
        stroke-width: 0px;
      }

      .cls-2 {
        fill: #a515ff;
      }
    </style>
  </defs>
  <g id="FIRE_ALT_05" data-name="FIRE ALT 05">
    <path class="cls-2" d="M142.52,72.28c0,1.12-.04,1.85,0,2.58.18,3.01-.35,5.89-1.98,8.42-.99,1.53-2.21,2.96-3.55,4.2-3.81,3.52-8.35,6.04-12.58,8.99-2.48,1.73-4.91,3.55-7.3,5.4-3.68,2.84-7.55,5.26-12.1,6.49-2.01.54-3.83,1.55-5.14,3.26-.72.94-1.41,1.93-1.2,3.19.46,2.81-.52,5.29-1.68,7.74-.78,1.64-1.37,3.34-1.28,5.16.04.77.27,1.72.78,2.24,3.16,3.25,6.38,6.46,9.69,9.55,1.03.96,2.47,1.47,3.65,2.3,1.63,1.13,3.29,2.25,4.75,3.58,1.98,1.81,3.87,3.69,6.28,4.97.93.5,1.98,1.29,2.36,2.2.82,1.97,2.24,3.45,3.49,5.06,2.12,2.73,2.21,5.69,1.23,8.8-.53,1.7-1.13,3.37-1.76,5.04-1.29,3.41-2.61,6.81-6.06,8.73-.29.16-.52.42-.83.69.25.18.38.34.55.39,5.5,1.71,10.8,4.01,16.66,4.53,3.54.31,7.02,1.22,10.54,1.79,1.2.19,2.45.09,3.66.24,3.2.39,6.39.85,9.58,1.28,1.7.23,3.4.45,5.1.7,3.53.5,7.05,1.02,10.58,1.53.73.11,1.47.19,2.56.34-1.08-1.25-1.89-2.22-2.74-3.16-1.03-1.14-2.56-1.08-3.84-1.22-3.22-.37-5.58-2.09-7.79-4.21-3.63-3.49-6.12-7.76-8.17-12.28-2.01-4.42-1.2-8.66,1.63-12.43,1.38-1.84,3.25-3.32,4.93-4.93,1.72-1.65,3.5-3.23,5.2-4.89,2.03-1.98,4.42-3.43,6.88-4.79,1.81-1,2.12-1.75,1.41-3.67-.45-1.22-.96-2.43-1.52-3.6-.51-1.09-1.12-2.13-1.78-3.37,2,.63,3.37,1.93,4.53,3.31,1.4,1.67,2.7,3.51,3.6,5.47,1.27,2.77.39,5.45-1.47,7.67-1.67,2-3.64,3.75-5.45,5.63-2.1,2.17-3.15,4.8-3.3,7.81-.11,2.32-.23,4.64-.33,6.97-.11,2.6.26,2.9,2.6,4.02,4.04,1.94,7.87,1.34,11.59-.71,1.18-.65,2.21-1.64,3.2-2.58,1.71-1.62,3.67-2.61,6.04-2.82,1.37-.12,2.71-.44,4.07-.66,1.52-.25,2.27.31,2.22,1.86-.04,1.23-.35,2.44-.51,3.67-.35,2.58-1.1,5.19-.95,7.75.28,4.87,1.35,7.81,6.29,9,.26-.35.5-.79.85-1.09.66-.58,1.33-.84,2.22-.23.93.64,2.01,1.08,3.32,1.76-.31-1.87-.55-3.35-.8-4.83-.23-1.39.27-2.4,1.76-3.15.76.73,1.6,1.42,2.3,2.23,1.69,1.94,3.61,3.5,5.94,4.68,2.19,1.11,4.2,2.6,6.22,4.03,2.09,1.48,4.28,2.74,6.7,3.59.39.14.79.29,1.12.52,3.19,2.16,6.72,3.37,10.49,4.04,1.34.24,2.65.73,3.95,1.18,3.31,1.14,6.62,2.3,9.91,3.49,2.09.75,4.22,1.13,6.46,1.15,5.79.05,11.5.49,16.9,2.96,2.67,1.22,5.65,1.72,8.18,3.39.53.35,1.61.1,2.35-.14,2.75-.91,5.53-1.67,8.43-1.91,1.85-.16,3.71-.25,5.56-.4,2.74-.22,5.48-.42,8.22-.7,1.85-.19,3.57.18,5.18,1.02,5.24,2.74,9.48,6.48,12.38,11.75,1.97,3.58,3.6,7.26,4.74,11.17.44,1.51,1.03,2.99,1.63,4.44,1.2,2.91,1.33,6.02,1.72,9.08.17,1.31-.26,1.72-1.55,1.94-.46.08-.94.07-1.42.1.51,2.53,1.06,5.06,1.53,7.61,1.39,7.57,1.5,15.16.41,22.79-.4,2.79-.29,5.66-.82,8.41-.68,3.56-1.77,7.05-2.7,10.56-.21.81-.74,1.23-1.63,1.3-3.11.24-5.36,2-7.22,4.33-3.62,4.51-7.26,9-10.76,13.6-1.95,2.56-3.9,5.19-5.39,8.03-1.52,2.89-2.51,6.06-3.68,9.13-.27.72-.64,1.2-1.42,1.29-1.36.15-2.73.45-4.09.4-2.34-.08-4.3.68-6.07,2.15-2.49,2.07-5,4.1-7.51,6.15-.84.69-1.68,1.38-2.78,2.28,3.17,1.65,6.44.87,9.65,1.18-.04,1.95-.18,3.62-1.97,4.55-2.81,1.46-5.55,3.09-8.47,4.26-6.57,2.65-13.22,5.11-19.87,7.56-4.97,1.83-10.01,3.45-14.98,5.27-3.18,1.16-6.2,2.63-8.76,4.95-.61.55-1.57.86-2.41.96-3.19.35-6.32-.22-9.39-.97-6.47-1.59-12.92-3.27-19.38-4.89-7.33-1.83-14.68-3.63-22.02-5.43-.6-.15-1.21-.22-1.83-.27-1.51-.14-1.53-.15-1.44-1.98.86-.35,1.74-.7,2.6-1.04-.59-2.59-.94-2.92-3.23-2.9-10.03.05-20.06.12-30.09.18-.55,0-1.1.03-1.65,0-5.18-.3-10.31.23-15.42,1.02-3.6.56-7.24.78-10.83,1.37-2.16.35-4.24,1.16-6.38,1.68-4.14,1.01-8.28,2.02-12.44,2.95-4.47.99-8.69,2.66-12.72,4.77-11.13,5.82-21.44,12.94-31.64,20.22-1.54,1.1-2.76,2.5-3.49,4.26-1.71,4.13-3.67,8.13-5.89,12.01-.42.73-.71,1.7-.65,2.52.14,1.84.46,3.68.85,5.48.5,2.34,1.17,4.65,1.71,6.99.68,2.91,1.96,5.38,4.49,7.15,1.46,1.02,2.89,2.13,4.14,3.39,2.31,2.32,5.28,3.42,8.1,4.86,3.53,1.8,7.3,2.25,11.18,2.51,5.44.36,10.85.48,16.27-.37,1.69-.26,3.44-.18,5.15-.35,3.21-.32,6.41-.73,9.62-1.07,1.98-.21,3.97-.53,5.95-.52.86,0,1.87.56,2.53,1.18,1.52,1.41,3.24,2.04,5.26,1.95,2.13-.1,4.25-.22,6.38-.35,1.06-.07,1.73-.66,2.26-1.57.65-1.12,1.39-2.19,2.15-3.23.5-.69.9-1.28.57-2.24-.45-1.3.25-2.18,1.11-3.25,1.79-2.23,4.14-2.46,6.62-2.57,3.29-.14,6.59-.18,9.88-.33,1.08-.05,2.17-.29,3.24-.53,4.94-1.13,9.95-1.17,14.97-1.09,2.6.04,5.2-.07,7.8-.1,2.8-.03,5.61-.06,8.41-.05,2.55,0,5.1.01,7.64.13,3.7.17,7.4.46,11.1.67,1.65.09,3.31.02,4.95.17,3.14.3,6.29.63,9.41,1.1,3.12.47,6.23,1.07,9.33,1.7,4.66.95,7.95,3.82,10.51,7.68,1.24,1.86,2.77,3.43,4.79,4.44,3.13,1.56,6.28,3.07,9.42,4.62.48.24.99.47,1.38.83,2,1.82,4.39,2.77,6.98,3.3,3.09.63,5.15-1.41,4.55-4.5-.1-.54-.28-1.06-.49-1.81,2.73.71,5.13,1.8,7.42,3.11,1.67.95,3.28,2.01,4.86,3.1.61.42,1.18.96,1.6,1.56,4.74,6.79,10.63,12.41,17.35,17.2,3.46,2.47,6.01,5.61,7.73,9.56,1.74,4,2.87,8.14,3.66,12.39.15.8.17,1.65.12,2.47-.07,1-1.04,1.86-1.96,1.64-1.09-.26-2.18-.49-2.96-1.59-1.02-1.45-2.31-2.72-3.49-4.07-.56-.65-1.18-.69-2.03-.52-2.96.59-5.93,1.18-8.92,1.51-1.32.15-2.74-.18-4.05-.53-5.47-1.44-10.3-4.16-14.71-7.65-1.83-1.45-3.65-2.92-5.49-4.34-.36-.28-.81-.5-1.26-.61-3.8-.93-7.6-1.87-11.43-2.71-.99-.22-2.08-.21-3.08-.07-4.03.57-8.05.76-12.13.43-2.38-.19-4.8.29-7.21.33-3.78.07-7.56-.04-11.34.04-2.34.05-4.67.29-7,.45-.89.06-1.78.24-2.67.21-5.06-.2-10.01.81-14.97,1.48-4.69.63-9.34.32-14.01.15-1.77-.06-3.55.07-5.32.26-1.24.13-2.4.43-3.55-.41-.38-.28-1.06-.25-1.6-.22-3.98.2-7.97.37-11.95.69-6.43.52-12.46-.67-18.05-3.93-.65-.38-1.24-.87-1.81-1.36-2.66-2.3-3.31-4.12-2.67-7.56-.74-.6-1.53-1.26-2.33-1.89-.87-.69-1.84-.79-2.92-.65-3.27.42-6.54,1.07-9.82,1.1-4.42.04-8.1,1.9-11.8,3.88-1.51.81-3.04,1.6-4.56,2.39-2.91,1.51-5.85,2.98-8.74,4.54-1.26.68-2.44,1-3.91.71-1.6-.32-3.27-.4-4.9-.42-2.67-.03-5.32,0-7.99-.42-2.98-.48-5.99-.68-9.03-.37-4.83.49-9.61-.35-14.42-.53-5.03-.18-9.92-1.34-14.88-2-3.46-.46-6.92-.91-10.35-1.52-3.18-.57-6.31-1.41-9.48-1.99-1.81-.33-3.21-1.22-4.36-2.54-2.17-2.49-4.28-5.03-6.38-7.58-.29-.35-.39-.84-.54-1.17,1.37-2.61,3.65-1.74,6.12-1.5-.73-1.5-1.26-2.64-1.83-3.77-2.19-4.35-4.53-8.63-6.56-13.06-1.68-3.68-3.01-7.52-4.49-11.29-1.16-2.95-.84-6.1-1.16-9.16-.18-1.71-.19-3.43-.35-5.14-.15-1.6.43-2.85,1.68-3.76,2.89-2.1,4.96-4.94,7.05-7.76,2.24-3.02,3.97-6.21,4.05-10.18.03-1.42.81-2.89,1.5-4.22,3.45-6.64,8.23-12.18,14.14-16.76,1.63-1.26,3.24-2.57,4.81-3.9,3.42-2.91,7.38-4.75,11.66-5.99,2.24-.65,4.44-1.42,6.68-2.08,1.64-.49,3.3-.94,4.97-1.32,1.13-.26,2.19-.13,2.89,1,.62,1,1.36.98,2.46.55,1.45-.56,3.04-.84,4.59-1.03,1.53-.19,2.76.62,3.65,1.61,3.28-.95,6.42-1.87,9.57-2.79,4.28-1.25,8.6-2.42,12.84-3.79,6.38-2.06,12.88-3.34,19.59-3.8,4.32-.29,8.61-1.02,12.92-1.44,3.15-.31,6.32-.38,9.47-.65,4.66-.4,9.3-1.01,13.97-1.28,5.92-.34,11.78-1.05,17.64-1.9,2.65-.38,5.35-.39,8.03-.51,3.46-.16,6.96-.47,9.96-2.22,3.3-1.93,6.5-4.13,8.92-7.49-.58-1.12-1.13-2.29-1.78-3.4-1-1.71-1.3-3.51-.52-5.32,1.39-3.22,1.1-6.61,1.19-9.97.03-.96-.02-1.93-.12-2.89-.21-2.07.51-3.74,1.89-5.25,3.25-3.56,7.17-6.19,11.39-8.43,2.13-1.13,4.23-2.32,6.34-3.47,1.32-.72,2.08-1.68,1.86-3.31-.2-1.47.08-2.88.98-4.13.19-.27.32-.62.36-.95.23-2.11,1.57-3.42,3.16-4.6,2.91-2.16,5.18-4.89,7.07-7.83-.75-.81-1.36-1.67-2.15-2.29-1.37-1.08-2.16-2.49-2.64-4.09-.63-2.11-1.31-4.23-1.61-6.39-.2-1.45-.12-3.11.41-4.45,1.34-3.38,1.89-6.89,2.33-10.43.28-2.23.98-4.27,2.05-6.22.73-1.33,1.42-2.67,2.12-4.01.65-1.26.64-1.62-.6-2.36-2.3-1.37-4.71-2.58-7.03-3.92-4.93-2.86-9.83-5.77-14.49-9.1-5.43-3.87-11.22-7.22-17.01-10.55-3.51-2.02-7.4-2.89-11.03-4.49-.9-.4-2.03-.46-3.04-.39-3.86.24-7.52-.81-11.13-1.85-3.2-.93-6.38-1.66-9.73-1.49-3.46.17-6.84-.24-10.2-1.16-2.17-.59-4.45-.94-6.69-1.06-4.3-.22-8.41-1.42-12.61-2.08-8.72-1.36-16.81-4.6-24.86-8.03-5.18-2.21-10.47-4.15-15.64-6.39-3.53-1.52-6.89-3.41-10.38-5.02-5.04-2.32-9.59-5.48-13.95-8.79-4.7-3.57-8.67-7.96-11.22-13.53-1.9-4.15-3.74-8.28-4.6-12.76-.48-2.49-.69-5.03-1.06-7.54-.26-1.76-.45-3.55-.93-5.25-1.26-4.46-1.17-8.96-.73-13.5.15-1.56.09-3.15,0-4.72-.17-3.17.4-6.13,1.99-8.93,1.05-1.85,1.96-3.79,2.78-5.75,1.09-2.58,2.75-4.77,4.55-6.84,1.01-1.16,1.04-2.03.37-3.45-1.6-3.41-1.23-6.76,1.09-9.85,1.97-2.62,4.49-4.62,7.05-6.59,1.19-.92,2.47-1.74,3.78-2.48,2.12-1.21,4.51-1.18,6.84-1.16,2.67.02,5.34.31,8.01.38,1.01.03,2.07-.09,3.05-.34,2.05-.54,4.14-.52,6.1.05,1.37.4,2.56,1.43,4.18,2.39,1.32-.62,3.09-1.36,4.77-2.26,4.49-2.39,9.01-4.73,13.37-7.33,3.35-1.99,6.62-4.17,9.69-6.57,2.76-2.16,5.7-3.78,8.99-4.88,1.43-.48,2.82-1.09,4.18-1.72,1.23-.57,2.4-.17,3.81,0-.27.73-.53,1.33-.72,1.95-.55,1.79.23,3.18,1.57,4.48,2.8,2.72,5.59,1.67,8.3.21,3.51-1.89,6.85-4.09,10.3-6.09,3.22-1.87,6.55-3.32,10.42-3.41,2.37-.06,4.72-.89,7.1-1.16,2.59-.3,5.21-.41,7.81-.5,3.02-.11,6.05-.15,9.08-.16,1.57,0,3.15.12,4.72.22.88.05.95.62.73,1.43-.54.13-1.12.31-1.72.42-2.31.46-4.46,1.3-6.46,2.57-2.04,1.29-4.18,2.4-6.66,2.64-.89.09-1.59.32-1.54,1.49.07,1.3.53,2.07,1.69,2.2.74.08,1.53.04,2.26-.1,3.25-.59,6.44-.46,9.59.56,2.91.94,5.9,1.37,8.95,1.26,2.27-.08,4.19.61,5.75,2.27-.34,1.64-.4,1.69-1.94,1.58-2.19-.15-4.37-.29-6.56-.43-.27-.02-.55-.04-.82,0-3.43.68-6.82.09-10.22-.24-3.15-.3-6.12.57-9.13,1.29-1.66.4-3.39.74-5.07.69-1.33-.04-2.27.35-3.11,1.22-1.82,1.88-3.59,3.8-5.42,5.67-1.53,1.58-3.14,3.08-4.66,4.68-1.7,1.8-3.86,2.58-6.21,2.9-2.18.3-4.37.51-6.56.73-2.62.26-5.03-.31-7.41-2.27ZM211.6,331.21c-.67.92-1.05,1.66-1.63,2.21-4.08,3.82-8.51,7.16-13.47,9.79-2.76,1.47-5.58,2.64-8.71,3.01-1.23.14-2.46.34-3.64.7-7.1,2.15-14.43,3.31-21.66,4.88-1.31.28-2.65.45-3.98.68,1.12.32,2.21.27,3.3.33,1.92.12,3.85.54,5.74.42,5.08-.33,10.14-.88,15.08-2.22,3.31-.9,6.63-1.84,9.99-2.53,5.93-1.21,11.85-2.32,17.48-4.71,7.54-3.19,13.65-7.9,17.79-15.04,1-1.73.35-3.28-1.65-3.62-.74-.13-1.51-.2-2.26-.16-1.33.07-2.42-.41-3.39-1.26-.98-.86-1.9-1.82-2.95-2.58-.95-.69-1.6-1.46-1.78-2.67,1.04-1.76,2.69-2.91,4.16-4.25,1.02-.93,2.1-1.8,3.02-2.81,1.28-1.4,1.23-2.34-.04-3.79-.48-.55-1-1.07-1.26-1.35.27-4.26,3.25-5.54,6.38-6.64.13-.05.27-.07.4-.11,3.87-1.22,7.77-2.35,11.6-3.66,7.61-2.59,14.38-6.54,19.7-12.7,4.68-5.41,7.7-11.63,8.1-18.79.37-6.68-.92-13.12-4.14-19.11-1.93-3.59-4.81-6.25-7.86-8.8-1.39.73-.92,1.58-.34,2.42,1.76,2.54,2.74,5.39,3.21,8.41.33,2.1.69,4.25.59,6.36-.14,2.79-.51,5.63-2.07,8.1-2.55,4.03-5.62,7.62-9.23,10.72-1.23,1.06-2.35,2.34-4.13,3.09.29-.64.46-1.01.64-1.38.47-.99,1-1.97,1.39-2.99.29-.75.22-1.63-.62-1.94-.44-.16-1.11.17-1.62.42-.35.17-.55.62-.87.86-1.53,1.15-3.06,2.29-4.62,3.39-2.3,1.62-4.78,3.03-6.89,4.87-1.35,1.18-2.66,2.32-4.25,3.17-3.22,1.73-4.91,4.32-5,8.12-.08,3.61-2.03,6.23-5.42,7.54-3.4,1.31-6.31,3.37-8.96,5.78-1.02.93-1.75,2.25-2.42,3.5-1.08,1.99-2.03,4.05-2.98,6.1-1.09,2.38-1.77,4.88-1.95,7.5-.09,1.27.3,2.39.99,3.5,1.14,1.82,2.71,3.09,4.52,4.13,1.78,1.02,3.59,1.99,5.7,3.15ZM93.01,107.32c-.59-.07-.84-.15-1.09-.12-2.05.21-4.09.48-6.14.65-1.42.12-2.85.03-4.26.16-1.09.1-2.16.39-3.24.59-2.5.45-5,.93-7.51,1.34-1.9.31-3.13,1.26-3.48,3.21-.11.61-.26,1.21-.46,1.79-.92,2.65-1.59,5.43-2.84,7.92-2.78,5.53-3.17,11.15-1.42,16.99.23.78.53,1.58.98,2.24,2.08,3.08,4.16,6.15,6.37,9.14,1.78,2.41,1.85,2.28,4.55.91,1.38-.7,2.92-1.14,4.44-1.5.55-.13,1.53.14,1.78.55.25.42.06,1.4-.3,1.85-.97,1.21-.66,2.29,0,3.42.49.83.94,1.71,1.57,2.42,2.33,2.62,4.53,5.41,7.15,7.7,3.32,2.9,7.1,5.16,11.54,6.11,2.19.47,4.07.08,5.81-1.29,2.51-1.99,4.16-4.68,6.04-7.08-.09-.29-.12-.42-.18-.54-1.68-3.33-4.46-5.75-6.96-8.39-2.93-3.09-6.02-5.98-7.91-9.93-.74-1.55-2.15-2.82-3.35-4.12-1.17-1.26-2.49-2.37-3.7-3.59-2.46-2.48-3.93-5.39-3.07-8.93.55-2.27.28-4.49.34-6.74.04-1.63.03-3.34.52-4.85.68-2.07,1.79-3.99,2.76-5.96.62-1.27,1.32-2.5,2.08-3.93ZM108.32,443.56c-.02-.23-.04-.45-.06-.68-.56-.05-1.12-.19-1.67-.15-2.86.19-5.72.52-8.58.61-3.37.11-6.74.02-10.11.05-.95.01-1.93.36-2.84.22-2.9-.44-5.81-.79-8.56-1.99-1.35-.59-2.89-.73-4.33-1.11-2.49-.65-5.09-.69-7.49-1.86-3.63-1.77-7.04-3.89-10.39-6.12-1.51-1.01-2.8-2.41-3.44-4.24-1.27-3.63-1.22-7.4-1.29-11.16-.03-1.5.15-3.01.31-4.5.41-4.01,1.31-7.99,1-12.06-.04-.46.01-1.01.24-1.38.95-1.58,1.89-3.19,3-4.66,2.28-3,4.67-5.93,7.04-8.87.33-.41.69-.84,1.13-1.12,2.42-1.57,4.87-3.1,7.7-4.89-.97.12-1.57.11-2.11.27-1.5.44-2.98.97-4.47,1.42-2.23.67-4.49,1.24-6.7,1.95-4.06,1.31-7.33,3.76-10.06,7.04-1.96,2.37-3.81,4.77-4.57,7.82-.05.18-.18.42-.33.49-1.11.5-1.26,1.5-1.47,2.53-.28,1.32-.66,2.62-1.05,3.91-.97,3.17-1.96,6.33-2.96,9.49-.4,1.26-.6,2.47.22,3.51-2.05,2.15-.99,4.7-.99,7.13-1.24-.9-1.32-2.36-1.76-3.6-1.45-4.1-2.78-8.23-1.19-12.63.11-.31.16-.72.05-1.01-.19-.48-.54-.91-.83-1.38-1.42.85-1.79,2.04-2.29,3.17-.79,1.81-1.6,3.62-2.45,5.41-.54,1.13-.82,2.23-.79,3.53.13,5.9,1.71,11.36,4.82,16.33.97,1.55,2.2,3.09,3.66,4.16,2.6,1.91,5.47,3.46,8.22,5.18,1.49.93,2.96,1.89,4.43,2.85,1.02.67,1.99,1.44,3.06,2.04,1.57.88,3.32,1.48,4.81,2.47,4.02,2.68,8.56,4.01,13.14,5.25,1.31.35,2.72.38,4.09.41.78.02,1.93.11,2.11-.86.22-1.18-1.02-1.26-1.81-1.56-2.56-.96-5.16-1.83-7.7-2.84-3.79-1.51-7.82-4.26-10.28-7.44.5.11.96.09,1.26.3,2.99,2.09,6.46,2.9,9.91,3.68,1.49.34,3.08.47,4.61.4,6.24-.29,12.45-.99,18.71-.9,1.23.02,2.48-.12,3.69-.33,2.07-.36,4.12-.81,6.17-1.27,2.27-.51,4.55-1.02,6.78-1.66.88-.25,1.65-.87,2.46-1.32ZM325.69,276.27c-.88,0-1.8.27-2.4-.05-3.29-1.72-5.57-4.43-7.03-7.82-1.3-3.03-2.41-6.14-3.8-9.12-.95-2.04-2.09-4.04-3.43-5.85-1.23-1.67-2.38-1.46-3.91.48.93,1.57,1.87,3.24,2.87,4.87,1.79,2.93,3.48,5.89,4.59,9.19,1.28,3.83,1.67,7.79,1.89,11.75.12,2.07.08,4.25-1.21,6.16-.26.39-.13,1.21.09,1.72.64,1.49.28,2.57-.87,3.67-1.12,1.07-2.43,2.07-2.55,3.87-.02.3-.48.65-.82.82-.54.28-1.14.44-1.72.66-3.51,1.31-7.09,1.94-10.86,1.45-2.2-.28-4.4.03-6.5.81-2.49.93-3.81,2.4-3.58,4.88.15,1.63.31,3.3.83,4.84,1.08,3.2,2.74,6.13,4.78,8.84,1.32,1.75,2.62,3.55,3.68,5.47,1.35,2.44,2.86,4.85,2.86,7.82,0,.46.43.92.62,1.3,1.33-.07,1.89-.75,2.34-1.69.62-1.3,1.24-2.62,2.04-3.81,2.5-3.78,5.09-7.5,7.64-11.26.31-.45.59-.94.78-1.45.78-2.03-.47-3.77-2.62-3.65-.61.03-1.2.29-1.81.34-.63.05-1.27-.04-2.3-.09.45-1,.65-1.72,1.07-2.27.54-.7,1.21-1.33,1.91-1.87,5.74-4.39,11.44-8.81,16.38-14.13.7-.75,1.5-1.43,2.13-2.24,1.81-2.31,2.16-4.92,1.01-7.56-.69-1.59-1.34-3.14-1.61-4.85-.07-.45-.35-.87-.51-1.25ZM212.41,353.28c.01.1.03.2.04.29,2.19.52,4.46.84,6.56,1.6,2.83,1.02,5.52.87,8.27-.1,1.62-.57,3.21-1.51,4.85-1.62,1.72-.11,3.47.69,5.23.92,4.04.54,8.08.72,12.05-.55,3.08-.98,6.2-1.83,9.23-2.93,4.01-1.46,7.46-3.82,10.23-7.09,2-2.35,3.38-5.02,3.89-8.08.53-3.15-1.65-5.19-4.72-4.47-.4.09-.81.17-1.21.27-3.42.85-6.69,1.97-9.51,4.23-3.63,2.91-7.13,5.98-11.18,8.38-2.26,1.34-4.28,1.26-6.49.3-.55-.24-1.09-.5-1.72-.79-.52,2.03-1.89,3.21-3.57,3.88-2.34.94-4.76,1.75-7.21,2.35-4.26,1.04-8.58,1.88-12.87,2.82-.64.14-1.26.39-1.88.6ZM205.13,205.48c-.08.14-.17.28-.25.42,1.53,1.49,2.5,3.59,5.07,3.92.78.1,1.6.43,2.25.87,2.65,1.83,5.27,3.72,7.86,5.65,5.64,4.22,11.53,7.98,18.39,9.95,2.1.6,4.2,1.18,6.43,1.09,2.38-.1,4.33-1.06,5.83-2.85,1.25-1.49.98-3.47-.59-4.67-1.47-1.12-2.98-2.22-4.57-3.16-4.29-2.56-8.66-4.98-12.93-7.56-3.47-2.1-7.03-2.72-11.04-1.75-4.65,1.13-9.28.54-13.79-1.04-.88-.31-1.77-.58-2.65-.87ZM233.75,449.43c-.19-.74-.17-1.17-.37-1.34-1.08-.94-2.08-2.16-3.35-2.64-3.71-1.4-7.48-2.79-11.34-3.63-5.76-1.26-11.6-2.19-17.45-3-3.73-.52-7.53-.48-11.29-.85-7.15-.7-14.31-.44-21.47-.34-1.43.02-2.85.27-4.28.41.78.42,1.53.5,2.28.51,7.16.08,14.02,1.77,20.8,3.91,2.04.64,3.82,1.52,4.52,3.79.13.42.69.9,1.12.99,1.96.4,3.98.63,5.89-.15,2-.83,4.07-.75,6.1-.51,5.6.66,11.16,1.58,16.76,2.18,3.88.41,7.8.46,12.07.69ZM324.93,257.38c.42-3.81.21-7.02-1.3-10.11-1.56-3.2-2.69-6.64-5.21-9.29-2.32-2.44-4.66-4.86-7-7.27-.23-.24-.54-.42-.85-.56-4.55-2-8.93-1.2-13.57.77.39.27.54.42.72.49,2.83,1.05,5.67,2.08,8.49,3.15,5.44,2.06,9.48,5.66,11.91,10.99.54,1.18.97,2.41,1.49,3.6,1.27,2.9,3.15,5.4,5.32,8.23ZM232.68,334.9c.1.15.2.31.3.46.25-.06.53-.06.75-.17,2.01-1.04,4.01-2.09,6.01-3.14.35-.18.87-.58,1.04-.47.78.51,1.11-.05,1.55-.47.49-.48.95-1.01,1.51-1.4,2.85-1.99,4.11-5.11,5.64-8.01.88-1.66.5-3.37-.8-4.77-1.68-1.81-5.19-2.7-7.41-1.7-2.44,1.09-4.79,2.38-7.17,3.61-.61.32-1.32.73-1.07,1.55.26.83.63,1.75,1.72,1.78.74.02,1.5-.07,2.24-.17,1.75-.22,3.38-.65,5.23.09,1.96.79,1.96,2.09,1.47,3.43-.49,1.36-1.16,2.65-2.42,3.51-2.27,1.55-4.52,3.13-6.79,4.69-.59.41-1.2.79-1.81,1.18Z"/>
    <path class="cls-2" d="M173.72,329.76c-.64-.33-1.42-.52-1.88-1.01-5.68-5.99-11.4-11.94-16.92-18.08-2.52-2.8-4.62-5.98-5.7-9.7-.27-.92-.66-1.82-1.12-2.66-1.34-2.47-1.65-5.1-1.25-7.82.39-2.65.98-5.26,1.39-7.9.57-3.7,3-5.91,6.23-7.03,4.15-1.44,8.44-2.47,12.7-3.55,1.24-.31,2.6-.16,3.9-.24.47-.03.94-.08,1.28-.11.16-2.02.19-3.94.49-5.81.5-3.15,1.98-5.84,4.33-8.02,2.58-2.4,5.42-4.44,8.55-6.1,1.62-.86,3.21-.85,4.76-.11,5.58,2.67,10.6,6.08,14.44,11.06,2.5,3.25,4.2,6.91,5.58,10.74.15.42,0,.95-.01,1.85-3.57-3.39-7.43-3.93-11.61-3.21-2.23.38-3.86,1.78-5.38,3.26-3.49,3.39-5.39,7.55-5.58,12.43-.04.93.24,1.87.29,2.81.04.65-.02,1.31-.12,1.96-.17,1.15-.93,1.45-1.96,1.19-1.47-.36-2.92-.77-4.39-1.14-2.51-.63-4.97-.2-7.27.76-1.52.63-2.77,1.79-3.07,3.61-.03.2-.05.43-.15.6-1.72,2.88-.8,5.99-.91,9.04-.12,3.26,1.25,6.16,1.61,9.26.42,3.52,1.84,6.73,2.7,10.11.32,1.27.29,2.45-.93,3.8Z"/>
    <path class="cls-2" d="M300.26,173.87c1.26-.82,2.42-1.67,3.68-2.34.78-.42,1.03-1.01,1.21-1.77.6-2.46,1.68-4.61,3.7-6.26,1.29-1.05,2.61-1.22,4.02-.5,3.48,1.8,6.88,3.72,9.81,6.4,1.16,1.06,2.55,1.86,3.73,2.9,1.96,1.72,4.1,3.33,5.7,5.35,2.28,2.88,4.24,6.03,6.18,9.17,2.09,3.39,4.11,6.83,5.93,10.37,1.11,2.16,2.03,4.46,1.53,7.07-.14.72.28,1.59.57,2.34.54,1.41,1.2,2.78,1.77,4.18.28.7.55,1.42.69,2.16.07.33-.17.73-.27,1.1-.36-.1-.82-.09-1.06-.31-.45-.42-.82-.93-1.13-1.47-1.33-2.33-2.59-4.7-3.93-7.02-2.69-4.66-6.04-8.66-11.01-11.08-4.25-2.07-8.42-4.32-12.73-6.26-3.22-1.45-6.71-1.95-10.26-1.77-.96.05-1.92-.06-2.87.04-5.44.58-9.9,2.96-13.21,7.37-.32.43-.49.98-.75,1.46-.4.72-.72,1.5-1.24,2.12-1.15,1.39-2.46,1.2-3.22-.41-.26-.56-.52-1.13-.7-1.71-1.09-3.61-3.47-6.35-6-9-2.85-2.98-5.74-5.93-8.54-8.95-1.77-1.91-3.39-3.97-5.15-5.9-1.06-1.16-2.25-2.2-3.39-3.28-.3-.28-.65-.5-.95-.78-1.6-1.52-1.28-3.01.9-3.53,1.66-.4,3.39-.55,5.1-.69,3.56-.29,7.12-.52,10.68-.72,1.84-.11,3.53.51,5.11,1.38,2.7,1.49,5.45,2.93,8.04,4.61,2.77,1.79,5.38,3.82,8.06,5.74Z"/>
    <path class="cls-2" d="M193.55,387.63c-2.44-.3-4.88-.78-7.33-.85-4.67-.15-9.35-.18-14.01-.03-2.74.09-5.49.46-8.17.98-2.27.45-4.51,1.2-6.68,2.03-.95.36-1.7.35-2.51-.12-.77-.45-1.57-.87-2.29-1.39-1.72-1.26-3.67-1.87-5.76-1.92-4.05-.09-8.15-.46-12.15,0-5.98.68-11.94-.2-17.89.24-2.05.15-4.11.3-6.16.44-.74.05-1.49.09-2.3-.14,2.02-.8,4.05-1.58,6.06-2.39,3.54-1.42,7.32-1.8,10.99-2.62,1.66-.37,3.27-.98,4.88-1.53.88-.3,1.22-.86,1.03-1.92-.25-1.36.14-1.74,1.63-1.94,1.7-.23,3.41-.4,5.12-.56,5.27-.5,10.53-1.28,15.81-1.38,3.53-.07,7.11.64,10.6,1.35,5.24,1.07,10.47,2.31,15.62,3.76,2.07.58,3.93,1.9,5.88,2.91,2.25,1.17,4.49,2.35,6.71,3.57.48.26.85.72,1.27,1.08l-.33.44Z"/>
    <path class="cls-2" d="M280.34,441.96c-2.06-1.13-3.95-2.24-5.91-3.21-2.58-1.29-5.29-2.31-7.78-3.74-2.91-1.67-5.65-3.63-8.43-5.51-.39-.27-.88-.93-.79-1.24.15-.49.69-1.07,1.19-1.21,2.59-.74,5.24-1.15,7.95-.97.4.03.83.12,1.19.28,4.81,2.17,9.79,4.04,14.36,6.63,4.21,2.39,8.59,4.59,12.37,7.71,1.06.87,2.02,1.86,3.08,2.73.95.78,1.59,1.99,3.18,1.93.56-.02,1.35.76,1.71,1.37,1.99,3.37,5.16,5.66,7.68,8.54,4.05,4.62,7.55,9.57,9.15,15.63.15.58.19,1.19-.04,2.02-.4-.38-.82-.74-1.18-1.15-4.51-5.1-9.02-10.19-13.51-15.31-1.76-2-3.35-4.15-5.17-6.1-4.08-4.37-9.02-7.61-14.24-10.42-2.3-1.24-3.42-.76-4.78,2.02Z"/>
    <path class="cls-2" d="M161.12,1.51c1.28,1.16.88,2.14.55,3.13-.54,1.62-1.05,3.26-1.53,4.9-.09.3-.01.65-.01,1.16,3.23.41,6.69-.51,9.63,1.79-.36.21-.62.43-.91.52-4.12,1.27-7.71,3.62-11.38,5.77-2.93,1.72-5.44,3.92-7.42,6.74-1.36,1.93-2.16,3.97-2.16,6.32,0,1.31.09,2.62.03,3.92-.02.37-.42.73-.65,1.09-.31-.22-.74-.37-.9-.67-.41-.79-.62-1.68-1.04-2.46-1.05-2-2.17-3.97-3.27-5.95-.43-.78-.94-1.52-1.28-2.34-.54-1.3-.35-2.48.55-3.66,5.16-6.74,10.87-12.95,17.29-18.5.76-.65,1.64-1.17,2.49-1.77Z"/>
    <path class="cls-2" d="M350.17,262.96c.21-.49.37-1,.62-1.46,1.58-2.98,1.67-6.11.61-9.2-.8-2.36-1.05-4.73-.59-7.12.55-2.91-.11-5.42-1.76-7.79-1.28-1.82-2.51-3.75-2.1-6.08.34-1.94.91-3.87,1.65-5.7.66-1.62,2.18-1.99,3.56-.94,2.68,2.03,5.28,4.17,7.87,6.33,1.27,1.06,1.01,2.58.79,3.98-.13.87-.39,1.76-.79,2.55-1.36,2.66-1.88,5.54-2.49,8.42-.73,3.48-1.45,7-2.64,10.34-.84,2.35-2.47,4.41-3.77,6.59-.11.19-.43.25-.65.37-.1-.09-.2-.19-.31-.28Z"/>
    <path class="cls-2" d="M161.32,105.91c.6,1.09-.04,1.71-.53,2.36-.82,1.1-1.74,2.13-2.47,3.29-1.15,1.82-1.25,3.89-1.01,5.95.33,2.77,1.27,5.39,3.21,7.41,1.16,1.21,1.05,2.34.69,3.86-2.31-1.1-4.52-2.13-6.72-3.2-.91-.44-1.29-1.24-1.68-2.19-1.92-4.68-1.06-9.04,1.36-13.21.45-.77,1.27-1.42,2.05-1.9,1.57-.96,3.08-2.1,5.09-2.35Z"/>
    <path class="cls-2" d="M237.13,58.43c2.09.26,4.04,1.05,5.86,2.09,3.5,1.99,5.67,5.11,7.01,8.85.51,1.43.16,2.41-.88,2.45-.61.02-1.37-.3-1.82-.73-1.29-1.22-2.53-2.52-3.65-3.89-1.12-1.38-2.02-2.93-3.14-4.32-.81-1.01-1.8-1.88-2.72-2.8-.42-.42-1.1-.69-.66-1.64Z"/>
    <path class="cls-1" d="M211.6,331.21c-2.1-1.16-3.91-2.13-5.7-3.15-1.81-1.03-3.38-2.31-4.52-4.13-.69-1.11-1.08-2.23-.99-3.5.18-2.62.86-5.12,1.95-7.5.94-2.06,1.9-4.11,2.98-6.1.67-1.24,1.4-2.56,2.42-3.5,2.65-2.41,5.56-4.47,8.96-5.78,3.39-1.31,5.34-3.94,5.42-7.54.08-3.8,1.77-6.39,5-8.12,1.59-.85,2.89-2,4.25-3.17,2.11-1.83,4.59-3.25,6.89-4.87,1.56-1.1,3.09-2.24,4.62-3.39.32-.24.52-.69.87-.86.5-.25,1.18-.58,1.62-.42.84.31.91,1.19.62,1.94-.39,1.02-.92,1.99-1.39,2.99-.18.37-.34.75-.64,1.38,1.78-.75,2.9-2.03,4.13-3.09,3.61-3.11,6.68-6.69,9.23-10.72,1.56-2.47,1.93-5.3,2.07-8.1.11-2.11-.25-4.26-.59-6.36-.48-3.01-1.45-5.87-3.21-8.41-.58-.84-1.05-1.68.34-2.42,3.05,2.55,5.93,5.21,7.86,8.8,3.22,5.99,4.51,12.43,4.14,19.11-.39,7.17-3.42,13.38-8.1,18.79-5.33,6.16-12.09,10.11-19.7,12.7-3.84,1.31-7.73,2.45-11.6,3.66-.13.04-.27.07-.4.11-3.14,1.11-6.11,2.38-6.38,6.64.26.28.78.8,1.26,1.35,1.26,1.45,1.32,2.38.04,3.79-.92,1.01-2,1.89-3.02,2.81-1.47,1.34-3.12,2.49-4.16,4.25.17,1.2.82,1.98,1.78,2.67,1.06.76,1.97,1.72,2.95,2.58.97.85,2.06,1.33,3.39,1.26.75-.04,1.52.03,2.26.16,2,.34,2.65,1.89,1.65,3.62-4.14,7.14-10.25,11.86-17.79,15.04-5.64,2.38-11.56,3.5-17.48,4.71-3.36.69-6.67,1.63-9.99,2.53-4.94,1.34-10,1.89-15.08,2.22-1.9.12-3.83-.3-5.74-.42-1.08-.07-2.17-.01-3.3-.33,1.33-.22,2.66-.39,3.98-.68,7.23-1.56,14.56-2.73,21.66-4.88,1.18-.36,2.42-.56,3.64-.7,3.13-.36,5.95-1.54,8.71-3.01,4.96-2.64,9.39-5.97,13.47-9.79.58-.54.96-1.29,1.63-2.21Z"/>
    <path class="cls-1" d="M93.01,107.32c-.77,1.44-1.46,2.67-2.08,3.93-.97,1.97-2.08,3.89-2.76,5.96-.49,1.51-.48,3.22-.52,4.85-.06,2.25.21,4.48-.34,6.74-.86,3.54.62,6.45,3.07,8.93,1.21,1.22,2.53,2.33,3.7,3.59,1.21,1.3,2.61,2.57,3.35,4.12,1.89,3.95,4.98,6.84,7.91,9.93,2.5,2.63,5.29,5.06,6.96,8.39.06.12.08.26.18.54-1.87,2.4-3.52,5.09-6.04,7.08-1.74,1.38-3.61,1.76-5.81,1.29-4.44-.95-8.22-3.21-11.54-6.11-2.62-2.3-4.82-5.08-7.15-7.7-.63-.71-1.08-1.59-1.57-2.42-.66-1.12-.96-2.21,0-3.42.36-.45.55-1.43.3-1.85-.25-.41-1.23-.68-1.78-.55-1.52.36-3.06.8-4.44,1.5-2.7,1.37-2.77,1.5-4.55-.91-2.21-2.99-4.29-6.06-6.37-9.14-.45-.67-.75-1.46-.98-2.24-1.75-5.84-1.36-11.47,1.42-16.99,1.25-2.49,1.93-5.27,2.84-7.92.2-.58.35-1.19.46-1.79.36-1.96,1.58-2.91,3.48-3.21,2.51-.41,5.01-.89,7.51-1.34,1.08-.2,2.15-.49,3.24-.59,1.41-.13,2.85-.04,4.26-.16,2.05-.17,4.09-.44,6.14-.65.25-.03.5.05,1.09.12Z"/>
    <path class="cls-1" d="M108.32,443.56c-.82.45-1.59,1.07-2.46,1.32-2.24.64-4.51,1.15-6.78,1.66-2.05.46-4.1.91-6.17,1.27-1.21.21-2.46.35-3.69.33-6.26-.1-12.47.6-18.71.9-1.53.07-3.11-.06-4.61-.4-3.45-.78-6.92-1.59-9.91-3.68-.3-.21-.76-.19-1.26-.3,2.46,3.18,6.49,5.93,10.28,7.44,2.54,1.01,5.14,1.88,7.7,2.84.8.3,2.03.38,1.81,1.56-.18.97-1.33.88-2.11.86-1.37-.03-2.79-.06-4.09-.41-4.57-1.24-9.11-2.57-13.14-5.25-1.49-.99-3.23-1.59-4.81-2.47-1.07-.59-2.03-1.37-3.06-2.04-1.47-.96-2.94-1.92-4.43-2.85-2.75-1.72-5.62-3.26-8.22-5.18-1.46-1.07-2.69-2.6-3.66-4.16-3.11-4.97-4.69-10.43-4.82-16.33-.03-1.3.25-2.41.79-3.53.85-1.79,1.66-3.6,2.45-5.41.49-1.13.87-2.33,2.29-3.17.3.48.64.9.83,1.38.11.29.06.7-.05,1.01-1.59,4.4-.26,8.54,1.19,12.63.44,1.24.52,2.7,1.76,3.6,0-2.43-1.06-4.97.99-7.13-.81-1.03-.61-2.25-.22-3.51,1-3.16,1.99-6.32,2.96-9.49.39-1.29.77-2.59,1.05-3.91.22-1.03.36-2.04,1.47-2.53.15-.07.29-.3.33-.49.76-3.06,2.61-5.45,4.57-7.82,2.72-3.28,5.99-5.73,10.06-7.04,2.21-.71,4.47-1.28,6.7-1.95,1.5-.45,2.97-.98,4.47-1.42.55-.16,1.14-.15,2.11-.27-2.83,1.79-5.28,3.32-7.7,4.89-.44.28-.8.71-1.13,1.12-2.36,2.95-4.75,5.87-7.04,8.87-1.11,1.47-2.05,3.07-3,4.66-.23.38-.28.93-.24,1.38.31,4.08-.58,8.05-1,12.06-.15,1.5-.34,3-.31,4.5.07,3.76.02,7.54,1.29,11.16.64,1.84,1.93,3.23,3.44,4.24,3.34,2.23,6.75,4.36,10.39,6.12,2.4,1.17,5.01,1.21,7.49,1.86,1.44.38,2.98.52,4.33,1.11,2.75,1.2,5.66,1.55,8.56,1.99.91.14,1.89-.21,2.84-.22,3.37-.04,6.74.06,10.11-.05,2.86-.1,5.72-.42,8.58-.61.55-.04,1.11.1,1.67.15.02.23.04.45.06.68Z"/>
    <path class="cls-1" d="M325.69,276.27c.16.38.44.8.51,1.25.27,1.71.92,3.27,1.61,4.85,1.15,2.65.79,5.26-1.01,7.56-.63.81-1.43,1.48-2.13,2.24-4.94,5.32-10.64,9.74-16.38,14.13-.71.54-1.37,1.17-1.91,1.87-.42.55-.61,1.27-1.07,2.27,1.03.05,1.67.14,2.3.09.61-.04,1.2-.3,1.81-.34,2.15-.12,3.39,1.62,2.62,3.65-.2.51-.47,1-.78,1.45-2.54,3.75-5.13,7.48-7.64,11.26-.79,1.2-1.42,2.51-2.04,3.81-.44.94-1,1.62-2.34,1.69-.19-.39-.62-.84-.62-1.3,0-2.97-1.52-5.39-2.86-7.82-1.06-1.92-2.36-3.72-3.68-5.47-2.05-2.71-3.7-5.64-4.78-8.84-.52-1.53-.68-3.21-.83-4.84-.23-2.48,1.09-3.95,3.58-4.88,2.1-.78,4.29-1.1,6.5-.81,3.77.49,7.35-.14,10.86-1.45.58-.21,1.18-.37,1.72-.66.34-.18.8-.53.82-.82.12-1.79,1.43-2.8,2.55-3.87,1.15-1.1,1.51-2.18.87-3.67-.22-.51-.35-1.34-.09-1.72,1.29-1.91,1.32-4.09,1.21-6.16-.22-3.96-.61-7.92-1.89-11.75-1.1-3.3-2.8-6.26-4.59-9.19-1-1.63-1.95-3.3-2.87-4.87,1.53-1.94,2.67-2.15,3.91-.48,1.34,1.81,2.48,3.8,3.43,5.85,1.39,2.98,2.5,6.1,3.8,9.12,1.45,3.39,3.74,6.1,7.03,7.82.61.32,1.52.05,2.4.05Z"/>
    <path class="cls-1" d="M212.41,353.28c.63-.2,1.24-.46,1.88-.6,4.29-.94,8.6-1.78,12.87-2.82,2.45-.6,4.87-1.41,7.21-2.35,1.67-.67,3.05-1.85,3.57-3.88.64.29,1.18.55,1.72.79,2.21.97,4.23,1.04,6.49-.3,4.05-2.39,7.55-5.46,11.18-8.38,2.82-2.27,6.09-3.39,9.51-4.23.4-.1.81-.17,1.21-.27,3.06-.71,5.25,1.32,4.72,4.47-.51,3.06-1.89,5.73-3.89,8.08-2.78,3.26-6.23,5.63-10.23,7.09-3.03,1.1-6.16,1.95-9.23,2.93-3.97,1.27-8.01,1.09-12.05.55-1.76-.23-3.51-1.03-5.23-.92-1.64.1-3.23,1.05-4.85,1.62-2.74.97-5.44,1.12-8.27.1-2.11-.76-4.37-1.08-6.56-1.6-.01-.1-.03-.2-.04-.29Z"/>
    <path class="cls-1" d="M205.13,205.48c.89.29,1.78.56,2.65.87,4.51,1.58,9.14,2.17,13.79,1.04,4-.97,7.57-.35,11.04,1.75,4.27,2.58,8.65,5,12.93,7.56,1.59.95,3.09,2.04,4.57,3.16,1.57,1.2,1.85,3.17.59,4.67-1.5,1.78-3.45,2.75-5.83,2.85-2.23.09-4.33-.49-6.43-1.09-6.86-1.97-12.75-5.72-18.39-9.95-2.58-1.93-5.2-3.82-7.86-5.65-.65-.45-1.47-.77-2.25-.87-2.57-.33-3.54-2.43-5.07-3.92.08-.14.17-.28.25-.42Z"/>
    <path class="cls-1" d="M233.75,449.43c-4.27-.23-8.19-.28-12.07-.69-5.6-.6-11.17-1.52-16.76-2.18-2.03-.24-4.09-.32-6.1.51-1.91.79-3.93.56-5.89.15-.43-.09-.99-.57-1.12-.99-.7-2.27-2.48-3.15-4.52-3.79-6.78-2.13-13.63-3.82-20.8-3.91-.75,0-1.5-.08-2.28-.51,1.43-.14,2.85-.39,4.28-.41,7.16-.09,14.32-.36,21.47.34,3.76.37,7.56.33,11.29.85,5.84.81,11.69,1.74,17.45,3,3.86.85,7.63,2.24,11.34,3.63,1.27.48,2.27,1.7,3.35,2.64.2.17.18.6.37,1.34Z"/>
    <path class="cls-1" d="M324.93,257.38c-2.17-2.83-4.05-5.33-5.32-8.23-.52-1.19-.95-2.42-1.49-3.6-2.43-5.33-6.46-8.93-11.91-10.99-2.82-1.07-5.66-2.09-8.49-3.15-.18-.07-.33-.22-.72-.49,4.63-1.98,9.01-2.77,13.57-.77.31.13.62.32.85.56,2.34,2.41,4.68,4.83,7,7.27,2.53,2.65,3.65,6.09,5.21,9.29,1.51,3.09,1.72,6.3,1.3,10.11Z"/>
    <path class="cls-1" d="M232.68,334.9c.6-.39,1.21-.77,1.81-1.18,2.27-1.56,4.52-3.14,6.79-4.69,1.26-.86,1.93-2.15,2.42-3.51.49-1.34.49-2.64-1.47-3.43-1.85-.74-3.49-.31-5.23-.09-.74.09-1.5.19-2.24.17-1.1-.04-1.46-.95-1.72-1.78-.26-.83.45-1.24,1.07-1.55,2.38-1.23,4.73-2.52,7.17-3.61,2.22-.99,5.72-.11,7.41,1.7,1.3,1.4,1.68,3.12.8,4.77-1.53,2.89-2.79,6.02-5.64,8.01-.56.39-1.02.92-1.51,1.4-.43.42-.77.98-1.55.47-.17-.11-.69.29-1.04.47-2,1.05-4,2.1-6.01,3.14-.22.11-.5.12-.75.17-.1-.15-.2-.31-.3-.46Z"/>
  </g>
  <path class="cls-2" d="M-255.92,105.19"/>
</svg>