<?xml version="1.0" encoding="UTF-8"?>
<svg id="Layer_1" data-name="Layer 1" xmlns="http://www.w3.org/2000/svg" version="1.1" viewBox="0 0 429 387">
  <defs>
    <style>
      .cls-1 {
        fill: #a515ff;
        stroke-width: 0px;
      }
    </style>
  </defs>
  <g id="FIRE_02" data-name="FIRE 02">
    <path class="cls-1" d="M398.04,130.49c-1.92,2.74-1.08,4.91.43,7.01.21.3.38.64.63.9,2.35,2.43,3.22,5.5,3.87,8.7.45,2.22,1.02,4.42,1.62,6.61.76,2.77.78,5.44-.23,8.19-.52,1.41-.61,3-.81,4.51-1.02,7.7-2.14,15.38-2.95,23.1-.33,3.18,0,6.44.04,9.66,0,.36,0,.71-.36,1.2-.24-.52-.5-1.03-.71-1.56-1.2-3.07-2.41-6.14-3.57-9.22-.31-.81-.51-1.67-.69-2.53-.38-1.86-.55-3.79-1.1-5.6-1.32-4.37-1.44-8.83-1.13-13.29.32-4.54.39-9.07.22-13.61-.07-1.93-.79-3.36-2.15-4.59-3.86-3.5-7.73-6.98-11.57-10.5-3.34-3.06-7.23-5.25-11.3-7.1-5.94-2.69-11.94-5.23-17.91-7.84-1.14-.5-2.26-1.04-3.11-1.43-1.14-2.8-1.88-5.55-3.3-7.88-2.02-3.32-3.87-6.67-5.34-10.28-1.29-3.18-3.03-6.18-4.47-9.3-1.12-2.42-1.04-3.01.24-5.44-1.04-1.65-2.73-2.58-4.43-3.38-2.38-1.13-4.84-2.1-7.3-3.05-1.71-.66-2.06-.88-1.96-2.66.07-1.22-.4-1.97-1.33-2.55-.99-.61-1.95-1.38-3.04-1.73-2.92-.94-5.9-1.69-8.87-2.49-.4-.11-.85-.01-1.54-.01.57,1.41,1.05,2.67,1.58,3.9.93,2.15,1.84,4.31,2.87,6.42.29.61.86,1.17,1.45,1.53,4.99,3.09,10.02,6.1,15,9.21.97.6,1.88,1.43,2.53,2.35.45.64.62,1.65.53,2.45-.53,4.8.76,9.3,2.07,13.8.14.48.42.94.71,1.36,3.63,5.34,7.15,10.76,10.95,15.98,2.71,3.73,5.77,7.21,8.72,10.76,2.9,3.49,5.84,6.96,8.83,10.38,1.87,2.15,3.89,4.18,5.78,6.32.41.46.59,1.16.77,1.79,2.59,9.01,5.18,18.03,7.74,27.05.22.78.29,1.61.42,2.42l-.5.28c-.47-.38-.98-.72-1.41-1.14-3.15-3.19-6.31-6.37-9.4-9.61-2.69-2.82-5.95-4.74-9.49-6.24-.14-.06-.26-.15-.4-.18-3.45-.74-5.64-3-7.56-5.82-1.6-2.35-3.54-4.48-5.42-6.63-1.27-1.44-1.95-3-2.09-4.94-.22-2.99-.58-5.98-1.08-8.93-.16-.94-.85-1.84-1.45-2.64-2.54-3.41-5.21-6.73-7.7-10.17-2.81-3.89-6.16-7.27-9.6-10.57-1.8-1.73-3.62-3.44-5.39-5.19-.98-.97-1.07-2.1-.08-3.08,1.48-1.48,1.74-3.08,1.15-5.03-.42-1.4-.67-2.86-.85-4.31-.43-3.4-1.87-6.36-4.19-8.77-2.81-2.92-6.17-5.17-9.82-6.95-.52-.25-1.12-.37-1.63-.63-4.22-2.16-8.4-1.6-12.44.39-3.74,1.85-7.4,3.87-11.06,5.88-.94.52-1.94.73-2.52-.13-1.76-2.59-4.49-3.98-6.87-5.78-5.79-4.37-11.66-8.64-17.57-12.83-2.86-2.03-5.9-3.82-8.87-5.71-1.24-.79-2.63-1.38-3.72-2.33-3.7-3.22-8.14-4.19-12.81-4.33-2.97-.09-5.96.19-9.08.32.67-1.36,1.99-1.82,3.22-2.35,4.38-1.91,8.92-3.29,13.63-4.13,1.44-.26,2.86-.62,4.31-.85,3.74-.6,7.14.65,10.38,2.22,3.88,1.87,7.59,4.08,11.4,6.1.62.33,1.38.48,2.09.56,2.11.22,4.23.36,6.34.52.27.02.54-.05.75-.08.07-.2.13-.29.11-.33-1.59-3.4-3.92-6.17-7.19-8.02-2.36-1.33-4.9-2.35-7.21-3.75-4.05-2.46-8.43-4.08-12.86-5.64-2.9-1.02-5.78-2.11-8.67-3.16-4.17-1.52-8.56-1.92-12.89-2.65-.72-.12-1.45-.33-2.17-.33-1.52,0-3.1-.11-4.56.22-8.01,1.77-16,3.62-23.97,5.53-1.89.46-3.66.02-5.44-.29-2.3-.39-4.48-.25-6.71.49-3.4,1.13-6.95,1.85-10.27,3.19-5.98,2.41-11.82,5.14-17.72,7.74-1.67.74-3.36,1.45-5.02,2.23-5.17,2.44-10.33,4.88-15.47,7.37-1.05.51-2.03,1.16-3.02,1.79-3.52,2.25-6.99,4.58-10.56,6.76-4.16,2.55-7.67,5.89-11.37,9.02-6.51,5.52-12.62,11.43-17.87,18.18-.27.35-.57.67-.87.99-3.58,3.69-7.15,7.38-9.1,12.54-.5-.5-.86-.82-1.18-1.18-1.35-1.53-2.75-1.78-4.45-.69-3.15,2.02-5.62,4.7-7.52,7.9-4.52,7.61-7.71,15.81-10.48,24.18-.53,1.6-1.14,3.19-1.48,4.83-.18.86-.1,1.95.29,2.71,1.22,2.35,2.17,4.8,3.23,7.21,1.59,3.61,3.64,7.02,5.52,10.51,1.08,2,2.19,3.97,3.3,5.95.97,1.72,2.03,3.4,2.95,5.15,1.89,3.56,3.9,7.07,5.53,10.75,1.73,3.89,4.55,6.99,6.91,10.42,1.21,1.75,2.37,3.53,3.55,5.3.68,1.01.96,2.06.69,3.32-.66,3.07-.33,6.13.31,9.16.57,2.71.57,5.52,1.66,8.14,1.22,2.91,2.84,5.31,5.69,6.98,2.99,1.75,6.18,2.19,9.48,2.36,1.34.07,2.43.36,3.06,1.66,1.81,3.74,6.27,5.25,9.95,3.31,1.29-.68,2.54-1.48,3.74-2.31.71-.49,1.27-.56,1.98-.03,1.11.84,2.2,1.75,3.42,2.4,2.84,1.51,5.76,2.87,8.65,4.29.44.22.99.36,1.27.71,2.83,3.59,6.26,6.58,9.71,9.52,2.01,1.71,4.2,3.2,6.29,4.82.97.76,1.88,1.61,2.89,2.49-.73,1.86-1.42,3.61-2.09,5.36-.18.47-.37.97-.43,1.46-.74,6.44.67,12.36,4.37,17.7,1.69,2.44,4.23,3.57,6.99,4.23,2.7.64,5.37.5,7.92-.7,2.32-1.09,4.69-2.09,6.89-3.37,2.16-1.26,3.46-3.34,4.26-5.69.23-.68.45-1.48.31-2.15-.36-1.68.35-2.67,2-3.41,2.06,1.35,4.44,2.43,7.11,2.7.95.1,1.9.3,2.84.27,3.9-.14,7.75.28,11.59.93,3.83.65,7.68,1.14,11.53,1.63,4.02.51,7.18,2.41,9.49,5.72,1.3,1.86,2.46,3.67,2.57,6.16.12,2.83,3.47,5.04,6.84,4.99.95-.01,1.89-.12,2.7-.18,3.86,6.52,5.24,13.9,8.42,20.85,1.68-1.8,3.51-3.03,4.15-5.41.65-2.39,1.77-4.65,2.55-7,.94-2.84.66-5.62-.66-8.32-2.17-4.45-4.81-8.57-8.12-12.25-.29-.33-.55-.69-.88-.99-1.58-1.46-1.76-3-1.11-5.14,1.76-5.79.17-10.08-4.59-14.06-2.54-2.12-5.06-4.19-7.39-6.55-1.5-1.52-3.56-2.55-5.49-3.56-2.88-1.5-5.87-2.8-8.97-4.25,1.17-.65,2.16-.09,2.93.36,3.5,2.03,7.27,3.45,10.96,5.08,2.24.99,4.2,2.63,6.23,4.07,1.31.93,2.52,2.01,3.77,3.03,2.03,1.65,4.31,2.68,6.9,3.17,1.34.26,2.63.91,3.88,1.51,1.79.86,1.9,1.53,1.78,3.52-.19,3.14-.25,6.3-.11,9.45.04.89.9,1.78,1.47,2.61,3.69,5.29,7.55,10.46,11.04,15.88,1.81,2.81,2.98,6.04,4.41,9.1.17.37.11.85.15,1.24-5.37,3.14-10.68,6.21-15.93,9.38-.89.54-1.67,1.46-2.21,2.37-1.48,2.53-2.85,5.12-4.17,7.74-.59,1.16-.95,2.44-1.52,3.96-4.83-.21-9.06,1.74-12.64,5.02-5.99-5.12-13.79-4.38-19.07-1.65-3.19,1.65-5.98,3.69-8.22,6.47-1.26,1.57-3.08,2.16-4.79,2.97-.59.28-1.23.51-1.76.88-2.87,2-6.01,2.31-9.43,1.98-3.05-.3-6.15-.01-9.22-.04-1.96-.01-3.96.11-5.88-.23-8.95-1.56-17.87-3.26-26.81-4.89-4.11-.75-8.22-1.47-12.34-2.18-1.11-.19-2.04-.62-2.92-1.38-2.63-2.24-5.34-4.37-8.02-6.54-1.3-1.06-2.56-1.95-4.46-1.97-1.79-.01-3.55-.88-5.35-1.13-3.84-.53-7.71-.89-11.56-1.35-2.18-.26-4.36-.56-6.53-.86-1.18-.16-1.93-.78-2.51-1.88-1.9-3.64-3.89-7.23-5.92-10.8-.76-1.34-1.83-2.5-2.55-3.85-.87-1.63-2.24-2.23-3.91-2.34-1.39-.09-2.79-.08-4.18-.1-.87-.01-1.74,0-2.66,0-2.07-6.1-6.92-8.75-12.49-10.51-1.74-.55-3.53-.98-5.74-1.59,1.27-.38,2.14-.73,3.03-.89,3.87-.68,7.11-2.64,10.19-4.92,1.35-1,2.67-2.05,4.01-3.06,2.74-2.07,3.96-5.98,2.89-9.25-.63-1.94-1.44-3.8-2.03-5.77-.5-1.66-1.91-3.09-3.07-4.5-4.14-5.03-9.11-9.14-14.73-12.4-2.46-1.42-5.12-2.54-7.8-3.52-1.55-.57-3.3-.8-4.96-.8-2.69,0-5.44-.51-8.08.42-.89.31-1.73.76-2.58,1.19-1.29.65-2.56,1.34-4.03,2.12-.24-.38-.43-.61-.54-.87-2.48-5.79-5.25-11.51-6.1-17.83-.58-4.35-1.07-8.74-1.21-13.13-.18-5.4.12-10.81.02-16.22-.04-2.45.97-4.58,1.51-6.84,1.1-4.63,2.44-9.2,3.53-13.84.59-2.48,1.8-4.64,3.07-6.77,1.3-2.19.16-5.15-2.34-5.5-1.21-.17-2.46-.13-3.91-.2-.74-1.79-.76-3.89-.74-5.86.04-4.55.38-9.12,2.51-13.28,1.33-2.61,2.87-5.11,4.3-7.66.9-1.6,1.8-3.19,2.66-4.81,1.91-3.63,3.9-7.22,5.66-10.93,2.22-4.67,4.23-9.44,6.33-14.17.15-.33.24-.7.43-1.01,5.73-9.21,10.84-18.84,17.92-27.16,3.53-4.15,6.17-8.91,9.43-13.24,6.52-8.68,12.84-17.52,19.84-25.83,3.83-4.54,7.55-9.18,11.38-13.71,1.51-1.79,3.21-3.43,4.83-5.12,1.44-1.5,3.05-2.54,5.16-3.07,4.9-1.24,9.68-2.93,14.57-4.21,6.02-1.58,12.1-2.91,18.14-4.38,2.21-.54,4.38-1.21,6.58-1.78,5.46-1.42,11-1.27,16.57-.93,4.41.27,8.71,1.16,13.04,1.91,4.91.85,9.83,1.63,14.71,2.59,3.52.69,7,1.58,10.49,2.42,4.5,1.09,9.06,1.84,13.69,2,7.5.25,14.85,1.62,22.14,3.27,2.39.54,4.68,1.68,6.93,2.72,3.52,1.63,6.96,3.43,10.44,5.13.44.21.96.36,1.44.36,7.76.03,15.28,1.66,22.81,3.26,5.44,1.16,10.86,2.4,16.27,3.69,1.19.28,2.34.82,3.44,1.39,1.91.99,3.86,1.72,6.05,1.84,1.45.08,2.88.53,4.32.76,3.11.48,6.23.88,9.34,1.41,3.54.6,7.08,1.24,10.59,1.96,1.62.33,3.06.98,3.33,2.98.06.48.6,1.02,1.05,1.32,3.31,2.2,5,5.41,6.04,9.13.49,1.74,1.42,3.36,2.08,5.06,1.14,2.93,2.37,5.84,3.29,8.85,1.43,4.65,3.89,8.81,5.82,13.22,2.57,5.84,7.29,9.45,12.47,12.63,5.69,3.49,11.39,6.95,17.14,10.32,3.22,1.88,6.53,3.62,9.87,5.3,1.29.65,2.76.96,4.14,1.44.88.31,1.74.66,2.92,1.12ZM110.38,282.36c-.74-.2-1.28-.39-1.83-.47-.94-.15-1.9-.19-2.84-.34-2.31-.36-2.57-.63-3.12-2.99-.07-.29-.13-.57-.2-.86-1.16-4.91-3.1-9.48-5.96-13.64-.57-.83-1.34-1.57-2.16-2.16-.96-.7-1.99-1.05-3.27-.37-.79.42-1.85.48-2.78.48-3.02,0-5.73-1.08-8.29-2.6-.61-.36-1.28-.77-1.95-.84-2.86-.31-3.64-.93-4.31-3.72-.53-2.2-1.13-4.35-2.2-6.4-.88-1.68-1.88-2.84-3.81-3.29-1.85-.43-3.25-1.48-3.81-3.53-.42-1.55-1.13-3.03-1.84-4.48-1.1-2.23-1.49-4.58-1.59-7.03-.27-6.24-.6-12.47-.86-18.7-.11-2.6-.51-5.09-1.74-7.42-.92-1.75-1.72-3.57-2.61-5.34-.21-.42-.52-.78-1-1.48-.85,3.27-1.61,6.18-2.5,9.58-2.5-3.01-4.71-5.55-6.77-8.21-.73-.95-1.27-2.15-1.56-3.32-.88-3.64-1.59-7.31-2.39-10.97-.15-.71-.38-1.41-.57-2.11-.29.89-.38,1.7-.27,2.49.2,1.53.02,2.87-1.02,4.12-.48.58-.68,1.46-.85,2.24-.85,3.76-.9,7.52-.27,11.35,1.56,9.44,4.18,18.61,6.67,27.82,1.23,4.57,3.24,8.79,6.81,12.14,1.82,1.71,3.66,3.12,6.31,3.16,1.52.02,2.6.9,3.23,2.29.21.47.38.96.6,1.42.62,1.32,1.43,2.32,3.07,2.51.61.07,1.25.67,1.7,1.18.76.89,1.19,2.15,2.09,2.81,1.9,1.38,3,3.38,4.48,5.08.99,1.15,2.06,2.45,3.38,3.05,3,1.36,5.38,3.54,7.99,5.42.32.23.55.67.67,1.05,1.15,3.64,2.16,7.32,3.42,10.92,2.07,5.88,4.28,11.71,6.47,17.55.25.67.72,1.28,1.18,1.84,2.89,3.52,5.79,7.03,8.71,10.53.47.56.98,1.1,1.55,1.55,7.5,5.92,15.31,11.41,23.48,16.39.62.38,1.29.71,1.95,1.01,8.02,3.64,16.06,7.22,24.05,10.94,1.96.91,3.87,1.16,5.96.93,5.47-.61,10.94-1.23,16.43-1.71,2.58-.23,4.77-.89,6.48-3.05.99-1.25,1.8-2.37,1.94-4.03.25-3.02,1.4-5.66,3.78-7.71.94-.81,1.68-1.84,2.51-2.77,4.62-5.16,10.36-8.51,16.32-10.39,2.01.97,3.45,1.9,5.02,2.33.96.26,1.72.57,2.48,1.18,2.64,2.11,5.33,4.14,8.01,6.19.24.18.57.23.86.34-.91-1.98-1.97-3.73-3.19-5.35-.96-1.28-2.02-2.53-3.24-3.56-1.55-1.3-2.85-2.74-3.85-4.48-.28-.5-.56-1.12-1.01-1.36-.41-.22-1.06.02-1.75.06.17-.83.34-1.53.45-2.24.12-.72.22-1.46.25-2.19.08-1.81-.48-2.76-2.17-3.39-1.01-.37-2.11-.59-3.19-.69-3.72-.35-7.46-.59-11.18-.94-1.82-.17-3.63-.48-5.45-.73-1.67-.22-3.38-.29-5-.71-1.34-.35-2.22-.05-3.1.92-3.45,3.82-6.85,7.67-8.91,12.48-.7,1.64-1.68,3.01-3.13,4.16-2.29,1.81-4.44,3.81-6.58,5.8-2.13,1.97-4.44,2.89-7.42,2.25-2.65-.57-5.36-.85-8.06-1.13-1.03-.11-1.79-.5-2.51-1.18-2.14-2.02-4.36-3.94-6.44-6.02-1.18-1.18-2.14-2.58-3.16-3.9-.46-.59-.84-1.25-1.46-2.18-.58,2.91-.93,5.37-1.58,7.75-.67,2.44-1.14,4.98-2.6,7.54-.69-.63-1.35-1.05-1.78-1.64-1.8-2.47-4.17-4.32-6.57-6.15-1.25-.96-2.45-1.28-3.76-.14-.21.19-.51.27-.99.52-9.42-9.41-11.19-20.63-7.86-33.41ZM82.75,84.25c.15.13.29.26.44.39,1.18-.93,2.35-1.86,3.54-2.78,3.18-2.47,6.31-5.02,9.57-7.39,5.09-3.72,10.23-7.38,15.42-10.96,3.43-2.37,6.95-4.63,10.51-6.81,2.44-1.49,5.03-2.73,7.52-4.13,3.06-1.72,6.09-3.51,9.14-5.25.77-.44,1.58-.83,2.67-1.4-4.81-.27-9.2-.52-13.58-.73-.41-.02-.86.1-1.24.28-7.01,3.34-13.99,6.73-20.52,10.99-4.15,2.7-7.94,5.63-10.78,9.8-3.01,4.42-6.43,8.55-9.58,12.87-1.17,1.61-2.08,3.41-3.11,5.12ZM210.87,320.59c-1.09,2.21-3.15,3.19-5.03,3.65-1.58.38-2.07,1-2.31,2.29-.4,2.14-1.2,4.13-2.61,5.76-1.77,2.04-3.6,4.09-5.68,5.8-2.83,2.32-5.94,4.31-8.9,6.48-.59.43-1.45.68-1.6,1.69,2.04.36,3.7-.45,5.33-1.27,3.27-1.64,6.52-3.35,9.79-5,1.14-.58,1.98-1.4,2.76-2.42,1.19-1.56,2.63-2.93,4.02-4.34.73-.74,1.57-.95,2.59-.4.55.3,1.26.38,1.9.44,2.78.26,5.56.48,8.34.69.48.04.97-.1,1.51-.16.06-.63.13-1.13.15-1.64.12-2.54-.64-4.68-2.79-6.21-2.45-1.74-4.89-3.5-7.49-5.35ZM105.35,262.4c.75.27,1.52.48,2.24.8,2.84,1.26,5.18,2.99,6.21,6.12.94,2.85,2.05,5.64,3.04,8.47.35,1,.6,2.03.94,3.21,1.41-1.08,1.26-2.54,1.64-3.74,1.19-3.7,1.41-7.47.49-11.28-.87-3.58-5.71-7.07-9.31-6.57-1.3.18-2.57.59-3.83.97-.93.28-1.4.99-1.43,2.02ZM235.12,335.77c1.66-3.25,2.48-6.51,1.05-10.07-.71-1.76-1.42-3.53-2-5.34-.79-2.47-1.99-4.72-3.5-6.81-.36-.5-.68-1.15-1.72-.83.18.56.35,1.07.52,1.59,1.28,3.83,2.56,7.66,2.01,11.79-.36,2.69.36,5.22,1.09,7.75.32,1.12.97,1.76,2.55,1.91Z"/>
    <path class="cls-1" d="M8.18,171.71c-.16-.93-.31-1.95-.53-2.94-1.01-4.65-2.31-9.26-3.01-13.96-.83-5.56-2.1-11.1-1.46-16.81.18-1.59.06-3.23-.04-4.84-.14-2.21.46-4.01,2.29-5.39,6.47-4.89,11.08-11.48,15.97-17.79,2.61-3.36,4.87-7,7.59-10.26,4.76-5.72,7.45-12.55,10.66-19.11,1.05-2.15,1.51-4.59,2.45-6.81,1.36-3.23,2.78-6.45,4.38-9.57,2.11-4.11,4.43-8.1,6.63-12.17,1.11-2.06,2.23-4.12,3.22-6.24,1.85-3.94,4.97-5.75,9.25-5.98,2.48-.14,4.94-.55,7.4-.92,2.79-.43,5.56-.49,8.29.22,2.75.72,4.98,2.3,7.12,4.4-.74.61-1.24,1.14-1.84,1.5-4.75,2.86-8.78,6.62-12.85,10.3-5.39,4.86-10.65,9.88-15.96,14.84-1.06.99-1.85,2.02-1.24,3.65.44,1.16.04,2.3-.57,3.37-4.34,7.57-8.66,15.14-13.04,22.69-.34.58-1,1.01-1.57,1.41-1.49,1.05-3.07,1.98-4.52,3.08-5.06,3.88-8.8,9.03-12.94,13.78-2.89,3.32-5.57,6.82-8.5,10.11-2.49,2.8-4.02,5.87-4.02,9.68,0,4.46-.31,8.94-.05,13.39.16,2.87-.63,5.52-.97,8.26-.45,3.56-1.09,7.1-1.68,10.64-.09.55-.33,1.07-.46,1.49Z"/>
    <path class="cls-1" d="M84.06,23.6c-1.32-.29-2.39-.49-3.43-.76-2.11-.55-4.12-.26-5.91.93-2.76,1.84-5.71,2.41-8.98,2.09-1.5-.15-3.09.03-4.57.36-.94.21-1.85.87-2.59,1.53-.75.67-1.31,1.57-1.9,2.42-3.76,5.42-7.53,10.83-11.26,16.28-1.03,1.51-1.91,3.13-2.93,4.64-.28.42-.83.67-1.25,1-.31-.45-.8-.85-.9-1.34-1.06-4.94-2.26-9.87-2.99-14.86-.53-3.61-.6-7.32.18-10.94.13-.6.46-1.31.93-1.66,4.85-3.65,8.47-8.5,12.65-12.8,1.32-1.35,2.8-2.55,4.21-3.81,1.52-1.35,3.35-1.13,5.16-.99.51.04,1,.24,1.5.31,1.93.26,3.53.79,4.53,2.82.82,1.67,3.47,2,5.32,1.04.58-.3,1.12-.71,1.61-1.15.8-.71,1.53-.64,2.38-.07,3.47,2.35,5.67,5.62,6.98,9.54.35,1.04.69,2.09.96,3.16.17.68.2,1.39.33,2.28Z"/>
    <path class="cls-1" d="M278.19,26.87c-1.8,1.81-3.38,3.42-4.99,5.01-.83.82-1.8,1.52-2.54,2.42-1.23,1.49-2.76,2.25-4.61,2.74-3.72.99-7.28.66-11.03-.11-6.67-1.37-12.3-4.61-17.62-8.6-2.19-1.65-4.52-2.94-7.19-3.67-3.53-.97-6.96-2.32-10.52-3.08-3.95-.83-8-.87-12.04-.43-2.83.31-5.68.44-8.44.65-.58-1.14-.13-1.56.7-1.8,2.11-.62,4.18-1.39,6.32-1.85,5.22-1.12,10.45-2.21,15.72-3.08,2.74-.46,5.56-.65,8.33-.56,1.85.06,3.84.52,5.48,1.36,3.45,1.77,6.71,3.89,10.04,5.89,1.38.83,2.73,1.71,4.07,2.6,2.33,1.54,4.94,2.05,7.58,1.4,3.66-.91,7.2-.76,10.86-.03,2.93.59,5.97.62,8.95.9.2.02.4.1.93.24Z"/>
    <path class="cls-1" d="M320.59,152.91c3.01,2.89,5.34,5.72,7.04,9.12,3.28,6.56,6.94,12.93,10.48,19.36,1.67,3.03,3.01,6.19,4.04,9.49.94,3.02,2.2,5.89,3.85,8.61,1.48,2.44,2.79,5,4.1,7.54.23.45.21,1.11.13,1.65-.7,4.9-2.27,9.54-4.15,14.11-1.19,2.9-2.12,5.92-3.13,8.89-.22.66-.36,1.29-1.53,1.23-.15-.6-.36-1.26-.49-1.94-.61-3.31-1.02-6.68-1.86-9.93-.76-2.98-1.85-5.91-4.56-7.83-.86-.61-.97-1.47-.79-2.54,1.26-7.63.52-15.21-.91-22.74-1.25-6.59-3.46-12.87-6.15-19-.76-1.74-1.36-3.56-1.96-5.37-.86-2.58-1.78-5.12-3.51-7.29-.41-.51-.81-1.11-.94-1.73-.11-.5.2-1.09.32-1.63Z"/>
    <path class="cls-1" d="M127.16,357.65c2.95,2.39,5.84,4.86,8.88,7.14,2.93,2.19,6.01,4.2,9.04,6.25,2.05,1.38,4.13,1.42,6.45.46,4.25-1.75,7.61-4.64,10.8-7.81.31-.31.61-.64.91-.96,1.51-1.55,3.11-2.01,5.33-1.28,5,1.66,10.07,3.15,15.17,4.44,3.25.82,6.63,1.17,9.95,1.71,2.23.36,4.46.69,6.52,1.01.7-1.84,1.3-3.46,1.94-5.07,1.03-2.59,2.07-5.17,3.13-7.74.33-.81.7-1.62,1.13-2.38.47-.83,1.31-1.42,2.19-1.17,2.91.82,5.7,2.1,8.91,1.61-.01.22-.03.43-.04.65-1.18.19-2.36.35-3.52.58-1.57.31-3.25.42-4.39,1.75-.51.6-1.05,1.27-1.25,2-.75,2.68-1.34,5.39-2.03,8.09-.34,1.34-.72,2.68-1.17,4-.44,1.28-1.36,1.98-2.74,2.23-1.94.35-3.88.76-5.78,1.31-3.03.87-5.98.68-8.8-.6-2.33-1.05-4.56-2.34-6.82-3.56-1-.54-1.97-1.03-3.06-.31-1.08-.95-2.1-1.85-3.3-2.91-.65,1.4-1.47,2-2.85,1.74-.45-.09-1.09.34-1.52.68-2.53,1.99-4.95,4.14-7.57,6.01-1.71,1.22-3.65,2.18-5.6,2.98-2.02.83-4.19,1.3-6.28,1.95-1.94.61-3.48.21-4.89-1.39-5.32-6.05-10.74-12.02-16.13-18.01-.73-.82-1.54-1.57-2.29-2.37-.22-.24-.35-.56-.52-.84.06-.06.12-.13.19-.19Z"/>
    <path class="cls-1" d="M367.32,206.71c.84-1.88,2.7-3.06,2.96-5.28.22-1.93.63-3.83,1.03-6.25,1.24,1.81,1.41,3.37,1.59,4.85.81,6.43.78,12.87.21,19.33-.3,3.36-.33,6.74-.52,10.11-.04.64-.05,1.41-.4,1.89-2.5,3.49-3.54,7.54-4.52,11.6-1.54,6.41-2.98,12.85-4.48,19.28-.15.63-.38,1.24-.56,1.83-1.76,0-1.88-.01-1.83-1.41.15-3.96.22-7.93.65-11.86.8-7.28,2-14.52,2.72-21.81.52-5.31.7-10.65-.99-15.91-.94-2.91-1.24-6.02-1.95-9.02-.73-3.06-1.61-6.08-2.43-9.12-.24-.89-.48-1.77-.79-2.91.61.16.99.14,1.12.31,1.39,1.78,2.9,3.45,3.42,5.79.42,1.92,1.09,3.8,1.76,5.66.49,1.35,1.44,2.34,3.01,2.93Z"/>
    <path class="cls-1" d="M346.95,68.47c1.59.51,2.96.67,4.57.24,4.31-1.15,6.54-7.94,4.64-11.93-1.6-3.35-4.05-5.89-6.51-8.49-.6-.63-1.32-1.15-1.82-1.96,2.91.71,5.87,1.02,8.3,2.92,1.03.81,2.23,1.4,3.34,2.11,1.96,1.27,3.89,2.59,5.87,3.83,2.44,1.53,3.77,3.94,4.71,6.47.95,2.55.31,5.21-1.27,7.3-1.39,1.84-3.82,1.96-6,2.22-.86.1-1.74.02-2.62.02,0,1.77.09,3.5-.03,5.21-.11,1.57.98,3.28-.54,5-.83-.81-1.61-1.44-2.26-2.2-2.73-3.23-5.91-5.88-9.72-7.77-1.73-.86-1.76-1.12-.67-2.98Z"/>
    <path class="cls-1" d="M401.69,243.34c.87,1.37,1.68,2.66,2.52,3.93.96,1.47,1.9,2.96,2.93,4.39,1.08,1.51,2.61,2.27,4.53,2.37,1.58-2.23,2.24-4.65,1.84-7.29-.68-4.57-1.49-9.11-2.19-13.68-.6-3.93-1.12-7.88-1.74-12.29.48.78.78,1.16.98,1.59,2.61,5.57,5.45,11.05,7.73,16.75,1.37,3.43,2.01,7.19,2.74,10.84.52,2.57.74,5.22.93,7.84.22,3.02-.28,3.63-3.09,4.78-1.05.43-2.17.73-2.62,2.09-.18.56-1.06.88-1.71,1.38-.72-.63-1.41-1.09-1.89-1.7-3.23-4.08-6.6-8.07-8.97-12.76-1.09-2.15-2.04-4.36-3.03-6.56-.35-.78.05-1.24,1.05-1.7Z"/>
    <path class="cls-1" d="M283.31,101.91c3.31,5.45,1.81,10.92-.54,16.39-1.34,3.1-3.5,5.34-6.55,6.79-1.32.63-2.62.86-4.04.46-.92-.26-1.86-.41-2.77-.7-3.05-.95-4.9-3.43-4.72-6.62.1-1.82.52-3.62.79-5.43.15-1.01.75-1.54,1.86-1.75.58.53,1.18,1.16,1.85,1.7,1.66,1.35,3.48,1.85,5.5.82.07-.03.13-.08.2-.1,4.01-.73,5.72-3.69,6.93-7.13.53-1.51,1.02-3.03,1.5-4.44Z"/>
    <path class="cls-1" d="M253.45,329.41c.15.64.38,1.05.32,1.42-.45,2.59-.86,5.19-1.48,7.73-.67,2.77-1.59,5.48-2.32,8.24-.42,1.57-1.36,2.42-2.86,3-3.34,1.29-6.56,3.06-10.2,3.29-3.2.2-6.42.04-9.62.04-.87-1.47-1.75-2.95-2.75-4.62.14-.08.34-.3.51-.28,3.9.35,7.48-1.22,11.22-1.8,2.42-.38,4.79-.96,6.65-2.62,2.23-2.01,4.48-4.04,6.37-6.36,1.11-1.36,1.55-3.28,2.25-4.96.44-1.05.68-2.21,1.91-3.08Z"/>
    <path class="cls-1" d="M198.14,252.02c-3-.58-5.98-1.18-8.97-1.72-1.15-.2-2.34-.17-3.49-.38-1.57-.29-3.1-.86-4.68-1.04-2.69-.3-5.4-.4-8.1-.56-.65-.04-1.31,0-2.03,0-.95-2.79-2.21-5.3-5.27-6.37,2.36,0,4.77-.3,7.08.06,4.33.67,8.67,1.48,12.87,2.69,4.22,1.21,8.22,3.08,11.52,6.14.4.38.75.82,1.06,1.17Z"/>
    <path class="cls-1" d="M337.04,297.02c.96-3.59,1.8-7.03,3.98-9.98,1.61-2.17,3.14-4.42,4.78-6.57.61-.8,1.38-1.51,2.18-2.11.9-.67,1.71-.3,1.89.83.08.48.04,1.05-.14,1.5-.66,1.62-1.1,3.45-2.16,4.77-3.1,3.88-6.45,7.56-9.72,11.31-.11.13-.38.13-.8.25Z"/>
    <path class="cls-1" d="M392.5,232.14c-1.39-1.06-2.67-2.21-3.49-3.83-.9-1.76-1.92-3.45-2.79-5.22-1.18-2.41-1.11-4.79.57-7.11,1.53-.11,2.53.78,2.97,2.2.95,3.07,1.85,6.17,2.63,9.29.37,1.46.44,3,.64,4.5-.18.05-.36.11-.53.16Z"/>
    <path class="cls-1" d="M257.4,339.21c1.49-2.45,2.9-4.82,4.36-7.16.46-.74.98-1.47,1.58-2.1,1.91-1.98,3.29-4.27,4.23-6.85.21-.57.58-1.09,1.05-1.56.9,4.35.59,8.39-2.79,11.64-2.1,2.02-4.32,3.93-6.53,5.83-.5.43-1.15,1.08-1.9.2Z"/>
    <path class="cls-1" d="M369.42,282.57c.92,1.81.73,4.74-.44,6.69-1.48-3.36-1.37-5.06.44-6.69Z"/>
  </g>
</svg>