<?xml version="1.0" encoding="UTF-8"?>
<svg id="Layer_1" data-name="Layer 1" xmlns="http://www.w3.org/2000/svg" version="1.1" viewBox="0 0 594 464">
  <defs>
    <style>
      .cls-1 {
        fill: #ff5c7a;
      }

      .cls-1, .cls-2 {
        stroke-width: 0px;
      }

      .cls-2 {
        fill: #a515ff;
      }
    </style>
  </defs>
  <path class="cls-2" d="M-255.92,105.19"/>
  <g id="FIRE_ALT_04" data-name="FIRE ALT 04">
    <path class="cls-2" d="M84.19,84.7c1.17-9.99-12.59-15.88-19.79-9.82-.37-.66-.39-1.21.25-1.67,2.25-1.63,4.49-3.28,6.79-4.85,2.01-1.38,4.14-2.57,6.11-4,4.25-3.09,7.16-7.32,9.65-11.86.12-.21.25-.45.26-.69.16-2.56,2.08-4.08,3.69-5.57,1.86-1.72,3.17-3.71,4.2-5.92,1.12-2.42,2.81-3.71,5.57-3.52,4.56.31,8.99-.52,13.42-1.47,4.94-1.06,9.92-.89,14.92-.28,4.8.59,9.61,1.16,14.42,1.62,8,.77,16.03,1.28,24.02,2.19,7.24.83,14.44,2.08,21.66,3.09,3.49.49,6.99.91,10.5,1.25,1.73.17,3.18.62,4.11,2.23.95,1.64,2.61,2.18,4.34,2.48.45.08,1.09.08,1.4-.18,1.44-1.23,3.07-.7,4.45-.25,2,.65,4.05,1.51,5.72,2.77,4.89,3.68,9.65,7.55,14.37,11.46,1.02.85,1.91,2.07,2.4,3.3.71,1.79-.31,3.38-1.46,4.7-3.68,4.19-7.44,8.33-11.16,12.49-.82.92-1.69,1.79-2.46,2.75-1.36,1.7-3.15,2.57-5.24,2.94-2.66.47-5.31,1.04-7.98,1.38-1.27.16-2.6-.03-3.88-.21-3.73-.53-7.46-1.18-11.24-.59-3.07.49-6.14,1.07-9.18,1.72-5.71,1.22-11.46,1.74-17.29,1.8-2.36.03-4.72.55-7.08.82-2.15.24-3.42,1.36-3.75,3.83,4.28,2.8,9.08,4.36,14.58,5.09-.69.72-.98,1.25-1.43,1.47-2.48,1.25-4.93,2.59-7.52,3.59-3.67,1.42-7.49,2.43-11.15,3.85-3.51,1.37-6.87,3.13-10.37,4.54-3.18,1.28-6.46,2.3-9.69,3.46-4.47,1.61-9,3.09-13.38,4.9-3.03,1.25-5.16,3.46-6.62,5.97,1.53,1.79,3.06,3.69,4.7,5.49,2.36,2.6,4.85,5.08,7.16,7.72,1.65,1.9,3.48,3.39,5.87,4.3,6.32,2.4,12.72,4.26,19.57,4.34,3.76.05,7.5.74,11.26.87,6.58.23,13.09-.66,19.59-1.6,3.07-.44,6.14-1,9.24-1.23,3.65-.27,6.75-1.89,9.77-3.64,3.59-2.09,7.46-3.23,11.46-4,6.01-1.15,11.95-2.34,17.34-5.56,2.58-1.54,5.49-2.58,8.34-3.61,3.26-1.18,6.19-2.92,8.89-4.98,1.72-1.32,2.99-3.24,4.4-4.95,3.39-4.09,7.37-7.43,12.12-9.87.75-.39,1.37-1.11,1.93-1.78,1.52-1.82,2.92-3.75,4.46-5.54.56-.64,1.41-1.03,2.12-1.55.52-.38,1.09-.72,1.51-1.19,2.32-2.55,4.62-5.12,6.88-7.72,1.2-1.38,2.06-2.98,2.29-4.82.55-4.43,2.34-8.49,3.78-12.65,1.93-5.58,4-11.11,6.01-16.66,1.28-3.52,3.47-6.51,5.68-9.46.53-.7,1.26-1.35,2.04-1.76,3.83-2.01,7.53-4.28,11.75-5.52,2.75-.81,5.41-1.92,8.07-3.01,1.52-.62,2.85-1.46,3.46-3.25.53-1.56,2.06-1.9,3.62-2.08,4.66-.53,9.32-.35,13.96.09,4.73.45,9.44,1.16,14.14,1.88,3.07.47,6.13,1.08,9.16,1.77,5.34,1.22,8.86,5.3,9.55,10.89.1.8.18,1.6.32,2.83.8-.58,1.38-.94,1.89-1.38,2.12-1.79,3.89-4.04,6.53-5.16,3.69-1.56,7.23-3.49,11.27-4.18,1.33-.23,2.78-.77,3.8-1.62,2.25-1.87,4.88-2.5,7.57-2.41,8.37.28,16.7,1.16,24.82,3.27,6.03,1.56,11.93,3.57,17.93,5.23,5.44,1.51,10.94,2.8,16.41,4.21,5.81,1.5,11.49,3.41,16.91,5.95,8.61,4.03,17.16,8.18,25.65,12.46,3.81,1.92,7.52,4.02,11.58,5.39.46.16.9.4,1.33.64,3.39,1.96,6.83,3.85,10.13,5.95,1.57,1,2.94,2.35,4.27,3.68,3.47,3.48,7.13,6.83,10.23,10.63,2.93,3.59,6,6.95,9.61,9.84,3.39,2.71,6.72,5.52,10.19,8.14,4.9,3.71,9.85,7.36,14.89,10.88,2.62,1.83,5.46,3.32,8.2,4.97,1.4.84,2.93,1.56,3.01,3.53.05,1.21,0,2.43.16,3.62,1.02,7.43.98,14.85.71,22.34-.24,6.69-1.24,13.23-2.33,19.78-1.18,7.09-2.86,14.1-4.12,21.18-.73,4.11-1.13,8.28-1.57,12.44-.95,9.05-1.76,18.1-3.7,27.02-1.91,8.75-4.26,17.38-7.33,25.78-2.98,8.15-6.43,16.14-9.75,24.16-1.22,2.95-2.69,5.79-4.01,8.7-2.34,5.13-5.74,9.54-9.43,13.75-1.24,1.42-2.51,2.82-3.72,4.26-.99,1.18-2.24,1.4-3.55.84-2.15-.91-4.38-.68-6.57-.58-5.16.22-10.32.8-15.48.87-7.86.11-15.5,1.48-23.14,3.11-3.52.75-7.09,1.32-10.66,1.82-4.5.63-8.85,1.76-13.1,3.3-6.09,2.2-12.21,4.34-18.22,6.76-2.56,1.03-4.86,2.71-7.29,4.08-4.27,2.42-8.55,4.83-12.82,7.25-4.96,2.8-9.27,6.47-13.7,9.99-2.94,2.34-5.98,4.57-9.09,6.69-3.74,2.54-7.23,5.33-10.32,8.66-3.51,3.79-7.27,7.34-10.8,11.11-1.38,1.48-2.61,3.16-3.63,4.91-3.04,5.24-6,10.52-8.87,15.86-2.1,3.91-3.66,8.06-4.52,12.44-.14.72-.28,1.46-.53,2.15-.91,2.51-3.13,3.69-5.66,2.82-7.06-2.42-14.26-2.62-21.62-1.86-4.17.43-8.28.93-12.22,2.39-3.7,1.37-6.98,3.3-9.71,6.32-1.46,1.61-2.69,3.34-3.61,5.16-1.26,2.51-2.85,4.25-5.94,4.8-.45-.62-1.16-1.33-1.52-2.18-.56-1.33-1.18-2.56-2.64-3.01-1.73-.53-3.52-.97-5.29-.22-4.29,1.82-8.53,3.73-12.83,5.52-5.73,2.39-11.45,4.75-17.32,6.82-8.4,2.96-16.93,5.37-25.62,7.19-6.23,1.31-12.55,2.29-18.86,3.16-5.18.71-10.4,1.2-15.61,1.51-4.49.26-8.99.19-13.48-.45-4.19-.6-8.43-.83-12.63-1.42-5.83-.81-11.57-2.12-17.15-3.99-5.36-1.79-10.62-3.85-15.97-5.67-1.69-.57-3.51-.76-5.46-1.16-.44,2.36-3.16,1.53-4.34,3.02.47,1.51,1.5,2.39,2.67,3.17.9.6,1.96,1.34,1.62,2.5-.35,1.19-1.59,1.57-2.8,1.65-2.7.17-5.4.31-8.1.49-3.03.2-6.06.37-9.08.64-6.1.55-12.09-.04-17.98-1.7-5.43-1.54-10.84-3.12-16.28-4.63-1.72-.48-3.5-.78-5.24-1.2-3.96-.96-7.97-1.78-11.86-2.96-3.31-1-6.63-1-9.97-.73-1.25.1-2.48.78-3.67,1.31-1.99.88-3.79,2.08-5.98,2.64-1.42.36-2.07-.09-2.56-1.09-.34-.7-.43-1.55-.49-2.35-.24-3.6-.14-7.25-.7-10.8-.78-5.01-2.02-9.95-3.08-14.92-.8-3.76-1.55-7.54-2.42-11.28-1.16-5.02-2.37-10.03-3.65-15.02-1.68-6.54-2.01-13.12-.95-19.78.22-1.35.2-2.74.31-4.48,1.18-.86,2.64-1.91,4.09-2.96,5.81-4.22,9.69-9.88,12.65-16.36,2.36-5.18,3.58-10.53,3.6-16.18,0-.65-.02-1.32-.14-1.96-.44-2.43.9-3.61,3.42-3.16,1.63.29,2.98-.51,4.04-1.75,3.04-3.55,6.17-7.03,9.1-10.67,3.42-4.27,7.81-7.29,12.54-9.78,4.27-2.25,8.69-4.24,13.14-6.12,5.51-2.33,11.03-4.65,16.69-6.57,9.45-3.21,18.8-6.8,28.61-8.79,5.37-1.09,10.83-1.79,16.28-2.44,4.23-.51,8.5-.91,12.76-.96,5.18-.06,10.3.91,15.29,2.24,3.06.82,5.95,2.26,9.01,3.07,1.95.51,4.06.45,6.1.52,4.02.15,8.05.13,12.07.32,4.8.23,9.6.6,14.4.94,1.42.1,2.39.91,3.12,2.16-.62,2.15-3.48,1.83-4.21,3.8,3.78,1.86,7.45,3.91,11.31,5.5,7.81,3.22,15.82,5.69,24.42,5.79,3.27.04,6.54.54,9.81.84,4.19.38,8.13-.3,11.91-2.32,2.08-1.11,4.37-1.95,6.66-2.49,4.4-1.04,8.25-3.1,12-5.5,2-1.28,4.09-2.43,6.15-3.6,3.37-1.91,5.85-4.71,7.94-7.91,1.66-2.54,3.39-5.04,5.07-7.56.59-.89,1.27-1.75,1.69-2.71,1.45-3.41,3.89-6.01,6.53-8.52,3.15-3,6.17-6.14,9.31-9.15,1.18-1.13,2.49-2.14,3.8-3.12,2.3-1.72,4.58-3.48,6.98-5.04,2.33-1.51,4.74-2.92,7.23-4.14,2.65-1.3,5.44-2.29,8.14-3.49,4.75-2.11,9.7-3.6,14.82-4.34,2.24-.32,4.59-.08,6.88.06,11.38.72,21.98,4.57,32.56,8.36,11.65,4.18,23.18,8.68,34.74,13.11,3.6,1.38,7.13,2.94,10.65,4.5,2.47,1.1,5.12,1.14,7.71,1.4,2.19.22,4.43.05,6.78.05.17-.74.54-1.42.41-1.97-.77-3.12-.08-6.21.07-9.3.04-.9.07-1.82-.03-2.71-.58-5.35.52-10.43,2.26-15.44,3.37-9.69,8.62-18.41,14.02-27.03,2.99-4.78,7.54-7.43,13.13-8.26,1.86-.28,3.67-.64,5.39-1.56,1.22-.65,2.2-1.41,2.85-2.58.84-1.5,1.67-3.02,2.4-4.58,1.33-2.82.93-5.33-1.25-7.66-2.19-2.33-4.23-4.81-6.26-7.28-1.25-1.52-2.5-3.06-3.53-4.73-2.98-4.85-7.18-8.54-11.53-12.04-6.19-4.97-11.39-10.87-16.37-16.97-1.59-1.94-1.91-4.47-1.45-6.98.08-.42.48-.78.77-1.23,3.16,2.14,6.17,4.24,9.24,6.26,3.19,2.09,6.63,3.26,10.49,2.21,2.44-.66,3.53-1.83,3.45-4.36-.08-2.36-.28-4.79-.96-7.03-1.26-4.15-2.78-8.24-4.41-12.26-1.59-3.93-4.35-7.13-7.21-10.21-1.9-2.04-3.91-3.98-5.86-5.97-3.25-3.32-6.86-5.99-11.34-7.56-12.96-4.54-25.22-10.64-37.39-16.94-8.14-4.22-16.79-6.96-25.69-9.01-3.83-.88-7.61-1.97-11.44-2.88-6.91-1.64-13.84-3.23-20.77-4.76-.62-.14-1.42.13-2.03.43-4.71,2.25-8.7,5.5-12.48,9.05-1.13,1.06-2.4,1.96-3.48,3.07-2.74,2.81-6.07,3.79-9.87,3.3-3-.39-6-.82-8.98-1.36-6.88-1.26-13.83-1.59-20.8-1.68-6.51-.09-12.94.49-19.29,1.94-1.76.4-3.5.93-5.18,1.58-1.93.75-3.01,2.34-3.85,4.22-2.14,4.77-3.82,9.75-6.56,14.25-2.52,4.14-4.7,8.48-7.26,12.59-2.13,3.41-4.52,6.66-6.97,9.85-.71.92-1.94,1.51-3.03,2.05-5.74,2.88-10.89,6.59-15.77,10.74-2.87,2.44-5.91,4.69-9.76,5.46-.7.14-1.4.52-1.97.96-3.59,2.81-7.62,4.64-11.97,6-3.39,1.06-6.57,2.79-9.94,3.95-4.39,1.51-8.71,3.22-13.31,4.15-5.53,1.12-10.94,2.75-15.99,5.37-2.83,1.47-5.93,1.85-9.03,2.17-4.49.46-8.97.89-13.46,1.3-7.52.68-15.04.97-22.57-.12-4.2-.61-8.45-.92-12.69-1.22-4.73-.33-9.39-1.12-13.91-2.48-2.08-.62-3.95-1.9-5.94-2.81-1.62-.74-3.24-1.61-4.95-1.98-1.56-.34-3.26,0-4.88-.11-4.01-.28-7.99.02-11.98.25-1.74.1-2.9-1.14-3.57-2.6-1.27-2.75-2.63-5.49-3.51-8.36-1.53-5.01-2.91-10.08-4.03-15.2-1.35-6.17-2.43-12.4-3.5-18.62-.63-3.69.15-5.24,3.6-6.97,5.5-2.76,11.05-5.41,16.66-7.93,3.96-1.77,7.97-3.52,12.11-4.77,4.12-1.24,8.31-2.62,12.74-2.22,1.3.12,2.71.17,3.84.72,1.85.9,3.69.85,5.53.45,4.08-.88,8.15-1.85,12.19-2.87,7.07-1.79,14.12-3.68,21.19-5.47,4.92-1.25,9.89-2.31,14.79-3.65,2.6-.71,5.09-1.81,7.63-2.73,2.69-.97,5.39-1.93,8.07-2.91.29-.11.54-.33.73-.45-1.56-3.5-3.09-6.91-4.74-10.62-5.86-1.6-11.93-3.72-18.19-4.86-9.92-1.8-19.94-3.13-30.09-2.4-4.36.31-8.62,1.17-12.72,2.65-3.77,1.36-7.42,3.06-11.21,4.38-4.46,1.56-7.32,4.76-9.78,8.56-1.46,2.26-3.15,4.38-4.84,6.49-.64.8-1.54,1.39-2.67,2.39.1-1.28.12-2.06.23-2.84.38-2.67-.62-5.05-1.83-7.25-1.37-2.5-4.59-3.47-7.46-2.66-1.77.5-3.13,1.6-4.63,2.63-1.91,1.32-3.16,3.03-4.44,4.81-2.59,3.59-3.33,7.79-4.07,12-.2,1.13-.24,2.31-.58,3.39-.32,1.04-.93,1.99-1.41,2.99-.17-.1-.35-.19-.52-.29ZM170.1,407.47c.12-.16.23-.33.35-.49-.21-.6-.48-1.19-.6-1.81-.13-.64-.18-1.31-.16-1.96.05-1.53,1.04-2.58,2.56-2.77.57-.07,1.15-.07,1.72-.06,3.29.05,6.57.19,9.86.15,6.78-.09,13.56-.31,20.35-.41,1.55-.02,3.1.24,4.65.29,6.06.21,12.12.46,18.18.54,4.34.06,8.7.1,13.01-.28,6.36-.56,12.71-1.35,19.03-2.32,6.15-.94,12.27-2.07,18.35-3.4,6.72-1.47,13.38-3.25,20.06-4.91,6.52-1.63,13.09-3.11,19.55-4.97,8.84-2.54,17.04-6.43,23.75-12.92,1.36-1.31,2.88-2.57,3.57-4.62-.64-.05-1.06-.04-1.45-.12-2.15-.39-2.64-1.22-1.77-3.23.39-.9.93-1.73,1.43-2.57,1.09-1.82,2.16-3.67,3.33-5.45,1.57-2.4,2.95-4.99,4.87-7.06,4.08-4.39,8.4-8.51,10.9-14.14,1.2-2.69,2.94-5.12,5.39-6.94,2.11-1.57,4.43-1.74,6.21-.15.82.74,1.41,1.79,1.93,2.8.65,1.27,1.13,2.64,1.76,4.17,1.63-1.83,2.84-3.65,4.47-4.95,5.52-4.37,11.06-8.75,16.84-12.77,5.47-3.81,11.47-6.73,18.06-8.1,3.6-.74,7.25-1.29,10.9-1.73,6.35-.77,12.7-1.22,19.08-.1,2.09.37,4.24.46,6.36.49,1.42.02,2.91-.11,4.35-1.04-.3-.41-.47-.79-.77-1.01-1.25-.92-2.5-1.84-3.81-2.66-1.9-1.19-2.36-2.13-1.75-4.3.32-1.15.81-2.25,1.27-3.5-1.81-1.11-3.46-2.36-5.29-3.22-3.86-1.8-7.74-3.56-11.74-5.02-5.13-1.88-10.39-2.04-15.74-.69-6.72,1.7-13.05,4.42-19.39,7.1-4.69,1.98-9.24,4.25-12.94,7.89-1.05,1.03-2.17,1.98-3.27,2.96-4.45,3.98-9.04,7.79-13.28,12.03-4.34,4.34-9.08,8.39-14.14,11.85-7.59,5.19-15.18,10.32-22.01,16.51-3.65,3.3-7.48,6.38-11.72,8.93-2.24,1.35-4.38,2.86-6.56,4.31-1.29.87-2.18.81-3.46-.28-.38-.32-.82-.58-1.13-.95-1.55-1.85-3.56-2.76-5.89-3.27-2.79-.61-5.67-1.13-7.99-2.97-1.93-1.52-3.74-3.18-5.59-4.8-1.66-1.46-3.21-3.07-4.97-4.38-3.08-2.3-6.25-4.49-9.46-6.61-2.39-1.58-4.74-3.39-7.39-4.36-5.44-2-11-3.74-16.61-5.18-7.84-2.01-15.73-3.89-23.78-4.92-4.79-.61-9.59-1.27-14.41-1.55-10.78-.63-21.5.39-32.21,1.46-1.76.18-3.49.6-5.55.96.6.81.92,1.37,1.36,1.82,1.84,1.88,3.77,3.66,5.55,5.6,1.76,1.92,3.67,3.76,4.13,6.55.39,2.34-.19,3.27-2.56,3.26-1.46,0-2.92-.46-4.38-.51-5.42-.19-10.84-.45-16.25-.39-4.1.04-8.2.43-12.28.85-4.97.51-9.94,1.09-14.87,1.88-6.33,1.01-12.51,2.73-18.47,5.1-4.4,1.75-8.71,3.74-12.99,5.78-2.78,1.33-5.37,3.05-8.13,4.4-4.32,2.11-8.26,4.7-11.6,8.16-5.04,5.21-9.65,10.64-11.7,17.89-1.61,5.7-3.19,11.35-3.03,17.33.04,1.64.07,3.29.04,4.93-.08,4.19,2.13,7.41,4.3,10.82,5.97-3.58,12.27-5.62,18.84-6.8,4.19-.76,8.42-1.38,12.66-1.85,8.07-.89,16.16-1.64,24.25-2.42.78-.08,1.59.13,2.36.02,1.6-.23,3.17-.77,4.77-.86,6.22-.33,12.45-.71,18.64.44.64.12,1.29.24,1.89.45,2,.71,3.99,1.45,5.96,2.23,1.41.56,2.79,1.19,4.18,1.8ZM387.4,258.8c-.79.04-1.52,0-2.23.12-5.06.9-10.05,2.1-14.9,3.87-1.46.53-3.02.88-4.37,1.62-2.44,1.33-4.78,2.85-7.12,4.34-1.67,1.07-3,2.47-4.17,4.11-2,2.78-4.08,5.54-6.4,8.06-2.15,2.33-4.68,4.29-6.48,6.98-.43.64-1.27,1.02-1.95,1.47-3.71,2.43-7.43,4.83-11.14,7.26-3.98,2.61-8.06,5.09-11.89,7.9-4.89,3.58-9.6,7.42-14.34,11.2-.91.73-1.63,1.69-2.35,2.46.76,1.33,1.5.69,2.06.37,1.56-.9,3.03-1.97,4.6-2.85,4.65-2.6,9.43-4.99,13.79-8.09,3.76-2.67,7.72-4.95,12.09-6.54,1.43-.52,2.84-1.43,3.92-2.51,1.84-1.84,4.21-2.52,6.44-3.51,1.66-.74,3.04-.08,3.91,1.51.22.41.36.86.61,1.46,1.12-.45,2.12-.79,3.07-1.24,5.03-2.4,10.05-4.82,15.07-7.24,1.77-.86,3.56-1.7,5.27-2.66,3.41-1.93,6.68-4.14,10.18-5.87,4.57-2.27,6.84-5.64,6.42-10.79-.17-2.12-.08-4.26-.1-6.39-.01-1.62,0-3.24,0-5.02ZM523.56,223.83c.09.1.19.2.28.3.28-.14.59-.24.84-.41,2.12-1.43,4.29-2.69,6.91-3.02.54-.07,1.18-.61,1.48-1.1.94-1.53,1.61-3.23,2.63-4.7,1.58-2.26,2.56-4.73,3.31-7.36.79-2.8,1.94-5.47,4.6-7.03,2.01-1.18,2.83-2.93,2.79-5.12-.08-3.75-.26-7.49-.43-11.23-.08-1.88-.28-3.75-.34-5.63-.1-3.35-.03-6.71-.23-10.05-.18-3.02-.55-6.03-.99-9.02-.32-2.18-.71-4.38-3-5.59-4.35-2.3-8.63-4.73-13.36-6.21-1.53-.48-3-1.15-4.63-1.78-.04.5-.12.74-.07.95,1.33,6.02,3.99,11.39,7.87,16.18,1.6,1.97,3.23,3.93,4.64,6.02,2.74,4.07,5.23,8.3,8.02,12.34,1.07,1.54,1.28,2.93.64,4.58-.24.61-.44,1.24-.69,1.84-2.39,5.75-4.71,11.53-7.19,17.24-1.83,4.21-3.84,8.32-7.1,11.72-2.14,2.23-4,4.71-5.99,7.08ZM474.34,293.45c3.07,0,5.61.08,8.13-.02,3.6-.13,7.21-.32,10.8-.62,3.05-.25,5.94-1.14,8.58-2.76,2.44-1.5,5-2.83,7.39-4.42,3.48-2.31,6.9-4.71,10.23-7.23,1.62-1.22,3.03-2.75,4.43-4.24.37-.39.65-1.19.52-1.69-.6-2.26-1.36-4.48-2.17-7.04-1.25.45-2.47.84-3.64,1.33-1.51.63-3.01,1.3-4.48,2.02-2.2,1.08-4.43,2.11-6.52,3.37-4.28,2.58-8.5,5.26-12.7,7.97-1.99,1.29-3.95,2.64-5.78,4.14-3.03,2.5-5.78,5.37-9.44,7.01-1.61.72-3.28,1.33-5.35,2.17ZM557.97,229.82c-2.51.78-4.07,2.01-4.72,3.35-1.31,2.72-2.71,5.39-4.04,8.1-.57,1.16-1.21,2.32-1.58,3.55-1.15,3.84-2.2,7.7-3.24,11.57-.27,1-.34,2.06-.51,3.12,2.26-.25,3.2-.55,4.09-1.99,2.33-3.74,4.51-7.58,6.75-11.38.12-.21.19-.45.26-.69,1.03-3.7,2.12-7.39,3.07-11.11.38-1.47.46-3.02-.06-4.54ZM520.3,228.47c-4.67,4.54-7.49,12.31-5.77,15.05,1.84-4.79,3.7-9.64,5.77-15.05Z"/>
    <path class="cls-2" d="M43.12,319.31c4.26,1.34,5.53-1.62,7.05-4.33.41.32.82.48.85.69.58,4.94,1.92,9.9.27,14.83-.64,1.91-1.6,3.8-2.8,5.4-3.7,4.92-7.62,9.67-11.39,14.54-1.96,2.54-3.54,5.32-4.5,8.4-.15.47-.3.95-.33,1.44-.3,4.41-.59,8.81-.86,13.22-.09,1.47-.19,2.94-.13,4.4.23,5.07.41,10.15.88,15.2.19,2.07.89,4.16,1.7,6.1,1.21,2.9.74,5.98,1.23,9-.99-1.89-1.99-3.79-2.97-5.69-.23-.44-.37-.94-.66-1.32-2.43-3.09-3.57-6.79-4.96-10.36-.48-1.23-1.07-2.31-2.14-3.21-2.13-1.79-2.93-4.25-2.99-6.97-.12-5.92-1.1-11.73-2.02-17.56-.61-3.87-.74-7.82-1.14-11.73-.11-1.1.53-1.63,1.25-2.21,2.43-1.95,4.89-3.88,7.26-5.91,1.62-1.39,3.11-2.92,4.62-4.44,3.17-3.2,4.84-7.11,5.72-11.5.37-1.87.17-3.33-.56-5.09-5.11-12.49-12.87-23.36-20.63-34.24-.62-.87-1.25-1.72-1.86-2.6-2.32-3.38-4.49-6.86-7.5-9.72-.57-.54-1.79-1.29-.26-2.45.82.56,1.71,1.11,2.53,1.73,5.15,3.89,10.71,6.67,17.4,6.11,2.06-.17,3.36.59,4.42,2.32,1.75,2.86,3.92,5.49,5.47,8.45,1.23,2.36,1.85,5.05,2.66,7.61.91,2.89,1.69,5.82,2.62,8.7.88,2.75,1.58,5.51,1.47,8.44-.04.96.21,1.93.31,2.72Z"/>
    <path class="cls-2" d="M346.26,159.63c4,1.61,8.16,1.4,12.23,1.62,3.45.19,6.18.95,6.7,5.12,4.68-2.93,9.45-4.94,14.44-6.57.41.26.86.6,1.35.87,2.06,1.14,2.72,2.48,2.28,4.84-.43,2.33-.89,4.66-1.34,7.01-1.97-.04-4.06-.15-6.14-.11-1.14.02-2.27.33-3.41.4-2.52.16-4.07,1.76-5.07,3.76-.6,1.21-1.39,2.01-2.48,2.54-1.47.71-2.99,1.33-4.53,1.87-3.77,1.32-6.95,3.64-10.2,5.85-1.96,1.33-4.08,2.44-5.94,3.88-2.65,2.05-5.14,4.3-7.8,6.57-.62-.74-.56-1.73-.63-2.77-.55-7.6.92-14.84,3.64-21.89,1.03-2.66,1.85-5.41,3-8.01.86-1.93,2.22-3.6,3.93-4.96Z"/>
    <path class="cls-2" d="M231.56,266.6c-1.39,0-2.77-.02-4.16,0-.82.02-1.66.02-2.45.18-1.65.34-3.27.79-5.05,1.24.28.35.58.81.96,1.16,1.32,1.22,2.7,2.39,4.02,3.61.67.62,1.29,1.35.91,2.37-.28.76-1.98,1.36-3.02,1.09-.63-.17-1.25-.41-1.86-.64-4.91-1.9-9.95-3.35-15.1-4.39-7.56-1.52-15.11-3.09-22.71-4.32-4.59-.74-9.27-1.05-13.93-1.27-6.14-.3-12.3-.55-18.44-.42-7.52.17-15.03.77-22.45,2.22-3.91.76-7.91,1.1-11.99,1.28.61-.23,1.22-.48,1.84-.69,5.16-1.71,10.34-3.38,15.49-5.12,2.31-.78,4.52-1.89,6.87-2.48,2.85-.71,5.79-1.16,8.71-1.48,6.68-.74,13.35-1.61,20.1-1.63,8.06-.02,16.08.49,24.09,1.29,4.48.45,8.99.84,13.42,1.62,5.15.92,10.23,2.23,15.34,3.39,2.31.53,4.62,1.09,6.92,1.67.86.22,1.7.55,2.55.83-.01.16-.02.32-.03.48Z"/>
    <path class="cls-2" d="M389.98,402.98c1.3-2.96,2.38-5.5,4.45-7.42,2.95-2.72,5.93-5.42,9.03-7.96,3.81-3.12,7.69-6.14,11.67-9.04,2.04-1.49,4.28-2.75,6.55-3.87,5.14-2.54,10.32-5.02,15.56-7.34,2.3-1.02,4.81-1.55,7.19-2.4,3.83-1.37,7.94-2.27,10.53-5.88.62-.86,1.13-1.8,1.78-2.64.32-.41.83-.67,1.48-1.18.45.97.81,1.67,1.1,2.41.71,1.83,1.31,3.7,2.09,5.5.88,2.04.09,3.88-.56,5.71-.15.42-1.05.84-1.57.8-2.17-.13-4.15.43-6.17,1.11-1.31.45-2.69.71-4.07.9-2.63.38-4.94,1.63-7.36,2.58-9.11,3.57-17.38,8.69-25.7,13.73-4.97,3.02-10.08,5.79-15.1,8.74-3.07,1.8-6.07,3.72-9.12,5.57-.39.23-.86.32-1.79.65Z"/>
    <path class="cls-2" d="M57.68,44.25c-1.22,1.21-2.43.77-3.58.51-4.15-.94-8.27-2-12.43-2.85-3.6-.73-7.26-1.19-10.89-1.85-1.35-.24-2.71-.52-3.7-1.71-.8-.97-1.06-1.88-.7-3.15.64-2.28,1.12-4.61,1.54-6.94.84-4.57-.96-8.49-3.19-12.28-.24-.41-.52-.8-.76-1.16.68-1.19,1.61-1.45,2.78-1.21,1.68.35,3.36.68,5.05,1,3.41.65,6.82.76,10.25.1,1.63-.31,4.07,1.1,4.78,3.13,1,2.84,1.79,5.79,2.33,8.75.41,2.23.27,4.56.41,6.85.11,1.85,1.29,3.09,2.46,4.37,1.91,2.09,3.75,4.25,5.66,6.42Z"/>
    <path class="cls-2" d="M295.43,33.33c-.23,1.54-.96,1.72-2.15,1.51-3.14-.55-6.3-1-9.46-1.45-.97-.14-1.97-.07-2.94-.23-2.41-.4-4.2.73-5.56,2.45-2.34,2.94-4.62,5.96-6.7,9.08-1.7,2.56-2.2,5.6-2.72,8.59-.08.48-.12.96-.22,1.78-.8-.73-1.01-1.42-1.17-2.17-1.24-5.82-5.06-9.57-10.02-12.37-.83-.47-1.83-.63-2.54-.86,2.95-3.89,5.73-7.93,8.89-11.63,3.56-4.17,8.31-6.83,13.19-9.22.77-.38,1.39-.33,2.01.26,4.87,4.71,10.77,7.99,16.38,11.66,1.13.74,2.07,1.78,3,2.6Z"/>
    <path class="cls-2" d="M467.75,164.64c.16,2.21.38,4.24.43,6.27.04,1.62.47,3.01,1.48,4.32,1.44,1.86,2.72,3.84,4.05,5.79.32.47.7.98.78,1.51.44,3.01.78,6.03,1.17,9.04.33,2.52-1.01,4.15-3.08,5.07-4.96,2.21-10.07,4-15.56,4.41-1.31.1-2.61.25-3.92.39-1.06.11-1.71-.39-2.17-1.67.49-.68.99-1.63,1.72-2.32,3-2.8,4.31-6.55,5.8-10.18.98-2.38,1.83-4.83,2.64-7.27.21-.64.19-1.45.03-2.12-.61-2.56-1.42-5.07-3-7.21-.72-.97-1.62-1.8-2.46-2.67-.45-.47-1.06-.82-1.43-1.33-.57-.78-.34-1.87.57-2.24.95-.39,2.03-.7,3.03-.65,3.24.19,6.48.56,9.91.87Z"/>
    <path class="cls-2" d="M295.35,282.49c-.66-.57-1.34-1.11-1.96-1.71-.35-.34-.5-.93-.89-1.15-2.08-1.21-2.09-3.06-2.31-5.23-.35-3.54.97-6.17,3.09-8.67,1.1-1.3,2.11-2.68,3.26-3.94.33-.36,1.13-.73,1.46-.57,1.44.7,3.44,1.29,4.02,2.49,1.06,2.24,2.17,4.82.62,7.44-1.24,2.1-2.46,4.21-3.69,6.32-.29.49-.68.98-.78,1.51-.29,1.62-1.42,2.51-2.82,3.52Z"/>
    <path class="cls-2" d="M50.18,57.82c.3.49.85.97.85,1.46.05,2.49.74,5.13-1.16,7.28-1.35,1.53-2.74,3.04-4.23,4.42-1.33,1.23-3.1.61-3.16-1.15-.12-3.06.38-6.09,1.85-8.79.48-.88,1.76-1.38,2.75-1.91.77-.42,1.67-.61,2.51-.91.2-.13.4-.27.59-.4Z"/>
    <path class="cls-1" d="M170.1,407.47c-1.39-.6-2.77-1.24-4.18-1.8-1.97-.78-3.97-1.51-5.96-2.23-.61-.22-1.26-.34-1.89-.45-6.19-1.15-12.42-.76-18.64-.44-1.6.08-3.17.63-4.77.86-.77.11-1.58-.1-2.36-.02-8.08.78-16.17,1.53-24.25,2.42-4.24.47-8.46,1.09-12.66,1.85-6.57,1.19-12.87,3.22-18.84,6.8-2.18-3.42-4.38-6.64-4.3-10.82.03-1.64,0-3.29-.04-4.93-.16-5.99,1.42-11.63,3.03-17.33,2.05-7.25,6.66-12.67,11.7-17.89,3.35-3.46,7.29-6.05,11.6-8.16,2.77-1.35,5.36-3.07,8.13-4.4,4.27-2.04,8.59-4.03,12.99-5.78,5.95-2.38,12.13-4.09,18.47-5.1,4.93-.79,9.9-1.37,14.87-1.88,4.08-.42,8.18-.8,12.28-.85,5.42-.06,10.84.2,16.25.39,1.47.05,2.92.5,4.38.51,2.37.01,2.95-.92,2.56-3.26-.46-2.79-2.37-4.63-4.13-6.55-1.77-1.93-3.71-3.72-5.55-5.6-.44-.45-.76-1.01-1.36-1.82,2.06-.36,3.79-.79,5.55-.96,10.71-1.07,21.43-2.09,32.21-1.46,4.82.28,9.62.94,14.41,1.55,8.05,1.03,15.94,2.91,23.78,4.92,5.61,1.44,11.17,3.17,16.61,5.18,2.64.97,5,2.79,7.39,4.36,3.21,2.12,6.38,4.31,9.46,6.61,1.76,1.32,3.31,2.93,4.97,4.38,1.85,1.62,3.66,3.28,5.59,4.8,2.32,1.83,5.21,2.35,7.99,2.97,2.33.51,4.34,1.43,5.89,3.27.31.37.76.63,1.13.95,1.28,1.08,2.17,1.14,3.46.28,2.17-1.45,4.32-2.96,6.56-4.31,4.24-2.55,8.07-5.63,11.72-8.93,6.83-6.19,14.42-11.32,22.01-16.51,5.06-3.46,9.8-7.51,14.14-11.85,4.24-4.24,8.83-8.05,13.28-12.03,1.1-.98,2.22-1.93,3.27-2.96,3.7-3.64,8.25-5.92,12.94-7.89,6.34-2.67,12.67-5.4,19.39-7.1,5.36-1.35,10.62-1.19,15.74.69,3.99,1.46,7.88,3.22,11.74,5.02,1.83.85,3.48,2.1,5.29,3.22-.46,1.25-.95,2.35-1.27,3.5-.61,2.17-.15,3.1,1.75,4.3,1.31.82,2.56,1.74,3.81,2.66.29.21.46.6.77,1.01-1.44.93-2.92,1.05-4.35,1.04-2.12-.02-4.28-.12-6.36-.49-6.38-1.12-12.73-.66-19.08.1-3.65.44-7.3.99-10.9,1.73-6.6,1.36-12.59,4.29-18.06,8.1-5.78,4.02-11.32,8.39-16.84,12.77-1.63,1.29-2.84,3.11-4.47,4.95-.64-1.53-1.11-2.9-1.76-4.17-.52-1-1.11-2.06-1.93-2.8-1.78-1.59-4.09-1.41-6.21.15-2.45,1.82-4.19,4.25-5.39,6.94-2.51,5.63-6.82,9.75-10.9,14.14-1.93,2.07-3.31,4.66-4.87,7.06-1.16,1.78-2.23,3.62-3.33,5.45-.5.84-1.05,1.68-1.43,2.57-.86,2-.38,2.84,1.77,3.23.4.07.81.07,1.45.12-.7,2.05-2.21,3.31-3.57,4.62-6.72,6.49-14.91,10.38-23.75,12.92-6.46,1.86-13.02,3.34-19.55,4.97-6.68,1.67-13.34,3.44-20.06,4.91-6.07,1.33-12.2,2.46-18.35,3.4-6.31.97-12.66,1.76-19.03,2.32-4.31.38-8.68.34-13.01.28-6.06-.08-12.12-.34-18.18-.54-1.55-.05-3.1-.32-4.65-.29-6.78.1-13.56.32-20.35.41-3.28.04-6.57-.1-9.86-.15-.57,0-1.16-.01-1.72.06-1.53.19-2.51,1.24-2.56,2.77-.02.65.03,1.32.16,1.96.13.62.4,1.21.6,1.81-.12.16-.23.33-.35.49Z"/>
    <path class="cls-1" d="M387.4,258.8c0,1.78,0,3.4,0,5.02.02,2.13-.07,4.27.1,6.39.42,5.16-1.85,8.53-6.42,10.79-3.5,1.74-6.77,3.94-10.18,5.87-1.71.97-3.5,1.81-5.27,2.66-5.02,2.43-10.04,4.85-15.07,7.24-.95.45-1.94.79-3.07,1.24-.25-.6-.39-1.06-.61-1.46-.87-1.59-2.25-2.25-3.91-1.51-2.23.99-4.6,1.67-6.44,3.51-1.08,1.08-2.49,1.99-3.92,2.51-4.37,1.58-8.34,3.87-12.09,6.54-4.36,3.1-9.14,5.49-13.79,8.09-1.57.88-3.04,1.96-4.6,2.85-.56.32-1.3.96-2.06-.37.73-.77,1.44-1.74,2.35-2.46,4.74-3.78,9.45-7.62,14.34-11.2,3.83-2.81,7.91-5.29,11.89-7.9,3.71-2.43,7.43-4.83,11.14-7.26.68-.45,1.52-.83,1.95-1.47,1.8-2.68,4.33-4.64,6.48-6.98,2.32-2.52,4.4-5.28,6.4-8.06,1.18-1.64,2.5-3.04,4.17-4.11,2.34-1.5,4.68-3.02,7.12-4.34,1.35-.73,2.91-1.08,4.37-1.62,4.84-1.77,9.83-2.97,14.9-3.87.7-.13,1.43-.08,2.23-.12Z"/>
    <path class="cls-1" d="M523.56,223.83c1.99-2.37,3.85-4.86,5.99-7.08,3.26-3.4,5.27-7.5,7.1-11.72,2.48-5.71,4.81-11.49,7.19-17.24.25-.61.46-1.23.69-1.84.64-1.65.42-3.04-.64-4.58-2.79-4.03-5.29-8.27-8.02-12.34-1.41-2.1-3.04-4.06-4.64-6.02-3.88-4.79-6.54-10.16-7.87-16.18-.05-.21.03-.45.07-.95,1.63.63,3.1,1.3,4.63,1.78,4.73,1.48,9.02,3.91,13.36,6.21,2.29,1.21,2.69,3.41,3,5.59.44,2.99.81,6.01.99,9.02.2,3.34.13,6.7.23,10.05.06,1.88.26,3.75.34,5.63.17,3.74.35,7.49.43,11.23.05,2.18-.77,3.94-2.79,5.12-2.66,1.56-3.81,4.23-4.6,7.03-.75,2.63-1.73,5.1-3.31,7.36-1.02,1.46-1.69,3.17-2.63,4.7-.31.5-.94,1.04-1.48,1.1-2.62.33-4.79,1.59-6.91,3.02-.26.17-.56.28-.84.41-.09-.1-.19-.2-.28-.3Z"/>
    <path class="cls-1" d="M474.34,293.45c2.07-.83,3.74-1.44,5.35-2.17,3.66-1.64,6.4-4.52,9.44-7.01,1.83-1.5,3.79-2.86,5.78-4.14,4.2-2.71,8.42-5.39,12.7-7.97,2.09-1.26,4.33-2.29,6.52-3.37,1.47-.72,2.97-1.39,4.48-2.02,1.17-.49,2.38-.88,3.64-1.33.81,2.56,1.57,4.78,2.17,7.04.13.49-.14,1.29-.52,1.69-1.41,1.48-2.81,3.01-4.43,4.24-3.33,2.52-6.76,4.92-10.23,7.23-2.39,1.59-4.95,2.92-7.39,4.42-2.64,1.63-5.52,2.51-8.58,2.76-3.59.3-7.2.48-10.8.62-2.53.09-5.06.02-8.13.02Z"/>
    <path class="cls-1" d="M557.97,229.82c.52,1.52.44,3.06.06,4.54-.95,3.72-2.03,7.41-3.07,11.11-.07.24-.13.48-.26.69-2.23,3.8-4.42,7.63-6.75,11.38-.89,1.44-1.83,1.73-4.09,1.99.17-1.07.25-2.12.51-3.12,1.04-3.87,2.09-7.74,3.24-11.57.37-1.23,1.01-2.39,1.58-3.55,1.33-2.71,2.74-5.38,4.04-8.1.64-1.34,2.21-2.57,4.72-3.35Z"/>
    <path class="cls-1" d="M520.3,228.47c-2.08,5.41-3.93,10.26-5.77,15.05-1.71-2.74,1.11-10.51,5.77-15.05Z"/>
  </g>
</svg>