<?xml version="1.0" encoding="UTF-8"?>
<svg id="Layer_1" data-name="Layer 1" xmlns="http://www.w3.org/2000/svg" version="1.1" viewBox="0 0 213 606">
  <defs>
    <style>
      .cls-1 {
        fill: #000000;
        stroke-width: 0px;
      }
    </style>
  </defs>
  <g id="FIRE_03" data-name="FIRE 03">
    <path class="cls-1" d="M136.96,209.7c.29,3.35.7,6.48.8,9.62.16,5.02.21,10.06.11,15.08-.06,3.22-.49,6.43-.72,9.64-.21,2.87-.41,5.74-.54,8.62-.18,3.87-.46,7.75-.39,11.61.06,3.12.55,6.23.9,9.34.4,3.53.84,7.05,1.32,10.57.32,2.29.73,4.57,1.12,6.86.44,2.57.92,5.12,1.37,7.69.36,2.01.84,4.02,1.01,6.05.21,2.54-.01,4.97-1.08,7.48-1.11,2.61-1.07,5.67-1.83,8.46-1.04,3.81.4,7.38.65,11.07.17,2.39.43,4.83.15,7.19-.68,5.85-.66,11.63,1.2,17.26.91,2.74,2.09,5.41,3.33,8.03,1.09,2.29,2.35,4.51,3.7,6.67.81,1.3,1.92,2.41,3.27,4.06.87-2.3,1.84-4,2.13-5.8.87-5.4,1.84-10.87.63-16.3-.98-4.44-2.49-8.75-3.77-13.12-.36-1.23-.72-2.46-1.17-4,6.27,3.89,10.4,9.16,13.17,15.38,1.25,2.81,1.63,6.06,2.1,9.15.2,1.36.63,2.28,1.66,3.11,2.47,1.99,4.24,4.35,3.89,7.8-.21,1.98-.41,3.97-.39,5.95.04,3.57.04,7.16.49,10.68.23,1.82,1.35,3.54,2.16,5.27,1.87,3.98,3.78,7.93,5.69,11.89,2.03,4.21,2.09,8.85,3.05,13.3.94,4.37.79,8.71.51,13.1-.39,6.16.17,12.27,1.29,18.35.48,2.6.48,5.29.71,7.94.12,1.31-.67,2.15-1.42,3.06-3.05,3.72-5.49,7.77-7.37,12.23-2.31,5.48-3.61,11.21-4.72,16.98-.44,2.29-.07,4.74-.07,6.93.97.89,1.74.84,2.38.08.79-.95,1.59-1.92,2.21-2.98.63-1.07,1.01-2.28,1.59-3.38.19-.37.7-.82,1.03-.79.35.03.78.53.95.92.36.83.58,1.72.83,2.6,1.6,5.58,3.05,11.21,4.82,16.74,1.24,3.86,2.9,7.58,4.39,11.36,1.92,4.89,2.93,10,3.77,15.15.2,1.23.37,2.46.59,3.69.3,1.68-.05,3.22-.6,4.83-.91,2.66-1.62,5.41-2.26,8.15-1.31,5.6-3.27,10.95-5.96,16.03-1.66,3.15-3.44,6.25-4.9,9.5-1.28,2.86-3.25,5.18-5.26,7.46-3.56,4.05-7.29,7.94-10.96,11.89-.45.48-.93.96-1.48,1.31-1.42.91-2.88.73-4.03-.48-3.15-3.3-6.33-6.58-9.4-9.96-2.01-2.21-4.33-3.7-7.18-4.7-10.2-3.57-20.47-3.66-30.9-1.26-4.36,1-8.77,1.76-13.18,2.53-1.11.19-2.32.13-3.44-.05-2.85-.46-5.85-.65-8.49-1.7-3.17-1.26-6.18-3.02-8.7-5.51-3-2.98-6.15-5.82-9.26-8.68-.94-.87-1.96-1.28-3.39-.99-2.27.45-4.61.55-6.92.77-1.27.12-2.27-.24-2.83-1.52-2.56-5.91-6.53-10.97-9.84-16.42-3.18-5.24-5.78-10.83-8.72-16.22-1.83-3.35-3.99-6.52-5.71-9.93-2.28-4.52-4.19-9.21-6.39-13.77-2.06-4.27-4.42-8.37-7.59-11.95-1.52-1.72-1.58-2.37-.32-4.41,1.31-2.12,2.59-4.27,4.09-6.26,3.09-4.11,4.29-8.75,4.09-13.8-.26-6.54-.49-13.09-.92-19.62-.42-6.36-.99-12.72-1.68-19.06-.34-3.12-1.14-6.2-1.71-9.3-.15-.79-.23-1.6-.43-2.96.86.65,1.37.88,1.67,1.28,4.25,5.53,8.48,11.07,12.68,16.63,1.04,1.38,1.2,2.87.91,4.68-.4,2.51-.46,5.15-.17,7.67.58,5.1,1.43,10.18,2.29,15.25,1.13,6.64,3.08,13.07,5.33,19.41.64,1.8,1.21,3.62,1.89,5.4.32.84.75,1.68,1.3,2.39.96,1.24,2.2,1.13,3.01-.24.33-.56.52-1.22.73-1.85,1.61-4.91,1.7-9.95,1.32-15.05-.76-10-3.79-19.49-6.38-29.09-1.9-7.04-3.55-14.15-5.52-21.17-1.05-3.74-2.57-7.35-3.87-11.03-1.72-4.85-3.4-9.7-5.14-14.54-.66-1.84-.45-3.53.4-5.28,3.16-6.49,6.28-13,9.36-19.53.95-2.02,1.58-4.2,2.6-6.19,1.7-3.32,3.54-6.57,5.4-9.81,3.48-6.04,6.99-12.07,10.53-18.08,1.39-2.36,2.82-4.7,4.38-6.94,2.29-3.28,4.32-6.69,5.85-10.39,2.58-6.21,6.2-11.71,10.94-16.5,1.79-1.81,3.31-3.88,5.31-6.25.54,4.49,1.03,8.53,1.57,12.98,2.24-1.07,4.1-1.92,5.93-2.84,1.05-.53,1.09-1.57,1.15-2.59.4-6.38.94-12.76,1.18-19.15.28-7.47.48-14.95.37-22.42-.08-4.97-.75-9.94-1.19-14.9-.4-4.55-.89-9.09-1.25-13.64-.06-.69.27-1.43.52-2.11.47-1.24.94-2.49,1.56-3.65,1.83-3.44,1.68-7.06,1.02-10.7-1.55-8.56-3.2-17.11-4.76-25.67-.61-3.33-.95-6.72-1.68-10.02-.51-2.33-1.37-4.61-2.24-6.84-.87-2.22-1.19-4.25.44-6.3,1.08-1.36,1.96-2.88,3-4.44-2.71-2.76-3.52-6.53-4.93-10.04-1.1-2.75-2.39-5.47-3.96-7.98-1.93-3.1-3.89-6.15-5.44-9.49-1.96-4.21-4.18-8.31-6.41-12.39-.57-1.05-.81-1.97-.34-3.04.57-1.28.94-2.74,1.79-3.79,2.6-3.2,4.4-6.83,6.08-10.54,1.99-4.38,3.81-8.84,6-13.12,3.61-7.05,3.94-14.51,3.03-22.1-.52-4.41-.13-8.63,1.47-12.71,1.44-3.69,3.3-7.23,4.66-10.95,1.22-3.33,2.25-6.77,2.98-10.24,1.95-9.33,3.74-18.7,5.5-28.07.52-2.76.69-5.59,1.06-8.39.08-.61.31-1.21.61-2.32,1.03,2.19,1.22,3.99,1.29,5.78.27,7.72.52,15.45.7,23.17.15,6.12.09,12.24.3,18.36.12,3.56.65,7.11.87,10.67.06,1.03-.23,2.1-.46,3.13-.72,3.14-1.59,6.25-2.23,9.41-1.52,7.48-2.99,14.96-4.37,22.46-.53,2.85-.76,5.76-1.1,8.65-.06.49-.04,1,.04,1.49.75,4.41,1.51,8.83,2.3,13.24.8,4.49,1.85,8.94,2.39,13.46.94,7.96,3.09,15.6,5.38,23.23,2.36,7.86,4.64,15.75,6.86,23.66.74,2.63,1.28,5.32,1.78,8.01.74,3.96,2.15,7.65,4.1,11.16,1.55,2.8,3.96,4.39,7,5.1,1.86.43,3.72.9,5.61,1.1,1.78.19,3.6.04,5.72.04ZM116.6,394.98c-1.34.25-2.46.52-3.6.64-2.39.26-4.78.43-7.17.65-2.98.27-4.52,2.47-3.38,4.95.83,1.79,1.91,3.47,2.76,5.25.7,1.47,1.29,3.01,1.77,4.57.28.91-.16,1.47-1.23,1.73-1.49.36-2.72-.31-4.07-.57-3.68-.72-5.32.36-4.71,4.41.09.57.31,1.12.47,1.68.27.96.64,1.9.79,2.88.42,2.79.81,5.58,1.11,8.38.62,5.84.05,11.58-1.59,17.21-1.72,5.91-4.06,11.57-6.58,17.17-2.17,4.83-3.84,9.85-6.37,14.54-3.79,7.02-8.2,13.6-12.93,19.99-1.41,1.91-3.12,3.62-5.61,4.33-1.58.45-3.07,1.24-4.59,1.9-3.46,1.49-4.7,3.93-4.16,7.76.32,2.29.4,4.62.59,6.93.19,2.31.25,4.64.61,6.93.34,2.2,1.32,4.08,3.61,4.97.53.2,1.03.58,1.43.98,2.78,2.84,5.73,5.55,8.24,8.62,2.51,3.07,4.71,6.43,6.82,9.8,2.35,3.75,5.67,6.04,9.85,7.06,6.53,1.59,13.12,2.89,19.64,4.52,3.12.78,6.35,1.64,9.1,3.21,5.39,3.07,11.23,4.41,17.17,5.6,1.92.39,3.07-.56,3.13-2.48.03-.89-.14-1.81-.4-2.67-.88-2.94-1.93-5.83-2.74-8.79-.42-1.55-1.24-3.11-.57-5.02,2.15-.33,4.34-.78,6.55-.97,7.09-.6,13.88-2.36,20.43-5.07,2.15-.89,2.63-1.7,2.46-3.99-.05-.66-.14-1.33-.32-1.96-.6-2.14-.84-4.51-1.96-6.35-1.99-3.25-4.99-5.66-8.79-6.52-3.27-.74-5.06-2.68-6.32-5.64-3.73-8.78-7.65-17.48-11.43-26.24-1.01-2.35-1.81-4.8-2.68-7.21-.56-1.53-.13-2.83.72-4.21,1.48-2.38,2.8-4.87,4.04-7.39,2.51-5.06,5.27-9.92,9.2-14.08,2.73-2.89,5.19-6.04,7.6-9.2,3.11-4.09,6.06-8.3,9.07-12.47.34-.47.62-.98.89-1.48,2.05-3.71.74-7.59-3.16-9.23-1.06-.45-2.2-.74-3.33-.99-1.11-.25-1.76-.77-1.85-1.98-.1-1.24-.34-2.46-.52-3.69-.43-2.95-.79-5.9-1.32-8.83-.2-1.08-.33-2.26-1.5-3-2.59-1.65-4.38-1.31-6.35,1.07-.99,1.2-1.9,2.79-4.06,2.68-.38-.91-.82-1.79-1.12-2.72-1.46-4.49-2.78-9.03-4.36-13.47-1.95-5.45-4.27-10.78-6.15-16.25-2.61-7.6-4.72-15.35-6.43-23.2-1.94-8.93-2.6-18.03-3.66-27.07-.57-4.86-.82-9.76-1.35-14.62-.31-2.79-1-5.53-1.33-8.31-.26-2.21-.23-4.46-.33-6.65-2.14-.92-2.38-.83-2.76,1.15-.15.81-.16,1.65-.16,2.48-.01,4.74-.01,9.48,0,14.22.02,4.82-.1,9.64.12,14.45.22,4.89.83,9.75,1.19,14.63.42,5.71.73,11.43,1.11,17.14.52,7.7,1.44,15.38,1.01,23.11-.09,1.55-.36,3.09-.56,4.73ZM59.93,443.14c-.26-4.85-.48-9.7-.82-14.54-.21-2.97-.44-5.97-.98-8.9-.62-3.37-.91-6.72-.8-10.14.12-3.77,1.29-6.77,5-8.42,2.13-.94,4-2.35,5.57-4.1,2.71-3.03,5.54-5.97,8.03-9.18,1.97-2.53,3.6-5.35,5.21-8.14,1.19-2.06.66-4.38.46-6.59-.11-1.31-.43-2.6-.69-4.11-2.18,3.3-4.1,6.28-6.1,9.2-1.69,2.46-3.39,4.91-5.24,7.25-2.26,2.87-4.75,5.52-7.9,7.49-4.88,3.05-9.07,6.98-13.33,10.81-.78.7-1.36,1.43-1.36,2.52,0,1.79,0,3.58,0,5.66.94-.2,1.63-.39,2.34-.49,1.66-.25,3.25-.02,4.2,1.49.7,1.1,1.35,2.35,1.55,3.61.65,4.18,1.06,8.39,1.59,12.59.6,4.74,1.15,9.49,3.25,13.99Z"/>
    <path class="cls-1" d="M51.94,323.52c0-8.23.01-16.45,0-24.68-.03-18.2-.09-36.41-.12-54.61-.01-6.15.06-12.3,0-18.45-.02-2.57-.21-5.14-.43-7.7-.11-1.23.35-1.99,1.26-2.74,1.73-1.42,3.47-2.86,4.98-4.49,3.23-3.49,4.67-7.87,5.08-12.46.55-6.09-.51-12.07-2.19-17.94-.55-1.92-1.6-3.13-3.59-3.66-3.16-.85-6.08-2.23-8.55-4.44-1.11-.99-2.45-1.4-3.91-1.31-2.77.16-4.94-1.02-6.97-2.77-1.8-1.55-2.79-3.45-3.12-5.75-.43-2.95-.97-5.89-1.25-8.86-.37-3.83.25-7.61,1.05-11.34,1.3-6.03,3.46-11.77,6.1-17.33.53-1.11,1.22-2.14,2.08-3.63.21.71.35.96.35,1.21.21,5.98.48,11.96.58,17.94.07,4.57-.1,9.14-.11,13.71,0,2.64.12,2.94,2.69,2.41,4.29-.89,8.5-2.16,12.74-3.29,1.44-.38,2.85-.93,4.31-1.2,1.86-.35,2.68.36,2.61,2.26-.14,3.88.72,7.56,1.96,11.19,2.93,8.55,5.79,17.12,8.7,25.68.67,1.96,1.48,3.88,2.05,5.87.23.8.18,1.8-.08,2.6-2.65,8.15-4.81,16.42-5.05,25.04-.18,6.3-.11,12.6-.06,18.9.04,4.84-.51,9.62-1.66,14.29-1.76,7.16-3.68,14.28-5.62,21.4-1.68,6.16-3.44,12.3-5.23,18.42-1.18,4.06-2.72,8.02-3.65,12.13-1.08,4.73-2.98,9.12-4.97,13.58Z"/>
    <path class="cls-1" d="M140.08,81.65c-1.29-1.05-1.49-2.01-1.02-3.29,1.18-3.2,2.5-6.32,4.57-9.07.65-.86,1.4-1.69,1.84-2.66,1.27-2.77,3.61-3.15,6.23-2.98,2.89.19,5.78.49,8.68.6,2.84.11,3.87.59,4.49,3.26,1.32,5.7,4.27,10.59,7.36,15.41,2.08,3.26,4.28,6.44,6.47,9.71-.24.08-.63.36-.99.32-2.61-.32-4.64.99-6.65,2.33-4.78,3.18-8.45,7.46-11.85,11.99-3.44,4.58-6.5,9.4-8.61,14.79-1.6,4.08-3.55,8.03-5.3,12.06-.45,1.04-.71,2.16-1.11,3.41,1.51.31,2.79.56,4.06.83,2.11.45,3.07,1.9,2.47,3.99-1.24,4.3-2.84,8.52-3.81,12.88-1.34,5.98-2.24,12.05-3.32,18.09-.1.57-.05,1.17-.2,1.73-.57,2.15-.41,4.27.18,6.39.28,1.02.43,2.09.28,3.3-.24-.5-.6-.98-.71-1.52-.83-4.22-1.68-8.45-2.39-12.69-.92-5.48-1.89-10.96-2.49-16.47-.46-4.19-.58-8.45-.47-12.66.21-8.32,1.58-16.53,3.54-24.58,1.78-7.31,4.09-14.52,6.61-21.62,1.2-3.39,3.44-6.41,5.21-9.59.45-.8.83-1.66,1.43-2.33,1.82-2.07,1.28-4.07,0-6.1-.04-.07-.07-.15-.12-.22-2.32-3.16-2.41-3.84-5.51-.83-2.52,2.45-5.68,3.97-8.88,5.53Z"/>
    <path class="cls-1" d="M26.17,313.67c-1.28-.88-2.4-1.66-3.91-2.7-.46,4.02.96,7.36,1.53,10.77.59,3.51,1.51,6.97,2.45,10.41.92,3.39,2.05,6.73,3.2,10.45-1.38-1.27-2.75-2.17-3.62-3.41-3.73-5.38-7.45-10.79-10.91-16.34-2.54-4.08-3.42-8.81-3.94-13.5-.56-5.1-.96-10.26-.94-15.38.03-6.04.2-12.18,2.39-17.92,1.35-3.54,3.16-6.93,5.04-10.22,1.56-2.73,3.48-5.24,4.59-8.22.62-1.67,1.58-3.04,3.16-4.01,1.04-.64,1.88-1.59,3.23-2.78.1,1.36.23,2.28.22,3.2-.05,4.5.28,8.93,1.46,13.31.85,3.15,2.38,5.81,4.65,8.08.35.35.74.67,1.05,1.07,1.05,1.36.8,2.14-.76,2.81-4.31,1.86-7.82,4.66-10.11,8.82-.42.76-.75,1.72-.71,2.58.2,4.89.46,9.77.84,14.65.21,2.71.68,5.4,1.07,8.34Z"/>
    <path class="cls-1" d="M153.26,216.44c1.1.31,1.19,1.16,1.34,1.95.55,2.93,1.1,5.87,1.65,8.8.91,4.8,1.85,9.58,2.72,14.39,1.01,5.54,1.96,11.09,2.94,16.63,1.17,6.61,3.93,12.63,6.87,18.58.73,1.49,1.36,3.06,2.31,4.39,1.16,1.62.66,2.81-.3,4.26-1.74,2.62-3.5,5.26-4.9,8.07-2.1,4.22-3.9,8.59-5.82,12.9-.13.3-.16.68-.36.92-.39.46-.83,1.13-1.32,1.2-.84.13-1.23-.56-1.38-1.41-.57-3.18-1.23-6.34-1.79-9.52-.96-5.47-1.97-10.93-2.77-16.41-.88-6.08-1.62-12.19-1.22-18.34.3-4.55.92-9.07,1.27-13.62.67-8.93,1.61-17.86.78-26.84-.18-1.93-.03-3.9-.03-5.94Z"/>
    <path class="cls-1" d="M204.91,447.47c-2.32,4.55-5.56,8.19-8.8,11.86-1.53,1.74-2.98,3.56-4.47,5.33-.48.57-.88,1.26-1.48,1.65-.48.31-1.33.53-1.76.3-.43-.23-.72-1.05-.75-1.63-.03-.63.3-1.27.49-1.91.99-3.34,2.12-6.63,2.94-10.01,1.51-6.28,1.46-12.63.38-18.99-.33-1.95-.31-1.95,1.99-2.84,4.02,5.25,8.27,10.42,11.46,16.24Z"/>
    <path class="cls-1" d="M138.9,524.7c-2.5.26-4.39.44-6.28.66-3.49.41-6.73-.58-9.97-1.68-2.98-1.01-5.99-1.96-9-2.88-.76-.23-1.59-.25-2.58-.4.45,2.83.86,5.41,1.28,8,.03.16.1.32.12.48.66,4.18.64,4.19-2.7,6.89-1.03.83-2.02,1.72-3.03,2.59-1.81-.4-2.37-.19-3.36,1.38-.61.96-1.14,1.97-1.7,2.94-1.37.09-1.88-.77-2.43-1.6-.79-1.17-1.59-2.33-2.42-3.47-1.85-2.55-4.11-4.13-7.35-4.99-4.45-1.19-8.73-3.15-12.89-5.18-4.03-1.96-5.61-5.92-6.8-9.99-.07-.23-.05-.5,0-.74.04-.23.16-.45.28-.79,1.71-.4,3.31.23,4.77.9,4.41,2.01,9.09,2.6,13.82,2.92,1.54.1,3.18-.07,4.68-.48,4.47-1.24,8.99-2.42,12.89-5.11.46-.32.86-.72,1.64-1.37-2.09-.67-3.85-1.25-5.62-1.79-2.9-.89-5.62-2.1-7.63-4.48-.85-1-1.74-2.04-1.08-3.67.66,0,1.35-.16,1.93.02,4.94,1.55,9.55.27,14.01-1.72,2.18-.97,4.26-2.27,6.2-3.68,2.46-1.78,2.93-3.23,1.91-6.05-1.29-3.58-2.73-7.12-4.31-10.58-1.54-3.37-2.78-6.76-2.54-10.53.24-3.74,1.63-6.94,4.64-9.27,1.12-.87,1.65-1.91,2-3.28,1.92-7.56,4.27-14.99,7.17-22.25,1.08-2.69,1.84-5.5,2.81-8.24.27-.75.22-1.88,1.84-1.96-.27,2.09-.41,4.04-.78,5.95-.86,4.51.36,8.57,2.58,12.39,1.05,1.8,2.94,1.56,4.67,1.56.57,0,1.14-.14,1.71-.12.2,0,.39.29.78.6-.48.55-.83,1.08-1.3,1.46-7.19,5.92-13.21,12.83-17.92,20.88-.17.29-.29.62-.51.85-2.15,2.24-1.66,4.48-.68,7.23,3.2,8.99,6,18.11,8.96,27.18,1.79,5.46,3.68,10.87,7.23,15.5,1.06,1.38,2.24,2.66,3.37,3.99.45.53.91,1.07,1.63,1.91Z"/>
    <path class="cls-1" d="M86.58,512.88c-2.08-5.51-4.25-10.44-5.06-15.79-.37-2.46.59-4.77,2.19-6.64,2.72-3.18,6.13-5.52,9.65-7.72,2.45,1.09,3.25,3.34,4.27,5.39,1.45,2.88,2.87,5.78,4.28,8.67.13.27.13.62.23,1.2-4.72.32-9.26-1.22-14.18-.44-.07,1.75-.11,3.46-.23,5.16-.12,1.65-.06,3.37-.56,4.9-.52,1.62,1.24,3.3-.6,5.27Z"/>
    <path class="cls-1" d="M117.71,400.7c1.19-.45,1.7-.03,2.16.67,1.61,2.41,3.26,4.8,4.87,7.21.46.69.94,1.41,1.17,2.18.17.57.15,1.41-.16,1.86-2.76,3.98-4.51,8.46-6.55,12.8-3.63,7.74-5.4,15.99-6.57,24.4-.06.45-.23.88-.49,1.85-.46-.83-.8-1.17-.82-1.53-.07-1.58-.14-3.16-.04-4.74.26-4.45-.58-8.74-1.63-13.02-.37-1.5-.35-3.12-.3-4.68.03-1.23.58-2.16,1.7-3.02,2.14-1.67,4.08-3.64,5.93-5.63,3.1-3.34,3.54-7.36,2.57-11.63-.35-1.53-.93-3-1.37-4.51-.21-.73-.32-1.49-.46-2.2Z"/>
    <path class="cls-1" d="M111.81,550.41c-2.21,1.98-4.55,2.94-7.12,3.04-3.31.13-6.62-.08-9.94-.12-1.98-.02-3.31-.93-3.91-2.82-.89-2.82-1.62-5.68-1.54-9.25.6.74.98,1.03,1.11,1.4,1.71,4.91,5.29,7.27,10.33,7.42,3.12.09,6.26-.14,9.39-.17.44,0,.89.26,1.67.51Z"/>
  </g>
</svg>