<?xml version="1.0" encoding="UTF-8"?>
<svg id="Layer_1" data-name="Layer 1" xmlns="http://www.w3.org/2000/svg" version="1.1" viewBox="0 0 346 632">
  <defs>
    <style>
      .cls-1 {
        fill: #32FCC7;
        stroke-width: 0px;
      }
    </style>
  </defs>
  <g id="FIRE_01" data-name="FIRE 01">
    <path class="cls-1" d="M78.89,568.61c.74.32,1.46.7,2.22.95.86.29,1.75.57,2.64.66,2.68.27,3.54-.37,4.26-3.03.17-.63.33-1.26.52-1.94,2.82-.24,4.76,1.85,7.16,2.67.16-.4.35-.64.31-.84-1.51-7.68-4.58-14.48-10.64-19.75-4.12-3.59-8.74-5.22-14.18-4.6-1.95.22-3.67-.5-4.7-2.16-.99-1.6-1.94-3.31-2.4-5.1-.64-2.47-.71-5.08-1.18-7.6-.67-3.58-1.4-7.15-2.25-10.68-.5-2.08-1.29-4.1-1.96-6.17-1.07-.63-2.09-.43-3,.28-1.34,1.04-2.7,1.59-4.71.27-.24-1.07-.8-2.57-.89-4.1-.37-6.28-.28-12.55.73-18.79.76-4.71,1.37-9.45,2.12-14.17.36-2.26.91-4.5,1.36-6.75.79-3.89,1.47-7.8,2.38-11.66,1.06-4.51,2.36-8.96,3.44-13.46.45-1.9.6-3.87.89-5.81.22-1.44.44-2.88.67-4.31.4-2.52.99-5.02,1.14-7.55.14-2.19.73-4.23,1.28-6.31.37-1.42.82-2.86.91-4.31.13-2.16,1.31-3.66,2.76-5.35,2.44,1.01,4.87,2.01,7.5,3.09,2.17-2.55,4.52-4.99,5.74-8.32.59-1.61,1.64-3.04,2.44-4.57.6-1.14.6-2.24.18-3.56-2.41-7.53-2.74-15.11.07-22.64,1.35-3.63,2.55-7.35,4.29-10.8,1.88-3.74,4.1-7.36,6.54-10.77,3.22-4.5,6.79-8.75,10.21-13.1.26-.33.61-.59.8-.95,2.41-4.62,6.32-7.5,10.97-9.57,1.12-.5,2.07-1.37,3.18-1.93,2.27-1.15,4.73-2,6.85-3.37,2.65-1.7,5.44-3.05,8.25-4.44,3.29-1.63,6.34-3.74,9.52-5.61,3.53-2.08,7.05-4.19,10.65-6.15,2.16-1.18,4.54-1.96,6.67-3.18,2.22-1.27,4.18-2.95,5.72-5.05,2.57-3.49,6.08-5.81,9.9-7.67,3.72-1.8,7.58-3.33,11.28-5.17,1.91-.95,3.7-2.2,5.35-3.56,2.18-1.78,4.15-3.81,6.24-5.71,2.43-2.22,3.36-5.23,4.51-8.18,2.77-7.13,2.83-14.59,2.89-22.05.02-1.98-.2-3.97-.34-5.95-.12-1.75-1.12-2.93-2.63-3.66-1.79-.86-3.61-1.64-5.44-2.42-5.93-2.55-12.15-3.79-18.55-4.37-2.22-.2-4.42-.68-6.62-1.07-2.17-.38-4.05.67-4.79,2.71-.71,1.96-.71,3.8.24,5.76.78,1.6,1.35,3.41,1.53,5.18.46,4.54-2.71,6.44-6.64,6.55-3.95.11-7.92-.42-11.88-.79-6.81-.63-12.76-3.23-17.79-7.94-1.44-1.35-3.19-2.38-4.6-3.76-4.27-4.18-8.21-8.67-11.42-13.72-1.93-3.04-2.61-6.59-3.29-10.11-.37-1.94-.85-3.88-1.56-5.72-.39-1.02-1.22-1.98-2.08-2.7-2.77-2.34-5.02-5.05-6.59-8.32-1.36-2.84-2.74-5.67-3.98-8.56-.45-1.04-.68-2.24-.72-3.38-.25-6.99-1.49-13.84-2.63-20.71-.44-2.68-.45-5.43-.65-8.15-.02-.24.07-.5.06-.74-.1-2.06-.34-3.77-2.33-5.29-3.35-2.56-6.05-5.85-8.21-9.58-1.7-2.93-3.83-5.61-5.68-8.46-2.1-3.22-3.38-6.81-4.39-10.5-1.84-6.79-3.66-13.58-5.52-20.36-1.08-3.92-.43-7.78.72-11.5,1.74-5.63,4.18-10.99,7.53-15.89.56-.82,1.15-1.61,1.74-2.4,1.6-2.17,2.54-4.63,3.32-7.18.19-.63.33-1.3.62-1.88.65-1.29,1.43-2.39,3.18-2.28.98.06,1.98-.17,2.96-.34,1.24-.22,2.11-.84,2.3-2.21.13-.9.35-1.79.59-2.67.68-2.53,2.29-4.18,4.83-4.82,3.32-.83,6.16-2.35,8.16-5.22.42-.61.87-1.31,1.48-1.66,2.93-1.69,2.58-4.8,3.31-7.42.14-.51-.27-1.24-.57-1.79-1.02-1.86-.76-6.31.53-8.03.76-1.02,2.06-1.6,3.29-1.04,1.91.88,3.9.65,5.86.82,2.9.26,5.61.67,8.07,2.67,1.99,1.61,4.65,1.91,7.31,1.18,2.7-.75,5.45-1.29,8.16-1.98,1.91-.48,3.93-.79,5.66-1.67,1.49-.75,2.63-2.18,3.92-3.32,3.3-2.95,6.18-6.24,8.06-10.3.35-.75.76-1.48,1.2-2.18,1.52-2.48,3.12-3.16,6.03-2.55.89.19,1.76.49,2.64.71,1.51.37,3.02.9,4.55,1.03,1.81.15,3.44.4,4.33,2.15,1.22-.31,2.29-.73,3.4-.81,1.06-.08,2.14.21,3.22.29,1.49.11,2.98.22,4.47.26,1.97.04,3.53.7,4.37,2.71-2.49,4.37-.69,8.52,1.03,12.64,1.01,2.43,2.38,4.76,1.72,7.56-.09.4-.09.88-.31,1.19-1.85,2.68-1.65,5.75-2.02,8.78-.46,3.77-1.49,7.51-5.02,9.83-.14.09-.26.23-.41.28-.96.33-1.87,1.42-2.96.52-1.07-.87-.07-1.77.16-2.67.24-.93.23-1.93.45-2.87.74-3.16,2.06-6.03,3.83-8.8,2.05-3.2,2.78-6.3-.02-9.3-2.35-2.52-3.41-5.61-2.31-9.17.31-1,.22-2.12.34-3.43-.72-.2-1.41-.57-2.09-.56-2.48.05-5.04-.12-7.4.46-1.93.47-3.8,1.68-5.38,2.94-7.59,6.04-15.58,11.6-22.55,18.41-2.55,2.49-5.54,4.5-8.15,6.93-3.46,3.21-6.92,6.48-8.44,11.19-1.1,3.42-1.57,6.95-1.66,10.53-.06,2.57.05,5.15-.03,7.73-.07,2.29.29,4.51,1.21,6.56,1.56,3.47,3.14,6.96,5.04,10.25,1.93,3.35,5.11,5.51,8.67,6.78,1.61.57,3.63.28,5.41.03,2.46-.35,4.87-1.02,7.29-1.56,5.09-1.14,10.16-2.39,15.28-3.37,1.57-.3,3.29.04,4.93.19,5.28.51,10.6.91,15.61,2.85,6.48,2.51,13.06,4.76,19.24,8.07,2.79,1.49,6.08,2.13,9.21,2.84,5.01,1.12,10.08,2,15.14,2.93,1.63.3,3.29.51,4.94.57,1.14.04,2.33-.1,3.41-.44,2.19-.68,2.88-2.33,1.49-4.22-2.5-3.4-5.09-6.76-8.99-8.79-5.23-2.72-10.49-5.36-16.04-7.37-1.4-.51-2.8-1.06-3.38-2.64.52-1.27,1.56-1.37,2.68-1.39,3.38-.07,6.56.93,9.73,1.88,2.77.84,5.47,1.92,8.19,2.9,5.06,1.83,10.14,3.6,15.17,5.51,4.43,1.68,8.64,3.82,12.63,6.4,3.13,2.02,6.4,3.84,9.54,5.86,2.51,1.61,4.98,3.29,7.33,5.12,5.1,3.98,10.23,7.94,15.14,12.14,5.03,4.31,10.64,7.92,15.06,12.97,2.56,2.93,4.54,6.09,5.62,9.83.85,2.94,1.74,5.88,2.69,8.79.32.98.31,1.71-.55,2.42-.76.63-1.44.74-2.23.16-.52-.39-1.07-.75-1.82-1.27.43,3,1.4,5.56,2.6,7.98,5.44,11,9.05,22.61,11.55,34.56.95,4.52,1.2,9.19,1.68,13.8.26,2.55.42,5.13.47,7.69.15,8.6-1.8,16.81-5.08,24.68-3.07,7.37-5.51,14.92-7.17,22.72-.53,2.51-1.58,4.69-3.15,6.67-2.22,2.8-4.38,5.64-6.7,8.35-1.06,1.25-2.43,2.24-3.66,3.36-1.81-.3-3.18-.98-4.12-2.56-2.15-3.61-5.33-6.06-9.17-7.62-1.74-.71-3.57-1.44-5.4-1.59-3.94-.3-7.91-.49-11.84.54-1.91.5-3.92.56-5.87.9-.91.16-1.69.07-2.21-.69-.72-1.05-1.77-1.12-2.86-1.11-3.62.02-7.05.88-10.33,2.37-5.16,2.34-9.49,5.71-12.95,10.23-2.32,3.03-4.94,5.83-7.17,8.92-3.09,4.28-4.7,9.3-6.58,14.18-2.63,6.81-5,13.71-6.05,20.97-.76,5.25-1.55,10.49-2.17,15.76-.4,3.37.31,6.61,1.82,9.67.88,1.78,1.67,3.62,2.68,5.33,1,1.71,2.15,3.35,3.37,4.9,1.12,1.43,2.41,2.73,3.66,4.06,1.83,1.95,3.1,2.18,5.53,1.12,2.73-1.19,5.45-2.43,8.22-3.55,3.44-1.39,6.37-3.5,9.11-5.96.36-.32.78-.56,1.45-1.03.33,1.57.63,2.9.89,4.25.88,4.58,1.3,9.17,1.03,13.86-.29,5.07.22,10.12,1.15,15.11.26,1.38.23,2.64-.44,3.84-2.83,5.06-5.54,10.21-8.59,15.14-2.05,3.3-4.62,6.28-6.91,9.43-1.27,1.74-2.71,3.43-3.6,5.36-.69,1.51-.71,3.35-.93,5.05-.12.9-.02,1.82-.02,2.84.69.46,1.37.91,2.04,1.35,3.69-2.03,6.92-4.49,8.93-8.71.6,1.05,1.01,1.63,1.28,2.28,1.18,2.74,2.47,5.44,3.42,8.26.65,1.93.84,4.03,1.17,6.06.37,2.29.59,4.6,1.02,6.87.17.91.74,1.74,1.23,2.83,2.48-3.08,3.86-6.31,4.92-9.72,1.57-5.07,3.18-10.11,4.75-15.18.46-1.5.81-3.03,1.25-4.54.32-1.09.69-2.16,1.54-3.23.11.57.29,1.14.31,1.71.27,8.79.42,17.59-.16,26.35-.61,9.18-1.52,18.35-3.5,27.37-1.5,6.79-2.64,13.68-4.55,20.36-2.82,9.88-6.19,19.6-9.3,29.39-1.65,5.2-4.19,9.89-8.2,14.32-.18-7.31,1.51-14.19.74-21.62-.55.75-.9,1.13-1.14,1.57-4.07,7.42-8.02,14.9-10.83,22.91-1.06,3-1.53,6.04-1.14,9.27.35,2.95.48,5.96.36,8.94-.1,2.54-.46,5.13-1.1,7.59-1.94,7.43-5.47,14.2-8.99,20.96-1.43,2.75-3.8,4.55-6.42,6.07-.65.37-1.29.76-1.98,1.05-3.36,1.39-5.72,3.68-7.33,7.02-1.44,2.99-4.24,4.87-7.09,6.46-5.6,3.13-11.57,5.29-17.73,7.09-4.67,1.37-9.42,1.69-14.2,2.08-3.05.24-6.09.81-9.14.95-7.34.33-14.64,1.03-22-.51-7.01-1.47-13.81-3.52-20.31-6.42-6.31-2.81-12.05-6.59-16.91-11.63-4.26-4.41-8.72-8.63-12.6-13.41-5.36-6.58-10.17-13.52-14.12-21.04-.36-.68-.54-1.45-.8-2.18.19-.14.38-.29.57-.43ZM111.47,489.02c-1.61,3.08-3.14,5.56-4.25,8.22-1.31,3.13-2.28,6.39-3.35,9.61-.87,2.61-1.51,5.26-1.13,8.06.18,1.31.18,2.64.32,3.95.45,4.19.88,8.35,3.06,12.15,1.23,2.14,2.11,4.5,3.04,6.81,1.73,4.26,3.73,8.32,7.38,11.32,1.73,1.42,3.33,3.01,5.15,4.31,1.93,1.38,2.36,3.27,2.39,5.41.07,4.18.96,8.24,2.22,12.17,1.08,3.38,2.56,6.64,4.01,9.88.57,1.26,1.36,2.54,2.37,3.47,2.8,2.56,5.54,5.32,8.73,7.31,5.33,3.31,10.83,6.46,17.02,8.03,1.04.26,2.05.66,3.08.97,6.75,2.03,13.58,2.92,20.58,1.37.94-.21,1.95-.31,2.68-1.69-.57-.43-1.28-.78-1.73-1.34-1.46-1.79-3.16-3.49-4.16-5.53-2.99-6.08-4.3-12.68-5.15-19.35-.37-2.9.14-5.8,1.79-8.35,1.55-2.4,1.72-2.54-.19-4.73-3-3.42-2.64-7.18-1.46-11.02.58-1.9,1.56-3.93,3.81-4.21,2.61-.33,5.27-.22,7.91-.22,1.01,0,1.93.09,2.78-.69,3.4-3.14,6.83-6.25,10.28-9.34,1.53-1.36,2.96-3.02,4.76-3.82,2.42-1.08,3.59-2.73,4.08-5.13,1.49-7.3,2.93-14.6,6.18-21.39,1.11-2.32.03-5.25-2-6.52-1,2.25-2.13,4.46-3,6.77-1.88,5.02-5.09,9.06-9.06,12.5-1.53,1.33-3.37,2.59-5.28,3.14-3.22.93-6.34-.14-5.83-3.96.02-.16,0-.33-.02-.5-.32-3.42-2.16-4.9-5.52-4.39-.98.15-1.93.45-2.89.67-1.71.38-3.23-.48-3.43-1.9-.62-4.25-1.28-8.5-1.9-12.75-.38-2.62-.99-5.24-1.01-7.86-.04-4.89.07-9.79.48-14.66.45-5.36,1.2-10.7,2.01-16.01.52-3.37,1.59-6.61,3.77-9.35,3.35-4.23,6.91-8.26,11.36-11.39.27-.19.42-.55.78-1.05-5.12.4-8.66,3.14-11.7,6.44-2.91,3.16-5.32,6.76-8.06,10.09-2.8,3.42-5.07,7.12-6.82,11.18-1.44,3.35-3.03,6.63-4.65,9.89-.28.56-1.07,1.22-1.61,1.21-.97-.02-1.24-.93-1.19-1.85.25-4.06.35-8.13.78-12.17.66-6.26,1.52-12.5,2.31-18.75.6-4.77,1.24-9.53,1.84-14.3.07-.54,0-1.1,0-1.97-.73.54-1.24.9-1.73,1.29-2.55,2.02-3.44,1.77-4.95-1-2.17-3.99-3.21-8.34-4.2-12.7-.38-1.7-.62-3.37-.02-5.14,1.53-4.55,2.94-9.14,4.35-13.73,2.39-7.75,5.1-15.43,7-23.31,1.43-5.92,1.82-12.1,2.61-18.17.9-6.9,1.83-13.79,4.54-20.28.08-.19-.02-.47-.05-.88-4.32.65-8.41,1.8-12.37,3.53-3.86,1.68-7.79,3.2-11.67,4.84-3.88,1.64-8.02,2.78-11.81,5.58,1.92,1.09,3.45,1.91,4.93,2.8,7.02,4.24,10.65,10.43,10.57,18.68-.02,2.63-.05,5.28-.42,7.87-.3,2.09-.28,4.46-2.6,5.84.64.86,1.25,1.63,1.81,2.44.83,1.2,1.46,2.66.81,3.93-.77,1.5-1.94,2.87-3.2,4.02-1.52,1.37-3.34,2.4-4.97,3.66-4.38,3.36-5.95,8.45-7.88,13.26-.85,2.12-.88,4.56-1.58,6.75-1,3.15-2.41,6.16-3.38,9.31-1.22,3.95-2.28,7.96-3.21,11.99-1.11,4.8-2.06,9.65-2.97,14.49-.78,4.14-1.41,8.31-2.08,12.47-.18,1.14-.42,2.3-.36,3.44.24,4.63.59,9.25.87,13.87.06.91.1,1.84,0,2.74-.29,2.71-.65,5.41-1.01,8.11-.07.53-.27,1.04-.41,1.53-2.21.17-3.36-1.15-4.56-2.42-1.07-1.13-2.22-2.17-3.64-3.54ZM145.26,196.36c1.41-1.89,3.3-1.37,5.04-1.03,4.06.79,8.08,1.71,12.13,2.54.72.15,1.48.13,2.22.21,2.39.25,4.91.11,7.13.86,3.75,1.26,7.46,2.81,10.91,4.73,4.48,2.5,9.09,4.3,14.2,4.96,3.67.47,7.17,1.67,9.85,4.36,2.21,2.22,4.49,4.5,6.14,7.13,3.07,4.92,5.64,10.14,8.51,15.18,2.25,3.95,3,8.22,2.87,12.67-.1,3.55-.22,7.13-1.99,10.38-1.74,3.19-3.36,6.46-5.22,9.59-1.43,2.41-3.66,4.46-4.6,7.01-1.38,3.74-4.07,6.24-6.55,9.05-1.93,2.19-4.08,4.06-6.41,5.78-1.98,1.47-4.02,2.85-5.49,4.93-.78,1.1-1.92,1.95-2.93,2.88-2.28,2.14-4.61,4.24-6.86,6.41-.71.69-1.24,1.58-1.85,2.37l.47.51c3.97-2.19,7.95-4.37,11.91-6.57,1.88-1.04,3.69-2.24,5.62-3.16,3.96-1.9,8.01-3.61,11.98-5.48,8.63-4.08,14.54-10.8,18.62-19.3.47-.98,1.24-1.81,1.95-2.81,1.21.69,2.11,1.21,3.04,1.74,2.89-1.33,5.46-3.2,7.54-5.56,2.79-3.16,5.33-6.55,7.9-9.9,1.2-1.57,2.25-3.17,4.71-2.1,1.76-6.6,2.9-13.11,3.8-19.66.48-3.46.03-6.93-.47-10.37-.85-5.85-2.22-11.59-4.7-16.94-3.17-6.84-6.68-13.52-10.04-20.28-1.61-3.23-3.72-6.07-6.46-8.44-.86-.74-1.71-1.37-2.89-1.06-2.86.75-5.57.08-8.31-.69-2.55-.71-5.16-1.09-8.12-.73-.18,1.05-.36,2.07-.52,3.1-.21,1.4-1.18,2.03-2.43,1.42-.96-.47-1.98-.99-2.69-1.75-3.41-3.72-6.98-7.34-9.02-12.08-.41-.96-1.02-1.3-2.07-1.41-3.32-.34-6.59-.28-9.91.13-7.97,1.01-15.95,1.92-23.94,2.76-7.02.74-14.06,1.02-21.11.27-3.55-.38-6.16-2.07-8.04-5.16-1.55-2.55-2.12-5.39-2.91-8.16-.62-2.19-1.79-3.41-4.09-3.63-3.87-.37-6.73-2.5-8.43-5.83-1.57-3.08-2.77-6.37-3.84-9.67-.75-2.31-.99-4.78-1.45-7.16-.34.02-.59-.03-.65.05-1.76,2.49-3.62,4.93-5.16,7.55-.52.88-.51,2.29-.27,3.36.87,3.94.88,7.91.77,11.89-.02.74-.11,1.6.21,2.2,1.34,2.54,1.27,5.24,1.32,7.99.04,2.47.08,5.06.84,7.36,1.44,4.39,3.25,8.69,5.18,12.9,2.37,5.19,5.14,10.2,7.5,15.39,1.04,2.29,2.52,3.86,4.81,4.7,2.97,1.1,5.7,2.61,8.3,4.45,3.09,2.19,6.43,3.19,10.32,2.03,2.19-.66,4.56-.73,6.84-1.08.29-.04.57-.2,1.13-.4-.76-1.29-1.64-2.34-2.03-3.55-.5-1.56-1.7-2.15-2.93-2.8-2.15-1.13-4.46-1.77-6.89-1.9-1.36-.07-2.17-.64-2.49-2.18ZM129.3,45.47c-.56.04-.89-.01-1.17.1-2.31.92-4.59,1.89-6.9,2.81-2.02.81-3.52,2.22-4.53,4.09-1.1,2.04-2.11,4.13-3.05,6.25-1.35,3.03-2.49,6.16-4.99,8.52-1.51,1.42-2.89,2.98-4.41,4.39-.48.44-1.28.88-1.86.8-.96-.14-1.5-.93-1.5-2,0-.61-.11-1.22-.18-1.83-.18-.11-.36-.22-.54-.33-.13.31-.22.64-.4.91-1.77,2.61-3.7,5.12-5.31,7.83-3.87,6.49-6.04,13.32-3.24,20.85,2.57,6.93,4.5,14.03,6.05,21.24.29,1.34.73,2.65,1.11,3.98.34-.75.26-1.39.14-2.02-.37-1.95-.81-3.89-1.13-5.84-.66-4.08.15-8.11.61-12.14.09-.8.47-1.59.85-2.32,1.87-3.52,5.66-4.07,8.75-1.54,2.04,1.67,3.53,3.65,4.37,5.76,1.66,0,2.99-.12,4.29.03,1.32.15,2.61.57,4.4.98-.76-1.83-1.34-3.09-1.82-4.39-1.91-5.23-4.09-10.32-7.22-14.95-.85-1.26-1.03-2.61-.61-4.04.33-1.11.64-2.24,1.05-3.32,1.17-3.1,2.52-6.13,3.57-9.27,2.86-8.59,7.02-16.44,12.95-23.32.25-.29.4-.67.71-1.21ZM100.23,388.67c.36,5.82-.54,11.23-2.09,16.47-1.53,5.2-3.53,10.26-5.32,15.38.94-.93,1.53-2.05,2.24-3.09,3.89-5.67,7.79-11.34,11.72-16.98.8-1.15,1.69-2.24,2.61-3.3.66-.76,1.47-.93,2.46-.49.97.43,1.74.91,1.78,2.1.02.51.13,1.02.2,1.53,3.2-7.04,6.48-13.95,8.68-21.86-2.79,1.75-5.16,3.1-7.38,4.66-3.46,2.42-7.2,4.06-11.36,4.74-1.13.19-2.24.52-3.55.84ZM80.72,458.38c-.63.95-1.37,1.85-1.87,2.87-2.53,5.2-2.55,10.59-.69,15.94.91,2.63,1.05,5.02.2,7.71-1.9,6.02-1.65,12.03.87,17.95-.28-13.66,3.36-26.61,6.79-38.83-1.92-2.05-3.5-3.73-5.3-5.64ZM87.22,434.43c1.19-2.94,2.38-5.89,3.56-8.83-2.29,2.49-4.63,4.96-3.56,8.83Z"/>
    <path class="cls-1" d="M227.26,611.11c.7-1.64,1.27-3.16,3.09-4.4,2.33-1.59,4.03-4.13,5.95-6.31,1.55-1.76,3.29-3.19,5.3-4.44,1.56-.97,2.77-2.57,3.98-4.03,2.91-3.51,5.34-7.37,7.47-11.39.83-1.57,1.24-3.35,1.95-4.99,2.96-6.85,6.04-13.63,9.89-20.03.89-1.48,1.8-3,2.98-4.23,2.49-2.61,4.27-2.61,7.04-.38.19.15.44.22.78.39.25-.28.59-.53.74-.87.74-1.63,1.85-2.45,3.74-2.17.57.08,1.29-.24,1.82-.57,2.31-1.47,4.6-2.97,6.83-4.56,1.87-1.34,3-3.3,3.88-5.38,2.69-6.35,4.61-12.95,6.05-19.68,1.07-5.02,1.98-10.07,3.06-15.09,1.04-4.83,1.24-9.72,1.03-14.6-.41-9.19-.93-18.38-1.63-27.55-.42-5.53-1.73-10.92-3.54-16.18-.32-.94-.66-1.89-.78-2.86-.06-.45.24-1.21.6-1.41.71-.39,1.23.14,1.53.81.07.15.11.32.18.46,2.93,5.85,6.16,11.55,8.59,17.64.98,2.45,2.51,4.69,3.54,7.13,3.13,7.4,6.03,14.87,8.2,22.63,1.96,7,2.15,14.02,1.17,21.16-.22,1.59-.03,3.24-.03,5.42,1.8-1.68,3.09-3.04,4.54-4.2,1.35-1.08,2.78-2.13,4.33-2.88,2.07-1.01,2.99-.43,4.16,1.51,1.48,2.44,1.9,5.04,1.99,7.83.21,6.98.07,13.94-1.7,20.73-1.39,5.3-3.31,10.45-6.25,15.11-1.09,1.73-2.54,3.32-4.12,4.62-4.68,3.85-9.51,7.52-15.23,9.74-2.39.92-4.85,1.7-7.34,2.29-2.93.69-5.74-.16-8.49-1.22-1.06-.41-2.16-.73-3.59-1.21-.07,1.15-.16,2.02-.18,2.88-.06,3.17-2.05,5.32-5.28,5.65-.32.03-.65,0-1.21,0-.2.84-.5,1.69-.59,2.56-.46,4.64-2.7,8.47-5.48,12.02-1.89,2.41-4.12,4.58-5.81,7.11-2.24,3.37-5.31,5.68-8.67,7.67-2.42,1.43-4.97,2.64-7.52,3.83-2.23,1.04-4.67,1.37-7.04.94-3.24-.58-6.26-.01-9.29.95-1.18.38-2.35.8-3.55,1.11-1.23.32-2.35.25-3.54-.51-.97-.62-2.28-.7-3.54-1.05Z"/>
    <path class="cls-1" d="M39.49,550.79c-1.23-1.86-2.15-3.5-3.32-4.95-2.25-2.8-4.03-5.86-5.69-9.04-1.07-2.05-2.25-4.07-3.65-5.91-2.75-3.61-4.74-7.57-6.05-11.89-2.09-6.9-4.44-13.72-6.22-20.7-2.21-8.66-4.22-17.39-5.8-26.18-1.19-6.63-.99-13.41.23-20.07,1.4-7.66,2.98-15.28,4.52-22.91.16-.81,0-2.18,1.33-1.92,1.17.23.77,1.49.73,2.34-.19,4.89-.43,9.77-.66,14.65-.13,2.87.46,5.63,1.35,8.31,1.68,5.02,3.46,10.01,5.27,14.99.87,2.38,2.09,4.46,4.73,5.41.93.34,1.7,1.25,2.41,2.03,1.01,1.11,1.45,1.33,2.72.5.96-.62,1.74-1.52,2.65-2.24.83-.65,1.66-1.43,2.63-1.78,1.72-.63,2.54-.22,2.83,1.62.32,2.02.42,4.13.22,6.16-.7,7.17-1.72,14.31-2.32,21.49-.43,5.03-.41,10.09-.55,15.14-.15,5.29,1.7,9.97,4.81,14.1,5.57,7.4,9.87,15.5,13.76,23.85.69,1.48,1.64,2.87,2.65,4.16,1.58,2.03,2.4,4.33,2.79,6.82.15.98.31,1.96.49,3.1,2.36.31,3.29,1.88,3.52,4.08.23,2.14.43,4.29.84,6.4.8,4.18,2.38,7.94,6.18,10.35.49.31.99.66,1.34,1.11,3.76,4.83,8.92,8.15,13.29,12.32,2.28,2.18,5.41,3.48,8.15,5.17.5.31,1.02.59,1.53.89-.06.21-.11.41-.17.62-.92-.08-1.86-.08-2.76-.28-.72-.16-1.43-.47-2.06-.85-3.73-2.3-8.01-3.05-12.08-4.4-1.87-.62-3.67-1.52-5.42-2.44-2.94-1.53-5.8-3.19-8.72-4.76-4.44-2.39-8.93-4.69-13.35-7.12-3.2-1.76-6.08-4.04-8.57-6.67-3.76-3.97-7.3-8.14-10.84-12.31-2.59-3.05-4.55-6.5-6.08-10.22-1.67-4.06-3.6-8.01-5.34-12.04-1.05-2.44-1.95-4.95-1.08-7.65,1.45-.93,2.43-.42,3.52.66,2.93,2.93,5.97,5.74,8.99,8.58,1.66,1.56,3.83,2.04,7.26,1.44Z"/>
    <path class="cls-1" d="M79.73,298.27c5.26-1.93,10.13-2.42,15.07-.81,3.24,1.06,5.69,3.35,8.24,5.47,1.08.9,1.98,2,3.01,2.96,1.1,1.03,1.97,2.09,2.21,3.72.16,1.05,1,2,1.73,3.36-.94-.09-1.47-.07-1.97-.19-3.07-.74-6.11-1.06-9.31-.68-4.75.56-9.56.65-14.34,1.06-2.13.19-4.24.67-6.36,1.06-1.26.23-1.37,1.33-1.54,2.3-.59,3.26-.97,6.57-1.75,9.79-1.16,4.79-.48,9.58-.28,14.37.04,1.05.36,2.16.83,3.11,1.61,3.23,1.45,6.73,2,10.71-1.04-.75-1.76-1.21-2.4-1.75-2.28-1.92-4.45-3.98-6.82-5.78-2.55-1.94-4.62-4.25-6.44-6.85-2.42-3.46-4.92-6.86-7.4-10.28-2.57-3.53-3.86-7.45-3.91-11.83-.07-5.73.13-11.45,1.21-17.09.58-3.01,2.32-5.14,5.41-6.22,3.2-1.12,6.25-2.66,9.4-3.94,3.92-1.59,5.43-.97,8.09,2.38,1.52,1.92,3.53,3.44,5.31,5.14Z"/>
    <path class="cls-1" d="M38.49,406.09c-1.89,2.3-3.52,4.12-4.96,6.08-.94,1.28-2.02,2.14-3.61,2.27-1.4.11-2.26-.47-2.4-1.89-.11-1.14-.13-2.36.13-3.47,1.48-6.2,2.74-12.49,5.83-18.16,1.58-2.91,3.33-5.73,5.09-8.53.52-.82,1.26-1.56,2.03-2.16,1.98-1.53,3.85-1.18,5.31.93,1.37,1.97,1.93,4.19,1.94,6.57,0,3.32-.01,6.64.05,9.96.09,4.88.38,9.77.33,14.65-.05,4.05-.49,8.1-.73,12.15-.09,1.57-.18,3.15-.17,4.73.03,3.55-1,6.86-2.19,10.14-.08.23-.24.44-.4.62-.09.11-.27.14-.5.24-.84-1.16-.45-2.48-.51-3.75-.19-3.81-.81-7.56-2.01-11.19-1.92-5.79-2.95-11.71-2.95-17.81,0-.23-.09-.47-.28-1.38Z"/>
    <path class="cls-1" d="M134.05,295.73c.67-1.46,1.21-2.47,1.61-3.52,1.52-4.03,3.04-8.06,4.44-12.13.42-1.23.48-2.6.65-3.91.15-1.21-.3-2.19-.98-3.22-1.07-1.65-1.97-3.44-2.73-5.25-.3-.73-.05-1.68-.05-2.71.74.09,1.2.16,1.67.21,2.22.24,4.43.64,6.65.67,3.23.05,5.58,1.38,7.74,3.77,3.15,3.48,3.39,7.24,2.46,11.56-1.3,6.01-5.38,9.36-10.62,11.47-3.33,1.34-6.93,1.98-10.86,3.07Z"/>
    <path class="cls-1" d="M287.54,397.87c.19-3.71-1.88-7.33.02-11.13.5-1,.53-2.24.69-3.39.16-1.16-.36-2.05-1.22-2.84-1.35-1.23-2.6-2.57-3.92-3.82-1.45-1.37-2.1-2.94-1.39-4.92.17-.46.19-.98.34-1.45.38-1.22.21-2.29-.81-3.13-.96-.79-1.22-1.76-.7-2.88.5-1.08,1.82-1.82,3.12-1.45,1.41.4,2.89.92,4.02,1.8,2.96,2.3,5.5,5.02,7.23,8.41,1.61,3.15,1.46,6.39.49,9.67-1.12,3.81-2.14,7.64-4.67,10.87-1.05,1.34-1.75,2.93-2.62,4.41l-.59-.14Z"/>
  </g>
</svg>