<?xml version="1.0" encoding="UTF-8"?>
<svg id="Layer_1" data-name="Layer 1" xmlns="http://www.w3.org/2000/svg" version="1.1" viewBox="0 0 572 406">
  <defs>
    <style>
      .cls-1 {
        fill: #43face;
      }

      .cls-1, .cls-2 {
        stroke-width: 0px;
      }

      .cls-2 {
        fill: #a515ff;
      }
    </style>
  </defs>
  <path class="cls-2" d="M-255.92,105.19"/>
  <g id="SMOKE_01" data-name="SMOKE 01">
    <path class="cls-1" d="M350.02,219.12c.21-1.71,1.34-2.44,2.4-3.19,2.08-1.49,4.24-2.86,6.27-4.41,4.78-3.67,5.85-9.99,2.52-15.13-1-1.55-2.25-2.97-3.51-4.34-2.57-2.8-5.26-5.5-7.84-8.3-4.04-4.39-9.03-7.54-13.98-10.75-.78-.51-1.64-.92-2.34-1.51-4.82-4.07-10.59-6.33-16.25-8.89-7.99-3.61-16.23-6.55-24.44-9.55-6.61-2.42-13.48-3.92-20.59-4.3-4.58-.24-9.14-.43-13.68.21-4.36.61-8.58,1.86-11.57,5.29-2.88,3.29-4.41,7.21-4.31,11.73.1,4.44.19,8.86,1.95,13.03,1.14,2.7,2.47,5.28,4.32,7.6,1.3,1.63,2.24,3.53,3.46,5.22,2.2,3.07,4.6,6,6.71,9.14,1.46,2.17,2.67,4.54,3.82,6.91,1.25,2.57,2.31,5.24,3.43,7.87,1.02,2.39.87,4.9.36,7.32-.45,2.1-1.32,4.12-2.06,6.16-.18.49-.5.94-.82,1.37-1.02,1.37-2.17,2.65-3.08,4.08-1.05,1.65-2.44,2.75-4.27,3.38-2.49.86-4.97,1.57-7.69,1.45-2.14-.1-4.33-.37-6.41-.25-2,.11-3.55-.87-5.38-1.06-3.74-.39-7.26-1.75-10.75-3.12-5.12-2.02-10.32-3.82-15.39-5.95-3.85-1.61-7.61-3.48-11.3-5.43-1.24-.66-2.28-1.85-3.19-2.97-2.06-2.51-4.02-5.12-5.97-7.72-1.69-2.25-1.88-4.69-.64-7.22,1.73-3.55,3.56-7.05,5.22-10.63,1.79-3.86,3.48-7.78,5.13-11.7.51-1.2.85-2.5,1.1-3.78.48-2.36.14-4.63-1.1-6.73-1.81-3.08-4.27-5.49-7.34-7.29-3.48-2.04-6.95-4.11-10.93-5.05-3.95-.93-6.06-3.74-7.68-7.17-1.51-3.2-1.81-6.48-1.32-9.97.58-4.14.83-8.36,2.9-12.12,1.5-2.71,2.4-5.72,3.87-8.39,1.82-3.32,4.52-6.05,7.71-8.25,3.63-2.51,7.05-5.32,10.69-7.81,4.34-2.97,8.78-5.8,13.25-8.56,3.55-2.2,7.2-4.24,10.85-6.28,5.4-3.01,10.78-6.04,16.26-8.91,6-3.14,12.17-5.98,18.13-9.2,3.53-1.91,6.8-4.31,10.18-6.5,1.56-1.01,3.06-2.13,4.64-3.1,7.54-4.62,14.52-9.97,21.2-15.74,4.42-3.81,5.5-8.74,4.83-14.31-.62-5.13-3.42-8.74-7.66-11.33-5.81-3.55-11.83-6.73-18.38-8.72-5.47-1.66-11.02-3.09-16.77-3.3-6.89-.25-13.8-.44-20.69-.41-3.6.02-7.21.52-10.81.88-3.31.34-6.64.65-9.91,1.23-3.52.63-6.99,1.55-10.48,2.38-3.12.74-6.25,1.49-9.34,2.32-1.47.39-2.88,1.02-4.33,1.48-1.76.56-3.52,1.12-5.31,1.58-3.73.96-7.46,1.87-11.21,2.75-4.34,1.02-8.7,1.88-13.15,2.35-4.87.52-9.73.64-14.58.35-7.33-.45-14.62-1.28-21.61-3.83-4.14-1.5-8.39-2.7-12.58-4.06-.73-.24-1.41-.61-2.13-.86-4.14-1.43-8.28-2.85-12.43-4.25-1.09-.37-2.21-.65-3.31-1-5.71-1.83-11.56-2.94-17.53-3.24-5.19-.26-10.39-.47-15.58-.36-3.63.07-7.24.72-10.87,1.08-2.62.26-5.24.56-7.87.66-7.22.26-14.14,1.6-20.47,5.28-1.54.89-3.17,1.63-4.74,2.47-4.57,2.47-7.64,6.3-9.58,11.03-1.13,2.76-.36,4.71,2.04,6.47,1.94,1.42,4.23,2.13,6.49,2.34,3.96.38,7.93.64,11.94-.18,3.4-.7,6.92-.89,10.4-1.04,6.43-.28,12.86-.32,19.29-.55,2.23-.08,3.92.69,5.17,2.51.61.89,1.33,1.74,1.78,2.7.73,1.55,1.94,2.36,3.51,2.78,1.64.43,3.3.82,4.94,1.27,2.68.73,4.54,2.14,4.79,5.21.07.9.76,1.84,1.4,2.57,1.13,1.27,2.42,2.4,3.67,3.56.9.84,1.2,1.85,1.38,3.07.38,2.5-.6,4.86-.5,7.33.17,4.1.02,8.22.32,12.31.27,3.72,1.79,7.03,4.29,9.86,1.39,1.57,2.74,3.17,4.14,4.73,3.35,3.74,7.61,5.7,12.51,6.52,4.19.7,8.1-.72,12.09-1.48,6.6-1.26,12.78-3.68,18.46-7.28,2.22-1.41,4.49-2.85,6.36-4.66,4.18-4.03,9.17-6.81,14.05-9.79,2.37-1.45,4.77-2.86,7.09-4.39,3.52-2.34,7.48-3.71,11.34-5.33,3.88-1.62,7.9-2.8,12.04-3.35,3.37-.45,6.83-.8,10.19-.52,3.03.25,6.06,1.19,8.95,2.21,2.67.94,3.47,4,1.77,6.33-1.46,1.99-3.21,3.77-4.87,5.6-1.51,1.67-3.21,3.18-4.59,4.95-3.17,4.09-7.36,6.57-12.16,8.2-5.05,1.71-10.04,3.63-15.27,4.8-4.43.99-8.45,2.96-12.01,5.83-2.23,1.8-4.62,3.42-6.78,5.3-3.89,3.37-6.26,7.58-6.95,12.78-.4,3,.85,4.89,3.24,6.33.92.56,1.98.97,2.3,2.35-.77.85-1.52,1.85-2.43,2.66-2.06,1.85-3.09,4.26-3.81,6.81-1.12,3.96-1.92,7.97-1.82,12.14.06,2.55.6,4.66,2.7,6.35,3.92,3.16,7.72,6.47,11.57,9.72.41.35.86.68,1.21,1.09,4.01,4.67,9.19,7.52,14.89,9.56.87.31,1.7.73,2.54,1.13,2.11,1.02,2.7,2.69,1.66,4.8-1.18,2.38-3.09,4.03-5.37,5.32-2.56,1.44-5.38,1.91-8.22,2.3-2.37.33-4.45,1.18-6.24,2.81-4.58,4.18-4.3,9.01-.01,13.15,3.7,3.58,7.96,6.4,13.14,7.59,4.7,1.07,8.64,3.66,12.58,6.34,4.65,3.16,7.79,7.71,11.55,11.7,5.95,6.32,11.85,12.72,18.5,18.33,2.18,1.85,4.72,3.28,6.93,5.09,2.15,1.76,4.25,3.64,6.12,5.7,3.05,3.37,6.52,6.16,10.37,8.54,4.28,2.64,8.47,5.43,12.76,8.05,5.64,3.44,11.7,5.98,18.08,7.69,1.91.51,3.95.55,5.94.73,7.34.67,14.7,1.56,22.05.95,5.52-.46,10.55-2.57,13.79-7.5.71-1.08,1.23-2.36,1.51-3.62.52-2.34.85-4.73,1.16-7.12.43-3.32-.61-6.44-1.53-9.55-1.09-3.7-3.32-6.77-5.45-9.93-1.89-2.81-3.58-5.8-5.05-8.85-2.24-4.64-5.11-8.86-8.12-13-4.55-6.26-8.11-13.03-10.67-20.32-1.23-3.5-2.52-7-3.38-10.6-.97-4.08-1.06-8.25-.3-12.46.51-2.86,3.47-5.35,6.61-5.63,6.9-.63,13.72-.33,20.6.69,5.83.87,11.3,2.56,16.62,4.91,4.8,2.12,8.09,5.64,9.39,10.84.53,2.12-.42,3.95-1.14,5.81-1.3,3.37-3.91,5.52-6.93,7.27-2.5,1.45-4.81,3.1-6.62,5.41-1.69,2.16-2.05,4.65-1.76,7.23.1.84.76,1.68,1.32,2.41,1.77,2.3,3.99,4.11,6.52,5.52,4.45,2.49,8.62,5.67,13.81,6.47,4.2.65,8.44,1.02,12.72.55,4.16-.45,8.33-.8,12.5-1.04,2.03-.12,3.95.53,5.69,1.61,1.25.77,1.73,1.9,1.54,3.37-.22,1.69-.43,3.39-.51,5.09-.24,5.11-.34,10.23-.62,15.34-.2,3.58,1.35,6.43,3.44,9.1,1.29,1.65,2.6,3.28,3.96,4.87,2.13,2.47,4.35,4.97,7.64,5.81,3.46.89,6.96.72,10.12-1.15,1.23-.73,2.18-1.94,3.24-2.95,1.24-1.17,2.46-2.37,3.69-3.55,1.5-1.45,2.86-1.41,4.39.08,1.72,1.68,3.41,3.44,5.92,3.91.74.14,1.56.26,2.26.07,1.72-.44,3.43-.98,5.07-1.65,1.78-.72,3.27-1.81,3.3-4.06.83-.3,1.61-.15,2.41-.91,1.52-1.46,3.27-2.92,5.51-3.34,1.32-.25,2.69-.25,3.81.59,3.05,2.27,6.14,1.68,9.16.11,2.71-1.41,5.51-2.67,7.53-5.18,1.3-1.6,3.29-2.68,4.45-4.35,1.93-2.78,4.73-4.66,6.85-7.24,1.9-2.31,4.26-4.23,6.43-6.31,1.39-1.33,2.82-2.62,4.23-3.94,1.63-1.52,3.7-1.85,5.77-2.17,4-.63,7.07.55,9.72,3.87,3.55,4.43,6.69,9.09,9.63,13.92.72,1.19,1.43,2.38,2.16,3.56,1.07,1.74.94,3.71-.26,5.33-.63.86-1.21,1.79-1.63,2.77-.8,1.83-1.66,3.67-2.15,5.59-.68,2.69.5,5.14,1.57,7.54.48,1.07.8,2.33,2.22,2.63.14.03.26.17.37.27,3.21,3.07,7.12,3.07,11.14,2.53,3.64-.49,6.55-2.48,9.45-4.54,1.12-.8,2.39-1.43,3.64-2.02,1.37-.65,2.79-1.24,4.23-1.74.6-.21,1.35-.25,1.97-.1,3.46.82,7.43,6.14,7.15,9.47-.08.91-.23,1.83-.47,2.71-1.02,3.66-2.19,7.28-2.37,11.12-.3,6.29,3.08,11.75,8.81,14.52,3.27,1.58,6.46,3.32,9.59,5.17,1.06.63,1.95,1.7,2.63,2.75,1.8,2.79,3.44,5.68,5.14,8.54,1.68,2.83,1.61,5.93,1.32,9.05-.04.43-.29.94-.61,1.23-2.49,2.29-4.99,4.8-8.24,5.74-2.55.74-5.19,1.53-7.99,1.46-1.56-.04-3.12.82-4.71,1.12-2.99.56-5.8,1.79-8.36,3.2-3.62,2-7.54,3.48-10.89,5.95-3.27,2.41-6.51,4.88-9.2,7.94-1.37,1.56-2.64,3.27-3.62,5.1-1.78,3.34-.52,7.33,2.06,10.02,2.06,2.15,4.85,3.15,7.68,4.09,5.71,1.91,11.14.34,16.55-1.11,6.22-1.67,12.34-3.75,18.83-4.26,1.68-.13,3.38-.53,4.86.72.8.67,1.06,1.04,1.48,2.65-1.89.23-3.33,1.16-3.82,3.06-.61,2.36-.65,4.63.61,6.95,2.4,4.41,6.47,5.44,10.93,5.9.98.1,1.81-.33,2.02-1.21.2-.84.07-1.81-.16-2.66-.08-.32-1.05-.76-1.27-.62-1.32.83-2.38.04-3.5-.39-.65-.25-1.29-.53-1.92-.84-2.34-1.14-2.95-2.37-2.47-5.33.91-.03,1.88-.13,2.85-.06,2.22.14,3.6-1.03,3.49-3.23-.16-3.45-1.79-6.33-4.35-8.46-2.72-2.27-5.79-4.03-9.63-3.66-.58.06-1.27-.47-1.82-.86-1.2-.85-2.31-1.82-3.52-2.66-1.01-.71-1.56-1.56-1.83-2.81-.75-3.48-.47-6.75,1.26-9.9.76-1.38,1.8-2.26,3.39-2.53,6.35-1.05,11.18-4.65,15.42-9.24,1.32-1.43,2.17-3.03,2.03-5.03-.22-3.09-.26-6.21-.77-9.24-.26-1.52-1.34-2.93-2.14-4.33-1.3-2.29-2.8-4.47-3.99-6.81-1.12-2.2-1.8-4.61-2.92-6.81-1.54-3.04-3.18-6.03-4.98-8.91-3.45-5.51-6.75-11.1-9.7-16.9-.38-.74-.67-1.58-.76-2.41-.6-5.5-3.48-9.51-8.03-12.41-2.6-1.66-5.51-2.38-8.56-2.66-2.5-.23-5-.47-7.49-.8-2.6-.35-4.97-3.04-5.17-5.64-.04-.49-.22-1.16-.58-1.42-1.95-1.41-2.32-3.58-2.87-5.66-1.12-4.27-2.16-8.56-3.33-12.81-.53-1.94-1.28-3.82-1.94-5.73-1.32-3.82-4.04-6.61-7.06-9.04-4.1-3.3-8.36-6.39-12.64-9.46-2.41-1.73-5.29-2.47-8.16-1.95-3.36.61-6.76,1.44-9.15,4.29-3.42,4.08-7.27,7.8-10.11,12.37-2.33,3.75-4.83,7.4-7.31,11.06-.45.66-1.09,1.28-1.79,1.67-2.99,1.66-5.9,3.56-9.08,4.73-3.36,1.24-6.75,2.55-10.34,3.2-1.94.35-3.76,1.35-5.69,1.89-2.1.59-2.6.4-3.42-1.63-1.03-2.57-2.95-4.26-5.27-5.34-1.25-.58-3.15-.67-4.41-.15-2.39.98-4.85,1.92-6.89,3.73-.89.79-2.37,1.21-3.61,1.26-2.07.08-4.18-.12-6.23-.47-2.09-.35-2.73-1.16-2.93-3.29-.19-2.08-.32-4.18-.32-6.26,0-2.71.16-5.43.23-8.14.09-3.56-.87-6.68-3.47-9.29-3.63-3.66-8.12-5.34-13.09-5.83-4.68-.46-9.38-.67-14.07-.95-2-.12-3.92-.52-5.84-1.18Z"/>
  </g>
</svg>