<?xml version="1.0" encoding="UTF-8"?>
<svg id="Layer_1" data-name="Layer 1" xmlns="http://www.w3.org/2000/svg" version="1.1" viewBox="0 0 522 380">
  <defs>
    <style>
      .cls-1 {
        fill: #43face;
      }

      .cls-1, .cls-2 {
        stroke-width: 0px;
      }

      .cls-2 {
        fill: #a515ff;
      }
    </style>
  </defs>
  <path class="cls-2" d="M-274.42,79.19"/>
  <g id="SMOKE_03" data-name="SMOKE 03">
    <path class="cls-1" d="M398.76,327.69c-.42,1.4-2,.87-3.02,1.19-3.15.98-6.39,1.68-9.62,2.35-2.09.43-4.14,1.3-6.35.88-1.72,1.18-3.78.86-5.67,1.16-2.63.42-5.35.66-8.01.52-5.27-.29-10.57-.56-15.76-1.45-5.41-.93-10.7-2.57-16.04-3.93-1.62-.41-3.23-.89-4.8-1.45-2.79-.99-5.66-1.85-8.27-3.2-1.58-.81-3.21-1.47-4.8-2.23-1.61-.77-3.34-1.45-5.08-1.78-2.39-.46-4.25-1.65-6.07-3.53-.9.72-1.76,1.45-2.66,2.14-1.08.84-2.17,1.65-3.28,2.46-.29.21-.62.42-.96.51-3.03.78-6.06,1.56-9.1,2.26-.98.23-2.01.2-3.01.34-2.1.3-4.18.72-6.28.94-1.5.16-3.04.18-4.55.06-4.26-.35-8.49-.79-12.78-.82-4.27-.03-8.53-.58-12.79-.76-3.27-.14-6.56.05-9.83-.12-2.58-.13-5.19-.37-7.69-.94-4.04-.93-8.09-1.55-12.25-1.66-3.03-.08-6.07-.46-9.09-.84-4.26-.54-8.53-.42-12.8-.45-2.74-.02-5.47-.28-8.21-.41-1.08-.05-2.16-.02-3.24-.05-4.44-.09-8.88-.34-13.33-.26-2.31.04-4.62-.26-6.93-.31-.55-.01-1.18.65-1.66.53-2.28-.56-4.41,1.07-6.76.19-2.09-.79-4.45-.88-6.5-1.73-2.59-1.06-5.26-.9-7.91-1.2-1.06,1.04-2.45.49-3.68.75-.68.15-1.39.12-2.09.19-.32.03-.64.05-.94.13-.45.12-.9.42-1.34.41-2.65-.04-5.32-.42-7.93-.13-2.13.24-4.26-.19-6.29.15-1.41.24-2.69.33-4.1.18-.99-.11-2.03.59-3.08.71-5.51.61-11.02,1.15-16.53,1.72-1.6,1.08-3.61-.27-5.19.88-1.16-1.19-2.32,1.06-3.52.01-.11-.1-.54.1-.77.24-.25.14-.49.56-.65.52-1.49-.38-2.68.42-4,.83-1.3.4-2.75.28-4.14.38-.21.01-.56-.13-.61-.05-1.27,2.05-3.83.83-5.39,2.13-.16.13-.4.22-.6.24-2.66.18-4.94,1.71-7.47,2.19-2.07.39-3.64,2.2-5.96,1.78-.45-.08-1.01.98-1.63,1.24-4.33,1.8-8.03,4.51-11.47,7.63-1.66,1.5-3.43,2.89-5.1,4.38-.53.47-1.03,1.04-1.34,1.66-.99,2.04-.65,2.72,1.62,2.96,3.01.31,6.04.47,9.07.69,1.8.13,3.6.26,5.4.38.5.03,1.02.1,1.49-.02,2.74-.67,5.47-1.39,8.2-2.1,4.9-1.28,9.78-2.62,14.69-3.85,2.17-.54,4.38-.91,6.59-1.3,3.96-.7,7.92-.53,11.91-.08,6.62.75,12.62,3.19,18.4,6.34,1.71.93,3.57,1.65,5.11,2.81,1.29.97,2.26,2.39,3.27,3.7.48.62.65,1.46,1.03,2.16,1.1,1.99,2.47,3.45,5.05,3.54,2.14.07,3.9,1.35,5.46,2.76.96.86,1.72,1.95,2.74,2.73.77.6,1.77.82,2.83.37,3.38-1.45,6.38-.69,9.03,1.7,1.38,1.25,2.85,1.94,4.81,2.17,3.61.42,6.96,1.97,10.33,3.32.53.21,1.06.41,1.59.86-5.57.06-11.15.2-16.72.17-4.63-.02-9.25-.19-13.87-.4-1.73-.08-3.46-.4-5.16-.72-3.13-.6-6.24-1.25-9.35-1.94-.92-.2-1.86-.45-2.68-.89-5.33-2.8-10.68-5.56-15.9-8.55-3.23-1.85-6.77-2.53-10.26-3.46-.94-.25-2.02-.16-3.01-.05-2.73.28-5.53-.45-8.21.7-.75.32-1.67.22-2.51.33-.21.03-.52.02-.62.15-.99,1.26-2.58,1.45-3.87,2.18-1.33.76-2.85,1.19-4.14,1.99-1.07.67-1.95,1.66-2.89,2.54-2.38,2.23-4.73,4.48-7.11,6.71-.42.39-.92.71-1.42,1-.65.38-1.33.7-1.63.86-1.22,0-2.11,0-3,0-.29,0-.62.02-.85-.12-1.46-.86-3.06-1.08-4.7-1.35-1.47-.24-2.85-.94-4.3-1.3-3.27-.81-6.09-2.22-7.92-5.24-.3-.5-1.19-.91-1.8-.9-2.08.04-4.15.24-6.1,1.11-.44.2-.98.37-1.44.32-3.3-.38-6.6-.81-9.9-1.24-.28-.04-.6-.12-.81-.29-3.08-2.48-6.83-4.19-8.79-7.95-.93-1.79-2.1-3.45-3.17-5.17-.11-.18-.44-.33-.42-.47.18-2.52-1.65-4.75-1.04-7.34.71-2.98,1.5-5.93,3.5-8.35,1.29-1.56,2.56-3.16,4.04-4.53,1.62-1.5,3.47-2.76,5.21-4.14.73-.58,1.44-1.18,2.17-1.76,2.67-2.14,5.98-2.93,9.08-4.1,3.58-1.35,7.31-2.33,10.95-3.51,6.1-1.98,12.39-2.95,18.74-3.79,3.74-.5,7.39.05,11.08.02,3.26-.03,6.52-.36,9.78-.61,4.03-.31,8.06-.8,12.09-.98,1.89-.08,3.57-.49,5.19-1.37,7.31-3.95,15.04-6.81,23.14-8.59,5.47-1.2,11.01-1.96,16.63-1.89,2.51.03,4.9.72,6.93,2.25,2.19,1.65,4.6,2.7,7.24,3.38,3.22.83,6.44,1.75,9.58,2.85,3.32,1.16,6.73,1.42,10.11.94,7.2-1.02,14.39-1.82,21.68-1.58,4.43.15,8.88-.04,13.31.06,3.85.09,7.7.41,11.55.55,3.31.12,6.62.09,9.92.24,1.29.06,2.62.25,3.85.66,4.4,1.45,8.97,1.68,13.53,2,2.96.21,5.9.57,8.86.77,1.67.11,3.36.16,5.02.04,2.66-.2,5.31-.48,7.94-.9,1.63-.27,2.85-1.19,3.42-2.92,1.06-3.23,4.01-4.31,6.74-5.51,2.91-1.28,5.93-2.29,8.87-3.49,4.29-1.76,8.83-2.27,13.37-2.81.94-.11,1.89-.08,2.84-.16,2.65-.22,5.25.07,7.7,1.06,3.02,1.22,6.12.96,9.2.66,5.02-.48,9.73-2.14,14.43-3.89,7.12-2.65,14.29-5.18,21.51-7.52,3.43-1.11,7.04-1.65,10.56-2.5,2.04-.49,4.06-1.09,6.1-1.63,2.31-.61,4.61-1.24,6.94-1.79,1.88-.45,1.9-.42,2.14-2.35.05-.35.17-.7.17-1.06.08-7.2,2.48-13.49,7.47-18.72,2.9-3.03,5.84-6.02,8.86-8.93,1.37-1.31,2.98-2.37,4.65-3.68-.59-1.38-1.19-2.68-1.7-4-.22-.56-.26-1.19-.38-1.79-.05-.27,0-.64-.16-.79-1.69-1.67-1.43-3.76-1.43-5.85,0-1.43-.24-2.85-.4-4.47-1.73.31-3.21.61-4.69.82-.77.11-1.58.14-2.35.02-2.69-.43-5.05-1.63-7.31-3.13-2.48-1.65-5.11-3.11-8.07-3.68-1.46-.28-3.04-.38-4.49-.14-3.5.56-6.95,1.48-10.45,2.04-1.99.32-4.05.33-6.08.3-2.14-.02-4.1.18-6.06,1.28-1.87,1.06-4.07,1.52-6.11,2.31-3.65,1.42-7.29,2.87-10.92,4.34-4.24,1.72-8.42,3.61-12.72,5.16-3.13,1.13-6.46,1.69-9.62,2.74-4.14,1.37-8.33,1.69-12.63,1.29-2.8-.26-5.1,1.04-7.12,2.73-3.61,3.03-7.7,4.84-12.35,5.53-3.8.56-7.57,1.35-11.37,1.91-5.32.78-10.68,1.18-16.07,1.15-4.15-.02-8.19-.88-12.29-1.25-1.59-.14-3.22-.02-4.76-.33-5.11-1.04-10.2-2.17-15.26-3.4-1.54-.37-2.77-.18-4.11.63-4.48,2.7-8.97,5.39-13.56,7.9-4.09,2.24-8.46,3.74-13.14,4.39-6.79.95-13.59,1.42-20.43,1.15-2.97-.12-5.92-.53-8.64-1.82-2.43-1.15-4.82-2.38-7.23-3.57-2.35-1.16-4.8-.84-7.25-.46-1.64.25-3.3.41-4.94.7-.68.12-1.48.29-1.96.73-2.33,2.12-5,2.25-7.74,1.3-1.42-.49-2.45-.33-3.64.47-4.63,3.13-9.79,4.2-15.3,3.69-.55-.05-1.16-.21-1.6-.52-.82-.57-1.53-.41-2.19.15-4.02,3.45-8.72,5.76-13.45,7.97-3.16,1.47-6.59,2.18-10.02,2.87-5.25,1.06-10.54,1.27-15.82.73-3.59-.36-7.1-1.43-10.67-2.05-3.73-.65-6.91-2.47-10.14-4.29-2.01-1.13-4.19-1.99-6.36-2.8-4.09-1.52-7.58-3.61-10.26-7.32-2.31-3.18-3.95-6.58-5.39-10.14-.14-.34-.24-.69-.42-1-2.29-3.95-2.46-8.29-2.37-12.7.04-1.97.91-3.48,2.29-4.77.41-.39.86-.74,1.35-1.17-2.7-3.69-2.77-7.94-3.07-12.14-.16-2.25.43-4.33,1.54-6.27,2.28-3.98,4.23-8.11,5.82-12.42,1.08-2.93,3.11-5.21,5.26-7.4,1.98-2.01,3.97-4.01,5.89-6.07,2.99-3.21,6.21-6.11,10.1-8.21,3.57-1.92,7.09-3.93,10.75-5.66,2.41-1.14,5-1.89,7.54-2.73,6.43-2.15,13.08-3.27,19.77-4.26,1.92-.29,3.77-1.03,5.67-1.43,3.37-.71,6.8-.52,10.22-.47,2.29.03,4.53.25,6.58,1.23,1.94.92,3.74,2.1,4.49,4.36.14.42.8.84,1.28.93.77.14,1.65.2,2.38-.04,2.11-.69,3.64.18,5.09,1.53,1.62,1.52,1.7,1.46,3.6.57,3.62-1.68,7.26-1.94,10.8.23.73.45,1.3.39,2-.05,1.41-.9,2.84-1.76,4.31-2.55,2.22-1.19,4.67-1.61,7.13-1.78,3.63-.25,7.26-.43,10.89-.54,4.24-.12,8.02,1.31,11.33,3.87,3.62,2.8,7.11,5.76,10.65,8.68.72.6,1.34,1.32,2.05,1.94,2.75,2.37,5.86,3.89,9.5,4.45,1.84.29,3.6,1.08,5.41,1.64,1.11.34,2.25.59,3.33,1,2.28.87,4.58.5,6.87.22,2.52-.31,5.02-.74,7.53-1.12.14-.02.31-.06.43,0,2.12.8,3.37-.51,4.59-1.89,2.16-2.45,4.41-4.84,6.44-7.4,2.01-2.53,4.22-4.77,6.79-6.75,3.56-2.74,6.95-5.72,10.43-8.58.67-.55,1.37-1.09,2.11-1.54,4.1-2.48,8.17-5,12.33-7.36,6.49-3.69,13.09-7.15,20.1-9.8,2.9-1.1,5.55-2.81,8.36-4.18,5.62-2.73,11.28-5.38,17.26-7.28,2.7-.86,5.28-2.08,7.98-2.93,6.63-2.07,13.38-3.23,20.39-2.54,4.5.44,8.1,2.64,11.49,5.31,1.47,1.16,2.87,2.49,4.01,3.97,2.42,3.12,2.5,6.59,1.37,10.32-.98,3.25-3.19,5.43-5.51,7.63-1.6,1.52-3.47,2.81-4.47,5.04.93.9,1.87,1.9,1.45,3.35-.33,1.15-.86,2.24-1.18,3.03,1.03,1.5,1.91,2.79,2.8,4.07.08.12.17.24.26.35.89,1.14,2.04,2.18,2.59,3.46.52,1.2.4,2.68.57,4.13,1.75.61,3.71.84,4.88,2.56.13.2.68.2,1.02.16,2.81-.32,5.61-.76,8.43-.96,1.48-.11,2.99.23,4.49.28.76.02,1.61.02,2.26-.29.97-.46,1.94-1.08,2.67-1.85,1.74-1.85,4.03-2.4,6.31-2.57,5.75-.44,11.52-.09,17.12,1.28,3.93.96,7.75,2.42,11.58,3.79,1.71.61,3.21.67,5.02.16,7.16-2.02,14.03-4.85,20.67-8.06,5.19-2.51,10.74-4.03,15.88-6.56,2.78-1.36,5.54-2.78,8.25-4.27,2.11-1.16,3.52-3.03,4.57-5.16,2.6-5.28,5.21-10.56,7.77-15.87,1.16-2.4,1.56-5.02,1.55-7.64-.01-3.2-.23-6.39-.42-9.59-.13-2.25-.29-4.5-.57-6.74-.17-1.36-.33-2.8-.9-4.01-1.81-3.8-3.72-7.56-5.77-11.23-3.45-6.19-8.89-9.82-15.6-11.73-.62-.18-1.25-.36-1.9-.55v-1.34c-.23,0-.45-.06-.63,0-2.77,1.06-5.52,2.21-8.32,3.21-5.67,2.03-11.28,2.27-16.48-1.26-1.72-1.17-3.21-2.74-4.59-4.32-1.48-1.69-3.13-2.24-5.24-1.63-.48.14-1,.19-1.51.19-8.59.14-17.17.29-25.76.39-4.99.05-9.98,0-14.97.01-2.31,0-4.63-.07-6.94.06-3.12.17-6.23.47-9.34.76-1.95.18-3.43,1.15-4.31,2.92-.76,1.52-1.92,2.44-3.55,2.95-.95.3-1.75,1.05-2.69,1.42-.95.37-1.98.51-3.28.83-.05.05-.33.53-.73.69-6.46,2.63-13.06,4.86-19.92,6.21-1.85.36-3.73.62-5.61.77-4.79.37-9.58.6-14.37.97-3.62.28-7.23.69-10.84,1.01-1.59.14-3.2.13-4.78.34-.9.12-1.91.33-2.62.84-3.16,2.27-6.67,3.82-10.2,5.4-3.58,1.61-7.03,3.48-10.58,5.14-4.07,1.91-8.15,3.82-12.3,5.55-6.5,2.72-13.09,5.22-19.58,7.95-4.72,1.99-9.71,3.02-14.64,4.21-5.42,1.31-10.93,2.34-16.45,3.09-4.89.66-9.86.72-14.78,1.15-4.66.4-9.28.02-13.94-.23-6.05-.32-11.9-1.57-17.78-2.82-4.68-.99-9.42-1.84-13.98-3.24-4.99-1.53-9.81-3.61-14.68-5.52-.93-.37-1.87-.93-2.56-1.64-2.31-2.41-4.63-4.83-6.72-7.43-2.66-3.33-3.1-7.48-3.61-11.52-.32-2.51-.26-5.07-.24-7.61,0-1.22.16-2.48.52-3.64,1.14-3.69,4.86-6.34,9.43-5.58.43.07.84.27,1.27.29,1.6.08,2.53-1.27,1.93-2.76-.4-1.01-.85-2.01-1.22-3.03-.87-2.39.25-4.58.85-6.78.19-.69,1.23-1.15,2.06-1.89-.29-.91-.56-1.95-.96-2.94-1.37-3.37-1.16-6.86-.66-10.32.23-1.57.77-3.11,1.28-4.62.28-.81.67-1.65,1.24-2.27,2.9-3.16,5.87-6.24,9.69-8.38,4.79-2.7,9.88-4.16,15.38-4.1,3.12.04,6.28-.05,9.33.46,3.34.55,6.61,1.61,9.83,2.68,1.24.41,2.68,1.23,3.3,2.29.8,1.36,1.94,1.64,3.07,1.63,3.99-.01,7.02,1.65,9.69,4.54,1.4,1.52,3.3,2.6,5.05,3.78,1.09.73,2.16.69,3.41-.09,1.57-.98,3.38-1.57,4.97-2.28.77.56,1.34,1,1.93,1.4,1.04.7,1.24,1.52.46,2.5-.35.44-.82.87-1.33,1.06-1.08.41-2.23.64-3.34.97-.96.29-1.92.58-2.86.93-1.36.51-2.66,1.18-4.05,1.57-1.61.46-3.19.19-4.52-.94-1.07-.92-2.21-1.2-3.63-.83-1.47.39-3,.53-4.5.8-2.57.46-4.87-.18-7.06-1.54-2.22-1.38-4.38-3.08-6.81-3.81-1.98-.6-4.14-1.4-6.49-.6-3.68,1.25-6.73,3.29-9.42,6.04-2.09,2.14-4.02,4.34-5.17,7.18-.54,1.34-.95,2.55-.36,3.96.22.53.21,1.15.41,1.69.52,1.4.01,2.26-1.18,3.09-2.47,1.71-3.1,4.69-1.63,7.3,1.22,2.17,2.81,4.04,4.66,5.72,1.66,1.5,3.09,3.24,4.71,4.79.83.8,1.77,1.53,2.79,2.06,1.34.71,2.79,1.24,4.22,1.74.57.2,1.25.17,1.88.13,1.51-.1,2.25.27,2.76,1.77.39,1.15,1.04,1.54,2.25,1.59,3.05.13,5.82-.47,8.62-1.81,2.24-1.08,4.81-1.6,7.3-2.04,6.3-1.11,12.42-.22,18.47,1.77,1.45.48,3.15.26,4.74.24,1.67-.02,3.34-.28,5.01-.28,6.77-.02,13.5-.59,20.18-1.67,6.08-.98,12.11-2.33,18.21-3.06,10.09-1.21,20.04-3.25,30.02-5.06,11.56-2.1,23.01-4.74,34.51-7.17,4.96-1.05,9.93-2.05,14.84-3.31,2.15-.55,4.29-1.46,6.21-2.6,5.76-3.43,11.93-6.02,17.91-9.01,2.33-1.16,4.66-2.43,6.71-4.02,3.19-2.46,6.56-3.1,10.44-2.3,2.62.54,5,1.47,7.16,3.06,5.2-2.08,10.64-3.16,16.11-3.65,4.66-.42,9.18-1.35,13.75-2.17,2.13-.38,4.33-.51,6.51-.54,1.88-.03,3.56.66,4.86,2.48,1.03-.58,2.07-1.07,3-1.71,1.67-1.14,3.25-2.43,4.93-3.56,2.75-1.84,5.85-2.9,9.01-3.76,5.5-1.5,11.11-1.92,16.79-1.8,5.93.13,11.87.26,17.8.15,8.23-.15,16.23,1.27,23.88,4.03,7.58,2.74,14.39,6.95,19.2,13.75,2.01,2.85,4.11,5.63,6.1,8.5,3.52,5.08,3.86,10.82,3.37,16.74-.35,4.25-1.85,8.22-2.89,12.29-.38,1.49-1.44,2.84-2.36,4.14-.58.82-.99,1.6-.79,2.59.83,4.07-2.48,7.83-6.93,9.51-.32.12-.59.39-.9.56-1.66.9-3.27,1.87-4.99,2.64-1.47.66-2.48,1.51-3.05,3.11-1.24,3.49-1.72,7.01-1.42,10.7.24,2.88.56,5.74.46,8.67-.11,3.2-.78,6.18-1.92,9.1-.96,2.44-2.54,4.47-4.63,5.95-4.27,3.01-7.82,6.72-11.25,10.6-1.77,2-4.14,3.22-6.54,4.27-7.74,3.39-15.02,7.65-22.55,11.43-3.75,1.88-7.71,3.44-11.7,4.76-4.95,1.64-10.02,2.91-15.06,4.26-.87.23-1.85.03-3.07.03.56,1.81,1.07,3.5,1.61,5.25,2.96-1.4,5.58-2.79,8.31-3.88,5.79-2.31,11.65-4.49,18.07-4,3.14.24,6.16,1.06,8.92,2.57,2.74,1.49,5.35,3.21,8.07,4.75,1,.56,2.12.91,3.19,1.34,1.47.58,2.95,1.15,4.43,1.69,1.42.52,2.14,1.66,2.74,2.94.89,1.92,1.29,4,1.43,6.05.26,3.8.34,7.63.27,11.44-.03,1.78-.44,3.58-.91,5.31-.53,1.93-.41,4.1-1.99,5.68-.18.18-.28.55-.25.81.33,3.11.64,6.2,2.95,8.69,1.86,2.01,3.86,3.9,5.35,6.27,1.58,2.51,2.4,5.28,3.25,8.05.23.75-.09,1.72-.31,2.54-.39,1.45-.51,2.8.13,4.25.88,1.99,1.55,4.07,2.34,6.1,1.43,3.7,2.15,7.55,2.29,11.49.07,1.85.62,3.77-.24,5.6-.24.52-.4,1.09-.72,1.55-1.14,1.59-2.29,3.18-3.51,4.71-1.48,1.87-3.34,2.87-5.83,2.83-1.32-.02-2.68-.45-4.02.32-.88.51-1.39,1.08-1.81,2-1.68,3.62-3.99,6.9-7.49,8.83-2.1,1.16-3.76,2.79-5.73,4.03-2.28,1.43-4.57,2.84-6.94,4.1-2.17,1.15-4.41,2.25-6.72,3.07-2.45.87-4.99,1.51-7.54,2.02-3.46.7-6.85.33-10.21-.85-2.89-1.01-5.99-.76-8.98-.77-1.46,0-2.91,1.01-4.38,1.52-1.61.56-3.19,1.25-4.76,1.81-1.61.58-3.13,1.53-4.86,1.81-1.18.19-2.38.29-3.87.47ZM382.29,194.73c-.42-.29-.59-.44-.78-.53-3.66-1.78-7.32-3.54-10.98-5.32-1.29-.63-2.64-.78-4.04-.55-1.29.21-2.56.58-3.86.66-2.68.15-5.43.55-7.98-.53-2.01-.85-3.92-.79-5.95-.34-1.7.38-3.41.75-5.13.93-1.95.2-3.87.11-5.84-.37-1.73-.43-3.59-.41-5.39-.39-2.31.03-4.61.3-6.92.38-.62.02-1.31-.17-1.87-.45-1.29-.66-2.53-1.42-3.77-2.16-2.23-1.33-4.03-3.09-5.32-5.35-1.1-1.92-1.53-4.05-.76-6.09,1.6-4.21,1.3-8.74,2.5-13,.03-.12-.06-.27-.11-.48-.23-.08-.5-.26-.77-.26-4.5.07-9,.04-13.49.28-4.64.25-9.29.52-13.88,1.22-4.28.66-8.48,1.87-12.7,2.9-.98.24-1.93.66-2.82,1.14-5.32,2.84-10.47,5.9-15.3,9.59-6.26,4.79-11.78,10.35-17.59,15.63-1.1,1-2.43,1.86-3.8,2.44-1.72.72-3.62.98-5.38,1.61-3.86,1.37-7.8,2.18-11.92,2.25-4.65.08-9.29.36-13.94.59-2.54.13-5.07.29-7.44-.93-.19-.1-.44-.05-.64-.13-2.54-1.03-5.33-1.52-7.52-3.34-1.32-1.09-2.9-1.3-4.51-1.22-3.69.19-7.28.41-10.91-1.04-3.03-1.21-6.21-1.99-8.91-3.93-.97-.7-1.88-.78-3-.08-1.28.8-2.68,1.6-4.13,1.88-2.41.45-4.91.74-7.36.64-4.81-.2-8.8,2.01-12.92,3.69-.07.43-.15.65-.12.86.55,4.36-1.44,7.61-4.65,10.22-3.44,2.79-7.12,5.29-10.09,8.62-1.37,1.54-2.89,2.87-4.91,3.52-.9.29-1.33.88-1.5,1.9-.23,1.34-.72,2.66-1.27,3.92-.66,1.52-1.48,2.97-2.26,4.44-.95,1.78-1.52,3.76-3,5.27-.87.89-1.5,2.01-2.5,3.4,1.36,0,2.29,0,3.23,0,3.27.02,6.55.04,9.82.08,3.45.05,6.91.1,10.36.19,2.45.06,4.95-.09,7.34.35,4.13.76,8.32.95,12.46,1.66,4.17.71,8.44.87,12.67,1.18,4.49.33,8.98.59,13.47.82,1.86.1,3.73.1,5.6.08,4.87-.04,9.74.05,14.6-.21,7.61-.42,15.2-1.16,22.81-1.61,4.42-.26,8.86-.49,13.27-.25,4.91.26,9.8,1,14.69,1.65,2.44.33,4.89.75,7.24,1.46,1.35.41,2.27.3,3.41-.46,3.73-2.49,7.83-4.01,12.31-4.61,4.34-.58,8.68-.86,13.05-.77,1.27.03,2.36-.35,3.53-.85,5.27-2.24,10.56-4.44,16.47-4.5,2.67-.03,5.34-.42,7.78-1.77,1.9-1.05,3.85-1.99,5.8-2.93.91-.44,1.88-.76,2.81-1.16,3.18-1.39,6.27-3.06,9.56-4.12,5.52-1.76,11.14-3.23,16.77-4.61,2.1-.51,4.05-1.28,5.77-2.44,3.61-2.44,7.05-5.12,10.6-7.64,1.64-1.16,3.52-2.02,5.03-3.32,3.43-2.93,7.42-4.69,11.63-6.09,1.06-.36,2.04-.96,3.32-1.58ZM48.92,244.07c-.09,1.8.69,2.8,1.7,3.7,2.67,2.36,5.5,4.56,7.96,7.12,3.18,3.31,7.1,3.58,11.23,3.4.94-.04,1.9-.32,2.81-.21,2.59.33,4.58-.66,6.1-2.64,1.63-2.12,3.85-3.51,5.84-5.21,1.57-1.34,3.16-2.78,4.28-4.48,1.05-1.59,2.23-2.78,3.91-3.56,1.24-.58,2.57-1.08,3.63-1.91,1.7-1.35,2.41-5.32,1.38-7.46-.78-1.62-1.75-3.16-2.78-4.63-.87-1.26-.98-2.04.24-2.85,1.19-.79,2.52-1.36,3.81-2,1.5-.74,3.06-1.37,4.5-2.2,3.16-1.83,3.42-6.97.41-9.05-1.6-1.11-3.4-1.94-5.13-2.84-1.62-.84-3.33-.62-4.87.06-2.17.97-4.23,2.19-6.32,3.35-3.24,1.8-5.65,4.52-7.89,7.38-1.55,1.97-2.5,4.25-2.39,6.8.13,3.11.39,6.21.62,9.31.05.73-.06,1.28-.91,1.46-1.34.29-2.71.53-3.99.99-1.13.41-2.16,1.09-3.24,1.65.28,2.1-1.74,2.85-2.62,4.26-.74,1.2-2.19,1.96-3.75,1.77-2.09-.26-4.15-.71-6.23-1.02-2.71-.41-5.42-.77-8.32-1.18ZM426.88,307.8c.57,0,.92.04,1.25,0,4.35-.64,8.7-1.17,13.09-.47,1.21.19,1.89-.21,2.38-1.32,1.23-2.77,3.37-4.68,5.99-6.14,1.84-1.02,3.64-2.11,5.44-3.2,3.78-2.29,7.83-2.95,12.11-1.87,1.45.37,2.83.49,4.29.09,1.18-.32,2.42-.51,3.64-.54,1.53-.03,2.62-.72,3.51-1.84.68-.85,1.32-1.73,2.01-2.58,1.07-1.33,1.35-5.08.52-6.59-1.63-2.95-3.6-5.62-6.19-7.81-.93-.79-1.81-1.73-2.89-2.22-2.04-.93-4.2-1.58-6.32-2.33-1.14-.41-1.92.01-2.53,1.04-.85,1.44-1.78,2.83-2.71,4.22-1.3,1.95-2.81,3.68-4.8,5-2.6,1.73-5.15,3.56-7.7,5.37-3.18,2.25-6.44,4.23-10.58,3.99-.52-.03-1.43.41-1.57.83-1.02,3.04-3.46,4.61-6.06,5.97-1.21.63-1.44,1.47-1.21,2.69.38,2-.02,3.9-.87,5.73-.27.57-.47,1.17-.8,1.98ZM467.51,230.52c.28-2.05.53-3.76.74-5.48.09-.72.14-1.46.08-2.17-.27-3.03-.57-6.06-.92-9.09-.09-.78-.37-1.55-.63-2.31-.89-2.54-2.63-3.67-5.33-3.26-1.16.17-2.11,0-3.13-.5-2.16-1.04-4.36-1.98-6.83-1.97-2.47,0-4.95-.01-7.42,0-2.67,0-5.16.76-7.51,1.98-1.82.95-2.76,2.58-3.43,4.33,1,.71,1.74,1.43,2.62,1.83,2.47,1.13,4.47,2.78,6.21,4.86.77.93,1.81,1.64,2.76,2.41.6.49,1.36.81,1.9,1.35,1.22,1.23,2.33,2.58,3.53,3.84,1.49,1.55,1.72,3.27.91,5.22-.4.97-.72,1.98-1.1,3.05,2.41.69,4.03,2.14,5.34,3.9,1.32,1.78,2.48,3.7,3.88,5.82,2.22-2.5,5.05-4.12,5.42-7.63.12-1.15.53-2.26.78-3.4.29-1.33.73-2.52,2.15-2.77ZM327.83,164.79c.95-1.24,1.08-1.23,1.29-3.63.28-3.18,1.86-5.54,4.12-7.63,1.06-.98,2.03-2.1,2.83-3.3.49-.74.89-1.78.78-2.62-.13-1.08.12-1.97.44-2.93.58-1.72.03-3.06-1.4-4.14-2.01-1.51-3.92-3.1-6.25-4.18-1.6-.74-3.16-1.61-4.91-1.42-3.37.37-6.83.62-9.88,2.21-3.2,1.67-6.26,3.62-9.35,5.5-3.28,1.99-6.53,4.05-9.79,6.07-1.2.75-2.29,1.56-2.33,3.36,1.45.46,2.94,1.02,4.47,1.37,1.18.27,2.42.34,3.63.41,2.23.12,4.58-.24,6.68.33,3.14.85,6.13-.28,9.18-.01,1.51-1.08,3.02-.52,4.51,0-.18,4.69,1.33,8.45,5.98,10.59ZM484.33,140.76c-1.21-.4-2.43-.86-3.67-1.2-.51-.14-1.24-.22-1.61.05-.97.68-2.29,1.01-2.64,2.42-.07.29-.41.59-.7.73-1.08.53-1.87,1.28-2.43,2.38-.49.95-1.11,1.88-1.84,2.66-2.77,2.98-4.51,6.54-5.69,10.36-.36,1.18-.33,2.6-.04,3.8.15.6,1.27,1.01,1.99,1.42,3.27,1.87,5.79,1.51,8.23-1.36.96-1.13,1.55-2.57,2.42-3.8,2.44-3.42,4.19-7.21,6.07-10.95.73-1.46.85-2.87.48-4.39-.17-.7-.37-1.38-.58-2.13ZM136.24,109.64c.02-.07.05-.14.07-.21.36,0,.73,0,1.09,0,1.76.04,1.82-.03,2.56-1.7.25-.57.79-1.01,1.03-1.58.23-.55.53-1.35.29-1.75-1.02-1.73-2.19-3.38-3.38-5-1.01-1.37-2.15-2.64-3.22-3.97-2.09-2.58-3.99-5.38-7.84-5.49-1.42-.04-2.2.37-2.47,1.75-.11.57-.31,1.15-.29,1.71.04,1.06-.59,1.92-.41,3.1.48,3.29,2.21,5.9,4.08,8.43.93,1.26,2.09,2.54,3.43,3.25,1.51.8,3.36.98,5.06,1.44ZM67.56,219.17c.97-.63,1.64-1.32,2.44-1.53,2.35-.63,3.57-2.42,4.52-4.35.97-1.97,1.71-4.08,2.32-6.2.46-1.62-.82-2.67-1.81-3.72-.84-.88-1.7-.43-2.58-.04-.32.14-.7.18-1.06.21-2.43.22-4.37,1.45-5.47,3.49-1.05,1.94-2.19,4.17-2.15,6.26.04,2.28,1.69,4.33,3.8,5.88ZM103.66,192.65c-1.91.01-4.49,1.95-4.73,3.57-.17,1.17.43,2.01,1.5,1.79,1.4-.3,2.79-.76,4.1-1.35.93-.42,1.46-1.99,1.21-2.82-.32-1.06-1.16-1.2-2.08-1.19ZM451.32,54.15c0,.15.01.3.02.45.38-.08.76-.16,1.14-.25-.38-.07-.77-.14-1.15-.21Z"/>
    <path class="cls-1" d="M24.17,185.28c-1.28-.77-2.14-1.71-2.75-2.9-.26-.51-.41-1.17-.82-1.51-1.3-1.09-.94-2.25-.41-3.53,1.15-2.81,2.14-5.7,3.41-8.46.71-1.55,1.32-3.08,1.75-4.75.63-2.44,2.24-4.28,4.33-5.78,3.41-2.45,6.81-4.92,9.54-8.19,2.66-3.19,6.21-5.05,10.14-6.04,3.4-.86,6.63,0,9.51,2.01.97.68,1.73,1.56,1.78,2.85.03.84.52,1.21,1.27,1.55.97.44,1.84,1.12,2.73,1.72.78.52,1.55,1.05,2.3,1.61,1.15.88,2.34,1.72,3.39,2.72.88.84.82,1.71.08,2.73-1.36,1.86-1.91,2.03-4.28,1.5-.62-.14-1.29-.19-1.93-.14-3.34.26-6.57.99-9.64,2.37-5.17,2.31-10.42,4.46-15,7.87-3.67,2.73-7.32,5.48-10.2,9.11-1.52,1.91-3.2,3.73-5.21,5.26Z"/>
    <path class="cls-1" d="M489.19,302.76c1.26-1.79,2.5-3.63,3.82-5.42.95-1.28,2.11-2.42,2.99-3.75.58-.87,1.02-1.93,1.18-2.96.31-1.93.33-3.9.57-5.84.11-.87.09-1.61-.67-2.14-.85-.59-.93-1.36-.77-2.3.24-1.46.2-1.47-.7-2.77.06-1.36.8-2.36,1.99-2.86,1.77-.75,1.84-2.31,2-3.8.04-.41-.45-.99-.85-1.3-.37-.29-.94-.34-1.43-.48-1.59-.44-2.89-1.31-4-2.52-.58-.63-1.24-1.19-1.93-1.69-.96-.71-1.74-1.49-1.82-2.78-.04-.72-.31-1.46-.23-2.16.2-1.82-.26-3.36-1.23-4.92-.51-.81-.47-2.1-.35-3.13.13-1.13.62-2.23,1.03-3.58-.88-.74-1.87-1.56-2.85-2.39-.56-.48-1.27-1.06-.81-1.81.37-.6,1.11-1.2,1.78-1.35,2.46-.56,4.92.83,6.09,3.09.87,1.68,1.88,3.25,1.75,5.28-.02.34.67.86,1.13,1.04.43.17,1.02.1,1.5-.03,3.48-.94,6.63-.02,9.61,1.71,2.25,1.3,4.35,2.79,5.83,5.04,2.42,3.68,2.24,7.63,1.01,11.52-.82,2.61-2.15,5.09-3.45,7.52-1.08,2.02-2.88,3.45-4.88,4.56-.96.53-1.38,1.21-1.65,2.33-.97,4.04-2.33,8.02-4.96,11.27-2.04,2.53-4.57,4.67-6.91,6.96-.84.82-1.75.94-2.8-.32Z"/>
    <path class="cls-1" d="M237.38,40.56c-.95-.25-1.94-.45-2.9-.78-.96-.33-1.85-.84-2.89-.18-1.23.78-2.55,1.46-3.12,2.92-.21.54-.41,1.11-.45,1.68-.26,3.26-1.99,5.59-4.68,7.21-3.66,2.2-7.66,3.06-11.93,2.59-.14-.02-.31,0-.43-.06-.66-.38-1.62-.63-1.89-1.2-.43-.9.34-1.58,1.12-2.09,1.33-.88,2.63-1.79,3.92-2.72.64-.46,1.3-.94,1.84-1.52,3.53-3.79,5.93-8.26,7.59-13.12.73-2.15,1.93-3.53,4.03-4.52,2.52-1.19,5.04-1.74,7.79-1.61,1.74.09,3.51-.08,5.23.12,2.17.24,4.32.65,5.52,2.91.42.79.53,1.49.24,2.28-.8,2.19-1.8,4.29-3.29,6.1-1.47,1.78-3.7,1.41-5.69,2.02Z"/>
    <path class="cls-1" d="M263.79,11.92c1.12.72,1.89,1.22,2.64,1.71-.32,1.45-.72,2.54-2.19,2.86-.36.08-.76.44-.94.78-1.01,1.86-2.64,2.5-4.63,2.44-1.06-.03-2.11-.23-3.16-.21-.49.01-1.15.24-1.42.6-.53.71-1.22,1.01-1.86.61-.67-.42-1.57-1.21-1.58-1.84,0-1.54.02-3.29,1.6-4.25,1.35-.82,1.48-2.07,1.4-3.39-.23-3.92,1.53-6.15,5.44-6.73.39-.06.84.11,1.22.27.53.22,1.01.54,1.53.79,2.11,1.05,2.29,1.45,1.97,3.91-.11.84-.02,1.71-.02,2.44Z"/>
    <path class="cls-1" d="M479.15,318.57c-.27.89-.52,2.09-1.01,3.18-.3.67-.86,1.4-1.49,1.72-3.82,1.88-7.96,2.65-12.13,3.28-.07.01-.15-.01-.22,0-1.32.07-2.5-.21-3.08-1.55-.47-1.1.31-2.92,1.6-3.72,1.41-.89,2.8-1.9,4.34-2.5,2.34-.91,4.17-2.53,6.21-3.86.89-.58,1.9-1.02,2.92-1.32,1.34-.4,2.05.03,2.39,1.41.24.98.29,2,.47,3.36Z"/>
    <path class="cls-1" d="M445.36,330.14c2.48-.28,4.83.51,7.28.02-.51.45-1.02.91-1.31,1.16-.31,1.06-.3,2.25-.83,2.59-1.36.88-2.95,1.43-4.49,2.01-.25.09-.86-.26-1.02-.56-.76-1.42-1.42-2.9-.17-4.42.18-.22.33-.48.55-.81Z"/>
    <path class="cls-1" d="M281.88,7.97c.12.02.67,0,1.09.21.47.24,1.19.7,1.17,1.04-.03.72-.27,1.64-.77,2.09-1.09.98-3.36.41-4.11-.84-.48-.8.32-2.29,1.36-2.49.28-.05.58,0,1.25,0Z"/>
  </g>
</svg>