<?xml version="1.0" encoding="UTF-8"?>
<svg id="Layer_1" data-name="Layer 1" xmlns="http://www.w3.org/2000/svg" version="1.1" viewBox="0 0 180 245">
  <defs>
    <style>
      .cls-1 {
        fill: #baff2a;
      }

      .cls-1, .cls-2 {
        stroke-width: 0px;
      }

      .cls-2 {
        fill: #a515ff;
      }
    </style>
  </defs>
  <path class="cls-2" d="M-291.42-38.81"/>
  <g id="ELECTRIC_03" data-name="ELECTRIC 03">
    <path class="cls-1" d="M20.95,218.14c.19,0,.33.03.46,0,2.02-.51,4.03-.5,6.06,0,1.18.29,2.3-.12,3.41-.47,1.47-.47,2.94-.97,4.41-1.43,2.36-.74,4.72-1.49,6.56-3.26,1.37-1.32,2.71-2.68,4.05-4.03,1.41-1.43,2.82-2.86,4.22-4.31.97-1.01,1.72-1.1,2.89-.33,2.11,1.4,4.22,2.81,6.34,4.2,3.36,2.2,6.96,3.87,10.89,4.72,2.02.44,4.09.8,6.15.88,1.59.06,3.2-.34,4.8-.61,1-.17,1.98-.47,2.98-.68,1.06-.23,1.53.33,1.22,1.35-.37,1.21-.71,2.43-1.05,3.65-.34,1.25-.23,2.38.91,3.22.82.6,1.62,1.25,2.48,1.77,1.6.96,1.62,1.33.02,2.36-1.03.66-2.09,1.3-3.07,2.04-1.69,1.28-2.82,3.04-3.94,4.8-.55.85-1.13,1.68-1.7,2.53-.04.06-.13.1-.13.16-.22,2.04-1.58,3.63-2.15,5.53-.08.26-.32.47-.49.71-.09-.02-.17-.03-.26-.05-.08-.39-.22-.77-.24-1.17-.13-1.83.04-3.65.38-5.46.34-1.83.57-3.69.96-5.51.29-1.34.76-2.63,1.14-3.95.21-.74.37-1.5.59-2.24.42-1.42.85-2.83,1.29-4.24.26-.84.21-1.01-.63-1.18-1.17-.23-2.36-.37-3.53-.57-1.87-.31-3.74-.61-5.6-.97-1.38-.27-2.74-.64-4.1-.99-.47-.12-.91-.36-1.37-.54-.15-.06-.32-.1-.48-.13-.37-.07-.78-.06-1.12-.2-2.33-.91-4.65-1.83-6.95-2.79-.5-.21-.92-.21-1.4.03-2.16,1.11-4.32,2.23-6.52,3.27-1.62.77-3.29,1.46-4.96,2.1-3.58,1.38-7.18,2.72-10.78,4.04-.99.36-2.02.62-3.04.9-2.92.79-5.85,1.58-8.78,2.33-.95.24-1.93.37-2.9.53-.86.14-1.55-.1-2.13-.83-1.09-1.36-1.84-2.92-2.58-4.48-.32-.67-.63-1.34-.93-2.02-.26-.59-.69-.95-1.31-1.12-.95-.26-1.88-.61-2.84-.79-.71-.14-1.17-.51-1.46-1.09-1.06-2.08-2.07-4.2-2.47-6.5-.17-.97-.39-1.8-.97-2.58-.29-.38-.39-.9-.61-1.34-.34-.69-.13-1.25.42-1.68.87-.68,1.4-1.56,1.74-2.59.09-.27.2-.54.35-.77.92-1.38,1.4-2.94,1.65-4.54.39-2.46,1.9-3.93,4.01-4.94.54-.26,1.09-.5,1.66-.68,3.36-1.04,6.72-2.1,10.1-3.06,1-.28,2.09-.25,3.13-.36.27-.03.54-.04.85-.06-.01-.2.02-.36-.04-.47-.97-2.04-.64-4.14-.22-6.22.14-.71.45-1.4.78-2.05.37-.74.46-1.46.15-2.24-.12-.29-.24-.6-.27-.9-.14-1.18.17-1.6,1.35-1.83.48-.09.99-.08,1.46-.21.84-.23,1.65-.56,2.49-.82,1.45-.44,2.88-.92,4.35-1.26,1.49-.34,2.25-1.03,2.2-2.59-.04-1.26-.19-2.55-.55-3.75-.53-1.78-1.27-3.5-1.97-5.23-1.35-3.36-3.19-6.44-5.54-9.2-.89-1.05-.99-2.08-.42-3.31.84-1.82,1.57-3.69,2.39-5.53.7-1.59,1.67-3.02,2.76-4.36.83-1.01,1.98-1.31,3.19-1.39,1.86-.11,3.72-.18,5.59-.19,1.01,0,2.03.14,3.04.23.38.03.77.1,1.15.13,2.59.21,5.19.39,7.78.62,2.91.27,5.81.58,8.71.88,2.48.26,4.96.59,7.45.76,1.32.09,2.67-.1,4-.2.52-.04,1.04-.19,1.56-.27,2.83-.41,5.07-1.94,7.29-3.62,2.51-1.9,4.87-3.98,7.1-6.17,2.97-2.91,5.96-5.85,8-9.52,1.01-1.8,1.7-3.79,2.38-5.75.39-1.11.44-2.34.68-3.51.08-.4.23-.82.47-1.14,1.18-1.62,2.41-3.21,3.62-4.81,1.35-1.77,2.43-3.7,3.48-5.66,1.11-2.08,2.33-4.11,3.4-6.21,1.07-2.1,2.02-4.27,3-6.41.11-.23.11-.51.19-.9-.4.08-.67.1-.92.18-3.46,1.19-6.92,2.4-10.39,3.58-.76.26-1.56.42-2.35.58-.87.18-1.25-.01-1.57-.83-.46-1.18-.84-2.4-1.34-3.56-.36-.83-.77-1.68-1.32-2.39-1.38-1.79-.5-4.26,1.02-5.16,2.79-1.64,5.52-3.42,8.6-4.5.39-.14.76-.38,1.08-.65.19-.16.38-.5.33-.71-.3-1.44-.55-2.9-1.22-4.36-.47.11-.93.14-1.33.32-2.15,1.02-3.15-.12-4.07-2.03-.62-1.29-.92-2.73-1.37-4.11-.32-.97-.64-1.94-.94-2.91-.18-.57-.53-.75-1.12-.69-2.8.28-5.6.59-8.4.78-1.68.11-3.38.01-5.07.02-2.57.01-5.16-.11-7.71.09-2.99.24-5.97.45-8.97.34-2.18-.07-4.36-.21-6.52-.49-3.45-.46-6.89-1.01-10.31-1.62-2.28-.41-4.53-1-6.8-1.51-4.44-.99-8.77-2.31-13.04-3.87-2.94-1.07-5.82-2.3-8.64-3.67-.98-.48-2-.87-2.99-1.33-.35-.16-.72-.34-.98-.61-.17-.19-.29-.59-.22-.83.86-2.94,1.68-5.89,3.08-8.63,1.25-2.44,2.83-4.6,4.84-6.49,2.6-2.44,5.34-4.71,8.19-6.84,4.51-3.39,9.09-6.66,13.62-10.03,2.29-1.7,4.52-3.48,6.77-5.25.33-.26.65-.58.85-.94.64-1.13,1.65-1.39,2.8-1.22,3.8.54,7.59,1.16,11.12,2.78,2.98,1.36,6,2.64,8.41,4.99.72.71,1.12,1.39.99,2.49-.26,2.34-.34,4.71-.51,7.06-.13,1.72-.28,3.43-.44,5.15-.01.13-.1.25-.2.5-.34-.56-.19-1.06-.26-1.51-.07-.45-.1-.91-.16-1.36-.17-1.18-.28-2.38-.55-3.54-.24-1.03-.69-1.99-1.45-2.78-1.12-1.17-1.71-2.66-2.34-4.11-.43-.98-1.08-1.46-2.12-1.65-.71-.13-1.39-.47-2.04-.81-.73-.39-1.47-.6-2.31-.66-1.86-.14-3.71-.46-5.45-1.18-.64-.27-1.21-.71-1.82-1.05-.27-.15-.6-.38-.84-.33-1.39.3-2.72.85-3.23,2.27-.71,1.97-2.25,3.1-3.84,4.23-2.5,1.77-5.07,3.45-7.52,5.29-2.53,1.9-4.95,3.97-7.44,5.93-1.42,1.12-2.95,2.05-4.74,2.47-.63.15-1.18.45-1.57,1-.17.23-.34.47-.56.63-1.61,1.23-1.7,2.95-1.42,4.7.37,2.25,1.26,4.32,2.55,6.21.49.73.96,1.48,1.36,2.26.46.89,1.11,1.21,2.11,1.27,2.28.13,4.57.31,6.72,1.22.74.31,1.36.71,1.74,1.44.58,1.11,1.49,1.96,2.4,2.79.91.83,2.06.82,3.11.58,1.47-.35,2.56-.03,3.63,1.02.61.6,1.47.95,2.23,1.38.23.13.53.17.81.21,2.02.27,4.04.54,6.06.79,1.43.18,2.86.4,4.3.46,3.13.13,6.27.19,9.41.22,1.19.01,2.39-.09,3.58-.22.44-.05.85-.31,1.27-.49,1.64-.72,3.26-1.52,4.94-2.15,1.95-.73,4.01-1.05,6.09-1.15.88-.04,1.75-.14,2.63-.2.21-.01.44-.05.63.01,1.42.47,2.66-.11,3.81-.79,3.62-2.13,7.44-3.87,11.2-5.74,2.18-1.08,4.43-2,6.64-3.01.57-.26,1.14-.56,1.65-.93.68-.5,1.3-.55,2.03-.09,1.64,1.03,3.3,2.03,4.97,3.02,3.3,1.97,6.59,3.95,9.9,5.89,1.03.6,2.1,1.18,3.2,1.62.7.28,1.5.4,2.26.41,4.34.04,8.68-.03,13.02.04,2.89.04,5.77.27,8.65.37,1.59.06,3.17.03,4.76.03.35,0,.7,0,1.14,0,.48,1.52,1.01,2.97,1.4,4.46.66,2.52,1.24,5.06,1.82,7.6.09.4-.03.85-.05,1.25.17.35.45.71.52,1.1.42,2.28.82,4.57,1.19,6.87.42,2.64.8,5.29,1.19,7.94.45,2.99.89,5.99,1.34,8.98.14.94.07,1.75-.98,2.17-.27.11-.53.38-.68.64-.85,1.45-2.11,2.54-3.21,3.78-1.81,2.03-3.76,3.91-5.8,5.71-.48.42-1,.59-1.65.46-1.89-.37-3.45.85-3.54,2.77-.04.87-.04,1.75,0,2.63.02.62-.17,1.08-.65,1.48-1.55,1.27-3.13,2.52-4.62,3.86-1.02.91-2.05,1.87-2.82,2.98-1.44,2.07-3.25,3.8-4.93,5.65-1.94,2.14-3.93,4.22-5.9,6.33-.82.88-1.64,1.75-2.44,2.64-.65.72-1.01,1.58-1.27,2.52-.22.8-.52,1.62-.95,2.33-.77,1.29-.91,2.52-.57,4.02.59,2.53.88,5.13,1.28,7.7.36,2.33.68,4.66,1.07,6.99.12.68.36,1.37.66,1.99,1.05,2.15,2.16,4.28,3.25,6.41.02.03.03.06.05.09,1.58,2.84,4.41,3.23,6.71.93.07-.07.16-.12.31-.22.08.13.19.24.19.34.02,1.26.02,2.52.02,3.77,0,2.01-.02,4.02.04,6.03.09,2.89.26,5.77.37,8.65.05,1.45.03,2.89.05,4.34.03,2.32.12,4.64.1,6.97-.01,1.19-.22,2.37-.31,3.56-.04.5-.27.87-.66,1.15-.34.25-.67.52-1.03.73-1.33.79-2.7,1.53-4,2.36-1.86,1.19-3.89,2.01-5.99,2.6-2.77.78-5.58,1.45-8.39,2.08-1.3.29-2.64.35-3.96.57-2.32.38-4.64.79-6.96,1.18-.66.11-1.32.24-1.98.27-1.86.1-3.73.18-5.59.22-1.29.03-1.51-.13-1.72-1.46-.19-1.21-.28-2.44-.38-3.67-.1-1.3-.09-2.61-.25-3.9-.54-4.61-2.29-8.59-6.35-11.17-1.33-.85-2.84-1.46-4.5-.96-.41.12-.87.38-1.11.71-.64.89-1.43.9-2.34.63-1.17-.34-1.17-.34-1.7.71-.11.22-.18.48-.34.65-1.18,1.29-1.78,2.85-2.12,4.53-.17.83-.72,1.27-1.5,1.44-1.02.23-1.89.73-2.7,1.38-1.96,1.56-4.16,2.63-6.66,3.01-.17.03-.35.06-.53.04-1.01-.08-1.97.13-2.89.49-.62.24-1.16.14-1.71-.19-.87-.53-1.77-1.01-2.64-1.54-1.21-.72-1.71-1.95-1.77-3.21-.08-1.92-1.01-3.39-2.02-4.89-1.06-1.57-2.41-2.72-4.18-3.42-2.03-.81-4.02-1.72-6.18-2.13-1.84-.34-3.69-.48-5.56-.19-1.42.22-2.87.35-4.3.46-2.08.15-4.12.56-6.1,1.18-2.9.91-5.89,1.38-8.85,1.97-.17.03-.35.06-.53.05-1.37-.11-2.64.22-3.93.66-1.1.38-2.24.6-3.36.92-1.55.45-3.1.93-4.65,1.39-.91.27-1.83.52-2.73.82-2.33.78-4.04,2.42-5.58,4.22-2.46,2.87-4,6.19-4.53,9.96-.15,1.11-.31,2.23-.53,3.33-.12.63.14.93.67,1.11,1.6.55,3.17,1.17,4.79,1.64.9.26,1.42.86,1.9,1.57.14.2.23.43.35.65.78,1.51,1.76,1.55,2.98,1.42.24-.03.48-.13.72-.16,1.07-.16,1.5.21,1.49,1.3-.01.67-.08,1.34-.1,2.01,0,.2.04.4.07.63ZM29.53,183.22c.25,0,.5.05.73,0,.85-.22,1.69-.49,2.53-.72,2.1-.56,4.2-1.17,6.32-1.65,1.99-.45,4.02-.68,6.01-1.13,3.57-.81,7.14-1.52,10.81-1.78,1.38-.1,2.82-.17,4.05-.99.41-.27.85-.49,1.3-.68,1.39-.6,2.79-1.18,4.17-1.78,1.84-.8,3.68-1.62,5.53-2.4,4.15-1.75,8.3-3.5,12.47-5.22,1.69-.7,3.39-1.44,5.15-1.9,3.56-.93,6.99-2.2,10.28-3.82,1.84-.9,3.6-1.95,4.8-3.71,1.45-2.12,2.9-4.25,4.33-6.38.9-1.34,1.82-2.68,2.65-4.07,2.25-3.79,4.91-7.23,8.25-10.12,1.81-1.57,3.72-3.02,5.55-4.57,3.48-2.93,6.98-5.83,10.37-8.86,2.28-2.04,4.72-3.88,6.95-5.98,1.13-1.06,2.34-2.03,3.46-3.1,1.25-1.19,2.42-2.46,3.66-3.67,3.8-3.72,6.67-8.1,8.94-12.87,1.23-2.57,2.28-5.23,3.29-7.9,1-2.63,1.9-5.31,2.73-8,.9-2.9,1.29-5.92,1.54-8.93.2-2.47-.07-4.92-.59-7.35-.83-3.88-2.43-7.42-4.45-10.8-.51-.86-1.24-1.27-2.24-1.36-2.06-.18-4.12-.44-6.19-.64-2.34-.22-4.69-.39-7.03-.62-1.61-.15-3.21-.37-4.82-.55-1.61-.18-3.21-.34-4.82-.52-.98-.11-1.96-.2-2.93-.34-.85-.12-1.03-.04-1.34.78-.1.26-.2.53-.23.81-.22,1.6-.45,3.2-.61,4.81-.14,1.33-.12,2.68-.3,4-.38,2.8-1.23,5.49-2.11,8.17-.76,2.31-1.63,4.58-2.46,6.87-1.13,3.12-2.43,6.16-3.99,9.09-1.36,2.55-2.81,5.05-4.16,7.61-.8,1.52-1.71,3.03-1.99,4.76-.54,3.3-1,6.61-1.51,9.92-.39,2.54-.76,5.08-1.21,7.61-.41,2.29-.85,4.57-1.38,6.83-.57,2.43-1.21,4.85-1.93,7.25-.45,1.48-1.07,2.9-1.69,4.32-.22.5-.64.92-1,1.35-.29.34-.64.4-1.13.3-.71-.15-1.5-.27-2.18-.09-1.52.4-3.04.88-4.47,1.54-1.85.85-3.61,1.9-5.41,2.87-.9.48-1.73.35-2.29-.52-.53-.82-1.33-1.16-2.16-1.04-1.49.21-2.92.68-3.51,2.31-.34.94-.83,1.64-1.99,1.45-.16-.03-.34.07-.52.1-.87.1-1.74.3-2.61.28-1.68-.04-3.36.02-5.04,0-1.53-.01-3.02.16-4.5.52-1.11.26-2.14.16-3.19-.29-3.53-1.49-7.16-2.52-11.06-2.35-1.88.08-3.73-.25-5.47-.99-2.57-1.09-5.22-1.91-7.99-2.31-1.07-.15-2.17-.22-3.25-.26-1.08-.03-1.98.37-2.54,1.37-.22.4-.51.76-.75,1.15-1.54,2.47-2,5.18-1.6,8.02.34,2.46,1.34,4.75,2.33,7,1.22,2.77,2.68,5.43,4.01,8.15.91,1.87,1.79,3.75,2.64,5.65.42.94.27,1.44-.64,1.93-2.02,1.1-3.92,2.38-5.62,3.92-.49.44-.96.53-1.53.23-.66-.34-1.34-.42-2.03-.11-1.44.66-2.68,1.54-3.47,2.97-.66,1.19-1.04,2.47-1.23,3.8-.12.87-.1,1.75.32,2.6ZM131.39,134.6c-.78.55-1.37.98-1.97,1.39-2.91,1.99-5.81,3.98-8.73,5.96-.72.49-1.25,1.11-1.52,1.96-.27.84-.58,1.66-.9,2.48-1.7,4.33-3.16,8.74-4.29,13.26-.99,3.96-2.13,7.89-3.23,11.82-.31,1.12-.64,2.23-1.03,3.33-.32.91-.64,1.04-1.59.91-1.53-.22-3.05-.57-4.59-.62-3.77-.11-7.54-.25-11.3.19-1.67.19-3.19-.07-4.68-.81-1.11-.55-2.33-.85-3.59-.66-1.08.16-2.14.4-3.21.57-1.7.26-3.04,1.05-3.96,2.53-1.21,1.95-2.9,3.32-4.97,4.28-.92.42-1.79.93-2.75,1.44.16.19.26.34.38.44,1.52,1.23,2.76,2.7,3.86,4.32.77,1.14,1.73,2.12,2.85,2.95,1.13.84,2.2,1.76,3.27,2.68,1,.86,1.41.93,2.37.07,2.85-2.52,5.67-5.09,7.83-8.26.46-.67.87-1.36,1.33-2.04.68-1,1.24-.99,2.04-.55,1.36.74,2.2.59,3.35-.47.65-.59,1.27-1.22,1.91-1.82.62-.57,1.26-.72,2.12-.41,1.81.67,3.3,1.67,4.4,3.29.46.68,1.1,1.32,1.81,1.73,1.68.99,3.54,1.31,5.49,1.08,1.05-.12,2.1-.19,3.15-.24.98-.05,1.35.25,1.52,1.21.04.21.06.42.07.63.12,2.07.3,4.14.33,6.22.04,3.14.83,6.13,1.56,9.14.23.94.51,1.14,1.47,1.19.27.02.55-.07.83-.11,1.18-.17,2.36-.35,3.55-.51,1.88-.26,3.77-.47,5.64-.77,1.49-.24,2.95-.67,4.45-.89,4.25-.63,8.02-2.34,11.39-4.96.39-.3.73-.67,1.05-1.04.16-.18.29-.42.32-.64.1-.73.21-1.47.2-2.2-.03-2.43-.14-4.86-.17-7.29-.03-2.79-.03-5.57,0-8.36.02-1.5-.29-2.94-.71-4.36-.29-1.01-.88-1.36-1.94-1.13-.78.17-1.55.45-2.3.74-.45.18-.86.47-1.28.73-.84.5-1.21.35-1.42-.58-.02-.07-.02-.14-.03-.21-.41-2.64-.89-5.27-1.21-7.93-.26-2.18-1.26-3.84-2.98-5.12-.38-.28-.54-.54-.5-1.05.05-.65-.03-1.33-.14-1.98-.25-1.49-.59-2.97-.81-4.47-.36-2.4-.61-4.81-.98-7.21-.35-2.26-.79-4.51-1.19-6.76-.17-.96-.36-1.92-.58-3.1ZM125.97,58.48c-.13-.58-.18-1.15-.38-1.66-.34-.88-.75-1.75-1.19-2.59-.83-1.59-1.73-3.15-2.56-4.74-.5-.96-.83-1.18-1.92-.98-1.38.25-2.77.5-4.14.78-.86.18-1.7.46-2.57.6-1.86.31-3.62.89-5.3,1.73-.97.49-1.74,1.18-2.23,2.17-.23.46-.31.89-.17,1.42.42,1.56.77,3.15,1.17,4.72.11.44.28.88.5,1.27.39.68.84.83,1.6.6.84-.25,1.68-.53,2.53-.75.47-.12.97-.19,1.46-.18.98.02,1.55.79,1.27,1.73-.16.54-.42,1.04-.65,1.56-.32.72-.49,1.42-.21,2.24.47,1.35-.07,4.07-.92,5.24-1.04,1.43-2.51,2.2-4.11,2.83-.94.37-1.83.91-2.65,1.49-.7.49-.9,1.53-.6,2.18.67,1.43,1.49,1.79,2.96,1.3.2-.07.4-.15.59-.23,1.62-.68,3.25-1.35,4.86-2.06,2.84-1.24,5.67-2.5,7.99-4.65.64-.59,1.18-1.17,1.5-1.99,1.08-2.77,1.77-5.64,2.41-8.53.26-1.17.5-2.34.75-3.51ZM113.09,102.76c-.06-.01-.13-.03-.19-.04-.05.21-.09.42-.14.63l.2.04.13-.64ZM113.39,97.87c.06.01.12.02.18.04l.07-.43c-.05-.01-.1-.02-.15-.03-.03.14-.07.28-.1.42ZM112.87,101.22c.11.17.17.24.22.32.07-.05.2-.12.2-.16-.01-.1-.09-.2-.15-.3-.09.05-.17.09-.27.14ZM148.77,174.85c-.25-.13-.32-.18-.4-.2-.02,0-.11.11-.09.14.03.07.09.18.15.19.07.01.16-.06.34-.13Z"/>
  </g>
</svg>