<?xml version="1.0" encoding="UTF-8"?>
<svg id="Layer_1" data-name="Layer 1" xmlns="http://www.w3.org/2000/svg" version="1.1" viewBox="0 0 154 237">
  <defs>
    <style>
      .cls-1 {
        fill: #baff2a;
      }

      .cls-1, .cls-2 {
        stroke-width: 0px;
      }

      .cls-2 {
        fill: #a515ff;
      }
    </style>
  </defs>
  <path class="cls-2" d="M-291.42-38.81"/>
  <g id="ELECTRIC_05" data-name="ELECTRIC 05">
    <path class="cls-1" d="M145.37,149.37c-.08-.75-.15-1.51-.26-2.26-.05-.32-.17-.64-.31-.94-.23-.48-.52-.9-1.18-.82-.69.09-1.42.62-1.59,1.2-.57,1.89-1.13,3.79-1.74,5.67-.2.63-.52,1.24-.81,1.84-.69,1.4-1.2,2.86-1.58,4.37-.2.83-.03,1.48.52,2.1,1.51,1.68,3,3.37,4.5,5.06.18.2.35.41.6.7-.39.24-.7.47-1.04.64-.55.27-.94.68-1.14,1.25-.4,1.17-1.09,2.17-1.75,3.19-.88,1.37-1.53,2.84-2.08,4.36-.09.25-.13.53-.18.77.23.45.63.37.98.38,2.17.1,4.29.47,6.37,1.08.58.17,1.18.3,1.78.41,1,.18,1.69.69,1.87,1.73.16.87.32,1.73.43,2.61.21,1.66.39,3.32.58,4.98.07.59.3,1.02.91,1.23.78.27,1.53.59,2.3.89.24.1.47.21.85.37-3.43,3.94-5,8.43-4.79,13.62-.34,0-.63.01-.93,0-1.54-.08-3.09-.28-4.62.08-.09.02-.18.07-.27.05-1.58-.3-3,.32-4.46.75-1.24.37-2.52.61-3.79.41-1.09-.17-2.26-.03-3.25-.7-.07-.05-.17-.08-.25-.1-.75-.2-1.17.19-1.06.96.12.84.22,1.69.3,2.54.13,1.38-.33,2.72-.42,4.08-.16,2.23-1.1,4.24-1.85,6.28-.56,1.54-1.62,2.7-3.34,3.11-1.21.29-2.42.6-3.43,1.41-.5.4-1.09.33-1.61-.07-.19-.15-.41-.26-.61-.4-.45-.33-.9-.37-1.46-.22-1.23.33-2.5.52-3.74.85-1.56.41-3.11.86-4.63,1.38-1.44.49-2.86,1.06-4.27,1.63-2.51,1.02-4.99,2.14-7.53,3.09-3.25,1.22-6.55,2.31-9.84,3.44-.97.34-1.96.33-2.97.09-1.75-.41-3.51-.23-5.27.03-1.35.2-2.72.31-4.08.47-.36.04-.71.12-1.06.22-.82.23-1.63.46-2.44.72-.57.19-1.17.36-1.67.68-.76.5-1.49.57-2.22.09-1.57-1.03-3.31-1.66-5.05-2.32-.62-.23-1.2-.6-1.75-.97-1.47-.99-3.03-1.82-4.69-2.45-.62-.24-1.2-.59-1.76-.96-2.1-1.41-4.18-2.85-6.28-4.26-1.19-.8-2.42-1.53-3.6-2.35-.98-.68-1.88-1.45-2.85-2.15-.67-.48-1.36-.93-2.08-1.32-1.08-.58-2.05-1.3-3-2.07-1.65-1.35-3.37-2.62-5.02-3.97-1.55-1.28-3.11-2.55-4.53-3.96-1.27-1.26-2.39-2.69-3.53-4.07-1.26-1.53-2.49-3.08-3.69-4.65-2.65-3.46-5.23-6.98-7.27-10.85-1.09-2.07-2.1-4.2-3.02-6.35-1.41-3.31-2.77-6.64-4.04-10-.99-2.62-1.85-5.29-2.71-7.96-.27-.83-.38-1.72-.47-2.59-.06-.55.2-.71.74-.55.26.08.51.21.72.38.96.73,2.04.81,3.14.54,2.06-.5,4.14-.75,6.25-.6.84.06,1.68.29,2.51.47,1.36.29,2.73.61,4.09.92,1.81.42,3.61.9,5.26,1.78,1.45.77,2.92,1.51,4.33,2.34.96.57,1.83,1.3,2.77,1.93.35.23.76.36,1.11.59,1.29.83,2.35,1.92,3.37,3.06,1.87,2.11,3.39,4.46,4.81,6.88.72,1.23,1.25,2.58,1.85,3.87.27.58.52,1.17.79,1.75.09.19.19.39.34.53.92.85,2.75.63,3.46-.41.07-.1.14-.2.27-.4.24.54.44,1.02.66,1.49.22.47.56.91.66,1.4.26,1.29,1.09,2.13,2.04,2.9.26.21.57.36.85.53.68.41.99.98,1.04,1.8.1,1.7.32,3.39.49,5.09.02.15.03.3.04.46.12,2.04.25,4.07.37,6.11,0,.05-.02.1-.09.33-.25-.74-.45-1.34-.65-1.93-.35-1.03-.67-2.08-1.07-3.1-.34-.86-.64-1.71-.57-2.66.05-.69-.07-1.34-.38-1.95-.13-.26-.31-.54-.55-.7-.48-.34-.91-.71-1.19-1.24-.08-.16-.22-.3-.36-.41-.86-.7-1.57-1.46-1.85-2.61-.16-.66-.51-.76-1.21-.65-.27.04-.54.1-.79.22-1.39.66-2.91,1.09-4.07,2.22-.49.48-.92.27-.98-.4-.25-2.76-1.04-5.38-2.24-7.86-.3-.62-.77-1.17-1.2-1.71-.82-1.05-1.72-2.05-2.5-3.14-.52-.73-1.11-1.12-2.01-1.22-2.58-.3-5.05-1.1-7.53-1.84-1.31-.39-2.66-.61-4.01-.87-1.19-.23-2.41-.34-3.59-.63-1.46-.36-2.92-.55-4.41-.66-.53-.04-1.07-.11-1.71-.19.07.37.08.61.16.82.82,2.1,1.65,4.2,2.48,6.29.85,2.12,1.86,4.17,3.15,6.06,1.03,1.51,2.11,2.99,3.25,4.41,1.14,1.43,2.38,2.78,3.59,4.14,1.55,1.75,3.08,3.54,4.71,5.21.91.93,2.03,1.64,3.03,2.49,1.31,1.11,2.85,1.85,4.42,2.75-.15.48-.27.97-.46,1.44-.18.45-.19.87,0,1.32.27.62.52,1.24.72,1.88.38,1.24,1.35,1.74,2.5,1.77,1.26.04,2.47.31,3.7.5.35.05.73,0,1.09-.01.33,0,.67-.04.99,0,.75.07.93-.02,1.12-.72.06-.2.1-.4.17-.66.12.1.22.14.22.2.39,2.7,1.94,4.61,4.1,6.12.55.38,1.1.77,1.6,1.22.38.34.7.75.98,1.18.17.27.32.5.65.58,1.33.3,2.66.57,4.05.65,2.28.13,4.54.43,6.81.62.85.07,1.71.09,2.56.08,1.53-.02,3.04,0,4.55.31.74.15,1.52.12,2.28.12,2.56,0,5.12-.04,7.69-.04.87,0,1.72-.07,2.49-.46.78-.39,1.39-.23,1.98.35.28.27.61.47,1.02.78.27-.43.5-.77.71-1.12.53-.85,1.05-1.71,1.6-2.55.8-1.23,1.97-2.06,3.15-2.88.55-.38,1.06-.24,1.47.34.12.17.25.35.39.51.06.07.15.1.32.21.66-.58,1.36-1.16,2.03-1.77,1.66-1.53,3.34-3.03,4.93-4.62.79-.79,1.41-1.76,2.13-2.62,1.46-1.76,2.99-3.47,4.4-5.26,1.37-1.75,2.73-3.53,3.91-5.4,1.74-2.76,3.4-5.57,4.95-8.44.99-1.83,1.22-3.87.92-5.95-.14-.98-.16-1.92.28-2.86.84-1.79,1.66-3.6,2.4-5.43,1.16-2.86,2.65-5.55,4.04-8.3.4-.78.71-1.6.98-2.48-1.01.11-1.65.86-2.44,1.28-.8.43-1.52,1.01-2.23,1.57-.73.58-1.42,1.21-2.18,1.86-1.07-2.81-1.39-5.71-2.52-8.56-.19.31-.32.48-.41.68-2.08,4.45-3.86,9.02-5.63,13.59-1.33,3.44-2.72,6.86-4.04,10.3-1.2,3.14-1.99,6.4-2.74,9.66-.5,2.19-.88,4.42-1.33,6.62-.05.26-.18.5-.31.82-.26-.13-.45-.19-.61-.3-.2-.14-.36-.33-.54-.5-1.73-1.59-3.74-1.7-5.6-.22-2.2,1.75-3.43,4.07-3.91,6.82-.1.54-.18,1.08-.27,1.61,0,.05-.08.09-.18.2-.16-.12-.34-.2-.45-.35-.17-.21-.29-.47-.43-.7-.86-1.37-1.69-2.75-2.59-4.09-.7-1.03-1.49-2-2.24-3-.51-.68-1.04-1.35-1.51-2.06-1.17-1.75-2.3-3.51-3.45-5.27-1.19-1.81-2.36-3.62-3.57-5.41-1.52-2.24-3.15-4.41-4.61-6.69-1.18-1.84-2.21-3.78-3.22-5.73-1.13-2.16-2.22-4.35-3.84-6.19-1.02-1.16-2.13-2.25-3.23-3.34-.62-.62-.77-1.39-.73-2.18.04-.83-.13-1.55-.54-2.26-.7-1.22-1.42-2.43-2.02-3.69-.42-.87-.65-1.83-.97-2.75-.25-.72-.47-1.45-.76-2.15-.27-.67-.68-1.15-1.51-1.27-.5-.07-1.04-.41-1.42-.77-1.14-1.1-2.57-1.38-4.02-1.52-1.7-.16-3.29-.53-4.67-1.62-.66-.53-1.42-.94-2.16-1.36-.22-.13-.53-.18-.78-.16-1.09.09-2.18.18-3.27.33-2.95.4-5.65,1.46-8.15,3.05-.21.13-.4.29-.62.39-.76.36-1.45.49-2.1-.3-.46-.56-1.12-1.04-1.87-1.04-.71,0-1.45.18-2.12.43-.5.19-.79.18-1.21-.18-2.86-2.47-5.77-4.88-8.61-7.36-2.04-1.78-4.02-3.64-6.01-5.48-.77-.71-1.14-1.56-1.08-2.68.1-2.08-.09-4.14-.92-6.09-.19-.44-.15-.79.05-1.21.27-.58.51-1.16,1.07-1.54.84-.56.72-1.49.82-2.31.09-.69.09-1.4.06-2.1-.08-1.64-.24-3.27-.31-4.91-.04-1,.02-2.01.08-3.01.04-.76.16-1.51.23-2.27.12-1.25.58-2.3,1.46-3.25,1.28-1.39,2.38-2.93,3.6-4.38.79-.93,1.63-1.82,2.47-2.69,2.2-2.29,4.59-4.37,6.99-6.45,1.15-.99,2.2-2.11,3.28-3.19.61-.62.97-.91,1.67-1.15.1.54.17,1.07.29,1.6.3,1.27.65,2.53.91,3.81.19.95.28,1.92.39,2.89.09.78.15,1.57.22,2.36.06.67.1,1.33.16,2,.1,1.15.21,2.3.3,3.45.04.52.06,1.03.07,1.55,0,.61.23,1.09.63,1.56.92,1.09,1.79,2.23,2.69,3.34.05.07.14.11.25.19.4-.24.8-.47,1.32-.78.09.42.21.73.23,1.05.09,1.47.39,2.89.79,4.3.21.75.64,1.38,1.17,1.94.78.83,1.98.83,2.73-.03.41-.47.71-1.04,1.09-1.62.42.44.72.91.84,1.49.36,1.76.7,3.52,1.1,5.27.14.61.38,1.23.69,1.77,2.47,4.24,4.99,8.45,7.44,12.71,1.05,1.82,1.96,3.72,2.9,5.6.8,1.6,1.56,3.22,2.35,4.86,2.59-.33,4.59-2.32,4.55-4.86,0-.4-.03-.8,0-1.19.08-.96-.25-1.72-.96-2.35-.26-.23-.46-.53-.8-.93.41-.12.65-.2.89-.26,1.21-.3,2.42-.14,3.63-.03,1.95.18,3.86.56,5.75,1.06,1,.26,1.88.69,2.5,1.57.42.59.94.84,1.73.67,1.25-.26,2.53-.36,3.8-.52.15-.02.31-.07.45-.04,1.07.2,1.86-.3,2.63-.95,3.64-3.06,7.29-6.11,10.92-9.18,1.65-1.4,3.29-2.82,4.85-4.31,2.69-2.57,5.34-5.18,7.96-7.82,2.84-2.85,5.62-5.76,8.44-8.62,2.35-2.39,4.75-4.73,7.07-7.15,1.39-1.45,2.66-3.01,3.98-4.53.82-.94,1.64-1.89,2.45-2.84.19-.22.5-.39.31-.77-.61.17-1.23.29-1.81.52-.53.21-1.05.48-1.52.81-.83.58-.82.62-1.64-.05-.42-.35-.87-.48-1.42-.51-2.12-.12-4.19.23-6.26.58-.74.13-1.46.37-2.26.58-.47.34-1.01.77-1.6,1.14-.6.37-1.1.76-1.14,1.53-.02.43-.38.62-.74.72-.79.21-1.59.42-2.4.56-1.06.19-2,.55-2.92,1.19-1.24.88-2.72,1.35-4.23,1.65-.27.05-.62-.02-.87-.15-.96-.52-1.99-.92-2.77-1.73-.2-.21-.52-.31-.76-.5-1.62-1.25-3.24-2.49-4.83-3.76-1.14-.91-2.29-1.8-3.49-2.64-3.51-2.46-7.41-4.1-11.42-5.47-1.46-.5-2.65-1.34-3.91-2.12-1.61-.99-3.25-1.92-5.02-2.57-1.22-.45-2.46-.85-3.69-1.27-.7-.24-1.34-.12-2.03.15-.65.25-1.25.47-1.53,1.15-.16.38-.26.78-.4,1.2-1.17-.46-2.35-.93-3.54-1.37-.6-.23-1.21-.41-1.81-.62-.57-.2-1.13-.46-1.71-.61-.73-.19-1.48-.28-2.23-.43-2.31-.45-4.35-1.43-5.91-3.21-1-1.13-2.2-1.63-3.65-1.4-2.19.34-4.13-.42-6.07-1.23-1.57-.66-3.13-1.36-4.73-1.96-.55-.21-1.19-.23-1.79-.23-.6,0-.83.26-.8.88.03.68.18,1.36.29,2.11-.08.01-.28.07-.47.07-.98.01-1.95.04-2.93.01-1.72-.06-3.32.39-4.86,1.09-.16.07-.33.14-.63.27-.01-.4-.02-.72-.03-1.04-.03-.79,0-1.59-.09-2.37-.23-1.82-1.14-3.32-2.29-4.7-.27-.33-.5-.69-.79-1.01-.35-.38-.68-.82-1.11-1.07-1.01-.59-1.71-1.47-2.41-2.35-.31-.39-.47-.91-1.01-1.14,1.56.38,3.18.31,4.63,1.04.71.36,1.5.14,2.24,0,.38-.07.64-.37.64-.79,0-.47.27-.77.6-1.07.28-.26.44-.64.64-.97.16-.25.26-.6.49-.75.82-.52,1.63-1.17,2.54-1.41,1.8-.47,3.41-1.3,5.04-2.13,1.9-.97,3.81-1.92,5.69-2.93,2.28-1.22,4.53-2.51,6.81-3.75,1.42-.77,2.84-1.53,4.28-2.27.35-.18.74-.26,1.12-.37,1.08-.32,1.95-1.34,2.05-2.44.01-.17-.05-.36-.12-.52-.36-.82-.33-1,.3-1.67.63-.67,1.27-1.32,1.89-1.99,2.3-2.46,4.25-5.19,6.24-7.89.45-.61.82-1.28,1.26-1.9.12-.18.35-.33.56-.39.69-.2,1.37-.19,2.06.07.48.18.99.32,1.5.41.57.1.74-.07.77-.67.01-.24,0-.49.06-.73.35-1.6.05-3.15-.43-4.67-.05-.17-.11-.35-.16-.52-.09-.32.03-.53.32-.67.16-.08.34-.14.5-.22.81-.39,1.52-.89,2.09-1.59.52-.63,1.11-1.21,1.63-1.85.15-.19.25-.5.23-.74-.13-1.15.26-2.14.8-3.13.37-.68.62-1.43.99-2.28-.71-.09-1.29-.16-1.88-.23.23-.16.5-.37.79-.55,1.3-.8,2.6-1.59,3.9-2.38.3-.18.53-.36.55-.76.05-1,.14-2,.23-3.11.19-.26.55-.21.91-.11.53.16,1.04.34,1.57.49,1.63.49,3.26.96,4.98,1.47.27-.41.54-.77.76-1.16.77-1.41,1.08-2.97,1.41-4.52.11-.53.16-1.08.19-1.63.02-.42.2-.73.57-.86.71-.25,1.43-.53,2.18-.66,1.59-.26,3.19-.41,4.73-.94.91-.31,1.91-.36,2.87-.53.18-.03.35-.08.56-.02-1.43.47-2.87.92-4.29,1.43-.94.34-1.87.72-2.77,1.16-.78.38-.76.86-.04,1.4.05.03.08.09.19.24-.25.12-.46.27-.69.34-.47.13-.66.44-.8.89-.57,1.8-1.18,3.59-1.77,5.38-.49,1.5-1.4,2.61-3.02,2.83-.73.1-1.5-.09-2.25-.15-.06,0-.12-.04-.18-.05-1.6-.42-1.61-.43-2.03,1.19-.31,1.21-1.14,2.14-1.69,3.23-.08.16-.41.27-.62.28-.42.01-.77.13-1.08.42-.37.35-.77.4-1.26.2-.61-.26-.77-.23-1.14.36-.41.64-.74,1.33-1.04,2.03-.58,1.35-.98,2.75-.87,4.26.05.67,0,1.34.01,2.01.03,1.37-.1,2.73-.31,4.09-.17,1.11-.19,2.24-.23,3.37-.08,2.01-.14,4.02-.18,6.03-.01.53-.23.82-.71,1.04-1.33.62-2.65,1.23-3.93,1.94-2.8,1.55-5.58,3.13-8.35,4.74-3.88,2.25-7.74,4.53-11.43,7.08-1.31.9-1.99,2.28-2.09,3.8-.11,1.76-.25,3.55.15,5.29.3,1.33.7,2.65,1.11,3.95.12.39.44.72.69,1.06.27.37.53.66.28,1.22-.27.61.28,1.27,1.09,1.51,2.13.63,4.26,1.29,6.4,1.89,3.78,1.06,7.55,2.14,11.36,3.09,1.62.4,3.31.46,4.97.72.98.15,2.01.05,3.05.5-.1.34-.17.65-.28.96-.18.52-.19,1.03.18,1.47.69.81,1.42,1.58,2.11,2.39,1.17,1.39,2.69,2.13,4.44,2.54,4.6,1.07,9.18,2.19,13.77,3.28,1.15.27,2.32.48,3.48.74,1.41.33,2.81.72,4.22,1.03,2.44.53,4.88,1.02,7.32,1.52.23.05.5.04.72-.03.61-.17,1.24-.34,1.82-.6,1.53-.67,3.02-1.47,4.58-2.07,1.71-.66,3.12-1.75,4.64-2.71,1.18-.75,2.45-1.36,3.7-1.98.31-.16.71-.19,1.06-.19,1.31.02,2.62.09,3.92.12.52.01,1.04-.05,1.55,0,.81.07,1.49-.15,2.12-.66,1.89-1.54,3.8-3.06,5.69-4.59.59-.48,1.15-1,1.73-1.5.53-.46,1.13-.87,1.59-1.39.46-.53.72-1.26,1.2-1.78.97-1.05,1.42-2.39,2.19-3.54.9-1.36,1.73-2.72,1.67-4.45.72,1.91,1.63,3.67,2.82,5.3.58.79.8,1.77.81,2.77.01,1.1-.01,2.2,0,3.3,0,.48.14.97.12,1.45-.03.76-.08,1.52-.22,2.26-.26,1.34-.61,2.67-.88,4.01-.19.95-.18,1.96-.47,2.87-.85,2.7-1.29,5.51-2.41,8.14-.35.83-.56,1.75-.66,2.65-.14,1.24.29,2.4.86,3.49.21.39.39.8.59,1.22-.64.5-1.32.5-1.96.62-1.64.31-3.28.65-4.91,1.02-.35.08-.66.32-1,.45-.36.14-.73.28-1.11.36-.92.21-1.83.41-2.71.91.06.34.14.66.18.99.17,1.36.35,2.71.46,4.07.03.4-.08.87-.28,1.22-1.01,1.83-1.57,3.82-2.11,5.83-.29,1.11-.83,2.16-1.31,3.21-.13.27-.45.49-.73.65-.42.24-.9.38-1.33.6-2.26,1.14-4.49,2.32-6.76,3.44-1.25.61-2.3,1.49-3.38,2.33-.87.67-1.73,1.35-2.59,2.03-.29.23-.55.49-.82.73-.35.31-.44.65-.3,1.14.41,1.39.38,1.41,1.8,1.37,1.28-.04,2.56-.1,3.83-.2.42-.03.76.06,1.14.21.74.28,1.5.5,2.25.77.36.13.61.07.89-.21,2.63-2.67,5.33-5.27,8.22-7.67.61-.51,1.24-.99,1.87-1.47,1.1-.86,2.2-1.74,3.32-2.59.63-.48,1.3-.91,1.94-1.37,1.31-.94,2.61-1.9,3.93-2.84.67-.48,1.38-.91,2.04-1.39.39-.28.74-.26,1.06.06.32.32.62.67.91,1.02.88,1.09,1.77,2.17,2.62,3.28.15.2.24.49.25.75.08,2.1.13,4.2.2,6.31.03,1.09.11,2.18.1,3.28-.01,1.64,0,3.29-.14,4.93-.15,1.66-.49,3.31-.73,4.97-.13.87-.22,1.75-.34,2.62-.05.36-.12.72-.19,1.07-.04,0-.07-.01-.11-.02ZM126.83,111.31c-.38.11-.76.18-1.12.32-.65.26-1.29.55-1.93.84-2.21,1.03-4.41,2.09-6.63,3.09-2.86,1.29-5.68,2.66-8.4,4.23-2.48,1.44-4.83,3.08-6.94,5.03-1.03.95-1.99,1.97-3.02,2.92-1.84,1.7-3.57,3.49-4.99,5.57-1.82,2.67-3.55,5.39-4.51,8.51-.16.52-.26,1.06-.39,1.59-.16.64-.28.74-.96.7-.21,0-.42-.06-.63-.09-.82-.1-1.63-.2-2.45-.28-.91-.09-1.57.31-2.1,1.04-.41.57-.85,1.12-1.35,1.6-.69.65-1.54,1.01-2.51.82-.59-.11-1.16-.31-1.67-.45-.09-.72-.15-1.36-.25-1.98-.07-.41-.3-.77-.75-.83-1.22-.14-2.44-.15-3.55.52-.39.23-.76.49-1.07.7-.68-.31-1.25-.71-1.89-.84-.67-.14-1.4-.05-2.1,0-.2.01-.47.19-.57.37-.86,1.51-2.48,2.24-3.59,3.48-.12.13-.29.23-.46.29-1.47.58-2.81,1.47-4.39,1.79-.14.03-.27.13-.45.22.39.88.78,1.73,1.16,2.58.73,1.64,1.45,3.29,2.21,4.91.19.4.44.82.78,1.08,2.6,2.02,5.22,4.01,7.85,5.99.37.28.57.59.63,1.05.09.63.21,1.26.39,1.87.57,1.92,1.18,3.84,1.76,5.76.39,1.28.67,1.44,1.88.87.91-.43,1.79-.91,2.69-1.35,2.54-1.25,5.13-2.42,7.42-4.11.08-.06.19-.06.46-.13-.26.49-.45.84-.63,1.18-.55,1.04-.87,2.09-.19,3.2.21.35.15.66-.02,1.03-.93,2.09-1.71,4.24-3.02,6.14-.45.66-.43,1.34-.03,2.06.86,1.58,1.69,3.17,2.51,4.77.24.48.43.98.64,1.44-.27.25-.46.4-.62.58-.3.33-.28.65.04.96,1.1,1.09,1.71,2.51,2.46,3.83.11.2.23.4.39.66.14-.15.26-.22.29-.32.33-1.11.65-2.22.97-3.33.29-1,.48-2.06,1.19-2.84.67-.73.91-1.55,1.01-2.48.1-.91.17-1.82.37-2.71.61-2.73,1.21-5.46,1.91-8.17.9-3.51,1.8-7.01,2.88-10.47.51-1.66,1.01-3.33,1.62-4.95.97-2.57,2.2-5.02,3.5-7.43.43-.8.99-1.54,1.52-2.28.1-.14.35-.24.52-.22.11,0,.23.25.3.4.05.1.02.24.03.36.06.85.1,1.7.19,2.55.04.37.18.73.32,1.29.39-.42.65-.66.86-.94.75-1,1.49-2.01,2.22-3.02.92-1.29,1.8-2.61,2.76-3.87,1.35-1.76,2.77-3.48,4.15-5.22.19-.24.5-.46.41-.87-.11-.02-.2-.06-.28-.05-1.24.3-2.48.64-3.72.92-.47.1-.96.14-1.44.11-.55-.04-.69-.3-.64-.87.02-.2,0-.41,0-.58-.69-.45-1.34-.57-2.12-.39-.85.19-1.75.24-2.63.2-.88-.04-1.07-.55-.6-1.3.68-1.08,1.67-1.87,2.7-2.57,1.83-1.25,3.71-2.42,5.58-3.61.72-.46,1.48-.85,2.19-1.33,2.38-1.6,4.81-3.1,7.45-4.25,1.09-.47,2.14-1.03,3.22-1.52.52-.24.76-.64.92-1.17.43-1.39.91-2.77,1.35-4.16.36-1.13.78-2.25,1.03-3.4.21-.92.29-1.88.28-2.82,0-.74.05-1.53-.42-2.28ZM136.68,163.08c-.12.18-.24.32-.31.48-.96,2.11-1.92,4.21-2.87,6.33-.12.28-.22.58-.26.87-.11.85-.62,1.29-1.4,1.49-.32.09-.64.19-.97.25-.95.17-1.78.61-2.55,1.18-.18.14-.33.36-.4.58-.16.49-.27,1-.37,1.51-.45,2.24-.84,4.49-1.34,6.71-.41,1.81-.99,3.58-1.41,5.39-.56,2.4-.98,4.83-1.8,7.17-.31.89-.29.89-1.2.92-.39.01-.82,0-1.16.15-1.4.62-2.79,1.28-3.74,2.54-1.78,2.34-3.86,4.39-6.05,6.34-1.04.93-1.97,2-2.82,3.11-1.22,1.6-2.37,3.25-3.46,4.95-.64,1-1.46,1.7-2.5,2.18-.94.44-1.65,1.13-2.16,2.03-.44.77-.75.9-1.65.76-.65-.1-.71-.05-.98.63-.1.24-.22.59-.42.66-.47.18-.73.52-1.01.89-.46.61-.79.64-1.36.16-.23-.2-.43-.43-.64-.66-.78-.86-.93-.85-1.52.11-.26.41-.53.82-.82,1.21-.77,1.06-1.51,2.14-2.34,3.16-.53.66-1.16,1.25-1.78,1.82-.56.51-1.2.94-1.78,1.43-.21.18-.36.43-.55.64.47.41.86.23,1.22.11,2.25-.76,4.52-1.49,6.74-2.32,1.46-.54,2.87-1.19,4.43-1.39.3-.04.59-.17.87-.27,1.91-.7,3.8-1.5,5.84-1.77.15-.02.31-.06.43-.14,1.03-.64,2.22-.83,3.36-1.15,2.79-.79,5.58-1.54,8.37-2.33.65-.18,1.17-.14,1.66.37.31.33.69.61,1.07.86,1.36.91,2.84.73,4.3.39.37-.09.69-.48.97-.79.22-.24.37-.56.49-.87.36-.92.91-1.7,1.53-2.47.47-.58.9-1.26,1.1-1.97.39-1.4.6-2.85.92-4.28.42-1.89.65-3.78.14-5.7-.13-.48-.14-1-.22-1.61.68-.02,1.25-.07,1.82-.06,2.35.06,4.69.14,7.04.21.09,0,.19,0,.27.02.54.12,1.02-.04,1.5-.27.96-.47,1.93-.91,2.89-1.37.35-.17.67-.21,1.05-.08.98.32,1.98.6,2.98.89.3.09.62.11.98.18.11-.68.14-1.27.32-1.81.19-.57.2-1.13.16-1.71-.02-.3,0-.61.03-.91.11-1.06.22-2.12.34-3.18.12-1.06.21-2.12.98-2.98.18-.2.24-.51.39-.84-.54-.2-.96-.37-1.39-.51-.33-.11-.5-.29-.55-.65-.23-1.72-.48-3.43-.71-5.15-.11-.81-.22-1.62-.3-2.44-.11-1.08-.81-1.61-1.77-1.8-2.26-.46-4.51-1.05-6.85-1.03-.64,0-1.28-.1-1.91-.19-.75-.1-.9-.25-.88-1,.04-1.06.12-2.13.23-3.18.04-.38.2-.77.39-1.11.67-1.26,1.36-2.51,2.06-3.76.15-.26.33-.53.56-.72.83-.71,1.19-1.67,1.46-2.69.11-.42.04-.77-.26-1.09-.68-.74-1.34-1.5-2.02-2.24-.09-.1-.26-.14-.42-.22ZM40.62,141.58c-.44-.54-.85-.99-1.21-1.47-1.31-1.81-2.9-3.34-4.64-4.75-1.21-.97-2.31-2.07-3.47-3.11-.43-.39-.85-.78-1.3-1.14-1.07-.85-2.26-1.54-3.17-2.61-.77-.9-1.66-1.69-2.5-2.54-.6-.6-1.25-1.17-1.79-1.82-1.01-1.22-1.95-2.5-2.92-3.75-.1-.13-.23-.25-.44-.47-.24.37-.46.66-.61.97-.5,1.04-.99,2.09-1.45,3.16-.55,1.29-.61,2.65-.07,3.91.66,1.57,1.52,3.05,2.3,4.56.08.16.22.29.32.44.85,1.23,1.7,2.45,2.54,3.68.26.37.49.77.76,1.13.59.78,1.27,1.49,1.78,2.31.85,1.34,1.77,2.62,2.74,3.88.71.93,1.33,1.18,2.52.8,2.46-.79,5-1.3,7.5-1.97,1.02-.27,2.07-.52,3.1-1.21ZM120.38,163.46c.28-.2.55-.34.75-.55.63-.65,1.43-1.03,2.19-1.46,1.22-.69,2.4-1.45,3.58-2.19.69-.44,1.32-1.01,2.06-1.33.88-.39,1.44-.98,1.79-1.84.63-1.58,1.22-3.18,1.89-4.75.83-1.96,1.65-3.93,2.6-5.84,1.12-2.28,1.97-4.65,2.82-7.04.04-.12,0-.28,0-.53-.42.08-.78.12-1.11.23-2,.63-4.03,1.21-5.94,2.11-.99.47-2.02.86-3.01,1.32-.26.12-.53.31-.71.54-.81,1.03-1.64,2.05-2.35,3.14-1.47,2.27-2.93,4.57-4.28,6.91-.67,1.16-1.24,2.39-2.18,3.36-.69.72-.69,1.45-.33,2.33.68,1.66,1.27,3.36,1.91,5.04.06.16.17.31.31.55ZM26.68,122.43c-.39-3.41-3.74-12.37-4.99-13.28-.05.15-.13.28-.13.42-.07,1.92-.14,3.83-.19,5.75-.01.54.2,1.12.09,1.63-.16.73.13,1.16.61,1.58,1.48,1.3,2.96,2.61,4.44,3.91.02.01.06,0,.16,0ZM53.34,199.76c.06.04.12.07.18.11.05-.12.09-.23.14-.35-.05-.02-.14-.06-.15-.05-.07.09-.11.19-.17.28Z"/>
  </g>
</svg>