<?xml version="1.0" encoding="UTF-8"?>
<svg id="Layer_1" data-name="Layer 1" xmlns="http://www.w3.org/2000/svg" version="1.1" viewBox="0 0 154 245">
  <defs>
    <style>
      .cls-1 {
        fill: #baff2a;
      }

      .cls-1, .cls-2 {
        stroke-width: 0px;
      }

      .cls-2 {
        fill: #a515ff;
      }
    </style>
  </defs>
  <path class="cls-2" d="M-291.42-38.81"/>
  <g id="ELECTRIC_04" data-name="ELECTRIC 04">
    <path class="cls-1" d="M150.22,84.65c.15.34.37.66.43,1.02.24,1.25.44,2.51.63,3.77.21,1.39.34,2.79.6,4.17.17.93.1,1.6-.85,2.12-.61.34-.99,1.06-1.57,1.48-1.27.91-1.63,2.19-1.79,3.64-.11,1.03-.5,2.02-.69,3.04-.25,1.35-.43,2.71-.63,4.06-.23,1.59-.46,3.17-.67,4.76-.11.84-.24,1.69-.3,2.53-.17,2.58-.29,5.17-.45,7.75-.18,3.07-.35,6.14-.57,9.21-.09,1.37-.26,2.73-.41,4.1-.09.83-.22.94-1.06.94-.13,0-.27.01-.4-.01-2.54-.44-4.99.1-7.43.7-.51.13-1.03.24-1.54.34-.96.18-1.42-.08-1.69-1.01-.18-.63-.33-1.27-.46-1.91-.13-.6-.42-.93-1.06-1.13-.97-.3-1.95-.3-2.94-.36-.47-.03-.64.24-.68.66-.07.75-.14,1.5-.22,2.25-.02.23-.02.47-.1.67-.16.4-.41.62-.92.47-.53-.15-1.1-.2-1.65-.26-.62-.07-1,.23-1.2.8-.38,1.08-.84,2.14-1.14,3.24-.7,2.62-1.32,5.26-1.99,7.89-.14.57-.34,1.12-.53,1.71-.19,0-.34-.01-.5,0-1.05.09-1.64.59-1.82,1.61-.31,1.74-.57,3.48-.87,5.22-.19,1.13-.31,2.28-.64,3.37-.15.51-.68.93-1.08,1.35-.36.37-.78.68-1.28,1.11,2.79,2.73,5.51,5.35,8.17,8.02,2.67,2.67,5.28,5.39,7.96,8.14-.29.26-.47.45-.67.6-1.11.79-1.92,1.79-2.27,3.12-.31,1.14-.65,2.27-.96,3.41-.35,1.29-.8,2.56-.87,3.92-.02.41-.24.81-.4,1.2-.68,1.67-1.38,3.33-2.07,5-1.09,2.63-1.88,5.33-1.7,8.21.1,1.6.31,3.19.45,4.79.07.72.1,1.44.14,2.16.03.67-.24,1.22-.74,1.64-.4.34-.79.72-1.25.96-2.39,1.24-4.44,2.96-6.58,4.54-2.06,1.53-4.19,2.98-6.27,4.48-.43.31-.83.35-1.29.11-.7-.37-1.4-.73-2.12-1.08-.68-.33-1.38-.62-2.05-.96-1.19-.6-2.44-.46-3.69-.28-.28.04-.56.2-.79.37-1.59,1.16-3.14,2.39-4.76,3.51-1.65,1.14-3.38,2.17-5.08,3.24-.78.49-1.56.98-2.36,1.45-1.25.73-2.19.56-3.16-.54-.28-.32-.53-.68-.84-.97-.77-.74-1.66-1.15-2.78-.87-1.75.45-3.54.78-5.26,1.34-1.85.6-2.37,1.52-2.15,3.46.17,1.49.43,2.98.63,4.47.12.9.18,1.8.3,2.7.1.78.25,1.54.38,2.32.03.16.03.31.05.58-.44-.23-.53-.58-.65-.89-.4-1.08-.97-2.07-1.61-3.03-.39-.59-.63-1.3-.83-1.98-.65-2.17-1.24-4.35-1.86-6.52-.13-.46-.12-.89.07-1.34.9-2.15,1.77-4.31,2.66-6.46.13-.3.28-.6.47-.86.24-.34.44-.69,1.03-.41.48.23.98-.28,1.03-.84.25-2.64.56-5.27.76-7.91.1-1.29.36-2.52.81-3.73.22-.61.12-1.15-.29-1.65-1.05-1.26-2.1-2.53-3.17-3.78-.36-.42-.83-.62-1.4-.6-1.48.03-2.91.32-4.19,1.02-.77.42-1.43,1.06-2.07,1.66-.84.79-1.79,1.22-2.95,1.07-.39-.05-.79-.12-1.13-.28-1.26-.61-2.29-1.41-3.01-2.71-.92-1.66-2.47-2.71-4.36-3.16-.24-.06-.53-.03-.76.06-1.91.73-3.84,1.42-5.71,2.24-1.1.48-1.97,1.28-2.33,2.53-.3,1-.67,1.99-1.08,2.96-.21.5-.12.81.32,1.07.81.5,1.62,1.03,2.44,1.5,1.54.88,2.86,1.99,3.75,3.55.1.17.22.37.38.44,1.22.55,1.56,1.73,2.03,2.79.45,1.02.83,2.07,1.2,3.12.2.55.51.79,1.12.93.86.2,1.69.56,2.48.95.86.43,1.35,1.18,1.6,2.13.36,1.39.81,2.75,1.28,4.11.62,1.83,1.29,3.64,1.94,5.46.05.15.12.32.1.47-.03.17-.12.42-.25.47-.13.05-.36-.07-.51-.17-.12-.09-.18-.26-.26-.41-1.03-1.87-2.04-3.75-3.09-5.6-.14-.25-.45-.53-.72-.57-1.24-.19-2.48-.32-3.73-.45-.49-.05-.99,0-1.48-.01-1.01,0-1.57-.45-1.65-1.44-.17-1.98-.95-3.73-2.02-5.37-.48-.74-.95-1.5-1.43-2.25-.27-.42-.61-.56-1.09-.3-.43.24-.89.43-1.33.66-.97.51-1.7.32-2.27-.61-.22-.36-.4-.75-.6-1.13-.45-.85-1.04-1.58-1.79-2.2-.39-.32-.75-.77-.92-1.23-.61-1.73-1.12-3.49-1.67-5.24-.63-2-1.28-4-1.86-6.01-.32-1.1-.51-2.24-.81-3.34-.37-1.36-.78-2.7-1.2-4.04-.17-.52-.06-.96.23-1.39.47-.72.94-1.43,1.37-2.17.46-.78,1.03-1.42,1.8-1.91,1.25-.8,2.12-1.95,2.91-3.18.23-.36.38-.78.66-1.09.29-.33.66-.68,1.06-.81,1.97-.64,3.97-1.23,5.97-1.8.43-.12.61-.34.59-.76-.02-.56.05-1.13-.06-1.67-.32-1.6-.02-3.12.46-4.64.34-1.09.65-2.19,1-3.28.17-.54-.02-.94-.34-1.35-1.14-1.44-2.27-2.9-3.4-4.35-.51-.65-.49-.76,0-1.43,1.38-1.92,2.75-3.85,4.08-5.8.37-.54.6-1.17.89-1.75.26-.52.2-1.03-.14-1.48-.38-.49-.77-.99-1.22-1.41-1.43-1.31-2.57-2.81-3.31-4.61-.31-.75-.67-1.49-1.02-2.23-.29-.62-.17-1.19.28-1.63.68-.66,1.4-1.3,2.18-1.83,1.89-1.26,3.83-2.45,5.75-3.66,1.06-.67,2.17-1.26,3.18-2,2.77-2.03,6.01-3.31,8.66-5.51.86-.71,1.76-1.38,2.64-2.06.05-.04.1-.1.16-.12,1.27-.4,1.47-1.5,1.62-2.56.44-3.08.78-6.17.64-9.3-.03-.62-.2-1.04-.7-1.4-2.09-1.53-4.13-3.14-6.26-4.62-1.56-1.09-3.23-2.03-4.84-3.05-.3-.19-.63-.41-.81-.7-1.22-1.95-2.41-3.92-3.59-5.88-1.31-2.16-2.67-4.3-3.89-6.51-1.34-2.44-2.63-4.92-3.78-7.45-.91-2-1.96-3.85-3.49-5.44-1.02-1.07-2-2.18-2.99-3.28-.21-.24-.39-.51-.64-.84,3.57-1.97,7.03-3.94,10.55-5.8,2.88-1.52,5.79-3.04,8.78-4.34,4.35-1.89,8.79-3.61,13.2-5.37,4.41-1.77,8.83-3.5,13.24-5.25.86-.34.88-.39.69-1.34-.47-2.31-.99-4.61-1.42-6.93-.44-2.38-.78-4.78-1.19-7.17-.33-1.97-.66-3.94-1.05-5.9-.62-3.08-1.29-6.15-1.93-9.23-.13-.61-.39-.97-1.08-1.05-2.16-.26-4.33-.59-6.49-.07-1.11.27-2.04.17-2.91-.67-1.17-1.13-2.69-.95-4.12-.84-1.1.09-2.19.41-3.37.65.03-.21.03-.43.1-.62.82-2.18,1.59-4.38,2.5-6.52.84-1.99,1.84-3.91,2.79-5.89.29,1.24.68,2.51.88,3.8.23,1.48.29,2.99.41,4.49.06.84.06.89.89.99,1.65.21,3.2.78,4.79,1.22,1.46.41,2.95.71,4.45.92,2.01.29,3.54,1.36,4.93,2.72.41.4.6.9.66,1.5.44,4.53.94,9.05,1.88,13.51.44,2.08.71,4.19,1.1,6.28.47,2.51.97,5.01,1.46,7.52.21,1.06.42,2.12.62,3.18.13.72.11.8-.64,1.08-1.51.57-3.03,1.08-4.54,1.65-.52.2-1.07.4-1.49.75-.99.81-2.16,1.27-3.28,1.79-2.99,1.4-5.96,2.83-9,4.11-1.84.78-3.79,1.32-5.69,1.99-1.21.43-2.43.85-3.62,1.34-.4.17-.77.48-1.08.8-.91.95-1.76,1.95-2.67,2.9-1.21,1.27-2.22,2.69-3,4.25-.15.3-.24.71-.17,1.03.75,3.62,1.46,7.26,2.34,10.85,1.13,4.61,2.4,9.19,3.61,13.78.24.9.4,1.04,1.38,1.06.73.02,1.45-.01,2.18-.02.79-.01.84.04,1.04.74.31,1.07.64,2.13.97,3.19.05.15.12.31.22.44.59.76,2.24,1.61,3.42,1.74-.02-.42-.06-.83-.05-1.24,0-.78,0-1.56.08-2.34.06-.66.69-.88,1.19-1.05,1.34-.46,2.7-.85,4.07-1.23.82-.22,1.1-.43,1.08-1.26-.03-1.37-.14-2.75-.23-4.12-.06-.85-.14-1.69-.23-2.64-.65-.09-1.32-.25-1.99-.25-1.15,0-2.3.09-3.46.15-.2,0-.4.03-.59.03-1.45.04-1.6-.13-2.09-1.53-.78-2.22-1.65-4.42-2.48-6.63-.34-.89-.67-1.78-1-2.67-.12-.31-.23-.61-.38-.91-.5-1.03-.39-1.54.53-2.28.87-.7,1.76-1.39,2.63-2.1.3-.25.57-.54.85-.82,1.16-1.16,2.17-2.46,3.49-3.47.7-.53,1.28-1.24,1.83-1.93,1.41-1.76,3.09-3.22,4.9-4.55.37-.27.69-.61,1-.94,1.24-1.32,2.52-2.58,4.06-3.58,1.1-.71,2.12-1.57,3.12-2.42.73-.62,1.44-1.04,2.41-.62.59.26.97.03,1.35-.45.64-.83,1.24-1.7,2.15-2.29.33-.21.47-.54.44-.93-.05-.95-.1-1.9-.14-2.84-.02-.33-.08-.66-.05-.98.14-1.23-.09-2.4-.35-3.59-.11-.49-.02-1.03,0-1.55.02-.39.11-.78.14-1.16.06-.75.15-1.5.16-2.25,0-.58.05-1.22-.16-1.74-1.03-2.51-1.5-5.15-1.99-7.79-.23-1.25-.46-2.51-.6-3.78.79,2.1,1.76,4.12,2.27,6.32.33,1.43.86,2.82,1.33,4.21.35,1.02.46,2.01.15,3.08-.33,1.13-.55,2.29-.8,3.44-.05.21-.03.46.03.67,1.04,3.86,1.95,7.75,2.67,11.68.29,1.57.5,3.16.74,4.75.1.69-.16,1.19-.76,1.57-.69.44-1.32.99-2.02,1.42-1.09.68-2.16,1.4-3.32,1.93-2.03.91-3.85,2.14-5.68,3.37-2.06,1.38-4.32,2.4-6.71,3.08-.47.14-.94.3-1.54.49.19.47.31.94.54,1.34.31.54.67,1.05,1.05,1.55.91,1.2,1.67,2.49,2.28,3.87.89,2.02,1.96,3.93,3.19,5.77.2.3.4.61.59.91.49.76.69,1.5.55,2.48-.17,1.24-.01,2.55.16,3.81.43,3.08,1.14,6.11,2.13,9.08.24.73.35,1.5.57,2.45.44-.32.76-.52,1.05-.76,1.23-.99,2.48-1.96,3.68-2.98,1-.85,1.98-1.74,2.91-2.66,1.01-.99,2.1-1.86,3.27-2.68,1.17-.82,2.13-1.95,3.12-3,.96-1.01,1.94-1.97,3.21-2.59.23-.11.5-.21.74-.19.48.04.7.35.71,1,.01,1.94.03,3.87,0,5.81-.04,2.22-.13,4.44-.18,6.67,0,.35.05.7.07,1.1h1.09c.06.15.18.32.19.5.15,3.11.3,6.22.44,9.33.15,3.27.27,6.54.42,9.82.11,2.35.22,4.71.38,7.06.15,2.35.38,4.7.53,7.05.07,1.08.03,2.16.06,3.25,0,.39-.02.8.09,1.17.24.8-.1,1.3-.7,1.78-.56.45-1.11.94-1.57,1.49-.88,1.04-.81,1.49.36,2.16.85.49,1.8.83,2.65,1.31,1.49.84,3.01,1.65,4.02,3.11.18.26.47.47.74.64.56.34,1.05.3,1.54-.13.44-.39.87-.81,1.27-1.24.8-.86,1.16-1.85,1.11-3.05-.08-1.92.36-3.77,1.09-5.55.14-.33.26-.68.41-1,.52-1.11.41-2.23.07-3.34-.18-.59-.18-1.11.04-1.71,1.11-2.88,2.05-5.81,2.7-8.83.09-.43.34-.83.51-1.25.07-.18.2-.36.2-.53-.03-1.18.54-2.15,1.1-3.1.19-.33.64-.66,1-.71,1.51-.2,2.8-.95,4.19-1.46,2.35-.87,4.71-1.71,7.08-2.53,1.43-.5,2.86-.99,4.21-1.7,1.52-.81,2.64-1.96,3.1-3.65.92-3.42,1.9-6.82,2.7-10.26.53-2.29.77-4.65,1.15-6.97.42-2.55.86-5.09,1.29-7.64.07-.42.15-.84.25-1.25.22-.85.34-.98,1.19-1.02.56-.03.82-.19.87-.8.05-.63.37-.86,1.05-.97.39-.06.78-.13,1.17-.19.53-.09.71-.44.67-.93-.16-1.92-.34-3.84-.49-5.77-.04-.51,0-1.02,0-1.54.1-.03.2-.06.3-.09ZM78.63,167.37v.25c.31.11.64.23.97.33,2.23.7,4.47,1.4,6.71,2.07.55.17.93.48,1.19.97.2.37.44.74.59,1.13.45,1.16.88,2.33,1.31,3.5.22.61.51,1.12,1.18,1.36,1.27.47,2.5,1.03,3.87,1.17.99.1,1.47.62,1.74,1.57.95,3.42,1.51,6.9,1.95,10.41.17,1.35.25,2.72.95,3.97.32.57.36,1.32.42,2,.16,2.06.29,4.11.38,6.17.05,1.08.02,2.16-.04,3.24-.08,1.37-.27,2.73-.32,4.11-.03.8-.25,1.45-.78,2.05-1.08,1.23-2.13,2.49-3.28,3.83.51.66,1.02,1.32,1.57,2.03.41-.24.75-.43,1.09-.62.72-.4,1.43-.8,2.15-1.21,1.43-.81,2.95-1.51,4.28-2.46,2.6-1.87,5.28-3.59,8.08-5.14.73-.4,1.39-.87,1.59-1.77.29-1.31.69-2.6.94-3.91.35-1.8.63-3.61.9-5.42.26-1.68.48-3.37.7-5.05.25-1.94.42-3.9.75-5.83.34-1.96.83-3.9,1.27-5.85.09-.39.22-.76-.06-1.12-.52-.67-1.01-1.36-1.57-2-1.39-1.57-2.81-3.12-4.23-4.67-.98-1.07-1.92-2.17-2.97-3.15-1.18-1.1-2.29-2.26-3.23-3.57-.27-.37-.53-.76-.85-1.08-.22-.21-.53-.39-.84-.45-1.03-.22-2.07-.41-3.11-.57-1.01-.16-2.02-.36-3.03-.4-1.57-.07-2.73-.66-3.3-2.18-.25-.67-.54-1.32-.86-2.09-.33.18-.62.31-.88.47-1.23.76-2.43,1.58-3.68,2.3-1.65.94-3.26,1.98-5.11,2.56-.78.24-1.53.6-2.27.96-1.28.61-2.53,1.26-3.8,1.9-.11.06-.21.14-.31.21ZM60.75,160.83c.74-.29,1.43-.52,2.08-.81,2.68-1.19,5.36-2.37,8.02-3.61,1.73-.8,3.41-1.71,5.12-2.55.53-.26,1.07-.55,1.64-.66,1.45-.29,2.92-.53,4.39-.71,2.29-.27,4.58-.47,6.88-.69,2.03-.19,4.07-.37,6.1-.53,1.18-.09,2.37-.14,3.55-.21.16,0,.33,0,.49,0,.43-.03.64-.25.65-.7.06-1.7.2-3.4.19-5.1-.02-3.05-.12-6.09-.19-9.13-.07-3.05-.13-6.09-.24-9.14-.04-1.08-.18-2.15-.31-3.22-.19-1.56-.42-3.11-.63-4.67-.29-2.14-.56-4.28-.88-6.42-.13-.86-.38-1.7-.61-2.67-.49.22-.84.38-1.19.55-.53.26-1.03.63-1.59.79-2.01.58-3.7,1.72-5.36,2.91-1.2.87-2.37,1.78-3.57,2.65-.61.44-1.28.81-1.92,1.21-.44.28-.6.65-.44,1.18.13.44.24.9.25,1.35.05,2.04.67,3.93,1.4,5.8.44,1.13.93,2.24,1.42,3.35.24.55.14.96-.26,1.42-.45.51-.85,1.1-1.13,1.71-.52,1.16-.91,2.39-1.41,3.56-1.17,2.74-2.36,5.47-3.86,8.06-.82,1.4-1.94,2.24-3.41,2.78-1.05.38-2.1.8-3.1,1.29-1.8.88-3.57,1.84-5.34,2.77-.75.4-1.59.7-2.23,1.24-1.47,1.25-3.11,2.05-5.03,2.32-.97.14-1.74.7-2.62,1.35,1.05,1.52,2.06,2.97,3.13,4.51ZM38.98,201.24c.19-.32.37-.61.54-.9.49-.85.98-1.7,1.47-2.56.29-.51.73-.88,1.3-.99.84-.16,1.69-.23,2.54-.32.29-.03.6.04.89-.02,1.23-.23,2.46-.45,3.68-.76,1.76-.45,3.28-1.4,4.65-2.54.96-.8,1.5-1.85.89-3.15-.02-.05.02-.12.06-.31.27-.03.58-.09.89-.09,1.02-.01,2.05,0,3.08,0,1.67,0,3.27.32,4.81.97.6.26,1.24.46,1.88.59,2.23.46,4.49.78,6.62,1.61,1.77.69,3.53.85,5.43.62,2.2-.28,4.25-.89,6.16-1.98.77-.44,1.6-.72,2.46-.99,1.19-.37,2.12-.06,3.04.63.63.48,1.26.95,1.91,1.4.16.11.39.14.73.26-.2-1.63-.47-3.1-1.03-4.5-.69-1.73-2.02-2.51-3.85-2.54-.96-.01-1.92,0-2.88,0-.39,0-.77,0-1.09-.4.59-.5,1.14-.96,1.69-1.43,1.19-1,1.72-2.47,2.63-3.67.26-.35.12-.73-.02-1.12-.52-1.44-1.7-2.4-2.62-3.54-.08-.1-.21-.15-.32-.22-1.42-.87-3.01-.88-4.6-.83-.34.01-.58.15-.62.5-.12,1.12.25,3.34,1.63,4.1.22.12.4.3.6.46-.31.59-.79.79-1.33.85-.88.09-1.77.12-2.66.2-.69.06-1.38.1-2.05.26-1.19.27-2.34.69-3.54.92-1.42.28-2.88.34-4.29.65-3.57.79-7.11,1.68-10.56,2.88-2.75.95-5.58,1.56-8.42,2.18-2.32.51-4.65.94-6.96,1.45-.98.21-1.03.36-1.05,1.34-.02,1.11-.02,2.23-.96,3.08-.25.22-.42.61-.48.94-.39,2.23-.51,4.48-.44,6.74,0,.05.08.09.21.24ZM86.98,207.18c.4,0,.66,0,.91,0,1.1.04,2.17-.05,3.16-.62.59-.34,1.16-.66.94-1.51-.04-.17.06-.38.11-.57.31-1.14.61-2.28.95-3.4.25-.86.28-1.69-.25-2.44-.59-.83-1.21-1.64-1.86-2.42-.33-.39-.74-.76-1.18-1.02-.77-.45-1.58-.81-2.38-1.2-.41-.2-.78-.19-1.22.03-.73.37-1.5.68-2.28.93-2.95.95-5.96,1.71-9.05,2.08-1.14.14-2.31.29-3.45.21-1.82-.13-3.58-.65-5.24-1.37-1.69-.73-3.43-.87-5.21-.94-.52-.02-.94.1-1.33.49-.32.32-.73.57-1.14.78-1.91.97-3.83,1.92-5.74,2.88-.54.27-1.07.58-1.69.93.29.23.43.42.6.45.97.15,1.63.8,2.36,1.35.73.55,1.46,1.14,2.26,1.57.52.28,1.08.46,1.48.93.33.4.7.38,1.14.11.53-.32,1.12-.56,1.66-.87.68-.39,1.34-.82,2-1.25.66-.44,1.27-.95,1.95-1.33.74-.41,1.35-.93,1.85-1.6.17-.23.37-.45.61-.75.37.2.71.38,1.06.55.53.26,1.05.59,1.61.76,1.61.5,2.88,1.43,3.89,2.75.12.16.25.3.38.46.38.47.84.7,1.47.66.35-.02.7.04,1.16.08-.06.72-.16,1.33-.16,1.94.01,1.31.06,2.61.12,3.92.07,1.51-.07,3-.28,4.5-.22,1.58-.54,3.17-.28,4.78.04.24.11.47.18.75.22-.07.35-.1.46-.14.79-.32,1.58-.64,2.37-.96.88-.35,1.77-.69,2.65-1.06.61-.25,1.18-.6,1.81-.79,1.58-.47,2.93-1.33,4.3-2.19.3-.19.48-.43.42-.81-.27-1.64-.52-3.29-.79-4.93-.08-.51-.19-1.02-.31-1.69ZM80.32,120.31c-.8.25-1.39.44-1.99.62-1.58.46-3.17.87-4.74,1.38-.62.2-1.03.05-1.56-.24-1.09-.6-2.24-1.09-3.37-1.62-.04-.02-.12.05-.29.12,0,1.15,0,2.36,0,3.56,0,.13.08.25.11.38.42,1.82.82,3.64,1.27,5.45.16.66-.06,1.12-.49,1.59-1.81,1.98-3.9,3.63-6.03,5.24-3.46,2.63-6.97,5.2-10.44,7.82-.94.71-1.82,1.48-2.79,2.27.28.42.49.75.72,1.06.64.87,1.25,1.77,1.94,2.6.98,1.19,2.02,2.33,3.05,3.48.23.26.55.45.88.24,1.22-.76,2.68-1.14,3.69-2.26.32-.36.76-.63,1.18-.89,2.18-1.39,4.1-3.09,6.03-4.79,1.68-1.48,3.1-3.24,4.98-4.49,1.58-1.05,2.88-2.39,4.16-3.77.37-.4.85-.73,1.32-1.03.94-.61,1.92-1.18,2.63-2.07.21-.27.41-.61.45-.93.1-1.01.19-2.03.16-3.04-.09-2.81-.21-5.63-.37-8.44-.04-.7-.29-1.38-.48-2.24ZM50.33,160.45c-.31.22-.51.3-.61.45-.86,1.32-1.73,2.64-2.52,4-.19.33-.26.86-.15,1.22.4,1.28.91,2.52,1.37,3.78.22.61.62.85,1.29.8,1.28-.1,2.57-.13,3.85-.2.79-.05,1.58-.11,2.36-.18.55-.05.83.16.96.73.26,1.12.63,2.21.89,3.32.13.54.37.97.8,1.31,1.42,1.12,2.84,2.25,4.26,3.36.42.33.88.39,1.4.23,2.49-.76,4.98-1.51,7.48-2.25.63-.19.91-.68.99-1.23.05-.4-.09-.84-.22-1.24-.48-1.49-.94-3-1.51-4.46-.39-1-.43-1.97-.19-2.98.06-.27.07-.55.12-.87-.5,0-.89-.03-1.28,0-2.29.24-4.58.46-6.87.75-1.59.2-3.22.26-4.72.97-.4.19-.9.27-1.34.25-.32-.01-.74-.17-.94-.41-1.23-1.45-2.52-2.86-3.47-4.53-.55-.96-1.26-1.82-1.96-2.82ZM73.38,100.19c-.08.01-.17.02-.25.04-.07.17-.19.34-.19.51.02,1.21.07,2.42.09,3.63.02,1.05.06,2.09.02,3.14-.04.78-.42,1.3-1.27,1.53-1.14.31-2.24.77-3.36,1.16-.68.24-1.02.64-1.14,1.41-.16,1.03.07,2.02.11,3.02.01.26.3.56.54.74.99.79,2.11,1.18,3.4.98.57-.09.95.17,1.34.61.54.6,1.21,1.09,1.87,1.57.43.31.92.3,1.39,0,.47-.3.95-.61,1.45-.84.82-.37.98-.99.82-1.77-.19-.93-.37-1.86-.58-2.78-.37-1.69-.74-3.38-1.13-5.06-.43-1.85-.91-3.69-1.83-5.38-.05-.09-.09-.18-.09-.28-.02-.97-.9-1.43-1.21-2.23ZM57.84,180.39c-.3-.47-.52-.86-.79-1.21-.4-.53-.68-1.09-.94-1.7-.53-1.25-1.25-2.42-1.91-3.64-1.97.56-3.73,1.28-5.36,2.29-.37.23-.56.54-.56.97.01,1.61,0,3.21.04,4.82.02.72.22.84.95.67,2.08-.5,4.17-1,6.25-1.52.73-.18,1.44-.43,2.32-.69Z"/>
    <path class="cls-1" d="M29.7,126.37c-.63.5-1.19.94-1.76,1.38.76,1.36,1.81,2.39,3.01,3.27.58.43,1.24.56,1.97.44.98-.15,1.25-.02,1.31.93.09,1.3.04,2.6.03,3.91,0,.69-.04,1.38-.07,2.06-.06,1.41-.14,2.81-.17,4.22-.07,2.78.33,5.48,1.33,8.09.3.79.49,1.63.66,2.46.13.66-.05.85-.72.83-.59-.02-1.19-.07-1.76-.2-1.73-.41-3.42-.1-5.09.28-1.19.27-2.36.63-3.54.92-.37.09-.61.28-.61.66-.03,1.47-.16,2.97.96,4.37-.4.11-.72.25-1.05.28-.49.04-.74.26-.7.75.05.55.05,1.12.21,1.64.21.69.56,1.33.83,2,.37.94,1.07,1.55,1.97,1.97.84.39,1.66.81,2.51,1.17.48.21.98.4,1.5.49.52.09.84.3.95.83.21,1.06.45,2.11.65,3.16.71,3.66,1.41,7.32,2.1,10.88-1.64-2.31-3.88-4.33-5.21-7.03-.19-.38-.5-.69-.75-1.04-.89-1.26-1.75-2.54-2.66-3.78-.56-.77-1.15-1.52-1.76-2.24-1.58-1.85-3.19-3.68-4.77-5.52-.19-.22-.34-.49-.44-.77-.49-1.29-.96-2.58-1.45-3.87-.15-.39-.14-.73.13-1.1,2-2.69,3.98-5.39,5.98-8.09.19-.26.42-.51.65-.74.83-.81,1.52-1.72,2.2-2.65.69-.94,1.6-1.73,2.53-2.71-.14-.47-.32-1.12-.52-1.77-.48-1.56-.96-3.13-1.45-4.69-.37-1.21-.5-2.38.38-3.45.25-.31.21-.6.01-.9-.46-.7-.76-1.44-.86-2.28-.06-.54-.43-.89-.95-1.01-.96-.21-1.93-.38-2.91-.55-.31-.06-.63-.06-.99-.1.15-.71.28-1.3.39-1.84.99-.34,1.96-.62,2.89-1.01,1.04-.43,1.18-.87.75-1.94-.9-2.25-1.88-4.47-2.69-6.76-.8-2.25-1.42-4.56-2.01-6.89.48,1.06.98,2.11,1.45,3.18.71,1.62,1.29,3.3,2.13,4.85.76,1.4,1.8,2.66,2.72,3.98.11.16.28.29.37.46.54,1.06,1.21,2.03,2,2.91.1.11.16.28.3.54Z"/>
    <path class="cls-1" d="M90.05,98.09c-.11-2.78.35-5.46.76-8.15.27-1.75.51-3.5.72-5.26.16-1.29.38-1.51,1.65-1.59.48-.03.97-.16,1.44-.27.54-.13,1.07-.35,1.62-.44,1.03-.17,1.97-.52,2.87-1.03,2.18-1.23,4.49-2.22,6.52-3.72,1.1-.82,1.5-1.76,1.38-3.03-.15-1.59-.27-3.18-.45-4.77-.16-1.36-.4-2.71-.58-4.07-.26-1.98-.58-3.96-.72-5.95-.21-3.12-.83-6.15-1.67-9.16-.34-1.22-.54-2.49-.73-3.75-.14-.92.23-1.55,1.07-2.11,1.85-1.23,3.13-2.97,3.92-5.06.28-.74.61-1.45.94-2.16.46-1,.79-2.02.53-3.17.58,1.55,1.15,3.1,1.75,4.64.23.6.06,1.08-.29,1.56-.93,1.27-1.83,2.57-2.78,3.82-.52.69-.64,1.39-.46,2.22.54,2.43,1.11,4.85,1.54,7.3.7,3.96,1.3,7.95,1.93,11.92.33,2.07.63,4.14.92,6.21.12.84.17,1.69.25,2.54.06.68.1,1.37.19,2.05.14,1.09.05,1.19-.98,1.61-1,.41-1.96.94-2.96,1.35-1,.41-2.05.73-3.06,1.11-.89.34-1.75.76-2.66,1.07-1.56.53-3.17.93-4.7,1.53-1.59.62-3.12,1.4-4.67,2.13-.55.26-.75.71-.83,1.33-.3,2.4-.6,4.81-1.08,7.18-.28,1.4-.91,2.72-1.39,4.08Z"/>
    <path class="cls-1" d="M18.2,186.43c-.36.1-.58.15-.79.23-.88.35-1.21,1.05-.77,1.86,1.88,3.49,3.38,7.19,5.55,10.54.28.44.76.87.4,1.52-.04.07.12.33.24.38.87.38,1.13,1.23,1.43,2.06-1.07-1.2-2.15-2.39-3.19-3.61-1.13-1.32-2.21-2.69-3.32-4.03-.69-.84-1.43-1.63-2.06-2.51-1.71-2.37-3.34-4.8-5.07-7.16-1.11-1.51-2.3-2.96-3.54-4.37-1.29-1.47-2.47-2.99-3.4-4.7-.42-.78-.89-1.53-1.45-2.48.35.23.55.35.72.49.69.55,1.34,1.12,2.14,1.53.45.23.84.63,1.18,1.02,1.11,1.28,2.52,2.2,3.84,3.23.06.04.18,0,.36,0-.06-.25-.07-.47-.15-.66-.88-2.08-1.77-4.16-2.66-6.24-.94-2.2-1.76-4.44-2.42-6.74-.95-3.27-2.05-6.5-3.08-9.74-.14-.43-.3-.85-.39-1.31,1,1.52,1.99,3.04,2.74,4.7,1.35,3.02,2.77,6.01,4.66,8.75.26.38.49.78.71,1.18,1.7,3.14,3.41,6.28,5.08,9.44.5.95.84,1.99,1.31,2.96.35.74.77,1.44,1.16,2.16.26.48.51.96.78,1.49Z"/>
    <path class="cls-1" d="M30.74,208.18c-.54,2.3-1.18,4.51-1.55,6.76-.41,2.47-.28,4.96.61,7.36.18.49.3,1.01.47,1.5.2.56.4.66.97.47,1.12-.38,2.24-.79,3.36-1.17.86-.29.99-.18,1.21.69.1.39.29.82.58,1.09.86.81,1.8,1.54,2.68,2.32.67.59,1.29,1.22,1.95,1.81,1.51,1.33,3.32,2.11,5.21,2.74.38.13.79.19,1.12.39.6.38,1.11.23,1.65-.08.62-.36,1.25-.7,2.03-.94-.1.21-.16.45-.31.61-.33.36-.72.68-1.08,1.02-.46.43-.85.89-.96,1.56-.09.54-.43.66-.95.46-.09-.04-.18-.08-.26-.14-1.91-1.4-4.15-2.15-6.29-3.07-2.45-1.06-4.66-2.46-6.62-4.25-.55-.51-1.12-.72-1.86-.71-1.3.01-2.56.15-3.74.75-.65.33-1.05.16-1.4-.58-.31-.65-.56-1.33-.88-1.97-.43-.85-.92-1.66-1.35-2.5-.25-.49-.53-.99-.64-1.52-.43-1.94-.95-2.39-2.94-2.43-.13,0-.25-.02-.57-.05,3.24-3.43,6.39-6.77,9.55-10.12Z"/>
    <path class="cls-1" d="M117.98,124.12c-.02-.28-.05-.56-.05-.84,0-1.77.06-3.54-.02-5.31-.09-1.89-.29-3.78-.49-5.66-.16-1.48-.42-2.96-.62-4.44-.03-.19-.07-.41,0-.58.07-.19.23-.41.4-.48.12-.05.37.08.5.2.2.19.35.44.67.86.13-.57.25-.93.29-1.29.17-1.56.33-3.12.47-4.68.33-3.52.45-7.05,1.08-10.54.3-1.67.46-3.37.67-4.9.14.53.31,1.19.48,1.85.06.22.14.44.14.66.02,4.19.08,8.37.02,12.56-.04,2.81-.14,5.62-.42,8.41-.19,1.94-.72,3.85-1.12,5.76-.35,1.65-.76,3.29-1.09,4.94-.17.83-.2,1.69-.33,2.53-.05.34-.17.66-.25.99-.1-.01-.2-.03-.31-.04Z"/>
    <path class="cls-1" d="M79.71,17.97c.11-.3.21-.61.35-.9.23-.51.53-.99.72-1.5.4-1.08.77-2.15,1.41-3.12.15-.24.15-.63.11-.93-.22-1.69-1.06-3.16-1.77-4.67-.7-1.48-1.13-3.05-1.65-4.85,1.23.76,2.31,1.35,3.3,2.06.97.69,1.93,1.33,3.13,1.58,1.09.23,1.15.36,1.11,1.49-.03.78-.2,1.56-.22,2.34-.06,1.86-.06,3.72-.09,5.59,0,.23.06.46.04.68-.06.5-.31.75-.8.61-1.5-.43-2.7.2-3.9.95-.5.31-1.04.55-1.56.82-.05-.05-.11-.1-.16-.15ZM81.43,6.24c-.01-.14,0-.24-.03-.29-.06-.07-.17-.09-.32-.16.04.16.03.24.07.27.06.06.15.1.29.18Z"/>
    <path class="cls-1" d="M102.43,190.75c.62-.39,1.22-.77,1.82-1.15,1.57-.97,2.16-2.47,2.33-4.2.06-.59.08-1.18.09-1.77,0-.22-.02-.48-.14-.66-.45-.68-.91-1.36-1.42-2-.76-.97-1.59-1.15-2.8-.7-.21.08-.43.13-.73.22.53-2.22,1.05-4.37,1.58-6.55.14,0,.29-.05.38,0,1.28.75,2.7,1.03,4.13,1.28.58.1,1.15.28,1.72.46.57.18.86.57.82,1.19-.08,1.5-.06,3.02-.25,4.51-.31,2.5-.74,4.98-1.12,7.48-.06.39-.13.78-.24,1.16-.15.54-.47.83-1.01.74-1.65-.3-3.28-.16-4.93.02-.08,0-.17-.02-.24-.04Z"/>
  </g>
</svg>