<?xml version="1.0" encoding="UTF-8"?>
<svg id="Layer_1" data-name="Layer 1" xmlns="http://www.w3.org/2000/svg" version="1.1" viewBox="0 0 148 283">
  <defs>
    <style>
      .cls-1 {
        fill: #baff2a;
      }

      .cls-1, .cls-2 {
        stroke-width: 0px;
      }

      .cls-2 {
        fill: #a515ff;
      }
    </style>
  </defs>
  <path class="cls-2" d="M-291.42-38.81"/>
  <g id="ELECTRIC_01" data-name="ELECTRIC 01">
    <path class="cls-1" d="M84.54,240.96c-.3-.03-.38-.02-.45-.05-2.44-1.25-4.91-2.46-7.32-3.76-2.35-1.26-4.67-2.59-6.98-3.93-.88-.51-1.73-1.08-2.54-1.7-2.81-2.14-5.6-4.31-8.38-6.49-3.57-2.8-6.69-6.05-9.54-9.57-1.28-1.58-2.68-3.08-3.93-4.69-1.59-2.04-3.1-4.15-4.63-6.24-.97-1.33-1.98-2.64-2.87-4.03-2-3.1-3.95-6.23-5.9-9.35-3.87-6.2-7.09-12.75-10.04-19.43-1.26-2.86-2.3-5.82-3.35-8.76-1-2.8-2.02-5.61-2.8-8.48-.62-2.3-1.34-4.58-1.74-6.96-.55-3.29-1.41-6.53-2.09-9.8-.7-3.34-1.34-6.7-2.02-10.04-.74-3.65-1.49-7.31-2.22-10.96-.13-.65-.11-1.34-.28-1.98-.81-3.11-1.7-6.2-2.48-9.31-.3-1.21-.5-2.47-.57-3.71-.21-4.15-.39-8.3-.48-12.46-.06-2.9.03-5.8.09-8.7.06-3.37.08-6.75.25-10.11.12-2.37.48-4.73.74-7.17,1.34,3.72,2.66,7.31,3.95,10.92.74,2.06,1.37,4.17,2.2,6.2.64,1.55,1.4,3.08,2.31,4.49,1.52,2.37,2.78,4.95,5.12,6.69.09.07.18.16.25.25,2.05,2.63,4.93,3.5,8.06,3.75,2.11.17,4.22.27,6.33.23,1.44-.03,2.87-.33,4.3-.53,4.27-.61,8.05-2.52,11.78-4.51.79-.42,1.51-.98,2.22-1.54,1.61-1.26,3.21-2.52,4.77-3.83.59-.5,1.08-1.14,1.58-1.73,1.21-1.44,2.52-2.82,3.58-4.37,1.1-1.61,2.06-3.34,2.9-5.11,1.02-2.12,1.87-4.34,2.11-6.72.28-2.81.47-5.63.75-8.44.24-2.47.24-4.94.06-7.4-.15-1.99-.43-3.97-.68-5.96-.1-.86-.16-1.74-.4-2.56-.79-2.63-1.59-5.25-2.51-7.83-.62-1.73-1.49-3.37-2.18-5.07-1-2.46-2.69-4.51-4.04-6.76-.52-.87-1.09-1.74-1.74-2.51-1.61-1.92-3.21-3.87-4.97-5.64-1.07-1.07-2.43-1.85-3.68-2.73-.83-.59-1.67-1.17-2.56-1.66-1.79-1-3.62-.38-4.35,1.51-.89,2.3-1.21,4.71-1.1,7.16.07,1.68.19,3.37.31,5.05.1,1.38.25,2.75.38,4.09-.13-.4-.33-.84-.44-1.31-.44-1.87-.92-3.74-1.26-5.64-1.06-5.85-1.25-11.7.28-17.51.18-.7.48-1.38.8-2.27.73.63,1.31,1.08,1.84,1.58.77.73,1.49,1.51,2.26,2.23,1.28,1.2,1.79,1.13,2.78-.37.82.4,1.49.96,1.95,1.77,1.42,2.51,3.32,4.65,5.14,6.86.57.69,1.11,1.42,1.6,2.18.7,1.09,1.62,1.89,2.79,2.45,1.87.9,3.71,1.86,5.58,2.81.42,3.52,1.29,6.99,2.58,10.38,1.54,4.05,3.54,7.86,5.59,11.66,1.1,2.03,1.95,4.19,2.85,6.32.62,1.48,1.15,3,1.7,4.51.11.29.18.6.24.91.19.9.13,1.1-.73,1.25-1.07.18-1.57.85-1.78,1.79-.22.99-.21,2.04-.52,3-.29.9-.95,1.67-1.27,2.56-.61,1.66-1.1,3.36-1.64,5.04-.08.26-.16.53-.29.77-1,1.86-1.35,3.92-1.9,5.93-.79,2.88-1.62,5.75-2.34,8.64-.64,2.59-1.16,5.21-1.75,7.81-.93,4.13-1.88,8.27-2.82,12.4-.1.45-.25.89-.43,1.52-.96-1.44-2.33-2.03-3.61-2.75-3.16-1.76-6.61-2.37-10.16-2.7-2.15-.2-4.28-.52-6.43-.75-2-.21-3.98-.13-5.96.28-.69.14-1.41.15-2.09.3-4,.87-7.65,2.38-10.19,5.79-.53.71-1.02,1.53-1.23,2.38-.92,3.66-1.72,7.35-1.61,11.15.07,2.62.34,5.24.55,7.85.36,4.4,1.48,8.67,2.39,12.97.65,3.07,1.38,6.13,2.15,9.18.88,3.46,1.87,6.89,2.8,10.34.35,1.28.62,2.59,1.04,3.85.87,2.64,1.73,5.29,2.74,7.87,1.93,4.93,4.01,9.8,5.92,14.73,1.14,2.93,2.32,5.84,3.94,8.53,2,3.33,4.02,6.65,6.19,9.87,1.36,2.03,3.32,3.54,5.27,5,1.08.81,2.38.73,3.63.6.72-.08,1.16.12,1.59.69,1.67,2.18,3.33,4.37,5.1,6.47,1.8,2.14,3.83,4.05,6.11,5.68.78.56,1.63.85,2.61.92,3.45.27,6.03-1.4,8.31-3.67,1.33-1.33,2.52-2.8,3.71-4.26,2.59-3.14,4.6-6.63,6.26-10.35,2.67-5.99,5.07-12.1,7.4-18.23,1.79-4.7,3.41-9.46,4.49-14.38.24-1.07.57-2.12.9-3.17.18-.59.47-1.06,1.25-.97.65.07.84-.52,1.02-.98.54-1.43,1.07-2.87,1.54-4.33,1.25-3.93,2.39-7.89,3.73-11.79.71-2.07,1.66-4.08,2.67-6.02,1.62-3.1,3.38-6.12,5.1-9.16.12-.21.4-.45.6-.45.18,0,.45.28.54.49.82,1.98,2.01,3.71,3.39,5.34,1.01,1.2,1.85,2.53,2.81,3.78.91,1.18,1.86,2.33,2.8,3.48,1.33,1.64,2.65,3.3,4.02,4.92,1.57,1.86,3.17,3.69,4.8,5.5,1.78,1.99,3.61,3.94,5.42,5.89.72.78,1.47,1.53,2.19,2.3.26.27.47.59.78.97-.4.26-.66.47-.96.62-1.57.77-2.7,1.98-3.55,3.49-1.12,1.97-1.84,4.1-2.25,6.3-.51,2.74-.87,5.5-1.18,8.27-.13,1.15.04,2.34.1,3.52.17,3.32,1.37,6.34,2.79,9.28.35.74.89,1.38,1.33,2.08.29.46.59.93.83,1.41.18.35.13.73-.23.93-.99.55-1.15,1.53-1.35,2.49-.44,2.08-.54,4.2-.51,6.32.02,1.48.17,2.97.26,4.45.09,1.53.19,3.05.27,4.58.07,1.49.16,2.98.17,4.46.02,3.73-.77,7.32-1.97,10.84-.19.56-.2,1.25-.9,1.67-.24-.63-.46-1.2-.73-1.9-.77.8-1,1.62-1.24,2.44-.81,2.67-1.79,5.28-3.18,7.71-1.99,3.48-4.63,6.36-7.86,8.79-3.04,2.29-6.43,3.88-9.81,5.52-1.37.67-2.75,1.34-4.06,2.13-2.18,1.32-3.73,3.21-4.67,5.58-.27.69-.33,1.36.14,2.02,1.16,1.63,2.23,3.32,3.46,4.89,1.01,1.3,2.19,2.46,3.29,3.68.12.13.19.31.15.64-.57-.31-1.13-.63-1.7-.94-.75-.42-1.49-.86-2.27-1.24-1.55-.75-3.13-1.45-4.68-2.21-.9-.44-1.4-1.25-1.71-2.16-.57-1.67-1.09-3.36-1.64-5.03-.45-1.38-.83-2.78-1.38-4.12-.53-1.3-1.2-2.55-1.84-3.8-.41-.8-.88-1.57-1.29-2.38-.66-1.29-1.55-2.33-2.88-3-.62-.31-1.17-.78-1.72-1.23-.28-.23-.67-.49-.46-.98.22-.49.61-.51,1.08-.46,1.09.12,2.19.21,3.28.26,2.27.12,4.54.13,6.8.34,2.32.21,4.61.08,6.91-.24.16-.02.31-.06.47-.04,2.15.2,4.21-.25,6.28-.73.99-.23,2.02-.29,3.02-.47,1.99-.35,3.83-1.17,5.62-2.04,1.97-.96,3.23-2.72,4.22-4.62.42-.8.52-1.7.11-2.62-.15-.34-.12-.84-.01-1.22,1.06-3.9,2.32-7.75,3.19-11.7.82-3.74,1.64-7.52,1.58-11.4-.04-2.81-.5-5.54-1.5-8.16-.16-.41-.48-.81-.83-1.1-.47-.38-.6-.8-.47-1.34.09-.38.18-.77.34-1.13,1.09-2.46,1.29-5.08,1.41-7.72.07-1.45.09-2.9.16-4.34.14-2.71.03-5.4-.52-8.08-.79-3.8-1.41-7.64-2.18-11.45-.49-2.43-1.48-4.72-2.57-6.93-1.05-2.14-2.22-4.23-3.35-6.34-.22-.41-.51-.8-.81-1.16-.8-.94-2.13-1.28-3.19-.66-.98.56-1.91,1.23-2.75,1.99-2.1,1.9-4.08,3.94-5.69,6.26-1.45,2.09-2.85,4.25-4.02,6.5-2.33,4.5-4.53,9.06-6.68,13.64-1.99,4.23-3.92,8.48-5.74,12.78-1.04,2.45-1.85,5-2.67,7.54-1.47,4.52-2.9,9.04-4.27,13.59-.56,1.87-.97,3.8-1.33,5.72-.23,1.2-.23,2.43.43,3.55.25.42.04.75-.29,1.02-.66.55-1.31,1.13-2,1.64-.68.49-1.05,1.14-1.24,1.93-.31,1.23-.53,2.45-.05,3.8Z"/>
  </g>
</svg>