<?xml version="1.0" encoding="UTF-8"?>
<svg id="Layer_1" data-name="Layer 1" xmlns="http://www.w3.org/2000/svg" version="1.1" viewBox="0 0 231 273">
  <defs>
    <style>
      .cls-1 {
        fill: #baff2a;
      }

      .cls-1, .cls-2 {
        stroke-width: 0px;
      }

      .cls-2 {
        fill: #a515ff;
      }
    </style>
  </defs>
  <path class="cls-2" d="M-291.42-38.81"/>
  <g id="ELECTRIC_02" data-name="ELECTRIC 02">
    <path class="cls-1" d="M89.85,201.36c-.27.12-.4.14-.48.21-3.29,3.3-6.68,6.51-9.51,10.25-2.7,3.56-5.52,7.03-8.25,10.58-3.6,4.69-6.76,9.66-9.59,14.85-1.08,1.98-2.35,3.85-3.44,5.82-1.71,3.08-3.32,6.2-5,9.29-.33.61-.78,1.16-1.15,1.74-.09.14-.13.33-.15.49-.12.95-.53,1.75-1.22,2.77-.15-.57-.3-.85-.28-1.12.05-.79.15-1.57.27-2.35.69-4.54,1.25-9.1,2.1-13.6,1.46-7.66,3.16-15.27,5.57-22.7,1.54-4.74,3.17-9.45,4.81-14.17,1.4-4.04,2.81-8.08,4.32-12.07,2.3-6.07,4.81-12.05,7.62-17.9,1.8-3.75,3.46-7.56,5.23-11.32,1.92-4.08,3.9-8.14,5.87-12.2,1.52-3.13,3.04-6.27,4.61-9.38.82-1.63,1.75-3.2,2.61-4.8,1.43-2.65,2.82-5.32,4.29-7.94,2.67-4.77,5.32-9.54,8.1-14.24,1.37-2.31,3.01-4.46,4.5-6.7,1.89-2.84,3.8-5.66,5.6-8.54,4.56-7.29,9.58-14.26,14.71-21.16,2.86-3.84,5.64-7.74,8.34-11.7,2.91-4.25,5.97-8.38,9.15-12.43.96-1.22,1.7-2.57,2.15-4.07.34-1.13.42-2.25-.01-3.37-.41-1.08-1.09-1.8-2.31-1.9-1.62-.13-3.24-.35-4.81.25-.73.28-1.47.58-2.15.96-3.92,2.23-7.71,4.67-11.23,7.51-1.13.92-2.42,1.65-3.58,2.53-1.51,1.15-2.97,2.36-4.43,3.58-3.43,2.87-6.8,5.79-10.26,8.62-2.17,1.78-4.45,3.41-6.66,5.14-3.05,2.38-6.15,4.72-9.12,7.2-3.16,2.63-6.19,5.42-9.29,8.12-1.94,1.69-3.91,3.34-5.84,5.04-1.36,1.2-2.66,2.48-4.03,3.67-2.29,2-4.67,3.91-6.93,5.94-5.21,4.68-10.34,9.44-15.56,14.1-2.42,2.16-4.92,4.24-7.47,6.24-4.41,3.47-8.8,6.98-13.37,10.24-3.63,2.59-7.42,4.99-11.44,6.96-2.52,1.23-5.16,2.24-7.94,2.73-1.88.33-3.79.17-5.63-.45-2.03-.68-3.23-2.21-4.02-4.11-.38-.91-.75-1.83-1.03-2.77-.8-2.67-1.05-5.42-1.06-8.21-.01-4.04.2-8.08.92-12.06.68-3.82,1.44-7.62,2.33-11.4.88-3.77,1.97-7.5,2.96-11.25.44-1.68.83-3.39,1.32-5.05.4-1.36.09-2.58-.5-3.78-.12-.25-.23-.53-.42-.71-1-.95-.64-1.88-.16-2.97,1.03-2.35,1.94-4.77,2.83-7.18.29-.77.41-1.61.55-2.42.2-1.2.48-1.56,1.65-1.85,3.67-.89,7.1-2.39,10.54-3.92,3.56-1.58,6.79-3.72,10.17-5.59,2.25-1.24,4.57-2.35,6.81-3.59,2.86-1.59,5.7-3.24,8.52-4.92,3.09-1.84,6.22-3.6,9.43-5.22,2.36-1.19,4.58-2.65,6.8-4.1,2.62-1.71,5.17-3.51,7.73-5.31,1.13-.8,2.22-1.66,3.28-2.55.93-.77,1.32-1.75,1.29-3.03-.04-1.85-.69-3.23-2.13-4.4-2.82-2.31-6.03-3.7-9.52-4.64-2.52-.68-5.03-.97-7.61-.81-.71.05-1.42-.08-2.13-.04-1.02.06-2.06.09-3.05.32-2.12.48-4.22,1.04-6.32,1.62-3.21.87-5.75,2.74-7.79,5.33-.07.09-.13.2-.2.29-.89,1.21-.97,1.15-1.97.04-2.31-2.57-4.28-5.39-6.22-8.24-2.09-3.08-3.98-6.29-5.29-9.79-.51-1.35-.81-2.82-.97-4.26-.15-1.32,1.24-2.19,2.41-1.55,1.31.72,2.59,1.54,3.76,2.47,1.95,1.55,3.81,3.22,5.68,4.86.38.33.68.74,1.02,1.12-.05.06-.09.13-.14.19-.66-.37-1.33-.74-1.99-1.12-1.2-.69-2.35-1.49-3.83-1.47-.27,0-.56-.01-.82.04-.92.17-1.18.42-1.1,1.36.06.69.22,1.42.54,2.03,1.38,2.69,3.13,5.13,5.16,7.37.74.82,1.48,1.65,2.24,2.46.29.31.64.57.94.84,1.37-.8,2.64-1.59,3.96-2.29,2.02-1.07,4.07-2.09,6.12-3.12.39-.19.81-.33,1.22-.45,3.06-.94,6.07-1.99,9-3.3,2.01-.9,4.11-1.61,6.18-2.4.52-.2.92.05,1.01.52.25,1.25.99,2.12,1.93,2.9.49.41.7.98.56,1.6-.2.84.23,1.37.84,1.81.7.51,1.42,1.01,2.17,1.45,3.05,1.77,6.07,3.58,9.17,5.25,1.87,1.01,3.87,1.78,5.82,2.66.21.1.42.2.66.31-.81,2.3.39,4.02,1.68,5.61.86,1.07,1.98,1.93,2.97,2.89.26.26.72.4.56,1.06-.67-.03-1.38.03-2.06-.1-3.24-.58-6.44-.19-9.64.33-.9.14-1.8.26-2.68.48-3.55.89-6.66,2.64-9.44,5-.45.38-.86.81-1.55.71-2.1-.31-3.98.42-5.82,1.29-2,.95-3.91,2.04-5.66,3.43-.83.66-1.72,1.26-2.64,1.81-3.11,1.88-5.27,4.62-7.11,7.67-1.48,2.45-3.26,4.66-5.17,6.79-3.14,3.51-6.16,7.12-8.54,11.23-1.5,2.58-.71,5.1.66,7.24.13.2.54.36.79.32.67-.09,1.12.06,1.49.68.4.67.59.66,1.39.4.83-.27,1.65-.57,2.5-.74,1.36-.26,2.55.31,2.46,2.01-.05.97.08,1.96.13,2.89.75.32,1.21-.05,1.6-.42,1.07-1,2.14-2,3.13-3.07,2.94-3.21,5.84-6.46,8.77-9.68,1.99-2.2,3.95-4.44,6.03-6.55,1.91-1.95,3.95-3.77,5.95-5.63.24-.23.56-.37,1.01-.65.19.56.36.94.44,1.35.27,1.31.87,2.44,1.68,3.5.82,1.07,1.56,2.19,2.36,3.28.4.55.36.98,0,1.6-1.86,3.27-3.69,6.56-4.68,10.23-.61,2.27-.8,4.52.02,6.77.2.55.43,1.12.76,1.6.66.97,2.08,1.09,2.85.22,1.64-1.87,3.2-3.82,4.86-5.68.84-.94,1.77-1.81,2.75-2.59.6-.48,1.36-.83,2.1-1.04,1.16-.33,2.22-.82,3.2-1.51,1.24-.87,2.54-1.56,4.03-1.95.89-.24,1.74-.75,2.54-1.26,2.9-1.84,5.81-3.68,8.65-5.62,1.56-1.07,2.99-2.34,4.48-3.51,3.65-2.85,7.29-5.71,10.95-8.53,3.26-2.51,6.52-5.02,9.82-7.48,3.96-2.96,8-5.82,11.94-8.8,3.35-2.53,6.6-5.17,9.91-7.74,4.25-3.3,8.32-6.83,12.88-9.71.2-.13.4-.27.61-.35.94-.37,1.47.05,1.33,1.05-.15,1.14-.37,2.27-.49,3.41-.15,1.42-.18,2.85.45,4.2.2.42.09.75-.16,1.1-2.95,4.26-5.15,8.89-6.96,13.73-1.67,4.45-3.15,8.96-4.39,13.56-.22.8-.58,1.56-.81,2.35-.23.81-.78,1.32-1.51,1.54-1.68.51-3.02,1.51-4.25,2.71-3.58,3.48-7.15,6.97-10.15,10.96-1.18,1.57-1.97,3.42-2.89,5.17-.3.56-.3,1.16.02,1.81.25.51.31,1.14.34,1.73.07,1.18.13,2.37.1,3.56-.03.97.47,1.52,1.22,2,1.71,1.11,3.55,1.93,5.49,2.52,2.69.83,5.37,1.68,8.18,2,.52.06,1.1-.04,1.59-.23.92-.35,1.79-.83,2.68-1.25.11-.05.21-.11.33-.14,1.89-.41,3.77-.91,5.69-1.18,1.94-.27,2.47.35,2.76,2.34.26,1.8.63,3.58,1.01,5.35.14.65.48,1.26.66,1.9.23.79.49,1.6.57,2.41.15,1.5.31,3,.82,4.42.98,2.76.73,5.44-.45,8.09-1.15,2.57-2.34,5.11-3.95,7.44-1.66,2.41-3.76,4.32-6.46,5.42-4.57,1.85-8.95,4.14-13.45,6.14-2.88,1.28-5.74,2.69-8.39,4.37-3.57,2.26-6.98,4.78-10.35,7.32-1.79,1.35-3.48,2.88-4.73,4.8-.28.43-.55.89-.67,1.38-.68,2.89-1.33,5.78-1.97,8.68-.65,2.93-.59,5.89-.34,8.86.07.79.07,1.58.05,2.37-.02.72.24,1.32.66,1.86.53.69,1.06,1.38,1.61,2.05.71.85,1.02.88,2.05.44,1.59-.69,3.18-1.4,4.81-1.99,1.63-.58,3.31-1.05,4.98-1.52,1.2-.34,1.83-.04,2.39,1.08.23.46.41.94.59,1.42.68,1.81,1.35,3.63,2.04,5.44.29.77.17,1.37-.34,2.07-2.08,2.82-3.65,5.92-4.93,9.17-.2.51-.32,1.06-.4,1.61-.18,1.25-.32,2.5-.47,3.76.93.53,1.87.37,2.73.28,1.5-.17,2.9-.58,3.97-1.85,1.55-1.85,3.23-3.59,4.87-5.36,1.07-1.15,1.56-2.52,1.84-4.04.17-.92.48-1.84.91-2.67.29-.57.83-1.07,1.37-1.43,1.07-.73,2.21-1.38,3.35-2.02,2.59-1.47,4.64-3.57,6.59-5.75,4.01-4.49,7.94-9.04,11.92-13.55,1.96-2.22,3.98-4.4,5.94-6.63.68-.77,1.23-1.65,1.9-2.43,3.09-3.61,6.2-7.19,9.31-10.79,1.22-1.41,2.36-2.89,3.68-4.19,1.6-1.58,3.3-3.07,5.04-4.5,1.76-1.45,3.55-1.13,4.82.79,1.52,2.32,2.81,4.76,3.77,7.37.96,2.59,2,5.16,2.97,7.74.26.7.44,1.44.61,2.17.13.6.46.97,1.06.85,1.89-.37,3.84-.62,5.64-1.27,1.18-.43,2.21-1.38,3.18-2.24.89-.79,2.04-.82,3.01-1.33.21-.11.6.09.89.2,2.71,1.05,5.52,1.68,8.38,2.14,1.59.26,3.15-.02,4.73-.07.28,0,.55-.02.83-.01.98.03,1.28.51.86,1.37-.62,1.28-1.25,2.56-1.93,3.82-1.47,2.71-3.1,5.34-4.43,8.12-.95,1.98-1.56,4.14-2.26,6.24-.53,1.62-.97,3.26-1.43,4.9-.57,2.03-.78,4.1-.71,6.21.04,1.06-.09,2.13-.25,3.18-.24,1.56-.57,3.11-.88,4.67-.19.97-.4,1.2-1.34,1.11-.93-.09-1.68.39-2.51.59-.5.12-.48.59-.49.97,0,1.11.03,2.21.04,3.32,0,.24-.01.48.02.71.17,1.35-.25,2.39-1.24,3.39-1.55,1.55-2.55,3.52-3.56,5.45-2.76,5.23-5,10.69-7.2,16.16-2.21,5.51-4.16,11.12-5.9,16.81-.85,2.76-1.88,5.47-2.73,8.23-.75,2.42-1.35,4.88-2.04,7.32-.2.72-.46,1.43-.67,2.15-.09.29-.14.59-.29,1.18.53-.3.86-.41,1.1-.62,2.33-2.11,4.97-3.81,7.7-5.31,3.08-1.69,5.91-3.77,8.93-5.54,2.11-1.23,4.3-2.34,6.46-3.48.94-.49,1.59-.11,1.51.96-.16,1.89-.39,3.78-.64,5.66-.21,1.57-.5,3.12-.72,4.69-.21,1.51.09,1.74,1.63,1.4.61-.13,1.25-.22,1.87-.25,1.12-.04,1.59.41,1.71,1.51.02.2.02.4,0,.59-.08.69.02,1.33.38,1.95.1.18.09.42.15.71-.65-.05-.74-.53-.95-.87-1.2-1.87-.69-1.64-3.12-1.43-1.02.09-2.04.24-3.06.28-1.48.06-2.3-.56-2.69-1.98-.41-1.49-.79-2.99-1.18-4.48-.08-.31-.15-.62-.26-.91-.26-.65-.56-.78-1.19-.44-.49.26-.95.57-1.41.87-2.73,1.75-5.46,3.5-8.17,5.27-.69.45-1.33.99-1.98,1.5-1.66,1.3-3.49,2.29-5.48,2.99-1.26.45-2.52.93-3.74,1.5-.63.29-1.19.77-1.72,1.24-.83.72-1.61,1.5-2.56,2.4-.01-.41-.07-.63-.02-.82,1.09-3.76,2.09-7.56,3.34-11.27,1.21-3.6,2.68-7.11,4.02-10.67,1.5-4,2.95-8.02,4.45-12.03,1.53-4.12,3.12-8.21,4.63-12.34.77-2.11,1.44-4.27,2.14-6.41,1.31-4.02,2.55-8.07,3.93-12.07,1.59-4.64,3.33-9.23,4.95-13.87,1.9-5.42,3.76-10.85,4.62-16.56.52-3.48.35-6.93-.48-10.36-.54-2.23-2.03-3.1-4.34-2.97-2.78.15-5.42,1.08-8.04,1.97-.78.27-1.52.67-2.31.9-.32.09-.78-.01-1.08-.19-.32-.19-.57-.54-.79-.87-.9-1.3-1.71-2.66-2.68-3.91-2.23-2.89-4.53-5.69-7.86-7.45-1.1-.58-1.99-.55-3-.04-1.39.7-2.6,1.66-3.72,2.72-3.24,3.08-6.53,6.11-9.69,9.28-1.98,1.98-3.76,4.17-5.65,6.25-2.71,2.99-5.42,5.99-8.16,8.95-1.29,1.39-2.63,2.74-3.98,4.08-2.33,2.32-4.45,4.83-6.43,7.45-.26.35-.56.66-.87.97-.7.72-1.27,1.47-1.5,2.5-.13.6-.47,1.18-.82,1.69-1.84,2.64-4.05,4.97-6.15,7.39-1.7,1.97-3.32,4.01-4.95,6.03-.94,1.17-2.23,1.44-3.6,1.43-2.13-.01-4.27-.07-6.4-.13-.71-.02-1.32.16-1.9.55-1.34.9-2.61,1.85-3.72,3.08-1.45,1.61-3.17,2.98-4.74,4.48-2.8,2.68-5.54,5.42-8.37,8.08-1.61,1.52-3.29,2.97-5.02,4.34-.76.6-1.7.99-2.6,1.36-1.18.48-1.8.21-2.24-.96-.33-.89-.59-1.82-.74-2.75-.9-5.83-1.49-11.68-1.47-17.59,0-2.6-.25-5.21-.4-7.82-.01-.19-.05-.37-.09-.68ZM127.95,89.19c-.11-.03-.23-.06-.34-.09-.33.42-.66.83-.98,1.25-1.09,1.41-2.23,2.78-3.25,4.24-1.35,1.93-2.08,4.17-3.03,6.3-.69,1.55-1.02,3.35-2.62,4.37-.03.02-.05.06-.08.09-.98,1.39-2.1,2.7-2.92,4.18-1.82,3.25-3.51,6.56-5.21,9.87-1.67,3.24-3.34,6.47-5.54,9.4-1.57,2.1-2.95,4.31-4.09,6.67-2.15,4.46-4.34,8.9-6.41,13.39-2.65,5.76-5.25,11.54-6.24,17.88-.14.92-.62,1.62-1.35,2.15-.61.44-1.2.96-1.89,1.22-1.51.58-2.18,1.76-2.59,3.18-.37,1.29-.64,2.61-1,3.91-1.66,6.03-3.23,12.09-5.02,18.08-2.09,6.98-4.37,13.9-6.57,20.84-.06.2-.03.42-.05.63.45-.18.71-.45.92-.76,3.26-4.78,6.94-9.23,10.59-13.71,2.49-3.06,5.36-5.71,8.27-8.32,1.44-1.29,3.09-2.29,4.96-3.17-.02,1.02,0,1.92-.07,2.82-.51,5.53-.4,11.07-.43,16.6-.01,2.13.02,4.27.07,6.4.01.45.15.92.31,1.35.28.78.64,1.53.93,2.31.34.92.44,1,1.48.97.24,0,.48.04.71-.01.75-.16,1.34.08,1.78.67.54.75,1.29.8,2.02.51.76-.3,1.54-.69,2.13-1.24,1.72-1.58,3.35-3.25,5-4.9,2.22-2.23,3.88-4.9,5.82-7.35,1.33-1.67,2.74-3.27,4.15-4.87.74-.84,1.63-1.4,2.93-.85,1.05-2.04,2.17-4,3.09-6.04,1.11-2.46,2.2-4.91,3.71-7.16.37-.56.7-1.15.98-1.76.14-.3.23-.69.17-1.01-.36-1.68-1.05-3.23-2.01-4.65-.08-.12-.25-.17-.42-.29-1.74.78-3.44,1.63-4.95,2.77-2.18,1.65-4.29,3.38-6.44,5.06-.93.72-1.3.61-2.03-.33-.77-1-1.55-2.01-2.47-2.87-.85-.8-1.22-1.67-1.18-2.82.19-4.58.22-9.17-.08-13.75-.15-2.33-.33-4.65-.48-6.98-.06-1-.58-1.59-1.47-1.95-.47-.19-.94-.44-1.36-.72-.77-.51-.8-1.08-.14-1.75.14-.14.3-.26.45-.39.93-.77,1.69-1.67,2.12-2.81.41-1.07.82-2.14,1.17-3.24.18-.55.38-.95,1.04-.89.14.01.3-.07.46-.12.19-1.05-.05-2.01-.48-2.91-.58-1.21-1.23-2.39-1.85-3.58-.36-.69-.27-.99.44-1.28.15-.06.3-.11.45-.14,1.89-.43,3.78-.85,5.67-1.3.61-.15,1.21-.36,1.82-.54,1.63-.48,3.24-1.11,4.91-1.39,4.31-.74,8.43-2.15,12.58-3.43,1.02-.31,2.01-.72,3.01-1.08,1.67-.59,3.33-1.23,5.03-1.75,1.82-.55,3.7-.9,5.5-1.51,2.05-.69,4.07-1.51,6.04-2.4,1.43-.65,2.58-1.68,3.22-3.19.71-1.68,1.6-3.29,2.14-5.02,1.1-3.5,1.22-7.1.25-10.65-.58-2.13-1.41-4.19-2.15-6.28-.11-.31-.37-.56-.58-.87-.35.19-.6.29-.82.45-.88.61-1.75,1.23-2.61,1.86-2.07,1.51-4.26,2.72-6.85,3.05-1.76.22-3.51.5-5.27.74-1.52.21-3.04.51-4.57.62-2.71.19-2.83.06-3.15-2.63-.29-2.43-1.25-4.65-2.05-6.92-.44-1.26-1.05-2.49-1.37-3.78-.44-1.76-.66-3.57-1.03-5.35-.21-1.03-.53-2.05-.81-3.07ZM62.17,90.49c.1-.8.18-1.47.27-2.13.14-1.06.37-2.12.4-3.18.02-.81-.04-1.71-.38-2.41-.31-.64-.24-1,.14-1.47.6-.74,1.21-1.47,1.76-2.25,1.65-2.33,2.72-4.9,3.12-7.74.08-.54.17-1.11-.38-1.53-1.16,0-2.02.65-2.8,1.39-1.78,1.68-3.56,3.37-5.24,5.16-2.73,2.92-5.48,5.84-8.02,8.91-3.26,3.94-6.79,7.62-10.45,11.18-.3.29-.65.51-1.01.79-.84-.82-.88-1.8-1.05-2.71-.2-1.13-.29-2.27-.5-3.4-.18-.97-.74-1.31-1.72-1.16-1.01.15-1.87.61-2.61,1.31-.44.42-.92.8-1.45,1.25-.16-.27-.28-.39-.31-.53-.52-2.15-1.03-4.31-1.56-6.46-.08-.34-.23-.69-.43-.97-1.01-1.46-2.02-2.92-3.09-4.34-.59-.78-.64-.97.03-1.71.19-.2.41-.37.61-.56,1.13-1.05,2.4-1.98,3.35-3.17,3.93-4.92,7.76-9.91,11.62-14.88.1-.13.12-.33.22-.62-.32.08-.52.09-.68.19-.87.55-1.68,1.19-2.58,1.68-2.39,1.3-4.77,2.63-7.24,3.77-2.47,1.14-5.05,2.04-7.56,3.09-1.82.76-3.63,1.55-5.41,2.39-2.27,1.07-4.33,2.45-5.94,4.43-1.15,1.41-1.46,3.02-1.19,4.79.09.61.1,1.23.13,1.76.25.5.44.95.7,1.38.42.71.79,1.47,1.34,2.06.64.68,1.46,1.2,2.21,1.79.19.15.37.31.69.58-1.39.06-2.25.72-3.01,1.56-1.66,1.82-2.65,4.04-3.5,6.3-.9,2.41-1.58,4.9-2.3,7.36-1.55,5.26-2,10.64-1.75,16.09.05,1.14.17,2.32.55,3.38.26.74.53,1.45.64,2.24.2,1.57.92,2.94,2.33,3.68,2.43,1.27,4.97,1.89,7.78,1.25,3.63-.82,6.91-2.48,10.29-3.89,2.29-.96,4.53-2.06,6.76-3.15,5.36-2.63,10.59-5.49,15.29-9.23.87-.69,1.71-1.42,2.6-2.07,4.97-3.63,9.45-7.81,13.78-12.16.26-.26.56-.66.56-.99-.03-2.4-.6-4.56-2.88-5.87-.68-.39-1.38-.77-2.15-1.2ZM213.99,260.66c.76.14,1.3,0,1.88-.5-.75-.14-1.29,0-1.88.5ZM35.04,10.11s-.1.07-.15.1c.04.11.06.26.14.32.12.09.28.12.43.18l.09-.16c-.17-.15-.34-.29-.51-.44Z"/>
  </g>
</svg>