<?xml version="1.0" encoding="UTF-8"?>
<svg id="Layer_1" data-name="Layer 1" xmlns="http://www.w3.org/2000/svg" version="1.1" viewBox="0 0 393 206">
  <defs>
    <style>
      .cls-1 {
        fill: #32FCC7;
      }

      .cls-1, .cls-2 {
        stroke-width: 0px;
      }

      .cls-2 {
        fill: #32FCC7;
      }
    </style>
  </defs>
  <path class="cls-2" d="M-291.42-38.81"/>
  <g id="DUST_05" data-name="DUST 05">
    <path class="cls-1" d="M319.79,172.53c.11.38.19.65.24.81-.58,1.62-2.09,1.94-3.33,2.58-1.15.59-2.34,1.16-3.58,1.51-1.11.31-2.31.41-3.47.45-2.38.07-4.77.02-7.15.03-.07,0-.15,0-.22,0-2.76-.18-5.53-.32-8.29-.56-3.85-.34-7.7-.42-11.56-.2-1.33.08-2.66.2-3.99.26-.39.02-.79-.1-1.19-.15-.74-.09-1.47-.17-2.21-.25-.1-.01-.25.11-.31.07-.82-.49-1.75-.47-2.64-.49-.95-.02-1.73-.73-2.7-.52-.82-.68-1.89-.62-2.83-.96-1.02-.36-2-.92-3.15-.81-.07,0-.16,0-.22-.04-1.08-.8-2.46-.69-3.65-1.18-.39-.16-.9-.02-1.35-.07-1.32-.16-2.64-.34-3.95-.53-.2-.03-.4-.11-.6-.18-.46-.17-.85-.38-1.42-.33-.65.06-1.35-.3-2.02-.49-1.31-.37-2.61-.74-3.91-1.1-.09-.02-.2.06-.46.15.41.19.7.39,1.01.46,1.58.38,3.03,1.12,4.55,1.66,2.2.78,4.44,1.44,6.66,2.13,2.09.65,4.2,1.24,6.28,1.93,1.83.6,3.64,1.21,5.51,1.67,2,.49,3.93,1.29,5.9,1.94,1.59.52,3.18.98,4.85,1.21,1.98.28,3.92.78,5.88,1.18,1.63.34,3.28.62,4.9,1.02,2.55.63,5.1,1.29,7.62,2.02,1.96.57,3.92,1.15,5.95,1.38,1.47.16,2.97.14,4.45.16.82.01,1.64-.03,2.45-.07,1.52-.08,3.04-.15,4.55-.28,3.62-.32,7.23-.68,10.84-1.01,1.63-.15,3.27-.18,4.88-.46,1.51-.26,2.99-.29,4.51-.21.72.04,1.37-.08,2.09.36.57.34,1.43.22,2.15.31.76.1,1.04.34,1.2,1.01.17.71.19,1.37-.52,1.84-1.04.69-2.09,1.38-3.12,2.09-.69.48-1.37.98-2.03,1.5-.35.28-.66.25-1.02.05-1.06-.58-2.12-1.16-3.2-1.71-1.1-.56-2.13-.65-3.18.27-.64.56-1.54.83-2.24,1.34-1.59,1.14-3.37,1.91-5.13,2.71-1.05.48-2.15.91-3.37.69-.25-.05-.52,0-.78-.01-1.41-.07-2.82-.15-4.22-.22-.97-.05-1.93-.15-2.9-.13-2.9.07-5.68-.57-8.4-1.47-3.27-1.08-6.52-2.2-9.78-3.3-1.82-.61-3.64-1.25-5.48-1.82-1.59-.49-3.19-.95-4.81-1.33-.55-.13-1.16-.02-1.79-.02.46,1.55.12,2.99-.31,4.48-.39,1.35-1.17,2.49-1.59,3.8-.14.45-.83.65-.56,1.27-.65.58-1.3,1.16-1.96,1.72-.11.09-.25.17-.39.19-1.78.31-3.56.61-5.34.9-2.89.47-5.77.99-8.67,1.39-1,.14-2.06.12-3.05-.06-2.29-.42-4.51-1.1-6.69-1.94-1.18-.46-2.16-1.22-3.24-1.83-.69-.39-1.36-.92-1.82-1.68-.46-.79-1.19-1.29-2.21-1.2-.8.07-1.61.1-2.4.01-.87-.09-1.6.25-2.35.57-.3.13-.58.27-.97.45-.25-1.44-1.7-1.51-2.49-2.52.49-1.3,1.01-2.68,1.57-4.14-1.68-.88-3.4-1.83-5.15-2.69-3.32-1.63-6.17-3.83-8.57-6.67-1.23-1.45-2.56-2.82-4.04-4.06-1.71-1.44-3.09-3.23-4.06-5.28-.26-.55-.63-1.21.02-1.99.66.71,1.32,1.35,1.91,2.05,1.18,1.4,2.57,2.53,4.14,3.45.79.46,1.54,1.05,2.38,1.38,1.51.59,3.08,1.03,4.63,1.54,1.09.36,2.16.74,3.25,1.08,1.27.4,2.55.77,3.83,1.16.56.17,1.12.33,1.67.52,1.93.65,3.85,1.35,5.79,1.95,1.45.44,2.94.76,4.41,1.12.74.18,1.49.35,2.24.5,1.38.28,2.81.4,4.13.84,1.75.58,2.96-.44,4.28-1.14.62-.33,1.33-.66,1.71-1.53-1.17-.3-2.3-.64-3.44-.87-1.63-.33-3.28-.55-4.86-1.11-.24-.09-.5-.13-.75-.19-.97-.22-1.94-.42-2.9-.67-1.16-.3-2.31-.65-3.47-.98-.39-.11-.84-.12-1.16-.33-1-.66-2.2-.79-3.26-1.26-1.29-.59-2.52-1.31-3.81-1.89-2.34-1.05-4.25-2.73-6.3-4.21-1.14-.82-2.32-1.59-3.47-2.39-.44-.31-.99-.57-.76-1.41.38.04.82-.02,1.14.15.9.48,1.88.44,2.83.47,1.54.04,3.11.08,4.63-.13,1.97-.28,3.95-.35,5.92-.48,1.69-.11,3.42-.1,5.06-.45,1.08-.24,2.06-.25,3.11-.06.33.06.69-.14,1.04-.14,1.62.03,3.23.09,4.85.12,1.49.03,3.01.21,4.46-.01,1.82-.28,3.56.17,5.33.23,1.23.04,2.44.54,3.68.69,1.5.18,2.96.62,4.5.65,1.26.02,2.55-.02,3.78.2,1.41.26,2.83.17,4.24.33,1.25.15,2.51.06,3.76.1,1.54.05,3.01-.42,4.56-.33.95.05,1.91-.45,2.89-.62.96-.17,1.86-.4,2.71-.9.32-.19.75-.2,1.14-.47-.14-.04-.28-.08-.41-.12-.46-.13-.91-.27-1.37-.38-.64-.15-1.28-.26-1.92-.39-.8-.16-1.6-.33-2.41-.47-.43-.08-.88-.07-1.3-.16-2.09-.45-4.02-1.38-6.03-2.05-1.89-.63-3.55-1.73-5.46-2.25-.34-.09-.71-.03-1.07-.07-1.83-.23-3.62.14-5.42.27-.9.06-1.82-.06-2.72-.17-.31-.04-.66-.22-.86-.46-.67-.79-1.26-1.63-1.9-2.44-.99-1.24-1.29-2.73-1.64-4.21-.06-.25-.3-.48-.5-.67-.89-.8-1.85-1.04-3.06-.65-.74.24-1.6.21-2.39.15-1.14-.08-2.1.51-3.17.7-1.03.18-2.04.49-3.06.75-.42.11-.85.23-1.27.35-1.79.51-3.62.78-5.46.99-1.62.18-3.23.53-4.85.62-1.12.06-2.26-.13-3.38-.32-.35-.06-.69-.43-.93-.74-.44-.55-.31-1.21.29-1.6.4-.26.83-.51,1.28-.66,1.89-.62,3.79-1.18,5.68-1.8.7-.22,1.4-.47,1.68-1.01-.39-.75-.79-1.36-1.02-2.03-.15-.44-.32-.89-.68-1.1-.46-.27-.49-.79-.9-1.12-.79-.63-1.48-.85-2.48-.5-.49.17-1.15-.15-1.73-.23-.32-.05-.65-.11-.97-.08-1.65.15-3.3.37-4.96.5-.97.07-1.94,0-2.91.04-1.18.05-2.35.11-3.52.25-2.44.3-4.87.66-7.31.99-.73.1-1.46.17-2.19.23-.22.02-.51.05-.65-.06-.61-.51-1.11-.21-1.72.05-1.25.52-2.53,1.01-3.84,1.31-.58.13-1.26-.23-1.85-.35-.06-.39-.1-.63-.15-.97-1.49.53-2.94,1-4.35,1.56-.6.24-1.2.59-1.69,1.02-.58.5-1.35.51-1.96.91-.11.07-.31.09-.43.04-.85-.34-1.7-.04-2.51.1-1.05.18-1.9-.3-2.75-.63-.74-.29-1.44-.63-2.25-.76-.95-.15-1.87-.48-2.82-.58-1.62-.17-3.24-.23-4.87-.33-.44-.03-.89-.02-1.34-.05-.95-.05-1.89-.11-2.99-.17.51,1.11-.33,1.77-.51,2.6-.04.19-.52.35-.81.4-.45.07-.92.02-1.42.22.33.18.66.36,1.08.58-.19.18-.31.39-.44.39-1.34.02-2.47.76-3.7,1.12-3.67,1.07-7.3,2.2-11.11,2.75-2.21.32-4.43.35-6.64.51-1.13.08-2.28-.12-3.43-.22-.58-.05-1.1.04-1.61.53.76.46,1.49.89,2.22,1.34,1.03.64,2.08,1.26,3.09,1.93.67.44,1.35.71,2.18.66.93-.06,1.86-.06,2.79,0,1.73.11,3.43.35,5.3,1.01-1.43.73-2.65,1.39-3.9,2-2.8,1.36-5.63,2.68-8.16,4.52-.68.5-1.37.98-2.04,1.5-.75.58-1.55,1.01-2.49,1.26-.81.22-1.56.68-2.35,1-1.46.59-2.92,1.18-4.41,1.71-1.28.45-2.6.8-3.88,1.22-.59.19-1.18.42-1.72.72-1.15.64-2.46.74-3.65,1.19-.77.3-1.55.63-2.31.97-.49.22-1.07.22-1.62.3-1.28.19-2.56.38-3.84.56-.72.1-1.44.21-2.16.23-.4.01-.81-.16-1.07.31-.02.04-.19,0-.29,0-2.11-.09-4.22-.35-6.33.11-.31.07-.67-.14-1.01-.19-.48-.06-.96-.14-1.43-.11-1.33.08-2.62-.08-3.93-.34-.81-.16-1.68-.09-2.52-.07-.69.01-1.38.12-1.98-.37-.1-.08-.3-.1-.42-.07-1.23.33-2.46-.09-3.69-.03-1.24.06-2.49-.05-3.73,0-1.02.04-2.04.21-3.06.32-.55.05-1.1.08-1.66.12-.26.02-.56-.05-.76.07-.84.46-1.79.33-2.67.53-.42.09-.95-.06-1.37-.24-1.26-.56-2.6-.69-3.92-.71-.98,0-1.97.26-2.94.47-1.84.41-3.68.81-5.49,1.32-.99.28-1.91.77-2.87,1.16-.51.21-1.04.39-1.54.62-.88.38-1.73.82-2.62,1.16-.68.26-1.4.45-2.12.57-.28.05-.65-.11-.89-.29-.91-.68-1.9-.83-3-.66-1.42.22-2.89.2-4.26.59-1.42.41-2.79,1.08-4.07,1.82-.89.52-1.67,1.29-2.35,2.07-.46.52-.78,1.18-1.31,1.65-.27.24-.59.47-.92.55-1.35.35-2.72.64-4.07.97-.6.14-1.41.11-2.18.06-.34-.02-.74.2-1.05.41-.53.35-.96.31-1.56.08-.49-.19-1.24-.21-1.65.05-.56.34-.95.21-1.43.03-.23-.09-.49-.16-.74-.15-1.22.07-2.42-.07-3.66.24-.73.18-1.63.15-2.43.21-.77.06-1.65-.2-2.38.29-.06.04-.14.11-.2.1-.46-.1-.91-.2-1.36-.33-.46-.14-.68.64-1.29.21-.41-.29-1.11-.15-1.67-.25-.36-.06-.7-.22-1.21-.38-.28.3-.67.41-1.29-.04-.49-.35-1.25-.32-1.88-.47-1.22-.28-2.25-.88-3.1-1.81-.3-.32-.68-.56-1.02-.84.09-.33.19-.59.22-.87.1-.8.37-1.44,1.22-1.76.39-.15.74-.47,1.06-.76.77-.68,1.59-1.15,2.67-1.17.49-.01.97-.31,1.46-.48.3-.11.6-.27.92-.3,1.17-.13,2.23-.62,3.34-.95,1.38-.42,2.79-.99,4.31-.65.22.05.48-.11.72-.15.2-.03.41-.03.61-.01.1,0,.19.15.28.14.86-.14,1.72-.31,2.59-.45.25-.04.5-.03.75-.03.27,0,.54,0,.81-.02.07,0,.16-.07.21-.05,1.46.51,2.93-.38,4.43.08.66.21,1.46-.04,2.2-.08.37-.02.73,0,1.1-.04,1.52-.12,3.04-.26,4.56-.39.75-.06,1.51-.12,2.27-.18.33-.03.65-.05.98-.09.14-.02.3-.17.41-.14,1.41.38,2.73-.42,4.13-.29.39.03.8-.14,1.2-.16,1.75-.08,3.49-.16,5.24-.2,1.81-.03,3.63-.01,5.45-.01,1.87,0,3.61-.57,5.35-1.15,1.99-.66,3.99-1.3,5.97-1.99.95-.33,1.87-.75,2.8-1.13.1-.04.19-.16.27-.16,1.41.1,2.57-.79,3.93-.95,1-.12,1.97-.47,2.96-.7.99-.23,1.98-.41,2.96-.65.82-.19,1.62-.46,2.44-.65.61-.14,1.23-.24,1.84-.33.76-.11,1.52-.21,2.28-.3,1.2-.13,2.39-.29,3.59-.35.83-.04,1.66.06,2.49.11.55.03,1.1.1,1.65.11,2.66.04,5.32.08,7.97.09,2.73,0,5.45-.05,8.18-.02,1.76.02,3.52.17,5.28.25.47.02.94.05,1.41.01,1.52-.11,3.04-.24,4.55-.38.33-.03.69-.1.96-.27.66-.42,1.39-.45,2.13-.5.36-.03.71-.15,1.06-.24.22-.05.42-.16.64-.19,2.16-.27,4.21-.93,6.26-1.65.71-.25,1.48-.35,2.22-.53.6-.15,1.18-.36,1.79-.5.35-.08.71-.08,1.17-.12-.42-.55-.94-.37-1.36-.35-1.62.09-3.23.24-4.84.36-.15.01-.3.02-.45-.02-2.13-.55-4.31-.28-6.46-.39-2.52-.13-5.03,0-7.53.45-.93.16-1.9.39-2.86.08-.09-.03-.22.03-.33.04-1.38.2-2.76.46-4.15.58-1.53.13-3.06.16-4.6.18-1.89.03-3.78.1-5.66-.03-1.16-.08-2.34.16-3.45-.06-1.87-.36-3.79-.06-5.63-.6-.31-.09-.67-.08-.99-.02-.78.15-1.52.07-2.31,0-1.97-.2-3.96-.46-5.93-.12-1.1.19-2.21.09-3.31.27-1.22.2-2.46.21-3.69.31-.09,0-.16.09-.25.14-1.19.65-2.54.43-3.8.7-.72.16-1.46.19-2.19.31-.97.15-1.94.35-2.91.48-.92.12-1.85.19-2.77.27-.64.06-1.27.13-1.91.15-.44.02-.66.43-1.17.42-2.03-.04-4.07.06-6.1.11-.19,0-.4-.06-.55,0-1.05.47-2.16.26-3.23.28-2.87.05-5.75.04-8.62,0-1.57-.02-3.13-.21-4.7-.23-1.85-.03-3.7.04-5.55.07-.1,0-.25.08-.29.04-.63-.58-1.38-.23-2.07-.31-.57-.06-1.17-.34-1.7-.24-.49.09-.93.04-1.38,0-1.48-.15-2.98-.11-4.43-.52-.27-.08-.59.03-.87-.01-1.16-.18-2.36-.27-3.47-.61-.78-.24-1.46-.83-2.16-1.29-.39-.26-.74-.57-1.14-.88-.65.38-1.29.74-1.92,1.11-1.37.8-2.81,1.34-4.43,1.49-.77.08-1.53.54-2.24.93-1.41.78-2.91,1.26-4.49,1.54-1.13.2-2.1-.33-3.12-.61-.42-.12-.13-.75-.76-.81-.57-.05-1.11-.48-1.66-.75-1.36-.65-1.91-1.95-2.47-3.21-.47-1.08-.79-2.23-1.3-3.29-.65-1.34-.78-2.74-.77-4.19,0-1.11-.06-2.22.03-3.32.07-.95.28-1.9.49-2.84.24-1.08.62-2.13.81-3.22.17-1.01.82-1.52,1.61-1.97,1.06-.6,2.26-.66,3.42-.9.93-.2,1.9-.42,2.71-.89.82-.48,1.6-1.16,1.73-2.26.04-.36.22-.71.33-1.06.33-1.06.38-2.18.28-3.25-.16-1.56.42-2.78,1.36-3.91.39-.47,1.02-.89.32-1.57.24-1.69-1.12-1.97-2.19-2.53-.51-.27-1.02-.58-1.45-.96-.48-.43-.83-1.01-1.31-1.45-.53-.49-.7-1.08-.44-1.69.38-.91-.03-1.77-.18-2.59-.1-.56-.81-1.1-1.36-1.48-1.04-.72-1.76-1.63-2.12-2.84-.11-.38-.33-.74-.52-1.1-.48-.95-1.13-1.85-1.4-2.85-.28-1.08-.3-2.27-.26-3.4.06-1.57.24-3.15.45-4.71.14-1.05.44-2.08.68-3.12.17-.75.38-1.5.53-2.25.43-2.13,1.65-3.91,2.59-5.81.35-.71,1.2-1.17,1.8-1.77.39-.4.77-.82,1.05-1.29.38-.64.95-1.02,1.58-1.34.94-.46,1.9-.91,2.85-1.34.9-.41,1.4-1.22,2.01-1.91.73-.82,1.33-1.83,2.2-2.44,1.38-.96,2.89-1.67,4.73-1.44,1.17.14,1.94-.85,2.78-1.55.4-.33.55-.67.47-1.13-.04-.24-.15-.47-.27-.69-.26-.51-.52-1.03-.82-1.52-.14-.23-.34-.49-.58-.6-.64-.3-1.28-.45-2.06-.41-1.2.06-2.46-.2-3.63-.52-.8-.22-1.63-.37-2.44-.64-.89-.3-1.66-.76-2.37-1.3-.95-.72-1.92-1.35-3.04-1.76-.24-.09-.55-.19-.64-.38-.45-.86-1.16-1.57-1.3-2.6-.11-.8-.35-1.58-.51-2.37-.26-1.27-.47-2.54-.77-3.8-.16-.64-.47-1.24-.72-1.85-.46-1.12-.95-2.23-1.4-3.35-.38-.96-.62-1.98-1.08-2.9-.76-1.53-.91-3.19-1.23-4.81-.23-1.15-.3-2.34-.35-3.51-.05-1.03-.02-2.07.05-3.11.11-1.77.25-3.54.43-5.3.15-1.51.25-3.04.61-4.51.41-1.7,1.21-3.27,2.06-4.81.22-.41.39-.85.63-1.24.61-1,1.18-2.03,1.88-2.96.65-.86,1.46-1.61,2.19-2.42.34-.38.67-.77,1.02-1.14,1.17-1.22,2.52-2.2,3.9-3.17,1.73-1.23,3.42-2.5,5.25-3.58.82-.48,1.67-.91,2.52-1.34.32-.16.68-.26,1.03-.36.91-.26,1.63-.07,2.23.74.55.74,1.38,1.28,1.59,2.26.86.36.88,1.36,1.46,1.92.58.56,1.16,1.11,1.75,1.66.24.23.55.4.76.65.56.67,1.16.87,2.11.77,1-.1,2.13.08,2.86,1.08.87,1.18,2.18,2,2.81,3.38.21.45.38.95.44,1.44.14,1.31.21,2.63.31,3.94.64.29,1.2.5,1.52,1.18.19.4.87.56,1.35.8.09.04.26-.03.37-.1.37-.23.78-.43,1.07-.74.54-.59,1.19-.59,1.85-.41,1.32.36,2.56.92,3.54,1.93.07.07.2.08.34.14.67-.65,1.49-1.1,2.23-1.62.92-.65,1.92-1.12,2.88-1.64.91-.5,1.79-1.05,2.87-1.31.72-.17,1.6-.15,2.21-.74.05-.05.13-.08.2-.08,1.24-.15,2.49-.34,3.73-.41,1.32-.07,2.65,0,3.97-.03.29,0,.58-.09.87-.17.92-.25,2.51-.21,3.42.06.24.08.52.06.76.13.34.1.7.19.98.39.59.42,1.19.81,1.73,1.33,1.02.96,1.56,2.08,1.89,3.39.33,1.32.74,2.61,1.07,3.93.16.63.33,1.31.24,1.94-.14.98.39,1.84.3,2.75,1.24.09,2.46.22,3.67.25.89.03,1.69.55,2.61.38.12-.02.32.31.54.55.66-.41,1.11.15,1.64.54,2.19,1.65,3.93,3.74,5.75,5.76.43.48,1,.85,1.52,1.27.3-.17.52-.3.74-.42,1.11-.6,2.28-.77,3.51-.43,1.49.41,2.99.76,4.45,1.24.62.2,1.22.57,1.71,1,1.94,1.69,3.9,3.37,5.29,5.59.54.86.83,1.73.68,2.73-.2,1.43-.41,2.85-.63,4.32-.2-.12-.33-.18-.44-.28-1.69-1.44-3.73-2.19-5.84-2.55-2.17-.37-4.41-.64-6.55.35-1.75.81-2.77,2.25-3.5,3.95-.21.5-.34,1.04-.54,1.65-.47-.57-.88-1.08-1.3-1.59-.84-1.02-1.91-1.38-3.18-.99-1.16.36-1.79,1.27-2.14,2.38-.09.29-.09.74.07.97.45.62.32,1.28.25,1.91-.08.67-.01,1.18.53,1.66.96.86,1.85,1.8,2.77,2.72.33.34.73.66.94,1.07.78,1.5,1.59,3.01,2.22,4.57.42,1.04.87,2.11.82,3.3-.02.64.65.94,1.2.51.4-.31.73-.74.99-1.18.21-.35.41-.53.82-.63,1.22-.28,2.43-.58,3.62-.96,1.35-.43,2.66-.59,4.03-.12.65.22,1.34.32,1.99.47.79-1.2,1.56-2.44,2.39-3.64,1.1-1.59,2.38-3.03,3.96-4.14,2.2-1.55,4.33-3.2,6.7-4.5.19-.11.37-.25.58-.31,1.78-.49,3.56-1.03,5.36-1.42,1.26-.27,2.56-.35,3.84-.5.34-.04.69-.04,1.03-.06,1.76-.14,3.42.3,5.08.83.73.23,1.48.39,2.22.6.74.21,1.47.45,2.22.64.74.19,1.5.32,2.33.5.08.14.23.4.39.68,1-.07,1.84.31,2.66.82.83.51,1.72.92,2.52,1.47.5.34.88.87,1.33,1.29.7.67,1.42,1.33,2.24,2.1.04-.48.09-.86.09-1.24.02-1.01-.26-1.99-.18-3.03.12-1.68,1-2.91,2.04-4.08.51-.57,1.01-1.2,1.63-1.62,1.22-.83,1.85-2.33,3.33-2.86.5-.18.97-.52,1.36-.89.31-.29.44-.74.84-1.01.56-.38,1.09-.56,1.79-.64,2.28-.26,3.93.91,5.58,2.14,2.06,1.53,3.74,3.44,5.37,5.4,1.97,2.37,3.56,4.96,4.75,7.82.56,1.35,1.31,2.62,2.05,3.89.42.71.47.65,1.16.14.18-.13.57-.25.7-.15.87.65,1.99.78,2.84,1.54,1.31,1.17,2.34,2.51,3.19,4.03.84,1.5,1.78,2.95,2.04,4.69.08.5.07,1.03-.01,1.53-.04.22-.36.46-.6.53-.13.04-.45-.22-.54-.4-.67-1.55-1.99-2.32-3.49-2.66-.61-.14-1.29-.51-2.01-.24-.22.08-.55-.11-.81-.21-.87-.32-1.69-.41-2.53.17-.51.34-1.2.42-1.72.75-.63.4-1.28.87-1.7,1.46-.23.33-.08,1.01.06,1.48.19.6.19,1.03-.16,1.63-.34.59-.24,1.38.25,2.04.52.71.97,1.47,1.48,2.24-.45.25-.71-.03-.98-.26-.56-.45-.99-1.08-1.77-1.22-.11-.02-.19-.2-.27-.32-1.04-1.57-2.08-3.15-3.11-4.72-.67-1.02-1.34-2.03-1.98-3.06-.46-.75-1.02-1.19-1.97-1.14-1.24.07-2.49-.02-3.74.04-.96.05-1.91.1-2.84.44-1.38.51-1.39,1.46-1.14,2.49.16.67.43,1.3.65,1.95l.78,1.48c.39.09.79.18,1.18.29,1.54.44,3.13.78,4.61,1.38,1,.4,2.04.74,2.99,1.24.69.36,1.3.86,1.95,1.3.25.17.48.37.75.49,1.72.77,2.42,2.34,3.1,3.92.37.86.72,1.73,1.05,2.6.34.88.38,1.76.18,2.71-.16.75-.34,1.47-.63,2.18-.05.12.01.28.04.56,2.51-.95,4.72-.11,7.11.92.51-.15.92-.74,1.27-1.29.83-1.3,1.53-2.69,2.3-4.03.46-.8.96-1.58,1.45-2.36.74-1.17,1.66-2.16,2.79-2.98,1.65-1.21,3.4-2.21,5.18-3.2,2.38-1.33,4.9-2.47,7.06-4.19.52-.41,1.12-.72,1.7-1.05.67-.38,1.33-.56,2.12-.23.92.37,1.76.18,2.58-.49.61-.5,1.41-.83,2.17-1.08,1.96-.64,4-.83,6.06-.72,2.21.11,4.13.92,5.77,2.47.81.76,1.51,1.67,1.81,2.62.32,1.02.65,1.98,1.2,2.9.14.23.04.64-.03.95-.2.91,0,1.2.93,1.1.73-.08,1.48-.21,2.17-.46,2.47-.87,4.95-.76,7.44-.15.71.17,1.41.35,2.12.53.14.04.36.06.41.16.38.74,1.24.73,1.86,1.27.54-.69,1.16-1.33,1.6-2.07,1.93-3.29,4.73-5.76,7.58-8.2.42-.36.86-.71,1.25-1.11,1.68-1.69,3.7-2.83,5.92-3.64,1.71-.63,3.33-1.35,4.84-2.43,1.78-1.27,3.9-1.92,6-2.52.46-.13.9-.34,1.37-.43.87-.16,1.75-.28,2.62-.38.37-.04.75.04,1.12-.02,2.01-.35,3.98-.24,5.96.28,1.34.35,2.7.57,3.97,1.22.56.29,1.3.24,1.96.35,1.82-2.42,3.3-5,5.34-7.17.09-.65-.13-1.16-.57-1.7-1.79-2.17-3.26-4.55-4.25-7.19-.76-2.01-1.54-4.01-2.26-6.03-.28-.79-.45-1.63-.61-2.46-.41-2.1-.95-4.18-.6-6.38.41-2.6,1.22-4.99,2.71-7.2,1.27-1.88,2.71-3.59,4.26-5.23,1.5-1.59,3.27-2.58,5.49-2.83.89-.1,1.66-.12,2.44.36.23.14.57.1,1,.17-.38-.69-1.03-.86-1.44-1.27-.25-.25-.5-.51-.71-.79-.31-.41-.55-.88-.87-1.28-1.27-1.59-1.6-3.44-1.64-5.41-.05-2.06.14-4.07.78-6.04.1-.31.27-.61.42-.9,1.19-2.34,2.34-4.69,3.59-6.99.38-.7.91-1.37,1.53-1.86,1.59-1.26,3.24-2.45,4.92-3.6,1.5-1.03,3.21-1.69,4.97-2,1.54-.27,3.03-.92,4.63-.79.75-.48,1.63-.5,2.46-.54,1.59-.09,3.18-.42,4.79-.09.36.08.78-.2,1.19-.22.59-.04,1.19-.04,1.78,0,1.43.11,2.77-.23,4.09-.74.39-.15.85-.14,1.16-.19.51.92,1.03,1.76,1.45,2.65.67,1.4,1.44,2.78,1.86,4.26.32,1.15.18,2.43.22,3.65.02.51-.01,1.03-.04,1.54-.05,1.07-.09,2.14-.17,3.21-.06.7.13,1.21.75,1.6.32.21.58.55.77.88.59,1.07,1.11,2.17,1.71,3.24.3.54.43,1.08.39,1.7-.03.48,0,.97.04,1.45.13,1.36-.58,2.33-1.47,3.21-.39.38-.76.82-1.22,1.09-.93.54-1.44,1.45-2.21,2.26.14.22.27.47.44.7.98,1.32,1.22,2.64.47,4.21-.63,1.31-.98,2.74-1.46,4.12-.14.4-.32.79-.52,1.28.64.09,1.15.34,1.62-.19.1-.11.34-.12.52-.14,2.39-.3,4.79-.56,7.18-.9,1.96-.27,3.44.45,4.67,1.95.85,1.04,1.4,2.13,1.38,3.52,0,.53.17,1.12.42,1.59.92,1.76,1.07,3.7,1.32,5.59.12.91-.02,1.97-.4,2.8-.27.6-.73,1.14-.94,1.82-.05.17-.33.27-.51.39-.74.51-1.46,1.03-2.22,1.51-.42.27-.41.5-.15.9.26.39.39.86.59,1.29.21.46.36.96.65,1.36.45.61.63,1.22.36,1.95-.6,1.59-.98,3.22-1,4.94,0,.55-.47,1.11-.78,1.63-.44.75-.58,1.58-.78,2.4-.26,1.08-.61,2.13-.96,3.35.29-.1.54-.12.69-.25,2.26-1.95,4.81-3.29,7.76-3.84.54-.1,1.11-.16,1.62-.36,2.09-.81,4.33-.99,6.46-1.61.35-.1.74-.08,1.11-.09.52,0,1.05.05,1.56.01,2.16-.17,4.16.53,6.14,1.22,1.01.35,1.98.82,2.94,1.29,1.46.72,2.51,1.95,3.55,3.15,2.49,2.89,4.23,6.2,5.5,9.78.51,1.44.5,2.97.56,4.48.03.85.03,1.7.1,2.54.09,1.11-.19,2.09-.78,3.05-1.19,1.92-2.12,3.99-3.53,5.78-.28.36-.38,1.01-.29,1.47.29,1.68-.36,3.18-.73,4.73-.04.16-.18.31-.3.44-.17.19-.41.34-.53.56-.21.37-.55.83-.47,1.17.12.51.7.36,1.16.35.79,0,1.39.45,1.91.98.6.6,1.14,1.25,1.7,1.89.1.11.19.23.26.36.51.94.99,1.89,1.51,2.82.67,1.2.78,2.53.87,3.85.1,1.41.05,2.82.05,4.24,0,.25,0,.55-.12.76-.64,1.03-1.3,2.05-1.98,3.05-.33.48-.71.91-1.15,1.45.2.43.39.9.62,1.35.36.71.75,1.41,1.13,2.11.03.06.1.13.09.18-.1.62-.14,1.26-.32,1.86-.38,1.22-.83,2.41-1.27,3.66.18.12.36.24.55.37.83.55,1.41,1.22,1.3,2.32-.03.35.17.72.24,1.08.27,1.44.4,1.6,1.8,1.8.56.08.95.3,1.26.78.31.5.68.96,1.03,1.44.46.62.48,1.33.37,2.03-.14.87-.38,1.73-.52,2.6-.15.87-.34,1.75-.31,2.62.03.98-.49,1.78-.65,2.68-.03.19-.23.42-.41.51-1.09.56-2.21,1.06-3.46,1.14-.75.04-1.51.12-2.35.19.27.63.46,1.16.72,1.66.39.74.94,1.41,1.23,2.19.34.91.49,1.89.72,2.84.02.1.02.23-.02.33-1.06,2.76-2.56,5.17-5.3,6.56-.46.23-.98.35-1.48.46-1.41.3-2.82.62-4.25.83-.95.14-1.93.13-2.9.12-1.96-.01-3.93-.07-5.89-.1-.33,0-.67.01-1,.05-1.84.2-3.69.41-5.53.62-1.06.12-2.11.35-3.18.38-1.73.04-3.47,0-5.21-.1-.45-.02-.95-.26-1.3-.55-.85-.7-1.88-.84-2.88-1.08-1.26-.3-2.51-.6-3.78-.85-1.89-.37-3.78-.7-5.68-1.02-1.35-.23-2.72-.35-4.05-.63-2.46-.52-4.9-1.12-7.35-1.69-1.22-.29-2.44-.59-3.67-.86-.34-.07-.71-.01-1.16-.01ZM85.82,71.59c-.01-.09,0-.18-.03-.24-.08-.17-.17-.33-.27-.49-1.1-1.91-2.64-3.46-4.15-5.03-1.47-1.53-2.28-3.44-2.86-5.41-.37-1.25-.28-2.63-.43-3.95-.08-.69-.22-1.36-.33-2.07-.74.22-1.17.57-1.5,1.07-.22.33-.49.66-.81.9-1.44,1.07-3.02,1.51-4.82,1.07-1.65-.4-3.31-.74-4.97-1.1-1.12-.24-2.17-.13-3.21.4-.55.28-1.21.32-1.8.51-.66.21-1.16.06-1.49-.51-.39.07-.71.12-.99.17-.08.1-.14.15-.16.22-.65,1.85-1.32,3.7-2.35,5.36-.99,1.6-1.11,3.23-.63,4.99.21.76.51,1.43,1.09,2.09.19-.4.37-.72.51-1.05.47-1.07,1.14-1.94,2.21-2.52,1.11-.6,2.18-1.26,3.06-2.24.34-.37,1.06-.58,1.59-.56.95.04,1.88.43,2.82.47,1.18.05,2.17.61,2.99,1.23,1.79,1.35,3.44,2.88,4.37,5.05.75,1.74,2.07,3.02,3.74,3.95,1.06.58,2.04,1.29,3.07,1.92.29.18.55.29.79-.18.51-.97,1.26-1.75,2.22-2.32.84-.5,1.81-.83,2.35-1.73ZM323.84,160.95c0,.08-.02.17-.03.25.83.35,1.64.78,2.5,1.04,1.6.49,3.21.93,4.85,1.29,1.25.28,2.49.57,3.73.89,1.06.27,2.11.62,3.19.87,2.85.65,5.68,1.36,8.57,1.76.99.14,2.01.13,2.99.3,2.51.44,5.04.27,7.56.32,1.87.04,3.73-.19,5.6-.22,1.36-.03,2.73-.04,4.06-.33,1.27-.28,2.34-.93,2.83-2.24.18-.47.01-.74-.46-.65-1.17.21-2.31-.03-3.45-.14-.36-.04-.78-.07-1.09.07-.74.33-1.46.27-2.17.05-1.35-.41-2.68-.88-4.01-1.33-.52-.18-1.04-.36-1.56-.55-.47-.17-.87-.49-1.41-.5-1.42-.03-2.59-.95-4.04-1.07-1.59-.13-3.13-.81-4.77-.85-.15,0-.3-.03-.44-.06-1.37-.32-2.74-.59-4.15-.26-.21.05-.44-.02-.66-.04-.35-.03-.7-.08-1.05-.09-.93-.02-1.86-.02-2.78-.02-.66,0-1.32-.06-1.98,0-1.77.16-3.54.36-5.31.54-.52.05-1.04.09-1.55.17-1.39.21-2.78.43-4.17.65-.26.04-.52.1-.78.15ZM50.84,102.14c.38-.29.77-.56,1.12-.89.56-.53,1.08-1.09,1.85-1.36.36-.12.66-.4.99-.59.48-.28.83-1.06.43-1.41-.56-.49-.41-1.17-.76-1.71-.3-.46-.31-1.18-.27-1.78.07-.99.28-1.96.45-2.94.11-.64.39-1.3.34-1.92-.07-.85.03-1.73-.39-2.56-.19-.37-.2-.97-.03-1.35.38-.84-.03-1.35-.51-1.91-.43-.5-1.01-.92-1.32-1.45-.33-.58-.68-.91-1.26-1.08-.09.05-.16.07-.21.12-.11.1-.22.2-.29.33-.96,1.7-2.33,2.95-4,3.99-1.27.79-2.5,1.19-3.97.85-.36-.08-.74-.07-1.11-.04-.93.06-1.44.53-1.65,1.47.28.22.57.44.86.66-.14.78-.27,1.53-.42,2.39,1.31.95,2.73,1.91,4.08,2.96.72.55,1.63,1.13,1.92,1.89.46,1.2.99,2.47.78,3.84-.1.64.27.97.76,1.22.82.42,1.66.81,2.61,1.26ZM322.71,91.17c.56-.68.74-1.01.55-1.44-.5-1.16-.5-2.37-.32-3.56.1-.66-.16-.89-.65-1.07-.94-.34-1.9-.29-2.87-.17-1.56.18-2.8,1-4.07,1.84-1.32.87-2.76,1.57-4.53.84-.32.73-.68,1.41-.92,2.13-.57,1.68-1.3,3.28-2.26,4.78-.42.65-.84,1.31-1.37,2.12,1.03-.07,1.92-.08,2.79-.21.96-.14,1.89-.45,2.84-.59,1.21-.17,1.86-.39,3-1.23.08-.06.21-.02.31-.06.37-.13.77-.23,1.1-.43.71-.44,1.41-.91,2.07-1.42.65-.5,1.43-.78,2.09-1.28.55-.42,1.39-.75,2.24-.27ZM178.23,130c.2.02.35.06.49.03,1.19-.21,2.36-.47,3.55-.65.68-.11,1.38-.2,2.06-.14,1.78.15,3.48.07,4.88-1.13.22-.74.07-1.31-.29-1.95-.44-.78-.67-1.68-.98-2.53-.12-.34-.25-.67-.33-1.02-.08-.33-.1-.68-.16-1.11-.3.14-.52.18-.6.31-.1.17-.01.52-.14.6-.85.56-1.64,1.26-2.74,1.33-.68.04-1.43.05-2,.34-.52.27-1.05.41-1.58.61-.58.22-1.24.4-1.67.8-1.07,1.01-1.26,3.05-.5,4.51ZM230.63,131.43c.23-.18.46-.31.62-.5,1.57-1.77,3.57-2.77,5.84-3.31.63-.15,1.23-.48,1.79-.83.84-.53,1.61-1.17,2.45-1.7.36-.23.81-.33,1.23-.46,1.2-.36,2.12-1.09,2.61-2.23.4-.94.57-1.97.89-2.94.3-.9.61-1.78,1.26-2.55.52-.62,1-1.39,1.03-2.54-1.1.87-2.07,1.56-2.93,2.35-1.91,1.75-3.71,3.6-5.65,5.31-1.88,1.65-3.65,3.43-5.72,4.88-1.36.96-2.51,2.19-3.47,3.57-.22.31-.39.54.05.93ZM108.14,105c-.06-.59-.01-1.13-.18-1.59-.82-2.27-1.35-4.58-1.41-7-.02-.92-.54-1.41-1.46-1.47-.59-.04-1.19,0-1.79-.01-.59-.02-1.07.17-1.46.58.09.49.23.92.24,1.36.02,1.41.04,2.83-.07,4.23-.05.65-.23,1.51-.67,1.84-.72.54-.87,1.18-.99,1.94.45.12.92.16,1.29.37.95.51,1.86.81,2.91.24.33-.18.79-.09,1.19-.15.76-.1,1.51-.21,2.39-.33ZM152.32,164.36v-.2c-.23.02-.45.03-.67.05v.17c.23-.01.45-.02.67-.03Z"/>
    <path class="cls-1" d="M180.4,165.45c-.1.37-.2.54-.17.69.05.29.1.74.29.83.58.28,1.19.63,1.9.44,1.39-.38,2.79-.74,4.17-1.16,1.1-.34,2.19-.74,3.27-1.14.61-.23,1.18-.63,1.8-.75,1.02-.19,1.87-.83,2.98-1.05-.1.55-.48.8-.81,1.04-1.35,1-2.8,1.9-4.07,2.99-1.46,1.25-3.05,2.27-4.65,3.3-1.15.74-2.38,1.34-3.53,2.07-.95.61-1.85,1.31-2.77,1.97-.33.24-.66.47-.9.78-.75.18-1.4.64-2.04,1.17-.41.33-.98.46-1.46.71-2.03,1.08-4.06,2.17-6.08,3.28-.43.23-.8.56-1.3.75.58-1.81,2.08-2.95,3.13-4.38-.23-.43-.46-.84-.71-1.32-1.45.28-3.01.44-4.47.91-1.46.47-2.83,1.22-4.22,1.88-1.8.86-3.56,1.8-5.37,2.64-.7.32-1.46.58-2.22.68-1.11.16-2.17.44-3.22.84-.48.18-1.04.12-1.52.3-.42.16-.73.59-1.15.73-2.27.75-4.39,1.91-6.75,2.45-1.03.24-1.99.78-2.98,1.21-2.29.99-4.65,1.7-7.17,1.71-.81,0-1.48.25-2.2.67.06.11.12.23.16.3-.18.31-.49.61-.51.93-.05.83-.6,1.35-1.04,1.92-.49.62-1.12,1.13-1.66,1.71-.73.77-1.41,1.59-2.15,2.34-.25.25-.63.37-.93.58-.39.28-.81.54-1.14.88-1.22,1.28-2.83,1.91-4.36,2.68-1.64.83-3.45,1.09-5.22,1.48-1.07.24-2.17.35-3.29.53-.12-.3-.19-.46-.26-.62-.46-1.2-1.38-1.75-2.61-1.93-.48-.07-1-.18-1.42-.4-1.05-.57-2.13-.58-3.27-.37-1.84.34-3.68.69-5.59.54-.86-.07-1.78.09-2.46.78-.17.17-.31.37-.48.55-.52.56-.99,1.18-1.59,1.62-.23.17-.77-.02-1.14-.14-1.83-.59-3.64-1.32-5.57-1.49-1.5-.14-3.04-.09-4.55.05-1.04.1-2.06.47-3.08.76-1.16.33-2.24-.15-2.8-1.26-.26-.52-.56-1.02-.84-1.53.49-.6-.32-1.08-.14-1.64.19-.59.4-1.17.61-1.76.07-.2.29-.42.25-.58-.11-.5.27-.68.47-.99.19-.29.16-.7.32-1.02.73-1.48,2.03-2.12,3.58-2.41.26-.05.49-.3.73-.46.43-.31.69-.86,1.32-.91.1,0,.21-.17.29-.28.08-.12.12-.38.19-.38.89-.03,1.43-.82,2.21-1.02.63-.16,1.24-.34,1.77-.72.06-.04.12-.11.18-.12.87-.05,1.71-.21,2.55-.46.6-.18,1.24-.06,1.89-.39.53-.27,1.29-.09,1.95-.08,1.27.02,2.51-.12,3.74-.43,1.07-.26,2.18-.3,3.26-.52.96-.19,1.89-.56,2.85-.72.98-.17,1.96-.34,2.93-.56.35-.08.73.02,1.1.03.86.01,1.7.11,2.49-.46.27-.2.79-.05,1.19-.05,1.69,0,3.39-.09,5.07.01,1.72.11,3.43.04,5.14-.05,1.26-.07,2.52-.2,3.77-.63,1.48-.51,3.07-.68,4.66-.76,1.7-.08,3.4-.19,5.08-.4,1.06-.13,2.13-.37,3.14-.73,1.91-.68,3.84-1.04,5.87-1.11,1.3-.05,2.58-.48,3.87-.67.8-.12,1.62-.07,2.43-.16,1.76-.18,3.5-.48,5.16-1.17,1.09-.45,2.26-.69,3.34-1.15,1.34-.57,2.64-1.24,3.94-1.91.89-.46,1.75-.98,2.62-1.49,1.54-.9,3.04-1.86,4.72-2.48.54-.2,1.13-.24,1.7-.38.84-.2,1.66-.48,2.5-.62,1.02-.18,1.68-1.22,2.82-1.12.1,0,.32-.22.3-.26-.26-.58.27-.4.49-.53.3-.17.92.1.82-.61,0-.03.12-.13.15-.12.78.36.96-.49,1.46-.71,1-.43,2.04-.79,3.24-1.25Z"/>
    <path class="cls-1" d="M253.67,68.57c.41-.32.72-.62,1.09-.84,1.03-.62,2.14-.84,3.31-.54.47.12.88.1,1.11-.39.13-.27.2-.58.28-.88.47-1.59,1.52-2.74,2.79-3.73.5-.39.96-.83,1.48-1.16,1.29-.82,2.69-1.23,4.24-.87,1.15.26,2.31.46,3.46.69.91.18,1.45.82,1.81,1.59.34.71.64,1.42.48,2.31-.41,2.23-1.16,4.26-2.46,6.15-1.17,1.7-2.55,3.18-3.92,4.69-.61.68-1.2,1.38-1.81,2.07-.2.22-.4.45-.65.6-.63.4-1.27.78-1.6,1.5-.06.12-.3.16-.59.3.07-.84.06-1.57.19-2.27.17-.92-.07-1.63-.91-2.05-.71-.36-1.39-.29-2.02.27-.41.37-.87.7-1.35.96-.41.22-.89.32-1.34.49-1.76.65-3.25,1.73-4.51,3.09-1.55,1.68-3.03,3.43-4.51,5.17-.45.53-.82,1.12-1.23,1.68-.13.18-.27.35-.43.5-.96.87-1.34.87-2.43-.04.23-.81.52-1.64.71-2.5.22-.98.44-1.97.5-2.96.07-1.22-.04-2.45-.06-3.67,0-.58-.37-.9-.77-1.24-.88-.74-1.87-1.14-3.01-1.03-1.06.11-1.92.69-2.65,1.42-.98.97-1.92,1.99-2.95,3.08-.04-.02-.26-.13-.61-.3.49-.92.94-1.8,1.41-2.66.43-.77.87-1.55,1.36-2.29.54-.79,1.17-1.52,1.71-2.31.94-1.38,2.21-2.46,3.36-3.64.97-.99,2.09-1.84,3.17-2.72.63-.5,1.35-.89,1.98-1.39,1.44-1.13,4.37-.08,4.89,1.65.11.38.28.75.46,1.25Z"/>
    <path class="cls-1" d="M378.27,61.19c.23.25.42.49.64.68,1.1.94,1.48,2.24,1.84,3.56.4,1.45-.03,2.76-.66,4.05-.26.53-.62.69-1.22.74-1.22.12-2.17-.34-3.14-1.01-1.23-.84-2.64-1.29-4.11-1.58-3.01-.6-6.06-.34-9.08-.32-1.76.01-3.32.94-4.66,2.14-.63.56-1.26,1.13-1.92,1.65-.6.48-1.77.39-2.63-.19.1-.25.18-.53.33-.76,1.31-2.09,2.41-4.29,3.97-6.23.68-.84,1.09-1.89,1.6-2.86.29-.54.57-1.09.79-1.67.09-.24,0-.55,0-.83-.01-.39-.15-.83-.02-1.17,1.1-2.95,2.72-5.56,5.4-7.35.91-.61,1.85-1.24,2.88-1.56,2.14-.66,4.34-.82,6.5.01.76.29,1.52.6,2.29.87.98.33,1.69,1.01,2.35,1.74.23.25.36.61.48.95.61,1.68.78,3.36.06,5.06-.56,1.33-1.1,2.66-1.7,4.09Z"/>
  </g>
</svg>