<?xml version="1.0" encoding="UTF-8"?>
<svg id="Layer_1" data-name="Layer 1" xmlns="http://www.w3.org/2000/svg" version="1.1" viewBox="0 0 403 217">
  <defs>
    <style>
      .cls-1 {
        fill: #ff5c7a;
      }

      .cls-1, .cls-2 {
        stroke-width: 0px;
      }

      .cls-2 {
        fill: #a515ff;
      }
    </style>
  </defs>
  <path class="cls-2" d="M-291.42-27.81"/>
  <g id="DUST_04" data-name="DUST 04">
    <path class="cls-1" d="M140.26,203.47c.66-.97,1.3-1.77,1.77-2.65.51-.97.31-1.42-.6-2.01-.72-.47-1.5-.6-2.31-.29-2.15.81-4.34,1.55-6.44,2.48-4.03,1.78-8.01,3.65-12,5.51-.92.43-1.9.84-2.67,1.47-1.46,1.2-3.1.61-4.65.61-.46,0-.91-.81-1.36-1.26-.25-.25-.48-.52-.66-.71,1.78-1.19,3.66-2.43,5.51-3.69,1.55-1.06,2.53-2.61,3.47-4.19.35-.6.69-1.21.97-1.85.94-2.07,1.04-4.01-.31-6.06-2.47-3.74-5.98-4.87-10.21-4.59-.79.05-1.58-.16-2.38-.16-4.15,0-8.24.49-12.2,1.81-6.62,2.21-13.24,4.39-19.59,7.31-6.05,2.78-12.1,5.56-17.87,8.9-.95.55-1.89.72-2.92.61-3.78-.38-7.57-.74-11.34-1.21-1.63-.2-3.22-.65-5.05-1.04.32-.42.45-.69.66-.87,1.38-1.11,2.83-2.14,4.17-3.3,1.13-.98,2.16-2.1,3.21-3.17.79-.8,1.08-1.72.48-2.8-1.51-.97-3.05-.59-4.69-.16-2.11.55-4,1.57-6.08,2.27.76-.55,1.51-1.12,2.28-1.66,5.79-4.11,11.4-8.45,16.76-13.11,2.12-1.85,3.97-3.93,5.59-6.23.22-.31.43-.62.58-.96.88-1.89.1-3.2-2.03-3.21-1.28,0-2.6.11-3.82.46-8.05,2.28-15.65,5.63-22.87,9.85-8.31,4.86-16.12,10.46-23.7,16.39-.67.53-1.35,1.05-1.99,1.54-1.87-1.05-3.67-2.06-5.45-3.06,1.04-3.37,1.96-6.64,3.07-9.85.85-2.47,1.85-4.89,2.93-7.26,1.73-3.79,3.52-7.55,5.39-11.28,2.13-4.25,5.27-7.82,8.16-11.55,1.72-2.22,3.66-4.22,5.86-5.94.64-.51,1.49-.82,2.3-1.03.48-.12,1.06.14,1.56.22-1.85,4.26-3.61,8.33-5.37,12.39-.11.25-.2.5-.3.75-.35.82,0,1.16.82,1.22-.1.36-.19.71-.32,1.17.21-.06.36-.07.45-.14,1.06-.98,2.11-1.97,3.16-2.97,2.98-2.86,6-5.67,8.91-8.6,1.96-1.98,3.76-4.12,5.64-6.18,5.15-5.64,10.45-11.13,16.24-16.12,5.53-4.78,11.08-9.54,16.68-14.23,3.96-3.32,8.29-6.13,12.74-8.74,4.99-2.93,10.08-5.71,15.14-8.53,2.56-1.42,5.38-2.1,8.19-2.79.78-.19,1.56-.38,2.35-.52.96-.17,1.95.17,2.21.86.32.86.58,1.81-.19,2.57-.64.64-1.36,1.22-2.11,1.73-3.95,2.69-7.94,5.34-11.88,8.04-1.14.78-2.18,1.69-3.27,2.55.05.11.11.21.16.32.57-.2,1.15-.37,1.7-.61,4.6-2.06,9.18-4.18,13.81-6.19,1.81-.79,3.73-1.33,5.6-2,1.82-.66,3.65-1.27,5.43-2.02,2.39-1.01,4.87-1.66,7.36-2.31,3.37-.88,6.67-2.03,10.02-2.99,4.58-1.31,9.15-2.69,13.79-3.78,3.75-.88,7.58-1.49,11.4-2,2.7-.36,5.44-.49,8.17-.47,2.02.02,4.04.44,6.05.73.4.06.77.34,1.08.48.77,1.97-.2,3.24-1.54,4.39-2.3,1.97-4.9,3.48-7.59,4.79-3.32,1.63-6.73,3.08-10.11,4.58-2.35,1.04-4.74,1.98-7.07,3.06-2.1.97-4.04,2.22-5.65,3.91-.45.47-.98.91-.97,1.7.02,2.06,1.67,3.25,3.65,2.56,3.49-1.21,6.87-2.68,10.13-4.41,2.17-1.15,4.24-2.51,6.5-3.44,1.44-.59,3.13-.6,4.72-.74.37-.03.79.42,1.15.63-.13,1.23-.88,1.79-1.69,2.36-1.53,1.08-3,2.24-4.5,3.37-.09.06-.17.13-.24.21-.56.64-1.25,1.26-.9,2.25.22.64,1.45,1.22,2.51,1.03,1.15-.21,2.28-.58,3.4-.95,3.21-1.07,6.41-2.16,9.6-3.27,2.48-.86,4.98-1.66,7.41-2.65,2.33-.95,4.59-2.08,6.86-3.19,2.94-1.43,5.94-2.78,8.77-4.4,2.74-1.57,5.31-3.46,7.96-5.18,2.75-1.78,5.54-3.5,8.26-5.32,3.47-2.32,6.86-4.74,10.33-7.06,1.96-1.31,4.02-2.47,5.96-3.8,3.23-2.21,6.37-4.55,9.61-6.75,3.58-2.44,7.25-4.73,10.82-7.18,2.79-1.91,5.49-3.93,8.22-5.92,6.76-4.9,13.45-9.9,20.29-14.68,5.18-3.63,10.32-7.32,15.81-10.5,2.16-1.26,4.12-2.87,6.15-4.36,3.24-2.37,6.57-4.56,10.1-6.48,1.99-1.08,3.79-2.54,5.6-3.94,2.32-1.8,4.54-3.72,6.83-5.56,2.22-1.79,4.47-3.53,6.69-5.32.97-.79,1.94-1.29,3.24-.54-.73,1.33-2.22,2.25-2.54,3.91.58.81,1.34.93,2.15.61,1.14-.45,2.3-.9,3.37-1.51,2.14-1.22,4.27-2.48,6.32-3.85,1.23-.83,2.45-1.28,3.91-.94.34.51.68,1.03,1.13,1.7-1.13,1.31-2.25,2.74-3.51,4.03-4.58,4.67-9.22,9.29-13.82,13.95-.87.88-1.69,1.84-1.03,3.29,1.06.44,2.13.35,3.11-.13,1.3-.64,2.62-1.29,3.77-2.14,2.71-2.01,5.33-4.14,8.15-6.35-.06.57-.14,1.1-.18,1.63-.16,2.36-1.24,4.29-2.87,5.92-1.7,1.71-3.41,3.42-5.23,4.99-3.63,3.14-6.55,6.93-9.75,10.46-2.22,2.45-4.16,5.18-7.01,7.01-.51.33-.92.83-1.25,1.55.33.02.7.14.98.03.8-.31,1.55-.75,2.34-1.08,1.38-.57,2.75-1.26,4.19-1.61,2.95-.71,5.72.03,8.41,1.41.04,2.17-.42,4.21-1.41,6.05-3.09,5.72-6.44,11.3-10.76,16.2-2.06,2.33-4.26,4.54-6.4,6.8-.95,1.01-1.7,2.23-3.01,2.86-.22.11-.39.37-.54.59-.31.46-.57.92-.15,1.47.4.54.89.28,1.32.14,3.57-1.18,7.29-1.16,10.98-1.4.93-.06,1.71.3,2.39.81.84.63,1.32,1.46,1.17,2.64-.51,3.84-2.36,7-5.01,9.68-2.48,2.52-5.2,4.77-7.44,7.56-1.5,1.86-3.45,3.36-5.21,5-2.55,2.38-5.17,4.67-7.64,7.12-3.36,3.33-6.09,7.2-8.87,11-.21.28-.36.61-.35,1.17,1.65-.83,3.33-1.61,4.95-2.51,2.94-1.64,5.81-3.42,8.77-5,2.5-1.33,5.1-2.48,7.65-3.71,1.26-.61,2.49-1.26,3.76-1.83,3.13-1.4,6.27-2.76,9.4-4.15,2.2-.98,4.38-2.01,6.58-2.99,3.21-1.43,6.43-2.84,9.64-4.28,3.46-1.55,7.09-2.72,10.42-4.58,2.26-1.25,4.78-1.8,7.3-2.23,2.01-.34,4.04-.58,6.07-.76,1.65-.15,3.26.3,4.63,1.14,1.73,1.07,2.4,2.87,2.26,4.85-.09,1.27-.4,2.55-.84,3.75-1.86,5.09-4,10.07-6.67,14.79-3.14,5.56-6.38,11.06-10.34,16.08-2.39,3.02-5,5.87-7.59,8.73-4.23,4.68-8.53,9.31-12.79,13.96-.13.15-.2.35-.44.77.58,0,.97,0,1.35,0,1.66-.05,3.3-.32,4.96.22,2.5.82,3.7,2.9,2.52,5.41-.38.81-.69,1.65-1.08,2.61.44.02.7.1.94.04,3.06-.77,6.1-1.65,9.19-2.33,3.73-.83,7.47-1.36,11.25-.05,2.42.83,2.84,3.29,2.15,4.94-.45,1.09-1.03,2.07-2.04,2.8-.78.56-1.45,1.29-2.06,2.03-.33.4-.43.99-.77,1.81.72-.17,1.06-.22,1.38-.33.6-.22,1.23-.42,1.79-.73,3.21-1.76,6.6-3.1,9.96-4.52,3.19-1.34,6.32-2.85,9.61-4.35.32.72.23,1.49-.41,2.17-4.4,4.69-8.48,9.7-13.49,13.8-4.85,3.97-9.72,7.93-14.53,11.95-1.55,1.3-2.94,2.8-4.41,4.2-.34.32-.72.61-1.33.71.27-.34.55-.67.81-1.01,1.06-1.4,2.13-2.79,3.17-4.2.61-.83.56-1.67-.18-2.51-1.02-.33-2.01-.06-3.01.43-2.68,1.32-4.86,3.33-7.25,5.06-2.09,1.51-4.08,3.16-6.23,4.58-.79.52-1.9.67-2.88.79-2.34.28-4.7.45-7.05.64-.44.03-.9-.07-1.69-.15,1.21-.83,2.16-1.4,3.02-2.09.84-.66,1.64-1.38,2.35-2.18.49-.55.89-1.24.31-2.03-.51-.7-1.2-1-2.08-.79-4.91,1.2-9.61,2.99-14.1,5.29-2.41,1.24-4.8,1.85-7.54,1.69-4.17-.23-8.36-.16-12.54-.17-4.02,0-8.04.05-12.06.07-.43,0-.86-.05-1.28-.1-1.51-.2-2.95-.14-4.44.34-2.97.94-6,1.65-8.98,2.56-2.03.62-4.01,1.42-6.02,2.11-4.24,1.45-8.64,1.99-13.08,2.35-1.6.13-3.2.31-4.8.39-1.44.08-1.93-.11-2.84-.91.35-1.06,1.17-1.68,2.1-2.23,2.81-1.67,5.62-3.34,8.41-5.03,1-.6,1.56-1.97,1.23-3.03-.12-.37-.45-.79-.79-.94-.83-.35-1.72-.73-2.6-.79-2.35-.16-4.72-.32-7.06-.16-3.09.2-6.17.66-9.24,1.1-2.05.29-4.08.74-6.12,1.13-.93.18-1.85.36-2.77.57-1.71.39-3.4.86-5.12,1.17-1.79.33-3.6.52-5.41.75-.78.1-1.45-.13-2.09-.64-1.59-1.3-3.41-2.16-5.28-3.02-5.04-2.34-10.38-3.79-15.64-5.44-3.35-1.05-6.81-1.5-10.34-1.45-3.86.05-7.72.01-11.58.05-3.49.04-6.95.44-10.35,1.21-3.03.68-6.02,1.52-9.02,2.36-1.13.32-2.18.9-3.31,1.22-2.93.85-5.88,1.67-8.84,2.4-3.52.87-7.06,1.63-10.68,2.45Z"/>
  </g>
</svg>