<?xml version="1.0" encoding="UTF-8"?>
<svg id="Layer_1" data-name="Layer 1" xmlns="http://www.w3.org/2000/svg" version="1.1" viewBox="0 0 403 237">
  <defs>
    <style>
      .cls-1 {
        fill: #ff5c7a;
      }

      .cls-1, .cls-2 {
        stroke-width: 0px;
      }

      .cls-2 {
        fill: #a515ff;
      }
    </style>
  </defs>
  <path class="cls-2" d="M-291.42-7.81"/>
  <g id="DUST_03" data-name="DUST 03">
    <path class="cls-1" d="M23.07,50.81c-4.04,1.59-7.25,4.2-10.64,6.53-.65.45-1.28.95-1.81,1.52-.49.53-.84,1.19-1.28,1.84-.84.14-1.71.28-2.59.43-1.46.25-2.39,1.16-3.09,2.4-2.13,3.79-2.09,7.67-.4,11.55,1.37,3.13,3.2,5.95,5.87,8.17,1.87,1.55,3.7,3.15,5.52,4.75,2.1,1.84,4.58,3.07,6.97,4.46,3.97,2.31,8.22,3.94,12.49,5.55,2.52.95,5.08,1.82,7.64,2.68.68.23,1.42.3,2.13.46,1.17.25,2.34.51,3.57.78.14-.79-.43-1.07-.82-1.41-1.05-.94-2.16-1.81-3.19-2.77-1.27-1.18-2.02-2.67-2.59-4.3-1.54-4.38-2.27-8.96-3.46-13.42-.46-1.71-.35-3.38.43-4.95.71-1.42.68-2.71.06-4.19-1-2.41-.95-4.95-.44-7.49.35-1.77.65-3.55,1.05-5.31,1.2-5.31,2.89-10.44,6.06-14.95.64-.91,1.41-1.8,2.31-2.44,2.88-2.07,5.64-4.31,8.76-6.06,3.68-2.06,7.65-3.25,11.62-4.48.86-.26,1.74-.45,2.62-.65,1.69-.39,3.35-.26,4.98.31.9.32,1.8.67,2.7.97.71.24,1.38.49,1.73,1.23.33.69.97.69,1.43.34,2.04-1.55,4.15-1.29,6.39-.52,1.94.66,3.58,1.7,4.76,3.35,1.01,1.42,1.85,2.96,2.75,4.46.61,1.02,1.21,2.04,1.76,3.09.49.94.95,1.89,1.35,2.87.51,1.25,1.31,2.33,2.44,2.96,3.43,1.9,5.87,4.91,8.74,7.43.84.74,1.52,1.66,2.46,2.7.13-.75.26-1.31.32-1.88.15-1.4.16-2.83.43-4.2.82-4.06,2.38-7.74,5.6-10.55.58-.51.99-1.21,1.51-1.79,1.16-1.28,2.14-2.81,4.18-2.8.33,0,.67-.12.97-.26,1.9-.89,3.72-.53,5.5.35,2.22,1.1,4.6,1.97,6.6,3.39,2.96,2.1,4.73,5.09,4.88,8.85.03.82.43,1.32,1.07,1.78,1.06.75,2.1,1.53,3.07,2.39,1.74,1.54,2.96,3.38,3.1,5.8.17,2.97.65,5.92.34,8.93-.17,1.61.11,3.26.16,4.9.05,1.64.07,3.27.08,4.91.01,1.74,0,3.48,0,5.63,3.89-4.83,8.3-8.43,13.29-11.31,1.31-.75,2.73-1.31,4.11-1.93,3.51-1.57,6.52-3.77,8.76-6.94.55-.78,1.13-1.55,1.62-2.38,1.33-2.21,2.08-4.61,2.3-7.19.13-1.57.42-3.13.62-4.69.4-3.16-.57-6.15-1.16-9.19-.59-3.04-1.9-5.75-3.78-8.22-2.22-2.93-4.55-5.76-7.23-8.28-3.29-3.09-7.18-5.24-11.16-7.27-4.28-2.19-8.84-3.68-13.37-5.22-1.52-.51-3.18-.63-4.79-.88-1.28-.2-2.58-.25-3.85-.5-2.51-.48-5.03-.56-7.54-.12-1.71.3-3.42.68-5.11,1.12-2.91.74-4.95,2.82-7.14,4.69-2.24,1.92-3.34,4.33-3.52,7.23-.1,1.51-.18,1.47-1.67,1.82-1.13.27-2.22.74-3.34,1.07-1.07.31-2.16.56-3.51.9-.32-.28-.84-.7-1.31-1.16-5.36-5.16-11.38-9.41-17.89-12.99-2.17-1.19-4.38-2.33-6.49-3.62-3.28-2-6.91-2.94-10.58-3.85-3.29-.82-6.6-1.33-10-1.41-2.07-.05-4.15-.69-6.2-.56-6.24.4-12.44,1.12-18.06,4.28-2.34,1.32-4.46,2.86-6.23,4.87-2.26,2.57-2.98,5.73-3.56,8.99-.7,3.9.11,7.77.06,11.65,0,.76.32,1.54.55,2.29.17.58.13,1.06-.27,1.57-2.05,2.65-1.86,5.55-.88,8.52.57,1.71,1.19,3.4,1.24,5.36Z"/>
    <path class="cls-1" d="M321.41,197.11c-.71-.59-1.36-1.29-2.15-1.76-4.41-2.62-7.95-6.3-11.78-9.62-2.48-2.15-4.48-4.78-6.1-7.64-.49-.87-.83-1.86-1.04-2.84-.13-.61-.03-1.38.25-1.94.54-1.04.31-1.89-.42-2.61-1.05-1.02-2.1-2.06-3.29-2.91-4.92-3.53-9.44-7.52-13.86-11.65-4.79-4.47-9.34-9.18-13.76-14.01-.87-.95-1.65-2-2.38-3.07-.5-.73-1.06-1.27-1.95-1.47-2.39-.54-4.45-1.66-6.48-3.06-3.52-2.43-7.22-4.62-10.96-6.69-1.55-.86-3.2-1.52-4.68-2.6,4.02,4.96,8.03,9.91,11.97,14.78-.17.87-.56,1.72-.4,2.45.15.69.8,1.33,1.37,1.86,1.81,1.7,3.7,3.3,5.5,5.02.96.92,1.77,1.99,2.55,2.88-.43,1.28-1.26,1.33-2.03,1.08-2.32-.75-4.69-.73-7.04-.53-4.27.36-8.05-.91-11.72-2.94-1.96-1.08-4.07-1.89-6.11-2.83-2.25-1.04-4.59-1.91-6.71-3.16-4.52-2.66-8.84-5.65-13.39-8.26-4.75-2.72-8.65-6.49-12.85-9.9-2.41-1.96-4.74-4-6.71-6.44-.5-.62-1.39-.91-2.08-1.38-.92-.63-1.95-1.17-2.68-1.98-1.36-1.5-2.58-3.14-3.77-4.78-2.96-4.09-6.53-7.46-11.1-9.69-.2-.1-.41-.18-.62-.27-.16-.06-.32-.11-.72-.26.36.57.59.97.85,1.36,2.78,4.05,5.26,8.27,7.15,12.83.7,1.7.69,3.44.35,5.12-.32,1.58-.08,2.7,1.28,3.66.86.61,1.56,1.46,2.27,2.27.87,1,1.03,2.25.97,3.51-.05,1.04-.41,1.29-1.47,1.42-2.35.29-4.02-.94-5.36-2.57-3.43-4.18-7.31-7.79-12.11-10.38-1.27-.69-2.58-.7-4.27-.63,1.33,1.42,2.53,2.63,3.66,3.9,2.72,3.05,5.49,6.05,7.49,9.68.62,1.13,1.03,2.13.95,3.43-.04.61.28,1.34.66,1.86,1.71,2.38,3.5,4.7,5.27,7.05.68.9,1.28,1.87,2.05,2.69,1.44,1.55,1.34,3.38,1.06,5.24-.15,1.02-.76,1.88-1.82,1.98-1.37.12-2.12.9-2.78,2.05.1.24.22.55.37.85.72,1.46.57,2.37-.59,3.46-1.38,1.3-2.81,2.46-4.91,2.2-.35-.04-.92.05-1.08.29-1.1,1.58-2.71,1.28-4.14,1.02-3.04-.57-6.03-1.35-8.93-2.49-4.04-1.59-7.97-3.39-11.8-5.44-2.67-1.43-5.5-2.61-8.34-3.68-4.59-1.73-8.66-4.31-12.59-7.18-1.32-.96-2.74-1.79-4.07-2.74-1.33-.95-2.63-1.95-3.87-3-1.41-1.2-2.85-2.33-4.61-3.16-.41,1.07.4,1.44.87,1.9,1.66,1.62,3.35,3.19,5.05,4.76,5.18,4.79,10.32,9.62,15.58,14.32,3.07,2.74,6.22,5.44,9.94,7.28,4.8,2.37,9.39,5.12,14.35,7.21,2.85,1.2,5.85,1.93,8.63,3.24,1.17.55,2.41.96,3.56,1.53,4.68,2.33,9.66,3.84,14.66,5.29,2.27.66,4.52,1.35,6.75,2.13,3.49,1.22,6.92,2.6,10.41,3.78,3.03,1.03,6.12,1.87,9.17,2.81,2.15.66,4.26,1.48,6.44,2.01,4.51,1.11,9.05,2.08,13.58,3.09,1.54.34,3.07.76,4.62.96,1.21.15,2.5.21,3.67-.05,1.24-.28,2.31-.09,3.46.25,1.51.45,3.04.8,4.57,1.16.85.19,1.63.03,2.36-.79-.29-.22-.54-.51-.86-.63-2.56-1.04-5.08-2.21-7.71-3-1.48-.44-2.87-1.34-4.53-1.21-.36.03-.76-.34-1.13-.56-.64-.38-1.25-.48-1.75,0-.65-.33-1.23-.77-1.89-.95-3.56-.98-7.18-1.77-10.71-2.85-6.78-2.07-13.5-4.32-20.26-6.46-4.54-1.44-9.1-2.79-13.65-4.22-2.2-.69-4.38-1.42-6.54-2.2-1.47-.53-2.53-1.62-3.68-2.96.54-.09.89-.22,1.22-.18.84.09,1.7.17,2.49.43,1.19.38,2.14.29,3.09-.63.37-.36,1.12-.48,1.7-.47,2.7.07,5.4.12,8.08.4,2.57.27,5.1.82,7.66,1.22,2.28.36,4.57.63,6.83,1.06,1.37.26,2.69.79,4.05,1.14.81.21,1.65.36,2.49.43.32.02.66-.28,1-.44-.23-1.2-1.16-1.64-1.88-2.21-4.76-3.79-8.84-8.19-12.18-13.3-.81-1.24-1.98-2.37-3.23-3.16-3.6-2.25-6.14-5.43-8.44-8.87-.78-1.17-1.5-2.4-2.09-3.67-.39-.84-.49-1.8-.75-2.83,2.86-.92,5.32-2.48,8.29-2.02,1.27.2,2.56.43,3.75.87,3.67,1.38,7.06,3.29,9.87,6.07,1.31,1.29,2.4,2.8,3.58,4.22.8.96,1.6,1.99,2.96,2.01,2.44.04,4.57,1.08,6.82,1.82,4.61,1.52,8.62,4.14,12.68,6.69,3.56,2.24,7.12,4.48,10.69,6.72,2.19,1.38,4.4,2.73,6.57,4.16,3.43,2.26,6.81,4.58,10.24,6.85,5.21,3.45,10.42,6.9,15.68,10.28.97.63,2.17.91,3.27,1.33.16.06.39-.04.97-.11-.62-.45-.96-.68-1.28-.92-1.22-.91-2.44-1.8-3.64-2.73-2.4-1.86-4.72-3.83-7.19-5.59-3.99-2.84-8.06-5.57-12.13-8.3-3.18-2.13-6.42-4.17-9.63-6.27-.31-.2-.56-.49-1.04-.93.5,0,.73-.05.92,0,3.75,1.18,7.47,2.46,11.25,3.55,3.89,1.13,7.83,2.09,11.75,3.13.54.14,1.06.4,1.61.51.52.11,1.14.28,1.59.09.78-.32,1.44-.15,2.11.15,3.2,1.41,6.19,3.02,8.87,5.43,3.89,3.5,7.43,7.25,10.49,11.46.88,1.21,2.03,1.66,3.41,2.06,2,.58,4.15.88,5.82,2.36.39.34,1.05.35,1.56.58,2.58,1.14,5.15,2.3,7.73,3.43.24.1.52.12.77.18l.17-.27Z"/>
    <path class="cls-1" d="M233.82,213.59c-2.77-.94-5.56-1.81-8.31-2.79-2.43-.86-4.97-1.49-6.98-3.29-1.13-1.01-2.4-1.87-3.56-2.86-.96-.81-2.28-1.29-2.54-2.79-.05-.28-.55-.55-.89-.7-.77-.34-1.58-.59-2.37-.89-4.01-1.49-8.02-2.99-12.03-4.47-1.52-.56-3.06-1.09-4.6-1.62-.48-.17-1-.26-1.43-.5-.3-.17-.66-.55-.65-.83,0-.3.36-.73.66-.86.5-.21,1.08-.27,1.63-.32,3.69-.33,7.31.34,10.94.79,3.76.47,7.32,1.79,10.8,3.24,5.98,2.5,11.26,6.17,16.48,9.93.86.62,1.66,1.06,2.77.98.71-.05,1.45.15,2.15.33,2.07.54,4.12,1.14,6.18,1.7,3.54.96,7.05,2.03,10.31,3.72,3.51,1.81,6.9,3.84,10.39,5.69,2.29,1.21,4.57,2.45,7.13,3.03,1.48.33,2.95.72,4.43,1.05,1.64.36,3.28.78,4.95.99,2.79.36,5.61.5,8.4.86,3.68.47,7.34,1.1,11.01,1.6,2.28.31,4.6.42,6.87.78,2.02.32,4.03.4,6.05.22.34-.03.66-.25,1.25-.48-.6-.54-.96-.98-1.41-1.25-1.5-.89-2.98-1.85-4.58-2.55-4.13-1.81-8.29-3.54-12.47-5.21-5.61-2.24-10.93-5.07-16.3-7.82-4.74-2.44-8.95-5.66-13.14-8.9-.69-.54-1.37-1.1-2.05-1.65.31-.1.51-.03.7.05,6.96,2.94,14.1,5.36,21.42,7.23,3.92,1,7.91,1.73,11.85,2.64,2.14.49,4.24,1.13,6.37,1.64,4.32,1.03,8.66,1.98,12.97,3.02,4.37,1.06,8.7,2.31,13.09,3.27,4.06.88,8.18,1.5,12.28,2.2,1.1.19,2.23.35,3.35.37,3.15.04,6.31.01,9.47,0,3.78-.02,6.16-3.72,4.44-7.07-1.1-2.15-2.36-4.26-3.83-6.16-3.48-4.48-7.82-8.13-12.04-11.87-3.63-3.22-7.44-6.22-10.51-10.04-1.74-2.17-3.67-4.19-5.69-6.47.36.23.51.3.64.4,2.85,2.12,5.65,4.32,8.57,6.33,3.91,2.68,8,5.1,11.86,7.85,8.92,6.34,17.81,12.73,26.6,19.25,4.48,3.32,8.77,6.91,13.06,10.48,3.42,2.85,6.71,5.87,10.05,8.82.33.3.7.61.9.99.13.24.06.67-.08.92-.09.16-.5.21-.75.19-.49-.06-.97-.25-1.46-.31-1.67-.18-3.36-.24-5.02-.51-2.8-.46-5.61-.79-8.41-.35-2.29.36-4.56.63-6.89.59-2.2-.04-4.4-.02-6.6.08-3.09.14-6.18.35-9.26.6-1.26.1-2.31-.4-2.95-1.31-.76-1.09-1.71-1.15-2.8-1.07-.67.05-1.35.11-2.01.23-4.16.79-8.36,1.19-12.6,1.11-1.05-.02-2.11.2-3.16.33-1.39.18-2.78.48-4.18.55-1.4.07-2.61-.57-3.68-1.45-.54-.44-1.14-.78-1.83-.23-1.55,1.24-3.42,1.3-5.27,1.48-1.11.11-2.21.35-3.32.48-.54.06-1.1.06-1.64,0-3.3-.37-6.53-1.2-9.89-1.16-1.96.03-3.93-.18-5.88-.37-1.45-.14-2.89-.6-4.33-.61-3.17-.02-6.3-.38-9.43-.73-2.29-.25-4.59-.45-6.88-.7-1.73-.19-3.47-.71-5.18-.6-4.5.27-8.83-.94-13.26-1.28-2.24-.17-4.47-.71-6.7-.64-1.93.06-3.87.05-5.71-.29-5.19-.97-10.45-.74-15.66-1.25-1.79-.17-3.58-.36-5.38-.52-1.62-.14-3.31-.59-4.85-.28-2.2.44-4.35.49-6.56.38-2.36-.12-4.73-.23-7.1-.19-6.69.09-13.37.27-20.06.4-1.18.02-2.37.02-3.55-.04-3.54-.2-7.07-.4-10.6-.66-2.58-.19-5.16-.42-7.73-.72-2.68-.31-5.36-.66-8.02-1.13-2.1-.36-4.17-.87-6.23-1.4-4.17-1.07-7.67-3.49-11.3-5.66-.62-.37-1.18-.85-1.77-1.27.78-.17,1.46-.15,2.12-.08,2.97.28,5.93.61,8.9.86,1.96.16,3.93.22,5.9.32,5.13.25,10.25.5,15.38.74,3.1.14,6.2.26,9.29.39.67.03,1.34.05,2,.08,3.77.17,7.54.46,11.31.48,4.46.03,8.92-.16,13.37-.26,5.19-.12,10.37-.24,15.56-.36.28,0,.57,0,.84-.06,3.24-.63,6.49-1.27,10.12-1.98-.61-.34-1-.65-1.44-.8ZM340.4,189.68c.12-.11.25-.23.37-.34-.19-.24-.39-.47-.58-.71-.12.12-.24.25-.35.37.19.23.37.46.56.68Z"/>
    <path class="cls-1" d="M11.71,201.62c-1.07,1.25-.77,2.49-.48,3.79.25,1.09.35,2.22.4,3.34.02.39-.27.83-.51,1.19-.46.71-1.05,1.34-1.46,2.08-.63,1.15-.94,2.31-.61,3.71.76,3.25,2.77,5.26,5.84,6.18,4.63,1.39,9.19,3.04,14.06,3.53,3.86.39,7.69,1.04,11.54,1.5,2.12.25,4.27.32,6.4.5,2.18.18,4.36.43,6.55.59,2.41.17,4.83.34,7.25.41,4.85.14,9.7.3,14.54.3,4.62,0,9.24-.11,13.86-.33,4.5-.22,8.99-.6,13.48-1.01,2.62-.24,5.22-.68,7.85-1.22-2.62-.32-5.23-.65-7.85-.97-3.13-.39-6.26-.76-9.38-1.19-2.67-.37-5.33-.85-8-1.23-2.22-.32-4.47-.51-6.68-.9-3.54-.62-7.08-1.31-10.6-2.03-3.35-.69-6.77-1.13-9.98-2.39-2.98-1.17-5.95-2.36-8.95-3.49-1.21-.46-2.45-.86-3.71-1.14-3.35-.73-6.11-2.51-8.9-4.85.66-.2,1.15-.44,1.65-.49,1.91-.18,3.82-.31,5.73-.43,4.02-.26,7.97-.81,11.45-3.04.96-.62,1.95-.75,3.06-.65,1.68.15,3.37.28,5.05.31,2.43.05,4.86.08,7.29-.03,1.85-.08,3.68-.37,5.52-.58,2.01-.23,4.02-.43,6.02-.72,2.5-.36,4.99-.79,7.49-1.18.45-.07.89-.15,1.34-.18,1.9-.13,3.81-.25,6.11-.4-2.3-1.1-4.17-2.09-6.49-2.15-2.92-.08-5.83-.51-8.74-.79-1.79-.17-3.61-.2-5.37-.56-3.71-.75-7.48-.93-11.21-1.41-3.78-.48-7.52-1.28-11.27-1.99-.63-.12-1.21-.5-2.18-.92,1.22-.6,2.1-1.03,2.98-1.46.15-1.13-.56-1.45-1.36-1.62-5.12-1.05-10.25-2.05-15.37-3.13-3.69-.78-7.35-1.67-11.03-2.47-.76-.17-1.56-.2-2.35-.21-2.26-.02-4.52.02-6.78.01-3.73-.02-7.24.95-10.64,2.37-.56.23-1.08.61-1.56.99-.72.56-1.06,1.35-.82,2.24.5,1.91.99,3.83,1.64,5.68.64,1.84,1.82,3.37,3.27,4.67.58.52,1.15,1.06,1.9,1.74Z"/>
    <path class="cls-1" d="M53.41,126.17c-1.76-2.53-4.41-3.74-7.14-4.59-4.83-1.51-9.73-2.79-14.9-2.43-3.88.27-7.74.66-11.5,1.69-5.18,1.42-8.63,4.8-9.77,9.98-1.13,5.13.1,9.61,4.54,12.69.72.5,1.1,1.12,1.2,1.93.28,2.33,1.58,4.2,2.74,6.12.84,1.39,2.25,2.19,3.63,2.98.68.39,1.36.77,2.28,1.29-.69.56-1.19,1.07-1.78,1.43-1.91,1.14-2.86,3.49-1.84,5.69.73,1.59,1.38,3.21,2.1,4.81.18.41.42.82.73,1.13,3.09,3.12,5.97,6.51,10.21,8.18,1.1.43,2.22.84,3.37,1.07,4.96.97,9.93,1.91,14.92,2.76,2.16.37,4.36.44,6.53.76,3.74.54,7.5.79,11.28.78,3.03-.01,6.07.23,9.1.18,2.41-.04,4.82-.36,7.24-.54.84-.06,1.7-.02,2.54-.08,1.18-.08,2.36-.16,3.52-.33,2.41-.34,4.82-.73,7.24-1.28-1.07-.27-2.14-.56-3.22-.81-3.5-.81-7-1.63-10.51-2.41-3.18-.71-6.38-1.34-9.56-2.05-1.42-.32-2.83-.75-4.22-1.18-4.3-1.33-8.56-2.78-12.89-4.02-3.13-.9-6.32-1.58-9.51-2.27-3.08-.66-5.88-1.92-8.45-3.71-.18-.13-.37-.26-.52-.43-1.89-2.08-2.08-4.25,1.21-5.39.51-.18,1.07-.21,1.88-.35-.56-.42-.93-.72-1.33-.98-1.45-.95-1.79-2.21-.98-3.77.88-1.69,2.53-2.22,4.2-2.51,2.27-.39,4.57-.64,6.86-.81,2.68-.2,5.37-.26,8-.38-2.59-1.49-5.27-2.99-7.91-4.55-3.56-2.1-6.8-4.63-9.83-7.44-1.03-.96-2.19-1.77-3.24-2.71-2.06-1.84-2-4.27.03-6.11,1.93-1.76,4.22-2.56,6.76-2.71,1.63-.09,3.27-.11,4.91-.06.69.02,1.38.29,2.11.46Z"/>
    <path class="cls-1" d="M107.01,161.79c-.43-.25-.83-.56-1.28-.75-5.47-2.33-10.28-5.62-14.38-9.93-.5-.53-.92-1.14-1.3-1.77-.53-.88-.24-1.51.74-1.49,3.2.06,6.4.02,9.53.95,1.07.32,2.2.43,3.31.59,1.5.21,3,.38,4.74.6-.58-.3-.98-.5-1.38-.71-5.16-2.66-10.4-5.19-15.16-8.53-2.25-1.58-4.35-3.42-6.31-5.35-2-1.97-3.7-4.24-5.64-6.27-.85-.88-1.24-1.97-1.87-2.95-.7-1.09-1.31-2.24-1.92-3.38-.59-1.09-1.16-2.19-1.69-3.31-.92-1.97-.88-4.04-.59-6.14.09-.67.21-1.34.31-2.01.14-1,.67-1.76,1.42-2.42,1.99-1.74,4.36-2.5,6.93-2.78.72-.08,1.48,0,2.17-.19,1.73-.48,3.36,0,4.98.45,1.79.51,3.53,1.17,5.3,1.71,2.23.69,4.48,1.34,7.12,2.12-.32-.88-.4-1.51-.73-1.94-1-1.3-.88-2.77-.75-4.22.15-1.57,1.53-2.11,2.67-2.82,1-.62,1.81-.18,2.65.37,1.59,1.04,3.2,2.05,4.76,3.05.94-.44.8-.98.29-1.5-.95-.96-1.85-2.02-2.94-2.8-3.88-2.76-7.18-6.17-10.74-9.29-3.05-2.67-5.95-5.56-9.75-7.19-3.36-1.44-6.74-2.88-10.34-3.62-1.59-.33-3.24-.35-4.8.42-2.38,1.18-4.77,2.38-6.46,4.49-2.33,2.9-4.65,5.85-5.6,9.55-.9,3.51-1.26,7.13-.84,10.73.19,1.63.98,3.21,1.62,4.76.41.98.63,1.82.22,2.89-.68,1.77-.56,3.62-.28,5.5.47,3.25.86,6.51,2.71,9.33,1.15,1.75,1.96,3.69,3.64,5.14,1.11.95,1.73,2.45,2.65,3.64,2.46,3.2,5.28,6.06,8.45,8.57,2.38,1.87,4.71,3.8,7.1,5.66.97.76,1.99,1.48,3.05,2.11,3.54,2.1,7.06,4.23,10.69,6.18,2.41,1.3,4.98,2.3,7.78,2.48l-.04.04Z"/>
    <path class="cls-1" d="M211.57,36.5c-.63-.04-1.08-.01-1.52-.09-1.48-.28-2.57.39-3.32,1.51-.78,1.16-1.49,2.41-1.97,3.71-.31.85-.36,1.91-.17,2.8.96,4.45,3.31,8.23,6.11,11.74.65.81,1.6,1.37,2.61,2.21.18-.56.35-.89.37-1.22.01-.26-.18-.53-.25-.8-.35-1.19-.88-2.47-.19-3.59.89-1.44,2.1-2.65,3.72-3.31.39-.16.96-.25,1.3-.08,2.05,1,4.43,1.39,6.13,3.07.64.63,1.22,1.32,1.76,2.04,1.05,1.4,2.25,2.34,4.14,1.83.86-.23,1.52.17,2.14.73,2.33,2.09,4.27,4.48,5.71,7.27.57,1.1,1.17,2.19,1.76,3.27.13.25.25.57.47.69.41.23.91.5,1.33.44.31-.04.73-.54.8-.9.21-1.1.43-2.24.38-3.35-.14-2.91.55-5.71.96-8.55.74-5.14.59-10.23-.88-15.23-2.14-7.28-6.48-12.92-12.85-17.02-1.51-.97-2.97-2.07-4.88-2.14-1.41-.05-2.82-.09-4.23-.1-.9,0-1.8.07-2.71.08-1.13.01-1.93.52-2.39,1.55-.16.36-.4.71-.46,1.09-.78,4.28-3.45,7.94-3.87,12.36Z"/>
    <path class="cls-1" d="M291.8,103.27c-2.83-1.38-5.45-2.72-7.67-4.81-4.18-3.95-8.43-7.83-12.71-11.66-1.76-1.58-3.7-2.95-5.52-4.45-3.1-2.55-5.95-5.36-8.62-8.34-.35-.39-.78-.69-1.17-1.04-.1.07-.19.13-.29.2.01.25-.04.53.05.74,1.92,4.49,3.85,8.99,5.81,13.46.38.87.85,1.73,1.46,2.45,2.73,3.25,5.66,6.28,9.04,8.87,2.73,2.09,5.3,4.35,7.23,7.28,1.33,2.02,2.96,3.83,4.43,5.75.76.99,1.62,1.2,2.82.78.77-.27,1.68-.4,2.48-.26,2.31.38,4.58.41,6.87-.05,1.28-.25,1.83.08,2.41,1.3.17.36.27.74.44,1.1.31.67.78,1.15,1.59.94.78-.2,1.25.22,1.8.66,1.94,1.55,3.15,3.68,4.45,5.71,2.1,3.27,4.09,6.61,6.16,9.9,2.04,3.24,4.13,6.46,6.16,9.7.69,1.1,1.27,2.26,1.91,3.38.95,1.67,1.96,3.3,2.84,5,.85,1.64,1.57,3.36,2.37,5.04.57,1.2.59,1.2,2.21.8.12-1.91-.43-3.74-.94-5.57-.21-.76-.48-1.52-.85-2.21-1.37-2.53-1.93-5.25-2.18-8.1-.25-2.79-1.6-5.13-3.53-7.13-.38-.39-.81-.82-.99-1.31-.94-2.59-1.68-5.26-2.74-7.8-1.81-4.31-3.68-8.61-5.79-12.77-1.24-2.45-3.01-4.63-4.56-6.92-1.36-2.01-2.75-3.99-4.1-6-1.7-2.54-4.77-2.22-6.42-.16-.88,1.1-1.7,2.25-2.58,3.35-.59.74-1.23,1.43-1.87,2.17Z"/>
    <path class="cls-1" d="M136.01,201.51c.89-.58,1.68-.61,2.52-.24,1.24.54,2.48,1.06,3.74,1.56,2.21.87,4.45,1.66,6.87,1.51.84-.05,1.67-.23,2.5-.33,1.89-.23,3.79-.42,5.69-.67,1.11-.15,2.21-.35,3.31-.57,2.37-.47,4.74-.94,7.1-1.44,1.65-.35,3.29-.72,4.93-1.11.27-.06.59-.18.74-.37.22-.29.44-.69.42-1.03-.02-.23-.42-.55-.71-.62-3.06-.7-6-1.84-9.18-2.11-2.57-.22-5.14-.6-7.67-1.12-1.35-.27-2.67-.86-3.9-1.5-2.73-1.42-5.67-2.18-8.58-3.04-1.56-.46-3.14-.9-4.73-1.23-1.81-.37-3.64-.77-5.48-.86-3.04-.14-6.1-.13-9.14,0-3.15.13-6.3.5-9.26,1.65-1.33.52-2.59,1.35-3.72,2.25-1.39,1.1-1.38,2.37-.07,3.59,2.08,1.93,4.49,3.34,7.1,4.5,3.23,1.43,6.61,2.2,10.07,2.67,1.95.27,3.9.53,5.86.66,1.99.13,2.2-.21,1.58-2.15Z"/>
    <path class="cls-1" d="M200.42,74.46c.44.58.82,1.27,1.37,1.78,1.77,1.66,3.54,3.32,5.42,4.85,3.63,2.94,6.74,6.3,9.06,10.38.55.97,1.27,1.86,1.97,2.74.87,1.09,2,1.74,3.39,2.06,1.59.37,3.08,1.07,4.33,2.19.67.6,1.36,1.19,2.03,1.79.92.84,1.91,1.39,3.34.88.35-1.56.13-3.11-.65-4.61-.92-1.75-1.83-3.49-2.7-5.27-.62-1.27-1.47-2.1-3-2.02-1.2.06-1.92-.49-2.43-1.65-.49-1.11-1.25-2.15-2.09-3.04-1.96-2.09-4.01-4.11-6.09-6.09-.64-.61-1.42-1.12-2.23-1.49-2.62-1.17-5.25-2.32-7.92-3.33-1.25-.47-2.64-.79-3.79.82Z"/>
    <path class="cls-1" d="M353.05,150.43c.06.42.02.77.16,1.01,1.81,3.24,3.59,6.51,5.49,9.7,2.46,4.13,5,8.21,7.57,12.27,3.14,4.96,6.69,9.6,11,13.61,1.36,1.27,2.69,2.57,4.06,3.82.31.29.72.57,1.13.64.86.15,1.34-.3,1.2-1.15-.12-.71-.3-1.47-.68-2.06-1.66-2.53-3.41-5-5.12-7.5-.78-1.14-1.51-2.31-2.27-3.47-.65-.99-1.26-2-1.96-2.95-1.62-2.23-3.21-4.49-4.95-6.63-1.15-1.42-2.59-2.61-3.81-3.98-2.01-2.25-3.96-4.55-5.91-6.84-.76-.89-1.52-1.78-2.17-2.74-.52-.76-1.24-1.34-1.65-2.23-.3-.65-.98-1.36-2.08-1.48Z"/>
    <path class="cls-1" d="M128.37,92.78c-2.16-2.57-3.91-5.16-6.35-7.13-1.11-.89-2.37-1.48-3.86-1.46-.61,0-1.22-.13-1.86-.2-.9.8-1.33,1.78-1.33,2.98,0,4.32,1.29,8.24,3.86,11.66,2.47,3.28,5.16,6.4,7.76,9.58.21.26.45.51.72.71.51.37,1.09.41,1.53-.07.4-.44.24-.92-.11-1.37-.49-.62-.97-1.24-1.39-1.91-.63-1-1.21-2.03-1.8-3.05-.11-.19-.23-.4-.27-.61-.4-2.15-.93-4.3-.47-6.5.09-.42.49-.86.86-1.11.78-.53,1.65-.93,2.7-1.51Z"/>
    <path class="cls-1" d="M162.81,145.58c-.37-.46-.65-1.03-1.11-1.36-1.54-1.13-3.12-2.22-4.74-3.24-3.1-1.94-6.22-3.84-9.37-5.7-2.85-1.69-5.77-3.27-8.63-4.94-1.94-1.13-3.75-2.53-5.77-3.49-4.54-2.15-8.77-4.86-13.2-7.19-.49-.26-1-.49-1.65-.58.27.3.48.71.81.88,1.88.93,2.97,2.78,4.69,3.9,1.79,1.17,3.53,2.43,5.3,3.64,1.71,1.18,3.45,2.33,5.13,3.57,1.95,1.43,3.8,2.99,5.76,4.4,1.32.95,2.7,1.85,4.14,2.59,3.5,1.8,7.02,3.57,10.6,5.2,2.09.95,4.31,1.63,6.48,2.4.41.15.86.16,1.3.23.08-.1.17-.21.25-.31Z"/>
    <path class="cls-1" d="M265.57,119.9c2.14,2.3,4.2,4.66,5.73,7.44.32.58.82,1.12,1.34,1.53,1.21.96,1.34,2.57,2.34,3.65,1.03,1.11,1.87,2.41,2.94,3.48,2.01,2.01,4.16,3.88,6.19,5.87.55.54,1.41.53,1.82,1.44.33.72,1.32,1.16,2.06,1.67.69.47,1.48.8,2.14,1.31,2.31,1.78,4.59,3.61,6.88,5.41.96.75,1.92,1.49,2.94,2.17-1.29-2.55-3.18-4.63-5.12-6.63-4.03-4.17-8.16-8.24-12.25-12.35-3.37-3.39-6.71-6.81-10.14-10.15-1.65-1.61-3.46-3.04-5.19-4.57-.55-.49-1.12-.44-1.73-.23l.03-.03Z"/>
    <path class="cls-1" d="M117.2,172.29c3.37,2.05,22.39,5.89,25.34,5.36-.75-.4-1.23-.77-1.77-.94-3.11-.97-6.2-2.05-9.37-2.8-2.83-.67-5.76-.98-8.65-1.42-1.33-.2-2.68-.36-4.02-.45-.5-.04-1.02.16-1.53.25Z"/>
    <path class="cls-1" d="M329.61,105.96c3.56,6.23,6.6,12.73,11.61,18.3-.02-.5.03-.78-.06-1.02-1.24-3.44-3.08-6.58-4.95-9.7-.84-1.39-1.67-2.8-2.59-4.14-.39-.57-1.03-.96-1.53-1.47-.14-.14-.21-.38-.27-.59-.29-.9-.93-1.33-2.21-1.39Z"/>
    <path class="cls-1" d="M265.54,119.93c.72-1.08-.36-1.16-.63-1.69l-.31.18c.33.49.66.98.98,1.47,0,0-.04.03-.04.03Z"/>
    <path class="cls-1" d="M107.05,161.75c.2.18.4.36.6.54.05-.09.09-.18.14-.27-.26-.08-.52-.16-.79-.23,0,0,.04-.04.04-.04Z"/>
  </g>
</svg>