<?xml version="1.0" encoding="UTF-8"?>
<svg id="Layer_1" data-name="Layer 1" xmlns="http://www.w3.org/2000/svg" version="1.1" viewBox="0 0 403 273">
  <defs>
    <style>
      .cls-1 {
        fill: #ff5c7a;
      }

      .cls-1, .cls-2 {
        stroke-width: 0px;
      }

      .cls-2 {
        fill: #a515ff;
      }
    </style>
  </defs>
  <path class="cls-2" d="M-291.42-7.81"/>
  <g id="DUST_02" data-name="DUST 02">
    <path class="cls-1" d="M24.66,268.18c2.49-2.11,5.03-4.17,7.46-6.36,2.11-1.9,4-4.03,6.13-5.9,2.03-1.79,4.25-3.37,6.38-5.06,3.08-2.45,6.16-4.91,9.23-7.36.39-.31.77-.64,1-1.25-1.37.65-2.78,1.21-4.09,1.96-1.05.6-1.95,1.42-2.95,2.12-1.46,1.02-2.94,2.01-4.41,3.03-1.24.85-2.52,1.65-3.68,2.6-2.38,1.95-4.92,3.6-7.62,5.09-4.55,2.52-8.89,5.39-12.46,9.26-.95,1.03-1.99,1.66-3.6,1.51-2.5-.23-5.04-.06-7.94-.06,1.35-1.28,2.43-2.36,3.56-3.38,6.07-5.51,11.92-11.24,17.31-17.41,2.57-2.95,4.84-6.17,7.31-9.2.91-1.11,1.99-2.08,3.05-3.06,2.67-2.49,5.75-4.43,8.68-6.57,3.87-2.82,7.64-5.77,11.12-9.07,2.53-2.4,5.4-4.35,8.42-6.08,3.63-2.08,6.71-4.9,9.96-7.48,2.78-2.2,5.67-4.31,8.2-6.77,4.64-4.51,10.3-7.59,15.4-11.44,2.95-2.23,5.66-4.76,8.53-7.09,3.54-2.87,6.65-6.22,10.6-8.62,2.91-1.77,5.53-4,8.28-6.02.37-.27.75-.52,1.2-.84.28.93-.31,1.42-.73,1.88-2.36,2.62-4.82,5.16-7.15,7.81-1.41,1.6-2.68,3.32-3.99,5.01-1.83,2.36-3.65,4.73-5.46,7.11-.76,1-1.6,1.98-2.19,3.08-1.11,2.06-2.64,3.74-4.25,5.41-3.2,3.33-6.27,6.8-9.45,10.15-2.18,2.3-4.47,4.5-6.7,6.75.08.12.16.24.23.36.34-.17.71-.31,1.03-.53,3.93-2.69,7.41-5.92,10.91-9.13,3.2-2.93,6.38-5.86,9.96-8.36,1.63-1.14,2.93-2.74,4.47-4.02,2.71-2.25,5.5-4.41,8.25-6.62.81-.65,1.58-1.36,2.39-2,.29-.23.66-.36,1.22-.35-.36.61-.7,1.23-1.08,1.83-1.09,1.76-2.13,3.56-3.31,5.25-1.55,2.23-3.25,4.35-4.81,6.57-1.19,1.69-2.27,3.46-3.44,5.17-.39.57-.86,1.09-1.35,1.57-1.31,1.29-2.66,2.55-4.12,3.95.78.43,1.21.14,1.59-.15,1.94-1.45,3.81-3.02,5.82-4.35,1.85-1.23,3.86-2.22,5.8-3.31,1.81-1.02,3.68-1.94,5.41-3.08,2.41-1.58,4.7-3.32,7.06-4.98.57-.4,1.15-.8,1.78-1.08,3.05-1.39,6.15-2.66,9.15-4.12,2.33-1.14,4.55-2.49,6.8-3.78,2.72-1.55,5.48-3.04,8.12-4.71,2.05-1.31,4.28-2.28,6.3-3.68,1.05-.73,2.48-1.03,3.62-1.81,1.16-.8,2.47-1.39,3.6-2.24,2.93-2.2,5.79-4.48,8.67-6.73,1.97-1.54,3.94-3.09,5.9-4.66.99-.79,1.98-1.57,2.93-2.42,2.15-1.92,4.28-3.87,6.42-5.81.56.69,1.04,1.28,1.65,2.02-.36.73-.75,1.54-1.15,2.35-2.59,5.23-5.2,10.44-7.75,15.69-2.98,6.13-5.56,12.43-7.93,18.82-1.6,4.32-3.38,8.58-4.98,12.9-1.18,3.19-2.21,6.43-3.29,9.65-.14.43-.23.9-.27,1.35-.23,3.13.84,4.33,3.97,4.91,3.83.71,7.46-.04,11.08-1.12.38-.11.75-.22,1.25-.36-5.83,5.7-11.55,11.3-17.43,17.04,1.07.42,1.7-.02,2.3-.35,3.92-2.16,7.52-4.76,10.72-7.89,5.71-5.57,11.36-11.22,17.1-16.76,2.86-2.76,5.86-5.39,8.83-8.04,3.63-3.24,7.01-6.7,9.85-10.67,3.01-4.22,6.75-7.77,10.35-11.46,2.08-2.13,4.05-4.38,6.07-6.58,1.75-1.91,3.56-3.77,5.24-5.74,2.36-2.77,4.63-5.62,6.91-8.46,2.5-3.11,5.1-6.14,7.43-9.38,4.04-5.63,7.92-11.38,11.84-17.1,3.31-4.81,6.58-9.65,9.88-14.47,3.5-5.1,7.04-10.16,10.51-15.28,2.63-3.87,5.11-7.84,7.76-11.7,2.84-4.15,5.66-8.3,9.15-11.97,5.15-5.41,9.91-11.14,14.09-17.35,1.87-2.78,4.13-5.29,6.17-7.95,2.78-3.63,5.46-7.32,8.28-10.92,2.42-3.09,5.07-6,7.46-9.11,1.95-2.54,3.58-5.33,5.49-7.9,3.72-5,7.56-9.91,11.29-14.9,1.34-1.8,2.5-3.74,3.74-5.62.37-.56.57-1.22,1.4-1.42.4-.1.69-.67,1.36-1.37-.09.8-.09,1.21-.19,1.59-.91,3.45-2.76,6.46-4.54,9.5-3.83,6.55-8.17,12.76-12.6,18.92-3.74,5.21-7.32,10.53-11,15.77-3.39,4.83-6.85,9.61-10.26,14.42-2.37,3.33-4.25,6.89-5.04,10.93-.45,2.3-.42,4.57,1.56,6.24.87.73,1.95,1.2,2.99,1.82-2.05,2.5-3.54,5.5-5.29,8.34-1.85,3-3.78,5.96-5.59,8.99-2.23,3.72-4.36,7.5-6.55,11.24-1.83,3.13-3.64,6.27-5.55,9.35-2.92,4.7-5.91,9.36-8.88,14.04-.12.2-.26.38-.38.58-.25.43-.8.91-.18,1.34.61.42.89-.27,1.22-.63,4.43-4.82,7.98-10.29,11.56-15.74,3.94-5.99,7.74-12.08,11.67-18.08,3.46-5.28,7.02-10.48,10.5-15.75,1.86-2.82,3.69-5.67,5.43-8.56.82-1.36,1.87-2.45,3.03-3.5,3.08-2.79,6.19-5.55,9.14-8.47,2.9-2.88,5.67-5.9,8.41-8.94,2.04-2.27,3.92-4.67,5.89-7,.24-.29.57-.5,1.17-1.03-.15.7-.17,1.01-.29,1.28-2.18,4.99-5.02,9.62-7.65,14.36-2.72,4.9-5.37,9.86-7.85,14.89-2.13,4.31-4.63,8.4-7.09,12.51-5.37,8.97-10.52,18.06-15.08,27.49-2.64,5.45-5.49,10.8-8.24,16.21-3.72,7.31-7.16,14.75-10.14,22.39-1.81,4.65-2.82,9.51-3.25,14.47-.2,2.35-.31,4.74-.17,7.09.22,3.66,3.33,6.86,7.33,6.47,2.99-.29,5.7-1.42,8.48-2.37.37-.13.72-.31,1.36-.59-4.2,4.94-8.21,9.66-12.2,14.35.68.88,1.24.55,1.72.08.66-.65,1.23-1.39,1.87-2.05,3.37-3.5,6.74-6.99,10.12-10.49,3.3-3.41,6.65-6.77,9.9-10.23,3.88-4.13,7.61-8.4,11.5-12.52,3.87-4.1,7.87-8.07,11.78-12.13,1.72-1.78,3.33-3.66,5.01-5.48.77-.84,1.77-1.38,2.94-1.59-.56,1.11-1.03,2.12-1.56,3.11-6.39,11.88-12.15,24.07-17.84,36.29-1.76,3.77-3.63,7.49-5.39,11.26-1.63,3.5-3.16,7.04-4.78,10.54-1.38,2.99-2.9,5.92-4.24,8.93-.82,1.85-1.35,3.8-1.43,5.86-.04.99.3,1.7.93,2.32,1.61,1.57,5.05,1.93,6.95.69,3.36-2.18,6.82-4.25,10-6.68,2.59-1.97,4.86-4.38,7.24-6.61,1.05-.98,2-2.06,3.08-3.01.33-.29.92-.38,1.39-.37.49.02.97.28,1.64.49-.22.54-.37,1.02-.6,1.46-1.7,3.16-3.35,6.34-5.13,9.45-1.51,2.63-3.18,5.17-4.74,7.77-1.12,1.87-2.18,3.76-3.23,5.67-2.24,4.11-4.45,8.23-6.69,12.34-.67,1.24-1.4,2.45-2,3.75,1.37-.6,2.36-1.56,3.19-2.74,1.47-2.07,3-4.08,4.49-6.08.66.18.72.47.45.93-1.06,1.79-2.06,3.61-3.16,5.38-2.06,3.33-4.19,6.63-6.25,9.96-.46.75-.79,1.57.33,2.47.47-.26,1.13-.48,1.59-.91,1.48-1.37,2.93-2.79,4.32-4.25,2.38-2.51,4.84-4.96,7.04-7.62,2.64-3.2,4.99-6.64,7.55-9.91,2.2-2.81,4.5-5.53,6.78-8.28.27-.32.71-.51,1.44-1.01-.78,1.93-1.42,3.5-2.05,5.06-1.45,3.58-2.81,7.19-4.36,10.72-1.14,2.59-2.63,5.02-3.76,7.61-1.88,4.31-4.96,7.78-7.73,11.47-1.21,1.62-2.42,3.24-3.52,4.93-.6.91-1.33,1.33-2.38,1.47-2.75.34-5.48.78-8.23,1.14-3.68.48-7.37.64-11.08.45-2.02-.1-4.05-.21-6.07-.35-.61-.04-1.22-.22-1.97-.37,1.09-1.74,2.11-3.34,3.09-4.96.89-1.49,1.62-3.08,2.61-4.5,1.42-2.03,3.02-3.95,4.52-5.92.37-.48.68-1.02,1.11-1.68-1.21-.27-1.86.35-2.47.87-1.66,1.43-3.28,2.91-4.89,4.4-3.34,3.1-6.67,6.22-10,9.35-.43.41-.86.54-1.49.61-3.89.39-7.74.24-11.55-.52-2.31-.46-4.58-1.15-6.83-1.85-1.08-.33-1.5-1.27-1.08-2.37.51-1.34,1.06-2.71,1.89-3.86,1.87-2.62,3.84-5.18,5.9-7.66,1.98-2.39,4.11-4.65,6.16-6.99,1.1-1.25,2.15-2.54,3.23-3.82-.07-.11-.15-.22-.22-.33-.68.34-1.45.57-2.02,1.04-1.94,1.57-3.81,3.24-5.72,4.85-1.68,1.41-3.37,2.8-5.07,4.18-2.91,2.38-5.85,4.71-8.73,7.12-6,5.04-12.78,8.8-19.86,12.05-.88.41-1.74.88-2.61,1.31-1.95.97-3.84,1.31-5.9.06-.81-.49-2-.47-3.02-.51-2.37-.09-4.75.04-7.11-.14-2.76-.22-5.51-.65-8.25-1.05-.47-.07-.9-.41-1.58-.75,2.03-1.52,3.8-2.96,5.68-4.25,1.87-1.29,3.9-2.36,5.76-3.66,1.83-1.28,3.61-2.66,5.29-4.13,2.65-2.32,5.22-4.71,7.77-7.14,1.42-1.35,2.69-2.84,4.07-4.22.99-.99,2.07-1.89,3.21-2.93-.77-.55-1.33-.35-1.98.13-1.14.86-2.36,1.62-3.53,2.44-2.07,1.47-4.14,2.94-6.17,4.46-4.58,3.41-8.75,7.35-13.48,10.59-2.36,1.62-4.38,3.75-6.52,5.69-.97.88-1.84,1.87-2.79,2.78-1.07,1.03-3.79,1.32-5.1.59-1.32-.73-1.46-1.93-.29-2.91,1.63-1.36,3.3-2.68,4.94-4.03.4-.33.76-.71,1.15-1.05.5-.43.75-1.04.34-1.52-.22-.26-1.01-.32-1.37-.14-1.5.78-2.98,1.61-4.37,2.57-2.97,2.06-5.78,4.37-9.2,5.72-1.44.57-2.76,1.42-4.2,1.98-2.52.98-5.06,1.9-7.63,2.73-3.68,1.18-7.4,2.27-11.11,3.37-2.23.66-4.47,1.34-7.01,1.22.2-.26.28-.41.4-.5,2.52-1.99,5.14-3.86,7.53-5.98,2.27-2.01,4.31-4.28,6.45-6.44.6-.6.97-1.3.68-2.24-.55-.38-1.07-.14-1.56.18-.82.53-1.65,1.06-2.44,1.63-3.25,2.37-6.49,4.76-9.74,7.13-2.36,1.72-4.76,3.39-7.11,5.13-.96.71-1.94,1.13-3.15,1.24-4.02.36-8.02.89-12.03,1.27-2.53.24-5.08.27-7.61.47-3.16.26-6.31.7-9.48.87-2.59.14-5.2.11-7.79-.08-2.64-.2-5.26-.86-7.9-.99-2.34-.11-4.71.23-7.06.36-2.15.12-4.29.74-6.61,0,3.23-3.05,6.41-5.97,9.49-8.99,3.06-3,6.42-5.68,9.44-8.75-.79-.76-1.35-.69-1.93-.27-2.67,1.91-5.5,3.64-7.99,5.76-3.73,3.18-7.23,6.63-10.83,9.96-.12.11-.27.18-.63.4.51-1.89-.78-2.5-1.92-3.21-.44-.27-.91-.49-1.46-.79,2.03-1.99,4.06-3.91,6.02-5.9,1.93-1.97,3.82-4,5.67-6.05,1.89-2.1,3.71-4.28,5.57-6.41,1.83-2.09,3.77-4.1,5.5-6.27,1.72-2.17,3.92-3.98,5.27-6.54-1.45-.83-2.31.03-3.11.69-1.68,1.37-3.32,2.8-4.89,4.3-4.38,4.16-8.72,8.35-13.05,12.56-3.34,3.24-6.68,6.49-9.95,9.8-1.9,1.93-3.71,3.95-5.49,6-.61.7-1.31,1.16-2.16,1.35-4.73,1.03-9.45,2.12-14.2,3.01-2.6.48-5.26.65-7.9.86-1.15.09-2.32-.08-3.04-1.47,1.48-1.48,2.93-3.04,4.51-4.46,6.55-5.94,12.3-12.62,18.04-19.31.97-1.13.95-1.14.04-2.49,4.86-4.52,9.76-9.07,14.64-13.61-1.14-1.2-1.36-1.32-2.47-.63-2.45,1.53-4.93,3.04-7.22,4.79-2.98,2.28-5.82,4.75-8.68,7.19-2.44,2.1-4.78,4.32-7.23,6.41-2.84,2.43-5.78,4.74-8.64,7.15-2.99,2.52-5.95,5.09-8.92,7.63-.53.45-1.01.89-1.82.81-3.54-.35-7.03.34-10.55.52-1.67.08-3.34.12-5.01.27-1.32.12-2.61.47-3.93.58-3.76.31-7.54.49-11.3.82-1.78.16-3.52.64-5.3.8-2.88.26-5.77.39-8.66.54-.55.03-1.12-.12-1.67-.19-.02-.14-.04-.27-.06-.41ZM150.94,206.37c.3-.03.71.06.9-.1,1.1-.93,2.17-1.91,3.21-2.91.3-.29.48-.71.71-1.06-.62.16-1.07.47-1.46.84-1.12,1.07-2.21,2.18-3.3,3.28-.31.3-.62.59-.93.89.78.03,1.27-.18.88-.94ZM303.97,208.3c-.32.13-.7.2-.94.41-.49.43-.98.9-1.34,1.45-.31.47-1.42.32-1.01,1.31-.55.32-1.12.63-1.65.99-.17.11-.22.39-.35.58-.16.23-.32.47-.53.64-.8.67-1.65,1.28-2.42,1.98-.83.74-1.52,1.65-2.41,2.29-1.06.77-1.45,2.33-2.99,2.51-.07,0-.13.16-.21.27.13.1.26.2.43.34-.12.1-.24.2-.36.3-.4.32-.92.58-1.16.99-.3.51-1.37-.3-1.2.79-1.12.88-2.24,1.76-3.38,2.62-1.33,1.01-2.75,1.91-4.01,3-1.26,1.09-3.13,1.35-3.97,2.97-.04.08-.21.09-.29.16-1.69,1.34-3.42,2.63-5.05,4.05-2.44,2.12-4.82,4.31-7.19,6.51-1.17,1.08-2.26,2.25-3.4,3.39,1.07,1.06,1.85.54,2.61-.03,2.42-1.83,4.82-3.68,7.24-5.52,4.44-3.37,8.88-6.74,13.33-10.1,1.26-.95,2.51-1.85,3.63-3,1.08-1.11,2.74-1.64,4.02-2.58,2.38-1.74,4.72-3.54,6.99-5.42,2.57-2.13,4.96-4.47,7.57-6.54,4.14-3.28,7.51-7.29,10.99-11.2.24-.27.24-.76.46-1.52-.87.29-1.38.37-1.8.62-1.58.96-3.11,1.99-4.68,2.95-.92.57-1.85,1.18-2.86,1.54-1.27.45-2.32,1.11-3.08,2.22-.74-.06-.9.45-1,1.03ZM267.45,151.41c-.37.49-.69,1.02-1.12,1.46-3.42,3.46-6.95,6.82-10.27,10.37-4.22,4.51-8.46,9.04-12.37,13.82-4.23,5.16-9.41,9.31-14.09,13.98-2.89,2.87-6.04,5.49-9,8.29-3.22,3.04-6.37,6.17-9.54,9.27-2.91,2.84-5.88,5.63-8.66,8.59-2.05,2.17-3.87,4.57-5.73,6.91-.82,1.03-1.51,2.15-2.21,3.27-.14.22-.02.59-.02,1.07.65-.26,1.16-.4,1.59-.66.89-.54,1.77-1.11,2.58-1.75,2.85-2.26,5.69-4.54,8.5-6.83,1.24-1.01,2.46-2.03,3.62-3.13,1.05-.99,2.02-2.06,2.99-3.12,2.14-2.32,4.28-4.63,6.38-6.98,1.69-1.89,3.31-3.84,5.01-5.72,2.68-2.95,5.43-5.84,8.1-8.8,3.6-3.99,7.15-8.01,10.72-12.02.68-.76,1.33-1.54,2.03-2.28,1.93-2.05,3.91-4.05,5.82-6.12,3.46-3.75,6.97-7.47,10.3-11.34,1.97-2.3,3.65-4.85,5.42-7.31.14-.2-.03-.62-.05-.94.66.14,1.21.09,1.46-.99-.62.42-1.04.7-1.46.98ZM178.24,173.57c-1.03-.3-1.52.24-2.06.64-3.19,2.35-6.32,4.81-9.6,7.03-2.12,1.43-4.27,2.79-6.15,4.55-.61.57-1.38.98-2.12,1.39-.75.42-1.04,1.25-1.82,1.7-1.16.67-2.2,1.57-3.23,2.44-.83.71-1.54,1.56-2.35,2.28-.8.72-1.86,1.23-2.46,2.07-.63.88-1.51,1.35-2.3,1.95-2.14,1.65-3.8,3.84-6.11,5.28-.14.09-.27.22-.38.35-.97,1.15-1.97,2.23-3.18,3.17-1.49,1.16-2.79,2.57-4.16,3.87-.42.39-.9.75-1.24,1.2-.43.57-.12,1.17.59,1.2.33.02.73-.02,1-.19,2.74-1.69,5.62-3.22,8.16-5.19,3.23-2.51,6.18-5.39,9.26-8.09,2.86-2.51,5.74-5.01,8.62-7.5,1.66-1.43,3.38-2.8,5.02-4.25,2.63-2.34,5.23-4.72,7.82-7.11,1.87-1.72,3.72-3.47,5.54-5.24.43-.41.71-.96,1.15-1.57ZM68.82,256.28c.76-.49,1.62-.96,2.39-1.55,1.97-1.51,3.89-3.08,5.85-4.6,3.78-2.93,7.58-5.85,11.37-8.77,1.88-1.44,3.81-2.83,5.65-4.32,3.19-2.56,6.29-5.23,9.49-7.76,3.79-3,7.82-5.7,11.23-9.16.69-.7.94-1.39.78-2.36-2.72,1.76-5.4,3.5-8.08,5.25-2.18,1.42-4.42,2.74-6.5,4.29-4.17,3.1-8.24,6.34-12.36,9.5-1.78,1.37-3.68,2.58-5.4,4.03-3.58,3.01-7.11,6.09-10.59,9.22-1.5,1.35-2.83,2.88-4.21,4.36-.61.66-.69,1.32.38,1.88ZM313.97,247.44c.12.09.25.18.37.27,3.5-2.93,7.02-5.83,10.49-8.8,3.45-2.94,6.49-6.24,8.73-10.22.12-.22.18-.47.27-.71-6.31,5.35-12.6,10.63-17.95,16.89-.69.81-1.27,1.7-1.9,2.56ZM237.46,196.98c.13.1.25.19.38.29,1.38-1.38,2.77-2.74,4.13-4.13,1.37-1.41,2.7-2.85,4.06-4.27,1.36-1.42,2.79-2.78,4.1-4.24,1.26-1.4,2.59-2.75,3.54-4.41-.67.15-1.45.25-1.76.68-.78,1.11-1.95,1.7-2.88,2.59-3.44,3.26-6.99,6.41-9.86,10.22-.74.99-1.65,1.93-1.7,3.27ZM104.08,219.16c-.11-.12-.21-.25-.32-.37-4.31,2.63-8.67,5.19-12.9,7.93-1.17.76-2,2.04-2.96,3.11-.1.11-.01.39-.01.81.51-.3.85-.47,1.17-.68,1.5-.98,3-1.95,4.5-2.95,2.74-1.82,5.48-3.63,8.2-5.47.93-.63,1.74-1.43,2.33-2.38ZM146.07,210.79c1.36-.29,2.23-1.2,2.9-2.36-.97.79-1.94,1.57-2.9,2.36Z"/>
    <path class="cls-1" d="M138.22,161.96c-.95-1.49-.96-2.05.37-3.37,2.49-2.48,5.03-4.92,7.64-7.29,2.64-2.39,5.52-4.49,8.42-6.57,3.13-2.24,6.13-4.68,9.09-7.15,1.57-1.31,2.84-2.99,4.4-4.32,3.16-2.69,6.39-5.29,9.65-7.87,3.48-2.75,7.03-5.43,10.55-8.12.52-.4,1.11-.72,1.86-.88-.22.29-.41.6-.66.87-3.22,3.46-6.43,6.93-9.68,10.36-3.21,3.39-6.47,6.74-9.71,10.09-2.09,2.15-4.18,4.3-6.31,6.42-2.13,2.12-4.21,4.29-6.47,6.26-2.08,1.82-4.3,3.51-6.6,5.05-2.62,1.75-5.4,3.28-8.12,4.88-1.35.79-2.74,1.49-4.44,1.62Z"/>
    <path class="cls-1" d="M213.8,147.23c1.82-4.21,4.74-7.28,7.27-10.64,3.19-4.25,6.17-8.66,9.29-12.96,2.65-3.64,5.4-7.22,8.07-10.84,2.67-3.62,5.15-7.38,7.98-10.86,3.46-4.26,7.17-8.3,10.81-12.41.69-.78,1.59-1.14,2.7-.68.48,1.01-.04,1.86-.49,2.74-1.7,3.3-3.93,6.21-6.3,9.06-5.62,6.76-11.26,13.52-16.13,20.86-4.39,6.61-9.85,12.24-15.43,17.8-2.21,2.2-4.32,4.5-6.48,6.75-.35.36-.74.69-1.29,1.2Z"/>
    <path class="cls-1" d="M101.58,167.94c-.45.42-.88.87-1.34,1.26-3.65,3.11-7.39,6.13-10.95,9.35-2.56,2.32-4.86,4.91-7.29,7.37-3.82,3.87-7.97,7.39-12.34,10.62-1.99,1.47-4.14,2.71-6.27,3.98-2.38,1.43-4.51,3.18-6.62,4.95-1.76,1.48-3.52,3.03-6.06,3.1-.61-.51-.64-1.07-.08-1.61,4.26-4.05,7.95-8.65,12.96-11.97,6.45-4.27,12.93-8.54,18.93-13.45,2.46-2.02,4.79-4.21,7.35-6.09,3.53-2.6,7.22-4.99,10.85-7.46.18-.12.41-.18.61-.28.08.08.16.16.25.23Z"/>
    <path class="cls-1" d="M370.47,206.48c2.91-6.92,6.81-13.04,11.12-18.93,4.36-5.96,9.44-11.26,14.62-16.47.1.07.2.14.3.21-.77,1.22-1.46,2.5-2.31,3.66-2.3,3.14-4.24,6.48-5.89,10-1.82,3.9-4.3,7.36-6.98,10.7-2.21,2.75-4.39,5.52-6.61,8.25-.62.76-1.33,1.44-2.04,2.12-.55.53-1.18.89-2.2.47Z"/>
    <path class="cls-1" d="M177.21,141.21c-.27-.79-.02-1.34.41-1.83,1.39-1.61,2.72-3.3,4.21-4.81,2.75-2.79,5.58-5.5,8.42-8.2.75-.71,1.63-1.29,2.49-1.87.51-.34.54-.29,1.67.35-.25.42-.44.91-.76,1.26-3.78,3.98-7.53,7.99-11.4,11.88-1.17,1.17-2.69,2-4.07,2.95-.25.17-.61.18-.96.27Z"/>
    <path class="cls-1" d="M378.59,233.32c-.3.71-.52,1.47-.92,2.12-2.37,3.86-4.78,7.69-7.19,11.52-.75,1.19-1.29,1.56-2.29,1.77.07-4.78,5.38-12.98,10.4-15.41Z"/>
    <path class="cls-1" d="M274.79,62.54c-.2-1.34.36-2.25,1.16-3.06,2.11-2.13,4.2-4.27,6.35-6.36.59-.57,1.22-1.3,2.5-.91-.2.53-.26,1.11-.57,1.5-2.16,2.69-4.35,5.36-6.59,7.99-.69.81-1.6,1.35-2.86.84Z"/>
    <path class="cls-1" d="M371.13,130.7c4.17-5.47,7.85-11.36,13.32-16.14-.95,2.87-10.03,13.97-13.32,16.14Z"/>
    <path class="cls-1" d="M382.42,162.77c1.84-3.89,8.84-13.36,10.35-14.29-.19.47-.28.76-.42,1.03-.95,1.77-1.94,3.51-2.85,5.3-1.51,2.98-3.64,5.43-6.23,7.51-.24.2-.56.3-.85.45Z"/>
  </g>
</svg>