<?xml version="1.0" encoding="UTF-8"?>
<svg id="Layer_1" data-name="Layer 1" xmlns="http://www.w3.org/2000/svg" version="1.1" viewBox="0 0 111.5 54.5">
  <defs>
    <style>
      .cls-1 {
        fill: #5cf4ff;
      }

      .cls-1, .cls-2 {
        stroke-width: 0px;
      }

      .cls-2 {
        fill: #a515ff;
      }
    </style>
  </defs>
  <path class="cls-2" d="M-268.92-118.81"/>
  <g id="LIGHTNING_05" data-name="LIGHTNING 05">
    <path class="cls-1" d="M69.83,23.75c-.6.69-1.13,1.34-1.7,1.95-.64.69-1.17,1.46-1.63,2.28-.18.32-.39.61-.68.82-.52.38-.89.89-1.27,1.4-.15.2-.19.5-.48.58-.01,0-.02.04-.02.06-.19.83-.71,1.49-1.17,2.18-.14.21-.33.39-.5.58-.97,1.11-1.73,2.38-2.44,3.66-.45.81-.97,1.52-1.71,2.08-.39.29-.64.7-.92,1.15.26.21.48.44.75.58.47.24.97.43,1.45.64.17.07.35.13.51.22.55.31.6.49.53,1.13-.03.27-.02.55.29.73.28.16.42.76.25,1.03-.05.08-.18.13-.28.16-.61.19-1.24.32-1.82.56-.76.32-1.48.72-2.21,1.09-.46.24-.89.55-1.37.73-.36.13-.64.32-.88.6-.38.45-.61.97-.74,1.55-.09.41-.2.81-.31,1.21-.08.29-.18.58-.24.88-.08.4-.35.69-.52,1.03-.13.27-.27.54-.39.82-.13.32-.33.49-.63.49-3.13,0-6.25,0-9.38,0-.03,0-.06,0-.1-.02.02-.04.03-.08.05-.1.86-.53,1.71-1.07,2.57-1.59.63-.38,1.24-.77,1.8-1.26.55-.47,1.2-.83,1.8-1.25.64-.45,1.38-.69,2.09-.99,1-.43,2-.82,2.94-1.38,1.02-.61,1.99-1.26,2.89-2.04.32-.28.66-.55,1.03-.78.2-.12.46-.14.74-.21.15-.28.05-.59-.07-.89-.11-.29-.4-.33-.65-.32-.62.01-1.23.07-1.84.09-.11,0-.3-.05-.33-.13-.11-.29-.57-.3-.51-.71.04-.26-.02-.54.03-.8.05-.29.15-.57.27-.83.1-.23.28-.42.31-.68,0-.08.07-.15.12-.22.22-.32.45-.64.67-.95.11-.16.22-.33.34-.5.02-.04.04-.09.07-.1.24-.1.32-.34.46-.53.15-.2.25-.45.42-.62.21-.22.38-.47.56-.7.2-.27.41-.55.54-.85.35-.82.87-1.54,1.35-2.29.13-.2.33-.37.39-.58.06-.25.26-.36.37-.55.04-.07.09-.16.15-.18.17-.05.14-.2.18-.31.02-.06.03-.13.06-.18.15-.25.33-.48.44-.74.1-.24.32-.39.37-.68.04-.25.13-.5.29-.72.09-.13.07-.35.05-.53-.05-.33-.12-.66-.22-.98-.1-.34-.29-.62-.62-.81-.46-.26-.9-.56-1.37-.81-.22-.12-.47-.19-.72-.26-.54-.15-1.08-.3-1.62-.41-1.21-.25-2.43-.48-3.58-.99-.54-.24-1.12-.35-1.71-.42-1.02-.13-2.05-.06-3.06.02-1.02.07-2.03.27-3.05.34-.52.04-1.04.12-1.57.08-.68-.05-1.38.09-2.07.15-.13.01-.26.03-.39.03-1.88,0-3.76.01-5.64,0-.52,0-1.04-.07-1.55-.16-.32-.05-.62-.22-.94-.3-.84-.22-1.67-.49-2.52-.61-1.05-.15-2.11-.29-3.19-.16-.28.03-.59-.1-.87-.2-1.09-.38-2.17-.79-3.26-1.17-.3-.1-.62-.14-.91-.25-1-.4-2.05-.71-2.67-1.71-.32-.51-.74-.92-1.22-1.27-.15-.11-.28-.26-.38-.41-.53-.73-1.17-1.36-1.87-1.92-.11-.09-.22-.19-.31-.3-.66-.88-1.54-1.47-2.51-1.95-.48-.23-.95-.49-1.43-.73-.89-.44-1.86-.66-2.82-.88-.7-.16-1.4-.33-2.11-.44-.75-.12-1.5-.21-2.26-.24-1.09-.04-2.18-.01-3.27-.04-.33,0-.66-.07-.99-.12-.05,0-.12-.03-.15-.07-.41-.42-.86-.82-.89-1.47,0-.16-.02-.32-.07-.47-.09-.32-.01-.6.13-.87.18-.36.37-.72.54-1.09.25-.53.69-.89,1.13-1.24.72-.58,1.48-1.11,2.21-1.66.18-.14.36-.29.54-.43.75-.56,1.5-1.12,2.26-1.68.12-.09.24-.17.38-.21.61-.17,1.11-.54,1.67-.82.48-.24.98-.41,1.53-.42,1.3-.02,2.6-.07,3.9-.1.4,0,.81.03,1.21.04,1.39.06,2.77,0,4.15-.18.7-.09,1.41-.09,2.12-.14.94-.06,1.87-.13,2.81-.18,1.34-.08,2.64.17,3.94.48,1.3.3,2.47.86,3.63,1.47,1.02.54,2.09.99,3.13,1.48.39.18.77.39,1.17.57.31.14.63.27.96.37.46.13.9.29,1.33.52.81.43,1.68.68,2.58.84.59.11,1.19.22,1.79.29,1.11.13,2.23.23,3.34.36,1.26.14,2.53.04,3.8.06.33,0,.65-.07.98-.09.8-.06,1.6-.1,2.39-.18.85-.08,1.69-.19,2.54-.28.27-.03.54-.02.81-.04.27-.02.54-.06.81-.07.36-.01.71-.02,1.07,0,1.33.08,2.65.16,3.98.25.29.02.58.03.86.11.67.19,1.36.24,2.05.3,1.23.11,2.36.54,3.44,1.1.12.06.23.17.33.27.26.27.52.55.77.82.08.08.16.18.2.28.17.46.33.92.48,1.39.11.33.3.59.55.82.38.34.81.6,1.32.71.18.04.36.1.54.15.36.11.72.18,1.1.19.36,0,.71.12,1.07.17.68.1,1.37.18,2.06.27.62.09,1.13.39,1.58.83.29.29.57.61.97.78.11.05.21.16.28.26.62.89,1.52,1.4,2.5,1.78,1.03.39,2.09.73,3.13,1.12,1.06.4,2.1.87,3.17,1.26.58.21,1.19.34,1.79.48.46.11.94.14,1.39.28.5.16,1.01.2,1.51.29.38.06.78.05,1.16.11.92.15,1.84.37,2.7.74.69.29,1.33.68,2,1.03.07.04.15.1.2.17.42.59,1.01.94,1.63,1.25.26.13.51.28.76.41.65.35,1.34.61,2.08.7.39.05.8,0,1.2-.01.71,0,1.42,0,2.12-.03.63-.04,1.25-.14,1.9-.22.04.24-.1.37-.21.51-.28.35-.56.7-.87,1.02-.19.19-.42.36-.66.48-.56.3-1.14.56-1.61,1.01-.1.1-.29.15-.44.14-.72-.04-1.44-.11-2.16-.17-.04,0-.09-.02-.13-.02-.67.15-1.13-.24-1.55-.64-.45-.42-1.02-.64-1.55-.9-.25-.13-.55-.17-.81-.28-.36-.15-.68-.36-.98-.62-.39-.33-.85-.58-1.28-.86-.36-.24-.72-.48-1.08-.71-.19-.12-.4-.23-.61-.29-1.27-.35-2.44-.92-3.52-1.67-.22-.15-.48-.26-.73-.35-.5-.18-1-.33-1.51-.48-.3-.08-.61-.1-.91-.19-.38-.12-.75-.29-1.13-.43-.47-.17-.94-.37-1.43-.46-.82-.15-1.58-.44-2.35-.72-.44-.16-.9-.29-1.35-.44-.68-.23-1.35-.49-1.94-.91-.06-.04-.11-.09-.18-.12-.97-.55-1.94-1.09-2.9-1.65-.59-.34-1.14-.74-1.78-.98-.2-.07-.41-.13-.62-.14-.36-.02-.72-.02-1.09,0-.87.04-1.69-.2-2.52-.39-.52-.12-1.03-.27-1.54-.44-.62-.21-1.12-.6-1.55-1.07-.23-.25-.32-.56-.22-.89.08-.26,0-.39-.2-.58-.46-.42-1.06-.52-1.6-.71-.82-.28-1.67-.45-2.5-.69-.62-.18-1.23-.43-1.86-.57-.57-.13-1.17-.19-1.76-.19-.35,0-.7.15-1.05.25-.63.17-1.25.35-1.88.51-.28.07-.57.1-.85.12-.67.05-1.35.07-2.02.12-.59.05-1.18.13-1.76.18-.37.03-.76.08-1.13.03-.87-.12-1.76-.06-2.61-.38-.42-.16-.9-.16-1.36-.25-.3-.06-.6-.11-.88-.21-.61-.23-1.25-.32-1.87-.16-.81.2-1.62.21-2.45.17-.42-.02-.84,0-1.25.02-.68.03-1.35.04-2.02-.15-.43-.12-.88-.14-1.33-.18-.38-.03-.72-.19-1.01-.41-.59-.46-1.3-.57-2-.73-.48-.11-.96-.21-1.4-.41-.52-.23-1-.55-1.41-.97-.25-.25-.54-.46-.83-.66-.49-.33-1-.63-1.49-.95-.55-.36-1.12-.67-1.75-.84-.29-.08-.62-.02-.94-.04-.91-.07-1.81-.23-2.68-.5-.52-.16-1.02-.4-1.54-.56-.44-.14-.89-.23-1.35-.3-.25-.04-.51.03-.77.03-.55,0-1.11.06-1.65-.01-.64-.09-1.26.06-1.9.06-.83,0-1.66.05-2.49-.1-.6-.11-1.24-.11-1.85-.07-.32.02-.64.02-.97.1-.81.2-1.63.35-2.47.37-.28,0-.47.11-.64.36-.28.42-.63.77-1.19.84-.54.07-.94.43-1.3.8-1.08,1.07-2.28,2-3.43,2.99-.33.28-.63.6-.92.91-.07.08-.08.22-.15.44.61-.18,1.12-.3,1.6-.5.75-.3,1.52-.44,2.31-.51.11-.01.23,0,.34.02.85.15,1.7.35,2.55.46,1.84.25,3.63.7,5.43,1.12,1.12.26,2.22.59,3.34.88,1.17.3,2.35.58,3.52.9.97.27,1.93.59,2.89.88.56.18,1.13.35,1.69.54.19.07.42.1.57.34-.4.25-.75.53-1.15.71-.88.39-1.54,1.02-2.04,1.82-.24.39-.54.69-.9.96-.42.33-.57,1.03-.33,1.52.11.22.2.45.3.67.3.72.78,1.21,1.57,1.38.72.15,1.42.36,2.14.48.74.13,1.49.19,2.23.25.7.06,1.41.11,2.12.15.55.03,1.09.02,1.64.04,1.31.03,2.63.06,3.94.09.7.02,1.41.05,2.11.04.68,0,1.36-.07,2.03-.1.5-.02,1.01,0,1.51,0,.94-.01,1.88-.03,2.81-.06.5-.01,1.01-.07,1.51-.07,1.13.01,2.25-.06,3.38-.13.88-.06,1.76,0,2.64.02.07,0,.14,0,.22,0,1.08,0,2.16-.01,3.24-.01.55,0,1.1.01,1.65.05.36.02.71.09,1.06.15.76.12,1.52.1,2.28.04.34-.03.68.05,1.03.08.27.02.54.04.81.07.22.03.45.09.67.12.33.06.67.11,1.01.15.85.12,1.7.22,2.51.51.24.08.44.26.68.32.68.18,1.32.49,2.05.51.15,0,.3.07.55.13Z"/>
  </g>
</svg>