<?xml version="1.0" encoding="UTF-8"?>
<svg id="Layer_1" data-name="Layer 1" xmlns="http://www.w3.org/2000/svg" version="1.1" viewBox="0 0 83.5 81.5">
  <defs>
    <style>
      .cls-1 {
        fill: #5cf4ff;
      }

      .cls-1, .cls-2 {
        stroke-width: 0px;
      }

      .cls-2 {
        fill: #a515ff;
      }
    </style>
  </defs>
  <path class="cls-2" d="M-268.92-118.81"/>
  <g id="LIGHTNING_04" data-name="LIGHTNING 04">
    <path class="cls-1" d="M82.38,1.19c-.58.47-1.16.94-1.72,1.43-.39.33-.79.67-1.14,1.04-.58.61-1.22,1.14-1.88,1.65-.1.08-.19.16-.3.26.06.09.1.17.12.19-.01.19-.06.35-.02.47.3.9.34,1.85.5,2.77.13.76.27,1.52.44,2.27.26,1.09.48,2.19.5,3.32.03,1.54.08,3.07.07,4.61,0,.69-.09,1.38-.18,2.07-.12.87-.27,1.73-.43,2.59-.1.53-.26,1.05-.38,1.58-.34,1.39-.66,2.79-1.01,4.17-.17.67-.41,1.33-.61,2-.11.38-.21.77-.31,1.16-.03.1-.08.2-.14.38-.21-.2-.38-.35-.54-.51-.07-.07-.12-.17-.19-.25-.68-.7-1.33-1.44-2.11-2.03-.36-.27-.76-.49-1.14-.73-.45-.28-.9-.55-1.35-.83-.08-.05-.15-.11-.2-.18-.21-.3-.51-.4-.86-.45-.98-.14-1.96-.31-2.94-.48-.49-.08-.97-.11-1.44.13-.15.08-.35.1-.52.14-.62.14-1.23.28-1.85.42-.36.08-.65.3-.96.5-.11.07-.25.15-.38.16-.37.04-.75.03-1.12.08-.71.1-1.41,0-2.12,0-.66,0-1.32-.01-1.98.01-.66.03-1.28-.12-1.88-.36-.82-.32-1.66-.56-2.55-.51-.17.01-.34.01-.5,0-.99-.09-1.91.21-2.86.42-.34.08-.67.18-.99.29-.76.26-1.56.32-2.35.47-.96.18-1.92.2-2.88.19-.72,0-1.43-.16-2.15-.23-1.24-.13-2.44-.44-3.66-.64-.5-.08-.93-.3-1.35-.55-.4-.23-.81-.38-1.27-.4-.11,0-.22-.05-.32-.1-.5-.27-.98-.57-1.48-.81-.16-.08-.41-.04-.6,0-.77.15-1.49.42-2.19.78-.46.24-.96.38-1.44.58-.65.27-1.16.68-1.36,1.4-.08.27-.22.52-.32.78-.07.19-.12.38-.18.57-.14.45-.29.89-.4,1.35-.08.35-.15.7-.16,1.06,0,.24.1.49.17.73.09.3.39.39.62.47.4.14.71.4,1.07.6.28.15.56.31.85.46.84.42,1.68.84,2.52,1.26.55.28,1.12.53,1.66.83.52.28,1.01.63,1.54.89,1.25.6,2.52,1.17,3.84,1.64,1.46.52,2.93.99,4.43,1.38,1.4.36,2.81.66,4.21,1,.05.01.09.04.26.11-.13.07-.21.1-.28.15-.5.38-.97.8-1.53,1.11-.24.13-.4.39-.61.59-.41.39-.82.78-1.24,1.17-.46.43-.82.92-1.13,1.46-.51.89-1.06,1.77-1.61,2.64-.7,1.11-1.28,2.26-1.77,3.48-.36.91-.83,1.77-1.22,2.67-.44.99-.88,1.98-1.17,3.02-.08.27-.21.53-.31.79-.23.6-.46,1.2-.7,1.8-.22.55-.42,1.11-.7,1.63-.52.93-.92,1.9-1.31,2.88-.11.27-.26.53-.4.79-.44.87-.98,1.66-1.54,2.45-.23.33-.45.66-.69,1-.09-.04-.17-.06-.24-.11-.38-.25-.8-.42-1.24-.53-.6-.14-1.13-.44-1.64-.77-.23-.15-.38-.15-.62-.04-1.06.5-2.13.99-3.2,1.44-.41.17-.87.23-1.29.38-.56.19-1.12.4-1.67.61-.66.25-1.34.47-1.98.76-1.28.6-2.57,1.19-3.66,2.14-.35.31-.78.55-1.2.77-.7.36-1.3.83-1.86,1.36-.47.44-.94.88-1.44,1.29-.7.59-1.23,1.31-1.75,2.05-.16.23-.33.46-.5.69-.1.13-.21.2-.39.19-.29-.02-.59,0-.93,0,.1-.32.17-.59.27-.86.24-.64.4-1.31.78-1.89.26-.41.53-.83.85-1.2.37-.43.18-.7-.25-.88-.4-.17-.82-.32-1.24-.44-.48-.14-.97-.01-1.46-.02-.05,0-.11.03-.13.07-.42.54-.86,1.07-1.26,1.63-.72,1.02-1.05,2.22-1.43,3.39-.02.06-.06.11-.09.18h-.65c.01-.12.01-.22.03-.31.25-1.17.58-2.33,1.01-3.45.25-.63.59-1.22,1.02-1.75.19-.24.35-.51.56-.73.33-.36.6-.78,1.08-1,.19-.08.31-.08.45.02.65.46,1.39.72,2.13,1,.19.07.4.08.6.11.33.05.67.05.99.14.38.12.77.15,1.17.18.34.02.65-.03.84-.4.3-.59.85-.99,1.25-1.5.57-.71,1.37-1.12,2.06-1.68.37-.31.72-.64,1.07-.98.32-.32.69-.58,1.09-.79.65-.34,1.32-.63,2.04-.82.82-.23,1.62-.51,2.44-.74.77-.22,1.54-.41,2.32-.58.97-.22,1.96-.28,2.96-.26.35,0,.7.03,1.04-.04.48-.09.91-.32,1.25-.7.21-.24.45-.45.71-.63.37-.26.61-.62.87-.97.23-.31.49-.6.77-.85.51-.47.9-1.01,1.25-1.6.36-.6.64-1.23,1-1.82.34-.57.49-1.18.64-1.8.19-.79.28-1.6.35-2.41.05-.6.17-1.2.3-1.79.19-.89.42-1.78.64-2.67.08-.34.19-.67.3-1,.24-.76.45-1.53.74-2.27.35-.88.56-1.79.78-2.71.11-.44.1-.89-.03-1.34-.15-.53-.64-.93-1.19-.93-.31,0-.62,0-.93,0-.99.03-1.96-.13-2.93-.26-.28-.04-.56-.08-.85-.1-.44-.02-.87-.1-1.21-.35-.55-.4-1.14-.42-1.77-.32-.57.09-1.13-.23-1.31-.74-.07-.19-.11-.4-.16-.6-.04-.15-.07-.3-.11-.45-.23-.8-.82-1.16-1.58-1.3-.52-.09-1.05-.14-1.57-.21-.38-.06-.76-.11-1.14-.19-.38-.08-.59-.37-.55-.76.05-.5.2-.98.42-1.44.23-.48.45-.96.62-1.46.15-.45.24-.92.33-1.39.18-.93.52-1.81.91-2.66.3-.65.55-1.3.75-1.99.23-.8.59-1.52,1.27-2.02.21-.16.45-.31.69-.42.83-.38,1.66-.76,2.5-1.12.64-.28,1.34-.38,2.02-.51,1.38-.26,2.77-.24,4.16-.24,1.55,0,3.1,0,4.65.03.98.02,1.96.08,2.93.13.48.02.95.04,1.43.09.96.11,1.91.25,2.87.37.47.06.95.1,1.42.16.15.02.31.04.46.07.47.11.94.15,1.42.17.36.02.71.1,1.07.17.68.14,1.37.22,2.07.21.65,0,1.29,0,1.94-.02.18,0,.36-.03.53-.06,1.23-.24,2.46-.26,3.7-.22.75.02,1.49.05,2.24.07.43.01.87,0,1.3.05.43.05.86.18,1.28.27.71.16,1.43.32,2.14.49.14.03.26.1.4.14.82.27,1.64.52,2.52.53.53.01,1.05,0,1.57-.16.18-.06.38-.07.57-.09.31-.04.54-.19.64-.48.12-.31.23-.63.32-.95.22-.84.41-1.68.77-2.47.25-.53.51-1.07.84-1.56.23-.35.33-.71.38-1.11.13-1.05.3-2.09.27-3.16-.03-1.25,0-2.5,0-3.76,0-.05-.01-.1-.02-.15-.43-.14-.52-.28-.47-.74.01-.12.05-.23.06-.34.02-.27,0-.52-.26-.72-.62-.48-.82-1.16-.87-1.91-.06-.87-.14-1.74-.44-2.58-.08-.23-.22-.43-.33-.65-.21-.4-.32-.8-.21-1.26.12-.53.45-.86.9-1.09.57-.29,1.16-.57,1.73-.85.01,0,.02-.02.03-.02.18-.06.36-.16.54-.18.23-.02.17-.25.33-.34.42-.22.82-.49,1.21-.75.34-.22.68-.45.99-.71.19-.16.47-.22.58-.49.93,0,1.86,0,2.79,0Z"/>
  </g>
</svg>