<?xml version="1.0" encoding="UTF-8"?>
<svg id="Layer_1" data-name="Layer 1" xmlns="http://www.w3.org/2000/svg" version="1.1" viewBox="0 0 52.5 101">
  <defs>
    <style>
      .cls-1 {
        fill: #5cf4ff;
      }

      .cls-1, .cls-2 {
        stroke-width: 0px;
      }

      .cls-2 {
        fill: #a515ff;
      }
    </style>
  </defs>
  <path class="cls-2" d="M-292.92-137.81"/>
  <g id="LIGHTNING_02" data-name="LIGHTNING 02">
    <path class="cls-1" d="M51.66.87c-.14.27-.27.54-.42.8-.16.28-.38.46-.74.45-.69-.03-1.34.17-2,.35-1.31.35-2.62.68-3.93,1.02-.5.13-.99.29-1.48.44-.74.22-1.48.44-2.22.67-.86.27-1.72.56-2.58.84-.61.2-1.23.4-1.85.56-.94.24-1.85.55-2.75.88-.3.11-.61.21-.92.31-1.44.47-2.87.95-4.31,1.42-.7.23-1.42.45-2.11.71-.57.22-1.11.5-1.67.74-.68.29-1.36.57-2.06.82-.99.34-1.95.76-2.86,1.28-.1.06-.2.17-.25.28-.27.64-.52,1.29-.79,1.92-.13.31-.29.61-.46.9-.06.1-.17.2-.27.26-.28.14-.44.06-.54-.25-.02-.06-.03-.12-.05-.22-.12.05-.24.06-.32.12-.25.2-.5.4-.73.62-.25.24-.42.5-.36.9.05.31-.04.64-.04.96,0,.34.21.6.54.63.52.04.79.36.95.78.22.55.21,1.09-.11,1.62-.22.36-.42.73-.57,1.13-.15.4-.22.84-.34,1.26-.28,1-.53,2-.85,2.98-.38,1.16-.65,2.34-.81,3.54-.08.59-.05,1.19.16,1.77.21.61.38,1.23.55,1.85.07.25.13.5.14.76.01.18-.03.38-.1.56-.12.35-.27.69-.42,1.03-.22.54-.21,1.17-.68,1.61.05.71-.49,1.23-.59,1.89-.1.65-.22,1.3-.34,1.96-.15.84-.29,1.68-.45,2.56.34.25.71.52,1.09.78.05.03.11.03.17.05.44.16.9.27,1.3.5.44.25.8.62,1.2.94.06.05.11.1.18.13,1.01.53,1.94,1.15,2.76,1.94.52.5.88,1.11,1.28,1.7.55.78,1.13,1.54,1.68,2.31.72.99,1.38,2.02,2,3.08.49.84,1.18,1.54,1.89,2.2.82.76,1.51,1.62,2.2,2.51.54.7.83,1.48,1.11,2.29.08.22.16.44.26.7-.81-.27-1.56-.21-2.31-.05-.47.1-.95.2-1.42.27-.64.1-1.25.27-1.82.61-1.01.6-2.05,1.15-3.08,1.72-.66.37-1.31.76-1.88,1.28-.67.61-1.35,1.2-2.02,1.8-.67.59-1.12,1.36-1.68,2.04-.54.66-1.09,1.3-1.75,1.85-.57.47-1.09.99-1.62,1.51-.46.45-.89.93-1.37,1.36-.52.48-1.06.95-1.82,1.01-.46.04-.68-.06-.8-.49-.1-.36-.28-.56-.67-.57-.37-.02-.74-.09-1.09-.13-.19.28-.39.52-.53.8-.22.43-.45.86-.6,1.32-.28.84-.55,1.69-.74,2.55-.14.67-.17,1.37-.19,2.06-.05,1.31-.08,2.62-.11,3.92-.02.84-.02,1.68-.04,2.52-.03,1.25-.09,2.49-.11,3.74-.02,1.21-.01,2.42-.01,3.62,0,1.56,0,3.12,0,4.68,0,.09-.01.19-.02.29H1.04c-.01-.27-.04-.53-.04-.78,0-1.93,0-3.85.04-5.78.01-.69.11-1.38.14-2.07.03-.72,0-1.44.05-2.16.09-1.53.19-3.07.33-4.59.12-1.27.32-2.53.5-3.79.14-.98.44-1.92.81-2.84.31-.78.66-1.55.95-2.34.18-.48.31-.99.4-1.49.12-.64.39-1.15.96-1.49.77-.45,1.52-.92,2.3-1.34.34-.18.72-.28,1.09-.4.84-.29,1.63-.7,2.36-1.22.73-.51,1.49-.97,2.21-1.49.47-.34.94-.7,1.34-1.11,1.1-1.15,2.27-2.21,3.51-3.2.91-.73,1.69-1.6,2.37-2.56.34-.49.74-.93,1.13-1.38.13-.15.22-.31.12-.48-.27-.46-.17-.95-.17-1.43,0-.45-.04-.89-.23-1.31-.02-.04-.05-.08-.06-.13-.35-1.68-1.29-3-2.5-4.16-1.07-1.02-1.96-2.19-2.8-3.4-.42-.61-.96-1.13-1.64-1.48-.79-.4-1.61-.72-2.46-.99-.98-.32-1.17-.6-1.18-1.63,0-1.24.13-2.47.41-3.69.28-1.25.68-2.46,1.06-3.67.32-1,.57-2.02.77-3.05.18-.9.12-1.79-.26-2.66-.48-1.09-.32-2.18.18-3.23.63-1.32,1.27-2.63,1.88-3.96.57-1.24,1.02-2.52,1.09-3.9.01-.23-.02-.45,0-.68.02-.37-.18-.61-.47-.78-.19-.12-.4-.22-.6-.31-.44-.21-.69-.57-.87-1-.2-.47-.28-.95-.3-1.46-.05-.98-.14-1.97-.24-2.95-.04-.42.03-.77.32-1.07.57-.57,1.21-1.06,1.93-1.44.19-.1.33-.3.51-.42.38-.24.77-.49,1.18-.68,1.26-.58,2.39-1.34,3.49-2.18.66-.51,1.42-.89,2.13-1.33.75-.47,1.52-.92,2.25-1.42.91-.61,1.81-1.24,2.7-1.89.42-.3.8-.65,1.2-.98.66-.55,1.31-1.1,1.96-1.66.03-.03.04-.08.07-.12,6.91,0,13.81,0,20.72,0Z"/>
  </g>
</svg>