<?xml version="1.0" encoding="UTF-8"?>
<svg id="Layer_1" data-name="Layer 1" xmlns="http://www.w3.org/2000/svg" version="1.1" viewBox="0 0 47.5 44">
  <defs>
    <style>
      .cls-1 {
        fill: #5cf4ff;
      }

      .cls-1, .cls-2 {
        stroke-width: 0px;
      }

      .cls-2 {
        fill: #a515ff;
      }
    </style>
  </defs>
  <path class="cls-2" d="M-292.92-137.81"/>
  <g id="LIGHTNING_03" data-name="LIGHTNING 03">
    <path class="cls-1" d="M4.62,43h-2.54s-.03-.1-.02-.15c.09-.45.07-.91.08-1.37,0-.23.03-.46.01-.69-.01-.24-.04-.47-.08-.71-.07-.41-.13-.82-.23-1.23-.07-.3-.17-.6-.28-.89-.25-.68-.39-1.38-.37-2.11.02-.45,0-.9.04-1.35.03-.36.09-.73.17-1.08.12-.54.26-1.07.41-1.6.07-.24.19-.46.35-.65.2-.25.46-.4.75-.5.35-.11.71-.21,1.06-.31.36-.1.71-.19,1.07-.29.42-.13.84-.28,1.26-.4.64-.18,1.29-.33,1.93-.51.38-.1.76-.12,1.15-.11.61.01,1.2-.1,1.78-.26.18-.05.36-.09.54-.11.4-.03.8-.09,1.16-.26.39-.18.79-.2,1.2-.22.34-.02.66-.08.96-.21.44-.19.89-.35,1.36-.49.6-.18,1.07-.53,1.38-1.09.09-.17.21-.32.34-.47.17-.2.4-.28.67-.23.33.06.68.05,1.01,0,.17-.02.33-.11.49-.19.51-.28.98-.6,1.42-.98.19-.17.34-.38.5-.58.39-.5.77-1.01,1.16-1.51.05-.06.09-.13.14-.2.11-.16.24-.26.41-.35.21-.11.38-.29.57-.44.16-.12.32-.24.47-.37.63-.5,1.28-.98,1.73-1.68.24-.37.52-.71.79-1.06.32-.42.52-.87.55-1.41.01-.31.07-.62.1-.93.02-.29.03-.59.03-.88,0-.49.01-.98.12-1.46.2-.86.3-1.74.41-2.62.04-.29.03-.58.04-.87,0-.25-.01-.5-.02-.76,0-.12.06-.24,0-.38-.04-.11,0-.25,0-.38,0-.39.16-.69.44-.95.22-.2.44-.4.68-.58.45-.35.76-.8.97-1.32.17-.4.39-.77.63-1.14.17-.26.42-.4.72-.44.44-.06.88-.11,1.32-.06.26.03.52.1.78.16.12.03.25.07.37.1.33.08.57-.04.78-.3.16-.19.33-.37.51-.55.25-.25.57-.39.88-.53.57-.27,1.14-.51,1.76-.64.55-.11,1.1-.23,1.66-.27.75-.06,1.51-.14,2.26-.18.73-.04,1.45-.15,2.15-.37.7-.22,1.39-.44,2.09-.66.1-.03.2-.06.32-.09v1.12c-.19.08-.39.18-.6.26-.48.17-.97.32-1.46.5-.2.07-.39.18-.59.27-.89.4-1.79.75-2.73,1-.32.08-.64.13-.97.18-.53.07-1.03.22-1.52.42-.44.18-.89.32-1.35.42-.63.13-1.25.26-1.88.39-.54.11-1.08.22-1.62.34-.18.04-.34.03-.49-.05-.14-.08-.26-.06-.39.02-.31.2-.63.38-.93.6-.36.27-.69.57-1.03.85-.36.29-.73.58-1.08.88-.13.11-.23.24-.34.37-.02.02-.03.04-.03.06-.02.46-.22.87-.35,1.3-.11.36-.15.72-.12,1.08.03.33.02.65-.03.98-.04.29-.05.59-.06.89,0,.31,0,.61,0,.92-.01.34-.05.67-.06,1.01-.01.33-.02.67-.02,1,0,.58-.11,1.14-.25,1.7-.1.39-.2.78-.31,1.16-.1.36-.09.73-.12,1.1-.06.66-.09,1.32-.29,1.95-.06.18-.15.31-.33.32-.11,0-.23-.06-.34-.1-.14-.05-.28-.13-.43-.16-.14-.02-.29-.02-.42.03-.43.16-.8.41-1.15.69-.4.31-.79.63-1.17.96-.49.43-.97.87-1.45,1.31-.27.25-.52.51-.78.77-.17.18-.34.36-.5.55-.19.22-.44.28-.71.3-.3.03-.59.03-.89.07-.28.03-.54.13-.78.28-.13.08-.3.11-.45.13-.09.01-.15.03-.21.08-.23.19-.46.37-.61.64-.04.08-.15.12-.21.19-.14.14-.29.28-.42.43-.19.22-.45.34-.72.41-.48.13-.97.24-1.45.38-.31.09-.63.19-.93.31-.75.32-1.53.52-2.33.67-.4.08-.8.18-1.2.23-.65.09-1.21.38-1.79.66-.36.17-.72.31-1.1.42-.38.11-.76.27-1.14.39-.44.15-.89.28-1.33.43-.7.22-1.34.56-1.98.9-.16.09-.18.13-.13.34.08.42.19.83.25,1.25.05.35.06.7.1,1.05.01.11.04.22.06.33.08.6.17,1.19.24,1.79.05.42.09.84.09,1.26,0,.4.04.78.12,1.17.09.45.18.9.26,1.35.03.19.04.38.05.58.01.3.02.59.03.89,0,.06,0,.13,0,.2Z"/>
  </g>
</svg>