<?xml version="1.0" encoding="UTF-8"?>
<svg id="Layer_1" data-name="Layer 1" xmlns="http://www.w3.org/2000/svg" version="1.1" viewBox="0 0 52.5 107">
  <defs>
    <style>
      .cls-1 {
        fill: #5cf4ff;
      }

      .cls-1, .cls-2 {
        stroke-width: 0px;
      }

      .cls-2 {
        fill: #a515ff;
      }
    </style>
  </defs>
  <path class="cls-2" d="M-292.92-137.81"/>
  <g id="LIGHTNING_01" data-name="LIGHTNING 01">
    <path class="cls-1" d="M10.85,1.02c-.24.92-.52,1.84-.7,2.77-.39,2.04-.85,4.06-1.49,6.04-.32,1.01-.57,2.03-.73,3.07-.05.33-.18.64-.24.97-.05.25-.03.51-.06.77-.14,1.62-.3,3.24-.44,4.87-.16,1.78-.15,3.58-.21,5.36-.03,1.07-.12,2.14-.19,3.21-.04.53,0,.65.49.8.77.23,1.26.77,1.69,1.39.4.57.79,1.15,1.17,1.73.19.28.34.59.53.87.28.43.58.84.85,1.27.18.29.51.48.54.86,0,.06.11.11.18.17.09.08.21.13.26.23.14.31.45.44.68.63.1.08.29.1.43.08.28-.04.52.06.71.23.28.27.52.57.76.88.18.23.38.47.5.74.19.41.34.84.47,1.27.04.13-.02.29-.03.41-.3.1-.57.15-.8.28-.18.11-.37.29-.44.49-.21.55-.48,1.12-.54,1.7-.15,1.51-.55,2.96-.94,4.42-.38,1.42-.94,2.77-1.43,4.15-.39,1.1-.65,2.25-.93,3.39-.42,1.68-.79,3.37-1.2,5.06-.28,1.16-.6,2.31-.85,3.47-.17.77-.32,1.55-.45,2.33-.18,1.02-.43,2.03-.64,3.05-.14.7-.23,1.41-.38,2.1-.15.65-.13,1.32-.28,1.96-.15.65-.34,1.29-.47,1.94-.09.45-.12.91-.13,1.37-.01.45.18.66.63.72.67.09,1.35.14,2.03.21.47.05.95.06,1.42.15,1.03.19,2.06.26,3.1.28,1.09.01,2.17.1,3.25.27.58.1,1.19.08,1.78.12.68.05,1.36.1,2.04.15.22.02.44.07.66.06.59-.03,1.14.1,1.7.28.39.13.84.08,1.26.13.35.04.7.12,1.05.18.32.05.64.08.95.15,1.09.25,2.2.19,3.3.2.62,0,1.24.05,1.87.08.31.01.55-.07.72-.37.24-.43.5-.85.8-1.23.69-.85,1.62-1.4,2.53-1.97.99-.63,1.98-1.27,2.89-2.02.53-.44,1.14-.8,1.72-1.19.53-.35,1.07-.68,1.61-1.01.86-.54,1.7-1.1,2.58-1.62.66-.39,1.35-.72,2.03-1.07.1-.05.21-.08.42-.15-.15.43-.27.77-.39,1.11-.35,1.03-.76,2.05-1.04,3.1-.2.77-.3,1.57-.32,2.37-.04,1.04-.16,2.07-.32,3.09-.18,1.13-.32,2.26-.45,3.39-.05.42-.04.85-.06,1.28.52.33.64.81.53,1.38-.02.12-.06.25-.03.35.08.25.06.46-.1.67-.13.18-.05.36.06.53.53.79,1.21,1.37,2.15,1.63.65.18,1.3.27,1.96.07.05-.01.1-.01.15-.01.71.04,1.42.08,2.15.13.1.37-.05.7-.19,1.01-.09.2-.22.39-.38.54-.7.67-1.16,1.51-1.68,2.31-.54.83-1.02,1.69-1.58,2.51-.42.61-.91,1.2-1.41,1.74-.88.95-1.57,1.99-2.11,3.17-.46.99-1.04,1.95-1.66,2.86-1.01,1.48-1.82,3.06-2.44,4.74-.04.11-.09.22-.13.34h-3.6c.02-.27.01-.52.06-.76.28-1.49.64-2.97,1.29-4.35.35-.74.7-1.48,1.12-2.17.34-.54.76-1.05,1.2-1.51.66-.68,1.38-1.32,2.08-1.96,1.05-.97,1.85-2.1,2.49-3.38.4-.8.92-1.55,1.41-2.31.32-.5.67-.98.8-1.6-.1-.03-.17-.07-.25-.08-.93-.11-1.75-.56-2.58-.94-.46-.21-.87-.49-1.4-.57-.52-.08-.97-.43-1.31-.83-.14-.17-.24-.43-.24-.65-.01-.64.04-1.29.06-1.93.03-.76.07-1.53.1-2.29,0-.27,0-.55,0-.82.02-.57-.08-1.08-.66-1.37-.24-.12-.37-.34-.4-.62-.02-.21-.08-.43-.14-.71-.43.09-.84.13-1.21.28-.88.36-1.74.78-2.61,1.16-1.11.48-2.13,1.14-3.2,1.7-.81.42-1.7.7-2.56,1.02-.29.11-.59.16-.89.24-1.17.32-2.32.23-3.48-.08-1.1-.29-2.22-.52-3.33-.77-.84-.19-1.67-.39-2.51-.55-.51-.1-1.04-.13-1.56-.19-1.75-.19-3.51-.13-5.26-.06-1.04.04-2.07.22-3.11.24-1.29.03-2.59,0-3.88-.07-.79-.04-1.53-.31-2.14-.85-.83-.74-1.09-1.67-.92-2.75,0-.06.05-.13.03-.19-.21-.74-.08-1.49.03-2.22.33-2.07.65-4.14,1.09-6.19.56-2.64,1.24-5.25,2.26-7.77.65-1.6,1.16-3.27,1.66-4.93.69-2.3,1.32-4.62,1.97-6.93.17-.59.32-1.19.47-1.78,0-.03.02-.07.02-.1.08-.32.27-.59.31-.94.04-.34.24-.67.37-1,.12-.32.23-.64.36-.96.13-.33.29-.65.4-.99.31-.95.62-1.91.89-2.87.07-.23,0-.5,0-.71-.97-.06-1.73-.4-2.3-1.15-.43-.57-.86-1.15-1.29-1.72-.28-.36-.55-.72-.87-1.05-.68-.7-1.53-1.17-2.35-1.68-.43-.27-.92-.5-1.26-.86-.58-.62-1.15-1.28-1.57-2.04-.2-.37-.4-.74-.65-1.08-.62-.83-.82-1.76-.81-2.78,0-.71,0-1.43-.08-2.14-.05-.43-.22-.85-.38-1.26-.16-.4-.3-.8-.28-1.23.07-1.34.13-2.68.2-4.02.08-1.62.17-3.25.26-4.87.1-1.71.2-3.42.31-5.13.08-1.1.16-2.2.28-3.3.12-1.06.28-2.12.42-3.19.02-.13-.02-.27-.04-.4,2.8,0,5.61,0,8.41,0ZM32.9,77.62s-.05.03-.07.04l.13.22s.06-.03.08-.05c-.05-.07-.09-.15-.14-.22Z"/>
  </g>
</svg>